G04 #@! TF.GenerationSoftware,KiCad,Pcbnew,(5.0.2)-1*
G04 #@! TF.CreationDate,2019-04-04T16:39:12-04:00*
G04 #@! TF.ProjectId,Dash_Warning_Panel,44617368-5f57-4617-926e-696e675f5061,rev?*
G04 #@! TF.SameCoordinates,Original*
G04 #@! TF.FileFunction,Soldermask,Bot*
G04 #@! TF.FilePolarity,Negative*
%FSLAX46Y46*%
G04 Gerber Fmt 4.6, Leading zero omitted, Abs format (unit mm)*
G04 Created by KiCad (PCBNEW (5.0.2)-1) date 4/4/2019 4:39:12 PM*
%MOMM*%
%LPD*%
G01*
G04 APERTURE LIST*
%ADD10C,0.100000*%
G04 APERTURE END LIST*
D10*
G36*
X216335673Y-138893424D02*
X216335675Y-138893425D01*
X216335676Y-138893425D01*
X216545108Y-138980174D01*
X216545109Y-138980175D01*
X216733595Y-139106117D01*
X216893883Y-139266405D01*
X216893885Y-139266408D01*
X217019826Y-139454892D01*
X217106575Y-139664324D01*
X217150800Y-139886656D01*
X217150800Y-140113344D01*
X217106575Y-140335676D01*
X217019826Y-140545108D01*
X217019825Y-140545109D01*
X216893883Y-140733595D01*
X216733595Y-140893883D01*
X216733592Y-140893885D01*
X216545108Y-141019826D01*
X216335676Y-141106575D01*
X216335675Y-141106575D01*
X216335673Y-141106576D01*
X216113345Y-141150800D01*
X215886655Y-141150800D01*
X215664327Y-141106576D01*
X215664325Y-141106575D01*
X215664324Y-141106575D01*
X215454892Y-141019826D01*
X215266408Y-140893885D01*
X215266405Y-140893883D01*
X215106117Y-140733595D01*
X214980175Y-140545109D01*
X214980174Y-140545108D01*
X214893425Y-140335676D01*
X214849200Y-140113344D01*
X214849200Y-139886656D01*
X214893425Y-139664324D01*
X214980174Y-139454892D01*
X215106115Y-139266408D01*
X215106117Y-139266405D01*
X215266405Y-139106117D01*
X215454891Y-138980175D01*
X215454892Y-138980174D01*
X215664324Y-138893425D01*
X215664325Y-138893425D01*
X215664327Y-138893424D01*
X215886655Y-138849200D01*
X216113345Y-138849200D01*
X216335673Y-138893424D01*
X216335673Y-138893424D01*
G37*
G36*
X172335673Y-138893424D02*
X172335675Y-138893425D01*
X172335676Y-138893425D01*
X172545108Y-138980174D01*
X172545109Y-138980175D01*
X172733595Y-139106117D01*
X172893883Y-139266405D01*
X172893885Y-139266408D01*
X173019826Y-139454892D01*
X173106575Y-139664324D01*
X173150800Y-139886656D01*
X173150800Y-140113344D01*
X173106575Y-140335676D01*
X173019826Y-140545108D01*
X173019825Y-140545109D01*
X172893883Y-140733595D01*
X172733595Y-140893883D01*
X172733592Y-140893885D01*
X172545108Y-141019826D01*
X172335676Y-141106575D01*
X172335675Y-141106575D01*
X172335673Y-141106576D01*
X172113345Y-141150800D01*
X171886655Y-141150800D01*
X171664327Y-141106576D01*
X171664325Y-141106575D01*
X171664324Y-141106575D01*
X171454892Y-141019826D01*
X171266408Y-140893885D01*
X171266405Y-140893883D01*
X171106117Y-140733595D01*
X170980175Y-140545109D01*
X170980174Y-140545108D01*
X170893425Y-140335676D01*
X170849200Y-140113344D01*
X170849200Y-139886656D01*
X170893425Y-139664324D01*
X170980174Y-139454892D01*
X171106115Y-139266408D01*
X171106117Y-139266405D01*
X171266405Y-139106117D01*
X171454891Y-138980175D01*
X171454892Y-138980174D01*
X171664324Y-138893425D01*
X171664325Y-138893425D01*
X171664327Y-138893424D01*
X171886655Y-138849200D01*
X172113345Y-138849200D01*
X172335673Y-138893424D01*
X172335673Y-138893424D01*
G37*
G36*
X225409200Y-135473200D02*
X224607600Y-135473200D01*
X224607600Y-134071600D01*
X225409200Y-134071600D01*
X225409200Y-135473200D01*
X225409200Y-135473200D01*
G37*
G36*
X227309200Y-135473200D02*
X226507600Y-135473200D01*
X226507600Y-134071600D01*
X227309200Y-134071600D01*
X227309200Y-135473200D01*
X227309200Y-135473200D01*
G37*
G36*
X174550800Y-134500800D02*
X173349200Y-134500800D01*
X173349200Y-132899200D01*
X174550800Y-132899200D01*
X174550800Y-134500800D01*
X174550800Y-134500800D01*
G37*
G36*
X172010800Y-134500800D02*
X170809200Y-134500800D01*
X170809200Y-132899200D01*
X172010800Y-132899200D01*
X172010800Y-134500800D01*
X172010800Y-134500800D01*
G37*
G36*
X227827600Y-132872000D02*
X226426000Y-132872000D01*
X226426000Y-132070400D01*
X227827600Y-132070400D01*
X227827600Y-132872000D01*
X227827600Y-132872000D01*
G37*
G36*
X225592400Y-132872000D02*
X224190800Y-132872000D01*
X224190800Y-132070400D01*
X225592400Y-132070400D01*
X225592400Y-132872000D01*
X225592400Y-132872000D01*
G37*
G36*
X225592400Y-130972000D02*
X224190800Y-130972000D01*
X224190800Y-130170400D01*
X225592400Y-130170400D01*
X225592400Y-130972000D01*
X225592400Y-130972000D01*
G37*
G36*
X227827600Y-130972000D02*
X226426000Y-130972000D01*
X226426000Y-130170400D01*
X227827600Y-130170400D01*
X227827600Y-130972000D01*
X227827600Y-130972000D01*
G37*
G36*
X224650800Y-128880800D02*
X220949200Y-128880800D01*
X220949200Y-126099200D01*
X224650800Y-126099200D01*
X224650800Y-128880800D01*
X224650800Y-128880800D01*
G37*
G36*
X172010800Y-125600800D02*
X170809200Y-125600800D01*
X170809200Y-123999200D01*
X172010800Y-123999200D01*
X172010800Y-125600800D01*
X172010800Y-125600800D01*
G37*
G36*
X174550800Y-125600800D02*
X173349200Y-125600800D01*
X173349200Y-123999200D01*
X174550800Y-123999200D01*
X174550800Y-125600800D01*
X174550800Y-125600800D01*
G37*
G36*
X221050800Y-124855800D02*
X218949200Y-124855800D01*
X218949200Y-124144200D01*
X221050800Y-124144200D01*
X221050800Y-124855800D01*
X221050800Y-124855800D01*
G37*
G36*
X221050800Y-123855800D02*
X218949200Y-123855800D01*
X218949200Y-123144200D01*
X221050800Y-123144200D01*
X221050800Y-123855800D01*
X221050800Y-123855800D01*
G37*
G36*
X221050800Y-122855800D02*
X218949200Y-122855800D01*
X218949200Y-122144200D01*
X221050800Y-122144200D01*
X221050800Y-122855800D01*
X221050800Y-122855800D01*
G37*
G36*
X221050800Y-121855800D02*
X218949200Y-121855800D01*
X218949200Y-121144200D01*
X221050800Y-121144200D01*
X221050800Y-121855800D01*
X221050800Y-121855800D01*
G37*
G36*
X221050800Y-120855800D02*
X218949200Y-120855800D01*
X218949200Y-120144200D01*
X221050800Y-120144200D01*
X221050800Y-120855800D01*
X221050800Y-120855800D01*
G37*
G36*
X221050800Y-119855800D02*
X218949200Y-119855800D01*
X218949200Y-119144200D01*
X221050800Y-119144200D01*
X221050800Y-119855800D01*
X221050800Y-119855800D01*
G37*
G36*
X224650800Y-117900800D02*
X220949200Y-117900800D01*
X220949200Y-115119200D01*
X224650800Y-115119200D01*
X224650800Y-117900800D01*
X224650800Y-117900800D01*
G37*
G36*
X172335673Y-114893424D02*
X172335675Y-114893425D01*
X172335676Y-114893425D01*
X172545108Y-114980174D01*
X172545109Y-114980175D01*
X172733595Y-115106117D01*
X172893883Y-115266405D01*
X172893885Y-115266408D01*
X173019826Y-115454892D01*
X173106575Y-115664324D01*
X173150800Y-115886656D01*
X173150800Y-116113344D01*
X173106575Y-116335676D01*
X173019826Y-116545108D01*
X173019825Y-116545109D01*
X172893883Y-116733595D01*
X172733595Y-116893883D01*
X172733592Y-116893885D01*
X172545108Y-117019826D01*
X172335676Y-117106575D01*
X172335675Y-117106575D01*
X172335673Y-117106576D01*
X172113345Y-117150800D01*
X171886655Y-117150800D01*
X171664327Y-117106576D01*
X171664325Y-117106575D01*
X171664324Y-117106575D01*
X171454892Y-117019826D01*
X171266408Y-116893885D01*
X171266405Y-116893883D01*
X171106117Y-116733595D01*
X170980175Y-116545109D01*
X170980174Y-116545108D01*
X170893425Y-116335676D01*
X170849200Y-116113344D01*
X170849200Y-115886656D01*
X170893425Y-115664324D01*
X170980174Y-115454892D01*
X171106115Y-115266408D01*
X171106117Y-115266405D01*
X171266405Y-115106117D01*
X171454891Y-114980175D01*
X171454892Y-114980174D01*
X171664324Y-114893425D01*
X171664325Y-114893425D01*
X171664327Y-114893424D01*
X171886655Y-114849200D01*
X172113345Y-114849200D01*
X172335673Y-114893424D01*
X172335673Y-114893424D01*
G37*
G36*
X216335673Y-114893424D02*
X216335675Y-114893425D01*
X216335676Y-114893425D01*
X216545108Y-114980174D01*
X216545109Y-114980175D01*
X216733595Y-115106117D01*
X216893883Y-115266405D01*
X216893885Y-115266408D01*
X217019826Y-115454892D01*
X217106575Y-115664324D01*
X217150800Y-115886656D01*
X217150800Y-116113344D01*
X217106575Y-116335676D01*
X217019826Y-116545108D01*
X217019825Y-116545109D01*
X216893883Y-116733595D01*
X216733595Y-116893883D01*
X216733592Y-116893885D01*
X216545108Y-117019826D01*
X216335676Y-117106575D01*
X216335675Y-117106575D01*
X216335673Y-117106576D01*
X216113345Y-117150800D01*
X215886655Y-117150800D01*
X215664327Y-117106576D01*
X215664325Y-117106575D01*
X215664324Y-117106575D01*
X215454892Y-117019826D01*
X215266408Y-116893885D01*
X215266405Y-116893883D01*
X215106117Y-116733595D01*
X214980175Y-116545109D01*
X214980174Y-116545108D01*
X214893425Y-116335676D01*
X214849200Y-116113344D01*
X214849200Y-115886656D01*
X214893425Y-115664324D01*
X214980174Y-115454892D01*
X215106115Y-115266408D01*
X215106117Y-115266405D01*
X215266405Y-115106117D01*
X215454891Y-114980175D01*
X215454892Y-114980174D01*
X215664324Y-114893425D01*
X215664325Y-114893425D01*
X215664327Y-114893424D01*
X215886655Y-114849200D01*
X216113345Y-114849200D01*
X216335673Y-114893424D01*
X216335673Y-114893424D01*
G37*
M02*
