G04 #@! TF.GenerationSoftware,KiCad,Pcbnew,(5.0.2)-1*
G04 #@! TF.CreationDate,2019-04-27T00:21:17-04:00*
G04 #@! TF.ProjectId,Dash_Warning_Panel,44617368-5f57-4617-926e-696e675f5061,rev?*
G04 #@! TF.SameCoordinates,Original*
G04 #@! TF.FileFunction,Legend,Bot*
G04 #@! TF.FilePolarity,Positive*
%FSLAX46Y46*%
G04 Gerber Fmt 4.6, Leading zero omitted, Abs format (unit mm)*
G04 Created by KiCad (PCBNEW (5.0.2)-1) date 4/27/2019 12:21:17 AM*
%MOMM*%
%LPD*%
G01*
G04 APERTURE LIST*
%ADD10C,0.200000*%
%ADD11C,0.150000*%
%ADD12C,0.400000*%
%ADD13C,0.120000*%
%ADD14C,0.701600*%
%ADD15C,2.301600*%
%ADD16R,1.201600X1.601600*%
%ADD17R,2.101600X0.711600*%
%ADD18R,3.701600X2.781600*%
G04 APERTURE END LIST*
D10*
X178019047Y-119702380D02*
X178019047Y-118702380D01*
X177780952Y-118702380D01*
X177638095Y-118750000D01*
X177542857Y-118845238D01*
X177495238Y-118940476D01*
X177447619Y-119130952D01*
X177447619Y-119273809D01*
X177495238Y-119464285D01*
X177542857Y-119559523D01*
X177638095Y-119654761D01*
X177780952Y-119702380D01*
X178019047Y-119702380D01*
X177019047Y-119702380D02*
X177019047Y-119035714D01*
X177019047Y-119226190D02*
X176971428Y-119130952D01*
X176923809Y-119083333D01*
X176828571Y-119035714D01*
X176733333Y-119035714D01*
X176400000Y-119702380D02*
X176400000Y-119035714D01*
X176400000Y-118702380D02*
X176447619Y-118750000D01*
X176400000Y-118797619D01*
X176352380Y-118750000D01*
X176400000Y-118702380D01*
X176400000Y-118797619D01*
X176019047Y-119035714D02*
X175780952Y-119702380D01*
X175542857Y-119035714D01*
X174780952Y-119654761D02*
X174876190Y-119702380D01*
X175066666Y-119702380D01*
X175161904Y-119654761D01*
X175209523Y-119559523D01*
X175209523Y-119178571D01*
X175161904Y-119083333D01*
X175066666Y-119035714D01*
X174876190Y-119035714D01*
X174780952Y-119083333D01*
X174733333Y-119178571D01*
X174733333Y-119273809D01*
X175209523Y-119369047D01*
X176947619Y-120402380D02*
X176757142Y-120402380D01*
X176661904Y-120450000D01*
X176566666Y-120545238D01*
X176519047Y-120735714D01*
X176519047Y-121069047D01*
X176566666Y-121259523D01*
X176661904Y-121354761D01*
X176757142Y-121402380D01*
X176947619Y-121402380D01*
X177042857Y-121354761D01*
X177138095Y-121259523D01*
X177185714Y-121069047D01*
X177185714Y-120735714D01*
X177138095Y-120545238D01*
X177042857Y-120450000D01*
X176947619Y-120402380D01*
X176090476Y-120735714D02*
X176090476Y-121402380D01*
X176090476Y-120830952D02*
X176042857Y-120783333D01*
X175947619Y-120735714D01*
X175804761Y-120735714D01*
X175709523Y-120783333D01*
X175661904Y-120878571D01*
X175661904Y-121402380D01*
X173876190Y-119802380D02*
X173876190Y-118802380D01*
X173495238Y-118802380D01*
X173400000Y-118850000D01*
X173352380Y-118897619D01*
X173304761Y-118992857D01*
X173304761Y-119135714D01*
X173352380Y-119230952D01*
X173400000Y-119278571D01*
X173495238Y-119326190D01*
X173876190Y-119326190D01*
X172733333Y-119802380D02*
X172828571Y-119754761D01*
X172876190Y-119707142D01*
X172923809Y-119611904D01*
X172923809Y-119326190D01*
X172876190Y-119230952D01*
X172828571Y-119183333D01*
X172733333Y-119135714D01*
X172590476Y-119135714D01*
X172495238Y-119183333D01*
X172447619Y-119230952D01*
X172400000Y-119326190D01*
X172400000Y-119611904D01*
X172447619Y-119707142D01*
X172495238Y-119754761D01*
X172590476Y-119802380D01*
X172733333Y-119802380D01*
X172066666Y-119135714D02*
X171876190Y-119802380D01*
X171685714Y-119326190D01*
X171495238Y-119802380D01*
X171304761Y-119135714D01*
X170542857Y-119754761D02*
X170638095Y-119802380D01*
X170828571Y-119802380D01*
X170923809Y-119754761D01*
X170971428Y-119659523D01*
X170971428Y-119278571D01*
X170923809Y-119183333D01*
X170828571Y-119135714D01*
X170638095Y-119135714D01*
X170542857Y-119183333D01*
X170495238Y-119278571D01*
X170495238Y-119373809D01*
X170971428Y-119469047D01*
X170066666Y-119802380D02*
X170066666Y-119135714D01*
X170066666Y-119326190D02*
X170019047Y-119230952D01*
X169971428Y-119183333D01*
X169876190Y-119135714D01*
X169780952Y-119135714D01*
X172447619Y-120502380D02*
X172257142Y-120502380D01*
X172161904Y-120550000D01*
X172066666Y-120645238D01*
X172019047Y-120835714D01*
X172019047Y-121169047D01*
X172066666Y-121359523D01*
X172161904Y-121454761D01*
X172257142Y-121502380D01*
X172447619Y-121502380D01*
X172542857Y-121454761D01*
X172638095Y-121359523D01*
X172685714Y-121169047D01*
X172685714Y-120835714D01*
X172638095Y-120645238D01*
X172542857Y-120550000D01*
X172447619Y-120502380D01*
X171590476Y-120835714D02*
X171590476Y-121502380D01*
X171590476Y-120930952D02*
X171542857Y-120883333D01*
X171447619Y-120835714D01*
X171304761Y-120835714D01*
X171209523Y-120883333D01*
X171161904Y-120978571D01*
X171161904Y-121502380D01*
D11*
X219189880Y-115062678D02*
X219237071Y-115109869D01*
X219378642Y-115157059D01*
X219473023Y-115157059D01*
X219614595Y-115109869D01*
X219708976Y-115015488D01*
X219756166Y-114921107D01*
X219803357Y-114732345D01*
X219803357Y-114590773D01*
X219756166Y-114402011D01*
X219708976Y-114307630D01*
X219614595Y-114213250D01*
X219473023Y-114166059D01*
X219378642Y-114166059D01*
X219237071Y-114213250D01*
X219189880Y-114260440D01*
X218293261Y-115157059D02*
X218765166Y-115157059D01*
X218765166Y-114166059D01*
X217962928Y-115157059D02*
X217962928Y-114166059D01*
X217396642Y-115157059D02*
X217821357Y-114590773D01*
X217396642Y-114166059D02*
X217962928Y-114732345D01*
X219614595Y-116746369D02*
X219473023Y-116793559D01*
X219237071Y-116793559D01*
X219142690Y-116746369D01*
X219095500Y-116699178D01*
X219048309Y-116604797D01*
X219048309Y-116510416D01*
X219095500Y-116416035D01*
X219142690Y-116368845D01*
X219237071Y-116321654D01*
X219425833Y-116274464D01*
X219520214Y-116227273D01*
X219567404Y-116180083D01*
X219614595Y-116085702D01*
X219614595Y-115991321D01*
X219567404Y-115896940D01*
X219520214Y-115849750D01*
X219425833Y-115802559D01*
X219189880Y-115802559D01*
X219048309Y-115849750D01*
X218623595Y-116793559D02*
X218623595Y-115802559D01*
X218387642Y-115802559D01*
X218246071Y-115849750D01*
X218151690Y-115944130D01*
X218104500Y-116038511D01*
X218057309Y-116227273D01*
X218057309Y-116368845D01*
X218104500Y-116557607D01*
X218151690Y-116651988D01*
X218246071Y-116746369D01*
X218387642Y-116793559D01*
X218623595Y-116793559D01*
X217632595Y-116793559D02*
X217632595Y-115802559D01*
X219897738Y-118382869D02*
X219756166Y-118430059D01*
X219520214Y-118430059D01*
X219425833Y-118382869D01*
X219378642Y-118335678D01*
X219331452Y-118241297D01*
X219331452Y-118146916D01*
X219378642Y-118052535D01*
X219425833Y-118005345D01*
X219520214Y-117958154D01*
X219708976Y-117910964D01*
X219803357Y-117863773D01*
X219850547Y-117816583D01*
X219897738Y-117722202D01*
X219897738Y-117627821D01*
X219850547Y-117533440D01*
X219803357Y-117486250D01*
X219708976Y-117439059D01*
X219473023Y-117439059D01*
X219331452Y-117486250D01*
X218906738Y-118430059D02*
X218906738Y-117439059D01*
X218670785Y-117439059D01*
X218529214Y-117486250D01*
X218434833Y-117580630D01*
X218387642Y-117675011D01*
X218340452Y-117863773D01*
X218340452Y-118005345D01*
X218387642Y-118194107D01*
X218434833Y-118288488D01*
X218529214Y-118382869D01*
X218670785Y-118430059D01*
X218906738Y-118430059D01*
X217726976Y-117439059D02*
X217538214Y-117439059D01*
X217443833Y-117486250D01*
X217349452Y-117580630D01*
X217302261Y-117769392D01*
X217302261Y-118099726D01*
X217349452Y-118288488D01*
X217443833Y-118382869D01*
X217538214Y-118430059D01*
X217726976Y-118430059D01*
X217821357Y-118382869D01*
X217915738Y-118288488D01*
X217962928Y-118099726D01*
X217962928Y-117769392D01*
X217915738Y-117580630D01*
X217821357Y-117486250D01*
X217726976Y-117439059D01*
X219425833Y-120066559D02*
X219425833Y-119075559D01*
X219095500Y-119783416D01*
X218765166Y-119075559D01*
X218765166Y-120066559D01*
X217726976Y-119972178D02*
X217774166Y-120019369D01*
X217915738Y-120066559D01*
X218010119Y-120066559D01*
X218151690Y-120019369D01*
X218246071Y-119924988D01*
X218293261Y-119830607D01*
X218340452Y-119641845D01*
X218340452Y-119500273D01*
X218293261Y-119311511D01*
X218246071Y-119217130D01*
X218151690Y-119122750D01*
X218010119Y-119075559D01*
X217915738Y-119075559D01*
X217774166Y-119122750D01*
X217726976Y-119169940D01*
X219355047Y-120759250D02*
X219449428Y-120712059D01*
X219591000Y-120712059D01*
X219732571Y-120759250D01*
X219826952Y-120853630D01*
X219874142Y-120948011D01*
X219921333Y-121136773D01*
X219921333Y-121278345D01*
X219874142Y-121467107D01*
X219826952Y-121561488D01*
X219732571Y-121655869D01*
X219591000Y-121703059D01*
X219496619Y-121703059D01*
X219355047Y-121655869D01*
X219307857Y-121608678D01*
X219307857Y-121278345D01*
X219496619Y-121278345D01*
X218883142Y-121703059D02*
X218883142Y-120712059D01*
X218316857Y-121703059D01*
X218316857Y-120712059D01*
X217844952Y-121703059D02*
X217844952Y-120712059D01*
X217609000Y-120712059D01*
X217467428Y-120759250D01*
X217373047Y-120853630D01*
X217325857Y-120948011D01*
X217278666Y-121136773D01*
X217278666Y-121278345D01*
X217325857Y-121467107D01*
X217373047Y-121561488D01*
X217467428Y-121655869D01*
X217609000Y-121703059D01*
X217844952Y-121703059D01*
X219921333Y-122348559D02*
X219591000Y-123339559D01*
X219260666Y-122348559D01*
X218364047Y-123245178D02*
X218411238Y-123292369D01*
X218552809Y-123339559D01*
X218647190Y-123339559D01*
X218788761Y-123292369D01*
X218883142Y-123197988D01*
X218930333Y-123103607D01*
X218977523Y-122914845D01*
X218977523Y-122773273D01*
X218930333Y-122584511D01*
X218883142Y-122490130D01*
X218788761Y-122395750D01*
X218647190Y-122348559D01*
X218552809Y-122348559D01*
X218411238Y-122395750D01*
X218364047Y-122442940D01*
X217373047Y-123245178D02*
X217420238Y-123292369D01*
X217561809Y-123339559D01*
X217656190Y-123339559D01*
X217797761Y-123292369D01*
X217892142Y-123197988D01*
X217939333Y-123103607D01*
X217986523Y-122914845D01*
X217986523Y-122773273D01*
X217939333Y-122584511D01*
X217892142Y-122490130D01*
X217797761Y-122395750D01*
X217656190Y-122348559D01*
X217561809Y-122348559D01*
X217420238Y-122395750D01*
X217373047Y-122442940D01*
D10*
X175200000Y-135000000D02*
X175100000Y-123400000D01*
X170246510Y-123324125D02*
X170746510Y-123324125D01*
X170246510Y-123774125D02*
X170246510Y-123324125D01*
D12*
X192300000Y-110366666D02*
X192300000Y-112633333D01*
X192166666Y-112900000D01*
X192033333Y-113033333D01*
X191766666Y-113166666D01*
X191233333Y-113166666D01*
X190966666Y-113033333D01*
X190833333Y-112900000D01*
X190700000Y-112633333D01*
X190700000Y-110366666D01*
X187766666Y-112900000D02*
X187900000Y-113033333D01*
X188300000Y-113166666D01*
X188566666Y-113166666D01*
X188966666Y-113033333D01*
X189233333Y-112766666D01*
X189366666Y-112500000D01*
X189500000Y-111966666D01*
X189500000Y-111566666D01*
X189366666Y-111033333D01*
X189233333Y-110766666D01*
X188966666Y-110500000D01*
X188566666Y-110366666D01*
X188300000Y-110366666D01*
X187900000Y-110500000D01*
X187766666Y-110633333D01*
X186033333Y-110366666D02*
X185500000Y-110366666D01*
X185233333Y-110500000D01*
X184966666Y-110766666D01*
X184833333Y-111300000D01*
X184833333Y-112233333D01*
X184966666Y-112766666D01*
X185233333Y-113033333D01*
X185500000Y-113166666D01*
X186033333Y-113166666D01*
X186300000Y-113033333D01*
X186566666Y-112766666D01*
X186700000Y-112233333D01*
X186700000Y-111300000D01*
X186566666Y-110766666D01*
X186300000Y-110500000D01*
X186033333Y-110366666D01*
X183633333Y-113166666D02*
X183633333Y-110366666D01*
X182033333Y-113166666D01*
X182033333Y-110366666D01*
X180700000Y-113166666D02*
X180700000Y-110366666D01*
X179100000Y-113166666D01*
X179100000Y-110366666D01*
X189100000Y-116300000D02*
X190033333Y-116300000D01*
X190033333Y-117766666D02*
X190033333Y-114966666D01*
X188700000Y-114966666D01*
X187766666Y-117633333D02*
X187366666Y-117766666D01*
X186700000Y-117766666D01*
X186433333Y-117633333D01*
X186300000Y-117500000D01*
X186166666Y-117233333D01*
X186166666Y-116966666D01*
X186300000Y-116700000D01*
X186433333Y-116566666D01*
X186700000Y-116433333D01*
X187233333Y-116300000D01*
X187500000Y-116166666D01*
X187633333Y-116033333D01*
X187766666Y-115766666D01*
X187766666Y-115500000D01*
X187633333Y-115233333D01*
X187500000Y-115100000D01*
X187233333Y-114966666D01*
X186566666Y-114966666D01*
X186166666Y-115100000D01*
X185100000Y-116966666D02*
X183766666Y-116966666D01*
X185366666Y-117766666D02*
X184433333Y-114966666D01*
X183500000Y-117766666D01*
X182566666Y-116300000D02*
X181633333Y-116300000D01*
X181233333Y-117766666D02*
X182566666Y-117766666D01*
X182566666Y-114966666D01*
X181233333Y-114966666D01*
X190500000Y-119833333D02*
X190366666Y-119700000D01*
X190100000Y-119566666D01*
X189433333Y-119566666D01*
X189166666Y-119700000D01*
X189033333Y-119833333D01*
X188900000Y-120100000D01*
X188900000Y-120366666D01*
X189033333Y-120766666D01*
X190633333Y-122366666D01*
X188900000Y-122366666D01*
X187166666Y-119566666D02*
X186900000Y-119566666D01*
X186633333Y-119700000D01*
X186500000Y-119833333D01*
X186366666Y-120100000D01*
X186233333Y-120633333D01*
X186233333Y-121300000D01*
X186366666Y-121833333D01*
X186500000Y-122100000D01*
X186633333Y-122233333D01*
X186900000Y-122366666D01*
X187166666Y-122366666D01*
X187433333Y-122233333D01*
X187566666Y-122100000D01*
X187700000Y-121833333D01*
X187833333Y-121300000D01*
X187833333Y-120633333D01*
X187700000Y-120100000D01*
X187566666Y-119833333D01*
X187433333Y-119700000D01*
X187166666Y-119566666D01*
X183566666Y-122366666D02*
X185166666Y-122366666D01*
X184366666Y-122366666D02*
X184366666Y-119566666D01*
X184633333Y-119966666D01*
X184900000Y-120233333D01*
X185166666Y-120366666D01*
X182233333Y-122366666D02*
X181700000Y-122366666D01*
X181433333Y-122233333D01*
X181300000Y-122100000D01*
X181033333Y-121700000D01*
X180900000Y-121166666D01*
X180900000Y-120100000D01*
X181033333Y-119833333D01*
X181166666Y-119700000D01*
X181433333Y-119566666D01*
X181966666Y-119566666D01*
X182233333Y-119700000D01*
X182366666Y-119833333D01*
X182500000Y-120100000D01*
X182500000Y-120766666D01*
X182366666Y-121033333D01*
X182233333Y-121166666D01*
X181966666Y-121300000D01*
X181433333Y-121300000D01*
X181166666Y-121166666D01*
X181033333Y-121033333D01*
X180900000Y-120766666D01*
D13*
G04 #@! TO.C,J1*
X226560000Y-128055000D02*
X226990000Y-128055000D01*
X226990000Y-128055000D02*
X226990000Y-129080000D01*
X226990000Y-129080000D02*
X228120000Y-129080000D01*
X228120000Y-129080000D02*
X228120000Y-114920000D01*
X228120000Y-114920000D02*
X226990000Y-114920000D01*
X226990000Y-114920000D02*
X226990000Y-115945000D01*
X226990000Y-115945000D02*
X226560000Y-115945000D01*
X222480000Y-118210000D02*
X222480000Y-118835000D01*
X222480000Y-118835000D02*
X220680000Y-118835000D01*
X222480000Y-125165000D02*
X222480000Y-125790000D01*
G04 #@! TO.C,SW1*
D11*
X174033333Y-136304761D02*
X173890476Y-136352380D01*
X173652380Y-136352380D01*
X173557142Y-136304761D01*
X173509523Y-136257142D01*
X173461904Y-136161904D01*
X173461904Y-136066666D01*
X173509523Y-135971428D01*
X173557142Y-135923809D01*
X173652380Y-135876190D01*
X173842857Y-135828571D01*
X173938095Y-135780952D01*
X173985714Y-135733333D01*
X174033333Y-135638095D01*
X174033333Y-135542857D01*
X173985714Y-135447619D01*
X173938095Y-135400000D01*
X173842857Y-135352380D01*
X173604761Y-135352380D01*
X173461904Y-135400000D01*
X173128571Y-135352380D02*
X172890476Y-136352380D01*
X172700000Y-135638095D01*
X172509523Y-136352380D01*
X172271428Y-135352380D01*
X171366666Y-136352380D02*
X171938095Y-136352380D01*
X171652380Y-136352380D02*
X171652380Y-135352380D01*
X171747619Y-135495238D01*
X171842857Y-135590476D01*
X171938095Y-135638095D01*
G04 #@! TO.C,J1*
X224833333Y-130252380D02*
X224833333Y-130966666D01*
X224880952Y-131109523D01*
X224976190Y-131204761D01*
X225119047Y-131252380D01*
X225214285Y-131252380D01*
X223833333Y-131252380D02*
X224404761Y-131252380D01*
X224119047Y-131252380D02*
X224119047Y-130252380D01*
X224214285Y-130395238D01*
X224309523Y-130490476D01*
X224404761Y-130538095D01*
G04 #@! TD*
%LPC*%
G36*
X217500000Y-136000000D02*
X217500000Y-124000000D01*
X210000000Y-124000000D01*
X210000000Y-136000000D01*
X217500000Y-136000000D01*
G37*
X217500000Y-136000000D02*
X217500000Y-124000000D01*
X210000000Y-124000000D01*
X210000000Y-136000000D01*
X217500000Y-136000000D01*
G04 #@! TO.C,U1*
G36*
X217200000Y-132500000D02*
X217200000Y-127500000D01*
X212200000Y-127500000D01*
X212200000Y-132500000D01*
X217200000Y-132500000D01*
G37*
X217200000Y-132500000D02*
X217200000Y-127500000D01*
X212200000Y-127500000D01*
X212200000Y-132500000D01*
X217200000Y-132500000D01*
G04 #@! TD*
D14*
G04 #@! TO.C,U1*
X215500000Y-129200000D03*
X215500000Y-130000000D03*
X215500000Y-130800000D03*
X214700000Y-129200000D03*
X214700000Y-130000000D03*
X214700000Y-130800000D03*
X213900000Y-129200000D03*
X213900000Y-130000000D03*
X213900000Y-130800000D03*
G04 #@! TD*
D15*
G04 #@! TO.C,REF\002A\002A*
X216000000Y-116000000D03*
G04 #@! TD*
G04 #@! TO.C,REF\002A\002A*
X216000000Y-140000000D03*
G04 #@! TD*
G04 #@! TO.C,REF\002A\002A*
X172000000Y-140000000D03*
G04 #@! TD*
D16*
G04 #@! TO.C,SW1*
X173950000Y-124800000D03*
X171410000Y-124800000D03*
X173950000Y-133700000D03*
X171410000Y-133700000D03*
G04 #@! TD*
D17*
G04 #@! TO.C,J1*
X221600000Y-119500000D03*
X221600000Y-120500000D03*
X221600000Y-121500000D03*
X221600000Y-122500000D03*
X221600000Y-123500000D03*
X221600000Y-124500000D03*
D18*
X224400000Y-116510000D03*
X224400000Y-127490000D03*
G04 #@! TD*
D15*
G04 #@! TO.C,REF\002A\002A*
X172000000Y-116000000D03*
G04 #@! TD*
M02*
