G04 #@! TF.GenerationSoftware,KiCad,Pcbnew,(5.0.2)-1*
G04 #@! TF.CreationDate,2019-04-27T00:21:17-04:00*
G04 #@! TF.ProjectId,Dash_Warning_Panel,44617368-5f57-4617-926e-696e675f5061,rev?*
G04 #@! TF.SameCoordinates,Original*
G04 #@! TF.FileFunction,Soldermask,Bot*
G04 #@! TF.FilePolarity,Negative*
%FSLAX46Y46*%
G04 Gerber Fmt 4.6, Leading zero omitted, Abs format (unit mm)*
G04 Created by KiCad (PCBNEW (5.0.2)-1) date 4/27/2019 12:21:17 AM*
%MOMM*%
%LPD*%
G01*
G04 APERTURE LIST*
%ADD10C,0.150000*%
G04 #@! TA.AperFunction,NonConductor*
%ADD11C,0.100000*%
G04 #@! TD*
G04 APERTURE END LIST*
D10*
G36*
X217500000Y-136000000D02*
X217500000Y-124000000D01*
X210000000Y-124000000D01*
X210000000Y-136000000D01*
X217500000Y-136000000D01*
G37*
X217500000Y-136000000D02*
X217500000Y-124000000D01*
X210000000Y-124000000D01*
X210000000Y-136000000D01*
X217500000Y-136000000D01*
G04 #@! TO.C,U1*
G36*
X217200000Y-132500000D02*
X217200000Y-127500000D01*
X212200000Y-127500000D01*
X212200000Y-132500000D01*
X217200000Y-132500000D01*
G37*
X217200000Y-132500000D02*
X217200000Y-127500000D01*
X212200000Y-127500000D01*
X212200000Y-132500000D01*
X217200000Y-132500000D01*
D11*
G36*
X216335673Y-138893424D02*
X216335675Y-138893425D01*
X216335676Y-138893425D01*
X216545108Y-138980174D01*
X216545109Y-138980175D01*
X216733595Y-139106117D01*
X216893883Y-139266405D01*
X216893885Y-139266408D01*
X217019826Y-139454892D01*
X217106575Y-139664324D01*
X217150800Y-139886656D01*
X217150800Y-140113344D01*
X217106575Y-140335676D01*
X217019826Y-140545108D01*
X217019825Y-140545109D01*
X216893883Y-140733595D01*
X216733595Y-140893883D01*
X216733592Y-140893885D01*
X216545108Y-141019826D01*
X216335676Y-141106575D01*
X216335675Y-141106575D01*
X216335673Y-141106576D01*
X216113345Y-141150800D01*
X215886655Y-141150800D01*
X215664327Y-141106576D01*
X215664325Y-141106575D01*
X215664324Y-141106575D01*
X215454892Y-141019826D01*
X215266408Y-140893885D01*
X215266405Y-140893883D01*
X215106117Y-140733595D01*
X214980175Y-140545109D01*
X214980174Y-140545108D01*
X214893425Y-140335676D01*
X214849200Y-140113344D01*
X214849200Y-139886656D01*
X214893425Y-139664324D01*
X214980174Y-139454892D01*
X215106115Y-139266408D01*
X215106117Y-139266405D01*
X215266405Y-139106117D01*
X215454891Y-138980175D01*
X215454892Y-138980174D01*
X215664324Y-138893425D01*
X215664325Y-138893425D01*
X215664327Y-138893424D01*
X215886655Y-138849200D01*
X216113345Y-138849200D01*
X216335673Y-138893424D01*
X216335673Y-138893424D01*
G37*
G36*
X172335673Y-138893424D02*
X172335675Y-138893425D01*
X172335676Y-138893425D01*
X172545108Y-138980174D01*
X172545109Y-138980175D01*
X172733595Y-139106117D01*
X172893883Y-139266405D01*
X172893885Y-139266408D01*
X173019826Y-139454892D01*
X173106575Y-139664324D01*
X173150800Y-139886656D01*
X173150800Y-140113344D01*
X173106575Y-140335676D01*
X173019826Y-140545108D01*
X173019825Y-140545109D01*
X172893883Y-140733595D01*
X172733595Y-140893883D01*
X172733592Y-140893885D01*
X172545108Y-141019826D01*
X172335676Y-141106575D01*
X172335675Y-141106575D01*
X172335673Y-141106576D01*
X172113345Y-141150800D01*
X171886655Y-141150800D01*
X171664327Y-141106576D01*
X171664325Y-141106575D01*
X171664324Y-141106575D01*
X171454892Y-141019826D01*
X171266408Y-140893885D01*
X171266405Y-140893883D01*
X171106117Y-140733595D01*
X170980175Y-140545109D01*
X170980174Y-140545108D01*
X170893425Y-140335676D01*
X170849200Y-140113344D01*
X170849200Y-139886656D01*
X170893425Y-139664324D01*
X170980174Y-139454892D01*
X171106115Y-139266408D01*
X171106117Y-139266405D01*
X171266405Y-139106117D01*
X171454891Y-138980175D01*
X171454892Y-138980174D01*
X171664324Y-138893425D01*
X171664325Y-138893425D01*
X171664327Y-138893424D01*
X171886655Y-138849200D01*
X172113345Y-138849200D01*
X172335673Y-138893424D01*
X172335673Y-138893424D01*
G37*
G36*
X172010800Y-134500800D02*
X170809200Y-134500800D01*
X170809200Y-132899200D01*
X172010800Y-132899200D01*
X172010800Y-134500800D01*
X172010800Y-134500800D01*
G37*
G36*
X174550800Y-134500800D02*
X173349200Y-134500800D01*
X173349200Y-132899200D01*
X174550800Y-132899200D01*
X174550800Y-134500800D01*
X174550800Y-134500800D01*
G37*
G36*
X214002324Y-128862681D02*
X214066166Y-128889125D01*
X214066167Y-128889126D01*
X214123625Y-128927518D01*
X214172482Y-128976375D01*
X214196066Y-129011671D01*
X214211611Y-129030613D01*
X214230553Y-129046159D01*
X214252164Y-129057710D01*
X214275613Y-129064823D01*
X214300000Y-129067225D01*
X214324386Y-129064823D01*
X214347835Y-129057710D01*
X214369446Y-129046159D01*
X214388388Y-129030614D01*
X214403934Y-129011671D01*
X214427518Y-128976375D01*
X214476375Y-128927518D01*
X214533833Y-128889126D01*
X214533834Y-128889125D01*
X214597676Y-128862681D01*
X214665449Y-128849200D01*
X214734551Y-128849200D01*
X214802324Y-128862681D01*
X214866166Y-128889125D01*
X214866167Y-128889126D01*
X214923625Y-128927518D01*
X214972482Y-128976375D01*
X214996066Y-129011671D01*
X215011611Y-129030613D01*
X215030553Y-129046159D01*
X215052164Y-129057710D01*
X215075613Y-129064823D01*
X215100000Y-129067225D01*
X215124386Y-129064823D01*
X215147835Y-129057710D01*
X215169446Y-129046159D01*
X215188388Y-129030614D01*
X215203934Y-129011671D01*
X215227518Y-128976375D01*
X215276375Y-128927518D01*
X215333833Y-128889126D01*
X215333834Y-128889125D01*
X215397676Y-128862681D01*
X215465449Y-128849200D01*
X215534551Y-128849200D01*
X215602324Y-128862681D01*
X215666166Y-128889125D01*
X215666167Y-128889126D01*
X215723625Y-128927518D01*
X215772482Y-128976375D01*
X215772484Y-128976378D01*
X215810875Y-129033834D01*
X215837319Y-129097676D01*
X215850800Y-129165449D01*
X215850800Y-129234551D01*
X215837319Y-129302324D01*
X215810875Y-129366166D01*
X215796066Y-129388329D01*
X215772482Y-129423625D01*
X215723625Y-129472482D01*
X215688329Y-129496066D01*
X215669387Y-129511611D01*
X215653841Y-129530553D01*
X215642290Y-129552164D01*
X215635177Y-129575613D01*
X215632775Y-129600000D01*
X215635177Y-129624386D01*
X215642290Y-129647835D01*
X215653841Y-129669446D01*
X215669386Y-129688388D01*
X215688329Y-129703934D01*
X215723625Y-129727518D01*
X215772482Y-129776375D01*
X215772484Y-129776378D01*
X215810875Y-129833834D01*
X215837319Y-129897676D01*
X215850800Y-129965449D01*
X215850800Y-130034551D01*
X215837319Y-130102324D01*
X215810875Y-130166166D01*
X215796066Y-130188329D01*
X215772482Y-130223625D01*
X215723625Y-130272482D01*
X215688329Y-130296066D01*
X215669387Y-130311611D01*
X215653841Y-130330553D01*
X215642290Y-130352164D01*
X215635177Y-130375613D01*
X215632775Y-130400000D01*
X215635177Y-130424386D01*
X215642290Y-130447835D01*
X215653841Y-130469446D01*
X215669386Y-130488388D01*
X215688329Y-130503934D01*
X215723625Y-130527518D01*
X215772482Y-130576375D01*
X215772484Y-130576378D01*
X215810875Y-130633834D01*
X215837319Y-130697676D01*
X215850800Y-130765449D01*
X215850800Y-130834551D01*
X215837319Y-130902324D01*
X215810875Y-130966166D01*
X215796066Y-130988329D01*
X215772482Y-131023625D01*
X215723625Y-131072482D01*
X215723622Y-131072484D01*
X215666166Y-131110875D01*
X215602324Y-131137319D01*
X215534551Y-131150800D01*
X215465449Y-131150800D01*
X215397676Y-131137319D01*
X215333834Y-131110875D01*
X215276378Y-131072484D01*
X215276375Y-131072482D01*
X215227518Y-131023625D01*
X215203934Y-130988329D01*
X215188389Y-130969387D01*
X215169447Y-130953841D01*
X215147836Y-130942290D01*
X215124387Y-130935177D01*
X215100000Y-130932775D01*
X215075614Y-130935177D01*
X215052165Y-130942290D01*
X215030554Y-130953841D01*
X215011612Y-130969386D01*
X214996066Y-130988329D01*
X214972482Y-131023625D01*
X214923625Y-131072482D01*
X214923622Y-131072484D01*
X214866166Y-131110875D01*
X214802324Y-131137319D01*
X214734551Y-131150800D01*
X214665449Y-131150800D01*
X214597676Y-131137319D01*
X214533834Y-131110875D01*
X214476378Y-131072484D01*
X214476375Y-131072482D01*
X214427518Y-131023625D01*
X214403934Y-130988329D01*
X214388389Y-130969387D01*
X214369447Y-130953841D01*
X214347836Y-130942290D01*
X214324387Y-130935177D01*
X214300000Y-130932775D01*
X214275614Y-130935177D01*
X214252165Y-130942290D01*
X214230554Y-130953841D01*
X214211612Y-130969386D01*
X214196066Y-130988329D01*
X214172482Y-131023625D01*
X214123625Y-131072482D01*
X214123622Y-131072484D01*
X214066166Y-131110875D01*
X214002324Y-131137319D01*
X213934551Y-131150800D01*
X213865449Y-131150800D01*
X213797676Y-131137319D01*
X213733834Y-131110875D01*
X213676378Y-131072484D01*
X213676375Y-131072482D01*
X213627518Y-131023625D01*
X213603934Y-130988329D01*
X213589125Y-130966166D01*
X213562681Y-130902324D01*
X213549200Y-130834551D01*
X213549200Y-130765449D01*
X213562681Y-130697676D01*
X213589125Y-130633834D01*
X213627516Y-130576378D01*
X213627518Y-130576375D01*
X213676375Y-130527518D01*
X213711671Y-130503934D01*
X213730613Y-130488389D01*
X213746159Y-130469447D01*
X213757710Y-130447836D01*
X213764823Y-130424387D01*
X213767225Y-130400000D01*
X214032775Y-130400000D01*
X214035177Y-130424386D01*
X214042290Y-130447835D01*
X214053841Y-130469446D01*
X214069386Y-130488388D01*
X214088329Y-130503934D01*
X214123625Y-130527518D01*
X214172482Y-130576375D01*
X214196066Y-130611671D01*
X214211611Y-130630613D01*
X214230553Y-130646159D01*
X214252164Y-130657710D01*
X214275613Y-130664823D01*
X214300000Y-130667225D01*
X214324386Y-130664823D01*
X214347835Y-130657710D01*
X214369446Y-130646159D01*
X214388388Y-130630614D01*
X214403934Y-130611671D01*
X214427518Y-130576375D01*
X214476375Y-130527518D01*
X214511671Y-130503934D01*
X214530613Y-130488389D01*
X214546159Y-130469447D01*
X214557710Y-130447836D01*
X214564823Y-130424387D01*
X214567225Y-130400000D01*
X214832775Y-130400000D01*
X214835177Y-130424386D01*
X214842290Y-130447835D01*
X214853841Y-130469446D01*
X214869386Y-130488388D01*
X214888329Y-130503934D01*
X214923625Y-130527518D01*
X214972482Y-130576375D01*
X214996066Y-130611671D01*
X215011611Y-130630613D01*
X215030553Y-130646159D01*
X215052164Y-130657710D01*
X215075613Y-130664823D01*
X215100000Y-130667225D01*
X215124386Y-130664823D01*
X215147835Y-130657710D01*
X215169446Y-130646159D01*
X215188388Y-130630614D01*
X215203934Y-130611671D01*
X215227518Y-130576375D01*
X215276375Y-130527518D01*
X215311671Y-130503934D01*
X215330613Y-130488389D01*
X215346159Y-130469447D01*
X215357710Y-130447836D01*
X215364823Y-130424387D01*
X215367225Y-130400000D01*
X215364823Y-130375614D01*
X215357710Y-130352165D01*
X215346159Y-130330554D01*
X215330614Y-130311612D01*
X215311671Y-130296066D01*
X215276375Y-130272482D01*
X215227518Y-130223625D01*
X215203934Y-130188329D01*
X215188389Y-130169387D01*
X215169447Y-130153841D01*
X215147836Y-130142290D01*
X215124387Y-130135177D01*
X215100000Y-130132775D01*
X215075614Y-130135177D01*
X215052165Y-130142290D01*
X215030554Y-130153841D01*
X215011612Y-130169386D01*
X214996066Y-130188329D01*
X214972482Y-130223625D01*
X214923625Y-130272482D01*
X214888329Y-130296066D01*
X214869387Y-130311611D01*
X214853841Y-130330553D01*
X214842290Y-130352164D01*
X214835177Y-130375613D01*
X214832775Y-130400000D01*
X214567225Y-130400000D01*
X214564823Y-130375614D01*
X214557710Y-130352165D01*
X214546159Y-130330554D01*
X214530614Y-130311612D01*
X214511671Y-130296066D01*
X214476375Y-130272482D01*
X214427518Y-130223625D01*
X214403934Y-130188329D01*
X214388389Y-130169387D01*
X214369447Y-130153841D01*
X214347836Y-130142290D01*
X214324387Y-130135177D01*
X214300000Y-130132775D01*
X214275614Y-130135177D01*
X214252165Y-130142290D01*
X214230554Y-130153841D01*
X214211612Y-130169386D01*
X214196066Y-130188329D01*
X214172482Y-130223625D01*
X214123625Y-130272482D01*
X214088329Y-130296066D01*
X214069387Y-130311611D01*
X214053841Y-130330553D01*
X214042290Y-130352164D01*
X214035177Y-130375613D01*
X214032775Y-130400000D01*
X213767225Y-130400000D01*
X213764823Y-130375614D01*
X213757710Y-130352165D01*
X213746159Y-130330554D01*
X213730614Y-130311612D01*
X213711671Y-130296066D01*
X213676375Y-130272482D01*
X213627518Y-130223625D01*
X213603934Y-130188329D01*
X213589125Y-130166166D01*
X213562681Y-130102324D01*
X213549200Y-130034551D01*
X213549200Y-129965449D01*
X213562681Y-129897676D01*
X213589125Y-129833834D01*
X213627516Y-129776378D01*
X213627518Y-129776375D01*
X213676375Y-129727518D01*
X213711671Y-129703934D01*
X213730613Y-129688389D01*
X213746159Y-129669447D01*
X213757710Y-129647836D01*
X213764823Y-129624387D01*
X213767225Y-129600000D01*
X214032775Y-129600000D01*
X214035177Y-129624386D01*
X214042290Y-129647835D01*
X214053841Y-129669446D01*
X214069386Y-129688388D01*
X214088329Y-129703934D01*
X214123625Y-129727518D01*
X214172482Y-129776375D01*
X214196066Y-129811671D01*
X214211611Y-129830613D01*
X214230553Y-129846159D01*
X214252164Y-129857710D01*
X214275613Y-129864823D01*
X214300000Y-129867225D01*
X214324386Y-129864823D01*
X214347835Y-129857710D01*
X214369446Y-129846159D01*
X214388388Y-129830614D01*
X214403934Y-129811671D01*
X214427518Y-129776375D01*
X214476375Y-129727518D01*
X214511671Y-129703934D01*
X214530613Y-129688389D01*
X214546159Y-129669447D01*
X214557710Y-129647836D01*
X214564823Y-129624387D01*
X214567225Y-129600000D01*
X214832775Y-129600000D01*
X214835177Y-129624386D01*
X214842290Y-129647835D01*
X214853841Y-129669446D01*
X214869386Y-129688388D01*
X214888329Y-129703934D01*
X214923625Y-129727518D01*
X214972482Y-129776375D01*
X214996066Y-129811671D01*
X215011611Y-129830613D01*
X215030553Y-129846159D01*
X215052164Y-129857710D01*
X215075613Y-129864823D01*
X215100000Y-129867225D01*
X215124386Y-129864823D01*
X215147835Y-129857710D01*
X215169446Y-129846159D01*
X215188388Y-129830614D01*
X215203934Y-129811671D01*
X215227518Y-129776375D01*
X215276375Y-129727518D01*
X215311671Y-129703934D01*
X215330613Y-129688389D01*
X215346159Y-129669447D01*
X215357710Y-129647836D01*
X215364823Y-129624387D01*
X215367225Y-129600000D01*
X215364823Y-129575614D01*
X215357710Y-129552165D01*
X215346159Y-129530554D01*
X215330614Y-129511612D01*
X215311671Y-129496066D01*
X215276375Y-129472482D01*
X215227518Y-129423625D01*
X215203934Y-129388329D01*
X215188389Y-129369387D01*
X215169447Y-129353841D01*
X215147836Y-129342290D01*
X215124387Y-129335177D01*
X215100000Y-129332775D01*
X215075614Y-129335177D01*
X215052165Y-129342290D01*
X215030554Y-129353841D01*
X215011612Y-129369386D01*
X214996066Y-129388329D01*
X214972482Y-129423625D01*
X214923625Y-129472482D01*
X214888329Y-129496066D01*
X214869387Y-129511611D01*
X214853841Y-129530553D01*
X214842290Y-129552164D01*
X214835177Y-129575613D01*
X214832775Y-129600000D01*
X214567225Y-129600000D01*
X214564823Y-129575614D01*
X214557710Y-129552165D01*
X214546159Y-129530554D01*
X214530614Y-129511612D01*
X214511671Y-129496066D01*
X214476375Y-129472482D01*
X214427518Y-129423625D01*
X214403934Y-129388329D01*
X214388389Y-129369387D01*
X214369447Y-129353841D01*
X214347836Y-129342290D01*
X214324387Y-129335177D01*
X214300000Y-129332775D01*
X214275614Y-129335177D01*
X214252165Y-129342290D01*
X214230554Y-129353841D01*
X214211612Y-129369386D01*
X214196066Y-129388329D01*
X214172482Y-129423625D01*
X214123625Y-129472482D01*
X214088329Y-129496066D01*
X214069387Y-129511611D01*
X214053841Y-129530553D01*
X214042290Y-129552164D01*
X214035177Y-129575613D01*
X214032775Y-129600000D01*
X213767225Y-129600000D01*
X213764823Y-129575614D01*
X213757710Y-129552165D01*
X213746159Y-129530554D01*
X213730614Y-129511612D01*
X213711671Y-129496066D01*
X213676375Y-129472482D01*
X213627518Y-129423625D01*
X213603934Y-129388329D01*
X213589125Y-129366166D01*
X213562681Y-129302324D01*
X213549200Y-129234551D01*
X213549200Y-129165449D01*
X213562681Y-129097676D01*
X213589125Y-129033834D01*
X213627516Y-128976378D01*
X213627518Y-128976375D01*
X213676375Y-128927518D01*
X213733833Y-128889126D01*
X213733834Y-128889125D01*
X213797676Y-128862681D01*
X213865449Y-128849200D01*
X213934551Y-128849200D01*
X214002324Y-128862681D01*
X214002324Y-128862681D01*
G37*
G36*
X226250800Y-128880800D02*
X222549200Y-128880800D01*
X222549200Y-126099200D01*
X226250800Y-126099200D01*
X226250800Y-128880800D01*
X226250800Y-128880800D01*
G37*
G36*
X172010800Y-125600800D02*
X170809200Y-125600800D01*
X170809200Y-123999200D01*
X172010800Y-123999200D01*
X172010800Y-125600800D01*
X172010800Y-125600800D01*
G37*
G36*
X174550800Y-125600800D02*
X173349200Y-125600800D01*
X173349200Y-123999200D01*
X174550800Y-123999200D01*
X174550800Y-125600800D01*
X174550800Y-125600800D01*
G37*
G36*
X222650800Y-124855800D02*
X220549200Y-124855800D01*
X220549200Y-124144200D01*
X222650800Y-124144200D01*
X222650800Y-124855800D01*
X222650800Y-124855800D01*
G37*
G36*
X222650800Y-123855800D02*
X220549200Y-123855800D01*
X220549200Y-123144200D01*
X222650800Y-123144200D01*
X222650800Y-123855800D01*
X222650800Y-123855800D01*
G37*
G36*
X222650800Y-122855800D02*
X220549200Y-122855800D01*
X220549200Y-122144200D01*
X222650800Y-122144200D01*
X222650800Y-122855800D01*
X222650800Y-122855800D01*
G37*
G36*
X222650800Y-121855800D02*
X220549200Y-121855800D01*
X220549200Y-121144200D01*
X222650800Y-121144200D01*
X222650800Y-121855800D01*
X222650800Y-121855800D01*
G37*
G36*
X222650800Y-120855800D02*
X220549200Y-120855800D01*
X220549200Y-120144200D01*
X222650800Y-120144200D01*
X222650800Y-120855800D01*
X222650800Y-120855800D01*
G37*
G36*
X222650800Y-119855800D02*
X220549200Y-119855800D01*
X220549200Y-119144200D01*
X222650800Y-119144200D01*
X222650800Y-119855800D01*
X222650800Y-119855800D01*
G37*
G36*
X226250800Y-117900800D02*
X222549200Y-117900800D01*
X222549200Y-115119200D01*
X226250800Y-115119200D01*
X226250800Y-117900800D01*
X226250800Y-117900800D01*
G37*
G36*
X172335673Y-114893424D02*
X172335675Y-114893425D01*
X172335676Y-114893425D01*
X172545108Y-114980174D01*
X172545109Y-114980175D01*
X172733595Y-115106117D01*
X172893883Y-115266405D01*
X172893885Y-115266408D01*
X173019826Y-115454892D01*
X173106575Y-115664324D01*
X173150800Y-115886656D01*
X173150800Y-116113344D01*
X173106575Y-116335676D01*
X173019826Y-116545108D01*
X173019825Y-116545109D01*
X172893883Y-116733595D01*
X172733595Y-116893883D01*
X172733592Y-116893885D01*
X172545108Y-117019826D01*
X172335676Y-117106575D01*
X172335675Y-117106575D01*
X172335673Y-117106576D01*
X172113345Y-117150800D01*
X171886655Y-117150800D01*
X171664327Y-117106576D01*
X171664325Y-117106575D01*
X171664324Y-117106575D01*
X171454892Y-117019826D01*
X171266408Y-116893885D01*
X171266405Y-116893883D01*
X171106117Y-116733595D01*
X170980175Y-116545109D01*
X170980174Y-116545108D01*
X170893425Y-116335676D01*
X170849200Y-116113344D01*
X170849200Y-115886656D01*
X170893425Y-115664324D01*
X170980174Y-115454892D01*
X171106115Y-115266408D01*
X171106117Y-115266405D01*
X171266405Y-115106117D01*
X171454891Y-114980175D01*
X171454892Y-114980174D01*
X171664324Y-114893425D01*
X171664325Y-114893425D01*
X171664327Y-114893424D01*
X171886655Y-114849200D01*
X172113345Y-114849200D01*
X172335673Y-114893424D01*
X172335673Y-114893424D01*
G37*
G36*
X216335673Y-114893424D02*
X216335675Y-114893425D01*
X216335676Y-114893425D01*
X216545108Y-114980174D01*
X216545109Y-114980175D01*
X216733595Y-115106117D01*
X216893883Y-115266405D01*
X216893885Y-115266408D01*
X217019826Y-115454892D01*
X217106575Y-115664324D01*
X217150800Y-115886656D01*
X217150800Y-116113344D01*
X217106575Y-116335676D01*
X217019826Y-116545108D01*
X217019825Y-116545109D01*
X216893883Y-116733595D01*
X216733595Y-116893883D01*
X216733592Y-116893885D01*
X216545108Y-117019826D01*
X216335676Y-117106575D01*
X216335675Y-117106575D01*
X216335673Y-117106576D01*
X216113345Y-117150800D01*
X215886655Y-117150800D01*
X215664327Y-117106576D01*
X215664325Y-117106575D01*
X215664324Y-117106575D01*
X215454892Y-117019826D01*
X215266408Y-116893885D01*
X215266405Y-116893883D01*
X215106117Y-116733595D01*
X214980175Y-116545109D01*
X214980174Y-116545108D01*
X214893425Y-116335676D01*
X214849200Y-116113344D01*
X214849200Y-115886656D01*
X214893425Y-115664324D01*
X214980174Y-115454892D01*
X215106115Y-115266408D01*
X215106117Y-115266405D01*
X215266405Y-115106117D01*
X215454891Y-114980175D01*
X215454892Y-114980174D01*
X215664324Y-114893425D01*
X215664325Y-114893425D01*
X215664327Y-114893424D01*
X215886655Y-114849200D01*
X216113345Y-114849200D01*
X216335673Y-114893424D01*
X216335673Y-114893424D01*
G37*
M02*
