G04 #@! TF.GenerationSoftware,KiCad,Pcbnew,(5.1.4)-1*
G04 #@! TF.CreationDate,2020-02-23T17:45:57-05:00*
G04 #@! TF.ProjectId,Dash_Warning_Panel,44617368-5f57-4617-926e-696e675f5061,rev?*
G04 #@! TF.SameCoordinates,Original*
G04 #@! TF.FileFunction,Copper,L2,Bot*
G04 #@! TF.FilePolarity,Positive*
%FSLAX46Y46*%
G04 Gerber Fmt 4.6, Leading zero omitted, Abs format (unit mm)*
G04 Created by KiCad (PCBNEW (5.1.4)-1) date 2020-02-23 17:45:57*
%MOMM*%
%LPD*%
G04 APERTURE LIST*
%ADD10R,1.100000X0.400000*%
%ADD11R,4.000000X4.000000*%
%ADD12R,0.750000X0.800000*%
%ADD13O,2.600000X2.000000*%
%ADD14R,2.600000X2.000000*%
%ADD15R,0.900000X0.500000*%
%ADD16C,0.600000*%
%ADD17C,0.500000*%
%ADD18C,0.220000*%
%ADD19C,0.250000*%
%ADD20C,0.170000*%
G04 APERTURE END LIST*
D10*
X196150000Y-123275000D03*
X196150000Y-123925000D03*
X196150000Y-124575000D03*
X196150000Y-125225000D03*
X196150000Y-125875000D03*
X196150000Y-126525000D03*
X196150000Y-127175000D03*
X196150000Y-127825000D03*
X196150000Y-128475000D03*
X196150000Y-129125000D03*
X196150000Y-129775000D03*
X196150000Y-130425000D03*
X196150000Y-131075000D03*
X196150000Y-131725000D03*
X201850000Y-131725000D03*
X201850000Y-131075000D03*
X201850000Y-130425000D03*
X201850000Y-129775000D03*
X201850000Y-129125000D03*
X201850000Y-128475000D03*
X201850000Y-127825000D03*
X201850000Y-127175000D03*
X201850000Y-126525000D03*
X201850000Y-125875000D03*
X201850000Y-125225000D03*
X201850000Y-124575000D03*
X201850000Y-123925000D03*
X201850000Y-123275000D03*
D11*
X199000000Y-125595000D03*
X199000000Y-129405000D03*
D12*
X210000000Y-131500000D03*
X210000000Y-130000000D03*
X206250000Y-121750000D03*
X206250000Y-123250000D03*
X204250000Y-123250000D03*
X204250000Y-121750000D03*
D13*
X219500000Y-119220000D03*
X219500000Y-121760000D03*
X219500000Y-124300000D03*
X219500000Y-126840000D03*
X219500000Y-129380000D03*
X219500000Y-131920000D03*
X219500000Y-134460000D03*
D14*
X219500000Y-137000000D03*
D15*
X182250000Y-116750000D03*
X182250000Y-118250000D03*
X179750000Y-118250000D03*
X179750000Y-116750000D03*
X182250000Y-132000000D03*
X182250000Y-130500000D03*
X187250000Y-130500000D03*
X187250000Y-132000000D03*
X190000000Y-130500000D03*
X190000000Y-132000000D03*
X187250000Y-116750000D03*
X187250000Y-118250000D03*
X189750000Y-118250000D03*
X189750000Y-116750000D03*
D16*
X210500000Y-128750000D03*
X211000000Y-137250000D03*
X215500000Y-127500000D03*
X194000000Y-131250000D03*
X193000000Y-131000000D03*
X213250000Y-133500000D03*
X216250000Y-126500000D03*
X197500000Y-111500000D03*
X208000000Y-138250000D03*
X182250000Y-134750000D03*
X187250000Y-134750000D03*
X190000000Y-134750000D03*
X187250000Y-114250000D03*
X189750000Y-114250000D03*
X179750000Y-114250000D03*
X182250000Y-114250000D03*
X210500000Y-138000000D03*
X214750000Y-124500000D03*
X211250000Y-125250000D03*
X210000000Y-126000000D03*
X208500000Y-126500000D03*
X205250000Y-127500000D03*
X205250000Y-128500000D03*
X208500000Y-132250000D03*
X209000000Y-133000000D03*
X208500000Y-133750000D03*
X192250000Y-129250000D03*
X190500000Y-124250000D03*
X191250000Y-129500000D03*
X191250000Y-125000000D03*
D17*
X199000000Y-129405000D02*
X199000000Y-133000000D01*
X199000000Y-129405000D02*
X199000000Y-130000000D01*
X199000000Y-130000000D02*
X197500000Y-131500000D01*
X197500000Y-131500000D02*
X197500000Y-133500000D01*
X199000000Y-130000000D02*
X200500000Y-131500000D01*
X200500000Y-131500000D02*
X200500000Y-133500000D01*
X199000000Y-125595000D02*
X199000000Y-125000000D01*
D18*
X199000000Y-133000000D02*
X199000000Y-136643000D01*
X199000000Y-136643000D02*
X199009000Y-136652000D01*
X210000000Y-130000000D02*
X210000000Y-129250000D01*
X210000000Y-129250000D02*
X210500000Y-128750000D01*
X210750000Y-137250000D02*
X203925000Y-130425000D01*
X211000000Y-137250000D02*
X210750000Y-137250000D01*
X203925000Y-130425000D02*
X201850000Y-130425000D01*
X204225000Y-123275000D02*
X204250000Y-123250000D01*
X201850000Y-123275000D02*
X204225000Y-123275000D01*
X204250000Y-123250000D02*
X206250000Y-123250000D01*
X206250000Y-123250000D02*
X213500000Y-123250000D01*
X213500000Y-123250000D02*
X214750000Y-123250000D01*
X214750000Y-123250000D02*
X215500000Y-124000000D01*
X215500000Y-124000000D02*
X215500000Y-127500000D01*
X194175000Y-131075000D02*
X194000000Y-131250000D01*
X196150000Y-131075000D02*
X194175000Y-131075000D01*
X193000000Y-131000000D02*
X193250000Y-131000000D01*
X193825000Y-130425000D02*
X196150000Y-130425000D01*
X193250000Y-131000000D02*
X193825000Y-130425000D01*
X204250000Y-121750000D02*
X206250000Y-121750000D01*
X204250000Y-121750000D02*
X202750000Y-121750000D01*
D17*
X219500000Y-134460000D02*
X217290000Y-134460000D01*
X219500000Y-134460000D02*
X221710000Y-134460000D01*
D18*
X182250000Y-134750000D02*
X182250000Y-132000000D01*
X187250000Y-134750000D02*
X187250000Y-132000000D01*
X190000000Y-134750000D02*
X190000000Y-132000000D01*
X187250000Y-114250000D02*
X187250000Y-116750000D01*
X189750000Y-114250000D02*
X189750000Y-116750000D01*
X179750000Y-114250000D02*
X179750000Y-116750000D01*
X182250000Y-114250000D02*
X182250000Y-116750000D01*
X203575000Y-131075000D02*
X201850000Y-131075000D01*
X210500000Y-138000000D02*
X203575000Y-131075000D01*
X201850000Y-123925000D02*
X202925000Y-123925000D01*
X202925000Y-123925000D02*
X203500000Y-124500000D01*
X203500000Y-124500000D02*
X207000000Y-124500000D01*
X203425000Y-124575000D02*
X203500000Y-124500000D01*
X201850000Y-124575000D02*
X203425000Y-124575000D01*
X207000000Y-124500000D02*
X214750000Y-124500000D01*
X211225000Y-125225000D02*
X201850000Y-125225000D01*
X211250000Y-125250000D02*
X211225000Y-125225000D01*
X210000000Y-126000000D02*
X209750000Y-125750000D01*
X209750000Y-125750000D02*
X208000000Y-125750000D01*
X207875000Y-125875000D02*
X208000000Y-125750000D01*
X201850000Y-125875000D02*
X207875000Y-125875000D01*
X208475000Y-126525000D02*
X201850000Y-126525000D01*
X208500000Y-126500000D02*
X208475000Y-126525000D01*
X204925000Y-127175000D02*
X201850000Y-127175000D01*
X205250000Y-127500000D02*
X204925000Y-127175000D01*
X204075000Y-127825000D02*
X201850000Y-127825000D01*
X204575000Y-127825000D02*
X204075000Y-127825000D01*
X205250000Y-128500000D02*
X204575000Y-127825000D01*
X208500000Y-132250000D02*
X208000000Y-132250000D01*
X208000000Y-132250000D02*
X204225000Y-128475000D01*
X204225000Y-128475000D02*
X201850000Y-128475000D01*
X204125000Y-129125000D02*
X201850000Y-129125000D01*
X208000000Y-133000000D02*
X204125000Y-129125000D01*
X209000000Y-133000000D02*
X208000000Y-133000000D01*
X204025000Y-129775000D02*
X201850000Y-129775000D01*
X208000000Y-133750000D02*
X204025000Y-129775000D01*
X208500000Y-133750000D02*
X208000000Y-133750000D01*
X196150000Y-125875000D02*
X183875000Y-125875000D01*
X182250000Y-124250000D02*
X182250000Y-118250000D01*
X183875000Y-125875000D02*
X182250000Y-124250000D01*
X196150000Y-126525000D02*
X182275000Y-126525000D01*
X179750000Y-124000000D02*
X179750000Y-118250000D01*
X182275000Y-126525000D02*
X179750000Y-124000000D01*
X196150000Y-127175000D02*
X184575000Y-127175000D01*
X182250000Y-129500000D02*
X182250000Y-130500000D01*
X184575000Y-127175000D02*
X182250000Y-129500000D01*
X196150000Y-127825000D02*
X188425000Y-127825000D01*
X187250000Y-129000000D02*
X187250000Y-130500000D01*
X188425000Y-127825000D02*
X187250000Y-129000000D01*
X196150000Y-128475000D02*
X190525000Y-128475000D01*
X190000000Y-129000000D02*
X190000000Y-130500000D01*
X190525000Y-128475000D02*
X190000000Y-129000000D01*
X196150000Y-129125000D02*
X192375000Y-129125000D01*
X192375000Y-129125000D02*
X192250000Y-129250000D01*
X190500000Y-124250000D02*
X188500000Y-124250000D01*
X188500000Y-124250000D02*
X187250000Y-123000000D01*
X187250000Y-123000000D02*
X187250000Y-118250000D01*
X191250000Y-125000000D02*
X191250000Y-123750000D01*
X189750000Y-122250000D02*
X189750000Y-118250000D01*
X191250000Y-123750000D02*
X189750000Y-122250000D01*
X192000000Y-130250000D02*
X191250000Y-129500000D01*
X192750000Y-130250000D02*
X192000000Y-130250000D01*
X196150000Y-129775000D02*
X193225000Y-129775000D01*
X193225000Y-129775000D02*
X192750000Y-130250000D01*
D19*
G36*
X199005000Y-131648750D02*
G01*
X199086250Y-131730000D01*
X199141034Y-131730045D01*
X199142259Y-131739352D01*
X199209246Y-131989352D01*
X199217878Y-132012286D01*
X199230818Y-132033095D01*
X199241599Y-132045388D01*
X199424612Y-132228401D01*
X199443554Y-132243947D01*
X199465165Y-132255498D01*
X199480648Y-132260754D01*
X199730648Y-132327741D01*
X199763000Y-132332000D01*
X200805164Y-132332000D01*
X201116343Y-132463061D01*
X206000677Y-137464603D01*
X206124485Y-137769570D01*
X206124037Y-137968787D01*
X206077017Y-138142961D01*
X205961346Y-138258372D01*
X205787066Y-138305000D01*
X192286457Y-138305000D01*
X192084704Y-138250941D01*
X191949059Y-138115296D01*
X191895000Y-137913543D01*
X191895000Y-137649900D01*
X192026122Y-137338662D01*
X197028123Y-132455755D01*
X197332060Y-132332000D01*
X198255000Y-132332000D01*
X198287352Y-132327741D01*
X198537352Y-132260754D01*
X198560286Y-132252122D01*
X198581095Y-132239182D01*
X198593388Y-132228401D01*
X198776401Y-132045388D01*
X198791947Y-132026446D01*
X198803498Y-132004835D01*
X198808754Y-131989352D01*
X198875741Y-131739352D01*
X198876968Y-131730030D01*
X198913750Y-131730000D01*
X198995000Y-131648750D01*
X198995000Y-131205098D01*
X199005000Y-131200956D01*
X199005000Y-131648750D01*
X199005000Y-131648750D01*
G37*
X199005000Y-131648750D02*
X199086250Y-131730000D01*
X199141034Y-131730045D01*
X199142259Y-131739352D01*
X199209246Y-131989352D01*
X199217878Y-132012286D01*
X199230818Y-132033095D01*
X199241599Y-132045388D01*
X199424612Y-132228401D01*
X199443554Y-132243947D01*
X199465165Y-132255498D01*
X199480648Y-132260754D01*
X199730648Y-132327741D01*
X199763000Y-132332000D01*
X200805164Y-132332000D01*
X201116343Y-132463061D01*
X206000677Y-137464603D01*
X206124485Y-137769570D01*
X206124037Y-137968787D01*
X206077017Y-138142961D01*
X205961346Y-138258372D01*
X205787066Y-138305000D01*
X192286457Y-138305000D01*
X192084704Y-138250941D01*
X191949059Y-138115296D01*
X191895000Y-137913543D01*
X191895000Y-137649900D01*
X192026122Y-137338662D01*
X197028123Y-132455755D01*
X197332060Y-132332000D01*
X198255000Y-132332000D01*
X198287352Y-132327741D01*
X198537352Y-132260754D01*
X198560286Y-132252122D01*
X198581095Y-132239182D01*
X198593388Y-132228401D01*
X198776401Y-132045388D01*
X198791947Y-132026446D01*
X198803498Y-132004835D01*
X198808754Y-131989352D01*
X198875741Y-131739352D01*
X198876968Y-131730030D01*
X198913750Y-131730000D01*
X198995000Y-131648750D01*
X198995000Y-131205098D01*
X199005000Y-131200956D01*
X199005000Y-131648750D01*
D20*
G36*
X212706002Y-109143197D02*
G01*
X212856803Y-109293998D01*
X212915000Y-109511192D01*
X212915000Y-113500000D01*
X212917896Y-113522000D01*
X212984883Y-113772000D01*
X212990753Y-113787594D01*
X212999552Y-113801745D01*
X213006883Y-113810104D01*
X213189896Y-113993117D01*
X213202777Y-114003688D01*
X213217472Y-114011543D01*
X213228000Y-114015117D01*
X213478000Y-114082104D01*
X213500000Y-114085000D01*
X225536994Y-114085000D01*
X225754629Y-114143454D01*
X225905492Y-114294857D01*
X225963169Y-114512701D01*
X225866820Y-141490315D01*
X225808107Y-141706857D01*
X225657366Y-141857061D01*
X225440617Y-141915000D01*
X213500000Y-141915000D01*
X213478000Y-141917896D01*
X213228000Y-141984883D01*
X213212406Y-141990753D01*
X213198255Y-141999552D01*
X213189896Y-142006883D01*
X213006883Y-142189896D01*
X212996312Y-142202777D01*
X212988457Y-142217472D01*
X212984883Y-142228000D01*
X212917896Y-142478000D01*
X212915000Y-142500000D01*
X212915000Y-146488808D01*
X212856803Y-146706002D01*
X212706002Y-146856803D01*
X212488808Y-146915000D01*
X175511192Y-146915000D01*
X175293998Y-146856803D01*
X175143197Y-146706002D01*
X175085000Y-146488808D01*
X175085000Y-142500000D01*
X175082104Y-142478000D01*
X175015117Y-142228000D01*
X175009247Y-142212406D01*
X175000448Y-142198255D01*
X174993117Y-142189896D01*
X174810104Y-142006883D01*
X174797223Y-141996312D01*
X174782528Y-141988457D01*
X174772000Y-141984883D01*
X174522000Y-141917896D01*
X174500000Y-141915000D01*
X170511192Y-141915000D01*
X170293998Y-141856803D01*
X170143197Y-141706002D01*
X170085000Y-141488808D01*
X170085000Y-139853740D01*
X170515000Y-139853740D01*
X170515000Y-140146260D01*
X170572068Y-140433158D01*
X170684010Y-140703411D01*
X170846525Y-140946632D01*
X171053368Y-141153475D01*
X171296589Y-141315990D01*
X171566842Y-141427932D01*
X171853740Y-141485000D01*
X172146260Y-141485000D01*
X172433158Y-141427932D01*
X172703411Y-141315990D01*
X172946632Y-141153475D01*
X173153475Y-140946632D01*
X173315990Y-140703411D01*
X173427932Y-140433158D01*
X173485000Y-140146260D01*
X173485000Y-139853740D01*
X214515000Y-139853740D01*
X214515000Y-140146260D01*
X214572068Y-140433158D01*
X214684010Y-140703411D01*
X214846525Y-140946632D01*
X215053368Y-141153475D01*
X215296589Y-141315990D01*
X215566842Y-141427932D01*
X215853740Y-141485000D01*
X216146260Y-141485000D01*
X216433158Y-141427932D01*
X216703411Y-141315990D01*
X216946632Y-141153475D01*
X217153475Y-140946632D01*
X217315990Y-140703411D01*
X217427932Y-140433158D01*
X217485000Y-140146260D01*
X217485000Y-139853740D01*
X217427932Y-139566842D01*
X217315990Y-139296589D01*
X217153475Y-139053368D01*
X216946632Y-138846525D01*
X216703411Y-138684010D01*
X216433158Y-138572068D01*
X216146260Y-138515000D01*
X215853740Y-138515000D01*
X215566842Y-138572068D01*
X215296589Y-138684010D01*
X215053368Y-138846525D01*
X214846525Y-139053368D01*
X214684010Y-139296589D01*
X214572068Y-139566842D01*
X214515000Y-139853740D01*
X173485000Y-139853740D01*
X173427932Y-139566842D01*
X173315990Y-139296589D01*
X173153475Y-139053368D01*
X172946632Y-138846525D01*
X172703411Y-138684010D01*
X172433158Y-138572068D01*
X172146260Y-138515000D01*
X171853740Y-138515000D01*
X171566842Y-138572068D01*
X171296589Y-138684010D01*
X171053368Y-138846525D01*
X170846525Y-139053368D01*
X170684010Y-139296589D01*
X170572068Y-139566842D01*
X170515000Y-139853740D01*
X170085000Y-139853740D01*
X170085000Y-115853740D01*
X170515000Y-115853740D01*
X170515000Y-116146260D01*
X170572068Y-116433158D01*
X170684010Y-116703411D01*
X170846525Y-116946632D01*
X171053368Y-117153475D01*
X171296589Y-117315990D01*
X171566842Y-117427932D01*
X171853740Y-117485000D01*
X172146260Y-117485000D01*
X172433158Y-117427932D01*
X172703411Y-117315990D01*
X172946632Y-117153475D01*
X173153475Y-116946632D01*
X173315990Y-116703411D01*
X173400245Y-116500000D01*
X178913138Y-116500000D01*
X178913138Y-117000000D01*
X178920571Y-117075473D01*
X178942586Y-117148046D01*
X178978336Y-117214929D01*
X178985000Y-117223049D01*
X178985000Y-117776951D01*
X178978336Y-117785071D01*
X178942586Y-117851954D01*
X178920571Y-117924527D01*
X178913138Y-118000000D01*
X178913138Y-118500000D01*
X178920571Y-118575473D01*
X178942586Y-118648046D01*
X178978336Y-118714929D01*
X179026447Y-118773553D01*
X179085071Y-118821664D01*
X179151954Y-118857414D01*
X179224527Y-118879429D01*
X179255001Y-118882430D01*
X179255000Y-123975693D01*
X179252606Y-124000000D01*
X179255000Y-124024307D01*
X179255000Y-124024317D01*
X179262162Y-124097036D01*
X179290467Y-124190344D01*
X179336431Y-124276338D01*
X179398289Y-124351711D01*
X179417178Y-124367213D01*
X181907791Y-126857827D01*
X181923289Y-126876711D01*
X181942173Y-126892209D01*
X181942177Y-126892213D01*
X181988037Y-126929849D01*
X181998662Y-126938569D01*
X182084655Y-126984533D01*
X182177963Y-127012838D01*
X182250682Y-127020000D01*
X182250692Y-127020000D01*
X182274999Y-127022394D01*
X182299306Y-127020000D01*
X184029964Y-127020000D01*
X181917178Y-129132787D01*
X181898289Y-129148289D01*
X181836431Y-129223662D01*
X181790467Y-129309656D01*
X181762162Y-129402964D01*
X181755000Y-129475683D01*
X181755000Y-129475693D01*
X181752606Y-129500000D01*
X181755000Y-129524308D01*
X181755000Y-129867570D01*
X181724527Y-129870571D01*
X181651954Y-129892586D01*
X181585071Y-129928336D01*
X181526447Y-129976447D01*
X181478336Y-130035071D01*
X181442586Y-130101954D01*
X181420571Y-130174527D01*
X181413138Y-130250000D01*
X181413138Y-130750000D01*
X181420571Y-130825473D01*
X181442586Y-130898046D01*
X181478336Y-130964929D01*
X181525000Y-131021790D01*
X181525000Y-131478210D01*
X181478336Y-131535071D01*
X181442586Y-131601954D01*
X181420571Y-131674527D01*
X181413138Y-131750000D01*
X181413138Y-132250000D01*
X181420571Y-132325473D01*
X181442586Y-132398046D01*
X181478336Y-132464929D01*
X181526447Y-132523553D01*
X181585071Y-132571664D01*
X181651954Y-132607414D01*
X181724527Y-132629429D01*
X181755001Y-132632430D01*
X181755000Y-134276264D01*
X181717926Y-134313338D01*
X181642961Y-134425531D01*
X181591325Y-134550193D01*
X181565000Y-134682533D01*
X181565000Y-134817467D01*
X181591325Y-134949807D01*
X181642961Y-135074469D01*
X181717926Y-135186662D01*
X181813338Y-135282074D01*
X181925531Y-135357039D01*
X182050193Y-135408675D01*
X182182533Y-135435000D01*
X182317467Y-135435000D01*
X182449807Y-135408675D01*
X182574469Y-135357039D01*
X182686662Y-135282074D01*
X182782074Y-135186662D01*
X182857039Y-135074469D01*
X182908675Y-134949807D01*
X182935000Y-134817467D01*
X182935000Y-134682533D01*
X182908675Y-134550193D01*
X182857039Y-134425531D01*
X182782074Y-134313338D01*
X182745000Y-134276264D01*
X182745000Y-132632430D01*
X182775473Y-132629429D01*
X182848046Y-132607414D01*
X182914929Y-132571664D01*
X182973553Y-132523553D01*
X183021664Y-132464929D01*
X183057414Y-132398046D01*
X183079429Y-132325473D01*
X183086862Y-132250000D01*
X183086862Y-131750000D01*
X183079429Y-131674527D01*
X183057414Y-131601954D01*
X183021664Y-131535071D01*
X182973553Y-131476447D01*
X182965000Y-131469428D01*
X182965000Y-131030572D01*
X182973553Y-131023553D01*
X183021664Y-130964929D01*
X183057414Y-130898046D01*
X183079429Y-130825473D01*
X183086862Y-130750000D01*
X183086862Y-130250000D01*
X183079429Y-130174527D01*
X183057414Y-130101954D01*
X183021664Y-130035071D01*
X182973553Y-129976447D01*
X182914929Y-129928336D01*
X182848046Y-129892586D01*
X182775473Y-129870571D01*
X182745000Y-129867570D01*
X182745000Y-129705035D01*
X184780036Y-127670000D01*
X187879964Y-127670000D01*
X186917178Y-128632787D01*
X186898289Y-128648289D01*
X186836431Y-128723662D01*
X186790467Y-128809656D01*
X186762162Y-128902964D01*
X186755000Y-128975683D01*
X186755000Y-128975693D01*
X186752606Y-129000000D01*
X186755000Y-129024308D01*
X186755001Y-129867570D01*
X186724527Y-129870571D01*
X186651954Y-129892586D01*
X186585071Y-129928336D01*
X186526447Y-129976447D01*
X186478336Y-130035071D01*
X186442586Y-130101954D01*
X186420571Y-130174527D01*
X186413138Y-130250000D01*
X186413138Y-130750000D01*
X186420571Y-130825473D01*
X186442586Y-130898046D01*
X186478000Y-130964300D01*
X186478000Y-131535700D01*
X186442586Y-131601954D01*
X186420571Y-131674527D01*
X186413138Y-131750000D01*
X186413138Y-132250000D01*
X186420571Y-132325473D01*
X186442586Y-132398046D01*
X186478336Y-132464929D01*
X186526447Y-132523553D01*
X186585071Y-132571664D01*
X186651954Y-132607414D01*
X186724527Y-132629429D01*
X186755001Y-132632430D01*
X186755000Y-134276264D01*
X186717926Y-134313338D01*
X186642961Y-134425531D01*
X186591325Y-134550193D01*
X186565000Y-134682533D01*
X186565000Y-134817467D01*
X186591325Y-134949807D01*
X186642961Y-135074469D01*
X186717926Y-135186662D01*
X186813338Y-135282074D01*
X186925531Y-135357039D01*
X187050193Y-135408675D01*
X187182533Y-135435000D01*
X187317467Y-135435000D01*
X187449807Y-135408675D01*
X187574469Y-135357039D01*
X187686662Y-135282074D01*
X187782074Y-135186662D01*
X187857039Y-135074469D01*
X187908675Y-134949807D01*
X187935000Y-134817467D01*
X187935000Y-134682533D01*
X187908675Y-134550193D01*
X187857039Y-134425531D01*
X187782074Y-134313338D01*
X187745000Y-134276264D01*
X187745000Y-132632430D01*
X187775473Y-132629429D01*
X187848046Y-132607414D01*
X187914929Y-132571664D01*
X187973553Y-132523553D01*
X188021664Y-132464929D01*
X188057414Y-132398046D01*
X188079429Y-132325473D01*
X188086862Y-132250000D01*
X188086862Y-131750000D01*
X188079429Y-131674527D01*
X188057414Y-131601954D01*
X188021664Y-131535071D01*
X187973553Y-131476447D01*
X187918000Y-131430856D01*
X187918000Y-131069144D01*
X187973553Y-131023553D01*
X188021664Y-130964929D01*
X188057414Y-130898046D01*
X188079429Y-130825473D01*
X188086862Y-130750000D01*
X188086862Y-130250000D01*
X188079429Y-130174527D01*
X188057414Y-130101954D01*
X188021664Y-130035071D01*
X187973553Y-129976447D01*
X187914929Y-129928336D01*
X187848046Y-129892586D01*
X187775473Y-129870571D01*
X187745000Y-129867570D01*
X187745000Y-129205035D01*
X188630036Y-128320000D01*
X189979964Y-128320000D01*
X189667178Y-128632787D01*
X189648289Y-128648289D01*
X189586431Y-128723662D01*
X189540467Y-128809656D01*
X189512162Y-128902964D01*
X189505000Y-128975683D01*
X189505000Y-128975693D01*
X189502606Y-129000000D01*
X189505000Y-129024308D01*
X189505001Y-129867570D01*
X189474527Y-129870571D01*
X189401954Y-129892586D01*
X189335071Y-129928336D01*
X189276447Y-129976447D01*
X189228336Y-130035071D01*
X189192586Y-130101954D01*
X189170571Y-130174527D01*
X189163138Y-130250000D01*
X189163138Y-130750000D01*
X189170571Y-130825473D01*
X189192586Y-130898046D01*
X189228336Y-130964929D01*
X189272000Y-131018134D01*
X189272000Y-131481866D01*
X189228336Y-131535071D01*
X189192586Y-131601954D01*
X189170571Y-131674527D01*
X189163138Y-131750000D01*
X189163138Y-132250000D01*
X189170571Y-132325473D01*
X189192586Y-132398046D01*
X189228336Y-132464929D01*
X189276447Y-132523553D01*
X189335071Y-132571664D01*
X189401954Y-132607414D01*
X189474527Y-132629429D01*
X189505001Y-132632430D01*
X189505000Y-134276264D01*
X189467926Y-134313338D01*
X189392961Y-134425531D01*
X189341325Y-134550193D01*
X189315000Y-134682533D01*
X189315000Y-134817467D01*
X189341325Y-134949807D01*
X189392961Y-135074469D01*
X189467926Y-135186662D01*
X189563338Y-135282074D01*
X189675531Y-135357039D01*
X189800193Y-135408675D01*
X189932533Y-135435000D01*
X190067467Y-135435000D01*
X190199807Y-135408675D01*
X190324469Y-135357039D01*
X190436662Y-135282074D01*
X190532074Y-135186662D01*
X190607039Y-135074469D01*
X190658675Y-134949807D01*
X190685000Y-134817467D01*
X190685000Y-134682533D01*
X190658675Y-134550193D01*
X190607039Y-134425531D01*
X190532074Y-134313338D01*
X190495000Y-134276264D01*
X190495000Y-132632430D01*
X190525473Y-132629429D01*
X190598046Y-132607414D01*
X190664929Y-132571664D01*
X190723553Y-132523553D01*
X190771664Y-132464929D01*
X190807414Y-132398046D01*
X190829429Y-132325473D01*
X190836862Y-132250000D01*
X190836862Y-131750000D01*
X190829429Y-131674527D01*
X190807414Y-131601954D01*
X190771664Y-131535071D01*
X190723553Y-131476447D01*
X190712000Y-131466966D01*
X190712000Y-131033034D01*
X190723553Y-131023553D01*
X190771664Y-130964929D01*
X190807414Y-130898046D01*
X190829429Y-130825473D01*
X190836862Y-130750000D01*
X190836862Y-130250000D01*
X190829429Y-130174527D01*
X190807414Y-130101954D01*
X190771664Y-130035071D01*
X190723553Y-129976447D01*
X190664929Y-129928336D01*
X190598046Y-129892586D01*
X190525473Y-129870571D01*
X190495000Y-129867570D01*
X190495000Y-129205035D01*
X190730036Y-128970000D01*
X190811264Y-128970000D01*
X190717926Y-129063338D01*
X190642961Y-129175531D01*
X190591325Y-129300193D01*
X190565000Y-129432533D01*
X190565000Y-129567467D01*
X190591325Y-129699807D01*
X190642961Y-129824469D01*
X190717926Y-129936662D01*
X190813338Y-130032074D01*
X190925531Y-130107039D01*
X191050193Y-130158675D01*
X191182533Y-130185000D01*
X191234965Y-130185000D01*
X191632791Y-130582827D01*
X191648289Y-130601711D01*
X191667173Y-130617209D01*
X191667177Y-130617213D01*
X191713037Y-130654849D01*
X191723662Y-130663569D01*
X191809655Y-130709533D01*
X191902963Y-130737838D01*
X191975682Y-130745000D01*
X191975692Y-130745000D01*
X191999999Y-130747394D01*
X192024306Y-130745000D01*
X192364186Y-130745000D01*
X192341325Y-130800193D01*
X192315000Y-130932533D01*
X192315000Y-131067467D01*
X192341325Y-131199807D01*
X192392961Y-131324469D01*
X192467926Y-131436662D01*
X192563338Y-131532074D01*
X192675531Y-131607039D01*
X192800193Y-131658675D01*
X192932533Y-131685000D01*
X193067467Y-131685000D01*
X193199807Y-131658675D01*
X193324469Y-131607039D01*
X193388680Y-131564134D01*
X193392961Y-131574469D01*
X193467926Y-131686662D01*
X193563338Y-131782074D01*
X193675531Y-131857039D01*
X193800193Y-131908675D01*
X193932533Y-131935000D01*
X194067467Y-131935000D01*
X194199807Y-131908675D01*
X194324469Y-131857039D01*
X194436662Y-131782074D01*
X194532074Y-131686662D01*
X194607039Y-131574469D01*
X194608890Y-131570000D01*
X195213138Y-131570000D01*
X195213138Y-131925000D01*
X195220571Y-132000473D01*
X195242586Y-132073046D01*
X195278336Y-132139929D01*
X195326447Y-132198553D01*
X195385071Y-132246664D01*
X195451954Y-132282414D01*
X195524527Y-132304429D01*
X195600000Y-132311862D01*
X196067930Y-132311862D01*
X191336343Y-137043449D01*
X191325772Y-137056330D01*
X191317917Y-137071025D01*
X191171470Y-137424579D01*
X191166633Y-137440524D01*
X191165000Y-137457107D01*
X191165000Y-138500000D01*
X191167896Y-138522000D01*
X191234883Y-138772000D01*
X191240753Y-138787594D01*
X191249552Y-138801745D01*
X191256883Y-138810104D01*
X191439896Y-138993117D01*
X191452777Y-139003688D01*
X191467472Y-139011543D01*
X191478000Y-139015117D01*
X191728000Y-139082104D01*
X191750000Y-139085000D01*
X206500000Y-139085000D01*
X206522000Y-139082104D01*
X206772000Y-139015117D01*
X206787594Y-139009247D01*
X206801745Y-139000448D01*
X206810104Y-138993117D01*
X206993117Y-138810104D01*
X207003688Y-138797223D01*
X207011543Y-138782528D01*
X207015117Y-138772000D01*
X207082104Y-138522000D01*
X207085000Y-138500000D01*
X207085000Y-137707107D01*
X207083367Y-137690524D01*
X207078530Y-137674579D01*
X206932083Y-137321025D01*
X206924228Y-137306330D01*
X206913657Y-137293449D01*
X201801979Y-132181771D01*
X201845000Y-132138750D01*
X201845000Y-131730000D01*
X201855000Y-131730000D01*
X201855000Y-132138750D01*
X201926250Y-132210000D01*
X202400000Y-132211379D01*
X202455870Y-132205876D01*
X202509592Y-132189580D01*
X202559104Y-132163115D01*
X202602501Y-132127501D01*
X202638115Y-132084104D01*
X202664580Y-132034592D01*
X202680876Y-131980870D01*
X202686379Y-131925000D01*
X202685000Y-131801250D01*
X202613750Y-131730000D01*
X201855000Y-131730000D01*
X201845000Y-131730000D01*
X201825000Y-131730000D01*
X201825000Y-131720000D01*
X201845000Y-131720000D01*
X201845000Y-131700000D01*
X201855000Y-131700000D01*
X201855000Y-131720000D01*
X202613750Y-131720000D01*
X202685000Y-131648750D01*
X202685878Y-131570000D01*
X203369965Y-131570000D01*
X209815000Y-138015036D01*
X209815000Y-138067467D01*
X209841325Y-138199807D01*
X209892961Y-138324469D01*
X209967926Y-138436662D01*
X210063338Y-138532074D01*
X210175531Y-138607039D01*
X210300193Y-138658675D01*
X210432533Y-138685000D01*
X210567467Y-138685000D01*
X210699807Y-138658675D01*
X210824469Y-138607039D01*
X210936662Y-138532074D01*
X211032074Y-138436662D01*
X211107039Y-138324469D01*
X211158675Y-138199807D01*
X211185000Y-138067467D01*
X211185000Y-137932533D01*
X211180998Y-137912416D01*
X211199807Y-137908675D01*
X211324469Y-137857039D01*
X211436662Y-137782074D01*
X211532074Y-137686662D01*
X211607039Y-137574469D01*
X211658675Y-137449807D01*
X211685000Y-137317467D01*
X211685000Y-137182533D01*
X211658675Y-137050193D01*
X211607039Y-136925531D01*
X211532074Y-136813338D01*
X211436662Y-136717926D01*
X211324469Y-136642961D01*
X211199807Y-136591325D01*
X211067467Y-136565000D01*
X210932533Y-136565000D01*
X210800193Y-136591325D01*
X210793948Y-136593912D01*
X210200036Y-136000000D01*
X217813138Y-136000000D01*
X217813138Y-138000000D01*
X217820571Y-138075473D01*
X217842586Y-138148046D01*
X217878336Y-138214929D01*
X217926447Y-138273553D01*
X217985071Y-138321664D01*
X218051954Y-138357414D01*
X218124527Y-138379429D01*
X218200000Y-138386862D01*
X220800000Y-138386862D01*
X220875473Y-138379429D01*
X220948046Y-138357414D01*
X221014929Y-138321664D01*
X221073553Y-138273553D01*
X221121664Y-138214929D01*
X221157414Y-138148046D01*
X221179429Y-138075473D01*
X221186862Y-138000000D01*
X221186862Y-136000000D01*
X221179429Y-135924527D01*
X221157414Y-135851954D01*
X221121664Y-135785071D01*
X221073553Y-135726447D01*
X221014929Y-135678336D01*
X220948046Y-135642586D01*
X220875473Y-135620571D01*
X220800000Y-135613138D01*
X220355928Y-135613138D01*
X220518066Y-135525661D01*
X220712169Y-135365097D01*
X220871218Y-135169750D01*
X220989100Y-134947128D01*
X221061286Y-134705786D01*
X221068387Y-134665955D01*
X221013740Y-134465000D01*
X219505000Y-134465000D01*
X219505000Y-134485000D01*
X219495000Y-134485000D01*
X219495000Y-134465000D01*
X217986260Y-134465000D01*
X217931613Y-134665955D01*
X217938714Y-134705786D01*
X218010900Y-134947128D01*
X218128782Y-135169750D01*
X218287831Y-135365097D01*
X218481934Y-135525661D01*
X218644072Y-135613138D01*
X218200000Y-135613138D01*
X218124527Y-135620571D01*
X218051954Y-135642586D01*
X217985071Y-135678336D01*
X217926447Y-135726447D01*
X217878336Y-135785071D01*
X217842586Y-135851954D01*
X217820571Y-135924527D01*
X217813138Y-136000000D01*
X210200036Y-136000000D01*
X208623825Y-134423789D01*
X208699807Y-134408675D01*
X208824469Y-134357039D01*
X208936662Y-134282074D01*
X209032074Y-134186662D01*
X209107039Y-134074469D01*
X209158675Y-133949807D01*
X209185000Y-133817467D01*
X209185000Y-133682533D01*
X209180998Y-133662416D01*
X209199807Y-133658675D01*
X209324469Y-133607039D01*
X209436662Y-133532074D01*
X209532074Y-133436662D01*
X209607039Y-133324469D01*
X209658675Y-133199807D01*
X209685000Y-133067467D01*
X209685000Y-132932533D01*
X209658675Y-132800193D01*
X209607039Y-132675531D01*
X209532074Y-132563338D01*
X209436662Y-132467926D01*
X209324469Y-132392961D01*
X209199807Y-132341325D01*
X209180998Y-132337584D01*
X209185000Y-132317467D01*
X209185000Y-132182533D01*
X209158675Y-132050193D01*
X209107039Y-131925531D01*
X209089980Y-131900000D01*
X209338621Y-131900000D01*
X209344124Y-131955870D01*
X209360420Y-132009592D01*
X209386885Y-132059104D01*
X209422499Y-132102501D01*
X209465896Y-132138115D01*
X209515408Y-132164580D01*
X209569130Y-132180876D01*
X209625000Y-132186379D01*
X209923750Y-132185000D01*
X209995000Y-132113750D01*
X209995000Y-131505000D01*
X210005000Y-131505000D01*
X210005000Y-132113750D01*
X210076250Y-132185000D01*
X210375000Y-132186379D01*
X210430870Y-132180876D01*
X210484592Y-132164580D01*
X210534104Y-132138115D01*
X210577501Y-132102501D01*
X210613115Y-132059104D01*
X210639580Y-132009592D01*
X210655876Y-131955870D01*
X210661379Y-131900000D01*
X210660000Y-131576250D01*
X210588750Y-131505000D01*
X210005000Y-131505000D01*
X209995000Y-131505000D01*
X209411250Y-131505000D01*
X209340000Y-131576250D01*
X209338621Y-131900000D01*
X209089980Y-131900000D01*
X209032074Y-131813338D01*
X208936662Y-131717926D01*
X208824469Y-131642961D01*
X208699807Y-131591325D01*
X208567467Y-131565000D01*
X208432533Y-131565000D01*
X208300193Y-131591325D01*
X208175531Y-131642961D01*
X208126055Y-131676020D01*
X207550035Y-131100000D01*
X209338621Y-131100000D01*
X209340000Y-131423750D01*
X209411250Y-131495000D01*
X209995000Y-131495000D01*
X209995000Y-130886250D01*
X210005000Y-130886250D01*
X210005000Y-131495000D01*
X210588750Y-131495000D01*
X210660000Y-131423750D01*
X210661379Y-131100000D01*
X210655876Y-131044130D01*
X210639580Y-130990408D01*
X210613115Y-130940896D01*
X210577501Y-130897499D01*
X210534104Y-130861885D01*
X210484592Y-130835420D01*
X210430870Y-130819124D01*
X210375000Y-130813621D01*
X210076250Y-130815000D01*
X210005000Y-130886250D01*
X209995000Y-130886250D01*
X209923750Y-130815000D01*
X209625000Y-130813621D01*
X209569130Y-130819124D01*
X209515408Y-130835420D01*
X209465896Y-130861885D01*
X209422499Y-130897499D01*
X209386885Y-130940896D01*
X209360420Y-130990408D01*
X209344124Y-131044130D01*
X209338621Y-131100000D01*
X207550035Y-131100000D01*
X206050035Y-129600000D01*
X209238138Y-129600000D01*
X209238138Y-130400000D01*
X209245571Y-130475473D01*
X209267586Y-130548046D01*
X209303336Y-130614929D01*
X209351447Y-130673553D01*
X209410071Y-130721664D01*
X209476954Y-130757414D01*
X209549527Y-130779429D01*
X209625000Y-130786862D01*
X210375000Y-130786862D01*
X210450473Y-130779429D01*
X210523046Y-130757414D01*
X210589929Y-130721664D01*
X210648553Y-130673553D01*
X210696664Y-130614929D01*
X210732414Y-130548046D01*
X210754429Y-130475473D01*
X210761862Y-130400000D01*
X210761862Y-129600000D01*
X210754429Y-129524527D01*
X210732414Y-129451954D01*
X210707563Y-129405462D01*
X210824469Y-129357039D01*
X210936662Y-129282074D01*
X211032074Y-129186662D01*
X211107039Y-129074469D01*
X211158675Y-128949807D01*
X211185000Y-128817467D01*
X211185000Y-128682533D01*
X211158675Y-128550193D01*
X211107039Y-128425531D01*
X211032074Y-128313338D01*
X210936662Y-128217926D01*
X210824469Y-128142961D01*
X210699807Y-128091325D01*
X210567467Y-128065000D01*
X210432533Y-128065000D01*
X210300193Y-128091325D01*
X210175531Y-128142961D01*
X210063338Y-128217926D01*
X209967926Y-128313338D01*
X209892961Y-128425531D01*
X209841325Y-128550193D01*
X209815000Y-128682533D01*
X209815000Y-128734965D01*
X209667173Y-128882792D01*
X209648290Y-128898289D01*
X209632792Y-128917173D01*
X209632787Y-128917178D01*
X209586431Y-128973662D01*
X209540467Y-129059656D01*
X209535974Y-129074469D01*
X209512163Y-129152963D01*
X209505798Y-129217586D01*
X209504149Y-129234336D01*
X209476954Y-129242586D01*
X209410071Y-129278336D01*
X209351447Y-129326447D01*
X209303336Y-129385071D01*
X209267586Y-129451954D01*
X209245571Y-129524527D01*
X209238138Y-129600000D01*
X206050035Y-129600000D01*
X205562169Y-129112134D01*
X205574469Y-129107039D01*
X205686662Y-129032074D01*
X205782074Y-128936662D01*
X205857039Y-128824469D01*
X205908675Y-128699807D01*
X205935000Y-128567467D01*
X205935000Y-128432533D01*
X205908675Y-128300193D01*
X205857039Y-128175531D01*
X205782074Y-128063338D01*
X205718736Y-128000000D01*
X205782074Y-127936662D01*
X205857039Y-127824469D01*
X205908675Y-127699807D01*
X205935000Y-127567467D01*
X205935000Y-127432533D01*
X205908675Y-127300193D01*
X205857039Y-127175531D01*
X205782074Y-127063338D01*
X205738736Y-127020000D01*
X208051264Y-127020000D01*
X208063338Y-127032074D01*
X208175531Y-127107039D01*
X208300193Y-127158675D01*
X208432533Y-127185000D01*
X208567467Y-127185000D01*
X208699807Y-127158675D01*
X208824469Y-127107039D01*
X208936662Y-127032074D01*
X209032074Y-126936662D01*
X209107039Y-126824469D01*
X209158675Y-126699807D01*
X209185000Y-126567467D01*
X209185000Y-126432533D01*
X209158675Y-126300193D01*
X209135814Y-126245000D01*
X209360044Y-126245000D01*
X209392961Y-126324469D01*
X209467926Y-126436662D01*
X209563338Y-126532074D01*
X209675531Y-126607039D01*
X209800193Y-126658675D01*
X209932533Y-126685000D01*
X210067467Y-126685000D01*
X210199807Y-126658675D01*
X210324469Y-126607039D01*
X210436662Y-126532074D01*
X210532074Y-126436662D01*
X210607039Y-126324469D01*
X210658675Y-126199807D01*
X210685000Y-126067467D01*
X210685000Y-125932533D01*
X210658675Y-125800193D01*
X210625458Y-125720000D01*
X210751264Y-125720000D01*
X210813338Y-125782074D01*
X210925531Y-125857039D01*
X211050193Y-125908675D01*
X211182533Y-125935000D01*
X211317467Y-125935000D01*
X211449807Y-125908675D01*
X211574469Y-125857039D01*
X211686662Y-125782074D01*
X211782074Y-125686662D01*
X211857039Y-125574469D01*
X211908675Y-125449807D01*
X211935000Y-125317467D01*
X211935000Y-125182533D01*
X211908675Y-125050193D01*
X211885814Y-124995000D01*
X214276264Y-124995000D01*
X214313338Y-125032074D01*
X214425531Y-125107039D01*
X214550193Y-125158675D01*
X214682533Y-125185000D01*
X214817467Y-125185000D01*
X214949807Y-125158675D01*
X215005000Y-125135813D01*
X215005001Y-127026263D01*
X214967926Y-127063338D01*
X214892961Y-127175531D01*
X214841325Y-127300193D01*
X214815000Y-127432533D01*
X214815000Y-127567467D01*
X214841325Y-127699807D01*
X214892961Y-127824469D01*
X214967926Y-127936662D01*
X215063338Y-128032074D01*
X215175531Y-128107039D01*
X215300193Y-128158675D01*
X215432533Y-128185000D01*
X215567467Y-128185000D01*
X215699807Y-128158675D01*
X215824469Y-128107039D01*
X215936662Y-128032074D01*
X216032074Y-127936662D01*
X216107039Y-127824469D01*
X216158675Y-127699807D01*
X216185000Y-127567467D01*
X216185000Y-127432533D01*
X216158675Y-127300193D01*
X216107039Y-127175531D01*
X216032074Y-127063338D01*
X215995000Y-127026264D01*
X215995000Y-124024306D01*
X215997394Y-123999999D01*
X215995000Y-123975692D01*
X215995000Y-123975682D01*
X215987838Y-123902963D01*
X215959533Y-123809655D01*
X215913569Y-123723662D01*
X215904849Y-123713037D01*
X215867213Y-123667177D01*
X215867209Y-123667173D01*
X215851711Y-123648289D01*
X215832827Y-123632791D01*
X215117213Y-122917178D01*
X215101711Y-122898289D01*
X215026338Y-122836431D01*
X214940345Y-122790467D01*
X214847037Y-122762162D01*
X214774318Y-122755000D01*
X214774307Y-122755000D01*
X214750000Y-122752606D01*
X214725693Y-122755000D01*
X206998505Y-122755000D01*
X206982414Y-122701954D01*
X206946664Y-122635071D01*
X206898553Y-122576447D01*
X206839929Y-122528336D01*
X206773046Y-122492586D01*
X206700473Y-122470571D01*
X206625000Y-122463138D01*
X205875000Y-122463138D01*
X205799527Y-122470571D01*
X205726954Y-122492586D01*
X205660071Y-122528336D01*
X205601447Y-122576447D01*
X205553336Y-122635071D01*
X205517586Y-122701954D01*
X205501495Y-122755000D01*
X204998505Y-122755000D01*
X204982414Y-122701954D01*
X204946664Y-122635071D01*
X204898553Y-122576447D01*
X204839929Y-122528336D01*
X204773046Y-122492586D01*
X204700473Y-122470571D01*
X204625000Y-122463138D01*
X203875000Y-122463138D01*
X203799527Y-122470571D01*
X203726954Y-122492586D01*
X203660071Y-122528336D01*
X203601447Y-122576447D01*
X203553336Y-122635071D01*
X203517586Y-122701954D01*
X203495571Y-122774527D01*
X203495032Y-122780000D01*
X202647419Y-122780000D01*
X202614929Y-122753336D01*
X202548046Y-122717586D01*
X202475473Y-122695571D01*
X202400000Y-122688138D01*
X201300000Y-122688138D01*
X201224527Y-122695571D01*
X201151954Y-122717586D01*
X201085071Y-122753336D01*
X201026447Y-122801447D01*
X200978336Y-122860071D01*
X200942586Y-122926954D01*
X200920571Y-122999527D01*
X200913138Y-123075000D01*
X200913138Y-123205714D01*
X200772000Y-123167896D01*
X200750000Y-123165000D01*
X197250000Y-123165000D01*
X197228000Y-123167896D01*
X197077814Y-123208138D01*
X197000000Y-123208138D01*
X196972948Y-123210802D01*
X196985000Y-123198750D01*
X196986379Y-123075000D01*
X196980876Y-123019130D01*
X196964580Y-122965408D01*
X196938115Y-122915896D01*
X196902501Y-122872499D01*
X196859104Y-122836885D01*
X196809592Y-122810420D01*
X196755870Y-122794124D01*
X196700000Y-122788621D01*
X196226250Y-122790000D01*
X196155000Y-122861250D01*
X196155000Y-123270000D01*
X196175000Y-123270000D01*
X196175000Y-123280000D01*
X196155000Y-123280000D01*
X196155000Y-123300000D01*
X196145000Y-123300000D01*
X196145000Y-123280000D01*
X195386250Y-123280000D01*
X195315000Y-123351250D01*
X195313711Y-123466967D01*
X195278336Y-123510071D01*
X195242586Y-123576954D01*
X195220571Y-123649527D01*
X195213138Y-123725000D01*
X195213138Y-124125000D01*
X195220571Y-124200473D01*
X195235595Y-124250000D01*
X195220571Y-124299527D01*
X195213138Y-124375000D01*
X195213138Y-124775000D01*
X195220571Y-124850473D01*
X195235595Y-124900000D01*
X195220571Y-124949527D01*
X195213138Y-125025000D01*
X195213138Y-125380000D01*
X191819934Y-125380000D01*
X191857039Y-125324469D01*
X191908675Y-125199807D01*
X191935000Y-125067467D01*
X191935000Y-124932533D01*
X191908675Y-124800193D01*
X191857039Y-124675531D01*
X191782074Y-124563338D01*
X191745000Y-124526264D01*
X191745000Y-123774306D01*
X191747394Y-123749999D01*
X191745000Y-123725692D01*
X191745000Y-123725682D01*
X191737838Y-123652963D01*
X191709533Y-123559655D01*
X191663569Y-123473662D01*
X191654849Y-123463037D01*
X191617213Y-123417177D01*
X191617209Y-123417173D01*
X191601711Y-123398289D01*
X191582827Y-123382791D01*
X191275036Y-123075000D01*
X195313621Y-123075000D01*
X195315000Y-123198750D01*
X195386250Y-123270000D01*
X196145000Y-123270000D01*
X196145000Y-122861250D01*
X196073750Y-122790000D01*
X195600000Y-122788621D01*
X195544130Y-122794124D01*
X195490408Y-122810420D01*
X195440896Y-122836885D01*
X195397499Y-122872499D01*
X195361885Y-122915896D01*
X195335420Y-122965408D01*
X195319124Y-123019130D01*
X195313621Y-123075000D01*
X191275036Y-123075000D01*
X190350036Y-122150000D01*
X203588621Y-122150000D01*
X203594124Y-122205870D01*
X203610420Y-122259592D01*
X203636885Y-122309104D01*
X203672499Y-122352501D01*
X203715896Y-122388115D01*
X203765408Y-122414580D01*
X203819130Y-122430876D01*
X203875000Y-122436379D01*
X204173750Y-122435000D01*
X204245000Y-122363750D01*
X204245000Y-121755000D01*
X204255000Y-121755000D01*
X204255000Y-122363750D01*
X204326250Y-122435000D01*
X204625000Y-122436379D01*
X204680870Y-122430876D01*
X204734592Y-122414580D01*
X204784104Y-122388115D01*
X204827501Y-122352501D01*
X204863115Y-122309104D01*
X204889580Y-122259592D01*
X204905876Y-122205870D01*
X204911379Y-122150000D01*
X205588621Y-122150000D01*
X205594124Y-122205870D01*
X205610420Y-122259592D01*
X205636885Y-122309104D01*
X205672499Y-122352501D01*
X205715896Y-122388115D01*
X205765408Y-122414580D01*
X205819130Y-122430876D01*
X205875000Y-122436379D01*
X206173750Y-122435000D01*
X206245000Y-122363750D01*
X206245000Y-121755000D01*
X206255000Y-121755000D01*
X206255000Y-122363750D01*
X206326250Y-122435000D01*
X206625000Y-122436379D01*
X206680870Y-122430876D01*
X206734592Y-122414580D01*
X206784104Y-122388115D01*
X206827501Y-122352501D01*
X206863115Y-122309104D01*
X206889580Y-122259592D01*
X206905876Y-122205870D01*
X206911379Y-122150000D01*
X206910000Y-121826250D01*
X206838750Y-121755000D01*
X206255000Y-121755000D01*
X206245000Y-121755000D01*
X205661250Y-121755000D01*
X205590000Y-121826250D01*
X205588621Y-122150000D01*
X204911379Y-122150000D01*
X204910000Y-121826250D01*
X204838750Y-121755000D01*
X204255000Y-121755000D01*
X204245000Y-121755000D01*
X203661250Y-121755000D01*
X203590000Y-121826250D01*
X203588621Y-122150000D01*
X190350036Y-122150000D01*
X190245000Y-122044965D01*
X190245000Y-121350000D01*
X203588621Y-121350000D01*
X203590000Y-121673750D01*
X203661250Y-121745000D01*
X204245000Y-121745000D01*
X204245000Y-121136250D01*
X204255000Y-121136250D01*
X204255000Y-121745000D01*
X204838750Y-121745000D01*
X204910000Y-121673750D01*
X204911379Y-121350000D01*
X205588621Y-121350000D01*
X205590000Y-121673750D01*
X205661250Y-121745000D01*
X206245000Y-121745000D01*
X206245000Y-121136250D01*
X206255000Y-121136250D01*
X206255000Y-121745000D01*
X206838750Y-121745000D01*
X206910000Y-121673750D01*
X206911379Y-121350000D01*
X206905876Y-121294130D01*
X206889580Y-121240408D01*
X206863115Y-121190896D01*
X206827501Y-121147499D01*
X206784104Y-121111885D01*
X206734592Y-121085420D01*
X206680870Y-121069124D01*
X206625000Y-121063621D01*
X206326250Y-121065000D01*
X206255000Y-121136250D01*
X206245000Y-121136250D01*
X206173750Y-121065000D01*
X205875000Y-121063621D01*
X205819130Y-121069124D01*
X205765408Y-121085420D01*
X205715896Y-121111885D01*
X205672499Y-121147499D01*
X205636885Y-121190896D01*
X205610420Y-121240408D01*
X205594124Y-121294130D01*
X205588621Y-121350000D01*
X204911379Y-121350000D01*
X204905876Y-121294130D01*
X204889580Y-121240408D01*
X204863115Y-121190896D01*
X204827501Y-121147499D01*
X204784104Y-121111885D01*
X204734592Y-121085420D01*
X204680870Y-121069124D01*
X204625000Y-121063621D01*
X204326250Y-121065000D01*
X204255000Y-121136250D01*
X204245000Y-121136250D01*
X204173750Y-121065000D01*
X203875000Y-121063621D01*
X203819130Y-121069124D01*
X203765408Y-121085420D01*
X203715896Y-121111885D01*
X203672499Y-121147499D01*
X203636885Y-121190896D01*
X203610420Y-121240408D01*
X203594124Y-121294130D01*
X203588621Y-121350000D01*
X190245000Y-121350000D01*
X190245000Y-119220000D01*
X217808299Y-119220000D01*
X217835040Y-119491507D01*
X217914236Y-119752581D01*
X218042843Y-119993188D01*
X218215919Y-120204081D01*
X218426812Y-120377157D01*
X218637927Y-120490000D01*
X218426812Y-120602843D01*
X218215919Y-120775919D01*
X218042843Y-120986812D01*
X217914236Y-121227419D01*
X217835040Y-121488493D01*
X217808299Y-121760000D01*
X217835040Y-122031507D01*
X217914236Y-122292581D01*
X218042843Y-122533188D01*
X218215919Y-122744081D01*
X218426812Y-122917157D01*
X218637927Y-123030000D01*
X218426812Y-123142843D01*
X218215919Y-123315919D01*
X218042843Y-123526812D01*
X217914236Y-123767419D01*
X217835040Y-124028493D01*
X217808299Y-124300000D01*
X217835040Y-124571507D01*
X217914236Y-124832581D01*
X218042843Y-125073188D01*
X218215919Y-125284081D01*
X218426812Y-125457157D01*
X218637927Y-125570000D01*
X218426812Y-125682843D01*
X218215919Y-125855919D01*
X218042843Y-126066812D01*
X217914236Y-126307419D01*
X217835040Y-126568493D01*
X217808299Y-126840000D01*
X217835040Y-127111507D01*
X217914236Y-127372581D01*
X218042843Y-127613188D01*
X218215919Y-127824081D01*
X218426812Y-127997157D01*
X218637927Y-128110000D01*
X218426812Y-128222843D01*
X218215919Y-128395919D01*
X218042843Y-128606812D01*
X217914236Y-128847419D01*
X217835040Y-129108493D01*
X217808299Y-129380000D01*
X217835040Y-129651507D01*
X217914236Y-129912581D01*
X218042843Y-130153188D01*
X218215919Y-130364081D01*
X218426812Y-130537157D01*
X218637927Y-130650000D01*
X218426812Y-130762843D01*
X218215919Y-130935919D01*
X218042843Y-131146812D01*
X217914236Y-131387419D01*
X217835040Y-131648493D01*
X217808299Y-131920000D01*
X217835040Y-132191507D01*
X217914236Y-132452581D01*
X218042843Y-132693188D01*
X218215919Y-132904081D01*
X218426812Y-133077157D01*
X218667419Y-133205764D01*
X218798532Y-133245537D01*
X218703632Y-133274728D01*
X218481934Y-133394339D01*
X218287831Y-133554903D01*
X218128782Y-133750250D01*
X218010900Y-133972872D01*
X217938714Y-134214214D01*
X217931613Y-134254045D01*
X217986260Y-134455000D01*
X219495000Y-134455000D01*
X219495000Y-134435000D01*
X219505000Y-134435000D01*
X219505000Y-134455000D01*
X221013740Y-134455000D01*
X221068387Y-134254045D01*
X221061286Y-134214214D01*
X220989100Y-133972872D01*
X220871218Y-133750250D01*
X220712169Y-133554903D01*
X220518066Y-133394339D01*
X220296368Y-133274728D01*
X220201468Y-133245537D01*
X220332581Y-133205764D01*
X220573188Y-133077157D01*
X220784081Y-132904081D01*
X220957157Y-132693188D01*
X221085764Y-132452581D01*
X221164960Y-132191507D01*
X221191701Y-131920000D01*
X221164960Y-131648493D01*
X221085764Y-131387419D01*
X220957157Y-131146812D01*
X220784081Y-130935919D01*
X220573188Y-130762843D01*
X220362073Y-130650000D01*
X220573188Y-130537157D01*
X220784081Y-130364081D01*
X220957157Y-130153188D01*
X221085764Y-129912581D01*
X221164960Y-129651507D01*
X221191701Y-129380000D01*
X221164960Y-129108493D01*
X221085764Y-128847419D01*
X220957157Y-128606812D01*
X220784081Y-128395919D01*
X220573188Y-128222843D01*
X220362073Y-128110000D01*
X220573188Y-127997157D01*
X220784081Y-127824081D01*
X220957157Y-127613188D01*
X221085764Y-127372581D01*
X221164960Y-127111507D01*
X221191701Y-126840000D01*
X221164960Y-126568493D01*
X221085764Y-126307419D01*
X220957157Y-126066812D01*
X220784081Y-125855919D01*
X220573188Y-125682843D01*
X220362073Y-125570000D01*
X220573188Y-125457157D01*
X220784081Y-125284081D01*
X220957157Y-125073188D01*
X221085764Y-124832581D01*
X221164960Y-124571507D01*
X221191701Y-124300000D01*
X221164960Y-124028493D01*
X221085764Y-123767419D01*
X220957157Y-123526812D01*
X220784081Y-123315919D01*
X220573188Y-123142843D01*
X220362073Y-123030000D01*
X220573188Y-122917157D01*
X220784081Y-122744081D01*
X220957157Y-122533188D01*
X221085764Y-122292581D01*
X221164960Y-122031507D01*
X221191701Y-121760000D01*
X221164960Y-121488493D01*
X221085764Y-121227419D01*
X220957157Y-120986812D01*
X220784081Y-120775919D01*
X220573188Y-120602843D01*
X220362073Y-120490000D01*
X220573188Y-120377157D01*
X220784081Y-120204081D01*
X220957157Y-119993188D01*
X221085764Y-119752581D01*
X221164960Y-119491507D01*
X221191701Y-119220000D01*
X221164960Y-118948493D01*
X221085764Y-118687419D01*
X220957157Y-118446812D01*
X220784081Y-118235919D01*
X220573188Y-118062843D01*
X220332581Y-117934236D01*
X220071507Y-117855040D01*
X219868037Y-117835000D01*
X219131963Y-117835000D01*
X218928493Y-117855040D01*
X218667419Y-117934236D01*
X218426812Y-118062843D01*
X218215919Y-118235919D01*
X218042843Y-118446812D01*
X217914236Y-118687419D01*
X217835040Y-118948493D01*
X217808299Y-119220000D01*
X190245000Y-119220000D01*
X190245000Y-118882430D01*
X190275473Y-118879429D01*
X190348046Y-118857414D01*
X190414929Y-118821664D01*
X190473553Y-118773553D01*
X190521664Y-118714929D01*
X190557414Y-118648046D01*
X190579429Y-118575473D01*
X190586862Y-118500000D01*
X190586862Y-118000000D01*
X190579429Y-117924527D01*
X190557414Y-117851954D01*
X190521664Y-117785071D01*
X190473553Y-117726447D01*
X190458000Y-117713683D01*
X190458000Y-117286317D01*
X190473553Y-117273553D01*
X190521664Y-117214929D01*
X190557414Y-117148046D01*
X190579429Y-117075473D01*
X190586862Y-117000000D01*
X190586862Y-116500000D01*
X190579429Y-116424527D01*
X190557414Y-116351954D01*
X190521664Y-116285071D01*
X190473553Y-116226447D01*
X190414929Y-116178336D01*
X190348046Y-116142586D01*
X190275473Y-116120571D01*
X190245000Y-116117570D01*
X190245000Y-115853740D01*
X214515000Y-115853740D01*
X214515000Y-116146260D01*
X214572068Y-116433158D01*
X214684010Y-116703411D01*
X214846525Y-116946632D01*
X215053368Y-117153475D01*
X215296589Y-117315990D01*
X215566842Y-117427932D01*
X215853740Y-117485000D01*
X216146260Y-117485000D01*
X216433158Y-117427932D01*
X216703411Y-117315990D01*
X216946632Y-117153475D01*
X217153475Y-116946632D01*
X217315990Y-116703411D01*
X217427932Y-116433158D01*
X217485000Y-116146260D01*
X217485000Y-115853740D01*
X217427932Y-115566842D01*
X217315990Y-115296589D01*
X217153475Y-115053368D01*
X216946632Y-114846525D01*
X216703411Y-114684010D01*
X216433158Y-114572068D01*
X216146260Y-114515000D01*
X215853740Y-114515000D01*
X215566842Y-114572068D01*
X215296589Y-114684010D01*
X215053368Y-114846525D01*
X214846525Y-115053368D01*
X214684010Y-115296589D01*
X214572068Y-115566842D01*
X214515000Y-115853740D01*
X190245000Y-115853740D01*
X190245000Y-114723736D01*
X190282074Y-114686662D01*
X190357039Y-114574469D01*
X190408675Y-114449807D01*
X190435000Y-114317467D01*
X190435000Y-114182533D01*
X190408675Y-114050193D01*
X190357039Y-113925531D01*
X190282074Y-113813338D01*
X190186662Y-113717926D01*
X190074469Y-113642961D01*
X189949807Y-113591325D01*
X189817467Y-113565000D01*
X189682533Y-113565000D01*
X189550193Y-113591325D01*
X189425531Y-113642961D01*
X189313338Y-113717926D01*
X189217926Y-113813338D01*
X189142961Y-113925531D01*
X189091325Y-114050193D01*
X189065000Y-114182533D01*
X189065000Y-114317467D01*
X189091325Y-114449807D01*
X189142961Y-114574469D01*
X189217926Y-114686662D01*
X189255000Y-114723736D01*
X189255001Y-116117570D01*
X189224527Y-116120571D01*
X189151954Y-116142586D01*
X189085071Y-116178336D01*
X189026447Y-116226447D01*
X188978336Y-116285071D01*
X188942586Y-116351954D01*
X188920571Y-116424527D01*
X188913138Y-116500000D01*
X188913138Y-117000000D01*
X188920571Y-117075473D01*
X188942586Y-117148046D01*
X188978336Y-117214929D01*
X189018000Y-117263260D01*
X189018000Y-117736740D01*
X188978336Y-117785071D01*
X188942586Y-117851954D01*
X188920571Y-117924527D01*
X188913138Y-118000000D01*
X188913138Y-118500000D01*
X188920571Y-118575473D01*
X188942586Y-118648046D01*
X188978336Y-118714929D01*
X189026447Y-118773553D01*
X189085071Y-118821664D01*
X189151954Y-118857414D01*
X189224527Y-118879429D01*
X189255001Y-118882430D01*
X189255000Y-122225693D01*
X189252606Y-122250000D01*
X189255000Y-122274307D01*
X189255000Y-122274317D01*
X189262162Y-122347036D01*
X189290467Y-122440344D01*
X189336431Y-122526338D01*
X189398289Y-122601711D01*
X189417178Y-122617213D01*
X190376175Y-123576211D01*
X190300193Y-123591325D01*
X190175531Y-123642961D01*
X190063338Y-123717926D01*
X190026264Y-123755000D01*
X188705036Y-123755000D01*
X187745000Y-122794965D01*
X187745000Y-118882430D01*
X187775473Y-118879429D01*
X187848046Y-118857414D01*
X187914929Y-118821664D01*
X187973553Y-118773553D01*
X188021664Y-118714929D01*
X188057414Y-118648046D01*
X188079429Y-118575473D01*
X188086862Y-118500000D01*
X188086862Y-118000000D01*
X188079429Y-117924527D01*
X188057414Y-117851954D01*
X188045000Y-117828729D01*
X188045000Y-117171271D01*
X188057414Y-117148046D01*
X188079429Y-117075473D01*
X188086862Y-117000000D01*
X188086862Y-116500000D01*
X188079429Y-116424527D01*
X188057414Y-116351954D01*
X188021664Y-116285071D01*
X187973553Y-116226447D01*
X187914929Y-116178336D01*
X187848046Y-116142586D01*
X187775473Y-116120571D01*
X187745000Y-116117570D01*
X187745000Y-114723736D01*
X187782074Y-114686662D01*
X187857039Y-114574469D01*
X187908675Y-114449807D01*
X187935000Y-114317467D01*
X187935000Y-114182533D01*
X187908675Y-114050193D01*
X187857039Y-113925531D01*
X187782074Y-113813338D01*
X187686662Y-113717926D01*
X187574469Y-113642961D01*
X187449807Y-113591325D01*
X187317467Y-113565000D01*
X187182533Y-113565000D01*
X187050193Y-113591325D01*
X186925531Y-113642961D01*
X186813338Y-113717926D01*
X186717926Y-113813338D01*
X186642961Y-113925531D01*
X186591325Y-114050193D01*
X186565000Y-114182533D01*
X186565000Y-114317467D01*
X186591325Y-114449807D01*
X186642961Y-114574469D01*
X186717926Y-114686662D01*
X186755000Y-114723736D01*
X186755001Y-116117570D01*
X186724527Y-116120571D01*
X186651954Y-116142586D01*
X186585071Y-116178336D01*
X186526447Y-116226447D01*
X186478336Y-116285071D01*
X186442586Y-116351954D01*
X186420571Y-116424527D01*
X186413138Y-116500000D01*
X186413138Y-117000000D01*
X186420571Y-117075473D01*
X186442586Y-117148046D01*
X186478336Y-117214929D01*
X186526447Y-117273553D01*
X186585071Y-117321664D01*
X186605000Y-117332316D01*
X186605000Y-117667684D01*
X186585071Y-117678336D01*
X186526447Y-117726447D01*
X186478336Y-117785071D01*
X186442586Y-117851954D01*
X186420571Y-117924527D01*
X186413138Y-118000000D01*
X186413138Y-118500000D01*
X186420571Y-118575473D01*
X186442586Y-118648046D01*
X186478336Y-118714929D01*
X186526447Y-118773553D01*
X186585071Y-118821664D01*
X186651954Y-118857414D01*
X186724527Y-118879429D01*
X186755001Y-118882430D01*
X186755000Y-122975693D01*
X186752606Y-123000000D01*
X186755000Y-123024307D01*
X186755000Y-123024317D01*
X186762162Y-123097036D01*
X186790467Y-123190344D01*
X186836431Y-123276338D01*
X186898289Y-123351711D01*
X186917178Y-123367213D01*
X188132791Y-124582827D01*
X188148289Y-124601711D01*
X188167173Y-124617209D01*
X188167177Y-124617213D01*
X188223661Y-124663569D01*
X188291459Y-124699807D01*
X188309655Y-124709533D01*
X188402963Y-124737838D01*
X188475682Y-124745000D01*
X188475693Y-124745000D01*
X188500000Y-124747394D01*
X188524307Y-124745000D01*
X190026264Y-124745000D01*
X190063338Y-124782074D01*
X190175531Y-124857039D01*
X190300193Y-124908675D01*
X190432533Y-124935000D01*
X190565000Y-124935000D01*
X190565000Y-125067467D01*
X190591325Y-125199807D01*
X190642961Y-125324469D01*
X190680066Y-125380000D01*
X184080036Y-125380000D01*
X182745000Y-124044965D01*
X182745000Y-118882430D01*
X182775473Y-118879429D01*
X182848046Y-118857414D01*
X182914929Y-118821664D01*
X182973553Y-118773553D01*
X183021664Y-118714929D01*
X183057414Y-118648046D01*
X183079429Y-118575473D01*
X183086862Y-118500000D01*
X183086862Y-118000000D01*
X183079429Y-117924527D01*
X183057414Y-117851954D01*
X183021664Y-117785071D01*
X182973553Y-117726447D01*
X182965000Y-117719428D01*
X182965000Y-117280572D01*
X182973553Y-117273553D01*
X183021664Y-117214929D01*
X183057414Y-117148046D01*
X183079429Y-117075473D01*
X183086862Y-117000000D01*
X183086862Y-116500000D01*
X183079429Y-116424527D01*
X183057414Y-116351954D01*
X183021664Y-116285071D01*
X182973553Y-116226447D01*
X182914929Y-116178336D01*
X182848046Y-116142586D01*
X182775473Y-116120571D01*
X182745000Y-116117570D01*
X182745000Y-114723736D01*
X182782074Y-114686662D01*
X182857039Y-114574469D01*
X182908675Y-114449807D01*
X182935000Y-114317467D01*
X182935000Y-114182533D01*
X182908675Y-114050193D01*
X182857039Y-113925531D01*
X182782074Y-113813338D01*
X182686662Y-113717926D01*
X182574469Y-113642961D01*
X182449807Y-113591325D01*
X182317467Y-113565000D01*
X182182533Y-113565000D01*
X182050193Y-113591325D01*
X181925531Y-113642961D01*
X181813338Y-113717926D01*
X181717926Y-113813338D01*
X181642961Y-113925531D01*
X181591325Y-114050193D01*
X181565000Y-114182533D01*
X181565000Y-114317467D01*
X181591325Y-114449807D01*
X181642961Y-114574469D01*
X181717926Y-114686662D01*
X181755000Y-114723736D01*
X181755001Y-116117570D01*
X181724527Y-116120571D01*
X181651954Y-116142586D01*
X181585071Y-116178336D01*
X181526447Y-116226447D01*
X181478336Y-116285071D01*
X181442586Y-116351954D01*
X181420571Y-116424527D01*
X181413138Y-116500000D01*
X181413138Y-117000000D01*
X181420571Y-117075473D01*
X181442586Y-117148046D01*
X181478336Y-117214929D01*
X181525000Y-117271790D01*
X181525000Y-117728210D01*
X181478336Y-117785071D01*
X181442586Y-117851954D01*
X181420571Y-117924527D01*
X181413138Y-118000000D01*
X181413138Y-118500000D01*
X181420571Y-118575473D01*
X181442586Y-118648046D01*
X181478336Y-118714929D01*
X181526447Y-118773553D01*
X181585071Y-118821664D01*
X181651954Y-118857414D01*
X181724527Y-118879429D01*
X181755001Y-118882430D01*
X181755000Y-124225693D01*
X181752606Y-124250000D01*
X181755000Y-124274307D01*
X181755000Y-124274317D01*
X181762162Y-124347036D01*
X181790467Y-124440344D01*
X181836431Y-124526338D01*
X181898289Y-124601711D01*
X181917178Y-124617213D01*
X183329964Y-126030000D01*
X182480036Y-126030000D01*
X180245000Y-123794965D01*
X180245000Y-118882430D01*
X180275473Y-118879429D01*
X180348046Y-118857414D01*
X180414929Y-118821664D01*
X180473553Y-118773553D01*
X180521664Y-118714929D01*
X180557414Y-118648046D01*
X180579429Y-118575473D01*
X180586862Y-118500000D01*
X180586862Y-118000000D01*
X180579429Y-117924527D01*
X180557414Y-117851954D01*
X180521664Y-117785071D01*
X180473553Y-117726447D01*
X180425000Y-117686601D01*
X180425000Y-117313399D01*
X180473553Y-117273553D01*
X180521664Y-117214929D01*
X180557414Y-117148046D01*
X180579429Y-117075473D01*
X180586862Y-117000000D01*
X180586862Y-116500000D01*
X180579429Y-116424527D01*
X180557414Y-116351954D01*
X180521664Y-116285071D01*
X180473553Y-116226447D01*
X180414929Y-116178336D01*
X180348046Y-116142586D01*
X180275473Y-116120571D01*
X180245000Y-116117570D01*
X180245000Y-114723736D01*
X180282074Y-114686662D01*
X180357039Y-114574469D01*
X180408675Y-114449807D01*
X180435000Y-114317467D01*
X180435000Y-114182533D01*
X180408675Y-114050193D01*
X180357039Y-113925531D01*
X180282074Y-113813338D01*
X180186662Y-113717926D01*
X180074469Y-113642961D01*
X179949807Y-113591325D01*
X179817467Y-113565000D01*
X179682533Y-113565000D01*
X179550193Y-113591325D01*
X179425531Y-113642961D01*
X179313338Y-113717926D01*
X179217926Y-113813338D01*
X179142961Y-113925531D01*
X179091325Y-114050193D01*
X179065000Y-114182533D01*
X179065000Y-114317467D01*
X179091325Y-114449807D01*
X179142961Y-114574469D01*
X179217926Y-114686662D01*
X179255000Y-114723736D01*
X179255001Y-116117570D01*
X179224527Y-116120571D01*
X179151954Y-116142586D01*
X179085071Y-116178336D01*
X179026447Y-116226447D01*
X178978336Y-116285071D01*
X178942586Y-116351954D01*
X178920571Y-116424527D01*
X178913138Y-116500000D01*
X173400245Y-116500000D01*
X173427932Y-116433158D01*
X173485000Y-116146260D01*
X173485000Y-115853740D01*
X173427932Y-115566842D01*
X173315990Y-115296589D01*
X173153475Y-115053368D01*
X172946632Y-114846525D01*
X172703411Y-114684010D01*
X172433158Y-114572068D01*
X172146260Y-114515000D01*
X171853740Y-114515000D01*
X171566842Y-114572068D01*
X171296589Y-114684010D01*
X171053368Y-114846525D01*
X170846525Y-115053368D01*
X170684010Y-115296589D01*
X170572068Y-115566842D01*
X170515000Y-115853740D01*
X170085000Y-115853740D01*
X170085000Y-114511192D01*
X170143197Y-114293998D01*
X170293998Y-114143197D01*
X170511192Y-114085000D01*
X174500000Y-114085000D01*
X174522000Y-114082104D01*
X174772000Y-114015117D01*
X174787594Y-114009247D01*
X174801745Y-114000448D01*
X174810104Y-113993117D01*
X174993117Y-113810104D01*
X175003688Y-113797223D01*
X175011543Y-113782528D01*
X175015117Y-113772000D01*
X175082104Y-113522000D01*
X175085000Y-113500000D01*
X175085000Y-109511192D01*
X175143197Y-109293998D01*
X175293998Y-109143197D01*
X175511192Y-109085000D01*
X212488808Y-109085000D01*
X212706002Y-109143197D01*
X212706002Y-109143197D01*
G37*
X212706002Y-109143197D02*
X212856803Y-109293998D01*
X212915000Y-109511192D01*
X212915000Y-113500000D01*
X212917896Y-113522000D01*
X212984883Y-113772000D01*
X212990753Y-113787594D01*
X212999552Y-113801745D01*
X213006883Y-113810104D01*
X213189896Y-113993117D01*
X213202777Y-114003688D01*
X213217472Y-114011543D01*
X213228000Y-114015117D01*
X213478000Y-114082104D01*
X213500000Y-114085000D01*
X225536994Y-114085000D01*
X225754629Y-114143454D01*
X225905492Y-114294857D01*
X225963169Y-114512701D01*
X225866820Y-141490315D01*
X225808107Y-141706857D01*
X225657366Y-141857061D01*
X225440617Y-141915000D01*
X213500000Y-141915000D01*
X213478000Y-141917896D01*
X213228000Y-141984883D01*
X213212406Y-141990753D01*
X213198255Y-141999552D01*
X213189896Y-142006883D01*
X213006883Y-142189896D01*
X212996312Y-142202777D01*
X212988457Y-142217472D01*
X212984883Y-142228000D01*
X212917896Y-142478000D01*
X212915000Y-142500000D01*
X212915000Y-146488808D01*
X212856803Y-146706002D01*
X212706002Y-146856803D01*
X212488808Y-146915000D01*
X175511192Y-146915000D01*
X175293998Y-146856803D01*
X175143197Y-146706002D01*
X175085000Y-146488808D01*
X175085000Y-142500000D01*
X175082104Y-142478000D01*
X175015117Y-142228000D01*
X175009247Y-142212406D01*
X175000448Y-142198255D01*
X174993117Y-142189896D01*
X174810104Y-142006883D01*
X174797223Y-141996312D01*
X174782528Y-141988457D01*
X174772000Y-141984883D01*
X174522000Y-141917896D01*
X174500000Y-141915000D01*
X170511192Y-141915000D01*
X170293998Y-141856803D01*
X170143197Y-141706002D01*
X170085000Y-141488808D01*
X170085000Y-139853740D01*
X170515000Y-139853740D01*
X170515000Y-140146260D01*
X170572068Y-140433158D01*
X170684010Y-140703411D01*
X170846525Y-140946632D01*
X171053368Y-141153475D01*
X171296589Y-141315990D01*
X171566842Y-141427932D01*
X171853740Y-141485000D01*
X172146260Y-141485000D01*
X172433158Y-141427932D01*
X172703411Y-141315990D01*
X172946632Y-141153475D01*
X173153475Y-140946632D01*
X173315990Y-140703411D01*
X173427932Y-140433158D01*
X173485000Y-140146260D01*
X173485000Y-139853740D01*
X214515000Y-139853740D01*
X214515000Y-140146260D01*
X214572068Y-140433158D01*
X214684010Y-140703411D01*
X214846525Y-140946632D01*
X215053368Y-141153475D01*
X215296589Y-141315990D01*
X215566842Y-141427932D01*
X215853740Y-141485000D01*
X216146260Y-141485000D01*
X216433158Y-141427932D01*
X216703411Y-141315990D01*
X216946632Y-141153475D01*
X217153475Y-140946632D01*
X217315990Y-140703411D01*
X217427932Y-140433158D01*
X217485000Y-140146260D01*
X217485000Y-139853740D01*
X217427932Y-139566842D01*
X217315990Y-139296589D01*
X217153475Y-139053368D01*
X216946632Y-138846525D01*
X216703411Y-138684010D01*
X216433158Y-138572068D01*
X216146260Y-138515000D01*
X215853740Y-138515000D01*
X215566842Y-138572068D01*
X215296589Y-138684010D01*
X215053368Y-138846525D01*
X214846525Y-139053368D01*
X214684010Y-139296589D01*
X214572068Y-139566842D01*
X214515000Y-139853740D01*
X173485000Y-139853740D01*
X173427932Y-139566842D01*
X173315990Y-139296589D01*
X173153475Y-139053368D01*
X172946632Y-138846525D01*
X172703411Y-138684010D01*
X172433158Y-138572068D01*
X172146260Y-138515000D01*
X171853740Y-138515000D01*
X171566842Y-138572068D01*
X171296589Y-138684010D01*
X171053368Y-138846525D01*
X170846525Y-139053368D01*
X170684010Y-139296589D01*
X170572068Y-139566842D01*
X170515000Y-139853740D01*
X170085000Y-139853740D01*
X170085000Y-115853740D01*
X170515000Y-115853740D01*
X170515000Y-116146260D01*
X170572068Y-116433158D01*
X170684010Y-116703411D01*
X170846525Y-116946632D01*
X171053368Y-117153475D01*
X171296589Y-117315990D01*
X171566842Y-117427932D01*
X171853740Y-117485000D01*
X172146260Y-117485000D01*
X172433158Y-117427932D01*
X172703411Y-117315990D01*
X172946632Y-117153475D01*
X173153475Y-116946632D01*
X173315990Y-116703411D01*
X173400245Y-116500000D01*
X178913138Y-116500000D01*
X178913138Y-117000000D01*
X178920571Y-117075473D01*
X178942586Y-117148046D01*
X178978336Y-117214929D01*
X178985000Y-117223049D01*
X178985000Y-117776951D01*
X178978336Y-117785071D01*
X178942586Y-117851954D01*
X178920571Y-117924527D01*
X178913138Y-118000000D01*
X178913138Y-118500000D01*
X178920571Y-118575473D01*
X178942586Y-118648046D01*
X178978336Y-118714929D01*
X179026447Y-118773553D01*
X179085071Y-118821664D01*
X179151954Y-118857414D01*
X179224527Y-118879429D01*
X179255001Y-118882430D01*
X179255000Y-123975693D01*
X179252606Y-124000000D01*
X179255000Y-124024307D01*
X179255000Y-124024317D01*
X179262162Y-124097036D01*
X179290467Y-124190344D01*
X179336431Y-124276338D01*
X179398289Y-124351711D01*
X179417178Y-124367213D01*
X181907791Y-126857827D01*
X181923289Y-126876711D01*
X181942173Y-126892209D01*
X181942177Y-126892213D01*
X181988037Y-126929849D01*
X181998662Y-126938569D01*
X182084655Y-126984533D01*
X182177963Y-127012838D01*
X182250682Y-127020000D01*
X182250692Y-127020000D01*
X182274999Y-127022394D01*
X182299306Y-127020000D01*
X184029964Y-127020000D01*
X181917178Y-129132787D01*
X181898289Y-129148289D01*
X181836431Y-129223662D01*
X181790467Y-129309656D01*
X181762162Y-129402964D01*
X181755000Y-129475683D01*
X181755000Y-129475693D01*
X181752606Y-129500000D01*
X181755000Y-129524308D01*
X181755000Y-129867570D01*
X181724527Y-129870571D01*
X181651954Y-129892586D01*
X181585071Y-129928336D01*
X181526447Y-129976447D01*
X181478336Y-130035071D01*
X181442586Y-130101954D01*
X181420571Y-130174527D01*
X181413138Y-130250000D01*
X181413138Y-130750000D01*
X181420571Y-130825473D01*
X181442586Y-130898046D01*
X181478336Y-130964929D01*
X181525000Y-131021790D01*
X181525000Y-131478210D01*
X181478336Y-131535071D01*
X181442586Y-131601954D01*
X181420571Y-131674527D01*
X181413138Y-131750000D01*
X181413138Y-132250000D01*
X181420571Y-132325473D01*
X181442586Y-132398046D01*
X181478336Y-132464929D01*
X181526447Y-132523553D01*
X181585071Y-132571664D01*
X181651954Y-132607414D01*
X181724527Y-132629429D01*
X181755001Y-132632430D01*
X181755000Y-134276264D01*
X181717926Y-134313338D01*
X181642961Y-134425531D01*
X181591325Y-134550193D01*
X181565000Y-134682533D01*
X181565000Y-134817467D01*
X181591325Y-134949807D01*
X181642961Y-135074469D01*
X181717926Y-135186662D01*
X181813338Y-135282074D01*
X181925531Y-135357039D01*
X182050193Y-135408675D01*
X182182533Y-135435000D01*
X182317467Y-135435000D01*
X182449807Y-135408675D01*
X182574469Y-135357039D01*
X182686662Y-135282074D01*
X182782074Y-135186662D01*
X182857039Y-135074469D01*
X182908675Y-134949807D01*
X182935000Y-134817467D01*
X182935000Y-134682533D01*
X182908675Y-134550193D01*
X182857039Y-134425531D01*
X182782074Y-134313338D01*
X182745000Y-134276264D01*
X182745000Y-132632430D01*
X182775473Y-132629429D01*
X182848046Y-132607414D01*
X182914929Y-132571664D01*
X182973553Y-132523553D01*
X183021664Y-132464929D01*
X183057414Y-132398046D01*
X183079429Y-132325473D01*
X183086862Y-132250000D01*
X183086862Y-131750000D01*
X183079429Y-131674527D01*
X183057414Y-131601954D01*
X183021664Y-131535071D01*
X182973553Y-131476447D01*
X182965000Y-131469428D01*
X182965000Y-131030572D01*
X182973553Y-131023553D01*
X183021664Y-130964929D01*
X183057414Y-130898046D01*
X183079429Y-130825473D01*
X183086862Y-130750000D01*
X183086862Y-130250000D01*
X183079429Y-130174527D01*
X183057414Y-130101954D01*
X183021664Y-130035071D01*
X182973553Y-129976447D01*
X182914929Y-129928336D01*
X182848046Y-129892586D01*
X182775473Y-129870571D01*
X182745000Y-129867570D01*
X182745000Y-129705035D01*
X184780036Y-127670000D01*
X187879964Y-127670000D01*
X186917178Y-128632787D01*
X186898289Y-128648289D01*
X186836431Y-128723662D01*
X186790467Y-128809656D01*
X186762162Y-128902964D01*
X186755000Y-128975683D01*
X186755000Y-128975693D01*
X186752606Y-129000000D01*
X186755000Y-129024308D01*
X186755001Y-129867570D01*
X186724527Y-129870571D01*
X186651954Y-129892586D01*
X186585071Y-129928336D01*
X186526447Y-129976447D01*
X186478336Y-130035071D01*
X186442586Y-130101954D01*
X186420571Y-130174527D01*
X186413138Y-130250000D01*
X186413138Y-130750000D01*
X186420571Y-130825473D01*
X186442586Y-130898046D01*
X186478000Y-130964300D01*
X186478000Y-131535700D01*
X186442586Y-131601954D01*
X186420571Y-131674527D01*
X186413138Y-131750000D01*
X186413138Y-132250000D01*
X186420571Y-132325473D01*
X186442586Y-132398046D01*
X186478336Y-132464929D01*
X186526447Y-132523553D01*
X186585071Y-132571664D01*
X186651954Y-132607414D01*
X186724527Y-132629429D01*
X186755001Y-132632430D01*
X186755000Y-134276264D01*
X186717926Y-134313338D01*
X186642961Y-134425531D01*
X186591325Y-134550193D01*
X186565000Y-134682533D01*
X186565000Y-134817467D01*
X186591325Y-134949807D01*
X186642961Y-135074469D01*
X186717926Y-135186662D01*
X186813338Y-135282074D01*
X186925531Y-135357039D01*
X187050193Y-135408675D01*
X187182533Y-135435000D01*
X187317467Y-135435000D01*
X187449807Y-135408675D01*
X187574469Y-135357039D01*
X187686662Y-135282074D01*
X187782074Y-135186662D01*
X187857039Y-135074469D01*
X187908675Y-134949807D01*
X187935000Y-134817467D01*
X187935000Y-134682533D01*
X187908675Y-134550193D01*
X187857039Y-134425531D01*
X187782074Y-134313338D01*
X187745000Y-134276264D01*
X187745000Y-132632430D01*
X187775473Y-132629429D01*
X187848046Y-132607414D01*
X187914929Y-132571664D01*
X187973553Y-132523553D01*
X188021664Y-132464929D01*
X188057414Y-132398046D01*
X188079429Y-132325473D01*
X188086862Y-132250000D01*
X188086862Y-131750000D01*
X188079429Y-131674527D01*
X188057414Y-131601954D01*
X188021664Y-131535071D01*
X187973553Y-131476447D01*
X187918000Y-131430856D01*
X187918000Y-131069144D01*
X187973553Y-131023553D01*
X188021664Y-130964929D01*
X188057414Y-130898046D01*
X188079429Y-130825473D01*
X188086862Y-130750000D01*
X188086862Y-130250000D01*
X188079429Y-130174527D01*
X188057414Y-130101954D01*
X188021664Y-130035071D01*
X187973553Y-129976447D01*
X187914929Y-129928336D01*
X187848046Y-129892586D01*
X187775473Y-129870571D01*
X187745000Y-129867570D01*
X187745000Y-129205035D01*
X188630036Y-128320000D01*
X189979964Y-128320000D01*
X189667178Y-128632787D01*
X189648289Y-128648289D01*
X189586431Y-128723662D01*
X189540467Y-128809656D01*
X189512162Y-128902964D01*
X189505000Y-128975683D01*
X189505000Y-128975693D01*
X189502606Y-129000000D01*
X189505000Y-129024308D01*
X189505001Y-129867570D01*
X189474527Y-129870571D01*
X189401954Y-129892586D01*
X189335071Y-129928336D01*
X189276447Y-129976447D01*
X189228336Y-130035071D01*
X189192586Y-130101954D01*
X189170571Y-130174527D01*
X189163138Y-130250000D01*
X189163138Y-130750000D01*
X189170571Y-130825473D01*
X189192586Y-130898046D01*
X189228336Y-130964929D01*
X189272000Y-131018134D01*
X189272000Y-131481866D01*
X189228336Y-131535071D01*
X189192586Y-131601954D01*
X189170571Y-131674527D01*
X189163138Y-131750000D01*
X189163138Y-132250000D01*
X189170571Y-132325473D01*
X189192586Y-132398046D01*
X189228336Y-132464929D01*
X189276447Y-132523553D01*
X189335071Y-132571664D01*
X189401954Y-132607414D01*
X189474527Y-132629429D01*
X189505001Y-132632430D01*
X189505000Y-134276264D01*
X189467926Y-134313338D01*
X189392961Y-134425531D01*
X189341325Y-134550193D01*
X189315000Y-134682533D01*
X189315000Y-134817467D01*
X189341325Y-134949807D01*
X189392961Y-135074469D01*
X189467926Y-135186662D01*
X189563338Y-135282074D01*
X189675531Y-135357039D01*
X189800193Y-135408675D01*
X189932533Y-135435000D01*
X190067467Y-135435000D01*
X190199807Y-135408675D01*
X190324469Y-135357039D01*
X190436662Y-135282074D01*
X190532074Y-135186662D01*
X190607039Y-135074469D01*
X190658675Y-134949807D01*
X190685000Y-134817467D01*
X190685000Y-134682533D01*
X190658675Y-134550193D01*
X190607039Y-134425531D01*
X190532074Y-134313338D01*
X190495000Y-134276264D01*
X190495000Y-132632430D01*
X190525473Y-132629429D01*
X190598046Y-132607414D01*
X190664929Y-132571664D01*
X190723553Y-132523553D01*
X190771664Y-132464929D01*
X190807414Y-132398046D01*
X190829429Y-132325473D01*
X190836862Y-132250000D01*
X190836862Y-131750000D01*
X190829429Y-131674527D01*
X190807414Y-131601954D01*
X190771664Y-131535071D01*
X190723553Y-131476447D01*
X190712000Y-131466966D01*
X190712000Y-131033034D01*
X190723553Y-131023553D01*
X190771664Y-130964929D01*
X190807414Y-130898046D01*
X190829429Y-130825473D01*
X190836862Y-130750000D01*
X190836862Y-130250000D01*
X190829429Y-130174527D01*
X190807414Y-130101954D01*
X190771664Y-130035071D01*
X190723553Y-129976447D01*
X190664929Y-129928336D01*
X190598046Y-129892586D01*
X190525473Y-129870571D01*
X190495000Y-129867570D01*
X190495000Y-129205035D01*
X190730036Y-128970000D01*
X190811264Y-128970000D01*
X190717926Y-129063338D01*
X190642961Y-129175531D01*
X190591325Y-129300193D01*
X190565000Y-129432533D01*
X190565000Y-129567467D01*
X190591325Y-129699807D01*
X190642961Y-129824469D01*
X190717926Y-129936662D01*
X190813338Y-130032074D01*
X190925531Y-130107039D01*
X191050193Y-130158675D01*
X191182533Y-130185000D01*
X191234965Y-130185000D01*
X191632791Y-130582827D01*
X191648289Y-130601711D01*
X191667173Y-130617209D01*
X191667177Y-130617213D01*
X191713037Y-130654849D01*
X191723662Y-130663569D01*
X191809655Y-130709533D01*
X191902963Y-130737838D01*
X191975682Y-130745000D01*
X191975692Y-130745000D01*
X191999999Y-130747394D01*
X192024306Y-130745000D01*
X192364186Y-130745000D01*
X192341325Y-130800193D01*
X192315000Y-130932533D01*
X192315000Y-131067467D01*
X192341325Y-131199807D01*
X192392961Y-131324469D01*
X192467926Y-131436662D01*
X192563338Y-131532074D01*
X192675531Y-131607039D01*
X192800193Y-131658675D01*
X192932533Y-131685000D01*
X193067467Y-131685000D01*
X193199807Y-131658675D01*
X193324469Y-131607039D01*
X193388680Y-131564134D01*
X193392961Y-131574469D01*
X193467926Y-131686662D01*
X193563338Y-131782074D01*
X193675531Y-131857039D01*
X193800193Y-131908675D01*
X193932533Y-131935000D01*
X194067467Y-131935000D01*
X194199807Y-131908675D01*
X194324469Y-131857039D01*
X194436662Y-131782074D01*
X194532074Y-131686662D01*
X194607039Y-131574469D01*
X194608890Y-131570000D01*
X195213138Y-131570000D01*
X195213138Y-131925000D01*
X195220571Y-132000473D01*
X195242586Y-132073046D01*
X195278336Y-132139929D01*
X195326447Y-132198553D01*
X195385071Y-132246664D01*
X195451954Y-132282414D01*
X195524527Y-132304429D01*
X195600000Y-132311862D01*
X196067930Y-132311862D01*
X191336343Y-137043449D01*
X191325772Y-137056330D01*
X191317917Y-137071025D01*
X191171470Y-137424579D01*
X191166633Y-137440524D01*
X191165000Y-137457107D01*
X191165000Y-138500000D01*
X191167896Y-138522000D01*
X191234883Y-138772000D01*
X191240753Y-138787594D01*
X191249552Y-138801745D01*
X191256883Y-138810104D01*
X191439896Y-138993117D01*
X191452777Y-139003688D01*
X191467472Y-139011543D01*
X191478000Y-139015117D01*
X191728000Y-139082104D01*
X191750000Y-139085000D01*
X206500000Y-139085000D01*
X206522000Y-139082104D01*
X206772000Y-139015117D01*
X206787594Y-139009247D01*
X206801745Y-139000448D01*
X206810104Y-138993117D01*
X206993117Y-138810104D01*
X207003688Y-138797223D01*
X207011543Y-138782528D01*
X207015117Y-138772000D01*
X207082104Y-138522000D01*
X207085000Y-138500000D01*
X207085000Y-137707107D01*
X207083367Y-137690524D01*
X207078530Y-137674579D01*
X206932083Y-137321025D01*
X206924228Y-137306330D01*
X206913657Y-137293449D01*
X201801979Y-132181771D01*
X201845000Y-132138750D01*
X201845000Y-131730000D01*
X201855000Y-131730000D01*
X201855000Y-132138750D01*
X201926250Y-132210000D01*
X202400000Y-132211379D01*
X202455870Y-132205876D01*
X202509592Y-132189580D01*
X202559104Y-132163115D01*
X202602501Y-132127501D01*
X202638115Y-132084104D01*
X202664580Y-132034592D01*
X202680876Y-131980870D01*
X202686379Y-131925000D01*
X202685000Y-131801250D01*
X202613750Y-131730000D01*
X201855000Y-131730000D01*
X201845000Y-131730000D01*
X201825000Y-131730000D01*
X201825000Y-131720000D01*
X201845000Y-131720000D01*
X201845000Y-131700000D01*
X201855000Y-131700000D01*
X201855000Y-131720000D01*
X202613750Y-131720000D01*
X202685000Y-131648750D01*
X202685878Y-131570000D01*
X203369965Y-131570000D01*
X209815000Y-138015036D01*
X209815000Y-138067467D01*
X209841325Y-138199807D01*
X209892961Y-138324469D01*
X209967926Y-138436662D01*
X210063338Y-138532074D01*
X210175531Y-138607039D01*
X210300193Y-138658675D01*
X210432533Y-138685000D01*
X210567467Y-138685000D01*
X210699807Y-138658675D01*
X210824469Y-138607039D01*
X210936662Y-138532074D01*
X211032074Y-138436662D01*
X211107039Y-138324469D01*
X211158675Y-138199807D01*
X211185000Y-138067467D01*
X211185000Y-137932533D01*
X211180998Y-137912416D01*
X211199807Y-137908675D01*
X211324469Y-137857039D01*
X211436662Y-137782074D01*
X211532074Y-137686662D01*
X211607039Y-137574469D01*
X211658675Y-137449807D01*
X211685000Y-137317467D01*
X211685000Y-137182533D01*
X211658675Y-137050193D01*
X211607039Y-136925531D01*
X211532074Y-136813338D01*
X211436662Y-136717926D01*
X211324469Y-136642961D01*
X211199807Y-136591325D01*
X211067467Y-136565000D01*
X210932533Y-136565000D01*
X210800193Y-136591325D01*
X210793948Y-136593912D01*
X210200036Y-136000000D01*
X217813138Y-136000000D01*
X217813138Y-138000000D01*
X217820571Y-138075473D01*
X217842586Y-138148046D01*
X217878336Y-138214929D01*
X217926447Y-138273553D01*
X217985071Y-138321664D01*
X218051954Y-138357414D01*
X218124527Y-138379429D01*
X218200000Y-138386862D01*
X220800000Y-138386862D01*
X220875473Y-138379429D01*
X220948046Y-138357414D01*
X221014929Y-138321664D01*
X221073553Y-138273553D01*
X221121664Y-138214929D01*
X221157414Y-138148046D01*
X221179429Y-138075473D01*
X221186862Y-138000000D01*
X221186862Y-136000000D01*
X221179429Y-135924527D01*
X221157414Y-135851954D01*
X221121664Y-135785071D01*
X221073553Y-135726447D01*
X221014929Y-135678336D01*
X220948046Y-135642586D01*
X220875473Y-135620571D01*
X220800000Y-135613138D01*
X220355928Y-135613138D01*
X220518066Y-135525661D01*
X220712169Y-135365097D01*
X220871218Y-135169750D01*
X220989100Y-134947128D01*
X221061286Y-134705786D01*
X221068387Y-134665955D01*
X221013740Y-134465000D01*
X219505000Y-134465000D01*
X219505000Y-134485000D01*
X219495000Y-134485000D01*
X219495000Y-134465000D01*
X217986260Y-134465000D01*
X217931613Y-134665955D01*
X217938714Y-134705786D01*
X218010900Y-134947128D01*
X218128782Y-135169750D01*
X218287831Y-135365097D01*
X218481934Y-135525661D01*
X218644072Y-135613138D01*
X218200000Y-135613138D01*
X218124527Y-135620571D01*
X218051954Y-135642586D01*
X217985071Y-135678336D01*
X217926447Y-135726447D01*
X217878336Y-135785071D01*
X217842586Y-135851954D01*
X217820571Y-135924527D01*
X217813138Y-136000000D01*
X210200036Y-136000000D01*
X208623825Y-134423789D01*
X208699807Y-134408675D01*
X208824469Y-134357039D01*
X208936662Y-134282074D01*
X209032074Y-134186662D01*
X209107039Y-134074469D01*
X209158675Y-133949807D01*
X209185000Y-133817467D01*
X209185000Y-133682533D01*
X209180998Y-133662416D01*
X209199807Y-133658675D01*
X209324469Y-133607039D01*
X209436662Y-133532074D01*
X209532074Y-133436662D01*
X209607039Y-133324469D01*
X209658675Y-133199807D01*
X209685000Y-133067467D01*
X209685000Y-132932533D01*
X209658675Y-132800193D01*
X209607039Y-132675531D01*
X209532074Y-132563338D01*
X209436662Y-132467926D01*
X209324469Y-132392961D01*
X209199807Y-132341325D01*
X209180998Y-132337584D01*
X209185000Y-132317467D01*
X209185000Y-132182533D01*
X209158675Y-132050193D01*
X209107039Y-131925531D01*
X209089980Y-131900000D01*
X209338621Y-131900000D01*
X209344124Y-131955870D01*
X209360420Y-132009592D01*
X209386885Y-132059104D01*
X209422499Y-132102501D01*
X209465896Y-132138115D01*
X209515408Y-132164580D01*
X209569130Y-132180876D01*
X209625000Y-132186379D01*
X209923750Y-132185000D01*
X209995000Y-132113750D01*
X209995000Y-131505000D01*
X210005000Y-131505000D01*
X210005000Y-132113750D01*
X210076250Y-132185000D01*
X210375000Y-132186379D01*
X210430870Y-132180876D01*
X210484592Y-132164580D01*
X210534104Y-132138115D01*
X210577501Y-132102501D01*
X210613115Y-132059104D01*
X210639580Y-132009592D01*
X210655876Y-131955870D01*
X210661379Y-131900000D01*
X210660000Y-131576250D01*
X210588750Y-131505000D01*
X210005000Y-131505000D01*
X209995000Y-131505000D01*
X209411250Y-131505000D01*
X209340000Y-131576250D01*
X209338621Y-131900000D01*
X209089980Y-131900000D01*
X209032074Y-131813338D01*
X208936662Y-131717926D01*
X208824469Y-131642961D01*
X208699807Y-131591325D01*
X208567467Y-131565000D01*
X208432533Y-131565000D01*
X208300193Y-131591325D01*
X208175531Y-131642961D01*
X208126055Y-131676020D01*
X207550035Y-131100000D01*
X209338621Y-131100000D01*
X209340000Y-131423750D01*
X209411250Y-131495000D01*
X209995000Y-131495000D01*
X209995000Y-130886250D01*
X210005000Y-130886250D01*
X210005000Y-131495000D01*
X210588750Y-131495000D01*
X210660000Y-131423750D01*
X210661379Y-131100000D01*
X210655876Y-131044130D01*
X210639580Y-130990408D01*
X210613115Y-130940896D01*
X210577501Y-130897499D01*
X210534104Y-130861885D01*
X210484592Y-130835420D01*
X210430870Y-130819124D01*
X210375000Y-130813621D01*
X210076250Y-130815000D01*
X210005000Y-130886250D01*
X209995000Y-130886250D01*
X209923750Y-130815000D01*
X209625000Y-130813621D01*
X209569130Y-130819124D01*
X209515408Y-130835420D01*
X209465896Y-130861885D01*
X209422499Y-130897499D01*
X209386885Y-130940896D01*
X209360420Y-130990408D01*
X209344124Y-131044130D01*
X209338621Y-131100000D01*
X207550035Y-131100000D01*
X206050035Y-129600000D01*
X209238138Y-129600000D01*
X209238138Y-130400000D01*
X209245571Y-130475473D01*
X209267586Y-130548046D01*
X209303336Y-130614929D01*
X209351447Y-130673553D01*
X209410071Y-130721664D01*
X209476954Y-130757414D01*
X209549527Y-130779429D01*
X209625000Y-130786862D01*
X210375000Y-130786862D01*
X210450473Y-130779429D01*
X210523046Y-130757414D01*
X210589929Y-130721664D01*
X210648553Y-130673553D01*
X210696664Y-130614929D01*
X210732414Y-130548046D01*
X210754429Y-130475473D01*
X210761862Y-130400000D01*
X210761862Y-129600000D01*
X210754429Y-129524527D01*
X210732414Y-129451954D01*
X210707563Y-129405462D01*
X210824469Y-129357039D01*
X210936662Y-129282074D01*
X211032074Y-129186662D01*
X211107039Y-129074469D01*
X211158675Y-128949807D01*
X211185000Y-128817467D01*
X211185000Y-128682533D01*
X211158675Y-128550193D01*
X211107039Y-128425531D01*
X211032074Y-128313338D01*
X210936662Y-128217926D01*
X210824469Y-128142961D01*
X210699807Y-128091325D01*
X210567467Y-128065000D01*
X210432533Y-128065000D01*
X210300193Y-128091325D01*
X210175531Y-128142961D01*
X210063338Y-128217926D01*
X209967926Y-128313338D01*
X209892961Y-128425531D01*
X209841325Y-128550193D01*
X209815000Y-128682533D01*
X209815000Y-128734965D01*
X209667173Y-128882792D01*
X209648290Y-128898289D01*
X209632792Y-128917173D01*
X209632787Y-128917178D01*
X209586431Y-128973662D01*
X209540467Y-129059656D01*
X209535974Y-129074469D01*
X209512163Y-129152963D01*
X209505798Y-129217586D01*
X209504149Y-129234336D01*
X209476954Y-129242586D01*
X209410071Y-129278336D01*
X209351447Y-129326447D01*
X209303336Y-129385071D01*
X209267586Y-129451954D01*
X209245571Y-129524527D01*
X209238138Y-129600000D01*
X206050035Y-129600000D01*
X205562169Y-129112134D01*
X205574469Y-129107039D01*
X205686662Y-129032074D01*
X205782074Y-128936662D01*
X205857039Y-128824469D01*
X205908675Y-128699807D01*
X205935000Y-128567467D01*
X205935000Y-128432533D01*
X205908675Y-128300193D01*
X205857039Y-128175531D01*
X205782074Y-128063338D01*
X205718736Y-128000000D01*
X205782074Y-127936662D01*
X205857039Y-127824469D01*
X205908675Y-127699807D01*
X205935000Y-127567467D01*
X205935000Y-127432533D01*
X205908675Y-127300193D01*
X205857039Y-127175531D01*
X205782074Y-127063338D01*
X205738736Y-127020000D01*
X208051264Y-127020000D01*
X208063338Y-127032074D01*
X208175531Y-127107039D01*
X208300193Y-127158675D01*
X208432533Y-127185000D01*
X208567467Y-127185000D01*
X208699807Y-127158675D01*
X208824469Y-127107039D01*
X208936662Y-127032074D01*
X209032074Y-126936662D01*
X209107039Y-126824469D01*
X209158675Y-126699807D01*
X209185000Y-126567467D01*
X209185000Y-126432533D01*
X209158675Y-126300193D01*
X209135814Y-126245000D01*
X209360044Y-126245000D01*
X209392961Y-126324469D01*
X209467926Y-126436662D01*
X209563338Y-126532074D01*
X209675531Y-126607039D01*
X209800193Y-126658675D01*
X209932533Y-126685000D01*
X210067467Y-126685000D01*
X210199807Y-126658675D01*
X210324469Y-126607039D01*
X210436662Y-126532074D01*
X210532074Y-126436662D01*
X210607039Y-126324469D01*
X210658675Y-126199807D01*
X210685000Y-126067467D01*
X210685000Y-125932533D01*
X210658675Y-125800193D01*
X210625458Y-125720000D01*
X210751264Y-125720000D01*
X210813338Y-125782074D01*
X210925531Y-125857039D01*
X211050193Y-125908675D01*
X211182533Y-125935000D01*
X211317467Y-125935000D01*
X211449807Y-125908675D01*
X211574469Y-125857039D01*
X211686662Y-125782074D01*
X211782074Y-125686662D01*
X211857039Y-125574469D01*
X211908675Y-125449807D01*
X211935000Y-125317467D01*
X211935000Y-125182533D01*
X211908675Y-125050193D01*
X211885814Y-124995000D01*
X214276264Y-124995000D01*
X214313338Y-125032074D01*
X214425531Y-125107039D01*
X214550193Y-125158675D01*
X214682533Y-125185000D01*
X214817467Y-125185000D01*
X214949807Y-125158675D01*
X215005000Y-125135813D01*
X215005001Y-127026263D01*
X214967926Y-127063338D01*
X214892961Y-127175531D01*
X214841325Y-127300193D01*
X214815000Y-127432533D01*
X214815000Y-127567467D01*
X214841325Y-127699807D01*
X214892961Y-127824469D01*
X214967926Y-127936662D01*
X215063338Y-128032074D01*
X215175531Y-128107039D01*
X215300193Y-128158675D01*
X215432533Y-128185000D01*
X215567467Y-128185000D01*
X215699807Y-128158675D01*
X215824469Y-128107039D01*
X215936662Y-128032074D01*
X216032074Y-127936662D01*
X216107039Y-127824469D01*
X216158675Y-127699807D01*
X216185000Y-127567467D01*
X216185000Y-127432533D01*
X216158675Y-127300193D01*
X216107039Y-127175531D01*
X216032074Y-127063338D01*
X215995000Y-127026264D01*
X215995000Y-124024306D01*
X215997394Y-123999999D01*
X215995000Y-123975692D01*
X215995000Y-123975682D01*
X215987838Y-123902963D01*
X215959533Y-123809655D01*
X215913569Y-123723662D01*
X215904849Y-123713037D01*
X215867213Y-123667177D01*
X215867209Y-123667173D01*
X215851711Y-123648289D01*
X215832827Y-123632791D01*
X215117213Y-122917178D01*
X215101711Y-122898289D01*
X215026338Y-122836431D01*
X214940345Y-122790467D01*
X214847037Y-122762162D01*
X214774318Y-122755000D01*
X214774307Y-122755000D01*
X214750000Y-122752606D01*
X214725693Y-122755000D01*
X206998505Y-122755000D01*
X206982414Y-122701954D01*
X206946664Y-122635071D01*
X206898553Y-122576447D01*
X206839929Y-122528336D01*
X206773046Y-122492586D01*
X206700473Y-122470571D01*
X206625000Y-122463138D01*
X205875000Y-122463138D01*
X205799527Y-122470571D01*
X205726954Y-122492586D01*
X205660071Y-122528336D01*
X205601447Y-122576447D01*
X205553336Y-122635071D01*
X205517586Y-122701954D01*
X205501495Y-122755000D01*
X204998505Y-122755000D01*
X204982414Y-122701954D01*
X204946664Y-122635071D01*
X204898553Y-122576447D01*
X204839929Y-122528336D01*
X204773046Y-122492586D01*
X204700473Y-122470571D01*
X204625000Y-122463138D01*
X203875000Y-122463138D01*
X203799527Y-122470571D01*
X203726954Y-122492586D01*
X203660071Y-122528336D01*
X203601447Y-122576447D01*
X203553336Y-122635071D01*
X203517586Y-122701954D01*
X203495571Y-122774527D01*
X203495032Y-122780000D01*
X202647419Y-122780000D01*
X202614929Y-122753336D01*
X202548046Y-122717586D01*
X202475473Y-122695571D01*
X202400000Y-122688138D01*
X201300000Y-122688138D01*
X201224527Y-122695571D01*
X201151954Y-122717586D01*
X201085071Y-122753336D01*
X201026447Y-122801447D01*
X200978336Y-122860071D01*
X200942586Y-122926954D01*
X200920571Y-122999527D01*
X200913138Y-123075000D01*
X200913138Y-123205714D01*
X200772000Y-123167896D01*
X200750000Y-123165000D01*
X197250000Y-123165000D01*
X197228000Y-123167896D01*
X197077814Y-123208138D01*
X197000000Y-123208138D01*
X196972948Y-123210802D01*
X196985000Y-123198750D01*
X196986379Y-123075000D01*
X196980876Y-123019130D01*
X196964580Y-122965408D01*
X196938115Y-122915896D01*
X196902501Y-122872499D01*
X196859104Y-122836885D01*
X196809592Y-122810420D01*
X196755870Y-122794124D01*
X196700000Y-122788621D01*
X196226250Y-122790000D01*
X196155000Y-122861250D01*
X196155000Y-123270000D01*
X196175000Y-123270000D01*
X196175000Y-123280000D01*
X196155000Y-123280000D01*
X196155000Y-123300000D01*
X196145000Y-123300000D01*
X196145000Y-123280000D01*
X195386250Y-123280000D01*
X195315000Y-123351250D01*
X195313711Y-123466967D01*
X195278336Y-123510071D01*
X195242586Y-123576954D01*
X195220571Y-123649527D01*
X195213138Y-123725000D01*
X195213138Y-124125000D01*
X195220571Y-124200473D01*
X195235595Y-124250000D01*
X195220571Y-124299527D01*
X195213138Y-124375000D01*
X195213138Y-124775000D01*
X195220571Y-124850473D01*
X195235595Y-124900000D01*
X195220571Y-124949527D01*
X195213138Y-125025000D01*
X195213138Y-125380000D01*
X191819934Y-125380000D01*
X191857039Y-125324469D01*
X191908675Y-125199807D01*
X191935000Y-125067467D01*
X191935000Y-124932533D01*
X191908675Y-124800193D01*
X191857039Y-124675531D01*
X191782074Y-124563338D01*
X191745000Y-124526264D01*
X191745000Y-123774306D01*
X191747394Y-123749999D01*
X191745000Y-123725692D01*
X191745000Y-123725682D01*
X191737838Y-123652963D01*
X191709533Y-123559655D01*
X191663569Y-123473662D01*
X191654849Y-123463037D01*
X191617213Y-123417177D01*
X191617209Y-123417173D01*
X191601711Y-123398289D01*
X191582827Y-123382791D01*
X191275036Y-123075000D01*
X195313621Y-123075000D01*
X195315000Y-123198750D01*
X195386250Y-123270000D01*
X196145000Y-123270000D01*
X196145000Y-122861250D01*
X196073750Y-122790000D01*
X195600000Y-122788621D01*
X195544130Y-122794124D01*
X195490408Y-122810420D01*
X195440896Y-122836885D01*
X195397499Y-122872499D01*
X195361885Y-122915896D01*
X195335420Y-122965408D01*
X195319124Y-123019130D01*
X195313621Y-123075000D01*
X191275036Y-123075000D01*
X190350036Y-122150000D01*
X203588621Y-122150000D01*
X203594124Y-122205870D01*
X203610420Y-122259592D01*
X203636885Y-122309104D01*
X203672499Y-122352501D01*
X203715896Y-122388115D01*
X203765408Y-122414580D01*
X203819130Y-122430876D01*
X203875000Y-122436379D01*
X204173750Y-122435000D01*
X204245000Y-122363750D01*
X204245000Y-121755000D01*
X204255000Y-121755000D01*
X204255000Y-122363750D01*
X204326250Y-122435000D01*
X204625000Y-122436379D01*
X204680870Y-122430876D01*
X204734592Y-122414580D01*
X204784104Y-122388115D01*
X204827501Y-122352501D01*
X204863115Y-122309104D01*
X204889580Y-122259592D01*
X204905876Y-122205870D01*
X204911379Y-122150000D01*
X205588621Y-122150000D01*
X205594124Y-122205870D01*
X205610420Y-122259592D01*
X205636885Y-122309104D01*
X205672499Y-122352501D01*
X205715896Y-122388115D01*
X205765408Y-122414580D01*
X205819130Y-122430876D01*
X205875000Y-122436379D01*
X206173750Y-122435000D01*
X206245000Y-122363750D01*
X206245000Y-121755000D01*
X206255000Y-121755000D01*
X206255000Y-122363750D01*
X206326250Y-122435000D01*
X206625000Y-122436379D01*
X206680870Y-122430876D01*
X206734592Y-122414580D01*
X206784104Y-122388115D01*
X206827501Y-122352501D01*
X206863115Y-122309104D01*
X206889580Y-122259592D01*
X206905876Y-122205870D01*
X206911379Y-122150000D01*
X206910000Y-121826250D01*
X206838750Y-121755000D01*
X206255000Y-121755000D01*
X206245000Y-121755000D01*
X205661250Y-121755000D01*
X205590000Y-121826250D01*
X205588621Y-122150000D01*
X204911379Y-122150000D01*
X204910000Y-121826250D01*
X204838750Y-121755000D01*
X204255000Y-121755000D01*
X204245000Y-121755000D01*
X203661250Y-121755000D01*
X203590000Y-121826250D01*
X203588621Y-122150000D01*
X190350036Y-122150000D01*
X190245000Y-122044965D01*
X190245000Y-121350000D01*
X203588621Y-121350000D01*
X203590000Y-121673750D01*
X203661250Y-121745000D01*
X204245000Y-121745000D01*
X204245000Y-121136250D01*
X204255000Y-121136250D01*
X204255000Y-121745000D01*
X204838750Y-121745000D01*
X204910000Y-121673750D01*
X204911379Y-121350000D01*
X205588621Y-121350000D01*
X205590000Y-121673750D01*
X205661250Y-121745000D01*
X206245000Y-121745000D01*
X206245000Y-121136250D01*
X206255000Y-121136250D01*
X206255000Y-121745000D01*
X206838750Y-121745000D01*
X206910000Y-121673750D01*
X206911379Y-121350000D01*
X206905876Y-121294130D01*
X206889580Y-121240408D01*
X206863115Y-121190896D01*
X206827501Y-121147499D01*
X206784104Y-121111885D01*
X206734592Y-121085420D01*
X206680870Y-121069124D01*
X206625000Y-121063621D01*
X206326250Y-121065000D01*
X206255000Y-121136250D01*
X206245000Y-121136250D01*
X206173750Y-121065000D01*
X205875000Y-121063621D01*
X205819130Y-121069124D01*
X205765408Y-121085420D01*
X205715896Y-121111885D01*
X205672499Y-121147499D01*
X205636885Y-121190896D01*
X205610420Y-121240408D01*
X205594124Y-121294130D01*
X205588621Y-121350000D01*
X204911379Y-121350000D01*
X204905876Y-121294130D01*
X204889580Y-121240408D01*
X204863115Y-121190896D01*
X204827501Y-121147499D01*
X204784104Y-121111885D01*
X204734592Y-121085420D01*
X204680870Y-121069124D01*
X204625000Y-121063621D01*
X204326250Y-121065000D01*
X204255000Y-121136250D01*
X204245000Y-121136250D01*
X204173750Y-121065000D01*
X203875000Y-121063621D01*
X203819130Y-121069124D01*
X203765408Y-121085420D01*
X203715896Y-121111885D01*
X203672499Y-121147499D01*
X203636885Y-121190896D01*
X203610420Y-121240408D01*
X203594124Y-121294130D01*
X203588621Y-121350000D01*
X190245000Y-121350000D01*
X190245000Y-119220000D01*
X217808299Y-119220000D01*
X217835040Y-119491507D01*
X217914236Y-119752581D01*
X218042843Y-119993188D01*
X218215919Y-120204081D01*
X218426812Y-120377157D01*
X218637927Y-120490000D01*
X218426812Y-120602843D01*
X218215919Y-120775919D01*
X218042843Y-120986812D01*
X217914236Y-121227419D01*
X217835040Y-121488493D01*
X217808299Y-121760000D01*
X217835040Y-122031507D01*
X217914236Y-122292581D01*
X218042843Y-122533188D01*
X218215919Y-122744081D01*
X218426812Y-122917157D01*
X218637927Y-123030000D01*
X218426812Y-123142843D01*
X218215919Y-123315919D01*
X218042843Y-123526812D01*
X217914236Y-123767419D01*
X217835040Y-124028493D01*
X217808299Y-124300000D01*
X217835040Y-124571507D01*
X217914236Y-124832581D01*
X218042843Y-125073188D01*
X218215919Y-125284081D01*
X218426812Y-125457157D01*
X218637927Y-125570000D01*
X218426812Y-125682843D01*
X218215919Y-125855919D01*
X218042843Y-126066812D01*
X217914236Y-126307419D01*
X217835040Y-126568493D01*
X217808299Y-126840000D01*
X217835040Y-127111507D01*
X217914236Y-127372581D01*
X218042843Y-127613188D01*
X218215919Y-127824081D01*
X218426812Y-127997157D01*
X218637927Y-128110000D01*
X218426812Y-128222843D01*
X218215919Y-128395919D01*
X218042843Y-128606812D01*
X217914236Y-128847419D01*
X217835040Y-129108493D01*
X217808299Y-129380000D01*
X217835040Y-129651507D01*
X217914236Y-129912581D01*
X218042843Y-130153188D01*
X218215919Y-130364081D01*
X218426812Y-130537157D01*
X218637927Y-130650000D01*
X218426812Y-130762843D01*
X218215919Y-130935919D01*
X218042843Y-131146812D01*
X217914236Y-131387419D01*
X217835040Y-131648493D01*
X217808299Y-131920000D01*
X217835040Y-132191507D01*
X217914236Y-132452581D01*
X218042843Y-132693188D01*
X218215919Y-132904081D01*
X218426812Y-133077157D01*
X218667419Y-133205764D01*
X218798532Y-133245537D01*
X218703632Y-133274728D01*
X218481934Y-133394339D01*
X218287831Y-133554903D01*
X218128782Y-133750250D01*
X218010900Y-133972872D01*
X217938714Y-134214214D01*
X217931613Y-134254045D01*
X217986260Y-134455000D01*
X219495000Y-134455000D01*
X219495000Y-134435000D01*
X219505000Y-134435000D01*
X219505000Y-134455000D01*
X221013740Y-134455000D01*
X221068387Y-134254045D01*
X221061286Y-134214214D01*
X220989100Y-133972872D01*
X220871218Y-133750250D01*
X220712169Y-133554903D01*
X220518066Y-133394339D01*
X220296368Y-133274728D01*
X220201468Y-133245537D01*
X220332581Y-133205764D01*
X220573188Y-133077157D01*
X220784081Y-132904081D01*
X220957157Y-132693188D01*
X221085764Y-132452581D01*
X221164960Y-132191507D01*
X221191701Y-131920000D01*
X221164960Y-131648493D01*
X221085764Y-131387419D01*
X220957157Y-131146812D01*
X220784081Y-130935919D01*
X220573188Y-130762843D01*
X220362073Y-130650000D01*
X220573188Y-130537157D01*
X220784081Y-130364081D01*
X220957157Y-130153188D01*
X221085764Y-129912581D01*
X221164960Y-129651507D01*
X221191701Y-129380000D01*
X221164960Y-129108493D01*
X221085764Y-128847419D01*
X220957157Y-128606812D01*
X220784081Y-128395919D01*
X220573188Y-128222843D01*
X220362073Y-128110000D01*
X220573188Y-127997157D01*
X220784081Y-127824081D01*
X220957157Y-127613188D01*
X221085764Y-127372581D01*
X221164960Y-127111507D01*
X221191701Y-126840000D01*
X221164960Y-126568493D01*
X221085764Y-126307419D01*
X220957157Y-126066812D01*
X220784081Y-125855919D01*
X220573188Y-125682843D01*
X220362073Y-125570000D01*
X220573188Y-125457157D01*
X220784081Y-125284081D01*
X220957157Y-125073188D01*
X221085764Y-124832581D01*
X221164960Y-124571507D01*
X221191701Y-124300000D01*
X221164960Y-124028493D01*
X221085764Y-123767419D01*
X220957157Y-123526812D01*
X220784081Y-123315919D01*
X220573188Y-123142843D01*
X220362073Y-123030000D01*
X220573188Y-122917157D01*
X220784081Y-122744081D01*
X220957157Y-122533188D01*
X221085764Y-122292581D01*
X221164960Y-122031507D01*
X221191701Y-121760000D01*
X221164960Y-121488493D01*
X221085764Y-121227419D01*
X220957157Y-120986812D01*
X220784081Y-120775919D01*
X220573188Y-120602843D01*
X220362073Y-120490000D01*
X220573188Y-120377157D01*
X220784081Y-120204081D01*
X220957157Y-119993188D01*
X221085764Y-119752581D01*
X221164960Y-119491507D01*
X221191701Y-119220000D01*
X221164960Y-118948493D01*
X221085764Y-118687419D01*
X220957157Y-118446812D01*
X220784081Y-118235919D01*
X220573188Y-118062843D01*
X220332581Y-117934236D01*
X220071507Y-117855040D01*
X219868037Y-117835000D01*
X219131963Y-117835000D01*
X218928493Y-117855040D01*
X218667419Y-117934236D01*
X218426812Y-118062843D01*
X218215919Y-118235919D01*
X218042843Y-118446812D01*
X217914236Y-118687419D01*
X217835040Y-118948493D01*
X217808299Y-119220000D01*
X190245000Y-119220000D01*
X190245000Y-118882430D01*
X190275473Y-118879429D01*
X190348046Y-118857414D01*
X190414929Y-118821664D01*
X190473553Y-118773553D01*
X190521664Y-118714929D01*
X190557414Y-118648046D01*
X190579429Y-118575473D01*
X190586862Y-118500000D01*
X190586862Y-118000000D01*
X190579429Y-117924527D01*
X190557414Y-117851954D01*
X190521664Y-117785071D01*
X190473553Y-117726447D01*
X190458000Y-117713683D01*
X190458000Y-117286317D01*
X190473553Y-117273553D01*
X190521664Y-117214929D01*
X190557414Y-117148046D01*
X190579429Y-117075473D01*
X190586862Y-117000000D01*
X190586862Y-116500000D01*
X190579429Y-116424527D01*
X190557414Y-116351954D01*
X190521664Y-116285071D01*
X190473553Y-116226447D01*
X190414929Y-116178336D01*
X190348046Y-116142586D01*
X190275473Y-116120571D01*
X190245000Y-116117570D01*
X190245000Y-115853740D01*
X214515000Y-115853740D01*
X214515000Y-116146260D01*
X214572068Y-116433158D01*
X214684010Y-116703411D01*
X214846525Y-116946632D01*
X215053368Y-117153475D01*
X215296589Y-117315990D01*
X215566842Y-117427932D01*
X215853740Y-117485000D01*
X216146260Y-117485000D01*
X216433158Y-117427932D01*
X216703411Y-117315990D01*
X216946632Y-117153475D01*
X217153475Y-116946632D01*
X217315990Y-116703411D01*
X217427932Y-116433158D01*
X217485000Y-116146260D01*
X217485000Y-115853740D01*
X217427932Y-115566842D01*
X217315990Y-115296589D01*
X217153475Y-115053368D01*
X216946632Y-114846525D01*
X216703411Y-114684010D01*
X216433158Y-114572068D01*
X216146260Y-114515000D01*
X215853740Y-114515000D01*
X215566842Y-114572068D01*
X215296589Y-114684010D01*
X215053368Y-114846525D01*
X214846525Y-115053368D01*
X214684010Y-115296589D01*
X214572068Y-115566842D01*
X214515000Y-115853740D01*
X190245000Y-115853740D01*
X190245000Y-114723736D01*
X190282074Y-114686662D01*
X190357039Y-114574469D01*
X190408675Y-114449807D01*
X190435000Y-114317467D01*
X190435000Y-114182533D01*
X190408675Y-114050193D01*
X190357039Y-113925531D01*
X190282074Y-113813338D01*
X190186662Y-113717926D01*
X190074469Y-113642961D01*
X189949807Y-113591325D01*
X189817467Y-113565000D01*
X189682533Y-113565000D01*
X189550193Y-113591325D01*
X189425531Y-113642961D01*
X189313338Y-113717926D01*
X189217926Y-113813338D01*
X189142961Y-113925531D01*
X189091325Y-114050193D01*
X189065000Y-114182533D01*
X189065000Y-114317467D01*
X189091325Y-114449807D01*
X189142961Y-114574469D01*
X189217926Y-114686662D01*
X189255000Y-114723736D01*
X189255001Y-116117570D01*
X189224527Y-116120571D01*
X189151954Y-116142586D01*
X189085071Y-116178336D01*
X189026447Y-116226447D01*
X188978336Y-116285071D01*
X188942586Y-116351954D01*
X188920571Y-116424527D01*
X188913138Y-116500000D01*
X188913138Y-117000000D01*
X188920571Y-117075473D01*
X188942586Y-117148046D01*
X188978336Y-117214929D01*
X189018000Y-117263260D01*
X189018000Y-117736740D01*
X188978336Y-117785071D01*
X188942586Y-117851954D01*
X188920571Y-117924527D01*
X188913138Y-118000000D01*
X188913138Y-118500000D01*
X188920571Y-118575473D01*
X188942586Y-118648046D01*
X188978336Y-118714929D01*
X189026447Y-118773553D01*
X189085071Y-118821664D01*
X189151954Y-118857414D01*
X189224527Y-118879429D01*
X189255001Y-118882430D01*
X189255000Y-122225693D01*
X189252606Y-122250000D01*
X189255000Y-122274307D01*
X189255000Y-122274317D01*
X189262162Y-122347036D01*
X189290467Y-122440344D01*
X189336431Y-122526338D01*
X189398289Y-122601711D01*
X189417178Y-122617213D01*
X190376175Y-123576211D01*
X190300193Y-123591325D01*
X190175531Y-123642961D01*
X190063338Y-123717926D01*
X190026264Y-123755000D01*
X188705036Y-123755000D01*
X187745000Y-122794965D01*
X187745000Y-118882430D01*
X187775473Y-118879429D01*
X187848046Y-118857414D01*
X187914929Y-118821664D01*
X187973553Y-118773553D01*
X188021664Y-118714929D01*
X188057414Y-118648046D01*
X188079429Y-118575473D01*
X188086862Y-118500000D01*
X188086862Y-118000000D01*
X188079429Y-117924527D01*
X188057414Y-117851954D01*
X188045000Y-117828729D01*
X188045000Y-117171271D01*
X188057414Y-117148046D01*
X188079429Y-117075473D01*
X188086862Y-117000000D01*
X188086862Y-116500000D01*
X188079429Y-116424527D01*
X188057414Y-116351954D01*
X188021664Y-116285071D01*
X187973553Y-116226447D01*
X187914929Y-116178336D01*
X187848046Y-116142586D01*
X187775473Y-116120571D01*
X187745000Y-116117570D01*
X187745000Y-114723736D01*
X187782074Y-114686662D01*
X187857039Y-114574469D01*
X187908675Y-114449807D01*
X187935000Y-114317467D01*
X187935000Y-114182533D01*
X187908675Y-114050193D01*
X187857039Y-113925531D01*
X187782074Y-113813338D01*
X187686662Y-113717926D01*
X187574469Y-113642961D01*
X187449807Y-113591325D01*
X187317467Y-113565000D01*
X187182533Y-113565000D01*
X187050193Y-113591325D01*
X186925531Y-113642961D01*
X186813338Y-113717926D01*
X186717926Y-113813338D01*
X186642961Y-113925531D01*
X186591325Y-114050193D01*
X186565000Y-114182533D01*
X186565000Y-114317467D01*
X186591325Y-114449807D01*
X186642961Y-114574469D01*
X186717926Y-114686662D01*
X186755000Y-114723736D01*
X186755001Y-116117570D01*
X186724527Y-116120571D01*
X186651954Y-116142586D01*
X186585071Y-116178336D01*
X186526447Y-116226447D01*
X186478336Y-116285071D01*
X186442586Y-116351954D01*
X186420571Y-116424527D01*
X186413138Y-116500000D01*
X186413138Y-117000000D01*
X186420571Y-117075473D01*
X186442586Y-117148046D01*
X186478336Y-117214929D01*
X186526447Y-117273553D01*
X186585071Y-117321664D01*
X186605000Y-117332316D01*
X186605000Y-117667684D01*
X186585071Y-117678336D01*
X186526447Y-117726447D01*
X186478336Y-117785071D01*
X186442586Y-117851954D01*
X186420571Y-117924527D01*
X186413138Y-118000000D01*
X186413138Y-118500000D01*
X186420571Y-118575473D01*
X186442586Y-118648046D01*
X186478336Y-118714929D01*
X186526447Y-118773553D01*
X186585071Y-118821664D01*
X186651954Y-118857414D01*
X186724527Y-118879429D01*
X186755001Y-118882430D01*
X186755000Y-122975693D01*
X186752606Y-123000000D01*
X186755000Y-123024307D01*
X186755000Y-123024317D01*
X186762162Y-123097036D01*
X186790467Y-123190344D01*
X186836431Y-123276338D01*
X186898289Y-123351711D01*
X186917178Y-123367213D01*
X188132791Y-124582827D01*
X188148289Y-124601711D01*
X188167173Y-124617209D01*
X188167177Y-124617213D01*
X188223661Y-124663569D01*
X188291459Y-124699807D01*
X188309655Y-124709533D01*
X188402963Y-124737838D01*
X188475682Y-124745000D01*
X188475693Y-124745000D01*
X188500000Y-124747394D01*
X188524307Y-124745000D01*
X190026264Y-124745000D01*
X190063338Y-124782074D01*
X190175531Y-124857039D01*
X190300193Y-124908675D01*
X190432533Y-124935000D01*
X190565000Y-124935000D01*
X190565000Y-125067467D01*
X190591325Y-125199807D01*
X190642961Y-125324469D01*
X190680066Y-125380000D01*
X184080036Y-125380000D01*
X182745000Y-124044965D01*
X182745000Y-118882430D01*
X182775473Y-118879429D01*
X182848046Y-118857414D01*
X182914929Y-118821664D01*
X182973553Y-118773553D01*
X183021664Y-118714929D01*
X183057414Y-118648046D01*
X183079429Y-118575473D01*
X183086862Y-118500000D01*
X183086862Y-118000000D01*
X183079429Y-117924527D01*
X183057414Y-117851954D01*
X183021664Y-117785071D01*
X182973553Y-117726447D01*
X182965000Y-117719428D01*
X182965000Y-117280572D01*
X182973553Y-117273553D01*
X183021664Y-117214929D01*
X183057414Y-117148046D01*
X183079429Y-117075473D01*
X183086862Y-117000000D01*
X183086862Y-116500000D01*
X183079429Y-116424527D01*
X183057414Y-116351954D01*
X183021664Y-116285071D01*
X182973553Y-116226447D01*
X182914929Y-116178336D01*
X182848046Y-116142586D01*
X182775473Y-116120571D01*
X182745000Y-116117570D01*
X182745000Y-114723736D01*
X182782074Y-114686662D01*
X182857039Y-114574469D01*
X182908675Y-114449807D01*
X182935000Y-114317467D01*
X182935000Y-114182533D01*
X182908675Y-114050193D01*
X182857039Y-113925531D01*
X182782074Y-113813338D01*
X182686662Y-113717926D01*
X182574469Y-113642961D01*
X182449807Y-113591325D01*
X182317467Y-113565000D01*
X182182533Y-113565000D01*
X182050193Y-113591325D01*
X181925531Y-113642961D01*
X181813338Y-113717926D01*
X181717926Y-113813338D01*
X181642961Y-113925531D01*
X181591325Y-114050193D01*
X181565000Y-114182533D01*
X181565000Y-114317467D01*
X181591325Y-114449807D01*
X181642961Y-114574469D01*
X181717926Y-114686662D01*
X181755000Y-114723736D01*
X181755001Y-116117570D01*
X181724527Y-116120571D01*
X181651954Y-116142586D01*
X181585071Y-116178336D01*
X181526447Y-116226447D01*
X181478336Y-116285071D01*
X181442586Y-116351954D01*
X181420571Y-116424527D01*
X181413138Y-116500000D01*
X181413138Y-117000000D01*
X181420571Y-117075473D01*
X181442586Y-117148046D01*
X181478336Y-117214929D01*
X181525000Y-117271790D01*
X181525000Y-117728210D01*
X181478336Y-117785071D01*
X181442586Y-117851954D01*
X181420571Y-117924527D01*
X181413138Y-118000000D01*
X181413138Y-118500000D01*
X181420571Y-118575473D01*
X181442586Y-118648046D01*
X181478336Y-118714929D01*
X181526447Y-118773553D01*
X181585071Y-118821664D01*
X181651954Y-118857414D01*
X181724527Y-118879429D01*
X181755001Y-118882430D01*
X181755000Y-124225693D01*
X181752606Y-124250000D01*
X181755000Y-124274307D01*
X181755000Y-124274317D01*
X181762162Y-124347036D01*
X181790467Y-124440344D01*
X181836431Y-124526338D01*
X181898289Y-124601711D01*
X181917178Y-124617213D01*
X183329964Y-126030000D01*
X182480036Y-126030000D01*
X180245000Y-123794965D01*
X180245000Y-118882430D01*
X180275473Y-118879429D01*
X180348046Y-118857414D01*
X180414929Y-118821664D01*
X180473553Y-118773553D01*
X180521664Y-118714929D01*
X180557414Y-118648046D01*
X180579429Y-118575473D01*
X180586862Y-118500000D01*
X180586862Y-118000000D01*
X180579429Y-117924527D01*
X180557414Y-117851954D01*
X180521664Y-117785071D01*
X180473553Y-117726447D01*
X180425000Y-117686601D01*
X180425000Y-117313399D01*
X180473553Y-117273553D01*
X180521664Y-117214929D01*
X180557414Y-117148046D01*
X180579429Y-117075473D01*
X180586862Y-117000000D01*
X180586862Y-116500000D01*
X180579429Y-116424527D01*
X180557414Y-116351954D01*
X180521664Y-116285071D01*
X180473553Y-116226447D01*
X180414929Y-116178336D01*
X180348046Y-116142586D01*
X180275473Y-116120571D01*
X180245000Y-116117570D01*
X180245000Y-114723736D01*
X180282074Y-114686662D01*
X180357039Y-114574469D01*
X180408675Y-114449807D01*
X180435000Y-114317467D01*
X180435000Y-114182533D01*
X180408675Y-114050193D01*
X180357039Y-113925531D01*
X180282074Y-113813338D01*
X180186662Y-113717926D01*
X180074469Y-113642961D01*
X179949807Y-113591325D01*
X179817467Y-113565000D01*
X179682533Y-113565000D01*
X179550193Y-113591325D01*
X179425531Y-113642961D01*
X179313338Y-113717926D01*
X179217926Y-113813338D01*
X179142961Y-113925531D01*
X179091325Y-114050193D01*
X179065000Y-114182533D01*
X179065000Y-114317467D01*
X179091325Y-114449807D01*
X179142961Y-114574469D01*
X179217926Y-114686662D01*
X179255000Y-114723736D01*
X179255001Y-116117570D01*
X179224527Y-116120571D01*
X179151954Y-116142586D01*
X179085071Y-116178336D01*
X179026447Y-116226447D01*
X178978336Y-116285071D01*
X178942586Y-116351954D01*
X178920571Y-116424527D01*
X178913138Y-116500000D01*
X173400245Y-116500000D01*
X173427932Y-116433158D01*
X173485000Y-116146260D01*
X173485000Y-115853740D01*
X173427932Y-115566842D01*
X173315990Y-115296589D01*
X173153475Y-115053368D01*
X172946632Y-114846525D01*
X172703411Y-114684010D01*
X172433158Y-114572068D01*
X172146260Y-114515000D01*
X171853740Y-114515000D01*
X171566842Y-114572068D01*
X171296589Y-114684010D01*
X171053368Y-114846525D01*
X170846525Y-115053368D01*
X170684010Y-115296589D01*
X170572068Y-115566842D01*
X170515000Y-115853740D01*
X170085000Y-115853740D01*
X170085000Y-114511192D01*
X170143197Y-114293998D01*
X170293998Y-114143197D01*
X170511192Y-114085000D01*
X174500000Y-114085000D01*
X174522000Y-114082104D01*
X174772000Y-114015117D01*
X174787594Y-114009247D01*
X174801745Y-114000448D01*
X174810104Y-113993117D01*
X174993117Y-113810104D01*
X175003688Y-113797223D01*
X175011543Y-113782528D01*
X175015117Y-113772000D01*
X175082104Y-113522000D01*
X175085000Y-113500000D01*
X175085000Y-109511192D01*
X175143197Y-109293998D01*
X175293998Y-109143197D01*
X175511192Y-109085000D01*
X212488808Y-109085000D01*
X212706002Y-109143197D01*
M02*
