G04 #@! TF.GenerationSoftware,KiCad,Pcbnew,(5.1.4)-1*
G04 #@! TF.CreationDate,2020-02-23T17:45:57-05:00*
G04 #@! TF.ProjectId,Dash_Warning_Panel,44617368-5f57-4617-926e-696e675f5061,rev?*
G04 #@! TF.SameCoordinates,Original*
G04 #@! TF.FileFunction,Legend,Bot*
G04 #@! TF.FilePolarity,Positive*
%FSLAX46Y46*%
G04 Gerber Fmt 4.6, Leading zero omitted, Abs format (unit mm)*
G04 Created by KiCad (PCBNEW (5.1.4)-1) date 2020-02-23 17:45:57*
%MOMM*%
%LPD*%
G04 APERTURE LIST*
%ADD10C,0.150000*%
%ADD11C,0.100000*%
%ADD12C,0.250000*%
%ADD13C,0.350000*%
%ADD14C,0.120000*%
%ADD15R,1.201600X0.501600*%
%ADD16R,4.101600X4.101600*%
%ADD17C,2.301600*%
%ADD18R,0.851600X0.901600*%
%ADD19O,2.701600X2.101600*%
%ADD20R,2.701600X2.101600*%
%ADD21R,1.001600X0.601600*%
G04 APERTURE END LIST*
D10*
X204235000Y-146435000D02*
X204445000Y-146675000D01*
X206275000Y-145615000D02*
X205445000Y-145675000D01*
D11*
G36*
X209475000Y-144445000D02*
G01*
X209745000Y-144905000D01*
X209465000Y-145445000D01*
X209055000Y-145765000D01*
X208885000Y-145775000D01*
X208585000Y-145505000D01*
X208995000Y-145495000D01*
X209325000Y-145185000D01*
X209475000Y-144985000D01*
X209535000Y-144795000D01*
X209265000Y-144765000D01*
X208555000Y-144865000D01*
X208705000Y-144575000D01*
X208995000Y-144425000D01*
X209475000Y-144445000D01*
G37*
X209475000Y-144445000D02*
X209745000Y-144905000D01*
X209465000Y-145445000D01*
X209055000Y-145765000D01*
X208885000Y-145775000D01*
X208585000Y-145505000D01*
X208995000Y-145495000D01*
X209325000Y-145185000D01*
X209475000Y-144985000D01*
X209535000Y-144795000D01*
X209265000Y-144765000D01*
X208555000Y-144865000D01*
X208705000Y-144575000D01*
X208995000Y-144425000D01*
X209475000Y-144445000D01*
G36*
X208965000Y-145335000D02*
G01*
X208595000Y-145325000D01*
X208585000Y-145045000D01*
X208965000Y-144955000D01*
X209335000Y-144915000D01*
X208965000Y-145335000D01*
G37*
X208965000Y-145335000D02*
X208595000Y-145325000D01*
X208585000Y-145045000D01*
X208965000Y-144955000D01*
X209335000Y-144915000D01*
X208965000Y-145335000D01*
D10*
X204195000Y-146175000D02*
X204235000Y-146435000D01*
X204445000Y-145925000D02*
X204195000Y-146175000D01*
X205445000Y-145675000D02*
X204445000Y-145925000D01*
X206945000Y-145675000D02*
X206275000Y-145615000D01*
X209445000Y-146425000D02*
X206945000Y-145675000D01*
X209695000Y-146175000D02*
X209445000Y-146425000D01*
X210195000Y-144425000D02*
X209695000Y-146175000D01*
X210445000Y-144175000D02*
X210195000Y-144425000D01*
X210695000Y-144175000D02*
X210445000Y-144175000D01*
X211765000Y-145055000D02*
X210695000Y-144175000D01*
X213315000Y-146795000D02*
X211755000Y-145045000D01*
D12*
X207285714Y-143428571D02*
X207285714Y-141928571D01*
X206928571Y-141928571D01*
X206714285Y-142000000D01*
X206571428Y-142142857D01*
X206500000Y-142285714D01*
X206428571Y-142571428D01*
X206428571Y-142785714D01*
X206500000Y-143071428D01*
X206571428Y-143214285D01*
X206714285Y-143357142D01*
X206928571Y-143428571D01*
X207285714Y-143428571D01*
X205214285Y-143357142D02*
X205357142Y-143428571D01*
X205642857Y-143428571D01*
X205785714Y-143357142D01*
X205857142Y-143214285D01*
X205857142Y-142642857D01*
X205785714Y-142500000D01*
X205642857Y-142428571D01*
X205357142Y-142428571D01*
X205214285Y-142500000D01*
X205142857Y-142642857D01*
X205142857Y-142785714D01*
X205857142Y-142928571D01*
X204571428Y-143357142D02*
X204428571Y-143428571D01*
X204142857Y-143428571D01*
X204000000Y-143357142D01*
X203928571Y-143214285D01*
X203928571Y-143142857D01*
X204000000Y-143000000D01*
X204142857Y-142928571D01*
X204357142Y-142928571D01*
X204500000Y-142857142D01*
X204571428Y-142714285D01*
X204571428Y-142642857D01*
X204500000Y-142500000D01*
X204357142Y-142428571D01*
X204142857Y-142428571D01*
X204000000Y-142500000D01*
X203285714Y-143428571D02*
X203285714Y-142428571D01*
X203285714Y-141928571D02*
X203357142Y-142000000D01*
X203285714Y-142071428D01*
X203214285Y-142000000D01*
X203285714Y-141928571D01*
X203285714Y-142071428D01*
X201928571Y-142428571D02*
X201928571Y-143642857D01*
X202000000Y-143785714D01*
X202071428Y-143857142D01*
X202214285Y-143928571D01*
X202428571Y-143928571D01*
X202571428Y-143857142D01*
X201928571Y-143357142D02*
X202071428Y-143428571D01*
X202357142Y-143428571D01*
X202500000Y-143357142D01*
X202571428Y-143285714D01*
X202642857Y-143142857D01*
X202642857Y-142714285D01*
X202571428Y-142571428D01*
X202500000Y-142500000D01*
X202357142Y-142428571D01*
X202071428Y-142428571D01*
X201928571Y-142500000D01*
X201214285Y-142428571D02*
X201214285Y-143428571D01*
X201214285Y-142571428D02*
X201142857Y-142500000D01*
X201000000Y-142428571D01*
X200785714Y-142428571D01*
X200642857Y-142500000D01*
X200571428Y-142642857D01*
X200571428Y-143428571D01*
X199285714Y-143357142D02*
X199428571Y-143428571D01*
X199714285Y-143428571D01*
X199857142Y-143357142D01*
X199928571Y-143214285D01*
X199928571Y-142642857D01*
X199857142Y-142500000D01*
X199714285Y-142428571D01*
X199428571Y-142428571D01*
X199285714Y-142500000D01*
X199214285Y-142642857D01*
X199214285Y-142785714D01*
X199928571Y-142928571D01*
X197928571Y-143428571D02*
X197928571Y-141928571D01*
X197928571Y-143357142D02*
X198071428Y-143428571D01*
X198357142Y-143428571D01*
X198500000Y-143357142D01*
X198571428Y-143285714D01*
X198642857Y-143142857D01*
X198642857Y-142714285D01*
X198571428Y-142571428D01*
X198500000Y-142500000D01*
X198357142Y-142428571D01*
X198071428Y-142428571D01*
X197928571Y-142500000D01*
X196071428Y-143428571D02*
X196071428Y-141928571D01*
X196071428Y-142500000D02*
X195928571Y-142428571D01*
X195642857Y-142428571D01*
X195500000Y-142500000D01*
X195428571Y-142571428D01*
X195357142Y-142714285D01*
X195357142Y-143142857D01*
X195428571Y-143285714D01*
X195500000Y-143357142D01*
X195642857Y-143428571D01*
X195928571Y-143428571D01*
X196071428Y-143357142D01*
X194857142Y-142428571D02*
X194500000Y-143428571D01*
X194142857Y-142428571D02*
X194500000Y-143428571D01*
X194642857Y-143785714D01*
X194714285Y-143857142D01*
X194857142Y-143928571D01*
X193571428Y-143285714D02*
X193500000Y-143357142D01*
X193571428Y-143428571D01*
X193642857Y-143357142D01*
X193571428Y-143285714D01*
X193571428Y-143428571D01*
X193571428Y-142500000D02*
X193500000Y-142571428D01*
X193571428Y-142642857D01*
X193642857Y-142571428D01*
X193571428Y-142500000D01*
X193571428Y-142642857D01*
X191785714Y-143000000D02*
X191071428Y-143000000D01*
X191928571Y-143428571D02*
X191428571Y-141928571D01*
X190928571Y-143428571D01*
X190214285Y-143428571D02*
X190357142Y-143357142D01*
X190428571Y-143214285D01*
X190428571Y-141928571D01*
X189071428Y-143357142D02*
X189214285Y-143428571D01*
X189500000Y-143428571D01*
X189642857Y-143357142D01*
X189714285Y-143214285D01*
X189714285Y-142642857D01*
X189642857Y-142500000D01*
X189500000Y-142428571D01*
X189214285Y-142428571D01*
X189071428Y-142500000D01*
X189000000Y-142642857D01*
X189000000Y-142785714D01*
X189714285Y-142928571D01*
X188500000Y-143428571D02*
X187714285Y-142428571D01*
X188500000Y-142428571D02*
X187714285Y-143428571D01*
X186000000Y-143428571D02*
X186000000Y-141928571D01*
X185428571Y-141928571D01*
X185285714Y-142000000D01*
X185214285Y-142071428D01*
X185142857Y-142214285D01*
X185142857Y-142428571D01*
X185214285Y-142571428D01*
X185285714Y-142642857D01*
X185428571Y-142714285D01*
X186000000Y-142714285D01*
X184285714Y-143428571D02*
X184428571Y-143357142D01*
X184500000Y-143285714D01*
X184571428Y-143142857D01*
X184571428Y-142714285D01*
X184500000Y-142571428D01*
X184428571Y-142500000D01*
X184285714Y-142428571D01*
X184071428Y-142428571D01*
X183928571Y-142500000D01*
X183857142Y-142571428D01*
X183785714Y-142714285D01*
X183785714Y-143142857D01*
X183857142Y-143285714D01*
X183928571Y-143357142D01*
X184071428Y-143428571D01*
X184285714Y-143428571D01*
X182500000Y-143428571D02*
X182500000Y-141928571D01*
X182500000Y-143357142D02*
X182642857Y-143428571D01*
X182928571Y-143428571D01*
X183071428Y-143357142D01*
X183142857Y-143285714D01*
X183214285Y-143142857D01*
X183214285Y-142714285D01*
X183142857Y-142571428D01*
X183071428Y-142500000D01*
X182928571Y-142428571D01*
X182642857Y-142428571D01*
X182500000Y-142500000D01*
X181142857Y-142428571D02*
X181142857Y-143642857D01*
X181214285Y-143785714D01*
X181285714Y-143857142D01*
X181428571Y-143928571D01*
X181642857Y-143928571D01*
X181785714Y-143857142D01*
X181142857Y-143357142D02*
X181285714Y-143428571D01*
X181571428Y-143428571D01*
X181714285Y-143357142D01*
X181785714Y-143285714D01*
X181857142Y-143142857D01*
X181857142Y-142714285D01*
X181785714Y-142571428D01*
X181714285Y-142500000D01*
X181571428Y-142428571D01*
X181285714Y-142428571D01*
X181142857Y-142500000D01*
X180214285Y-143428571D02*
X180357142Y-143357142D01*
X180428571Y-143285714D01*
X180500000Y-143142857D01*
X180500000Y-142714285D01*
X180428571Y-142571428D01*
X180357142Y-142500000D01*
X180214285Y-142428571D01*
X180000000Y-142428571D01*
X179857142Y-142500000D01*
X179785714Y-142571428D01*
X179714285Y-142714285D01*
X179714285Y-143142857D01*
X179785714Y-143285714D01*
X179857142Y-143357142D01*
X180000000Y-143428571D01*
X180214285Y-143428571D01*
X179071428Y-143428571D02*
X179071428Y-142428571D01*
X179071428Y-142714285D02*
X179000000Y-142571428D01*
X178928571Y-142500000D01*
X178785714Y-142428571D01*
X178642857Y-142428571D01*
X178214285Y-143357142D02*
X178071428Y-143428571D01*
X177785714Y-143428571D01*
X177642857Y-143357142D01*
X177571428Y-143214285D01*
X177571428Y-143142857D01*
X177642857Y-143000000D01*
X177785714Y-142928571D01*
X178000000Y-142928571D01*
X178142857Y-142857142D01*
X178214285Y-142714285D01*
X178214285Y-142642857D01*
X178142857Y-142500000D01*
X178000000Y-142428571D01*
X177785714Y-142428571D01*
X177642857Y-142500000D01*
X176928571Y-143428571D02*
X176928571Y-141928571D01*
X176785714Y-142857142D02*
X176357142Y-143428571D01*
X176357142Y-142428571D02*
X176928571Y-143000000D01*
X175714285Y-143428571D02*
X175714285Y-142428571D01*
X175714285Y-141928571D02*
X175785714Y-142000000D01*
X175714285Y-142071428D01*
X175642857Y-142000000D01*
X175714285Y-141928571D01*
X175714285Y-142071428D01*
D10*
X216940261Y-121038369D02*
X216798690Y-121085559D01*
X216562738Y-121085559D01*
X216468357Y-121038369D01*
X216421166Y-120991178D01*
X216373976Y-120896797D01*
X216373976Y-120802416D01*
X216421166Y-120708035D01*
X216468357Y-120660845D01*
X216562738Y-120613654D01*
X216751500Y-120566464D01*
X216845880Y-120519273D01*
X216893071Y-120472083D01*
X216940261Y-120377702D01*
X216940261Y-120283321D01*
X216893071Y-120188940D01*
X216845880Y-120141750D01*
X216751500Y-120094559D01*
X216515547Y-120094559D01*
X216373976Y-120141750D01*
X215382976Y-120991178D02*
X215430166Y-121038369D01*
X215571738Y-121085559D01*
X215666119Y-121085559D01*
X215807690Y-121038369D01*
X215902071Y-120943988D01*
X215949261Y-120849607D01*
X215996452Y-120660845D01*
X215996452Y-120519273D01*
X215949261Y-120330511D01*
X215902071Y-120236130D01*
X215807690Y-120141750D01*
X215666119Y-120094559D01*
X215571738Y-120094559D01*
X215430166Y-120141750D01*
X215382976Y-120188940D01*
X214486357Y-121085559D02*
X214958261Y-121085559D01*
X214958261Y-120094559D01*
X214156023Y-121085559D02*
X214156023Y-120094559D01*
X213589738Y-121085559D02*
X214014452Y-120519273D01*
X213589738Y-120094559D02*
X214156023Y-120660845D01*
X216350380Y-122722059D02*
X216680714Y-122250154D01*
X216916666Y-122722059D02*
X216916666Y-121731059D01*
X216539142Y-121731059D01*
X216444761Y-121778250D01*
X216397571Y-121825440D01*
X216350380Y-121919821D01*
X216350380Y-122061392D01*
X216397571Y-122155773D01*
X216444761Y-122202964D01*
X216539142Y-122250154D01*
X216916666Y-122250154D01*
X215359380Y-122627678D02*
X215406571Y-122674869D01*
X215548142Y-122722059D01*
X215642523Y-122722059D01*
X215784095Y-122674869D01*
X215878476Y-122580488D01*
X215925666Y-122486107D01*
X215972857Y-122297345D01*
X215972857Y-122155773D01*
X215925666Y-121967011D01*
X215878476Y-121872630D01*
X215784095Y-121778250D01*
X215642523Y-121731059D01*
X215548142Y-121731059D01*
X215406571Y-121778250D01*
X215359380Y-121825440D01*
X214462761Y-122722059D02*
X214934666Y-122722059D01*
X214934666Y-121731059D01*
X214132428Y-122722059D02*
X214132428Y-121731059D01*
X213566142Y-122722059D02*
X213990857Y-122155773D01*
X213566142Y-121731059D02*
X214132428Y-122297345D01*
X215854880Y-124264178D02*
X215902071Y-124311369D01*
X216043642Y-124358559D01*
X216138023Y-124358559D01*
X216279595Y-124311369D01*
X216373976Y-124216988D01*
X216421166Y-124122607D01*
X216468357Y-123933845D01*
X216468357Y-123792273D01*
X216421166Y-123603511D01*
X216373976Y-123509130D01*
X216279595Y-123414750D01*
X216138023Y-123367559D01*
X216043642Y-123367559D01*
X215902071Y-123414750D01*
X215854880Y-123461940D01*
X214958261Y-124358559D02*
X215430166Y-124358559D01*
X215430166Y-123367559D01*
X214061642Y-124358559D02*
X214391976Y-123886654D01*
X214627928Y-124358559D02*
X214627928Y-123367559D01*
X214250404Y-123367559D01*
X214156023Y-123414750D01*
X214108833Y-123461940D01*
X214061642Y-123556321D01*
X214061642Y-123697892D01*
X214108833Y-123792273D01*
X214156023Y-123839464D01*
X214250404Y-123886654D01*
X214627928Y-123886654D01*
X216279595Y-125947869D02*
X216138023Y-125995059D01*
X215902071Y-125995059D01*
X215807690Y-125947869D01*
X215760500Y-125900678D01*
X215713309Y-125806297D01*
X215713309Y-125711916D01*
X215760500Y-125617535D01*
X215807690Y-125570345D01*
X215902071Y-125523154D01*
X216090833Y-125475964D01*
X216185214Y-125428773D01*
X216232404Y-125381583D01*
X216279595Y-125287202D01*
X216279595Y-125192821D01*
X216232404Y-125098440D01*
X216185214Y-125051250D01*
X216090833Y-125004059D01*
X215854880Y-125004059D01*
X215713309Y-125051250D01*
X215288595Y-125995059D02*
X215288595Y-125004059D01*
X215052642Y-125004059D01*
X214911071Y-125051250D01*
X214816690Y-125145630D01*
X214769500Y-125240011D01*
X214722309Y-125428773D01*
X214722309Y-125570345D01*
X214769500Y-125759107D01*
X214816690Y-125853488D01*
X214911071Y-125947869D01*
X215052642Y-125995059D01*
X215288595Y-125995059D01*
X214297595Y-125995059D02*
X214297595Y-125004059D01*
X216373976Y-127537178D02*
X216421166Y-127584369D01*
X216562738Y-127631559D01*
X216657119Y-127631559D01*
X216798690Y-127584369D01*
X216893071Y-127489988D01*
X216940261Y-127395607D01*
X216987452Y-127206845D01*
X216987452Y-127065273D01*
X216940261Y-126876511D01*
X216893071Y-126782130D01*
X216798690Y-126687750D01*
X216657119Y-126640559D01*
X216562738Y-126640559D01*
X216421166Y-126687750D01*
X216373976Y-126734940D01*
X215760500Y-126640559D02*
X215571738Y-126640559D01*
X215477357Y-126687750D01*
X215382976Y-126782130D01*
X215335785Y-126970892D01*
X215335785Y-127301226D01*
X215382976Y-127489988D01*
X215477357Y-127584369D01*
X215571738Y-127631559D01*
X215760500Y-127631559D01*
X215854880Y-127584369D01*
X215949261Y-127489988D01*
X215996452Y-127301226D01*
X215996452Y-126970892D01*
X215949261Y-126782130D01*
X215854880Y-126687750D01*
X215760500Y-126640559D01*
X214911071Y-127631559D02*
X214911071Y-126640559D01*
X214344785Y-127631559D01*
X214344785Y-126640559D01*
X214014452Y-126640559D02*
X213448166Y-126640559D01*
X213731309Y-127631559D02*
X213731309Y-126640559D01*
X216893071Y-129268059D02*
X216893071Y-128277059D01*
X216326785Y-129268059D01*
X216326785Y-128277059D01*
X215854880Y-128748964D02*
X215524547Y-128748964D01*
X215382976Y-129268059D02*
X215854880Y-129268059D01*
X215854880Y-128277059D01*
X215382976Y-128277059D01*
X214958261Y-128277059D02*
X214958261Y-129079297D01*
X214911071Y-129173678D01*
X214863880Y-129220869D01*
X214769500Y-129268059D01*
X214580738Y-129268059D01*
X214486357Y-129220869D01*
X214439166Y-129173678D01*
X214391976Y-129079297D01*
X214391976Y-128277059D01*
X214061642Y-128277059D02*
X213495357Y-128277059D01*
X213778500Y-129268059D02*
X213778500Y-128277059D01*
X216020047Y-129960750D02*
X216114428Y-129913559D01*
X216256000Y-129913559D01*
X216397571Y-129960750D01*
X216491952Y-130055130D01*
X216539142Y-130149511D01*
X216586333Y-130338273D01*
X216586333Y-130479845D01*
X216539142Y-130668607D01*
X216491952Y-130762988D01*
X216397571Y-130857369D01*
X216256000Y-130904559D01*
X216161619Y-130904559D01*
X216020047Y-130857369D01*
X215972857Y-130810178D01*
X215972857Y-130479845D01*
X216161619Y-130479845D01*
X215548142Y-130904559D02*
X215548142Y-129913559D01*
X214981857Y-130904559D01*
X214981857Y-129913559D01*
X214509952Y-130904559D02*
X214509952Y-129913559D01*
X214274000Y-129913559D01*
X214132428Y-129960750D01*
X214038047Y-130055130D01*
X213990857Y-130149511D01*
X213943666Y-130338273D01*
X213943666Y-130479845D01*
X213990857Y-130668607D01*
X214038047Y-130762988D01*
X214132428Y-130857369D01*
X214274000Y-130904559D01*
X214509952Y-130904559D01*
X216586333Y-131550059D02*
X216256000Y-132541059D01*
X215925666Y-131550059D01*
X215029047Y-132446678D02*
X215076238Y-132493869D01*
X215217809Y-132541059D01*
X215312190Y-132541059D01*
X215453761Y-132493869D01*
X215548142Y-132399488D01*
X215595333Y-132305107D01*
X215642523Y-132116345D01*
X215642523Y-131974773D01*
X215595333Y-131786011D01*
X215548142Y-131691630D01*
X215453761Y-131597250D01*
X215312190Y-131550059D01*
X215217809Y-131550059D01*
X215076238Y-131597250D01*
X215029047Y-131644440D01*
X214038047Y-132446678D02*
X214085238Y-132493869D01*
X214226809Y-132541059D01*
X214321190Y-132541059D01*
X214462761Y-132493869D01*
X214557142Y-132399488D01*
X214604333Y-132305107D01*
X214651523Y-132116345D01*
X214651523Y-131974773D01*
X214604333Y-131786011D01*
X214557142Y-131691630D01*
X214462761Y-131597250D01*
X214321190Y-131550059D01*
X214226809Y-131550059D01*
X214085238Y-131597250D01*
X214038047Y-131644440D01*
D13*
X212385714Y-138021428D02*
X212385714Y-140207142D01*
X212257142Y-140464285D01*
X212128571Y-140592857D01*
X211871428Y-140721428D01*
X211357142Y-140721428D01*
X211100000Y-140592857D01*
X210971428Y-140464285D01*
X210842857Y-140207142D01*
X210842857Y-138021428D01*
X208014285Y-140464285D02*
X208142857Y-140592857D01*
X208528571Y-140721428D01*
X208785714Y-140721428D01*
X209171428Y-140592857D01*
X209428571Y-140335714D01*
X209557142Y-140078571D01*
X209685714Y-139564285D01*
X209685714Y-139178571D01*
X209557142Y-138664285D01*
X209428571Y-138407142D01*
X209171428Y-138150000D01*
X208785714Y-138021428D01*
X208528571Y-138021428D01*
X208142857Y-138150000D01*
X208014285Y-138278571D01*
X206342857Y-138021428D02*
X205828571Y-138021428D01*
X205571428Y-138150000D01*
X205314285Y-138407142D01*
X205185714Y-138921428D01*
X205185714Y-139821428D01*
X205314285Y-140335714D01*
X205571428Y-140592857D01*
X205828571Y-140721428D01*
X206342857Y-140721428D01*
X206600000Y-140592857D01*
X206857142Y-140335714D01*
X206985714Y-139821428D01*
X206985714Y-138921428D01*
X206857142Y-138407142D01*
X206600000Y-138150000D01*
X206342857Y-138021428D01*
X204028571Y-140721428D02*
X204028571Y-138021428D01*
X202485714Y-140721428D01*
X202485714Y-138021428D01*
X201200000Y-140721428D02*
X201200000Y-138021428D01*
X199657142Y-140721428D01*
X199657142Y-138021428D01*
X195414285Y-139307142D02*
X196314285Y-139307142D01*
X196314285Y-140721428D02*
X196314285Y-138021428D01*
X195028571Y-138021428D01*
X194128571Y-140592857D02*
X193742857Y-140721428D01*
X193100000Y-140721428D01*
X192842857Y-140592857D01*
X192714285Y-140464285D01*
X192585714Y-140207142D01*
X192585714Y-139950000D01*
X192714285Y-139692857D01*
X192842857Y-139564285D01*
X193100000Y-139435714D01*
X193614285Y-139307142D01*
X193871428Y-139178571D01*
X194000000Y-139050000D01*
X194128571Y-138792857D01*
X194128571Y-138535714D01*
X194000000Y-138278571D01*
X193871428Y-138150000D01*
X193614285Y-138021428D01*
X192971428Y-138021428D01*
X192585714Y-138150000D01*
X191557142Y-139950000D02*
X190271428Y-139950000D01*
X191814285Y-140721428D02*
X190914285Y-138021428D01*
X190014285Y-140721428D01*
X189114285Y-139307142D02*
X188214285Y-139307142D01*
X187828571Y-140721428D02*
X189114285Y-140721428D01*
X189114285Y-138021428D01*
X187828571Y-138021428D01*
X184742857Y-138278571D02*
X184614285Y-138150000D01*
X184357142Y-138021428D01*
X183714285Y-138021428D01*
X183457142Y-138150000D01*
X183328571Y-138278571D01*
X183200000Y-138535714D01*
X183200000Y-138792857D01*
X183328571Y-139178571D01*
X184871428Y-140721428D01*
X183200000Y-140721428D01*
X181528571Y-138021428D02*
X181271428Y-138021428D01*
X181014285Y-138150000D01*
X180885714Y-138278571D01*
X180757142Y-138535714D01*
X180628571Y-139050000D01*
X180628571Y-139692857D01*
X180757142Y-140207142D01*
X180885714Y-140464285D01*
X181014285Y-140592857D01*
X181271428Y-140721428D01*
X181528571Y-140721428D01*
X181785714Y-140592857D01*
X181914285Y-140464285D01*
X182042857Y-140207142D01*
X182171428Y-139692857D01*
X182171428Y-139050000D01*
X182042857Y-138535714D01*
X181914285Y-138278571D01*
X181785714Y-138150000D01*
X181528571Y-138021428D01*
X179600000Y-138278571D02*
X179471428Y-138150000D01*
X179214285Y-138021428D01*
X178571428Y-138021428D01*
X178314285Y-138150000D01*
X178185714Y-138278571D01*
X178057142Y-138535714D01*
X178057142Y-138792857D01*
X178185714Y-139178571D01*
X179728571Y-140721428D01*
X178057142Y-140721428D01*
X176385714Y-138021428D02*
X176128571Y-138021428D01*
X175871428Y-138150000D01*
X175742857Y-138278571D01*
X175614285Y-138535714D01*
X175485714Y-139050000D01*
X175485714Y-139692857D01*
X175614285Y-140207142D01*
X175742857Y-140464285D01*
X175871428Y-140592857D01*
X176128571Y-140721428D01*
X176385714Y-140721428D01*
X176642857Y-140592857D01*
X176771428Y-140464285D01*
X176900000Y-140207142D01*
X177028571Y-139692857D01*
X177028571Y-139050000D01*
X176900000Y-138535714D01*
X176771428Y-138278571D01*
X176642857Y-138150000D01*
X176385714Y-138021428D01*
D10*
X201325000Y-122750000D02*
X202400000Y-122750000D01*
X201325000Y-132525800D02*
X196675000Y-132525800D01*
X201325000Y-122525000D02*
X196675000Y-122525000D01*
X201325000Y-132525800D02*
X201325000Y-132200800D01*
X196675000Y-132525800D02*
X196675000Y-132200800D01*
X196675000Y-122525000D02*
X196675000Y-122850000D01*
X201325000Y-122525000D02*
X201325000Y-122750000D01*
D14*
X210600000Y-131100000D02*
X210600000Y-130400000D01*
X209400000Y-130400000D02*
X209400000Y-131100000D01*
X205650000Y-122150000D02*
X205650000Y-122850000D01*
X206850000Y-122850000D02*
X206850000Y-122150000D01*
X204850000Y-122850000D02*
X204850000Y-122150000D01*
X203650000Y-122150000D02*
X203650000Y-122850000D01*
D10*
X222550000Y-138190000D02*
X222550000Y-118020000D01*
X222550000Y-118020000D02*
X225730000Y-118020000D01*
X225730000Y-138190000D02*
X225730000Y-118020000D01*
X222550000Y-138190000D02*
X225730000Y-138190000D01*
X221151000Y-137381000D02*
X222548000Y-137381000D01*
X221151000Y-136619000D02*
X222548000Y-136619000D01*
X221151000Y-137381000D02*
X221151000Y-136619000D01*
X221151000Y-134841000D02*
X222548000Y-134841000D01*
X221151000Y-134841000D02*
X221151000Y-134079000D01*
X221151000Y-134079000D02*
X222548000Y-134079000D01*
X221151000Y-132301000D02*
X221151000Y-131539000D01*
X221151000Y-132301000D02*
X222548000Y-132301000D01*
X221151000Y-131539000D02*
X222548000Y-131539000D01*
X221151000Y-129761000D02*
X222548000Y-129761000D01*
X221151000Y-129761000D02*
X221151000Y-128999000D01*
X221151000Y-128999000D02*
X222548000Y-128999000D01*
X221151000Y-127221000D02*
X222548000Y-127221000D01*
X221151000Y-127221000D02*
X221151000Y-126459000D01*
X221151000Y-126459000D02*
X222548000Y-126459000D01*
X221151000Y-123919000D02*
X222548000Y-123919000D01*
X221151000Y-124681000D02*
X222548000Y-124681000D01*
X221151000Y-124681000D02*
X221151000Y-123919000D01*
X221151000Y-122141000D02*
X221151000Y-121379000D01*
X221151000Y-122141000D02*
X222548000Y-122141000D01*
X221151000Y-121379000D02*
X222548000Y-121379000D01*
X221151000Y-118839000D02*
X222548000Y-118839000D01*
X221151000Y-119601000D02*
X221151000Y-118839000D01*
X221151000Y-119601000D02*
X222548000Y-119601000D01*
X225723000Y-137762000D02*
X228136000Y-137762000D01*
X228136000Y-137762000D02*
X228136000Y-128491000D01*
X228136000Y-128491000D02*
X225723000Y-128491000D01*
X225723000Y-127856000D02*
X228136000Y-127856000D01*
X228136000Y-127856000D02*
X228136000Y-118458000D01*
X228136000Y-118458000D02*
X225723000Y-118458000D01*
D14*
X182930000Y-118000000D02*
X182930000Y-117000000D01*
X181570000Y-117000000D02*
X181570000Y-118000000D01*
X179070000Y-117000000D02*
X179070000Y-118000000D01*
X180430000Y-118000000D02*
X180430000Y-117000000D01*
X181570000Y-130750000D02*
X181570000Y-131750000D01*
X182930000Y-131750000D02*
X182930000Y-130750000D01*
X187930000Y-131750000D02*
X187930000Y-130750000D01*
X186570000Y-130750000D02*
X186570000Y-131750000D01*
X190680000Y-131750000D02*
X190680000Y-130750000D01*
X189320000Y-130750000D02*
X189320000Y-131750000D01*
X187930000Y-118000000D02*
X187930000Y-117000000D01*
X186570000Y-117000000D02*
X186570000Y-118000000D01*
X189070000Y-117000000D02*
X189070000Y-118000000D01*
X190430000Y-118000000D02*
X190430000Y-117000000D01*
D10*
X199761904Y-121052380D02*
X199761904Y-121861904D01*
X199714285Y-121957142D01*
X199666666Y-122004761D01*
X199571428Y-122052380D01*
X199380952Y-122052380D01*
X199285714Y-122004761D01*
X199238095Y-121957142D01*
X199190476Y-121861904D01*
X199190476Y-121052380D01*
X198190476Y-122052380D02*
X198761904Y-122052380D01*
X198476190Y-122052380D02*
X198476190Y-121052380D01*
X198571428Y-121195238D01*
X198666666Y-121290476D01*
X198761904Y-121338095D01*
X210166666Y-128857142D02*
X210214285Y-128904761D01*
X210357142Y-128952380D01*
X210452380Y-128952380D01*
X210595238Y-128904761D01*
X210690476Y-128809523D01*
X210738095Y-128714285D01*
X210785714Y-128523809D01*
X210785714Y-128380952D01*
X210738095Y-128190476D01*
X210690476Y-128095238D01*
X210595238Y-128000000D01*
X210452380Y-127952380D01*
X210357142Y-127952380D01*
X210214285Y-128000000D01*
X210166666Y-128047619D01*
X209833333Y-127952380D02*
X209214285Y-127952380D01*
X209547619Y-128333333D01*
X209404761Y-128333333D01*
X209309523Y-128380952D01*
X209261904Y-128428571D01*
X209214285Y-128523809D01*
X209214285Y-128761904D01*
X209261904Y-128857142D01*
X209309523Y-128904761D01*
X209404761Y-128952380D01*
X209690476Y-128952380D01*
X209785714Y-128904761D01*
X209833333Y-128857142D01*
X206666666Y-120607142D02*
X206714285Y-120654761D01*
X206857142Y-120702380D01*
X206952380Y-120702380D01*
X207095238Y-120654761D01*
X207190476Y-120559523D01*
X207238095Y-120464285D01*
X207285714Y-120273809D01*
X207285714Y-120130952D01*
X207238095Y-119940476D01*
X207190476Y-119845238D01*
X207095238Y-119750000D01*
X206952380Y-119702380D01*
X206857142Y-119702380D01*
X206714285Y-119750000D01*
X206666666Y-119797619D01*
X206333333Y-119702380D02*
X205666666Y-119702380D01*
X206095238Y-120702380D01*
X204166666Y-120607142D02*
X204214285Y-120654761D01*
X204357142Y-120702380D01*
X204452380Y-120702380D01*
X204595238Y-120654761D01*
X204690476Y-120559523D01*
X204738095Y-120464285D01*
X204785714Y-120273809D01*
X204785714Y-120130952D01*
X204738095Y-119940476D01*
X204690476Y-119845238D01*
X204595238Y-119750000D01*
X204452380Y-119702380D01*
X204357142Y-119702380D01*
X204214285Y-119750000D01*
X204166666Y-119797619D01*
X203595238Y-120130952D02*
X203690476Y-120083333D01*
X203738095Y-120035714D01*
X203785714Y-119940476D01*
X203785714Y-119892857D01*
X203738095Y-119797619D01*
X203690476Y-119750000D01*
X203595238Y-119702380D01*
X203404761Y-119702380D01*
X203309523Y-119750000D01*
X203261904Y-119797619D01*
X203214285Y-119892857D01*
X203214285Y-119940476D01*
X203261904Y-120035714D01*
X203309523Y-120083333D01*
X203404761Y-120130952D01*
X203595238Y-120130952D01*
X203690476Y-120178571D01*
X203738095Y-120226190D01*
X203785714Y-120321428D01*
X203785714Y-120511904D01*
X203738095Y-120607142D01*
X203690476Y-120654761D01*
X203595238Y-120702380D01*
X203404761Y-120702380D01*
X203309523Y-120654761D01*
X203261904Y-120607142D01*
X203214285Y-120511904D01*
X203214285Y-120321428D01*
X203261904Y-120226190D01*
X203309523Y-120178571D01*
X203404761Y-120130952D01*
D12*
X224655000Y-114748571D02*
X224655000Y-115820000D01*
X224726428Y-116034285D01*
X224869285Y-116177142D01*
X225083571Y-116248571D01*
X225226428Y-116248571D01*
X223155000Y-116248571D02*
X224012142Y-116248571D01*
X223583571Y-116248571D02*
X223583571Y-114748571D01*
X223726428Y-114962857D01*
X223869285Y-115105714D01*
X224012142Y-115177142D01*
D10*
X183142857Y-115952380D02*
X183476190Y-115476190D01*
X183714285Y-115952380D02*
X183714285Y-114952380D01*
X183333333Y-114952380D01*
X183238095Y-115000000D01*
X183190476Y-115047619D01*
X183142857Y-115142857D01*
X183142857Y-115285714D01*
X183190476Y-115380952D01*
X183238095Y-115428571D01*
X183333333Y-115476190D01*
X183714285Y-115476190D01*
X182190476Y-115952380D02*
X182761904Y-115952380D01*
X182476190Y-115952380D02*
X182476190Y-114952380D01*
X182571428Y-115095238D01*
X182666666Y-115190476D01*
X182761904Y-115238095D01*
X181238095Y-115952380D02*
X181809523Y-115952380D01*
X181523809Y-115952380D02*
X181523809Y-114952380D01*
X181619047Y-115095238D01*
X181714285Y-115190476D01*
X181809523Y-115238095D01*
X179892857Y-115952380D02*
X180226190Y-115476190D01*
X180464285Y-115952380D02*
X180464285Y-114952380D01*
X180083333Y-114952380D01*
X179988095Y-115000000D01*
X179940476Y-115047619D01*
X179892857Y-115142857D01*
X179892857Y-115285714D01*
X179940476Y-115380952D01*
X179988095Y-115428571D01*
X180083333Y-115476190D01*
X180464285Y-115476190D01*
X178940476Y-115952380D02*
X179511904Y-115952380D01*
X179226190Y-115952380D02*
X179226190Y-114952380D01*
X179321428Y-115095238D01*
X179416666Y-115190476D01*
X179511904Y-115238095D01*
X178559523Y-115047619D02*
X178511904Y-115000000D01*
X178416666Y-114952380D01*
X178178571Y-114952380D01*
X178083333Y-115000000D01*
X178035714Y-115047619D01*
X177988095Y-115142857D01*
X177988095Y-115238095D01*
X178035714Y-115380952D01*
X178607142Y-115952380D01*
X177988095Y-115952380D01*
X182142857Y-133952380D02*
X182476190Y-133476190D01*
X182714285Y-133952380D02*
X182714285Y-132952380D01*
X182333333Y-132952380D01*
X182238095Y-133000000D01*
X182190476Y-133047619D01*
X182142857Y-133142857D01*
X182142857Y-133285714D01*
X182190476Y-133380952D01*
X182238095Y-133428571D01*
X182333333Y-133476190D01*
X182714285Y-133476190D01*
X181190476Y-133952380D02*
X181761904Y-133952380D01*
X181476190Y-133952380D02*
X181476190Y-132952380D01*
X181571428Y-133095238D01*
X181666666Y-133190476D01*
X181761904Y-133238095D01*
X180857142Y-132952380D02*
X180238095Y-132952380D01*
X180571428Y-133333333D01*
X180428571Y-133333333D01*
X180333333Y-133380952D01*
X180285714Y-133428571D01*
X180238095Y-133523809D01*
X180238095Y-133761904D01*
X180285714Y-133857142D01*
X180333333Y-133904761D01*
X180428571Y-133952380D01*
X180714285Y-133952380D01*
X180809523Y-133904761D01*
X180857142Y-133857142D01*
X187392857Y-133952380D02*
X187726190Y-133476190D01*
X187964285Y-133952380D02*
X187964285Y-132952380D01*
X187583333Y-132952380D01*
X187488095Y-133000000D01*
X187440476Y-133047619D01*
X187392857Y-133142857D01*
X187392857Y-133285714D01*
X187440476Y-133380952D01*
X187488095Y-133428571D01*
X187583333Y-133476190D01*
X187964285Y-133476190D01*
X186440476Y-133952380D02*
X187011904Y-133952380D01*
X186726190Y-133952380D02*
X186726190Y-132952380D01*
X186821428Y-133095238D01*
X186916666Y-133190476D01*
X187011904Y-133238095D01*
X185583333Y-133285714D02*
X185583333Y-133952380D01*
X185821428Y-132904761D02*
X186059523Y-133619047D01*
X185440476Y-133619047D01*
X191392857Y-133952380D02*
X191726190Y-133476190D01*
X191964285Y-133952380D02*
X191964285Y-132952380D01*
X191583333Y-132952380D01*
X191488095Y-133000000D01*
X191440476Y-133047619D01*
X191392857Y-133142857D01*
X191392857Y-133285714D01*
X191440476Y-133380952D01*
X191488095Y-133428571D01*
X191583333Y-133476190D01*
X191964285Y-133476190D01*
X190440476Y-133952380D02*
X191011904Y-133952380D01*
X190726190Y-133952380D02*
X190726190Y-132952380D01*
X190821428Y-133095238D01*
X190916666Y-133190476D01*
X191011904Y-133238095D01*
X189535714Y-132952380D02*
X190011904Y-132952380D01*
X190059523Y-133428571D01*
X190011904Y-133380952D01*
X189916666Y-133333333D01*
X189678571Y-133333333D01*
X189583333Y-133380952D01*
X189535714Y-133428571D01*
X189488095Y-133523809D01*
X189488095Y-133761904D01*
X189535714Y-133857142D01*
X189583333Y-133904761D01*
X189678571Y-133952380D01*
X189916666Y-133952380D01*
X190011904Y-133904761D01*
X190059523Y-133857142D01*
X187392857Y-115952380D02*
X187726190Y-115476190D01*
X187964285Y-115952380D02*
X187964285Y-114952380D01*
X187583333Y-114952380D01*
X187488095Y-115000000D01*
X187440476Y-115047619D01*
X187392857Y-115142857D01*
X187392857Y-115285714D01*
X187440476Y-115380952D01*
X187488095Y-115428571D01*
X187583333Y-115476190D01*
X187964285Y-115476190D01*
X186440476Y-115952380D02*
X187011904Y-115952380D01*
X186726190Y-115952380D02*
X186726190Y-114952380D01*
X186821428Y-115095238D01*
X186916666Y-115190476D01*
X187011904Y-115238095D01*
X185583333Y-114952380D02*
X185773809Y-114952380D01*
X185869047Y-115000000D01*
X185916666Y-115047619D01*
X186011904Y-115190476D01*
X186059523Y-115380952D01*
X186059523Y-115761904D01*
X186011904Y-115857142D01*
X185964285Y-115904761D01*
X185869047Y-115952380D01*
X185678571Y-115952380D01*
X185583333Y-115904761D01*
X185535714Y-115857142D01*
X185488095Y-115761904D01*
X185488095Y-115523809D01*
X185535714Y-115428571D01*
X185583333Y-115380952D01*
X185678571Y-115333333D01*
X185869047Y-115333333D01*
X185964285Y-115380952D01*
X186011904Y-115428571D01*
X186059523Y-115523809D01*
X190892857Y-115952380D02*
X191226190Y-115476190D01*
X191464285Y-115952380D02*
X191464285Y-114952380D01*
X191083333Y-114952380D01*
X190988095Y-115000000D01*
X190940476Y-115047619D01*
X190892857Y-115142857D01*
X190892857Y-115285714D01*
X190940476Y-115380952D01*
X190988095Y-115428571D01*
X191083333Y-115476190D01*
X191464285Y-115476190D01*
X189940476Y-115952380D02*
X190511904Y-115952380D01*
X190226190Y-115952380D02*
X190226190Y-114952380D01*
X190321428Y-115095238D01*
X190416666Y-115190476D01*
X190511904Y-115238095D01*
X189607142Y-114952380D02*
X188940476Y-114952380D01*
X189369047Y-115952380D01*
%LPC*%
D15*
X196150000Y-123275000D03*
X196150000Y-123925000D03*
X196150000Y-124575000D03*
X196150000Y-125225000D03*
X196150000Y-125875000D03*
X196150000Y-126525000D03*
X196150000Y-127175000D03*
X196150000Y-127825000D03*
X196150000Y-128475000D03*
X196150000Y-129125000D03*
X196150000Y-129775000D03*
X196150000Y-130425000D03*
X196150000Y-131075000D03*
X196150000Y-131725000D03*
X201850000Y-131725000D03*
X201850000Y-131075000D03*
X201850000Y-130425000D03*
X201850000Y-129775000D03*
X201850000Y-129125000D03*
X201850000Y-128475000D03*
X201850000Y-127825000D03*
X201850000Y-127175000D03*
X201850000Y-126525000D03*
X201850000Y-125875000D03*
X201850000Y-125225000D03*
X201850000Y-124575000D03*
X201850000Y-123925000D03*
X201850000Y-123275000D03*
D16*
X199000000Y-125595000D03*
X199000000Y-129405000D03*
D17*
X216000000Y-116000000D03*
X172000000Y-116000000D03*
X216000000Y-140000000D03*
X172000000Y-140000000D03*
D18*
X210000000Y-131500000D03*
X210000000Y-130000000D03*
X206250000Y-121750000D03*
X206250000Y-123250000D03*
X204250000Y-123250000D03*
X204250000Y-121750000D03*
D19*
X219500000Y-119220000D03*
X219500000Y-121760000D03*
X219500000Y-124300000D03*
X219500000Y-126840000D03*
X219500000Y-129380000D03*
X219500000Y-131920000D03*
X219500000Y-134460000D03*
D20*
X219500000Y-137000000D03*
D21*
X182250000Y-116750000D03*
X182250000Y-118250000D03*
X179750000Y-118250000D03*
X179750000Y-116750000D03*
X182250000Y-132000000D03*
X182250000Y-130500000D03*
X187250000Y-130500000D03*
X187250000Y-132000000D03*
X190000000Y-130500000D03*
X190000000Y-132000000D03*
X187250000Y-116750000D03*
X187250000Y-118250000D03*
X189750000Y-118250000D03*
X189750000Y-116750000D03*
M02*
