G04 #@! TF.GenerationSoftware,KiCad,Pcbnew,(5.0.2)-1*
G04 #@! TF.CreationDate,2019-03-20T17:30:19-04:00*
G04 #@! TF.ProjectId,Dash_Warning_Panel,44617368-5f57-4617-926e-696e675f5061,rev?*
G04 #@! TF.SameCoordinates,Original*
G04 #@! TF.FileFunction,Paste,Top*
G04 #@! TF.FilePolarity,Positive*
%FSLAX46Y46*%
G04 Gerber Fmt 4.6, Leading zero omitted, Abs format (unit mm)*
G04 Created by KiCad (PCBNEW (5.0.2)-1) date 3/20/2019 5:30:19 PM*
%MOMM*%
%LPD*%
G01*
G04 APERTURE LIST*
%ADD10R,0.250000X0.700000*%
%ADD11R,0.700000X0.250000*%
%ADD12R,0.772500X0.772500*%
%ADD13R,1.000000X1.600000*%
%ADD14R,1.600000X1.000000*%
%ADD15R,1.200000X1.200000*%
%ADD16R,0.900000X1.700000*%
%ADD17R,1.060000X0.650000*%
%ADD18R,1.250000X1.000000*%
%ADD19R,0.700000X1.300000*%
%ADD20R,0.900000X0.550000*%
%ADD21R,1.000000X1.250000*%
G04 APERTURE END LIST*
D10*
G04 #@! TO.C,U1*
X217275000Y-128175000D03*
X216775000Y-128175000D03*
X216275000Y-128175000D03*
X215775000Y-128175000D03*
X215275000Y-128175000D03*
X214775000Y-128175000D03*
X214275000Y-128175000D03*
X213775000Y-128175000D03*
X213275000Y-128175000D03*
X212775000Y-128175000D03*
X212275000Y-128175000D03*
X211775000Y-128175000D03*
D11*
X211125000Y-128825000D03*
X211125000Y-129325000D03*
X211125000Y-129825000D03*
X211125000Y-130325000D03*
X211125000Y-130825000D03*
X211125000Y-131325000D03*
X211125000Y-131825000D03*
X211125000Y-132325000D03*
X211125000Y-132825000D03*
X211125000Y-133325000D03*
X211125000Y-133825000D03*
X211125000Y-134325000D03*
D10*
X211775000Y-134975000D03*
X212275000Y-134975000D03*
X212775000Y-134975000D03*
X213275000Y-134975000D03*
X213775000Y-134975000D03*
X214275000Y-134975000D03*
X214775000Y-134975000D03*
X215275000Y-134975000D03*
X215775000Y-134975000D03*
X216275000Y-134975000D03*
X216775000Y-134975000D03*
X217275000Y-134975000D03*
D11*
X217925000Y-134325000D03*
X217925000Y-133825000D03*
X217925000Y-133325000D03*
X217925000Y-132825000D03*
X217925000Y-132325000D03*
X217925000Y-131825000D03*
X217925000Y-131325000D03*
X217925000Y-130825000D03*
X217925000Y-130325000D03*
X217925000Y-129825000D03*
X217925000Y-129325000D03*
X217925000Y-128825000D03*
D12*
X212593750Y-133506250D03*
X213881250Y-133506250D03*
X215168750Y-133506250D03*
X216456250Y-133506250D03*
X212593750Y-132218750D03*
X213881250Y-132218750D03*
X215168750Y-132218750D03*
X216456250Y-132218750D03*
X212593750Y-130931250D03*
X213881250Y-130931250D03*
X215168750Y-130931250D03*
X216456250Y-130931250D03*
X212593750Y-129643750D03*
X213881250Y-129643750D03*
X215168750Y-129643750D03*
X216456250Y-129643750D03*
G04 #@! TD*
D13*
G04 #@! TO.C,C2*
X208700000Y-111800000D03*
X211700000Y-111800000D03*
G04 #@! TD*
G04 #@! TO.C,C3*
X201500000Y-121500000D03*
X198500000Y-121500000D03*
G04 #@! TD*
G04 #@! TO.C,C4*
X207700000Y-135700000D03*
X204700000Y-135700000D03*
G04 #@! TD*
D14*
G04 #@! TO.C,C7*
X218700000Y-118100000D03*
X218700000Y-115100000D03*
G04 #@! TD*
D15*
G04 #@! TO.C,D9*
X183100000Y-116000000D03*
X180900000Y-116000000D03*
G04 #@! TD*
D16*
G04 #@! TO.C,R1*
X220350000Y-135700000D03*
X223250000Y-135700000D03*
G04 #@! TD*
G04 #@! TO.C,R2*
X223250000Y-138400000D03*
X220350000Y-138400000D03*
G04 #@! TD*
G04 #@! TO.C,R3*
X220350000Y-141200000D03*
X223250000Y-141200000D03*
G04 #@! TD*
G04 #@! TO.C,R6*
X213650000Y-114700000D03*
X210750000Y-114700000D03*
G04 #@! TD*
D17*
G04 #@! TO.C,U2*
X213400000Y-121750000D03*
X213400000Y-120800000D03*
X213400000Y-119850000D03*
X211200000Y-119850000D03*
X211200000Y-121750000D03*
X211200000Y-120800000D03*
G04 #@! TD*
D18*
G04 #@! TO.C,C5*
X216000000Y-121300000D03*
X216000000Y-119300000D03*
G04 #@! TD*
G04 #@! TO.C,C1*
X219800000Y-129300000D03*
X219800000Y-127300000D03*
G04 #@! TD*
D19*
G04 #@! TO.C,R5*
X206850000Y-120300000D03*
X208750000Y-120300000D03*
G04 #@! TD*
G04 #@! TO.C,R4*
X181050000Y-120500000D03*
X182950000Y-120500000D03*
G04 #@! TD*
D20*
G04 #@! TO.C,D8*
X204650000Y-139100000D03*
X207350000Y-139100000D03*
X204650000Y-139950000D03*
X207350000Y-139950000D03*
X204650000Y-140800000D03*
X207350000Y-140800000D03*
G04 #@! TD*
G04 #@! TO.C,D7*
X192650000Y-139100000D03*
X195350000Y-139100000D03*
X192650000Y-139950000D03*
X195350000Y-139950000D03*
X192650000Y-140800000D03*
X195350000Y-140800000D03*
G04 #@! TD*
G04 #@! TO.C,D6*
X180650000Y-139100000D03*
X183350000Y-139100000D03*
X180650000Y-139950000D03*
X183350000Y-139950000D03*
X180650000Y-140800000D03*
X183350000Y-140800000D03*
G04 #@! TD*
G04 #@! TO.C,D5*
X204650000Y-127100000D03*
X207350000Y-127100000D03*
X204650000Y-127950000D03*
X207350000Y-127950000D03*
X204650000Y-128800000D03*
X207350000Y-128800000D03*
G04 #@! TD*
G04 #@! TO.C,D4*
X192650000Y-127100000D03*
X195350000Y-127100000D03*
X192650000Y-127950000D03*
X195350000Y-127950000D03*
X192650000Y-128800000D03*
X195350000Y-128800000D03*
G04 #@! TD*
G04 #@! TO.C,D3*
X180650000Y-127100000D03*
X183350000Y-127100000D03*
X180650000Y-127950000D03*
X183350000Y-127950000D03*
X180650000Y-128800000D03*
X183350000Y-128800000D03*
G04 #@! TD*
G04 #@! TO.C,D2*
X204650000Y-115100000D03*
X207350000Y-115100000D03*
X204650000Y-115950000D03*
X207350000Y-115950000D03*
X204650000Y-116800000D03*
X207350000Y-116800000D03*
G04 #@! TD*
G04 #@! TO.C,D1*
X192650000Y-115100000D03*
X195350000Y-115100000D03*
X192650000Y-115950000D03*
X195350000Y-115950000D03*
X192650000Y-116800000D03*
X195350000Y-116800000D03*
G04 #@! TD*
D21*
G04 #@! TO.C,C6*
X213200000Y-117400000D03*
X211200000Y-117400000D03*
G04 #@! TD*
M02*
