G04 #@! TF.FileFunction,Other,Comment*
%FSLAX46Y46*%
G04 Gerber Fmt 4.6, Leading zero omitted, Abs format (unit mm)*
G04 Created by KiCad (PCBNEW 4.0.7) date 10/18/18 13:28:54*
%MOMM*%
%LPD*%
G01*
G04 APERTURE LIST*
%ADD10C,0.100000*%
%ADD11C,0.200000*%
%ADD12C,0.300000*%
%ADD13C,0.150000*%
G04 APERTURE END LIST*
D10*
D11*
X174000000Y-113000000D02*
X214000000Y-113000000D01*
X216000000Y-143000000D02*
X216000000Y-113000000D01*
X172000000Y-143000000D02*
X216000000Y-143000000D01*
X172000000Y-113000000D02*
X172000000Y-143000000D01*
D12*
X193500001Y-155528570D02*
X193214287Y-155528570D01*
X193071430Y-155599999D01*
X193000001Y-155671428D01*
X192857144Y-155885713D01*
X192785715Y-156171428D01*
X192785715Y-156742856D01*
X192857144Y-156885713D01*
X192928572Y-156957142D01*
X193071430Y-157028570D01*
X193357144Y-157028570D01*
X193500001Y-156957142D01*
X193571430Y-156885713D01*
X193642858Y-156742856D01*
X193642858Y-156385713D01*
X193571430Y-156242856D01*
X193500001Y-156171428D01*
X193357144Y-156099999D01*
X193071430Y-156099999D01*
X192928572Y-156171428D01*
X192857144Y-156242856D01*
X192785715Y-156385713D01*
X194571429Y-155528570D02*
X194714286Y-155528570D01*
X194857143Y-155599999D01*
X194928572Y-155671428D01*
X195000001Y-155814285D01*
X195071429Y-156099999D01*
X195071429Y-156457142D01*
X195000001Y-156742856D01*
X194928572Y-156885713D01*
X194857143Y-156957142D01*
X194714286Y-157028570D01*
X194571429Y-157028570D01*
X194428572Y-156957142D01*
X194357143Y-156885713D01*
X194285715Y-156742856D01*
X194214286Y-156457142D01*
X194214286Y-156099999D01*
X194285715Y-155814285D01*
X194357143Y-155671428D01*
X194428572Y-155599999D01*
X194571429Y-155528570D01*
X195714286Y-156885713D02*
X195785714Y-156957142D01*
X195714286Y-157028570D01*
X195642857Y-156957142D01*
X195714286Y-156885713D01*
X195714286Y-157028570D01*
X196714286Y-155528570D02*
X196857143Y-155528570D01*
X197000000Y-155599999D01*
X197071429Y-155671428D01*
X197142858Y-155814285D01*
X197214286Y-156099999D01*
X197214286Y-156457142D01*
X197142858Y-156742856D01*
X197071429Y-156885713D01*
X197000000Y-156957142D01*
X196857143Y-157028570D01*
X196714286Y-157028570D01*
X196571429Y-156957142D01*
X196500000Y-156885713D01*
X196428572Y-156742856D01*
X196357143Y-156457142D01*
X196357143Y-156099999D01*
X196428572Y-155814285D01*
X196500000Y-155671428D01*
X196571429Y-155599999D01*
X196714286Y-155528570D01*
X198142857Y-155528570D02*
X198285714Y-155528570D01*
X198428571Y-155599999D01*
X198500000Y-155671428D01*
X198571429Y-155814285D01*
X198642857Y-156099999D01*
X198642857Y-156457142D01*
X198571429Y-156742856D01*
X198500000Y-156885713D01*
X198428571Y-156957142D01*
X198285714Y-157028570D01*
X198142857Y-157028570D01*
X198000000Y-156957142D01*
X197928571Y-156885713D01*
X197857143Y-156742856D01*
X197785714Y-156457142D01*
X197785714Y-156099999D01*
X197857143Y-155814285D01*
X197928571Y-155671428D01*
X198000000Y-155599999D01*
X198142857Y-155528570D01*
X199571428Y-155528570D02*
X199714285Y-155528570D01*
X199857142Y-155599999D01*
X199928571Y-155671428D01*
X200000000Y-155814285D01*
X200071428Y-156099999D01*
X200071428Y-156457142D01*
X200000000Y-156742856D01*
X199928571Y-156885713D01*
X199857142Y-156957142D01*
X199714285Y-157028570D01*
X199571428Y-157028570D01*
X199428571Y-156957142D01*
X199357142Y-156885713D01*
X199285714Y-156742856D01*
X199214285Y-156457142D01*
X199214285Y-156099999D01*
X199285714Y-155814285D01*
X199357142Y-155671428D01*
X199428571Y-155599999D01*
X199571428Y-155528570D01*
X201857142Y-157028570D02*
X201857142Y-156028570D01*
X201857142Y-156171428D02*
X201928570Y-156099999D01*
X202071428Y-156028570D01*
X202285713Y-156028570D01*
X202428570Y-156099999D01*
X202499999Y-156242856D01*
X202499999Y-157028570D01*
X202499999Y-156242856D02*
X202571428Y-156099999D01*
X202714285Y-156028570D01*
X202928570Y-156028570D01*
X203071428Y-156099999D01*
X203142856Y-156242856D01*
X203142856Y-157028570D01*
X203857142Y-157028570D02*
X203857142Y-156028570D01*
X203857142Y-156171428D02*
X203928570Y-156099999D01*
X204071428Y-156028570D01*
X204285713Y-156028570D01*
X204428570Y-156099999D01*
X204499999Y-156242856D01*
X204499999Y-157028570D01*
X204499999Y-156242856D02*
X204571428Y-156099999D01*
X204714285Y-156028570D01*
X204928570Y-156028570D01*
X205071428Y-156099999D01*
X205142856Y-156242856D01*
X205142856Y-157028570D01*
X169000000Y-154999999D02*
X229000000Y-154999999D01*
X169000000Y-143000000D02*
X169000000Y-157699999D01*
X229000000Y-143000000D02*
X229000000Y-157699999D01*
X229000000Y-154999999D02*
X227873496Y-155586420D01*
X229000000Y-154999999D02*
X227873496Y-154413578D01*
X169000000Y-154999999D02*
X170126504Y-155586420D01*
X169000000Y-154999999D02*
X170126504Y-154413578D01*
X216142858Y-152028570D02*
X215285715Y-152028570D01*
X215714287Y-152028570D02*
X215714287Y-150528570D01*
X215571430Y-150742856D01*
X215428572Y-150885713D01*
X215285715Y-150957142D01*
X217500001Y-150528570D02*
X216785715Y-150528570D01*
X216714286Y-151242856D01*
X216785715Y-151171428D01*
X216928572Y-151099999D01*
X217285715Y-151099999D01*
X217428572Y-151171428D01*
X217500001Y-151242856D01*
X217571429Y-151385713D01*
X217571429Y-151742856D01*
X217500001Y-151885713D01*
X217428572Y-151957142D01*
X217285715Y-152028570D01*
X216928572Y-152028570D01*
X216785715Y-151957142D01*
X216714286Y-151885713D01*
X218214286Y-151885713D02*
X218285714Y-151957142D01*
X218214286Y-152028570D01*
X218142857Y-151957142D01*
X218214286Y-151885713D01*
X218214286Y-152028570D01*
X219214286Y-150528570D02*
X219357143Y-150528570D01*
X219500000Y-150599999D01*
X219571429Y-150671428D01*
X219642858Y-150814285D01*
X219714286Y-151099999D01*
X219714286Y-151457142D01*
X219642858Y-151742856D01*
X219571429Y-151885713D01*
X219500000Y-151957142D01*
X219357143Y-152028570D01*
X219214286Y-152028570D01*
X219071429Y-151957142D01*
X219000000Y-151885713D01*
X218928572Y-151742856D01*
X218857143Y-151457142D01*
X218857143Y-151099999D01*
X218928572Y-150814285D01*
X219000000Y-150671428D01*
X219071429Y-150599999D01*
X219214286Y-150528570D01*
X220642857Y-150528570D02*
X220785714Y-150528570D01*
X220928571Y-150599999D01*
X221000000Y-150671428D01*
X221071429Y-150814285D01*
X221142857Y-151099999D01*
X221142857Y-151457142D01*
X221071429Y-151742856D01*
X221000000Y-151885713D01*
X220928571Y-151957142D01*
X220785714Y-152028570D01*
X220642857Y-152028570D01*
X220500000Y-151957142D01*
X220428571Y-151885713D01*
X220357143Y-151742856D01*
X220285714Y-151457142D01*
X220285714Y-151099999D01*
X220357143Y-150814285D01*
X220428571Y-150671428D01*
X220500000Y-150599999D01*
X220642857Y-150528570D01*
X222071428Y-150528570D02*
X222214285Y-150528570D01*
X222357142Y-150599999D01*
X222428571Y-150671428D01*
X222500000Y-150814285D01*
X222571428Y-151099999D01*
X222571428Y-151457142D01*
X222500000Y-151742856D01*
X222428571Y-151885713D01*
X222357142Y-151957142D01*
X222214285Y-152028570D01*
X222071428Y-152028570D01*
X221928571Y-151957142D01*
X221857142Y-151885713D01*
X221785714Y-151742856D01*
X221714285Y-151457142D01*
X221714285Y-151099999D01*
X221785714Y-150814285D01*
X221857142Y-150671428D01*
X221928571Y-150599999D01*
X222071428Y-150528570D01*
X224357142Y-152028570D02*
X224357142Y-151028570D01*
X224357142Y-151171428D02*
X224428570Y-151099999D01*
X224571428Y-151028570D01*
X224785713Y-151028570D01*
X224928570Y-151099999D01*
X224999999Y-151242856D01*
X224999999Y-152028570D01*
X224999999Y-151242856D02*
X225071428Y-151099999D01*
X225214285Y-151028570D01*
X225428570Y-151028570D01*
X225571428Y-151099999D01*
X225642856Y-151242856D01*
X225642856Y-152028570D01*
X226357142Y-152028570D02*
X226357142Y-151028570D01*
X226357142Y-151171428D02*
X226428570Y-151099999D01*
X226571428Y-151028570D01*
X226785713Y-151028570D01*
X226928570Y-151099999D01*
X226999999Y-151242856D01*
X226999999Y-152028570D01*
X226999999Y-151242856D02*
X227071428Y-151099999D01*
X227214285Y-151028570D01*
X227428570Y-151028570D01*
X227571428Y-151099999D01*
X227642856Y-151242856D01*
X227642856Y-152028570D01*
X214000000Y-149999999D02*
X229000000Y-149999999D01*
X214000000Y-143000000D02*
X214000000Y-152699999D01*
X229000000Y-143000000D02*
X229000000Y-152699999D01*
X229000000Y-149999999D02*
X227873496Y-150586420D01*
X229000000Y-149999999D02*
X227873496Y-149413578D01*
X214000000Y-149999999D02*
X215126504Y-150586420D01*
X214000000Y-149999999D02*
X215126504Y-149413578D01*
X162028572Y-148778571D02*
X162957143Y-148778571D01*
X162457143Y-149350000D01*
X162671429Y-149350000D01*
X162814286Y-149421429D01*
X162885715Y-149492857D01*
X162957143Y-149635714D01*
X162957143Y-149992857D01*
X162885715Y-150135714D01*
X162814286Y-150207143D01*
X162671429Y-150278571D01*
X162242857Y-150278571D01*
X162100000Y-150207143D01*
X162028572Y-150135714D01*
X164742857Y-150278571D02*
X164742857Y-149278571D01*
X164742857Y-149421429D02*
X164814285Y-149350000D01*
X164957143Y-149278571D01*
X165171428Y-149278571D01*
X165314285Y-149350000D01*
X165385714Y-149492857D01*
X165385714Y-150278571D01*
X165385714Y-149492857D02*
X165457143Y-149350000D01*
X165600000Y-149278571D01*
X165814285Y-149278571D01*
X165957143Y-149350000D01*
X166028571Y-149492857D01*
X166028571Y-150278571D01*
X166742857Y-150278571D02*
X166742857Y-149278571D01*
X166742857Y-149421429D02*
X166814285Y-149350000D01*
X166957143Y-149278571D01*
X167171428Y-149278571D01*
X167314285Y-149350000D01*
X167385714Y-149492857D01*
X167385714Y-150278571D01*
X167385714Y-149492857D02*
X167457143Y-149350000D01*
X167600000Y-149278571D01*
X167814285Y-149278571D01*
X167957143Y-149350000D01*
X168028571Y-149492857D01*
X168028571Y-150278571D01*
X172000000Y-149000000D02*
X169000000Y-149000000D01*
X172000000Y-143000000D02*
X172000000Y-151700000D01*
X169000000Y-143000000D02*
X169000000Y-151700000D01*
X169000000Y-149000000D02*
X170126504Y-148413579D01*
X169000000Y-149000000D02*
X170126504Y-149586421D01*
X172000000Y-149000000D02*
X170873496Y-148413579D01*
X172000000Y-149000000D02*
X170873496Y-149586421D01*
D11*
X172000000Y-116000000D02*
X216000000Y-116000000D01*
D12*
X174600000Y-148821429D02*
X174671429Y-148750000D01*
X174814286Y-148678571D01*
X175171429Y-148678571D01*
X175314286Y-148750000D01*
X175385715Y-148821429D01*
X175457143Y-148964286D01*
X175457143Y-149107143D01*
X175385715Y-149321429D01*
X174528572Y-150178571D01*
X175457143Y-150178571D01*
X177242857Y-150178571D02*
X177242857Y-149178571D01*
X177242857Y-149321429D02*
X177314285Y-149250000D01*
X177457143Y-149178571D01*
X177671428Y-149178571D01*
X177814285Y-149250000D01*
X177885714Y-149392857D01*
X177885714Y-150178571D01*
X177885714Y-149392857D02*
X177957143Y-149250000D01*
X178100000Y-149178571D01*
X178314285Y-149178571D01*
X178457143Y-149250000D01*
X178528571Y-149392857D01*
X178528571Y-150178571D01*
X179242857Y-150178571D02*
X179242857Y-149178571D01*
X179242857Y-149321429D02*
X179314285Y-149250000D01*
X179457143Y-149178571D01*
X179671428Y-149178571D01*
X179814285Y-149250000D01*
X179885714Y-149392857D01*
X179885714Y-150178571D01*
X179885714Y-149392857D02*
X179957143Y-149250000D01*
X180100000Y-149178571D01*
X180314285Y-149178571D01*
X180457143Y-149250000D01*
X180528571Y-149392857D01*
X180528571Y-150178571D01*
X172000000Y-149000000D02*
X174000000Y-149000000D01*
X172000000Y-143000000D02*
X172000000Y-151700000D01*
X174000000Y-143000000D02*
X174000000Y-151700000D01*
X174000000Y-149000000D02*
X172873496Y-149586421D01*
X174000000Y-149000000D02*
X172873496Y-148413579D01*
X172000000Y-149000000D02*
X173126504Y-149586421D01*
X172000000Y-149000000D02*
X173126504Y-148413579D01*
X166278571Y-122971428D02*
X166278571Y-122042857D01*
X166850000Y-122542857D01*
X166850000Y-122328571D01*
X166921429Y-122185714D01*
X166992857Y-122114285D01*
X167135714Y-122042857D01*
X167492857Y-122042857D01*
X167635714Y-122114285D01*
X167707143Y-122185714D01*
X167778571Y-122328571D01*
X167778571Y-122757143D01*
X167707143Y-122900000D01*
X167635714Y-122971428D01*
X167778571Y-120257143D02*
X166778571Y-120257143D01*
X166921429Y-120257143D02*
X166850000Y-120185715D01*
X166778571Y-120042857D01*
X166778571Y-119828572D01*
X166850000Y-119685715D01*
X166992857Y-119614286D01*
X167778571Y-119614286D01*
X166992857Y-119614286D02*
X166850000Y-119542857D01*
X166778571Y-119400000D01*
X166778571Y-119185715D01*
X166850000Y-119042857D01*
X166992857Y-118971429D01*
X167778571Y-118971429D01*
X167778571Y-118257143D02*
X166778571Y-118257143D01*
X166921429Y-118257143D02*
X166850000Y-118185715D01*
X166778571Y-118042857D01*
X166778571Y-117828572D01*
X166850000Y-117685715D01*
X166992857Y-117614286D01*
X167778571Y-117614286D01*
X166992857Y-117614286D02*
X166850000Y-117542857D01*
X166778571Y-117400000D01*
X166778571Y-117185715D01*
X166850000Y-117042857D01*
X166992857Y-116971429D01*
X167778571Y-116971429D01*
X167700000Y-116000000D02*
X167700000Y-113000000D01*
X172000000Y-116000000D02*
X165000000Y-116000000D01*
X172000000Y-113000000D02*
X165000000Y-113000000D01*
X167700000Y-113000000D02*
X168286421Y-114126504D01*
X167700000Y-113000000D02*
X167113579Y-114126504D01*
X167700000Y-116000000D02*
X168286421Y-114873496D01*
X167700000Y-116000000D02*
X167113579Y-114873496D01*
X216700000Y-110671429D02*
X216771429Y-110600000D01*
X216914286Y-110528571D01*
X217271429Y-110528571D01*
X217414286Y-110600000D01*
X217485715Y-110671429D01*
X217557143Y-110814286D01*
X217557143Y-110957143D01*
X217485715Y-111171429D01*
X216628572Y-112028571D01*
X217557143Y-112028571D01*
X219342857Y-112028571D02*
X219342857Y-111028571D01*
X219342857Y-111171429D02*
X219414285Y-111100000D01*
X219557143Y-111028571D01*
X219771428Y-111028571D01*
X219914285Y-111100000D01*
X219985714Y-111242857D01*
X219985714Y-112028571D01*
X219985714Y-111242857D02*
X220057143Y-111100000D01*
X220200000Y-111028571D01*
X220414285Y-111028571D01*
X220557143Y-111100000D01*
X220628571Y-111242857D01*
X220628571Y-112028571D01*
X221342857Y-112028571D02*
X221342857Y-111028571D01*
X221342857Y-111171429D02*
X221414285Y-111100000D01*
X221557143Y-111028571D01*
X221771428Y-111028571D01*
X221914285Y-111100000D01*
X221985714Y-111242857D01*
X221985714Y-112028571D01*
X221985714Y-111242857D02*
X222057143Y-111100000D01*
X222200000Y-111028571D01*
X222414285Y-111028571D01*
X222557143Y-111100000D01*
X222628571Y-111242857D01*
X222628571Y-112028571D01*
X216000000Y-106700000D02*
X214000000Y-106700000D01*
X216000000Y-113000000D02*
X216000000Y-104000000D01*
X214000000Y-113000000D02*
X214000000Y-104000000D01*
X214000000Y-106700000D02*
X215126504Y-106113579D01*
X214000000Y-106700000D02*
X215126504Y-107286421D01*
X216000000Y-106700000D02*
X214873496Y-106113579D01*
X216000000Y-106700000D02*
X214873496Y-107286421D01*
X157921429Y-134528572D02*
X159421429Y-134528572D01*
X158350000Y-135028572D01*
X159421429Y-135528572D01*
X157921429Y-135528572D01*
X159278571Y-136171429D02*
X159350000Y-136242858D01*
X159421429Y-136385715D01*
X159421429Y-136742858D01*
X159350000Y-136885715D01*
X159278571Y-136957144D01*
X159135714Y-137028572D01*
X158992857Y-137028572D01*
X158778571Y-136957144D01*
X157921429Y-136100001D01*
X157921429Y-137028572D01*
X159278571Y-138742857D02*
X159350000Y-138814286D01*
X159421429Y-138957143D01*
X159421429Y-139314286D01*
X159350000Y-139457143D01*
X159278571Y-139528572D01*
X159135714Y-139600000D01*
X158992857Y-139600000D01*
X158778571Y-139528572D01*
X157921429Y-138671429D01*
X157921429Y-139600000D01*
X158064286Y-140242857D02*
X157992857Y-140314285D01*
X157921429Y-140242857D01*
X157992857Y-140171428D01*
X158064286Y-140242857D01*
X157921429Y-140242857D01*
X159278571Y-140885714D02*
X159350000Y-140957143D01*
X159421429Y-141100000D01*
X159421429Y-141457143D01*
X159350000Y-141600000D01*
X159278571Y-141671429D01*
X159135714Y-141742857D01*
X158992857Y-141742857D01*
X158778571Y-141671429D01*
X157921429Y-140814286D01*
X157921429Y-141742857D01*
X157921429Y-142385714D02*
X158921429Y-142385714D01*
X158778571Y-142385714D02*
X158850000Y-142457142D01*
X158921429Y-142600000D01*
X158921429Y-142814285D01*
X158850000Y-142957142D01*
X158707143Y-143028571D01*
X157921429Y-143028571D01*
X158707143Y-143028571D02*
X158850000Y-143100000D01*
X158921429Y-143242857D01*
X158921429Y-143457142D01*
X158850000Y-143600000D01*
X158707143Y-143671428D01*
X157921429Y-143671428D01*
X157921429Y-144385714D02*
X158921429Y-144385714D01*
X158778571Y-144385714D02*
X158850000Y-144457142D01*
X158921429Y-144600000D01*
X158921429Y-144814285D01*
X158850000Y-144957142D01*
X158707143Y-145028571D01*
X157921429Y-145028571D01*
X158707143Y-145028571D02*
X158850000Y-145100000D01*
X158921429Y-145242857D01*
X158921429Y-145457142D01*
X158850000Y-145600000D01*
X158707143Y-145671428D01*
X157921429Y-145671428D01*
X160221429Y-131750001D02*
X161721429Y-131750001D01*
X161721429Y-132107144D01*
X161650000Y-132321429D01*
X161507143Y-132464287D01*
X161364286Y-132535715D01*
X161078571Y-132607144D01*
X160864286Y-132607144D01*
X160578571Y-132535715D01*
X160435714Y-132464287D01*
X160292857Y-132321429D01*
X160221429Y-132107144D01*
X160221429Y-131750001D01*
X161007143Y-134392858D02*
X161007143Y-135535715D01*
X160578571Y-135535715D02*
X160578571Y-134392858D01*
X161578571Y-137321429D02*
X161650000Y-137392858D01*
X161721429Y-137535715D01*
X161721429Y-137892858D01*
X161650000Y-138035715D01*
X161578571Y-138107144D01*
X161435714Y-138178572D01*
X161292857Y-138178572D01*
X161078571Y-138107144D01*
X160221429Y-137250001D01*
X160221429Y-138178572D01*
X160364286Y-138821429D02*
X160292857Y-138892857D01*
X160221429Y-138821429D01*
X160292857Y-138750000D01*
X160364286Y-138821429D01*
X160221429Y-138821429D01*
X161578571Y-139464286D02*
X161650000Y-139535715D01*
X161721429Y-139678572D01*
X161721429Y-140035715D01*
X161650000Y-140178572D01*
X161578571Y-140250001D01*
X161435714Y-140321429D01*
X161292857Y-140321429D01*
X161078571Y-140250001D01*
X160221429Y-139392858D01*
X160221429Y-140321429D01*
X161721429Y-141250000D02*
X161721429Y-141392857D01*
X161650000Y-141535714D01*
X161578571Y-141607143D01*
X161435714Y-141678572D01*
X161150000Y-141750000D01*
X160792857Y-141750000D01*
X160507143Y-141678572D01*
X160364286Y-141607143D01*
X160292857Y-141535714D01*
X160221429Y-141392857D01*
X160221429Y-141250000D01*
X160292857Y-141107143D01*
X160364286Y-141035714D01*
X160507143Y-140964286D01*
X160792857Y-140892857D01*
X161150000Y-140892857D01*
X161435714Y-140964286D01*
X161578571Y-141035714D01*
X161650000Y-141107143D01*
X161721429Y-141250000D01*
X161721429Y-142678571D02*
X161721429Y-142821428D01*
X161650000Y-142964285D01*
X161578571Y-143035714D01*
X161435714Y-143107143D01*
X161150000Y-143178571D01*
X160792857Y-143178571D01*
X160507143Y-143107143D01*
X160364286Y-143035714D01*
X160292857Y-142964285D01*
X160221429Y-142821428D01*
X160221429Y-142678571D01*
X160292857Y-142535714D01*
X160364286Y-142464285D01*
X160507143Y-142392857D01*
X160792857Y-142321428D01*
X161150000Y-142321428D01*
X161435714Y-142392857D01*
X161578571Y-142464285D01*
X161650000Y-142535714D01*
X161721429Y-142678571D01*
X160221429Y-144964285D02*
X161221429Y-144964285D01*
X161078571Y-144964285D02*
X161150000Y-145035713D01*
X161221429Y-145178571D01*
X161221429Y-145392856D01*
X161150000Y-145535713D01*
X161007143Y-145607142D01*
X160221429Y-145607142D01*
X161007143Y-145607142D02*
X161150000Y-145678571D01*
X161221429Y-145821428D01*
X161221429Y-146035713D01*
X161150000Y-146178571D01*
X161007143Y-146249999D01*
X160221429Y-146249999D01*
X160221429Y-146964285D02*
X161221429Y-146964285D01*
X161078571Y-146964285D02*
X161150000Y-147035713D01*
X161221429Y-147178571D01*
X161221429Y-147392856D01*
X161150000Y-147535713D01*
X161007143Y-147607142D01*
X160221429Y-147607142D01*
X161007143Y-147607142D02*
X161150000Y-147678571D01*
X161221429Y-147821428D01*
X161221429Y-148035713D01*
X161150000Y-148178571D01*
X161007143Y-148249999D01*
X160221429Y-148249999D01*
X164800000Y-138900000D02*
X164800000Y-141100000D01*
X172000000Y-138900000D02*
X162100000Y-138900000D01*
X172000000Y-141100000D02*
X162100000Y-141100000D01*
X164800000Y-141100000D02*
X164213579Y-139973496D01*
X164800000Y-141100000D02*
X165386421Y-139973496D01*
X164800000Y-138900000D02*
X164213579Y-140026504D01*
X164800000Y-138900000D02*
X165386421Y-140026504D01*
X169785715Y-96178571D02*
X169071429Y-96178571D01*
X169000000Y-96892857D01*
X169071429Y-96821429D01*
X169214286Y-96750000D01*
X169571429Y-96750000D01*
X169714286Y-96821429D01*
X169785715Y-96892857D01*
X169857143Y-97035714D01*
X169857143Y-97392857D01*
X169785715Y-97535714D01*
X169714286Y-97607143D01*
X169571429Y-97678571D01*
X169214286Y-97678571D01*
X169071429Y-97607143D01*
X169000000Y-97535714D01*
X171642857Y-97678571D02*
X171642857Y-96678571D01*
X171642857Y-96821429D02*
X171714285Y-96750000D01*
X171857143Y-96678571D01*
X172071428Y-96678571D01*
X172214285Y-96750000D01*
X172285714Y-96892857D01*
X172285714Y-97678571D01*
X172285714Y-96892857D02*
X172357143Y-96750000D01*
X172500000Y-96678571D01*
X172714285Y-96678571D01*
X172857143Y-96750000D01*
X172928571Y-96892857D01*
X172928571Y-97678571D01*
X173642857Y-97678571D02*
X173642857Y-96678571D01*
X173642857Y-96821429D02*
X173714285Y-96750000D01*
X173857143Y-96678571D01*
X174071428Y-96678571D01*
X174214285Y-96750000D01*
X174285714Y-96892857D01*
X174285714Y-97678571D01*
X174285714Y-96892857D02*
X174357143Y-96750000D01*
X174500000Y-96678571D01*
X174714285Y-96678571D01*
X174857143Y-96750000D01*
X174928571Y-96892857D01*
X174928571Y-97678571D01*
X174000000Y-101000000D02*
X169000000Y-101000000D01*
X174000000Y-113000000D02*
X174000000Y-98300000D01*
X169000000Y-113000000D02*
X169000000Y-98300000D01*
X169000000Y-101000000D02*
X170126504Y-100413579D01*
X169000000Y-101000000D02*
X170126504Y-101586421D01*
X174000000Y-101000000D02*
X172873496Y-100413579D01*
X174000000Y-101000000D02*
X172873496Y-101586421D01*
X191000001Y-97678571D02*
X191000001Y-98678571D01*
X190642858Y-97107143D02*
X190285715Y-98178571D01*
X191214287Y-98178571D01*
X192071429Y-97178571D02*
X192214286Y-97178571D01*
X192357143Y-97250000D01*
X192428572Y-97321429D01*
X192500001Y-97464286D01*
X192571429Y-97750000D01*
X192571429Y-98107143D01*
X192500001Y-98392857D01*
X192428572Y-98535714D01*
X192357143Y-98607143D01*
X192214286Y-98678571D01*
X192071429Y-98678571D01*
X191928572Y-98607143D01*
X191857143Y-98535714D01*
X191785715Y-98392857D01*
X191714286Y-98107143D01*
X191714286Y-97750000D01*
X191785715Y-97464286D01*
X191857143Y-97321429D01*
X191928572Y-97250000D01*
X192071429Y-97178571D01*
X194357143Y-98678571D02*
X194357143Y-97678571D01*
X194357143Y-97821429D02*
X194428571Y-97750000D01*
X194571429Y-97678571D01*
X194785714Y-97678571D01*
X194928571Y-97750000D01*
X195000000Y-97892857D01*
X195000000Y-98678571D01*
X195000000Y-97892857D02*
X195071429Y-97750000D01*
X195214286Y-97678571D01*
X195428571Y-97678571D01*
X195571429Y-97750000D01*
X195642857Y-97892857D01*
X195642857Y-98678571D01*
X196357143Y-98678571D02*
X196357143Y-97678571D01*
X196357143Y-97821429D02*
X196428571Y-97750000D01*
X196571429Y-97678571D01*
X196785714Y-97678571D01*
X196928571Y-97750000D01*
X197000000Y-97892857D01*
X197000000Y-98678571D01*
X197000000Y-97892857D02*
X197071429Y-97750000D01*
X197214286Y-97678571D01*
X197428571Y-97678571D01*
X197571429Y-97750000D01*
X197642857Y-97892857D01*
X197642857Y-98678571D01*
X214000000Y-101000000D02*
X174000000Y-101000000D01*
X214000000Y-108000000D02*
X214000000Y-98300000D01*
X174000000Y-108000000D02*
X174000000Y-98300000D01*
X174000000Y-101000000D02*
X175126504Y-100413579D01*
X174000000Y-101000000D02*
X175126504Y-101586421D01*
X214000000Y-101000000D02*
X212873496Y-100413579D01*
X214000000Y-101000000D02*
X212873496Y-101586421D01*
X159821429Y-108785715D02*
X159821429Y-108071429D01*
X159107143Y-108000000D01*
X159178571Y-108071429D01*
X159250000Y-108214286D01*
X159250000Y-108571429D01*
X159178571Y-108714286D01*
X159107143Y-108785715D01*
X158964286Y-108857143D01*
X158607143Y-108857143D01*
X158464286Y-108785715D01*
X158392857Y-108714286D01*
X158321429Y-108571429D01*
X158321429Y-108214286D01*
X158392857Y-108071429D01*
X158464286Y-108000000D01*
X158321429Y-110642857D02*
X159321429Y-110642857D01*
X159178571Y-110642857D02*
X159250000Y-110714285D01*
X159321429Y-110857143D01*
X159321429Y-111071428D01*
X159250000Y-111214285D01*
X159107143Y-111285714D01*
X158321429Y-111285714D01*
X159107143Y-111285714D02*
X159250000Y-111357143D01*
X159321429Y-111500000D01*
X159321429Y-111714285D01*
X159250000Y-111857143D01*
X159107143Y-111928571D01*
X158321429Y-111928571D01*
X158321429Y-112642857D02*
X159321429Y-112642857D01*
X159178571Y-112642857D02*
X159250000Y-112714285D01*
X159321429Y-112857143D01*
X159321429Y-113071428D01*
X159250000Y-113214285D01*
X159107143Y-113285714D01*
X158321429Y-113285714D01*
X159107143Y-113285714D02*
X159250000Y-113357143D01*
X159321429Y-113500000D01*
X159321429Y-113714285D01*
X159250000Y-113857143D01*
X159107143Y-113928571D01*
X158321429Y-113928571D01*
X163000000Y-108000000D02*
X163000000Y-113000000D01*
X174000000Y-108000000D02*
X160300000Y-108000000D01*
X174000000Y-113000000D02*
X160300000Y-113000000D01*
X163000000Y-113000000D02*
X162413579Y-111873496D01*
X163000000Y-113000000D02*
X163586421Y-111873496D01*
X163000000Y-108000000D02*
X162413579Y-109126504D01*
X163000000Y-108000000D02*
X163586421Y-109126504D01*
X232028571Y-130999999D02*
X233028571Y-130999999D01*
X231457143Y-131357142D02*
X232528571Y-131714285D01*
X232528571Y-130785713D01*
X231528571Y-129928571D02*
X231528571Y-129785714D01*
X231600000Y-129642857D01*
X231671429Y-129571428D01*
X231814286Y-129499999D01*
X232100000Y-129428571D01*
X232457143Y-129428571D01*
X232742857Y-129499999D01*
X232885714Y-129571428D01*
X232957143Y-129642857D01*
X233028571Y-129785714D01*
X233028571Y-129928571D01*
X232957143Y-130071428D01*
X232885714Y-130142857D01*
X232742857Y-130214285D01*
X232457143Y-130285714D01*
X232100000Y-130285714D01*
X231814286Y-130214285D01*
X231671429Y-130142857D01*
X231600000Y-130071428D01*
X231528571Y-129928571D01*
X233028571Y-127642857D02*
X232028571Y-127642857D01*
X232171429Y-127642857D02*
X232100000Y-127571429D01*
X232028571Y-127428571D01*
X232028571Y-127214286D01*
X232100000Y-127071429D01*
X232242857Y-127000000D01*
X233028571Y-127000000D01*
X232242857Y-127000000D02*
X232100000Y-126928571D01*
X232028571Y-126785714D01*
X232028571Y-126571429D01*
X232100000Y-126428571D01*
X232242857Y-126357143D01*
X233028571Y-126357143D01*
X233028571Y-125642857D02*
X232028571Y-125642857D01*
X232171429Y-125642857D02*
X232100000Y-125571429D01*
X232028571Y-125428571D01*
X232028571Y-125214286D01*
X232100000Y-125071429D01*
X232242857Y-125000000D01*
X233028571Y-125000000D01*
X232242857Y-125000000D02*
X232100000Y-124928571D01*
X232028571Y-124785714D01*
X232028571Y-124571429D01*
X232100000Y-124428571D01*
X232242857Y-124357143D01*
X233028571Y-124357143D01*
X231000000Y-148000000D02*
X231000000Y-108000000D01*
X214000000Y-148000000D02*
X233700000Y-148000000D01*
X214000000Y-108000000D02*
X233700000Y-108000000D01*
X231000000Y-108000000D02*
X231586421Y-109126504D01*
X231000000Y-108000000D02*
X230413579Y-109126504D01*
X231000000Y-148000000D02*
X231586421Y-146873496D01*
X231000000Y-148000000D02*
X230413579Y-146873496D01*
D10*
X181717952Y-115951000D02*
X182098905Y-115951000D01*
X181298905Y-116217667D02*
X181717952Y-115951000D01*
X181298905Y-115684333D01*
D13*
X218200000Y-140000000D02*
G75*
G03X218200000Y-140000000I-2200000J0D01*
G01*
X218200000Y-116000000D02*
G75*
G03X218200000Y-116000000I-2200000J0D01*
G01*
X174200000Y-140000000D02*
G75*
G03X174200000Y-140000000I-2200000J0D01*
G01*
X174200000Y-116000000D02*
G75*
G03X174200000Y-116000000I-2200000J0D01*
G01*
X205700000Y-140540476D02*
X205661905Y-140616667D01*
X205661905Y-140730952D01*
X205700000Y-140845238D01*
X205776190Y-140921429D01*
X205852381Y-140959524D01*
X206004762Y-140997619D01*
X206119048Y-140997619D01*
X206271429Y-140959524D01*
X206347619Y-140921429D01*
X206423810Y-140845238D01*
X206461905Y-140730952D01*
X206461905Y-140654762D01*
X206423810Y-140540476D01*
X206385714Y-140502381D01*
X206119048Y-140502381D01*
X206119048Y-140654762D01*
X206461905Y-139702381D02*
X206080952Y-139969048D01*
X206461905Y-140159524D02*
X205661905Y-140159524D01*
X205661905Y-139854762D01*
X205700000Y-139778571D01*
X205738095Y-139740476D01*
X205814286Y-139702381D01*
X205928571Y-139702381D01*
X206004762Y-139740476D01*
X206042857Y-139778571D01*
X206080952Y-139854762D01*
X206080952Y-140159524D01*
X206042857Y-139092857D02*
X206080952Y-138978571D01*
X206119048Y-138940476D01*
X206195238Y-138902381D01*
X206309524Y-138902381D01*
X206385714Y-138940476D01*
X206423810Y-138978571D01*
X206461905Y-139054762D01*
X206461905Y-139359524D01*
X205661905Y-139359524D01*
X205661905Y-139092857D01*
X205700000Y-139016667D01*
X205738095Y-138978571D01*
X205814286Y-138940476D01*
X205890476Y-138940476D01*
X205966667Y-138978571D01*
X206004762Y-139016667D01*
X206042857Y-139092857D01*
X206042857Y-139359524D01*
X193700000Y-140540476D02*
X193661905Y-140616667D01*
X193661905Y-140730952D01*
X193700000Y-140845238D01*
X193776190Y-140921429D01*
X193852381Y-140959524D01*
X194004762Y-140997619D01*
X194119048Y-140997619D01*
X194271429Y-140959524D01*
X194347619Y-140921429D01*
X194423810Y-140845238D01*
X194461905Y-140730952D01*
X194461905Y-140654762D01*
X194423810Y-140540476D01*
X194385714Y-140502381D01*
X194119048Y-140502381D01*
X194119048Y-140654762D01*
X194461905Y-139702381D02*
X194080952Y-139969048D01*
X194461905Y-140159524D02*
X193661905Y-140159524D01*
X193661905Y-139854762D01*
X193700000Y-139778571D01*
X193738095Y-139740476D01*
X193814286Y-139702381D01*
X193928571Y-139702381D01*
X194004762Y-139740476D01*
X194042857Y-139778571D01*
X194080952Y-139854762D01*
X194080952Y-140159524D01*
X194042857Y-139092857D02*
X194080952Y-138978571D01*
X194119048Y-138940476D01*
X194195238Y-138902381D01*
X194309524Y-138902381D01*
X194385714Y-138940476D01*
X194423810Y-138978571D01*
X194461905Y-139054762D01*
X194461905Y-139359524D01*
X193661905Y-139359524D01*
X193661905Y-139092857D01*
X193700000Y-139016667D01*
X193738095Y-138978571D01*
X193814286Y-138940476D01*
X193890476Y-138940476D01*
X193966667Y-138978571D01*
X194004762Y-139016667D01*
X194042857Y-139092857D01*
X194042857Y-139359524D01*
X181700000Y-140540476D02*
X181661905Y-140616667D01*
X181661905Y-140730952D01*
X181700000Y-140845238D01*
X181776190Y-140921429D01*
X181852381Y-140959524D01*
X182004762Y-140997619D01*
X182119048Y-140997619D01*
X182271429Y-140959524D01*
X182347619Y-140921429D01*
X182423810Y-140845238D01*
X182461905Y-140730952D01*
X182461905Y-140654762D01*
X182423810Y-140540476D01*
X182385714Y-140502381D01*
X182119048Y-140502381D01*
X182119048Y-140654762D01*
X182461905Y-139702381D02*
X182080952Y-139969048D01*
X182461905Y-140159524D02*
X181661905Y-140159524D01*
X181661905Y-139854762D01*
X181700000Y-139778571D01*
X181738095Y-139740476D01*
X181814286Y-139702381D01*
X181928571Y-139702381D01*
X182004762Y-139740476D01*
X182042857Y-139778571D01*
X182080952Y-139854762D01*
X182080952Y-140159524D01*
X182042857Y-139092857D02*
X182080952Y-138978571D01*
X182119048Y-138940476D01*
X182195238Y-138902381D01*
X182309524Y-138902381D01*
X182385714Y-138940476D01*
X182423810Y-138978571D01*
X182461905Y-139054762D01*
X182461905Y-139359524D01*
X181661905Y-139359524D01*
X181661905Y-139092857D01*
X181700000Y-139016667D01*
X181738095Y-138978571D01*
X181814286Y-138940476D01*
X181890476Y-138940476D01*
X181966667Y-138978571D01*
X182004762Y-139016667D01*
X182042857Y-139092857D01*
X182042857Y-139359524D01*
X205700000Y-128540476D02*
X205661905Y-128616667D01*
X205661905Y-128730952D01*
X205700000Y-128845238D01*
X205776190Y-128921429D01*
X205852381Y-128959524D01*
X206004762Y-128997619D01*
X206119048Y-128997619D01*
X206271429Y-128959524D01*
X206347619Y-128921429D01*
X206423810Y-128845238D01*
X206461905Y-128730952D01*
X206461905Y-128654762D01*
X206423810Y-128540476D01*
X206385714Y-128502381D01*
X206119048Y-128502381D01*
X206119048Y-128654762D01*
X206461905Y-127702381D02*
X206080952Y-127969048D01*
X206461905Y-128159524D02*
X205661905Y-128159524D01*
X205661905Y-127854762D01*
X205700000Y-127778571D01*
X205738095Y-127740476D01*
X205814286Y-127702381D01*
X205928571Y-127702381D01*
X206004762Y-127740476D01*
X206042857Y-127778571D01*
X206080952Y-127854762D01*
X206080952Y-128159524D01*
X206042857Y-127092857D02*
X206080952Y-126978571D01*
X206119048Y-126940476D01*
X206195238Y-126902381D01*
X206309524Y-126902381D01*
X206385714Y-126940476D01*
X206423810Y-126978571D01*
X206461905Y-127054762D01*
X206461905Y-127359524D01*
X205661905Y-127359524D01*
X205661905Y-127092857D01*
X205700000Y-127016667D01*
X205738095Y-126978571D01*
X205814286Y-126940476D01*
X205890476Y-126940476D01*
X205966667Y-126978571D01*
X206004762Y-127016667D01*
X206042857Y-127092857D01*
X206042857Y-127359524D01*
X193700000Y-128540476D02*
X193661905Y-128616667D01*
X193661905Y-128730952D01*
X193700000Y-128845238D01*
X193776190Y-128921429D01*
X193852381Y-128959524D01*
X194004762Y-128997619D01*
X194119048Y-128997619D01*
X194271429Y-128959524D01*
X194347619Y-128921429D01*
X194423810Y-128845238D01*
X194461905Y-128730952D01*
X194461905Y-128654762D01*
X194423810Y-128540476D01*
X194385714Y-128502381D01*
X194119048Y-128502381D01*
X194119048Y-128654762D01*
X194461905Y-127702381D02*
X194080952Y-127969048D01*
X194461905Y-128159524D02*
X193661905Y-128159524D01*
X193661905Y-127854762D01*
X193700000Y-127778571D01*
X193738095Y-127740476D01*
X193814286Y-127702381D01*
X193928571Y-127702381D01*
X194004762Y-127740476D01*
X194042857Y-127778571D01*
X194080952Y-127854762D01*
X194080952Y-128159524D01*
X194042857Y-127092857D02*
X194080952Y-126978571D01*
X194119048Y-126940476D01*
X194195238Y-126902381D01*
X194309524Y-126902381D01*
X194385714Y-126940476D01*
X194423810Y-126978571D01*
X194461905Y-127054762D01*
X194461905Y-127359524D01*
X193661905Y-127359524D01*
X193661905Y-127092857D01*
X193700000Y-127016667D01*
X193738095Y-126978571D01*
X193814286Y-126940476D01*
X193890476Y-126940476D01*
X193966667Y-126978571D01*
X194004762Y-127016667D01*
X194042857Y-127092857D01*
X194042857Y-127359524D01*
X181700000Y-128540476D02*
X181661905Y-128616667D01*
X181661905Y-128730952D01*
X181700000Y-128845238D01*
X181776190Y-128921429D01*
X181852381Y-128959524D01*
X182004762Y-128997619D01*
X182119048Y-128997619D01*
X182271429Y-128959524D01*
X182347619Y-128921429D01*
X182423810Y-128845238D01*
X182461905Y-128730952D01*
X182461905Y-128654762D01*
X182423810Y-128540476D01*
X182385714Y-128502381D01*
X182119048Y-128502381D01*
X182119048Y-128654762D01*
X182461905Y-127702381D02*
X182080952Y-127969048D01*
X182461905Y-128159524D02*
X181661905Y-128159524D01*
X181661905Y-127854762D01*
X181700000Y-127778571D01*
X181738095Y-127740476D01*
X181814286Y-127702381D01*
X181928571Y-127702381D01*
X182004762Y-127740476D01*
X182042857Y-127778571D01*
X182080952Y-127854762D01*
X182080952Y-128159524D01*
X182042857Y-127092857D02*
X182080952Y-126978571D01*
X182119048Y-126940476D01*
X182195238Y-126902381D01*
X182309524Y-126902381D01*
X182385714Y-126940476D01*
X182423810Y-126978571D01*
X182461905Y-127054762D01*
X182461905Y-127359524D01*
X181661905Y-127359524D01*
X181661905Y-127092857D01*
X181700000Y-127016667D01*
X181738095Y-126978571D01*
X181814286Y-126940476D01*
X181890476Y-126940476D01*
X181966667Y-126978571D01*
X182004762Y-127016667D01*
X182042857Y-127092857D01*
X182042857Y-127359524D01*
X205700000Y-116540476D02*
X205661905Y-116616667D01*
X205661905Y-116730952D01*
X205700000Y-116845238D01*
X205776190Y-116921429D01*
X205852381Y-116959524D01*
X206004762Y-116997619D01*
X206119048Y-116997619D01*
X206271429Y-116959524D01*
X206347619Y-116921429D01*
X206423810Y-116845238D01*
X206461905Y-116730952D01*
X206461905Y-116654762D01*
X206423810Y-116540476D01*
X206385714Y-116502381D01*
X206119048Y-116502381D01*
X206119048Y-116654762D01*
X206461905Y-115702381D02*
X206080952Y-115969048D01*
X206461905Y-116159524D02*
X205661905Y-116159524D01*
X205661905Y-115854762D01*
X205700000Y-115778571D01*
X205738095Y-115740476D01*
X205814286Y-115702381D01*
X205928571Y-115702381D01*
X206004762Y-115740476D01*
X206042857Y-115778571D01*
X206080952Y-115854762D01*
X206080952Y-116159524D01*
X206042857Y-115092857D02*
X206080952Y-114978571D01*
X206119048Y-114940476D01*
X206195238Y-114902381D01*
X206309524Y-114902381D01*
X206385714Y-114940476D01*
X206423810Y-114978571D01*
X206461905Y-115054762D01*
X206461905Y-115359524D01*
X205661905Y-115359524D01*
X205661905Y-115092857D01*
X205700000Y-115016667D01*
X205738095Y-114978571D01*
X205814286Y-114940476D01*
X205890476Y-114940476D01*
X205966667Y-114978571D01*
X206004762Y-115016667D01*
X206042857Y-115092857D01*
X206042857Y-115359524D01*
X193700000Y-116540476D02*
X193661905Y-116616667D01*
X193661905Y-116730952D01*
X193700000Y-116845238D01*
X193776190Y-116921429D01*
X193852381Y-116959524D01*
X194004762Y-116997619D01*
X194119048Y-116997619D01*
X194271429Y-116959524D01*
X194347619Y-116921429D01*
X194423810Y-116845238D01*
X194461905Y-116730952D01*
X194461905Y-116654762D01*
X194423810Y-116540476D01*
X194385714Y-116502381D01*
X194119048Y-116502381D01*
X194119048Y-116654762D01*
X194461905Y-115702381D02*
X194080952Y-115969048D01*
X194461905Y-116159524D02*
X193661905Y-116159524D01*
X193661905Y-115854762D01*
X193700000Y-115778571D01*
X193738095Y-115740476D01*
X193814286Y-115702381D01*
X193928571Y-115702381D01*
X194004762Y-115740476D01*
X194042857Y-115778571D01*
X194080952Y-115854762D01*
X194080952Y-116159524D01*
X194042857Y-115092857D02*
X194080952Y-114978571D01*
X194119048Y-114940476D01*
X194195238Y-114902381D01*
X194309524Y-114902381D01*
X194385714Y-114940476D01*
X194423810Y-114978571D01*
X194461905Y-115054762D01*
X194461905Y-115359524D01*
X193661905Y-115359524D01*
X193661905Y-115092857D01*
X193700000Y-115016667D01*
X193738095Y-114978571D01*
X193814286Y-114940476D01*
X193890476Y-114940476D01*
X193966667Y-114978571D01*
X194004762Y-115016667D01*
X194042857Y-115092857D01*
X194042857Y-115359524D01*
M02*
