G04 #@! TF.GenerationSoftware,KiCad,Pcbnew,(5.1.4)-1*
G04 #@! TF.CreationDate,2020-02-23T17:45:57-05:00*
G04 #@! TF.ProjectId,Dash_Warning_Panel,44617368-5f57-4617-926e-696e675f5061,rev?*
G04 #@! TF.SameCoordinates,Original*
G04 #@! TF.FileFunction,Legend,Top*
G04 #@! TF.FilePolarity,Positive*
%FSLAX46Y46*%
G04 Gerber Fmt 4.6, Leading zero omitted, Abs format (unit mm)*
G04 Created by KiCad (PCBNEW (5.1.4)-1) date 2020-02-23 17:45:57*
%MOMM*%
%LPD*%
G04 APERTURE LIST*
%ADD10C,0.150000*%
%ADD11C,0.120000*%
%ADD12C,0.200000*%
%ADD13R,0.801600X0.601600*%
%ADD14R,1.151600X0.601600*%
%ADD15R,1.001600X1.801600*%
%ADD16R,1.801600X1.001600*%
%ADD17R,1.001600X2.601600*%
%ADD18R,0.701600X1.701600*%
%ADD19R,0.901600X1.701600*%
%ADD20C,1.351600*%
%ADD21C,2.301600*%
%ADD22R,0.851600X0.901600*%
%ADD23R,0.901600X0.851600*%
%ADD24R,0.601600X1.001600*%
%ADD25R,0.751600X1.161600*%
%ADD26R,1.201600X0.851600*%
%ADD27O,2.701600X2.101600*%
%ADD28R,2.701600X2.101600*%
G04 APERTURE END LIST*
D10*
X181483000Y-138430000D02*
X181610000Y-138557000D01*
X181610000Y-138303000D02*
X181483000Y-138430000D01*
X181991000Y-138811000D02*
X183007000Y-138811000D01*
X181991000Y-138049000D02*
X183007000Y-138049000D01*
X191643000Y-138250000D02*
X191770000Y-138377000D01*
X191770000Y-138123000D02*
X191643000Y-138250000D01*
X192151000Y-138631000D02*
X193167000Y-138631000D01*
X192151000Y-137869000D02*
X193167000Y-137869000D01*
X201168000Y-138250000D02*
X201295000Y-138377000D01*
X201295000Y-138123000D02*
X201168000Y-138250000D01*
X201676000Y-138631000D02*
X202692000Y-138631000D01*
X201676000Y-137869000D02*
X202692000Y-137869000D01*
D11*
X197500000Y-112430000D02*
X199500000Y-112430000D01*
X199500000Y-114570000D02*
X197500000Y-114570000D01*
X201250000Y-122320000D02*
X199250000Y-122320000D01*
X199250000Y-120180000D02*
X201250000Y-120180000D01*
X208180000Y-123750000D02*
X208180000Y-121750000D01*
X210320000Y-121750000D02*
X210320000Y-123750000D01*
X201250000Y-130070000D02*
X199250000Y-130070000D01*
X199250000Y-127930000D02*
X201250000Y-127930000D01*
X206750000Y-127930000D02*
X208750000Y-127930000D01*
X208750000Y-130070000D02*
X206750000Y-130070000D01*
X211500000Y-120230000D02*
X209500000Y-120230000D01*
X209500000Y-117270000D02*
X211500000Y-117270000D01*
X206600000Y-115000000D02*
X203400000Y-115000000D01*
X203400000Y-120000000D02*
X206600000Y-120000000D01*
X203400000Y-120000000D02*
X203400000Y-115000000D01*
X206600000Y-120000000D02*
X206600000Y-115000000D01*
D12*
X207005000Y-120548000D02*
G75*
G03X207005000Y-120548000I-100000J0D01*
G01*
D10*
X178054000Y-114554000D02*
X178816000Y-114554000D01*
X178054000Y-134366000D02*
X178054000Y-114554000D01*
X178816000Y-134366000D02*
X178054000Y-134366000D01*
X191770000Y-134620000D02*
X191770000Y-133731000D01*
X190754000Y-134620000D02*
X191770000Y-134620000D01*
X191516000Y-134366000D02*
X190754000Y-134366000D01*
X191516000Y-114554000D02*
X191516000Y-134366000D01*
X190881000Y-114554000D02*
X191516000Y-114554000D01*
D11*
X222850000Y-135400000D02*
X222850000Y-136100000D01*
X221650000Y-136100000D02*
X221650000Y-135400000D01*
X206350000Y-138850000D02*
X205650000Y-138850000D01*
X205650000Y-137650000D02*
X206350000Y-137650000D01*
X199600000Y-112100000D02*
X198900000Y-112100000D01*
X198900000Y-110900000D02*
X199600000Y-110900000D01*
X211850000Y-134100000D02*
X211150000Y-134100000D01*
X211150000Y-132900000D02*
X211850000Y-132900000D01*
X214150000Y-125900000D02*
X214850000Y-125900000D01*
X214850000Y-127100000D02*
X214150000Y-127100000D01*
X179250000Y-137750000D02*
X180250000Y-137750000D01*
X180250000Y-139110000D02*
X179250000Y-139110000D01*
X190500000Y-138930000D02*
X189500000Y-138930000D01*
X189500000Y-137570000D02*
X190500000Y-137570000D01*
X199750000Y-138930000D02*
X198750000Y-138930000D01*
X198750000Y-137570000D02*
X199750000Y-137570000D01*
X211250000Y-125820000D02*
X212250000Y-125820000D01*
X212250000Y-127180000D02*
X211250000Y-127180000D01*
X210890000Y-129100000D02*
X210890000Y-131550000D01*
X214110000Y-130900000D02*
X214110000Y-129100000D01*
D10*
X198882000Y-115824000D02*
X199390000Y-116332000D01*
D11*
X199435000Y-116775000D02*
X199435000Y-115824000D01*
X195580000Y-115824000D02*
X199435000Y-115824000D01*
X195535000Y-119126000D02*
X199435000Y-119126000D01*
X195535000Y-126746000D02*
X199435000Y-126746000D01*
X195580000Y-123444000D02*
X199435000Y-123444000D01*
X199435000Y-124395000D02*
X199435000Y-123444000D01*
D10*
X198882000Y-123444000D02*
X199390000Y-123952000D01*
D11*
X203155000Y-126746000D02*
X207055000Y-126746000D01*
X203200000Y-123444000D02*
X207055000Y-123444000D01*
X207055000Y-124395000D02*
X207055000Y-123444000D01*
D10*
X206502000Y-123444000D02*
X207010000Y-123952000D01*
X198882000Y-131064000D02*
X199390000Y-131572000D01*
D11*
X199435000Y-132015000D02*
X199435000Y-131064000D01*
X195580000Y-131064000D02*
X199435000Y-131064000D01*
X195535000Y-134366000D02*
X199435000Y-134366000D01*
X203155000Y-134366000D02*
X207055000Y-134366000D01*
X203200000Y-131064000D02*
X207055000Y-131064000D01*
X207055000Y-132015000D02*
X207055000Y-131064000D01*
D10*
X206502000Y-131064000D02*
X207010000Y-131572000D01*
X181506904Y-136977380D02*
X181506904Y-135977380D01*
X181745000Y-135977380D01*
X181887857Y-136025000D01*
X181983095Y-136120238D01*
X182030714Y-136215476D01*
X182078333Y-136405952D01*
X182078333Y-136548809D01*
X182030714Y-136739285D01*
X181983095Y-136834523D01*
X181887857Y-136929761D01*
X181745000Y-136977380D01*
X181506904Y-136977380D01*
X182554523Y-136977380D02*
X182745000Y-136977380D01*
X182840238Y-136929761D01*
X182887857Y-136882142D01*
X182983095Y-136739285D01*
X183030714Y-136548809D01*
X183030714Y-136167857D01*
X182983095Y-136072619D01*
X182935476Y-136025000D01*
X182840238Y-135977380D01*
X182649761Y-135977380D01*
X182554523Y-136025000D01*
X182506904Y-136072619D01*
X182459285Y-136167857D01*
X182459285Y-136405952D01*
X182506904Y-136501190D01*
X182554523Y-136548809D01*
X182649761Y-136596428D01*
X182840238Y-136596428D01*
X182935476Y-136548809D01*
X182983095Y-136501190D01*
X183030714Y-136405952D01*
X191666904Y-136977380D02*
X191666904Y-135977380D01*
X191905000Y-135977380D01*
X192047857Y-136025000D01*
X192143095Y-136120238D01*
X192190714Y-136215476D01*
X192238333Y-136405952D01*
X192238333Y-136548809D01*
X192190714Y-136739285D01*
X192143095Y-136834523D01*
X192047857Y-136929761D01*
X191905000Y-136977380D01*
X191666904Y-136977380D01*
X192809761Y-136405952D02*
X192714523Y-136358333D01*
X192666904Y-136310714D01*
X192619285Y-136215476D01*
X192619285Y-136167857D01*
X192666904Y-136072619D01*
X192714523Y-136025000D01*
X192809761Y-135977380D01*
X193000238Y-135977380D01*
X193095476Y-136025000D01*
X193143095Y-136072619D01*
X193190714Y-136167857D01*
X193190714Y-136215476D01*
X193143095Y-136310714D01*
X193095476Y-136358333D01*
X193000238Y-136405952D01*
X192809761Y-136405952D01*
X192714523Y-136453571D01*
X192666904Y-136501190D01*
X192619285Y-136596428D01*
X192619285Y-136786904D01*
X192666904Y-136882142D01*
X192714523Y-136929761D01*
X192809761Y-136977380D01*
X193000238Y-136977380D01*
X193095476Y-136929761D01*
X193143095Y-136882142D01*
X193190714Y-136786904D01*
X193190714Y-136596428D01*
X193143095Y-136501190D01*
X193095476Y-136453571D01*
X193000238Y-136405952D01*
X201191904Y-136977380D02*
X201191904Y-135977380D01*
X201430000Y-135977380D01*
X201572857Y-136025000D01*
X201668095Y-136120238D01*
X201715714Y-136215476D01*
X201763333Y-136405952D01*
X201763333Y-136548809D01*
X201715714Y-136739285D01*
X201668095Y-136834523D01*
X201572857Y-136929761D01*
X201430000Y-136977380D01*
X201191904Y-136977380D01*
X202096666Y-135977380D02*
X202763333Y-135977380D01*
X202334761Y-136977380D01*
X194778333Y-113952380D02*
X194445000Y-113476190D01*
X194206904Y-113952380D02*
X194206904Y-112952380D01*
X194587857Y-112952380D01*
X194683095Y-113000000D01*
X194730714Y-113047619D01*
X194778333Y-113142857D01*
X194778333Y-113285714D01*
X194730714Y-113380952D01*
X194683095Y-113428571D01*
X194587857Y-113476190D01*
X194206904Y-113476190D01*
X195159285Y-113047619D02*
X195206904Y-113000000D01*
X195302142Y-112952380D01*
X195540238Y-112952380D01*
X195635476Y-113000000D01*
X195683095Y-113047619D01*
X195730714Y-113142857D01*
X195730714Y-113238095D01*
X195683095Y-113380952D01*
X195111666Y-113952380D01*
X195730714Y-113952380D01*
X196833333Y-120952380D02*
X196500000Y-120476190D01*
X196261904Y-120952380D02*
X196261904Y-119952380D01*
X196642857Y-119952380D01*
X196738095Y-120000000D01*
X196785714Y-120047619D01*
X196833333Y-120142857D01*
X196833333Y-120285714D01*
X196785714Y-120380952D01*
X196738095Y-120428571D01*
X196642857Y-120476190D01*
X196261904Y-120476190D01*
X197166666Y-119952380D02*
X197785714Y-119952380D01*
X197452380Y-120333333D01*
X197595238Y-120333333D01*
X197690476Y-120380952D01*
X197738095Y-120428571D01*
X197785714Y-120523809D01*
X197785714Y-120761904D01*
X197738095Y-120857142D01*
X197690476Y-120904761D01*
X197595238Y-120952380D01*
X197309523Y-120952380D01*
X197214285Y-120904761D01*
X197166666Y-120857142D01*
X206833333Y-122202380D02*
X206500000Y-121726190D01*
X206261904Y-122202380D02*
X206261904Y-121202380D01*
X206642857Y-121202380D01*
X206738095Y-121250000D01*
X206785714Y-121297619D01*
X206833333Y-121392857D01*
X206833333Y-121535714D01*
X206785714Y-121630952D01*
X206738095Y-121678571D01*
X206642857Y-121726190D01*
X206261904Y-121726190D01*
X207690476Y-121535714D02*
X207690476Y-122202380D01*
X207452380Y-121154761D02*
X207214285Y-121869047D01*
X207833333Y-121869047D01*
X196583333Y-128952380D02*
X196250000Y-128476190D01*
X196011904Y-128952380D02*
X196011904Y-127952380D01*
X196392857Y-127952380D01*
X196488095Y-128000000D01*
X196535714Y-128047619D01*
X196583333Y-128142857D01*
X196583333Y-128285714D01*
X196535714Y-128380952D01*
X196488095Y-128428571D01*
X196392857Y-128476190D01*
X196011904Y-128476190D01*
X197488095Y-127952380D02*
X197011904Y-127952380D01*
X196964285Y-128428571D01*
X197011904Y-128380952D01*
X197107142Y-128333333D01*
X197345238Y-128333333D01*
X197440476Y-128380952D01*
X197488095Y-128428571D01*
X197535714Y-128523809D01*
X197535714Y-128761904D01*
X197488095Y-128857142D01*
X197440476Y-128904761D01*
X197345238Y-128952380D01*
X197107142Y-128952380D01*
X197011904Y-128904761D01*
X196964285Y-128857142D01*
X204333333Y-129202380D02*
X204000000Y-128726190D01*
X203761904Y-129202380D02*
X203761904Y-128202380D01*
X204142857Y-128202380D01*
X204238095Y-128250000D01*
X204285714Y-128297619D01*
X204333333Y-128392857D01*
X204333333Y-128535714D01*
X204285714Y-128630952D01*
X204238095Y-128678571D01*
X204142857Y-128726190D01*
X203761904Y-128726190D01*
X205190476Y-128202380D02*
X205000000Y-128202380D01*
X204904761Y-128250000D01*
X204857142Y-128297619D01*
X204761904Y-128440476D01*
X204714285Y-128630952D01*
X204714285Y-129011904D01*
X204761904Y-129107142D01*
X204809523Y-129154761D01*
X204904761Y-129202380D01*
X205095238Y-129202380D01*
X205190476Y-129154761D01*
X205238095Y-129107142D01*
X205285714Y-129011904D01*
X205285714Y-128773809D01*
X205238095Y-128678571D01*
X205190476Y-128630952D01*
X205095238Y-128583333D01*
X204904761Y-128583333D01*
X204809523Y-128630952D01*
X204761904Y-128678571D01*
X204714285Y-128773809D01*
X210333333Y-116657380D02*
X210000000Y-116181190D01*
X209761904Y-116657380D02*
X209761904Y-115657380D01*
X210142857Y-115657380D01*
X210238095Y-115705000D01*
X210285714Y-115752619D01*
X210333333Y-115847857D01*
X210333333Y-115990714D01*
X210285714Y-116085952D01*
X210238095Y-116133571D01*
X210142857Y-116181190D01*
X209761904Y-116181190D01*
X211285714Y-116657380D02*
X210714285Y-116657380D01*
X211000000Y-116657380D02*
X211000000Y-115657380D01*
X210904761Y-115800238D01*
X210809523Y-115895476D01*
X210714285Y-115943095D01*
X208261904Y-114952380D02*
X208261904Y-113952380D01*
X208500000Y-113952380D01*
X208642857Y-114000000D01*
X208738095Y-114095238D01*
X208785714Y-114190476D01*
X208833333Y-114380952D01*
X208833333Y-114523809D01*
X208785714Y-114714285D01*
X208738095Y-114809523D01*
X208642857Y-114904761D01*
X208500000Y-114952380D01*
X208261904Y-114952380D01*
X209785714Y-114952380D02*
X209214285Y-114952380D01*
X209500000Y-114952380D02*
X209500000Y-113952380D01*
X209404761Y-114095238D01*
X209309523Y-114190476D01*
X209214285Y-114238095D01*
X188777714Y-113609380D02*
X188777714Y-112609380D01*
X189015809Y-112609380D01*
X189158666Y-112657000D01*
X189253904Y-112752238D01*
X189301523Y-112847476D01*
X189349142Y-113037952D01*
X189349142Y-113180809D01*
X189301523Y-113371285D01*
X189253904Y-113466523D01*
X189158666Y-113561761D01*
X189015809Y-113609380D01*
X188777714Y-113609380D01*
X190301523Y-113609380D02*
X189730095Y-113609380D01*
X190015809Y-113609380D02*
X190015809Y-112609380D01*
X189920571Y-112752238D01*
X189825333Y-112847476D01*
X189730095Y-112895095D01*
X190920571Y-112609380D02*
X191015809Y-112609380D01*
X191111047Y-112657000D01*
X191158666Y-112704619D01*
X191206285Y-112799857D01*
X191253904Y-112990333D01*
X191253904Y-113228428D01*
X191206285Y-113418904D01*
X191158666Y-113514142D01*
X191111047Y-113561761D01*
X191015809Y-113609380D01*
X190920571Y-113609380D01*
X190825333Y-113561761D01*
X190777714Y-113514142D01*
X190730095Y-113418904D01*
X190682476Y-113228428D01*
X190682476Y-112990333D01*
X190730095Y-112799857D01*
X190777714Y-112704619D01*
X190825333Y-112657000D01*
X190920571Y-112609380D01*
X222083333Y-133707142D02*
X222035714Y-133754761D01*
X221892857Y-133802380D01*
X221797619Y-133802380D01*
X221654761Y-133754761D01*
X221559523Y-133659523D01*
X221511904Y-133564285D01*
X221464285Y-133373809D01*
X221464285Y-133230952D01*
X221511904Y-133040476D01*
X221559523Y-132945238D01*
X221654761Y-132850000D01*
X221797619Y-132802380D01*
X221892857Y-132802380D01*
X222035714Y-132850000D01*
X222083333Y-132897619D01*
X223035714Y-133802380D02*
X222464285Y-133802380D01*
X222750000Y-133802380D02*
X222750000Y-132802380D01*
X222654761Y-132945238D01*
X222559523Y-133040476D01*
X222464285Y-133088095D01*
X205573333Y-136882142D02*
X205525714Y-136929761D01*
X205382857Y-136977380D01*
X205287619Y-136977380D01*
X205144761Y-136929761D01*
X205049523Y-136834523D01*
X205001904Y-136739285D01*
X204954285Y-136548809D01*
X204954285Y-136405952D01*
X205001904Y-136215476D01*
X205049523Y-136120238D01*
X205144761Y-136025000D01*
X205287619Y-135977380D01*
X205382857Y-135977380D01*
X205525714Y-136025000D01*
X205573333Y-136072619D01*
X205954285Y-136072619D02*
X206001904Y-136025000D01*
X206097142Y-135977380D01*
X206335238Y-135977380D01*
X206430476Y-136025000D01*
X206478095Y-136072619D01*
X206525714Y-136167857D01*
X206525714Y-136263095D01*
X206478095Y-136405952D01*
X205906666Y-136977380D01*
X206525714Y-136977380D01*
X194778333Y-111857142D02*
X194730714Y-111904761D01*
X194587857Y-111952380D01*
X194492619Y-111952380D01*
X194349761Y-111904761D01*
X194254523Y-111809523D01*
X194206904Y-111714285D01*
X194159285Y-111523809D01*
X194159285Y-111380952D01*
X194206904Y-111190476D01*
X194254523Y-111095238D01*
X194349761Y-111000000D01*
X194492619Y-110952380D01*
X194587857Y-110952380D01*
X194730714Y-111000000D01*
X194778333Y-111047619D01*
X195635476Y-111285714D02*
X195635476Y-111952380D01*
X195397380Y-110904761D02*
X195159285Y-111619047D01*
X195778333Y-111619047D01*
X211333333Y-135607142D02*
X211285714Y-135654761D01*
X211142857Y-135702380D01*
X211047619Y-135702380D01*
X210904761Y-135654761D01*
X210809523Y-135559523D01*
X210761904Y-135464285D01*
X210714285Y-135273809D01*
X210714285Y-135130952D01*
X210761904Y-134940476D01*
X210809523Y-134845238D01*
X210904761Y-134750000D01*
X211047619Y-134702380D01*
X211142857Y-134702380D01*
X211285714Y-134750000D01*
X211333333Y-134797619D01*
X212238095Y-134702380D02*
X211761904Y-134702380D01*
X211714285Y-135178571D01*
X211761904Y-135130952D01*
X211857142Y-135083333D01*
X212095238Y-135083333D01*
X212190476Y-135130952D01*
X212238095Y-135178571D01*
X212285714Y-135273809D01*
X212285714Y-135511904D01*
X212238095Y-135607142D01*
X212190476Y-135654761D01*
X212095238Y-135702380D01*
X211857142Y-135702380D01*
X211761904Y-135654761D01*
X211714285Y-135607142D01*
X214833333Y-125107142D02*
X214785714Y-125154761D01*
X214642857Y-125202380D01*
X214547619Y-125202380D01*
X214404761Y-125154761D01*
X214309523Y-125059523D01*
X214261904Y-124964285D01*
X214214285Y-124773809D01*
X214214285Y-124630952D01*
X214261904Y-124440476D01*
X214309523Y-124345238D01*
X214404761Y-124250000D01*
X214547619Y-124202380D01*
X214642857Y-124202380D01*
X214785714Y-124250000D01*
X214833333Y-124297619D01*
X215690476Y-124202380D02*
X215500000Y-124202380D01*
X215404761Y-124250000D01*
X215357142Y-124297619D01*
X215261904Y-124440476D01*
X215214285Y-124630952D01*
X215214285Y-125011904D01*
X215261904Y-125107142D01*
X215309523Y-125154761D01*
X215404761Y-125202380D01*
X215595238Y-125202380D01*
X215690476Y-125154761D01*
X215738095Y-125107142D01*
X215785714Y-125011904D01*
X215785714Y-124773809D01*
X215738095Y-124678571D01*
X215690476Y-124630952D01*
X215595238Y-124583333D01*
X215404761Y-124583333D01*
X215309523Y-124630952D01*
X215261904Y-124678571D01*
X215214285Y-124773809D01*
X179538333Y-136977380D02*
X179205000Y-136501190D01*
X178966904Y-136977380D02*
X178966904Y-135977380D01*
X179347857Y-135977380D01*
X179443095Y-136025000D01*
X179490714Y-136072619D01*
X179538333Y-136167857D01*
X179538333Y-136310714D01*
X179490714Y-136405952D01*
X179443095Y-136453571D01*
X179347857Y-136501190D01*
X178966904Y-136501190D01*
X180014523Y-136977380D02*
X180205000Y-136977380D01*
X180300238Y-136929761D01*
X180347857Y-136882142D01*
X180443095Y-136739285D01*
X180490714Y-136548809D01*
X180490714Y-136167857D01*
X180443095Y-136072619D01*
X180395476Y-136025000D01*
X180300238Y-135977380D01*
X180109761Y-135977380D01*
X180014523Y-136025000D01*
X179966904Y-136072619D01*
X179919285Y-136167857D01*
X179919285Y-136405952D01*
X179966904Y-136501190D01*
X180014523Y-136548809D01*
X180109761Y-136596428D01*
X180300238Y-136596428D01*
X180395476Y-136548809D01*
X180443095Y-136501190D01*
X180490714Y-136405952D01*
X189698333Y-136977380D02*
X189365000Y-136501190D01*
X189126904Y-136977380D02*
X189126904Y-135977380D01*
X189507857Y-135977380D01*
X189603095Y-136025000D01*
X189650714Y-136072619D01*
X189698333Y-136167857D01*
X189698333Y-136310714D01*
X189650714Y-136405952D01*
X189603095Y-136453571D01*
X189507857Y-136501190D01*
X189126904Y-136501190D01*
X190269761Y-136405952D02*
X190174523Y-136358333D01*
X190126904Y-136310714D01*
X190079285Y-136215476D01*
X190079285Y-136167857D01*
X190126904Y-136072619D01*
X190174523Y-136025000D01*
X190269761Y-135977380D01*
X190460238Y-135977380D01*
X190555476Y-136025000D01*
X190603095Y-136072619D01*
X190650714Y-136167857D01*
X190650714Y-136215476D01*
X190603095Y-136310714D01*
X190555476Y-136358333D01*
X190460238Y-136405952D01*
X190269761Y-136405952D01*
X190174523Y-136453571D01*
X190126904Y-136501190D01*
X190079285Y-136596428D01*
X190079285Y-136786904D01*
X190126904Y-136882142D01*
X190174523Y-136929761D01*
X190269761Y-136977380D01*
X190460238Y-136977380D01*
X190555476Y-136929761D01*
X190603095Y-136882142D01*
X190650714Y-136786904D01*
X190650714Y-136596428D01*
X190603095Y-136501190D01*
X190555476Y-136453571D01*
X190460238Y-136405952D01*
X198588333Y-136977380D02*
X198255000Y-136501190D01*
X198016904Y-136977380D02*
X198016904Y-135977380D01*
X198397857Y-135977380D01*
X198493095Y-136025000D01*
X198540714Y-136072619D01*
X198588333Y-136167857D01*
X198588333Y-136310714D01*
X198540714Y-136405952D01*
X198493095Y-136453571D01*
X198397857Y-136501190D01*
X198016904Y-136501190D01*
X198921666Y-135977380D02*
X199588333Y-135977380D01*
X199159761Y-136977380D01*
X211607142Y-124952380D02*
X211273809Y-124476190D01*
X211035714Y-124952380D02*
X211035714Y-123952380D01*
X211416666Y-123952380D01*
X211511904Y-124000000D01*
X211559523Y-124047619D01*
X211607142Y-124142857D01*
X211607142Y-124285714D01*
X211559523Y-124380952D01*
X211511904Y-124428571D01*
X211416666Y-124476190D01*
X211035714Y-124476190D01*
X212559523Y-124952380D02*
X211988095Y-124952380D01*
X212273809Y-124952380D02*
X212273809Y-123952380D01*
X212178571Y-124095238D01*
X212083333Y-124190476D01*
X211988095Y-124238095D01*
X213178571Y-123952380D02*
X213273809Y-123952380D01*
X213369047Y-124000000D01*
X213416666Y-124047619D01*
X213464285Y-124142857D01*
X213511904Y-124333333D01*
X213511904Y-124571428D01*
X213464285Y-124761904D01*
X213416666Y-124857142D01*
X213369047Y-124904761D01*
X213273809Y-124952380D01*
X213178571Y-124952380D01*
X213083333Y-124904761D01*
X213035714Y-124857142D01*
X212988095Y-124761904D01*
X212940476Y-124571428D01*
X212940476Y-124333333D01*
X212988095Y-124142857D01*
X213035714Y-124047619D01*
X213083333Y-124000000D01*
X213178571Y-123952380D01*
X214738095Y-129452380D02*
X214738095Y-130261904D01*
X214785714Y-130357142D01*
X214833333Y-130404761D01*
X214928571Y-130452380D01*
X215119047Y-130452380D01*
X215214285Y-130404761D01*
X215261904Y-130357142D01*
X215309523Y-130261904D01*
X215309523Y-129452380D01*
X215738095Y-129547619D02*
X215785714Y-129500000D01*
X215880952Y-129452380D01*
X216119047Y-129452380D01*
X216214285Y-129500000D01*
X216261904Y-129547619D01*
X216309523Y-129642857D01*
X216309523Y-129738095D01*
X216261904Y-129880952D01*
X215690476Y-130452380D01*
X216309523Y-130452380D01*
X194206904Y-115277380D02*
X194206904Y-114277380D01*
X194445000Y-114277380D01*
X194587857Y-114325000D01*
X194683095Y-114420238D01*
X194730714Y-114515476D01*
X194778333Y-114705952D01*
X194778333Y-114848809D01*
X194730714Y-115039285D01*
X194683095Y-115134523D01*
X194587857Y-115229761D01*
X194445000Y-115277380D01*
X194206904Y-115277380D01*
X195159285Y-114372619D02*
X195206904Y-114325000D01*
X195302142Y-114277380D01*
X195540238Y-114277380D01*
X195635476Y-114325000D01*
X195683095Y-114372619D01*
X195730714Y-114467857D01*
X195730714Y-114563095D01*
X195683095Y-114705952D01*
X195111666Y-115277380D01*
X195730714Y-115277380D01*
X196261904Y-122452380D02*
X196261904Y-121452380D01*
X196500000Y-121452380D01*
X196642857Y-121500000D01*
X196738095Y-121595238D01*
X196785714Y-121690476D01*
X196833333Y-121880952D01*
X196833333Y-122023809D01*
X196785714Y-122214285D01*
X196738095Y-122309523D01*
X196642857Y-122404761D01*
X196500000Y-122452380D01*
X196261904Y-122452380D01*
X197166666Y-121452380D02*
X197785714Y-121452380D01*
X197452380Y-121833333D01*
X197595238Y-121833333D01*
X197690476Y-121880952D01*
X197738095Y-121928571D01*
X197785714Y-122023809D01*
X197785714Y-122261904D01*
X197738095Y-122357142D01*
X197690476Y-122404761D01*
X197595238Y-122452380D01*
X197309523Y-122452380D01*
X197214285Y-122404761D01*
X197166666Y-122357142D01*
X204366904Y-122897380D02*
X204366904Y-121897380D01*
X204605000Y-121897380D01*
X204747857Y-121945000D01*
X204843095Y-122040238D01*
X204890714Y-122135476D01*
X204938333Y-122325952D01*
X204938333Y-122468809D01*
X204890714Y-122659285D01*
X204843095Y-122754523D01*
X204747857Y-122849761D01*
X204605000Y-122897380D01*
X204366904Y-122897380D01*
X205795476Y-122230714D02*
X205795476Y-122897380D01*
X205557380Y-121849761D02*
X205319285Y-122564047D01*
X205938333Y-122564047D01*
X195761904Y-130702380D02*
X195761904Y-129702380D01*
X196000000Y-129702380D01*
X196142857Y-129750000D01*
X196238095Y-129845238D01*
X196285714Y-129940476D01*
X196333333Y-130130952D01*
X196333333Y-130273809D01*
X196285714Y-130464285D01*
X196238095Y-130559523D01*
X196142857Y-130654761D01*
X196000000Y-130702380D01*
X195761904Y-130702380D01*
X197238095Y-129702380D02*
X196761904Y-129702380D01*
X196714285Y-130178571D01*
X196761904Y-130130952D01*
X196857142Y-130083333D01*
X197095238Y-130083333D01*
X197190476Y-130130952D01*
X197238095Y-130178571D01*
X197285714Y-130273809D01*
X197285714Y-130511904D01*
X197238095Y-130607142D01*
X197190476Y-130654761D01*
X197095238Y-130702380D01*
X196857142Y-130702380D01*
X196761904Y-130654761D01*
X196714285Y-130607142D01*
X203511904Y-130702380D02*
X203511904Y-129702380D01*
X203750000Y-129702380D01*
X203892857Y-129750000D01*
X203988095Y-129845238D01*
X204035714Y-129940476D01*
X204083333Y-130130952D01*
X204083333Y-130273809D01*
X204035714Y-130464285D01*
X203988095Y-130559523D01*
X203892857Y-130654761D01*
X203750000Y-130702380D01*
X203511904Y-130702380D01*
X204940476Y-129702380D02*
X204750000Y-129702380D01*
X204654761Y-129750000D01*
X204607142Y-129797619D01*
X204511904Y-129940476D01*
X204464285Y-130130952D01*
X204464285Y-130511904D01*
X204511904Y-130607142D01*
X204559523Y-130654761D01*
X204654761Y-130702380D01*
X204845238Y-130702380D01*
X204940476Y-130654761D01*
X204988095Y-130607142D01*
X205035714Y-130511904D01*
X205035714Y-130273809D01*
X204988095Y-130178571D01*
X204940476Y-130130952D01*
X204845238Y-130083333D01*
X204654761Y-130083333D01*
X204559523Y-130130952D01*
X204511904Y-130178571D01*
X204464285Y-130273809D01*
%LPC*%
D13*
X182080000Y-138430000D03*
D14*
X183245000Y-138430000D03*
D13*
X192240000Y-138250000D03*
D14*
X193405000Y-138250000D03*
D13*
X201765000Y-138250000D03*
D14*
X202930000Y-138250000D03*
D15*
X199950000Y-113500000D03*
X197050000Y-113500000D03*
X198800000Y-121250000D03*
X201700000Y-121250000D03*
D16*
X209250000Y-121300000D03*
X209250000Y-124200000D03*
D15*
X198800000Y-129000000D03*
X201700000Y-129000000D03*
X209200000Y-129000000D03*
X206300000Y-129000000D03*
D17*
X209050000Y-118750000D03*
X211950000Y-118750000D03*
D18*
X205000000Y-115850000D03*
X205000000Y-119150000D03*
D19*
X206050000Y-115850000D03*
X206050000Y-119150000D03*
X203950000Y-119150000D03*
X203950000Y-115850000D03*
D20*
X182245000Y-133960000D03*
X187325000Y-133960000D03*
X189865000Y-133960000D03*
X179705000Y-133960000D03*
X184785000Y-133960000D03*
X187325000Y-114960000D03*
X189865000Y-114960000D03*
X179705000Y-114960000D03*
X182245000Y-114960000D03*
X184785000Y-114960000D03*
D21*
X216000000Y-116000000D03*
X172000000Y-116000000D03*
X216000000Y-140000000D03*
X172000000Y-140000000D03*
D22*
X222250000Y-135000000D03*
X222250000Y-136500000D03*
D23*
X206750000Y-138250000D03*
X205250000Y-138250000D03*
X200000000Y-111500000D03*
X198500000Y-111500000D03*
X212250000Y-133500000D03*
X210750000Y-133500000D03*
X213750000Y-126500000D03*
X215250000Y-126500000D03*
D24*
X180500000Y-138430000D03*
X179000000Y-138430000D03*
X189250000Y-138250000D03*
X190750000Y-138250000D03*
X198500000Y-138250000D03*
X200000000Y-138250000D03*
X212500000Y-126500000D03*
X211000000Y-126500000D03*
D25*
X212500000Y-128900000D03*
X211550000Y-128900000D03*
X213450000Y-128900000D03*
X213450000Y-131100000D03*
X212500000Y-131100000D03*
X211550000Y-131100000D03*
D26*
X196185000Y-118225000D03*
X198785000Y-118225000D03*
X198785000Y-116725000D03*
X196185000Y-116725000D03*
X196185000Y-124345000D03*
X198785000Y-124345000D03*
X198785000Y-125845000D03*
X196185000Y-125845000D03*
X203805000Y-124345000D03*
X206405000Y-124345000D03*
X206405000Y-125845000D03*
X203805000Y-125845000D03*
X196185000Y-133465000D03*
X198785000Y-133465000D03*
X198785000Y-131965000D03*
X196185000Y-131965000D03*
X203805000Y-131965000D03*
X206405000Y-131965000D03*
X206405000Y-133465000D03*
X203805000Y-133465000D03*
D27*
X219500000Y-119220000D03*
X219500000Y-121760000D03*
X219500000Y-124300000D03*
X219500000Y-126840000D03*
X219500000Y-129380000D03*
X219500000Y-131920000D03*
X219500000Y-134460000D03*
D28*
X219500000Y-137000000D03*
M02*
