G04 #@! TF.FileFunction,Legend,Top*
%FSLAX46Y46*%
G04 Gerber Fmt 4.6, Leading zero omitted, Abs format (unit mm)*
G04 Created by KiCad (PCBNEW 4.0.7) date 10/18/18 13:28:54*
%MOMM*%
%LPD*%
G01*
G04 APERTURE LIST*
%ADD10C,0.100000*%
%ADD11C,0.200000*%
%ADD12C,0.150000*%
%ADD13C,0.120000*%
%ADD14C,2.301600*%
%ADD15R,0.351600X0.801600*%
%ADD16R,0.801600X0.351600*%
%ADD17R,1.389100X1.389100*%
%ADD18R,1.101600X1.701600*%
%ADD19R,1.701600X1.101600*%
%ADD20R,1.301600X1.301600*%
%ADD21R,1.001600X1.801600*%
%ADD22R,1.201600X1.601600*%
%ADD23R,1.161600X0.751600*%
%ADD24R,1.351600X1.101600*%
%ADD25R,0.801600X1.401600*%
%ADD26R,1.001600X0.651600*%
%ADD27R,1.101600X1.351600*%
G04 APERTURE END LIST*
D10*
D11*
X209450000Y-121000000D02*
X210250000Y-121000000D01*
X202450000Y-121000000D02*
X206100000Y-121000000D01*
X175200000Y-134900000D02*
X174500000Y-134900000D01*
X175200000Y-134300000D02*
X175200000Y-134900000D01*
X170550000Y-123450000D02*
X170550000Y-123950000D01*
X171000000Y-123450000D02*
X170550000Y-123450000D01*
X211000000Y-135000000D02*
X208600000Y-135000000D01*
X201000000Y-135000000D02*
X203800000Y-135000000D01*
X189000000Y-121000000D02*
X197500000Y-121000000D01*
X201000000Y-111000000D02*
X201000000Y-120500000D01*
X211000000Y-123000000D02*
X211000000Y-127800000D01*
X211000000Y-135000000D02*
X211000000Y-145000000D01*
X199000000Y-135000000D02*
X199000000Y-145000000D01*
X187000000Y-135000000D02*
X187000000Y-145000000D01*
X199000000Y-123000000D02*
X199000000Y-133000000D01*
X187000000Y-123000000D02*
X187000000Y-133000000D01*
X199000000Y-111000000D02*
X199000000Y-120500000D01*
X199000000Y-135000000D02*
X189000000Y-135000000D01*
X187000000Y-135000000D02*
X177000000Y-135000000D01*
X211000000Y-123000000D02*
X201000000Y-123000000D01*
X199000000Y-123000000D02*
X189000000Y-123000000D01*
X187000000Y-123000000D02*
X177000000Y-123000000D01*
X208000000Y-111000000D02*
X201000000Y-111000000D01*
X199000000Y-111000000D02*
X189000000Y-111000000D01*
X201000000Y-145000000D02*
X211000000Y-145000000D01*
X189000000Y-145000000D02*
X199000000Y-145000000D01*
X177000000Y-145000000D02*
X187000000Y-145000000D01*
X201000000Y-133000000D02*
X210500000Y-133000000D01*
X189000000Y-133000000D02*
X199000000Y-133000000D01*
X177000000Y-133000000D02*
X187000000Y-133000000D01*
X201000000Y-135000000D02*
X201000000Y-145000000D01*
X189000000Y-135000000D02*
X189000000Y-145000000D01*
X177000000Y-135000000D02*
X177000000Y-145000000D01*
X201000000Y-123000000D02*
X201000000Y-133000000D01*
X189000000Y-123000000D02*
X189000000Y-133000000D01*
X177000000Y-123000000D02*
X177000000Y-133000000D01*
X189000000Y-111000000D02*
X189000000Y-121000000D01*
X187000000Y-111000000D02*
X187000000Y-121000000D01*
X187000000Y-111000000D02*
X177000000Y-111000000D01*
X177000000Y-121000000D02*
X187000000Y-121000000D01*
X177000000Y-111000000D02*
X177000000Y-121000000D01*
D12*
X218150000Y-135200000D02*
X217625000Y-135200000D01*
X210900000Y-127950000D02*
X211425000Y-127950000D01*
X210900000Y-135200000D02*
X211425000Y-135200000D01*
X218150000Y-127950000D02*
X218150000Y-128475000D01*
X210900000Y-127950000D02*
X210900000Y-128475000D01*
X210900000Y-135200000D02*
X210900000Y-134675000D01*
X218150000Y-135200000D02*
X218150000Y-134675000D01*
D13*
X211200000Y-110780000D02*
X209200000Y-110780000D01*
X209200000Y-112820000D02*
X211200000Y-112820000D01*
X199000000Y-122520000D02*
X201000000Y-122520000D01*
X201000000Y-120480000D02*
X199000000Y-120480000D01*
X205200000Y-136720000D02*
X207200000Y-136720000D01*
X207200000Y-134680000D02*
X205200000Y-134680000D01*
X217680000Y-115600000D02*
X217680000Y-117600000D01*
X219720000Y-117600000D02*
X219720000Y-115600000D01*
X180200000Y-115300000D02*
X180200000Y-116700000D01*
X180200000Y-116700000D02*
X183000000Y-116700000D01*
X180200000Y-115300000D02*
X183000000Y-115300000D01*
X222800000Y-136770000D02*
X220800000Y-136770000D01*
X220800000Y-134630000D02*
X222800000Y-134630000D01*
X220800000Y-137330000D02*
X222800000Y-137330000D01*
X222800000Y-139470000D02*
X220800000Y-139470000D01*
X222800000Y-142270000D02*
X220800000Y-142270000D01*
X220800000Y-140130000D02*
X222800000Y-140130000D01*
X211200000Y-113630000D02*
X213200000Y-113630000D01*
X213200000Y-115770000D02*
X211200000Y-115770000D01*
X213200000Y-119190000D02*
X211400000Y-119190000D01*
X211400000Y-122410000D02*
X213850000Y-122410000D01*
X215150000Y-119800000D02*
X215150000Y-120800000D01*
X216850000Y-120800000D02*
X216850000Y-119800000D01*
X218950000Y-127800000D02*
X218950000Y-128800000D01*
X220650000Y-128800000D02*
X220650000Y-127800000D01*
X208400000Y-121180000D02*
X207200000Y-121180000D01*
X207200000Y-119420000D02*
X208400000Y-119420000D01*
X182600000Y-121380000D02*
X181400000Y-121380000D01*
X181400000Y-119620000D02*
X182600000Y-119620000D01*
X203950000Y-138225000D02*
X203950000Y-139125000D01*
X204000000Y-141800000D02*
X208000000Y-141800000D01*
X208000000Y-138200000D02*
X204000000Y-138200000D01*
X191950000Y-138225000D02*
X191950000Y-139125000D01*
X192000000Y-141800000D02*
X196000000Y-141800000D01*
X196000000Y-138200000D02*
X192000000Y-138200000D01*
X179950000Y-138225000D02*
X179950000Y-139125000D01*
X180000000Y-141800000D02*
X184000000Y-141800000D01*
X184000000Y-138200000D02*
X180000000Y-138200000D01*
X203950000Y-126225000D02*
X203950000Y-127125000D01*
X204000000Y-129800000D02*
X208000000Y-129800000D01*
X208000000Y-126200000D02*
X204000000Y-126200000D01*
X191950000Y-126225000D02*
X191950000Y-127125000D01*
X192000000Y-129800000D02*
X196000000Y-129800000D01*
X196000000Y-126200000D02*
X192000000Y-126200000D01*
X179950000Y-126225000D02*
X179950000Y-127125000D01*
X180000000Y-129800000D02*
X184000000Y-129800000D01*
X184000000Y-126200000D02*
X180000000Y-126200000D01*
X203950000Y-114225000D02*
X203950000Y-115125000D01*
X204000000Y-117800000D02*
X208000000Y-117800000D01*
X208000000Y-114200000D02*
X204000000Y-114200000D01*
X191950000Y-114225000D02*
X191950000Y-115125000D01*
X192000000Y-117800000D02*
X196000000Y-117800000D01*
X196000000Y-114200000D02*
X192000000Y-114200000D01*
X211700000Y-118250000D02*
X212700000Y-118250000D01*
X212700000Y-116550000D02*
X211700000Y-116550000D01*
D12*
X213741095Y-135723381D02*
X213741095Y-136532905D01*
X213788714Y-136628143D01*
X213836333Y-136675762D01*
X213931571Y-136723381D01*
X214122048Y-136723381D01*
X214217286Y-136675762D01*
X214264905Y-136628143D01*
X214312524Y-136532905D01*
X214312524Y-135723381D01*
X215312524Y-136723381D02*
X214741095Y-136723381D01*
X215026809Y-136723381D02*
X215026809Y-135723381D01*
X214931571Y-135866238D01*
X214836333Y-135961476D01*
X214741095Y-136009095D01*
X210033334Y-110407143D02*
X209985715Y-110454762D01*
X209842858Y-110502381D01*
X209747620Y-110502381D01*
X209604762Y-110454762D01*
X209509524Y-110359524D01*
X209461905Y-110264286D01*
X209414286Y-110073810D01*
X209414286Y-109930952D01*
X209461905Y-109740476D01*
X209509524Y-109645238D01*
X209604762Y-109550000D01*
X209747620Y-109502381D01*
X209842858Y-109502381D01*
X209985715Y-109550000D01*
X210033334Y-109597619D01*
X210414286Y-109597619D02*
X210461905Y-109550000D01*
X210557143Y-109502381D01*
X210795239Y-109502381D01*
X210890477Y-109550000D01*
X210938096Y-109597619D01*
X210985715Y-109692857D01*
X210985715Y-109788095D01*
X210938096Y-109930952D01*
X210366667Y-110502381D01*
X210985715Y-110502381D01*
X199731334Y-120118143D02*
X199683715Y-120165762D01*
X199540858Y-120213381D01*
X199445620Y-120213381D01*
X199302762Y-120165762D01*
X199207524Y-120070524D01*
X199159905Y-119975286D01*
X199112286Y-119784810D01*
X199112286Y-119641952D01*
X199159905Y-119451476D01*
X199207524Y-119356238D01*
X199302762Y-119261000D01*
X199445620Y-119213381D01*
X199540858Y-119213381D01*
X199683715Y-119261000D01*
X199731334Y-119308619D01*
X200064667Y-119213381D02*
X200683715Y-119213381D01*
X200350381Y-119594333D01*
X200493239Y-119594333D01*
X200588477Y-119641952D01*
X200636096Y-119689571D01*
X200683715Y-119784810D01*
X200683715Y-120022905D01*
X200636096Y-120118143D01*
X200588477Y-120165762D01*
X200493239Y-120213381D01*
X200207524Y-120213381D01*
X200112286Y-120165762D01*
X200064667Y-120118143D01*
X206081334Y-134215143D02*
X206033715Y-134262762D01*
X205890858Y-134310381D01*
X205795620Y-134310381D01*
X205652762Y-134262762D01*
X205557524Y-134167524D01*
X205509905Y-134072286D01*
X205462286Y-133881810D01*
X205462286Y-133738952D01*
X205509905Y-133548476D01*
X205557524Y-133453238D01*
X205652762Y-133358000D01*
X205795620Y-133310381D01*
X205890858Y-133310381D01*
X206033715Y-133358000D01*
X206081334Y-133405619D01*
X206938477Y-133643714D02*
X206938477Y-134310381D01*
X206700381Y-133262762D02*
X206462286Y-133977048D01*
X207081334Y-133977048D01*
X220813334Y-116943143D02*
X220765715Y-116990762D01*
X220622858Y-117038381D01*
X220527620Y-117038381D01*
X220384762Y-116990762D01*
X220289524Y-116895524D01*
X220241905Y-116800286D01*
X220194286Y-116609810D01*
X220194286Y-116466952D01*
X220241905Y-116276476D01*
X220289524Y-116181238D01*
X220384762Y-116086000D01*
X220527620Y-116038381D01*
X220622858Y-116038381D01*
X220765715Y-116086000D01*
X220813334Y-116133619D01*
X221146667Y-116038381D02*
X221813334Y-116038381D01*
X221384762Y-117038381D01*
X181261905Y-115002381D02*
X181261905Y-114002381D01*
X181500000Y-114002381D01*
X181642858Y-114050000D01*
X181738096Y-114145238D01*
X181785715Y-114240476D01*
X181833334Y-114430952D01*
X181833334Y-114573810D01*
X181785715Y-114764286D01*
X181738096Y-114859524D01*
X181642858Y-114954762D01*
X181500000Y-115002381D01*
X181261905Y-115002381D01*
X182309524Y-115002381D02*
X182500000Y-115002381D01*
X182595239Y-114954762D01*
X182642858Y-114907143D01*
X182738096Y-114764286D01*
X182785715Y-114573810D01*
X182785715Y-114192857D01*
X182738096Y-114097619D01*
X182690477Y-114050000D01*
X182595239Y-114002381D01*
X182404762Y-114002381D01*
X182309524Y-114050000D01*
X182261905Y-114097619D01*
X182214286Y-114192857D01*
X182214286Y-114430952D01*
X182261905Y-114526190D01*
X182309524Y-114573810D01*
X182404762Y-114621429D01*
X182595239Y-114621429D01*
X182690477Y-114573810D01*
X182738096Y-114526190D01*
X182785715Y-114430952D01*
X218258334Y-137002381D02*
X217925000Y-136526190D01*
X217686905Y-137002381D02*
X217686905Y-136002381D01*
X218067858Y-136002381D01*
X218163096Y-136050000D01*
X218210715Y-136097619D01*
X218258334Y-136192857D01*
X218258334Y-136335714D01*
X218210715Y-136430952D01*
X218163096Y-136478571D01*
X218067858Y-136526190D01*
X217686905Y-136526190D01*
X219210715Y-137002381D02*
X218639286Y-137002381D01*
X218925000Y-137002381D02*
X218925000Y-136002381D01*
X218829762Y-136145238D01*
X218734524Y-136240476D01*
X218639286Y-136288095D01*
X218233334Y-139352381D02*
X217900000Y-138876190D01*
X217661905Y-139352381D02*
X217661905Y-138352381D01*
X218042858Y-138352381D01*
X218138096Y-138400000D01*
X218185715Y-138447619D01*
X218233334Y-138542857D01*
X218233334Y-138685714D01*
X218185715Y-138780952D01*
X218138096Y-138828571D01*
X218042858Y-138876190D01*
X217661905Y-138876190D01*
X218614286Y-138447619D02*
X218661905Y-138400000D01*
X218757143Y-138352381D01*
X218995239Y-138352381D01*
X219090477Y-138400000D01*
X219138096Y-138447619D01*
X219185715Y-138542857D01*
X219185715Y-138638095D01*
X219138096Y-138780952D01*
X218566667Y-139352381D01*
X219185715Y-139352381D01*
X218233334Y-141877381D02*
X217900000Y-141401190D01*
X217661905Y-141877381D02*
X217661905Y-140877381D01*
X218042858Y-140877381D01*
X218138096Y-140925000D01*
X218185715Y-140972619D01*
X218233334Y-141067857D01*
X218233334Y-141210714D01*
X218185715Y-141305952D01*
X218138096Y-141353571D01*
X218042858Y-141401190D01*
X217661905Y-141401190D01*
X218566667Y-140877381D02*
X219185715Y-140877381D01*
X218852381Y-141258333D01*
X218995239Y-141258333D01*
X219090477Y-141305952D01*
X219138096Y-141353571D01*
X219185715Y-141448810D01*
X219185715Y-141686905D01*
X219138096Y-141782143D01*
X219090477Y-141829762D01*
X218995239Y-141877381D01*
X218709524Y-141877381D01*
X218614286Y-141829762D01*
X218566667Y-141782143D01*
X209002334Y-115260381D02*
X208669000Y-114784190D01*
X208430905Y-115260381D02*
X208430905Y-114260381D01*
X208811858Y-114260381D01*
X208907096Y-114308000D01*
X208954715Y-114355619D01*
X209002334Y-114450857D01*
X209002334Y-114593714D01*
X208954715Y-114688952D01*
X208907096Y-114736571D01*
X208811858Y-114784190D01*
X208430905Y-114784190D01*
X209859477Y-114260381D02*
X209669000Y-114260381D01*
X209573762Y-114308000D01*
X209526143Y-114355619D01*
X209430905Y-114498476D01*
X209383286Y-114688952D01*
X209383286Y-115069905D01*
X209430905Y-115165143D01*
X209478524Y-115212762D01*
X209573762Y-115260381D01*
X209764239Y-115260381D01*
X209859477Y-115212762D01*
X209907096Y-115165143D01*
X209954715Y-115069905D01*
X209954715Y-114831810D01*
X209907096Y-114736571D01*
X209859477Y-114688952D01*
X209764239Y-114641333D01*
X209573762Y-114641333D01*
X209478524Y-114688952D01*
X209430905Y-114736571D01*
X209383286Y-114831810D01*
X171666667Y-123404762D02*
X171809524Y-123452381D01*
X172047620Y-123452381D01*
X172142858Y-123404762D01*
X172190477Y-123357143D01*
X172238096Y-123261905D01*
X172238096Y-123166667D01*
X172190477Y-123071429D01*
X172142858Y-123023810D01*
X172047620Y-122976190D01*
X171857143Y-122928571D01*
X171761905Y-122880952D01*
X171714286Y-122833333D01*
X171666667Y-122738095D01*
X171666667Y-122642857D01*
X171714286Y-122547619D01*
X171761905Y-122500000D01*
X171857143Y-122452381D01*
X172095239Y-122452381D01*
X172238096Y-122500000D01*
X172571429Y-122452381D02*
X172809524Y-123452381D01*
X173000001Y-122738095D01*
X173190477Y-123452381D01*
X173428572Y-122452381D01*
X174333334Y-123452381D02*
X173761905Y-123452381D01*
X174047619Y-123452381D02*
X174047619Y-122452381D01*
X173952381Y-122595238D01*
X173857143Y-122690476D01*
X173761905Y-122738095D01*
X211538095Y-123152381D02*
X211538095Y-123961905D01*
X211585714Y-124057143D01*
X211633333Y-124104762D01*
X211728571Y-124152381D01*
X211919048Y-124152381D01*
X212014286Y-124104762D01*
X212061905Y-124057143D01*
X212109524Y-123961905D01*
X212109524Y-123152381D01*
X212538095Y-123247619D02*
X212585714Y-123200000D01*
X212680952Y-123152381D01*
X212919048Y-123152381D01*
X213014286Y-123200000D01*
X213061905Y-123247619D01*
X213109524Y-123342857D01*
X213109524Y-123438095D01*
X213061905Y-123580952D01*
X212490476Y-124152381D01*
X213109524Y-124152381D01*
X218019334Y-120753143D02*
X217971715Y-120800762D01*
X217828858Y-120848381D01*
X217733620Y-120848381D01*
X217590762Y-120800762D01*
X217495524Y-120705524D01*
X217447905Y-120610286D01*
X217400286Y-120419810D01*
X217400286Y-120276952D01*
X217447905Y-120086476D01*
X217495524Y-119991238D01*
X217590762Y-119896000D01*
X217733620Y-119848381D01*
X217828858Y-119848381D01*
X217971715Y-119896000D01*
X218019334Y-119943619D01*
X218924096Y-119848381D02*
X218447905Y-119848381D01*
X218400286Y-120324571D01*
X218447905Y-120276952D01*
X218543143Y-120229333D01*
X218781239Y-120229333D01*
X218876477Y-120276952D01*
X218924096Y-120324571D01*
X218971715Y-120419810D01*
X218971715Y-120657905D01*
X218924096Y-120753143D01*
X218876477Y-120800762D01*
X218781239Y-120848381D01*
X218543143Y-120848381D01*
X218447905Y-120800762D01*
X218400286Y-120753143D01*
X221829334Y-128754143D02*
X221781715Y-128801762D01*
X221638858Y-128849381D01*
X221543620Y-128849381D01*
X221400762Y-128801762D01*
X221305524Y-128706524D01*
X221257905Y-128611286D01*
X221210286Y-128420810D01*
X221210286Y-128277952D01*
X221257905Y-128087476D01*
X221305524Y-127992238D01*
X221400762Y-127897000D01*
X221543620Y-127849381D01*
X221638858Y-127849381D01*
X221781715Y-127897000D01*
X221829334Y-127944619D01*
X222781715Y-128849381D02*
X222210286Y-128849381D01*
X222496000Y-128849381D02*
X222496000Y-127849381D01*
X222400762Y-127992238D01*
X222305524Y-128087476D01*
X222210286Y-128135095D01*
X207633334Y-119102381D02*
X207300000Y-118626190D01*
X207061905Y-119102381D02*
X207061905Y-118102381D01*
X207442858Y-118102381D01*
X207538096Y-118150000D01*
X207585715Y-118197619D01*
X207633334Y-118292857D01*
X207633334Y-118435714D01*
X207585715Y-118530952D01*
X207538096Y-118578571D01*
X207442858Y-118626190D01*
X207061905Y-118626190D01*
X208538096Y-118102381D02*
X208061905Y-118102381D01*
X208014286Y-118578571D01*
X208061905Y-118530952D01*
X208157143Y-118483333D01*
X208395239Y-118483333D01*
X208490477Y-118530952D01*
X208538096Y-118578571D01*
X208585715Y-118673810D01*
X208585715Y-118911905D01*
X208538096Y-119007143D01*
X208490477Y-119054762D01*
X208395239Y-119102381D01*
X208157143Y-119102381D01*
X208061905Y-119054762D01*
X208014286Y-119007143D01*
X181833334Y-119302381D02*
X181500000Y-118826190D01*
X181261905Y-119302381D02*
X181261905Y-118302381D01*
X181642858Y-118302381D01*
X181738096Y-118350000D01*
X181785715Y-118397619D01*
X181833334Y-118492857D01*
X181833334Y-118635714D01*
X181785715Y-118730952D01*
X181738096Y-118778571D01*
X181642858Y-118826190D01*
X181261905Y-118826190D01*
X182690477Y-118635714D02*
X182690477Y-119302381D01*
X182452381Y-118254762D02*
X182214286Y-118969048D01*
X182833334Y-118969048D01*
X205255905Y-137866381D02*
X205255905Y-136866381D01*
X205494000Y-136866381D01*
X205636858Y-136914000D01*
X205732096Y-137009238D01*
X205779715Y-137104476D01*
X205827334Y-137294952D01*
X205827334Y-137437810D01*
X205779715Y-137628286D01*
X205732096Y-137723524D01*
X205636858Y-137818762D01*
X205494000Y-137866381D01*
X205255905Y-137866381D01*
X206398762Y-137294952D02*
X206303524Y-137247333D01*
X206255905Y-137199714D01*
X206208286Y-137104476D01*
X206208286Y-137056857D01*
X206255905Y-136961619D01*
X206303524Y-136914000D01*
X206398762Y-136866381D01*
X206589239Y-136866381D01*
X206684477Y-136914000D01*
X206732096Y-136961619D01*
X206779715Y-137056857D01*
X206779715Y-137104476D01*
X206732096Y-137199714D01*
X206684477Y-137247333D01*
X206589239Y-137294952D01*
X206398762Y-137294952D01*
X206303524Y-137342571D01*
X206255905Y-137390190D01*
X206208286Y-137485429D01*
X206208286Y-137675905D01*
X206255905Y-137771143D01*
X206303524Y-137818762D01*
X206398762Y-137866381D01*
X206589239Y-137866381D01*
X206684477Y-137818762D01*
X206732096Y-137771143D01*
X206779715Y-137675905D01*
X206779715Y-137485429D01*
X206732096Y-137390190D01*
X206684477Y-137342571D01*
X206589239Y-137294952D01*
X193286905Y-137577381D02*
X193286905Y-136577381D01*
X193525000Y-136577381D01*
X193667858Y-136625000D01*
X193763096Y-136720238D01*
X193810715Y-136815476D01*
X193858334Y-137005952D01*
X193858334Y-137148810D01*
X193810715Y-137339286D01*
X193763096Y-137434524D01*
X193667858Y-137529762D01*
X193525000Y-137577381D01*
X193286905Y-137577381D01*
X194191667Y-136577381D02*
X194858334Y-136577381D01*
X194429762Y-137577381D01*
X181286905Y-137577381D02*
X181286905Y-136577381D01*
X181525000Y-136577381D01*
X181667858Y-136625000D01*
X181763096Y-136720238D01*
X181810715Y-136815476D01*
X181858334Y-137005952D01*
X181858334Y-137148810D01*
X181810715Y-137339286D01*
X181763096Y-137434524D01*
X181667858Y-137529762D01*
X181525000Y-137577381D01*
X181286905Y-137577381D01*
X182715477Y-136577381D02*
X182525000Y-136577381D01*
X182429762Y-136625000D01*
X182382143Y-136672619D01*
X182286905Y-136815476D01*
X182239286Y-137005952D01*
X182239286Y-137386905D01*
X182286905Y-137482143D01*
X182334524Y-137529762D01*
X182429762Y-137577381D01*
X182620239Y-137577381D01*
X182715477Y-137529762D01*
X182763096Y-137482143D01*
X182810715Y-137386905D01*
X182810715Y-137148810D01*
X182763096Y-137053571D01*
X182715477Y-137005952D01*
X182620239Y-136958333D01*
X182429762Y-136958333D01*
X182334524Y-137005952D01*
X182286905Y-137053571D01*
X182239286Y-137148810D01*
X205286905Y-125577381D02*
X205286905Y-124577381D01*
X205525000Y-124577381D01*
X205667858Y-124625000D01*
X205763096Y-124720238D01*
X205810715Y-124815476D01*
X205858334Y-125005952D01*
X205858334Y-125148810D01*
X205810715Y-125339286D01*
X205763096Y-125434524D01*
X205667858Y-125529762D01*
X205525000Y-125577381D01*
X205286905Y-125577381D01*
X206763096Y-124577381D02*
X206286905Y-124577381D01*
X206239286Y-125053571D01*
X206286905Y-125005952D01*
X206382143Y-124958333D01*
X206620239Y-124958333D01*
X206715477Y-125005952D01*
X206763096Y-125053571D01*
X206810715Y-125148810D01*
X206810715Y-125386905D01*
X206763096Y-125482143D01*
X206715477Y-125529762D01*
X206620239Y-125577381D01*
X206382143Y-125577381D01*
X206286905Y-125529762D01*
X206239286Y-125482143D01*
X193286905Y-125577381D02*
X193286905Y-124577381D01*
X193525000Y-124577381D01*
X193667858Y-124625000D01*
X193763096Y-124720238D01*
X193810715Y-124815476D01*
X193858334Y-125005952D01*
X193858334Y-125148810D01*
X193810715Y-125339286D01*
X193763096Y-125434524D01*
X193667858Y-125529762D01*
X193525000Y-125577381D01*
X193286905Y-125577381D01*
X194715477Y-124910714D02*
X194715477Y-125577381D01*
X194477381Y-124529762D02*
X194239286Y-125244048D01*
X194858334Y-125244048D01*
X181286905Y-125577381D02*
X181286905Y-124577381D01*
X181525000Y-124577381D01*
X181667858Y-124625000D01*
X181763096Y-124720238D01*
X181810715Y-124815476D01*
X181858334Y-125005952D01*
X181858334Y-125148810D01*
X181810715Y-125339286D01*
X181763096Y-125434524D01*
X181667858Y-125529762D01*
X181525000Y-125577381D01*
X181286905Y-125577381D01*
X182191667Y-124577381D02*
X182810715Y-124577381D01*
X182477381Y-124958333D01*
X182620239Y-124958333D01*
X182715477Y-125005952D01*
X182763096Y-125053571D01*
X182810715Y-125148810D01*
X182810715Y-125386905D01*
X182763096Y-125482143D01*
X182715477Y-125529762D01*
X182620239Y-125577381D01*
X182334524Y-125577381D01*
X182239286Y-125529762D01*
X182191667Y-125482143D01*
X205286905Y-113577381D02*
X205286905Y-112577381D01*
X205525000Y-112577381D01*
X205667858Y-112625000D01*
X205763096Y-112720238D01*
X205810715Y-112815476D01*
X205858334Y-113005952D01*
X205858334Y-113148810D01*
X205810715Y-113339286D01*
X205763096Y-113434524D01*
X205667858Y-113529762D01*
X205525000Y-113577381D01*
X205286905Y-113577381D01*
X206239286Y-112672619D02*
X206286905Y-112625000D01*
X206382143Y-112577381D01*
X206620239Y-112577381D01*
X206715477Y-112625000D01*
X206763096Y-112672619D01*
X206810715Y-112767857D01*
X206810715Y-112863095D01*
X206763096Y-113005952D01*
X206191667Y-113577381D01*
X206810715Y-113577381D01*
X193286905Y-113577381D02*
X193286905Y-112577381D01*
X193525000Y-112577381D01*
X193667858Y-112625000D01*
X193763096Y-112720238D01*
X193810715Y-112815476D01*
X193858334Y-113005952D01*
X193858334Y-113148810D01*
X193810715Y-113339286D01*
X193763096Y-113434524D01*
X193667858Y-113529762D01*
X193525000Y-113577381D01*
X193286905Y-113577381D01*
X194810715Y-113577381D02*
X194239286Y-113577381D01*
X194525000Y-113577381D02*
X194525000Y-112577381D01*
X194429762Y-112720238D01*
X194334524Y-112815476D01*
X194239286Y-112863095D01*
X209233334Y-117757143D02*
X209185715Y-117804762D01*
X209042858Y-117852381D01*
X208947620Y-117852381D01*
X208804762Y-117804762D01*
X208709524Y-117709524D01*
X208661905Y-117614286D01*
X208614286Y-117423810D01*
X208614286Y-117280952D01*
X208661905Y-117090476D01*
X208709524Y-116995238D01*
X208804762Y-116900000D01*
X208947620Y-116852381D01*
X209042858Y-116852381D01*
X209185715Y-116900000D01*
X209233334Y-116947619D01*
X210090477Y-116852381D02*
X209900000Y-116852381D01*
X209804762Y-116900000D01*
X209757143Y-116947619D01*
X209661905Y-117090476D01*
X209614286Y-117280952D01*
X209614286Y-117661905D01*
X209661905Y-117757143D01*
X209709524Y-117804762D01*
X209804762Y-117852381D01*
X209995239Y-117852381D01*
X210090477Y-117804762D01*
X210138096Y-117757143D01*
X210185715Y-117661905D01*
X210185715Y-117423810D01*
X210138096Y-117328571D01*
X210090477Y-117280952D01*
X209995239Y-117233333D01*
X209804762Y-117233333D01*
X209709524Y-117280952D01*
X209661905Y-117328571D01*
X209614286Y-117423810D01*
%LPC*%
D14*
X216000000Y-140000000D03*
D15*
X217275000Y-128175000D03*
X216775000Y-128175000D03*
X216275000Y-128175000D03*
X215775000Y-128175000D03*
X215275000Y-128175000D03*
X214775000Y-128175000D03*
X214275000Y-128175000D03*
X213775000Y-128175000D03*
X213275000Y-128175000D03*
X212775000Y-128175000D03*
X212275000Y-128175000D03*
X211775000Y-128175000D03*
D16*
X211125000Y-128825000D03*
X211125000Y-129325000D03*
X211125000Y-129825000D03*
X211125000Y-130325000D03*
X211125000Y-130825000D03*
X211125000Y-131325000D03*
X211125000Y-131825000D03*
X211125000Y-132325000D03*
X211125000Y-132825000D03*
X211125000Y-133325000D03*
X211125000Y-133825000D03*
X211125000Y-134325000D03*
D15*
X211775000Y-134975000D03*
X212275000Y-134975000D03*
X212775000Y-134975000D03*
X213275000Y-134975000D03*
X213775000Y-134975000D03*
X214275000Y-134975000D03*
X214775000Y-134975000D03*
X215275000Y-134975000D03*
X215775000Y-134975000D03*
X216275000Y-134975000D03*
X216775000Y-134975000D03*
X217275000Y-134975000D03*
D16*
X217925000Y-134325000D03*
X217925000Y-133825000D03*
X217925000Y-133325000D03*
X217925000Y-132825000D03*
X217925000Y-132325000D03*
X217925000Y-131825000D03*
X217925000Y-131325000D03*
X217925000Y-130825000D03*
X217925000Y-130325000D03*
X217925000Y-129825000D03*
X217925000Y-129325000D03*
X217925000Y-128825000D03*
D17*
X212593750Y-133506250D03*
X213881250Y-133506250D03*
X215168750Y-133506250D03*
X216456250Y-133506250D03*
X212593750Y-132218750D03*
X213881250Y-132218750D03*
X215168750Y-132218750D03*
X216456250Y-132218750D03*
X212593750Y-130931250D03*
X213881250Y-130931250D03*
X215168750Y-130931250D03*
X216456250Y-130931250D03*
X212593750Y-129643750D03*
X213881250Y-129643750D03*
X215168750Y-129643750D03*
X216456250Y-129643750D03*
D14*
X216000000Y-116000000D03*
X172000000Y-140000000D03*
D18*
X208700000Y-111800000D03*
X211700000Y-111800000D03*
X201500000Y-121500000D03*
X198500000Y-121500000D03*
X207700000Y-135700000D03*
X204700000Y-135700000D03*
D19*
X218700000Y-118100000D03*
X218700000Y-115100000D03*
D20*
X183100000Y-116000000D03*
X180900000Y-116000000D03*
D21*
X220350000Y-135700000D03*
X223250000Y-135700000D03*
X223250000Y-138400000D03*
X220350000Y-138400000D03*
X220350000Y-141200000D03*
X223250000Y-141200000D03*
X213650000Y-114700000D03*
X210750000Y-114700000D03*
D22*
X171550000Y-124800000D03*
X174090000Y-124800000D03*
X171550000Y-133700000D03*
X174090000Y-133700000D03*
D23*
X213400000Y-121750000D03*
X213400000Y-120800000D03*
X213400000Y-119850000D03*
X211200000Y-119850000D03*
X211200000Y-121750000D03*
X211200000Y-120800000D03*
D14*
X172000000Y-116000000D03*
D24*
X216000000Y-121300000D03*
X216000000Y-119300000D03*
X219800000Y-129300000D03*
X219800000Y-127300000D03*
D25*
X206850000Y-120300000D03*
X208750000Y-120300000D03*
X181050000Y-120500000D03*
X182950000Y-120500000D03*
D26*
X204650000Y-139100000D03*
X207350000Y-139100000D03*
X204650000Y-139950000D03*
X207350000Y-139950000D03*
X204650000Y-140800000D03*
X207350000Y-140800000D03*
X192650000Y-139100000D03*
X195350000Y-139100000D03*
X192650000Y-139950000D03*
X195350000Y-139950000D03*
X192650000Y-140800000D03*
X195350000Y-140800000D03*
X180650000Y-139100000D03*
X183350000Y-139100000D03*
X180650000Y-139950000D03*
X183350000Y-139950000D03*
X180650000Y-140800000D03*
X183350000Y-140800000D03*
X204650000Y-127100000D03*
X207350000Y-127100000D03*
X204650000Y-127950000D03*
X207350000Y-127950000D03*
X204650000Y-128800000D03*
X207350000Y-128800000D03*
X192650000Y-127100000D03*
X195350000Y-127100000D03*
X192650000Y-127950000D03*
X195350000Y-127950000D03*
X192650000Y-128800000D03*
X195350000Y-128800000D03*
X180650000Y-127100000D03*
X183350000Y-127100000D03*
X180650000Y-127950000D03*
X183350000Y-127950000D03*
X180650000Y-128800000D03*
X183350000Y-128800000D03*
X204650000Y-115100000D03*
X207350000Y-115100000D03*
X204650000Y-115950000D03*
X207350000Y-115950000D03*
X204650000Y-116800000D03*
X207350000Y-116800000D03*
X192650000Y-115100000D03*
X195350000Y-115100000D03*
X192650000Y-115950000D03*
X195350000Y-115950000D03*
X192650000Y-116800000D03*
X195350000Y-116800000D03*
D27*
X213200000Y-117400000D03*
X211200000Y-117400000D03*
M02*
