M48
INCH,TZ
T1C0.0157
T2C0.0394
%
G90
G05
T1
X70768Y-44980
X71752Y-44980
X71752Y-53051
X73720Y-44980
X73720Y-53051
X74705Y-44980
X74803Y-53051
X75000Y-48917
X75295Y-49213
X75295Y-50984
X75689Y-50886
X75984Y-51575
X76378Y-51673
X77756Y-43898
X80807Y-50197
X80807Y-50591
X82087Y-49803
X82087Y-52067
X82087Y-52657
X82283Y-52362
X82638Y-54094
X82677Y-49606
X82756Y-53740
X82874Y-50689
X83169Y-49311
X83386Y-54803
X83957Y-52559
X84547Y-49016
X84843Y-50197
X85138Y-49803
T2
X86220Y-47638
X86220Y-48425
X86220Y-49213
X86220Y-50000
X86220Y-50787
X86220Y-51575
X86220Y-52362
X86220Y-53150
T0
M30
