G04 #@! TF.GenerationSoftware,KiCad,Pcbnew,(5.1.4)-1*
G04 #@! TF.CreationDate,2020-07-18T15:03:42-04:00*
G04 #@! TF.ProjectId,Dash_Warning_Panel,44617368-5f57-4617-926e-696e675f5061,rev?*
G04 #@! TF.SameCoordinates,Original*
G04 #@! TF.FileFunction,Copper,L1,Top*
G04 #@! TF.FilePolarity,Positive*
%FSLAX46Y46*%
G04 Gerber Fmt 4.6, Leading zero omitted, Abs format (unit mm)*
G04 Created by KiCad (PCBNEW (5.1.4)-1) date 2020-07-18 15:03:42*
%MOMM*%
%LPD*%
G04 APERTURE LIST*
%ADD10C,1.600000*%
%ADD11R,0.900000X2.500000*%
%ADD12R,0.600000X1.600000*%
%ADD13R,0.800000X1.600000*%
%ADD14R,2.000000X3.500000*%
%ADD15R,1.200000X1.600000*%
%ADD16R,0.600000X3.500000*%
%ADD17C,1.250000*%
%ADD18R,0.750000X0.800000*%
%ADD19R,0.800000X0.750000*%
%ADD20R,0.650000X1.060000*%
%ADD21R,1.500000X1.500000*%
%ADD22R,0.500000X0.900000*%
%ADD23R,0.900000X0.500000*%
%ADD24C,0.600000*%
%ADD25C,0.300000*%
%ADD26C,0.500000*%
%ADD27C,0.220000*%
%ADD28C,0.170000*%
G04 APERTURE END LIST*
D10*
X219000000Y-121000000D03*
X219000000Y-123000000D03*
X219000000Y-125000000D03*
X219000000Y-127000000D03*
X219000000Y-129000000D03*
X219000000Y-131000000D03*
X219000000Y-133000000D03*
X219000000Y-135000000D03*
D11*
X209050000Y-118750000D03*
X211950000Y-118750000D03*
D12*
X205000000Y-115850000D03*
X205000000Y-119150000D03*
D13*
X206050000Y-115850000D03*
X206050000Y-119150000D03*
X203950000Y-119150000D03*
X203950000Y-115850000D03*
D14*
X206651000Y-113309000D03*
X203349000Y-113309000D03*
D15*
X207032000Y-115849000D03*
X207032000Y-119151000D03*
X202968000Y-119151000D03*
X202968000Y-115849000D03*
D16*
X205000000Y-113309000D03*
D17*
X182245000Y-133960000D03*
X187325000Y-133960000D03*
X189865000Y-133960000D03*
X179705000Y-133960000D03*
X184785000Y-133960000D03*
X187325000Y-114960000D03*
X189865000Y-114960000D03*
X179705000Y-114960000D03*
X182245000Y-114960000D03*
X184785000Y-114960000D03*
D18*
X217000000Y-133500000D03*
X217000000Y-135000000D03*
D19*
X210650000Y-139200000D03*
X209150000Y-139200000D03*
X200000000Y-111500000D03*
X198500000Y-111500000D03*
X212250000Y-133500000D03*
X210750000Y-133500000D03*
X213750000Y-126500000D03*
X215250000Y-126500000D03*
D20*
X212500000Y-128900000D03*
X211550000Y-128900000D03*
X213450000Y-128900000D03*
X213450000Y-131100000D03*
X212500000Y-131100000D03*
X211550000Y-131100000D03*
D21*
X199135000Y-117475000D03*
X195835000Y-117475000D03*
X199135000Y-124975000D03*
X195835000Y-124975000D03*
X203350000Y-125000000D03*
X206650000Y-125000000D03*
X199135000Y-132475000D03*
X195835000Y-132475000D03*
X206650000Y-132500000D03*
X203350000Y-132500000D03*
X203650000Y-139200000D03*
X200350000Y-139200000D03*
X192325000Y-139100000D03*
X195625000Y-139100000D03*
X187600000Y-139100000D03*
X184300000Y-139100000D03*
D22*
X199250000Y-114500000D03*
X197750000Y-114500000D03*
X198250000Y-123000000D03*
X199750000Y-123000000D03*
D23*
X209000000Y-122750000D03*
X209000000Y-124250000D03*
D22*
X199750000Y-130000000D03*
X198250000Y-130000000D03*
X207000000Y-130000000D03*
X208500000Y-130000000D03*
X199250000Y-142000000D03*
X200750000Y-142000000D03*
X192750000Y-142000000D03*
X191250000Y-142000000D03*
X184750000Y-142000000D03*
X183250000Y-142000000D03*
X211000000Y-126500000D03*
X212500000Y-126500000D03*
D24*
X210500000Y-128750000D03*
X210200000Y-136500000D03*
X215500000Y-127500000D03*
X194000000Y-131250000D03*
X193000000Y-131000000D03*
X213250000Y-133500000D03*
X216250000Y-126500000D03*
X197500000Y-111500000D03*
X211800000Y-139200000D03*
X182250000Y-134750000D03*
X187250000Y-134750000D03*
X190000000Y-134750000D03*
X187250000Y-114250000D03*
X189750000Y-114250000D03*
X179750000Y-114250000D03*
X182250000Y-114250000D03*
X209900000Y-137400000D03*
X214750000Y-124500000D03*
X211250000Y-125250000D03*
X210000000Y-126000000D03*
X208500000Y-126500000D03*
X205250000Y-127500000D03*
X205250000Y-128500000D03*
X208500000Y-132250000D03*
X209000000Y-133000000D03*
X208500000Y-133750000D03*
X192250000Y-129250000D03*
X190500000Y-124250000D03*
X191250000Y-129500000D03*
X191250000Y-125000000D03*
D25*
X211000000Y-127750000D02*
X211000000Y-126500000D01*
X211550000Y-128900000D02*
X211550000Y-128300000D01*
X211550000Y-128300000D02*
X211000000Y-127750000D01*
D26*
X199263000Y-118872000D02*
X200628000Y-118872000D01*
X200628000Y-118872000D02*
X201250000Y-118250000D01*
X201250000Y-118250000D02*
X201250000Y-111500000D01*
X205000000Y-115850000D02*
X205000000Y-113309000D01*
X205000000Y-113309000D02*
X205000000Y-111250000D01*
X205000000Y-111250000D02*
X204750000Y-111000000D01*
X201750000Y-111000000D02*
X201250000Y-111500000D01*
X204750000Y-111000000D02*
X201750000Y-111000000D01*
D27*
X200000000Y-111500000D02*
X201250000Y-111500000D01*
D26*
X210750000Y-127500000D02*
X211000000Y-127750000D01*
X208250000Y-127500000D02*
X210750000Y-127500000D01*
D27*
X220500000Y-128500000D02*
X219000000Y-127000000D01*
X220500000Y-135500000D02*
X220500000Y-128500000D01*
X210200000Y-136500000D02*
X219500000Y-136500000D01*
X219500000Y-136500000D02*
X220500000Y-135500000D01*
X213450000Y-132450000D02*
X213450000Y-131100000D01*
X214000000Y-133750000D02*
X214000000Y-133000000D01*
X213250000Y-134500000D02*
X214000000Y-133750000D01*
X214000000Y-133000000D02*
X213450000Y-132450000D01*
D25*
X210750000Y-133000000D02*
X210750000Y-133500000D01*
X211550000Y-131100000D02*
X211550000Y-132200000D01*
X211550000Y-132200000D02*
X210750000Y-133000000D01*
D27*
X213250000Y-134500000D02*
X210750000Y-134500000D01*
D25*
X210750000Y-134500000D02*
X210750000Y-133500000D01*
D27*
X215500000Y-127500000D02*
X215500000Y-131500000D01*
X215500000Y-131500000D02*
X214000000Y-133000000D01*
D25*
X210750000Y-135250000D02*
X210750000Y-134500000D01*
X211500000Y-136000000D02*
X210750000Y-135250000D01*
X215750000Y-136000000D02*
X211500000Y-136000000D01*
X219000000Y-135000000D02*
X216750000Y-135000000D01*
X216750000Y-135000000D02*
X215750000Y-136000000D01*
D27*
X213450000Y-126800000D02*
X213750000Y-126500000D01*
X213450000Y-128900000D02*
X213450000Y-126800000D01*
X194000000Y-111000000D02*
X194000000Y-131250000D01*
X195250000Y-109750000D02*
X194000000Y-111000000D01*
X209500000Y-109750000D02*
X195250000Y-109750000D01*
X211000000Y-111250000D02*
X209500000Y-109750000D01*
X219000000Y-123000000D02*
X211000000Y-115000000D01*
X211000000Y-115000000D02*
X211000000Y-111250000D01*
X218250000Y-121000000D02*
X211750000Y-114500000D01*
X219000000Y-121000000D02*
X218250000Y-121000000D01*
X193000000Y-111000000D02*
X193000000Y-131000000D01*
X211750000Y-114500000D02*
X211750000Y-110750000D01*
X211750000Y-110750000D02*
X210250000Y-109250000D01*
X210250000Y-109250000D02*
X194750000Y-109250000D01*
X194750000Y-109250000D02*
X193000000Y-111000000D01*
D25*
X217000000Y-126000000D02*
X217000000Y-129000000D01*
X212750000Y-119000000D02*
X212750000Y-123750000D01*
X212500000Y-118750000D02*
X212750000Y-119000000D01*
X212750000Y-123750000D02*
X214500000Y-125500000D01*
X211950000Y-118750000D02*
X212500000Y-118750000D01*
X214500000Y-125500000D02*
X216500000Y-125500000D01*
X217000000Y-129000000D02*
X219000000Y-131000000D01*
X216500000Y-125500000D02*
X217000000Y-126000000D01*
X212500000Y-128900000D02*
X212500000Y-126500000D01*
D27*
X212500000Y-133250000D02*
X212250000Y-133500000D01*
X215250000Y-126500000D02*
X216250000Y-126500000D01*
D25*
X212500000Y-131100000D02*
X212500000Y-132500000D01*
X212250000Y-132750000D02*
X212250000Y-133500000D01*
X212500000Y-132500000D02*
X212250000Y-132750000D01*
X212250000Y-133500000D02*
X213250000Y-133500000D01*
D27*
X198500000Y-111500000D02*
X197500000Y-111500000D01*
X211800000Y-139200000D02*
X210650000Y-139200000D01*
X217500000Y-133000000D02*
X217000000Y-133500000D01*
X219000000Y-133000000D02*
X217500000Y-133000000D01*
D26*
X202968000Y-115849000D02*
X202968000Y-119151000D01*
X207032000Y-119151000D02*
X207032000Y-115849000D01*
X207032000Y-119151000D02*
X207032000Y-119968000D01*
X207032000Y-119968000D02*
X206500000Y-120500000D01*
X206500000Y-120500000D02*
X203250000Y-120500000D01*
X202968000Y-120218000D02*
X202968000Y-119151000D01*
X203250000Y-120500000D02*
X202968000Y-120218000D01*
D27*
X203349000Y-115468000D02*
X202968000Y-115849000D01*
X203349000Y-113309000D02*
X203349000Y-115468000D01*
X206651000Y-115468000D02*
X207032000Y-115849000D01*
X206651000Y-113309000D02*
X206651000Y-115468000D01*
X207031000Y-115850000D02*
X207032000Y-115849000D01*
X206050000Y-115850000D02*
X207031000Y-115850000D01*
X202969000Y-115850000D02*
X202968000Y-115849000D01*
X203950000Y-115850000D02*
X202969000Y-115850000D01*
X203949000Y-119151000D02*
X203950000Y-119150000D01*
X202968000Y-119151000D02*
X203949000Y-119151000D01*
X207031000Y-119150000D02*
X207032000Y-119151000D01*
X206050000Y-119150000D02*
X207031000Y-119150000D01*
D25*
X208849000Y-119151000D02*
X209000000Y-119000000D01*
X207032000Y-119151000D02*
X208849000Y-119151000D01*
D27*
X199250000Y-115750000D02*
X199250000Y-114500000D01*
X198922000Y-116078000D02*
X199250000Y-115750000D01*
X196122000Y-116078000D02*
X198922000Y-116078000D01*
X195835000Y-117475000D02*
X195835000Y-116365000D01*
X195835000Y-116365000D02*
X196122000Y-116078000D01*
X199263000Y-124847000D02*
X199135000Y-124975000D01*
X199263000Y-123698000D02*
X199263000Y-124847000D01*
X198650000Y-123085000D02*
X199263000Y-123698000D01*
X198250000Y-123000000D02*
X198335000Y-123085000D01*
X198335000Y-123085000D02*
X198650000Y-123085000D01*
X206650000Y-122600000D02*
X206650000Y-125000000D01*
X207250000Y-122000000D02*
X206650000Y-122600000D01*
X209000000Y-122750000D02*
X208250000Y-122000000D01*
X208250000Y-122000000D02*
X207250000Y-122000000D01*
X199135000Y-131585000D02*
X199135000Y-132475000D01*
X198250000Y-130000000D02*
X198250000Y-130700000D01*
X198250000Y-130700000D02*
X199135000Y-131585000D01*
X208500000Y-131000000D02*
X208500000Y-130000000D01*
X206650000Y-132500000D02*
X207000000Y-132500000D01*
X207000000Y-132500000D02*
X208500000Y-131000000D01*
X182245000Y-133960000D02*
X182245000Y-134745000D01*
X182245000Y-134745000D02*
X182250000Y-134750000D01*
X187325000Y-133960000D02*
X187325000Y-134675000D01*
X187325000Y-134675000D02*
X187250000Y-134750000D01*
X189865000Y-133960000D02*
X189865000Y-134615000D01*
X189865000Y-134615000D02*
X190000000Y-134750000D01*
X187325000Y-114960000D02*
X187325000Y-114325000D01*
X187325000Y-114325000D02*
X187250000Y-114250000D01*
X189865000Y-114960000D02*
X189865000Y-114365000D01*
X189865000Y-114365000D02*
X189750000Y-114250000D01*
X179705000Y-114960000D02*
X179705000Y-114295000D01*
X179705000Y-114295000D02*
X179750000Y-114250000D01*
X182245000Y-114960000D02*
X182245000Y-114255000D01*
X182245000Y-114255000D02*
X182250000Y-114250000D01*
X221000000Y-127000000D02*
X219000000Y-125000000D01*
X221000000Y-136000000D02*
X221000000Y-127000000D01*
X209900000Y-137400000D02*
X219600000Y-137400000D01*
X219600000Y-137400000D02*
X221000000Y-136000000D01*
X217500000Y-127500000D02*
X219000000Y-129000000D01*
X217500000Y-125250000D02*
X217500000Y-127500000D01*
X214750000Y-124500000D02*
X216750000Y-124500000D01*
X216750000Y-124500000D02*
X217500000Y-125250000D01*
X212000000Y-121500000D02*
X212000000Y-124500000D01*
X210500000Y-111750000D02*
X210500000Y-120000000D01*
X210500000Y-120000000D02*
X212000000Y-121500000D01*
X197000000Y-114500000D02*
X195000000Y-112500000D01*
X212000000Y-124500000D02*
X211250000Y-125250000D01*
X197750000Y-114500000D02*
X197000000Y-114500000D01*
X195000000Y-112500000D02*
X195000000Y-111250000D01*
X195000000Y-111250000D02*
X196000000Y-110250000D01*
X196000000Y-110250000D02*
X209000000Y-110250000D01*
X209000000Y-110250000D02*
X210500000Y-111750000D01*
X210500000Y-125500000D02*
X210000000Y-126000000D01*
X210500000Y-125000000D02*
X210500000Y-125500000D01*
X211250000Y-124250000D02*
X210500000Y-125000000D01*
X201500000Y-121250000D02*
X207000000Y-121250000D01*
X199750000Y-123000000D02*
X201500000Y-121250000D01*
X207000000Y-121250000D02*
X207750000Y-120500000D01*
X207750000Y-120500000D02*
X210000000Y-120500000D01*
X210000000Y-120500000D02*
X211250000Y-121750000D01*
X211250000Y-121750000D02*
X211250000Y-124250000D01*
X208500000Y-126250000D02*
X208500000Y-126500000D01*
X209000000Y-125750000D02*
X208500000Y-126250000D01*
X209000000Y-124250000D02*
X209000000Y-125750000D01*
X202750000Y-130000000D02*
X199750000Y-130000000D01*
X205250000Y-127500000D02*
X202750000Y-130000000D01*
X206750000Y-130000000D02*
X205250000Y-128500000D01*
X207000000Y-130000000D02*
X206750000Y-130000000D01*
X200200000Y-139350000D02*
X200350000Y-139200000D01*
X200750000Y-139600000D02*
X200350000Y-139200000D01*
X200750000Y-142000000D02*
X200750000Y-139600000D01*
X198750000Y-137500000D02*
X198750000Y-141500000D01*
X209500000Y-132250000D02*
X210000000Y-132750000D01*
X208500000Y-132250000D02*
X209500000Y-132250000D01*
X210000000Y-132750000D02*
X210000000Y-135500000D01*
X198750000Y-141500000D02*
X199250000Y-142000000D01*
X210000000Y-135500000D02*
X208500000Y-137000000D01*
X208500000Y-137000000D02*
X199250000Y-137000000D01*
X199250000Y-137000000D02*
X198750000Y-137500000D01*
X209309990Y-133000000D02*
X209000000Y-133000000D01*
X209559990Y-133250000D02*
X209309990Y-133000000D01*
X209559990Y-135190010D02*
X209559990Y-133250000D01*
X208250000Y-136500000D02*
X209559990Y-135190010D01*
X190750000Y-137250000D02*
X191500000Y-136500000D01*
X191500000Y-136500000D02*
X208250000Y-136500000D01*
X190750000Y-141500000D02*
X191250000Y-142000000D01*
X190750000Y-137250000D02*
X190750000Y-141500000D01*
X192750000Y-139525000D02*
X192325000Y-139100000D01*
X192750000Y-142000000D02*
X192750000Y-139525000D01*
X184150000Y-138950000D02*
X184300000Y-139100000D01*
X184750000Y-139550000D02*
X184300000Y-139100000D01*
X184750000Y-142000000D02*
X184750000Y-139550000D01*
X182750000Y-141500000D02*
X183250000Y-142000000D01*
X209000000Y-134250000D02*
X209000000Y-135000000D01*
X208500000Y-133750000D02*
X209000000Y-134250000D01*
X209000000Y-135000000D02*
X208000000Y-136000000D01*
X208000000Y-136000000D02*
X183750000Y-136000000D01*
X183750000Y-136000000D02*
X182750000Y-137000000D01*
X182750000Y-137000000D02*
X182750000Y-141500000D01*
X192250000Y-124750000D02*
X192250000Y-129250000D01*
X190500000Y-124250000D02*
X191750000Y-124250000D01*
X191750000Y-124250000D02*
X192250000Y-124750000D01*
X191250000Y-129500000D02*
X191250000Y-125000000D01*
D28*
G36*
X192667178Y-110632787D02*
G01*
X192648289Y-110648289D01*
X192586431Y-110723662D01*
X192540467Y-110809656D01*
X192512162Y-110902964D01*
X192505000Y-110975683D01*
X192505000Y-110975693D01*
X192502606Y-111000000D01*
X192505000Y-111024307D01*
X192505001Y-124304965D01*
X192117213Y-123917178D01*
X192101711Y-123898289D01*
X192026338Y-123836431D01*
X191940345Y-123790467D01*
X191847037Y-123762162D01*
X191774318Y-123755000D01*
X191774307Y-123755000D01*
X191750000Y-123752606D01*
X191725693Y-123755000D01*
X190973736Y-123755000D01*
X190936662Y-123717926D01*
X190824469Y-123642961D01*
X190699807Y-123591325D01*
X190567467Y-123565000D01*
X190432533Y-123565000D01*
X190300193Y-123591325D01*
X190175531Y-123642961D01*
X190063338Y-123717926D01*
X189967926Y-123813338D01*
X189892961Y-123925531D01*
X189841325Y-124050193D01*
X189815000Y-124182533D01*
X189815000Y-124317467D01*
X189841325Y-124449807D01*
X189892961Y-124574469D01*
X189967926Y-124686662D01*
X190063338Y-124782074D01*
X190175531Y-124857039D01*
X190300193Y-124908675D01*
X190432533Y-124935000D01*
X190565000Y-124935000D01*
X190565000Y-125067467D01*
X190591325Y-125199807D01*
X190642961Y-125324469D01*
X190717926Y-125436662D01*
X190755001Y-125473737D01*
X190755000Y-129026264D01*
X190717926Y-129063338D01*
X190642961Y-129175531D01*
X190591325Y-129300193D01*
X190565000Y-129432533D01*
X190565000Y-129567467D01*
X190591325Y-129699807D01*
X190642961Y-129824469D01*
X190717926Y-129936662D01*
X190813338Y-130032074D01*
X190925531Y-130107039D01*
X191050193Y-130158675D01*
X191182533Y-130185000D01*
X191317467Y-130185000D01*
X191449807Y-130158675D01*
X191574469Y-130107039D01*
X191686662Y-130032074D01*
X191782074Y-129936662D01*
X191857039Y-129824469D01*
X191861320Y-129814134D01*
X191925531Y-129857039D01*
X192050193Y-129908675D01*
X192182533Y-129935000D01*
X192317467Y-129935000D01*
X192449807Y-129908675D01*
X192505001Y-129885813D01*
X192505001Y-130526263D01*
X192467926Y-130563338D01*
X192392961Y-130675531D01*
X192341325Y-130800193D01*
X192315000Y-130932533D01*
X192315000Y-131067467D01*
X192341325Y-131199807D01*
X192392961Y-131324469D01*
X192467926Y-131436662D01*
X192563338Y-131532074D01*
X192675531Y-131607039D01*
X192800193Y-131658675D01*
X192932533Y-131685000D01*
X193067467Y-131685000D01*
X193199807Y-131658675D01*
X193324469Y-131607039D01*
X193388680Y-131564134D01*
X193392961Y-131574469D01*
X193467926Y-131686662D01*
X193563338Y-131782074D01*
X193675531Y-131857039D01*
X193800193Y-131908675D01*
X193932533Y-131935000D01*
X194067467Y-131935000D01*
X194199807Y-131908675D01*
X194324469Y-131857039D01*
X194436662Y-131782074D01*
X194493736Y-131725000D01*
X194798621Y-131725000D01*
X194800000Y-132398750D01*
X194871250Y-132470000D01*
X195830000Y-132470000D01*
X195830000Y-131511250D01*
X195840000Y-131511250D01*
X195840000Y-132470000D01*
X196798750Y-132470000D01*
X196870000Y-132398750D01*
X196871379Y-131725000D01*
X196865876Y-131669130D01*
X196849580Y-131615408D01*
X196823115Y-131565896D01*
X196787501Y-131522499D01*
X196744104Y-131486885D01*
X196694592Y-131460420D01*
X196640870Y-131444124D01*
X196585000Y-131438621D01*
X195911250Y-131440000D01*
X195840000Y-131511250D01*
X195830000Y-131511250D01*
X195758750Y-131440000D01*
X195085000Y-131438621D01*
X195029130Y-131444124D01*
X194975408Y-131460420D01*
X194925896Y-131486885D01*
X194882499Y-131522499D01*
X194846885Y-131565896D01*
X194820420Y-131615408D01*
X194804124Y-131669130D01*
X194798621Y-131725000D01*
X194493736Y-131725000D01*
X194532074Y-131686662D01*
X194607039Y-131574469D01*
X194658675Y-131449807D01*
X194685000Y-131317467D01*
X194685000Y-131182533D01*
X194658675Y-131050193D01*
X194607039Y-130925531D01*
X194532074Y-130813338D01*
X194495000Y-130776264D01*
X194495000Y-125725000D01*
X194798621Y-125725000D01*
X194804124Y-125780870D01*
X194820420Y-125834592D01*
X194846885Y-125884104D01*
X194882499Y-125927501D01*
X194925896Y-125963115D01*
X194975408Y-125989580D01*
X195029130Y-126005876D01*
X195085000Y-126011379D01*
X195758750Y-126010000D01*
X195830000Y-125938750D01*
X195830000Y-124980000D01*
X195840000Y-124980000D01*
X195840000Y-125938750D01*
X195911250Y-126010000D01*
X196585000Y-126011379D01*
X196640870Y-126005876D01*
X196694592Y-125989580D01*
X196744104Y-125963115D01*
X196787501Y-125927501D01*
X196823115Y-125884104D01*
X196849580Y-125834592D01*
X196865876Y-125780870D01*
X196871379Y-125725000D01*
X196870000Y-125051250D01*
X196798750Y-124980000D01*
X195840000Y-124980000D01*
X195830000Y-124980000D01*
X194871250Y-124980000D01*
X194800000Y-125051250D01*
X194798621Y-125725000D01*
X194495000Y-125725000D01*
X194495000Y-124225000D01*
X194798621Y-124225000D01*
X194800000Y-124898750D01*
X194871250Y-124970000D01*
X195830000Y-124970000D01*
X195830000Y-124011250D01*
X195840000Y-124011250D01*
X195840000Y-124970000D01*
X196798750Y-124970000D01*
X196870000Y-124898750D01*
X196871379Y-124225000D01*
X196865876Y-124169130D01*
X196849580Y-124115408D01*
X196823115Y-124065896D01*
X196787501Y-124022499D01*
X196744104Y-123986885D01*
X196694592Y-123960420D01*
X196640870Y-123944124D01*
X196585000Y-123938621D01*
X195911250Y-123940000D01*
X195840000Y-124011250D01*
X195830000Y-124011250D01*
X195758750Y-123940000D01*
X195085000Y-123938621D01*
X195029130Y-123944124D01*
X194975408Y-123960420D01*
X194925896Y-123986885D01*
X194882499Y-124022499D01*
X194846885Y-124065896D01*
X194820420Y-124115408D01*
X194804124Y-124169130D01*
X194798621Y-124225000D01*
X194495000Y-124225000D01*
X194495000Y-111205035D01*
X194508349Y-111191686D01*
X194502606Y-111250000D01*
X194505001Y-111274317D01*
X194505000Y-112475692D01*
X194502606Y-112500000D01*
X194505000Y-112524307D01*
X194505000Y-112524317D01*
X194512162Y-112597036D01*
X194540467Y-112690344D01*
X194586431Y-112776338D01*
X194648289Y-112851711D01*
X194667178Y-112867213D01*
X196384000Y-114584036D01*
X196384000Y-115500000D01*
X196385633Y-115516583D01*
X196390470Y-115532528D01*
X196398325Y-115547223D01*
X196408896Y-115560104D01*
X196421777Y-115570675D01*
X196436472Y-115578530D01*
X196451207Y-115583000D01*
X196146306Y-115583000D01*
X196121999Y-115580606D01*
X196097692Y-115583000D01*
X196097682Y-115583000D01*
X196024963Y-115590162D01*
X195931655Y-115618467D01*
X195845662Y-115664431D01*
X195770289Y-115726289D01*
X195754787Y-115745178D01*
X195502174Y-115997791D01*
X195483290Y-116013289D01*
X195467792Y-116032173D01*
X195467787Y-116032178D01*
X195421431Y-116088662D01*
X195375467Y-116174656D01*
X195362861Y-116216213D01*
X195347163Y-116267963D01*
X195347125Y-116268345D01*
X195340252Y-116338138D01*
X195085000Y-116338138D01*
X195009527Y-116345571D01*
X194936954Y-116367586D01*
X194870071Y-116403336D01*
X194811447Y-116451447D01*
X194763336Y-116510071D01*
X194727586Y-116576954D01*
X194705571Y-116649527D01*
X194698138Y-116725000D01*
X194698138Y-118225000D01*
X194705571Y-118300473D01*
X194727586Y-118373046D01*
X194763336Y-118439929D01*
X194811447Y-118498553D01*
X194870071Y-118546664D01*
X194936954Y-118582414D01*
X195009527Y-118604429D01*
X195085000Y-118611862D01*
X196585000Y-118611862D01*
X196660473Y-118604429D01*
X196733046Y-118582414D01*
X196799929Y-118546664D01*
X196858553Y-118498553D01*
X196906664Y-118439929D01*
X196942414Y-118373046D01*
X196964429Y-118300473D01*
X196971862Y-118225000D01*
X198098621Y-118225000D01*
X198104124Y-118280870D01*
X198120420Y-118334592D01*
X198146885Y-118384104D01*
X198182499Y-118427501D01*
X198225896Y-118463115D01*
X198275408Y-118489580D01*
X198329130Y-118505876D01*
X198385000Y-118511379D01*
X199058750Y-118510000D01*
X199130000Y-118438750D01*
X199130000Y-117480000D01*
X199140000Y-117480000D01*
X199140000Y-118438750D01*
X199211250Y-118510000D01*
X199885000Y-118511379D01*
X199940870Y-118505876D01*
X199994592Y-118489580D01*
X200044104Y-118463115D01*
X200087501Y-118427501D01*
X200123115Y-118384104D01*
X200149580Y-118334592D01*
X200165876Y-118280870D01*
X200171379Y-118225000D01*
X200170000Y-117551250D01*
X200098750Y-117480000D01*
X199140000Y-117480000D01*
X199130000Y-117480000D01*
X198171250Y-117480000D01*
X198100000Y-117551250D01*
X198098621Y-118225000D01*
X196971862Y-118225000D01*
X196971862Y-116725000D01*
X196964429Y-116649527D01*
X196942414Y-116576954D01*
X196940301Y-116573000D01*
X198143088Y-116573000D01*
X198120420Y-116615408D01*
X198104124Y-116669130D01*
X198098621Y-116725000D01*
X198100000Y-117398750D01*
X198171250Y-117470000D01*
X199130000Y-117470000D01*
X199130000Y-117450000D01*
X199140000Y-117450000D01*
X199140000Y-117470000D01*
X200098750Y-117470000D01*
X200170000Y-117398750D01*
X200171379Y-116725000D01*
X200165876Y-116669130D01*
X200149580Y-116615408D01*
X200123115Y-116565896D01*
X200087501Y-116522499D01*
X200044104Y-116486885D01*
X199994592Y-116460420D01*
X199940870Y-116444124D01*
X199885000Y-116438621D01*
X199261299Y-116439898D01*
X199273711Y-116429711D01*
X199289213Y-116410822D01*
X199582822Y-116117213D01*
X199601711Y-116101711D01*
X199652074Y-116040345D01*
X199663569Y-116026339D01*
X199709533Y-115940345D01*
X199712311Y-115931186D01*
X199737838Y-115847037D01*
X199745000Y-115774318D01*
X199745000Y-115774308D01*
X199747394Y-115750001D01*
X199745000Y-115725694D01*
X199745000Y-115585000D01*
X200533000Y-115585000D01*
X200549583Y-115583367D01*
X200565528Y-115578530D01*
X200580223Y-115570675D01*
X200593104Y-115560104D01*
X200603675Y-115547223D01*
X200611530Y-115532528D01*
X200616367Y-115516583D01*
X200618000Y-115500000D01*
X200618000Y-113595000D01*
X200616367Y-113578417D01*
X200611530Y-113562472D01*
X200603675Y-113547777D01*
X200593104Y-113534896D01*
X200580223Y-113524325D01*
X200565528Y-113516470D01*
X200549583Y-113511633D01*
X200533000Y-113510000D01*
X196710036Y-113510000D01*
X195495000Y-112294965D01*
X195495000Y-111455035D01*
X196205036Y-110745000D01*
X198030325Y-110745000D01*
X198024527Y-110745571D01*
X197951954Y-110767586D01*
X197885071Y-110803336D01*
X197826447Y-110851447D01*
X197800519Y-110883041D01*
X197699807Y-110841325D01*
X197567467Y-110815000D01*
X197432533Y-110815000D01*
X197300193Y-110841325D01*
X197175531Y-110892961D01*
X197063338Y-110967926D01*
X196967926Y-111063338D01*
X196892961Y-111175531D01*
X196841325Y-111300193D01*
X196815000Y-111432533D01*
X196815000Y-111567467D01*
X196841325Y-111699807D01*
X196892961Y-111824469D01*
X196967926Y-111936662D01*
X197063338Y-112032074D01*
X197175531Y-112107039D01*
X197300193Y-112158675D01*
X197432533Y-112185000D01*
X197567467Y-112185000D01*
X197699807Y-112158675D01*
X197800519Y-112116959D01*
X197826447Y-112148553D01*
X197885071Y-112196664D01*
X197951954Y-112232414D01*
X198024527Y-112254429D01*
X198100000Y-112261862D01*
X198900000Y-112261862D01*
X198975473Y-112254429D01*
X199048046Y-112232414D01*
X199114929Y-112196664D01*
X199173553Y-112148553D01*
X199221664Y-112089929D01*
X199257414Y-112023046D01*
X199279429Y-111950473D01*
X199286862Y-111875000D01*
X199313621Y-111875000D01*
X199319124Y-111930870D01*
X199335420Y-111984592D01*
X199361885Y-112034104D01*
X199397499Y-112077501D01*
X199440896Y-112113115D01*
X199490408Y-112139580D01*
X199544130Y-112155876D01*
X199600000Y-112161379D01*
X199923750Y-112160000D01*
X199995000Y-112088750D01*
X199995000Y-111505000D01*
X200005000Y-111505000D01*
X200005000Y-112088750D01*
X200076250Y-112160000D01*
X200400000Y-112161379D01*
X200455870Y-112155876D01*
X200509592Y-112139580D01*
X200559104Y-112113115D01*
X200602501Y-112077501D01*
X200638115Y-112034104D01*
X200664580Y-111984592D01*
X200680876Y-111930870D01*
X200686379Y-111875000D01*
X200685000Y-111576250D01*
X200613750Y-111505000D01*
X200005000Y-111505000D01*
X199995000Y-111505000D01*
X199386250Y-111505000D01*
X199315000Y-111576250D01*
X199313621Y-111875000D01*
X199286862Y-111875000D01*
X199286862Y-111125000D01*
X199313621Y-111125000D01*
X199315000Y-111423750D01*
X199386250Y-111495000D01*
X199995000Y-111495000D01*
X199995000Y-110911250D01*
X200005000Y-110911250D01*
X200005000Y-111495000D01*
X200613750Y-111495000D01*
X200685000Y-111423750D01*
X200686379Y-111125000D01*
X200680876Y-111069130D01*
X200664580Y-111015408D01*
X200638115Y-110965896D01*
X200602501Y-110922499D01*
X200559104Y-110886885D01*
X200509592Y-110860420D01*
X200455870Y-110844124D01*
X200400000Y-110838621D01*
X200076250Y-110840000D01*
X200005000Y-110911250D01*
X199995000Y-110911250D01*
X199923750Y-110840000D01*
X199600000Y-110838621D01*
X199544130Y-110844124D01*
X199490408Y-110860420D01*
X199440896Y-110886885D01*
X199397499Y-110922499D01*
X199361885Y-110965896D01*
X199335420Y-111015408D01*
X199319124Y-111069130D01*
X199313621Y-111125000D01*
X199286862Y-111125000D01*
X199279429Y-111049527D01*
X199257414Y-110976954D01*
X199221664Y-110910071D01*
X199173553Y-110851447D01*
X199114929Y-110803336D01*
X199048046Y-110767586D01*
X198975473Y-110745571D01*
X198969675Y-110745000D01*
X208794965Y-110745000D01*
X210005000Y-111955036D01*
X210005001Y-117165000D01*
X209689979Y-117165000D01*
X209648046Y-117142586D01*
X209575473Y-117120571D01*
X209500000Y-117113138D01*
X208600000Y-117113138D01*
X208524527Y-117120571D01*
X208451954Y-117142586D01*
X208410021Y-117165000D01*
X208300000Y-117165000D01*
X208283417Y-117166633D01*
X208267472Y-117171470D01*
X208252777Y-117179325D01*
X208239896Y-117189896D01*
X208229325Y-117202777D01*
X208221470Y-117217472D01*
X208216633Y-117233417D01*
X208215000Y-117250000D01*
X208215000Y-117481094D01*
X208213138Y-117500000D01*
X208213138Y-118616000D01*
X208018862Y-118616000D01*
X208018862Y-118351000D01*
X208011429Y-118275527D01*
X207989414Y-118202954D01*
X207953664Y-118136071D01*
X207905553Y-118077447D01*
X207846929Y-118029336D01*
X207780046Y-117993586D01*
X207707473Y-117971571D01*
X207667000Y-117967585D01*
X207667000Y-117032415D01*
X207707473Y-117028429D01*
X207780046Y-117006414D01*
X207846929Y-116970664D01*
X207905553Y-116922553D01*
X207953664Y-116863929D01*
X207989414Y-116797046D01*
X208011429Y-116724473D01*
X208018862Y-116649000D01*
X208018862Y-115172604D01*
X208030429Y-115134473D01*
X208037862Y-115059000D01*
X208037862Y-111559000D01*
X208030429Y-111483527D01*
X208008414Y-111410954D01*
X207972664Y-111344071D01*
X207924553Y-111285447D01*
X207865929Y-111237336D01*
X207799046Y-111201586D01*
X207726473Y-111179571D01*
X207651000Y-111172138D01*
X205651000Y-111172138D01*
X205575527Y-111179571D01*
X205502954Y-111201586D01*
X205436071Y-111237336D01*
X205378139Y-111284879D01*
X205355870Y-111278124D01*
X205300000Y-111272621D01*
X205076250Y-111274000D01*
X205005000Y-111345250D01*
X205005000Y-113304000D01*
X205025000Y-113304000D01*
X205025000Y-113314000D01*
X205005000Y-113314000D01*
X205005000Y-115845000D01*
X205025000Y-115845000D01*
X205025000Y-115855000D01*
X205005000Y-115855000D01*
X205005000Y-115875000D01*
X204995000Y-115875000D01*
X204995000Y-115855000D01*
X204975000Y-115855000D01*
X204975000Y-115845000D01*
X204995000Y-115845000D01*
X204995000Y-113314000D01*
X204975000Y-113314000D01*
X204975000Y-113304000D01*
X204995000Y-113304000D01*
X204995000Y-111345250D01*
X204923750Y-111274000D01*
X204700000Y-111272621D01*
X204644130Y-111278124D01*
X204621861Y-111284879D01*
X204563929Y-111237336D01*
X204497046Y-111201586D01*
X204424473Y-111179571D01*
X204349000Y-111172138D01*
X202349000Y-111172138D01*
X202273527Y-111179571D01*
X202200954Y-111201586D01*
X202134071Y-111237336D01*
X202075447Y-111285447D01*
X202027336Y-111344071D01*
X201991586Y-111410954D01*
X201969571Y-111483527D01*
X201962138Y-111559000D01*
X201962138Y-115059000D01*
X201969571Y-115134473D01*
X201981138Y-115172604D01*
X201981138Y-116649000D01*
X201988571Y-116724473D01*
X202010586Y-116797046D01*
X202046336Y-116863929D01*
X202094447Y-116922553D01*
X202153071Y-116970664D01*
X202219954Y-117006414D01*
X202292527Y-117028429D01*
X202333000Y-117032415D01*
X202333001Y-117967585D01*
X202292527Y-117971571D01*
X202219954Y-117993586D01*
X202153071Y-118029336D01*
X202094447Y-118077447D01*
X202046336Y-118136071D01*
X202010586Y-118202954D01*
X201988571Y-118275527D01*
X201981138Y-118351000D01*
X201981138Y-119951000D01*
X201988571Y-120026473D01*
X202010586Y-120099046D01*
X202046336Y-120165929D01*
X202094447Y-120224553D01*
X202153071Y-120272664D01*
X202219954Y-120308414D01*
X202292527Y-120330429D01*
X202341476Y-120335250D01*
X202342188Y-120342481D01*
X202378498Y-120462179D01*
X202437463Y-120572493D01*
X202516815Y-120669185D01*
X202541050Y-120689074D01*
X202606976Y-120755000D01*
X201524310Y-120755000D01*
X201500000Y-120752606D01*
X201475690Y-120755000D01*
X201475682Y-120755000D01*
X201402963Y-120762162D01*
X201309655Y-120790467D01*
X201223662Y-120836431D01*
X201167177Y-120882787D01*
X201167173Y-120882791D01*
X201148289Y-120898289D01*
X201132791Y-120917173D01*
X200087465Y-121962500D01*
X197000000Y-121962500D01*
X196983417Y-121964133D01*
X196967472Y-121968970D01*
X196952777Y-121976825D01*
X196939896Y-121987396D01*
X196929325Y-122000277D01*
X196921470Y-122014972D01*
X196916633Y-122030917D01*
X196915000Y-122047500D01*
X196915000Y-123952500D01*
X196916633Y-123969083D01*
X196921470Y-123985028D01*
X196929325Y-123999723D01*
X196939896Y-124012604D01*
X196952777Y-124023175D01*
X196967472Y-124031030D01*
X196983417Y-124035867D01*
X197000000Y-124037500D01*
X198048675Y-124037500D01*
X198027586Y-124076954D01*
X198005571Y-124149527D01*
X197998138Y-124225000D01*
X197998138Y-125725000D01*
X198005571Y-125800473D01*
X198027586Y-125873046D01*
X198063336Y-125939929D01*
X198111447Y-125998553D01*
X198170071Y-126046664D01*
X198236954Y-126082414D01*
X198309527Y-126104429D01*
X198385000Y-126111862D01*
X199885000Y-126111862D01*
X199960473Y-126104429D01*
X200033046Y-126082414D01*
X200099929Y-126046664D01*
X200158553Y-125998553D01*
X200206664Y-125939929D01*
X200242414Y-125873046D01*
X200264429Y-125800473D01*
X200269399Y-125750000D01*
X202313621Y-125750000D01*
X202319124Y-125805870D01*
X202335420Y-125859592D01*
X202361885Y-125909104D01*
X202397499Y-125952501D01*
X202440896Y-125988115D01*
X202490408Y-126014580D01*
X202544130Y-126030876D01*
X202600000Y-126036379D01*
X203273750Y-126035000D01*
X203345000Y-125963750D01*
X203345000Y-125005000D01*
X203355000Y-125005000D01*
X203355000Y-125963750D01*
X203426250Y-126035000D01*
X204100000Y-126036379D01*
X204155870Y-126030876D01*
X204209592Y-126014580D01*
X204259104Y-125988115D01*
X204302501Y-125952501D01*
X204338115Y-125909104D01*
X204364580Y-125859592D01*
X204380876Y-125805870D01*
X204386379Y-125750000D01*
X204385000Y-125076250D01*
X204313750Y-125005000D01*
X203355000Y-125005000D01*
X203345000Y-125005000D01*
X202386250Y-125005000D01*
X202315000Y-125076250D01*
X202313621Y-125750000D01*
X200269399Y-125750000D01*
X200271862Y-125725000D01*
X200271862Y-124250000D01*
X202313621Y-124250000D01*
X202315000Y-124923750D01*
X202386250Y-124995000D01*
X203345000Y-124995000D01*
X203345000Y-124036250D01*
X203355000Y-124036250D01*
X203355000Y-124995000D01*
X204313750Y-124995000D01*
X204385000Y-124923750D01*
X204386379Y-124250000D01*
X204380876Y-124194130D01*
X204364580Y-124140408D01*
X204338115Y-124090896D01*
X204302501Y-124047499D01*
X204259104Y-124011885D01*
X204209592Y-123985420D01*
X204155870Y-123969124D01*
X204100000Y-123963621D01*
X203426250Y-123965000D01*
X203355000Y-124036250D01*
X203345000Y-124036250D01*
X203273750Y-123965000D01*
X202600000Y-123963621D01*
X202544130Y-123969124D01*
X202490408Y-123985420D01*
X202440896Y-124011885D01*
X202397499Y-124047499D01*
X202361885Y-124090896D01*
X202335420Y-124140408D01*
X202319124Y-124194130D01*
X202313621Y-124250000D01*
X200271862Y-124250000D01*
X200271862Y-124225000D01*
X200264429Y-124149527D01*
X200242414Y-124076954D01*
X200221325Y-124037500D01*
X201000000Y-124037500D01*
X201016583Y-124035867D01*
X201032528Y-124031030D01*
X201047223Y-124023175D01*
X201060104Y-124012604D01*
X201070675Y-123999723D01*
X201078530Y-123985028D01*
X201083367Y-123969083D01*
X201085000Y-123952500D01*
X201085000Y-122365036D01*
X201705036Y-121745000D01*
X206804964Y-121745000D01*
X206317178Y-122232787D01*
X206298289Y-122248289D01*
X206236431Y-122323662D01*
X206190467Y-122409656D01*
X206162162Y-122502964D01*
X206155000Y-122575683D01*
X206155000Y-122575693D01*
X206152606Y-122600000D01*
X206155000Y-122624307D01*
X206155001Y-123863138D01*
X205900000Y-123863138D01*
X205824527Y-123870571D01*
X205751954Y-123892586D01*
X205685071Y-123928336D01*
X205626447Y-123976447D01*
X205578336Y-124035071D01*
X205542586Y-124101954D01*
X205520571Y-124174527D01*
X205513138Y-124250000D01*
X205513138Y-125750000D01*
X205520571Y-125825473D01*
X205542586Y-125898046D01*
X205578336Y-125964929D01*
X205626447Y-126023553D01*
X205685071Y-126071664D01*
X205751954Y-126107414D01*
X205824527Y-126129429D01*
X205900000Y-126136862D01*
X207400000Y-126136862D01*
X207475473Y-126129429D01*
X207548046Y-126107414D01*
X207614929Y-126071664D01*
X207673553Y-126023553D01*
X207721664Y-125964929D01*
X207757414Y-125898046D01*
X207779429Y-125825473D01*
X207786862Y-125750000D01*
X207786862Y-124250000D01*
X207779429Y-124174527D01*
X207757414Y-124101954D01*
X207721664Y-124035071D01*
X207673553Y-123976447D01*
X207614929Y-123928336D01*
X207548046Y-123892586D01*
X207475473Y-123870571D01*
X207400000Y-123863138D01*
X207145000Y-123863138D01*
X207145000Y-122805035D01*
X207455036Y-122495000D01*
X207915000Y-122495000D01*
X207915000Y-125499401D01*
X207916633Y-125515984D01*
X207921470Y-125531929D01*
X207929325Y-125546624D01*
X207939896Y-125559505D01*
X207952777Y-125570076D01*
X207967472Y-125577931D01*
X207983417Y-125582768D01*
X208000000Y-125584401D01*
X208465563Y-125584401D01*
X208167178Y-125882787D01*
X208148289Y-125898289D01*
X208124894Y-125926796D01*
X208063338Y-125967926D01*
X207967926Y-126063338D01*
X207892961Y-126175531D01*
X207841325Y-126300193D01*
X207815000Y-126432533D01*
X207815000Y-126567467D01*
X207841325Y-126699807D01*
X207892961Y-126824469D01*
X207967926Y-126936662D01*
X208063338Y-127032074D01*
X208175531Y-127107039D01*
X208300193Y-127158675D01*
X208432533Y-127185000D01*
X208567467Y-127185000D01*
X208699807Y-127158675D01*
X208824469Y-127107039D01*
X208936662Y-127032074D01*
X209032074Y-126936662D01*
X209107039Y-126824469D01*
X209158675Y-126699807D01*
X209185000Y-126567467D01*
X209185000Y-126432533D01*
X209158675Y-126300193D01*
X209156088Y-126293948D01*
X209326211Y-126123825D01*
X209341325Y-126199807D01*
X209392961Y-126324469D01*
X209467926Y-126436662D01*
X209563338Y-126532074D01*
X209675531Y-126607039D01*
X209800193Y-126658675D01*
X209932533Y-126685000D01*
X210067467Y-126685000D01*
X210199807Y-126658675D01*
X210324469Y-126607039D01*
X210436662Y-126532074D01*
X210465000Y-126503736D01*
X210465000Y-126505002D01*
X210536248Y-126505002D01*
X210465000Y-126576250D01*
X210463621Y-126950000D01*
X210469124Y-127005870D01*
X210485420Y-127059592D01*
X210511885Y-127109104D01*
X210547499Y-127152501D01*
X210590896Y-127188115D01*
X210640408Y-127214580D01*
X210694130Y-127230876D01*
X210750000Y-127236379D01*
X210923750Y-127235000D01*
X210995000Y-127163750D01*
X210995000Y-126505000D01*
X211005000Y-126505000D01*
X211005000Y-127163750D01*
X211076250Y-127235000D01*
X211250000Y-127236379D01*
X211305870Y-127230876D01*
X211359592Y-127214580D01*
X211409104Y-127188115D01*
X211452501Y-127152501D01*
X211488115Y-127109104D01*
X211514580Y-127059592D01*
X211530876Y-127005870D01*
X211536379Y-126950000D01*
X211535000Y-126576250D01*
X211463750Y-126505000D01*
X211005000Y-126505000D01*
X210995000Y-126505000D01*
X210975000Y-126505000D01*
X210975000Y-126495000D01*
X210995000Y-126495000D01*
X210995000Y-126475000D01*
X211005000Y-126475000D01*
X211005000Y-126495000D01*
X211463750Y-126495000D01*
X211535000Y-126423750D01*
X211536379Y-126050000D01*
X211530876Y-125994130D01*
X211514580Y-125940408D01*
X211488952Y-125892461D01*
X211574469Y-125857039D01*
X211686662Y-125782074D01*
X211782074Y-125686662D01*
X211857039Y-125574469D01*
X211908675Y-125449807D01*
X211935000Y-125317467D01*
X211935000Y-125265035D01*
X212332827Y-124867209D01*
X212351711Y-124851711D01*
X212367209Y-124832827D01*
X212367213Y-124832823D01*
X212406742Y-124784656D01*
X212413569Y-124776338D01*
X212459533Y-124690345D01*
X212487838Y-124597037D01*
X212495000Y-124524318D01*
X212495000Y-124524308D01*
X212497394Y-124500001D01*
X212495000Y-124475694D01*
X212495000Y-124251603D01*
X212915000Y-124671603D01*
X212915000Y-125701648D01*
X212898046Y-125692586D01*
X212825473Y-125670571D01*
X212750000Y-125663138D01*
X212250000Y-125663138D01*
X212174527Y-125670571D01*
X212101954Y-125692586D01*
X212035071Y-125728336D01*
X211976447Y-125776447D01*
X211928336Y-125835071D01*
X211892586Y-125901954D01*
X211870571Y-125974527D01*
X211863138Y-126050000D01*
X211863138Y-126950000D01*
X211870571Y-127025473D01*
X211892586Y-127098046D01*
X211928336Y-127164929D01*
X211965001Y-127209606D01*
X211965000Y-128045701D01*
X211960071Y-128048336D01*
X211912567Y-128087321D01*
X211875000Y-128083621D01*
X211626250Y-128085000D01*
X211555000Y-128156250D01*
X211555000Y-128895000D01*
X211575000Y-128895000D01*
X211575000Y-128905000D01*
X211555000Y-128905000D01*
X211555000Y-129643750D01*
X211626250Y-129715000D01*
X211875000Y-129716379D01*
X211912567Y-129712679D01*
X211960071Y-129751664D01*
X212026954Y-129787414D01*
X212099527Y-129809429D01*
X212175000Y-129816862D01*
X212825000Y-129816862D01*
X212900473Y-129809429D01*
X212915000Y-129805022D01*
X212915000Y-130194978D01*
X212900473Y-130190571D01*
X212825000Y-130183138D01*
X212175000Y-130183138D01*
X212099527Y-130190571D01*
X212026954Y-130212586D01*
X212025000Y-130213630D01*
X212023046Y-130212586D01*
X211950473Y-130190571D01*
X211875000Y-130183138D01*
X211225000Y-130183138D01*
X211149527Y-130190571D01*
X211076954Y-130212586D01*
X211010071Y-130248336D01*
X210951447Y-130296447D01*
X210903336Y-130355071D01*
X210867586Y-130421954D01*
X210845571Y-130494527D01*
X210838138Y-130570000D01*
X210838138Y-131630000D01*
X210845571Y-131705473D01*
X210867586Y-131778046D01*
X210903336Y-131844929D01*
X210951447Y-131903553D01*
X211010071Y-131951664D01*
X211015001Y-131954299D01*
X211015001Y-131978395D01*
X210450549Y-132542848D01*
X210413569Y-132473662D01*
X210394150Y-132450000D01*
X210367213Y-132417177D01*
X210367209Y-132417173D01*
X210351711Y-132398289D01*
X210332827Y-132382791D01*
X209867213Y-131917178D01*
X209851711Y-131898289D01*
X209776338Y-131836431D01*
X209690345Y-131790467D01*
X209597037Y-131762162D01*
X209524318Y-131755000D01*
X209524307Y-131755000D01*
X209500000Y-131752606D01*
X209475693Y-131755000D01*
X208973736Y-131755000D01*
X208936662Y-131717926D01*
X208824469Y-131642961D01*
X208699807Y-131591325D01*
X208623825Y-131576211D01*
X208832827Y-131367209D01*
X208851711Y-131351711D01*
X208867209Y-131332827D01*
X208867213Y-131332823D01*
X208913568Y-131276339D01*
X208913569Y-131276338D01*
X208959533Y-131190345D01*
X208987838Y-131097037D01*
X208989024Y-131085000D01*
X209774490Y-131085000D01*
X209791073Y-131083367D01*
X209807018Y-131078530D01*
X209821713Y-131070675D01*
X209834594Y-131060104D01*
X209845165Y-131047223D01*
X209853020Y-131032528D01*
X209857857Y-131016583D01*
X209859490Y-131000000D01*
X209859490Y-129430000D01*
X210938621Y-129430000D01*
X210944124Y-129485870D01*
X210960420Y-129539592D01*
X210986885Y-129589104D01*
X211022499Y-129632501D01*
X211065896Y-129668115D01*
X211115408Y-129694580D01*
X211169130Y-129710876D01*
X211225000Y-129716379D01*
X211473750Y-129715000D01*
X211545000Y-129643750D01*
X211545000Y-128905000D01*
X211011250Y-128905000D01*
X210940000Y-128976250D01*
X210938621Y-129430000D01*
X209859490Y-129430000D01*
X209859490Y-129095000D01*
X209857857Y-129078417D01*
X209853020Y-129062472D01*
X209845165Y-129047777D01*
X209834594Y-129034896D01*
X209821713Y-129024325D01*
X209807018Y-129016470D01*
X209791073Y-129011633D01*
X209774490Y-129010000D01*
X206460036Y-129010000D01*
X205935000Y-128484965D01*
X205935000Y-128432533D01*
X205922561Y-128370000D01*
X210938621Y-128370000D01*
X210940000Y-128823750D01*
X211011250Y-128895000D01*
X211545000Y-128895000D01*
X211545000Y-128156250D01*
X211473750Y-128085000D01*
X211225000Y-128083621D01*
X211169130Y-128089124D01*
X211115408Y-128105420D01*
X211065896Y-128131885D01*
X211022499Y-128167499D01*
X210986885Y-128210896D01*
X210960420Y-128260408D01*
X210944124Y-128314130D01*
X210938621Y-128370000D01*
X205922561Y-128370000D01*
X205908675Y-128300193D01*
X205857039Y-128175531D01*
X205782074Y-128063338D01*
X205718736Y-128000000D01*
X205782074Y-127936662D01*
X205857039Y-127824469D01*
X205908675Y-127699807D01*
X205935000Y-127567467D01*
X205935000Y-127432533D01*
X205908675Y-127300193D01*
X205857039Y-127175531D01*
X205782074Y-127063338D01*
X205686662Y-126967926D01*
X205574469Y-126892961D01*
X205449807Y-126841325D01*
X205317467Y-126815000D01*
X205182533Y-126815000D01*
X205050193Y-126841325D01*
X204925531Y-126892961D01*
X204813338Y-126967926D01*
X204717926Y-127063338D01*
X204642961Y-127175531D01*
X204591325Y-127300193D01*
X204565000Y-127432533D01*
X204565000Y-127484964D01*
X202544965Y-129505000D01*
X201149000Y-129505000D01*
X201149000Y-128850802D01*
X201147367Y-128834219D01*
X201142530Y-128818274D01*
X201134675Y-128803579D01*
X201124104Y-128790698D01*
X201111223Y-128780127D01*
X201096528Y-128772272D01*
X201080583Y-128767435D01*
X201064000Y-128765802D01*
X197000000Y-128765802D01*
X196983417Y-128767435D01*
X196967472Y-128772272D01*
X196952777Y-128780127D01*
X196939896Y-128790698D01*
X196929325Y-128803579D01*
X196921470Y-128818274D01*
X196916633Y-128834219D01*
X196915000Y-128850802D01*
X196915000Y-130755802D01*
X196916633Y-130772385D01*
X196921470Y-130788330D01*
X196929325Y-130803025D01*
X196939896Y-130815906D01*
X196952777Y-130826477D01*
X196967472Y-130834332D01*
X196983417Y-130839169D01*
X197000000Y-130840802D01*
X197775439Y-130840802D01*
X197790467Y-130890344D01*
X197836431Y-130976338D01*
X197882787Y-131032822D01*
X197882792Y-131032827D01*
X197898290Y-131051711D01*
X197917173Y-131067209D01*
X198224309Y-131374345D01*
X198170071Y-131403336D01*
X198111447Y-131451447D01*
X198063336Y-131510071D01*
X198027586Y-131576954D01*
X198005571Y-131649527D01*
X197998138Y-131725000D01*
X197998138Y-133225000D01*
X198005571Y-133300473D01*
X198027586Y-133373046D01*
X198063336Y-133439929D01*
X198111447Y-133498553D01*
X198170071Y-133546664D01*
X198236954Y-133582414D01*
X198309527Y-133604429D01*
X198385000Y-133611862D01*
X199885000Y-133611862D01*
X199960473Y-133604429D01*
X200033046Y-133582414D01*
X200099929Y-133546664D01*
X200158553Y-133498553D01*
X200206664Y-133439929D01*
X200242414Y-133373046D01*
X200264429Y-133300473D01*
X200269399Y-133250000D01*
X202313621Y-133250000D01*
X202319124Y-133305870D01*
X202335420Y-133359592D01*
X202361885Y-133409104D01*
X202397499Y-133452501D01*
X202440896Y-133488115D01*
X202490408Y-133514580D01*
X202544130Y-133530876D01*
X202600000Y-133536379D01*
X203273750Y-133535000D01*
X203345000Y-133463750D01*
X203345000Y-132505000D01*
X203355000Y-132505000D01*
X203355000Y-133463750D01*
X203426250Y-133535000D01*
X204100000Y-133536379D01*
X204155870Y-133530876D01*
X204209592Y-133514580D01*
X204259104Y-133488115D01*
X204302501Y-133452501D01*
X204338115Y-133409104D01*
X204364580Y-133359592D01*
X204380876Y-133305870D01*
X204386379Y-133250000D01*
X204385000Y-132576250D01*
X204313750Y-132505000D01*
X203355000Y-132505000D01*
X203345000Y-132505000D01*
X202386250Y-132505000D01*
X202315000Y-132576250D01*
X202313621Y-133250000D01*
X200269399Y-133250000D01*
X200271862Y-133225000D01*
X200271862Y-131750000D01*
X202313621Y-131750000D01*
X202315000Y-132423750D01*
X202386250Y-132495000D01*
X203345000Y-132495000D01*
X203345000Y-131536250D01*
X203355000Y-131536250D01*
X203355000Y-132495000D01*
X204313750Y-132495000D01*
X204385000Y-132423750D01*
X204386379Y-131750000D01*
X204380876Y-131694130D01*
X204364580Y-131640408D01*
X204338115Y-131590896D01*
X204302501Y-131547499D01*
X204259104Y-131511885D01*
X204209592Y-131485420D01*
X204155870Y-131469124D01*
X204100000Y-131463621D01*
X203426250Y-131465000D01*
X203355000Y-131536250D01*
X203345000Y-131536250D01*
X203273750Y-131465000D01*
X202600000Y-131463621D01*
X202544130Y-131469124D01*
X202490408Y-131485420D01*
X202440896Y-131511885D01*
X202397499Y-131547499D01*
X202361885Y-131590896D01*
X202335420Y-131640408D01*
X202319124Y-131694130D01*
X202313621Y-131750000D01*
X200271862Y-131750000D01*
X200271862Y-131725000D01*
X200264429Y-131649527D01*
X200242414Y-131576954D01*
X200206664Y-131510071D01*
X200158553Y-131451447D01*
X200099929Y-131403336D01*
X200033046Y-131367586D01*
X199960473Y-131345571D01*
X199885000Y-131338138D01*
X199564325Y-131338138D01*
X199548569Y-131308661D01*
X199502213Y-131252177D01*
X199502209Y-131252173D01*
X199486711Y-131233289D01*
X199467827Y-131217791D01*
X199090838Y-130840802D01*
X201064000Y-130840802D01*
X201080583Y-130839169D01*
X201096528Y-130834332D01*
X201111223Y-130826477D01*
X201124104Y-130815906D01*
X201134675Y-130803025D01*
X201142530Y-130788330D01*
X201147367Y-130772385D01*
X201149000Y-130755802D01*
X201149000Y-130495000D01*
X202725693Y-130495000D01*
X202750000Y-130497394D01*
X202774307Y-130495000D01*
X202774318Y-130495000D01*
X202847037Y-130487838D01*
X202940345Y-130459533D01*
X203026338Y-130413569D01*
X203101711Y-130351711D01*
X203117213Y-130332822D01*
X204637866Y-128812169D01*
X204642961Y-128824469D01*
X204717926Y-128936662D01*
X204813338Y-129032074D01*
X204925531Y-129107039D01*
X205050193Y-129158675D01*
X205182533Y-129185000D01*
X205234965Y-129185000D01*
X205625490Y-129575525D01*
X205625490Y-131000000D01*
X205627123Y-131016583D01*
X205631960Y-131032528D01*
X205639815Y-131047223D01*
X205650386Y-131060104D01*
X205663267Y-131070675D01*
X205677962Y-131078530D01*
X205693907Y-131083367D01*
X205710490Y-131085000D01*
X207714964Y-131085000D01*
X207433525Y-131366440D01*
X207400000Y-131363138D01*
X205900000Y-131363138D01*
X205824527Y-131370571D01*
X205751954Y-131392586D01*
X205685071Y-131428336D01*
X205626447Y-131476447D01*
X205578336Y-131535071D01*
X205542586Y-131601954D01*
X205520571Y-131674527D01*
X205513138Y-131750000D01*
X205513138Y-133250000D01*
X205520571Y-133325473D01*
X205542586Y-133398046D01*
X205578336Y-133464929D01*
X205626447Y-133523553D01*
X205685071Y-133571664D01*
X205751954Y-133607414D01*
X205824527Y-133629429D01*
X205900000Y-133636862D01*
X207400000Y-133636862D01*
X207475473Y-133629429D01*
X207548046Y-133607414D01*
X207614929Y-133571664D01*
X207673553Y-133523553D01*
X207721664Y-133464929D01*
X207757414Y-133398046D01*
X207779429Y-133325473D01*
X207786862Y-133250000D01*
X207786862Y-132413173D01*
X207826211Y-132373825D01*
X207841325Y-132449807D01*
X207892961Y-132574469D01*
X207967926Y-132686662D01*
X208063338Y-132782074D01*
X208175531Y-132857039D01*
X208300193Y-132908675D01*
X208319002Y-132912416D01*
X208315000Y-132932533D01*
X208315000Y-133067467D01*
X208319002Y-133087584D01*
X208300193Y-133091325D01*
X208175531Y-133142961D01*
X208063338Y-133217926D01*
X207967926Y-133313338D01*
X207892961Y-133425531D01*
X207841325Y-133550193D01*
X207815000Y-133682533D01*
X207815000Y-133817467D01*
X207841325Y-133949807D01*
X207892961Y-134074469D01*
X207967926Y-134186662D01*
X208063338Y-134282074D01*
X208175531Y-134357039D01*
X208300193Y-134408675D01*
X208432533Y-134435000D01*
X208484964Y-134435000D01*
X208505000Y-134455036D01*
X208505001Y-134794963D01*
X207794965Y-135505000D01*
X183774310Y-135505000D01*
X183750000Y-135502606D01*
X183725690Y-135505000D01*
X183725682Y-135505000D01*
X183652963Y-135512162D01*
X183559655Y-135540467D01*
X183473662Y-135586431D01*
X183417177Y-135632787D01*
X183417173Y-135632791D01*
X183398289Y-135648289D01*
X183382791Y-135667173D01*
X182417178Y-136632787D01*
X182398289Y-136648289D01*
X182336431Y-136723662D01*
X182290467Y-136809656D01*
X182262162Y-136902964D01*
X182255000Y-136975683D01*
X182255000Y-136975693D01*
X182252606Y-137000000D01*
X182255000Y-137024307D01*
X182255001Y-141475683D01*
X182252606Y-141500000D01*
X182262163Y-141597036D01*
X182290467Y-141690344D01*
X182336431Y-141776338D01*
X182382787Y-141832822D01*
X182382792Y-141832827D01*
X182398290Y-141851711D01*
X182417173Y-141867208D01*
X182613138Y-142063173D01*
X182613138Y-142450000D01*
X182620571Y-142525473D01*
X182642586Y-142598046D01*
X182678336Y-142664929D01*
X182726447Y-142723553D01*
X182785071Y-142771664D01*
X182851954Y-142807414D01*
X182924527Y-142829429D01*
X183000000Y-142836862D01*
X183500000Y-142836862D01*
X183575473Y-142829429D01*
X183648046Y-142807414D01*
X183714929Y-142771664D01*
X183773553Y-142723553D01*
X183821664Y-142664929D01*
X183857414Y-142598046D01*
X183879429Y-142525473D01*
X183886862Y-142450000D01*
X183886862Y-141550000D01*
X183879429Y-141474527D01*
X183857414Y-141401954D01*
X183821664Y-141335071D01*
X183773553Y-141276447D01*
X183714929Y-141228336D01*
X183648046Y-141192586D01*
X183575473Y-141170571D01*
X183500000Y-141163138D01*
X183245000Y-141163138D01*
X183245000Y-140085234D01*
X183276447Y-140123553D01*
X183335071Y-140171664D01*
X183401954Y-140207414D01*
X183474527Y-140229429D01*
X183550000Y-140236862D01*
X184255001Y-140236862D01*
X184255000Y-141253014D01*
X184226447Y-141276447D01*
X184178336Y-141335071D01*
X184142586Y-141401954D01*
X184120571Y-141474527D01*
X184113138Y-141550000D01*
X184113138Y-142450000D01*
X184120571Y-142525473D01*
X184142586Y-142598046D01*
X184178336Y-142664929D01*
X184226447Y-142723553D01*
X184285071Y-142771664D01*
X184351954Y-142807414D01*
X184424527Y-142829429D01*
X184500000Y-142836862D01*
X185000000Y-142836862D01*
X185075473Y-142829429D01*
X185148046Y-142807414D01*
X185214929Y-142771664D01*
X185273553Y-142723553D01*
X185321664Y-142664929D01*
X185357414Y-142598046D01*
X185379429Y-142525473D01*
X185386862Y-142450000D01*
X185386862Y-141550000D01*
X185379429Y-141474527D01*
X185357414Y-141401954D01*
X185321664Y-141335071D01*
X185273553Y-141276447D01*
X185245000Y-141253014D01*
X185245000Y-140182316D01*
X185264929Y-140171664D01*
X185323553Y-140123553D01*
X185371664Y-140064929D01*
X185407414Y-139998046D01*
X185429429Y-139925473D01*
X185436862Y-139850000D01*
X186563621Y-139850000D01*
X186569124Y-139905870D01*
X186585420Y-139959592D01*
X186611885Y-140009104D01*
X186647499Y-140052501D01*
X186690896Y-140088115D01*
X186740408Y-140114580D01*
X186794130Y-140130876D01*
X186850000Y-140136379D01*
X187523750Y-140135000D01*
X187595000Y-140063750D01*
X187595000Y-139105000D01*
X187605000Y-139105000D01*
X187605000Y-140063750D01*
X187676250Y-140135000D01*
X188350000Y-140136379D01*
X188405870Y-140130876D01*
X188459592Y-140114580D01*
X188509104Y-140088115D01*
X188552501Y-140052501D01*
X188588115Y-140009104D01*
X188614580Y-139959592D01*
X188630876Y-139905870D01*
X188636379Y-139850000D01*
X188635000Y-139176250D01*
X188563750Y-139105000D01*
X187605000Y-139105000D01*
X187595000Y-139105000D01*
X186636250Y-139105000D01*
X186565000Y-139176250D01*
X186563621Y-139850000D01*
X185436862Y-139850000D01*
X185436862Y-138350000D01*
X186563621Y-138350000D01*
X186565000Y-139023750D01*
X186636250Y-139095000D01*
X187595000Y-139095000D01*
X187595000Y-138136250D01*
X187605000Y-138136250D01*
X187605000Y-139095000D01*
X188563750Y-139095000D01*
X188635000Y-139023750D01*
X188636379Y-138350000D01*
X188630876Y-138294130D01*
X188614580Y-138240408D01*
X188588115Y-138190896D01*
X188552501Y-138147499D01*
X188509104Y-138111885D01*
X188459592Y-138085420D01*
X188405870Y-138069124D01*
X188350000Y-138063621D01*
X187676250Y-138065000D01*
X187605000Y-138136250D01*
X187595000Y-138136250D01*
X187523750Y-138065000D01*
X186850000Y-138063621D01*
X186794130Y-138069124D01*
X186740408Y-138085420D01*
X186690896Y-138111885D01*
X186647499Y-138147499D01*
X186611885Y-138190896D01*
X186585420Y-138240408D01*
X186569124Y-138294130D01*
X186563621Y-138350000D01*
X185436862Y-138350000D01*
X185429429Y-138274527D01*
X185407414Y-138201954D01*
X185371664Y-138135071D01*
X185323553Y-138076447D01*
X185264929Y-138028336D01*
X185198046Y-137992586D01*
X185125473Y-137970571D01*
X185050000Y-137963138D01*
X183550000Y-137963138D01*
X183474527Y-137970571D01*
X183401954Y-137992586D01*
X183335071Y-138028336D01*
X183276447Y-138076447D01*
X183245000Y-138114766D01*
X183245000Y-137205035D01*
X183955036Y-136495000D01*
X190804964Y-136495000D01*
X190417178Y-136882787D01*
X190398289Y-136898289D01*
X190336431Y-136973662D01*
X190290467Y-137059656D01*
X190262162Y-137152964D01*
X190255000Y-137225683D01*
X190255000Y-137225693D01*
X190252606Y-137250000D01*
X190255000Y-137274307D01*
X190255001Y-141475683D01*
X190252606Y-141500000D01*
X190262163Y-141597036D01*
X190290467Y-141690344D01*
X190336431Y-141776338D01*
X190382787Y-141832822D01*
X190382792Y-141832827D01*
X190398290Y-141851711D01*
X190417173Y-141867208D01*
X190613138Y-142063173D01*
X190613138Y-142450000D01*
X190620571Y-142525473D01*
X190642586Y-142598046D01*
X190678336Y-142664929D01*
X190726447Y-142723553D01*
X190785071Y-142771664D01*
X190851954Y-142807414D01*
X190924527Y-142829429D01*
X191000000Y-142836862D01*
X191500000Y-142836862D01*
X191575473Y-142829429D01*
X191648046Y-142807414D01*
X191714929Y-142771664D01*
X191773553Y-142723553D01*
X191821664Y-142664929D01*
X191857414Y-142598046D01*
X191879429Y-142525473D01*
X191886862Y-142450000D01*
X191886862Y-141550000D01*
X191879429Y-141474527D01*
X191857414Y-141401954D01*
X191821664Y-141335071D01*
X191773553Y-141276447D01*
X191714929Y-141228336D01*
X191648046Y-141192586D01*
X191575473Y-141170571D01*
X191500000Y-141163138D01*
X191245000Y-141163138D01*
X191245000Y-140049334D01*
X191253336Y-140064929D01*
X191301447Y-140123553D01*
X191360071Y-140171664D01*
X191426954Y-140207414D01*
X191499527Y-140229429D01*
X191575000Y-140236862D01*
X192255001Y-140236862D01*
X192255000Y-141253014D01*
X192226447Y-141276447D01*
X192178336Y-141335071D01*
X192142586Y-141401954D01*
X192120571Y-141474527D01*
X192113138Y-141550000D01*
X192113138Y-142450000D01*
X192120571Y-142525473D01*
X192142586Y-142598046D01*
X192178336Y-142664929D01*
X192226447Y-142723553D01*
X192285071Y-142771664D01*
X192351954Y-142807414D01*
X192424527Y-142829429D01*
X192500000Y-142836862D01*
X193000000Y-142836862D01*
X193075473Y-142829429D01*
X193148046Y-142807414D01*
X193214929Y-142771664D01*
X193273553Y-142723553D01*
X193321664Y-142664929D01*
X193357414Y-142598046D01*
X193379429Y-142525473D01*
X193386862Y-142450000D01*
X193386862Y-141550000D01*
X193379429Y-141474527D01*
X193357414Y-141401954D01*
X193321664Y-141335071D01*
X193273553Y-141276447D01*
X193245000Y-141253014D01*
X193245000Y-140195679D01*
X193289929Y-140171664D01*
X193348553Y-140123553D01*
X193396664Y-140064929D01*
X193432414Y-139998046D01*
X193454429Y-139925473D01*
X193461862Y-139850000D01*
X194588621Y-139850000D01*
X194594124Y-139905870D01*
X194610420Y-139959592D01*
X194636885Y-140009104D01*
X194672499Y-140052501D01*
X194715896Y-140088115D01*
X194765408Y-140114580D01*
X194819130Y-140130876D01*
X194875000Y-140136379D01*
X195548750Y-140135000D01*
X195620000Y-140063750D01*
X195620000Y-139105000D01*
X195630000Y-139105000D01*
X195630000Y-140063750D01*
X195701250Y-140135000D01*
X196375000Y-140136379D01*
X196430870Y-140130876D01*
X196484592Y-140114580D01*
X196534104Y-140088115D01*
X196577501Y-140052501D01*
X196613115Y-140009104D01*
X196639580Y-139959592D01*
X196655876Y-139905870D01*
X196661379Y-139850000D01*
X196660000Y-139176250D01*
X196588750Y-139105000D01*
X195630000Y-139105000D01*
X195620000Y-139105000D01*
X194661250Y-139105000D01*
X194590000Y-139176250D01*
X194588621Y-139850000D01*
X193461862Y-139850000D01*
X193461862Y-138350000D01*
X194588621Y-138350000D01*
X194590000Y-139023750D01*
X194661250Y-139095000D01*
X195620000Y-139095000D01*
X195620000Y-138136250D01*
X195630000Y-138136250D01*
X195630000Y-139095000D01*
X196588750Y-139095000D01*
X196660000Y-139023750D01*
X196661379Y-138350000D01*
X196655876Y-138294130D01*
X196639580Y-138240408D01*
X196613115Y-138190896D01*
X196577501Y-138147499D01*
X196534104Y-138111885D01*
X196484592Y-138085420D01*
X196430870Y-138069124D01*
X196375000Y-138063621D01*
X195701250Y-138065000D01*
X195630000Y-138136250D01*
X195620000Y-138136250D01*
X195548750Y-138065000D01*
X194875000Y-138063621D01*
X194819130Y-138069124D01*
X194765408Y-138085420D01*
X194715896Y-138111885D01*
X194672499Y-138147499D01*
X194636885Y-138190896D01*
X194610420Y-138240408D01*
X194594124Y-138294130D01*
X194588621Y-138350000D01*
X193461862Y-138350000D01*
X193454429Y-138274527D01*
X193432414Y-138201954D01*
X193396664Y-138135071D01*
X193348553Y-138076447D01*
X193289929Y-138028336D01*
X193223046Y-137992586D01*
X193150473Y-137970571D01*
X193075000Y-137963138D01*
X191575000Y-137963138D01*
X191499527Y-137970571D01*
X191426954Y-137992586D01*
X191360071Y-138028336D01*
X191301447Y-138076447D01*
X191253336Y-138135071D01*
X191245000Y-138150666D01*
X191245000Y-137455035D01*
X191705036Y-136995000D01*
X198554965Y-136995000D01*
X198417178Y-137132787D01*
X198398289Y-137148289D01*
X198336431Y-137223662D01*
X198290467Y-137309656D01*
X198262162Y-137402964D01*
X198255000Y-137475683D01*
X198255000Y-137475693D01*
X198252606Y-137500000D01*
X198255000Y-137524307D01*
X198255001Y-141475683D01*
X198252606Y-141500000D01*
X198262163Y-141597036D01*
X198290467Y-141690344D01*
X198336431Y-141776338D01*
X198382787Y-141832822D01*
X198382792Y-141832827D01*
X198398290Y-141851711D01*
X198417173Y-141867208D01*
X198613138Y-142063173D01*
X198613138Y-142450000D01*
X198620571Y-142525473D01*
X198642586Y-142598046D01*
X198678336Y-142664929D01*
X198726447Y-142723553D01*
X198785071Y-142771664D01*
X198851954Y-142807414D01*
X198924527Y-142829429D01*
X199000000Y-142836862D01*
X199500000Y-142836862D01*
X199575473Y-142829429D01*
X199648046Y-142807414D01*
X199714929Y-142771664D01*
X199773553Y-142723553D01*
X199821664Y-142664929D01*
X199857414Y-142598046D01*
X199879429Y-142525473D01*
X199886862Y-142450000D01*
X199886862Y-141550000D01*
X199879429Y-141474527D01*
X199857414Y-141401954D01*
X199821664Y-141335071D01*
X199773553Y-141276447D01*
X199714929Y-141228336D01*
X199648046Y-141192586D01*
X199575473Y-141170571D01*
X199500000Y-141163138D01*
X199245000Y-141163138D01*
X199245000Y-140102562D01*
X199278336Y-140164929D01*
X199326447Y-140223553D01*
X199385071Y-140271664D01*
X199451954Y-140307414D01*
X199524527Y-140329429D01*
X199600000Y-140336862D01*
X200255001Y-140336862D01*
X200255000Y-141253014D01*
X200226447Y-141276447D01*
X200178336Y-141335071D01*
X200142586Y-141401954D01*
X200120571Y-141474527D01*
X200113138Y-141550000D01*
X200113138Y-142450000D01*
X200120571Y-142525473D01*
X200142586Y-142598046D01*
X200178336Y-142664929D01*
X200226447Y-142723553D01*
X200285071Y-142771664D01*
X200351954Y-142807414D01*
X200424527Y-142829429D01*
X200500000Y-142836862D01*
X201000000Y-142836862D01*
X201075473Y-142829429D01*
X201148046Y-142807414D01*
X201214929Y-142771664D01*
X201273553Y-142723553D01*
X201321664Y-142664929D01*
X201357414Y-142598046D01*
X201379429Y-142525473D01*
X201386862Y-142450000D01*
X201386862Y-141550000D01*
X201379429Y-141474527D01*
X201357414Y-141401954D01*
X201321664Y-141335071D01*
X201273553Y-141276447D01*
X201245000Y-141253014D01*
X201245000Y-140308338D01*
X201248046Y-140307414D01*
X201314929Y-140271664D01*
X201373553Y-140223553D01*
X201421664Y-140164929D01*
X201457414Y-140098046D01*
X201479429Y-140025473D01*
X201486862Y-139950000D01*
X202613621Y-139950000D01*
X202619124Y-140005870D01*
X202635420Y-140059592D01*
X202661885Y-140109104D01*
X202697499Y-140152501D01*
X202740896Y-140188115D01*
X202790408Y-140214580D01*
X202844130Y-140230876D01*
X202900000Y-140236379D01*
X203573750Y-140235000D01*
X203645000Y-140163750D01*
X203645000Y-139205000D01*
X203655000Y-139205000D01*
X203655000Y-140163750D01*
X203726250Y-140235000D01*
X204400000Y-140236379D01*
X204455870Y-140230876D01*
X204509592Y-140214580D01*
X204559104Y-140188115D01*
X204602501Y-140152501D01*
X204638115Y-140109104D01*
X204664580Y-140059592D01*
X204680876Y-140005870D01*
X204686379Y-139950000D01*
X204685612Y-139575000D01*
X208463621Y-139575000D01*
X208469124Y-139630870D01*
X208485420Y-139684592D01*
X208511885Y-139734104D01*
X208547499Y-139777501D01*
X208590896Y-139813115D01*
X208640408Y-139839580D01*
X208694130Y-139855876D01*
X208750000Y-139861379D01*
X209073750Y-139860000D01*
X209145000Y-139788750D01*
X209145000Y-139205000D01*
X209155000Y-139205000D01*
X209155000Y-139788750D01*
X209226250Y-139860000D01*
X209550000Y-139861379D01*
X209605870Y-139855876D01*
X209659592Y-139839580D01*
X209709104Y-139813115D01*
X209752501Y-139777501D01*
X209788115Y-139734104D01*
X209814580Y-139684592D01*
X209830876Y-139630870D01*
X209836379Y-139575000D01*
X209835000Y-139276250D01*
X209763750Y-139205000D01*
X209155000Y-139205000D01*
X209145000Y-139205000D01*
X208536250Y-139205000D01*
X208465000Y-139276250D01*
X208463621Y-139575000D01*
X204685612Y-139575000D01*
X204685000Y-139276250D01*
X204613750Y-139205000D01*
X203655000Y-139205000D01*
X203645000Y-139205000D01*
X202686250Y-139205000D01*
X202615000Y-139276250D01*
X202613621Y-139950000D01*
X201486862Y-139950000D01*
X201486862Y-138450000D01*
X202613621Y-138450000D01*
X202615000Y-139123750D01*
X202686250Y-139195000D01*
X203645000Y-139195000D01*
X203645000Y-138236250D01*
X203655000Y-138236250D01*
X203655000Y-139195000D01*
X204613750Y-139195000D01*
X204685000Y-139123750D01*
X204685611Y-138825000D01*
X208463621Y-138825000D01*
X208465000Y-139123750D01*
X208536250Y-139195000D01*
X209145000Y-139195000D01*
X209145000Y-138611250D01*
X209155000Y-138611250D01*
X209155000Y-139195000D01*
X209763750Y-139195000D01*
X209835000Y-139123750D01*
X209836379Y-138825000D01*
X209863138Y-138825000D01*
X209863138Y-139575000D01*
X209870571Y-139650473D01*
X209892586Y-139723046D01*
X209928336Y-139789929D01*
X209976447Y-139848553D01*
X210035071Y-139896664D01*
X210101954Y-139932414D01*
X210174527Y-139954429D01*
X210250000Y-139961862D01*
X211050000Y-139961862D01*
X211125473Y-139954429D01*
X211198046Y-139932414D01*
X211264929Y-139896664D01*
X211323553Y-139848553D01*
X211371664Y-139789929D01*
X211392259Y-139751399D01*
X211475531Y-139807039D01*
X211600193Y-139858675D01*
X211732533Y-139885000D01*
X211867467Y-139885000D01*
X211999807Y-139858675D01*
X212124469Y-139807039D01*
X212236662Y-139732074D01*
X212332074Y-139636662D01*
X212407039Y-139524469D01*
X212458675Y-139399807D01*
X212485000Y-139267467D01*
X212485000Y-139132533D01*
X212458675Y-139000193D01*
X212407039Y-138875531D01*
X212332074Y-138763338D01*
X212236662Y-138667926D01*
X212124469Y-138592961D01*
X211999807Y-138541325D01*
X211867467Y-138515000D01*
X211732533Y-138515000D01*
X211600193Y-138541325D01*
X211475531Y-138592961D01*
X211392259Y-138648601D01*
X211371664Y-138610071D01*
X211323553Y-138551447D01*
X211264929Y-138503336D01*
X211198046Y-138467586D01*
X211125473Y-138445571D01*
X211050000Y-138438138D01*
X210250000Y-138438138D01*
X210174527Y-138445571D01*
X210101954Y-138467586D01*
X210035071Y-138503336D01*
X209976447Y-138551447D01*
X209928336Y-138610071D01*
X209892586Y-138676954D01*
X209870571Y-138749527D01*
X209863138Y-138825000D01*
X209836379Y-138825000D01*
X209830876Y-138769130D01*
X209814580Y-138715408D01*
X209788115Y-138665896D01*
X209752501Y-138622499D01*
X209709104Y-138586885D01*
X209659592Y-138560420D01*
X209605870Y-138544124D01*
X209550000Y-138538621D01*
X209226250Y-138540000D01*
X209155000Y-138611250D01*
X209145000Y-138611250D01*
X209073750Y-138540000D01*
X208750000Y-138538621D01*
X208694130Y-138544124D01*
X208640408Y-138560420D01*
X208590896Y-138586885D01*
X208547499Y-138622499D01*
X208511885Y-138665896D01*
X208485420Y-138715408D01*
X208469124Y-138769130D01*
X208463621Y-138825000D01*
X204685611Y-138825000D01*
X204686379Y-138450000D01*
X204680876Y-138394130D01*
X204664580Y-138340408D01*
X204638115Y-138290896D01*
X204602501Y-138247499D01*
X204559104Y-138211885D01*
X204509592Y-138185420D01*
X204455870Y-138169124D01*
X204400000Y-138163621D01*
X203726250Y-138165000D01*
X203655000Y-138236250D01*
X203645000Y-138236250D01*
X203573750Y-138165000D01*
X202900000Y-138163621D01*
X202844130Y-138169124D01*
X202790408Y-138185420D01*
X202740896Y-138211885D01*
X202697499Y-138247499D01*
X202661885Y-138290896D01*
X202635420Y-138340408D01*
X202619124Y-138394130D01*
X202613621Y-138450000D01*
X201486862Y-138450000D01*
X201479429Y-138374527D01*
X201457414Y-138301954D01*
X201421664Y-138235071D01*
X201373553Y-138176447D01*
X201314929Y-138128336D01*
X201248046Y-138092586D01*
X201175473Y-138070571D01*
X201100000Y-138063138D01*
X199600000Y-138063138D01*
X199524527Y-138070571D01*
X199451954Y-138092586D01*
X199385071Y-138128336D01*
X199326447Y-138176447D01*
X199278336Y-138235071D01*
X199245000Y-138297438D01*
X199245000Y-137705035D01*
X199455036Y-137495000D01*
X208475693Y-137495000D01*
X208500000Y-137497394D01*
X208524307Y-137495000D01*
X208524318Y-137495000D01*
X208597037Y-137487838D01*
X208690345Y-137459533D01*
X208776338Y-137413569D01*
X208851711Y-137351711D01*
X208867213Y-137332822D01*
X209534506Y-136665529D01*
X209541325Y-136699807D01*
X209579269Y-136791413D01*
X209575531Y-136792961D01*
X209463338Y-136867926D01*
X209367926Y-136963338D01*
X209292961Y-137075531D01*
X209241325Y-137200193D01*
X209215000Y-137332533D01*
X209215000Y-137467467D01*
X209241325Y-137599807D01*
X209292961Y-137724469D01*
X209367926Y-137836662D01*
X209463338Y-137932074D01*
X209575531Y-138007039D01*
X209700193Y-138058675D01*
X209832533Y-138085000D01*
X209967467Y-138085000D01*
X210099807Y-138058675D01*
X210224469Y-138007039D01*
X210336662Y-137932074D01*
X210373736Y-137895000D01*
X212915000Y-137895000D01*
X212915000Y-146488808D01*
X212856803Y-146706002D01*
X212706002Y-146856803D01*
X212488808Y-146915000D01*
X175511192Y-146915000D01*
X175293998Y-146856803D01*
X175143197Y-146706002D01*
X175085000Y-146488808D01*
X175085000Y-142500000D01*
X175082104Y-142478000D01*
X175015117Y-142228000D01*
X175009247Y-142212406D01*
X175000448Y-142198255D01*
X174993117Y-142189896D01*
X174810104Y-142006883D01*
X174797223Y-141996312D01*
X174782528Y-141988457D01*
X174772000Y-141984883D01*
X174522000Y-141917896D01*
X174500000Y-141915000D01*
X170511192Y-141915000D01*
X170293998Y-141856803D01*
X170143197Y-141706002D01*
X170085000Y-141488808D01*
X170085000Y-139853740D01*
X170515000Y-139853740D01*
X170515000Y-140146260D01*
X170572068Y-140433158D01*
X170684010Y-140703411D01*
X170846525Y-140946632D01*
X171053368Y-141153475D01*
X171296589Y-141315990D01*
X171566842Y-141427932D01*
X171853740Y-141485000D01*
X172146260Y-141485000D01*
X172433158Y-141427932D01*
X172703411Y-141315990D01*
X172946632Y-141153475D01*
X173153475Y-140946632D01*
X173315990Y-140703411D01*
X173427932Y-140433158D01*
X173485000Y-140146260D01*
X173485000Y-139853740D01*
X173427932Y-139566842D01*
X173315990Y-139296589D01*
X173153475Y-139053368D01*
X172946632Y-138846525D01*
X172703411Y-138684010D01*
X172433158Y-138572068D01*
X172146260Y-138515000D01*
X171853740Y-138515000D01*
X171566842Y-138572068D01*
X171296589Y-138684010D01*
X171053368Y-138846525D01*
X170846525Y-139053368D01*
X170684010Y-139296589D01*
X170572068Y-139566842D01*
X170515000Y-139853740D01*
X170085000Y-139853740D01*
X170085000Y-133860524D01*
X178695000Y-133860524D01*
X178695000Y-134059476D01*
X178733814Y-134254606D01*
X178809950Y-134438414D01*
X178920482Y-134603837D01*
X179061163Y-134744518D01*
X179226586Y-134855050D01*
X179410394Y-134931186D01*
X179605524Y-134970000D01*
X179804476Y-134970000D01*
X179999606Y-134931186D01*
X180183414Y-134855050D01*
X180348837Y-134744518D01*
X180489518Y-134603837D01*
X180600050Y-134438414D01*
X180676186Y-134254606D01*
X180715000Y-134059476D01*
X180715000Y-133860524D01*
X181235000Y-133860524D01*
X181235000Y-134059476D01*
X181273814Y-134254606D01*
X181349950Y-134438414D01*
X181460482Y-134603837D01*
X181565000Y-134708355D01*
X181565000Y-134817467D01*
X181591325Y-134949807D01*
X181642961Y-135074469D01*
X181717926Y-135186662D01*
X181813338Y-135282074D01*
X181925531Y-135357039D01*
X182050193Y-135408675D01*
X182182533Y-135435000D01*
X182317467Y-135435000D01*
X182449807Y-135408675D01*
X182574469Y-135357039D01*
X182686662Y-135282074D01*
X182782074Y-135186662D01*
X182857039Y-135074469D01*
X182908675Y-134949807D01*
X182935000Y-134817467D01*
X182935000Y-134698355D01*
X183029518Y-134603837D01*
X183058993Y-134559724D01*
X184192347Y-134559724D01*
X184251581Y-134702695D01*
X184406723Y-134792489D01*
X184576402Y-134850291D01*
X184754097Y-134873880D01*
X184932980Y-134862349D01*
X185106176Y-134816141D01*
X185267030Y-134737032D01*
X185318419Y-134702695D01*
X185377653Y-134559724D01*
X184785000Y-133967071D01*
X184192347Y-134559724D01*
X183058993Y-134559724D01*
X183140050Y-134438414D01*
X183216186Y-134254606D01*
X183255000Y-134059476D01*
X183255000Y-133929097D01*
X183871120Y-133929097D01*
X183882651Y-134107980D01*
X183928859Y-134281176D01*
X184007968Y-134442030D01*
X184042305Y-134493419D01*
X184185276Y-134552653D01*
X184777929Y-133960000D01*
X184792071Y-133960000D01*
X185384724Y-134552653D01*
X185527695Y-134493419D01*
X185617489Y-134338277D01*
X185675291Y-134168598D01*
X185698880Y-133990903D01*
X185690476Y-133860524D01*
X186315000Y-133860524D01*
X186315000Y-134059476D01*
X186353814Y-134254606D01*
X186429950Y-134438414D01*
X186540482Y-134603837D01*
X186573989Y-134637344D01*
X186565000Y-134682533D01*
X186565000Y-134817467D01*
X186591325Y-134949807D01*
X186642961Y-135074469D01*
X186717926Y-135186662D01*
X186813338Y-135282074D01*
X186925531Y-135357039D01*
X187050193Y-135408675D01*
X187182533Y-135435000D01*
X187317467Y-135435000D01*
X187449807Y-135408675D01*
X187574469Y-135357039D01*
X187686662Y-135282074D01*
X187782074Y-135186662D01*
X187857039Y-135074469D01*
X187908675Y-134949807D01*
X187935000Y-134817467D01*
X187935000Y-134767127D01*
X187968837Y-134744518D01*
X188109518Y-134603837D01*
X188220050Y-134438414D01*
X188296186Y-134254606D01*
X188335000Y-134059476D01*
X188335000Y-133860524D01*
X188855000Y-133860524D01*
X188855000Y-134059476D01*
X188893814Y-134254606D01*
X188969950Y-134438414D01*
X189080482Y-134603837D01*
X189221163Y-134744518D01*
X189315000Y-134807218D01*
X189315000Y-134817467D01*
X189341325Y-134949807D01*
X189392961Y-135074469D01*
X189467926Y-135186662D01*
X189563338Y-135282074D01*
X189675531Y-135357039D01*
X189800193Y-135408675D01*
X189932533Y-135435000D01*
X190067467Y-135435000D01*
X190199807Y-135408675D01*
X190324469Y-135357039D01*
X190436662Y-135282074D01*
X190532074Y-135186662D01*
X190607039Y-135074469D01*
X190658675Y-134949807D01*
X190685000Y-134817467D01*
X190685000Y-134682533D01*
X190664797Y-134580970D01*
X190760050Y-134438414D01*
X190836186Y-134254606D01*
X190875000Y-134059476D01*
X190875000Y-133860524D01*
X190836186Y-133665394D01*
X190760050Y-133481586D01*
X190649518Y-133316163D01*
X190558355Y-133225000D01*
X194798621Y-133225000D01*
X194804124Y-133280870D01*
X194820420Y-133334592D01*
X194846885Y-133384104D01*
X194882499Y-133427501D01*
X194925896Y-133463115D01*
X194975408Y-133489580D01*
X195029130Y-133505876D01*
X195085000Y-133511379D01*
X195758750Y-133510000D01*
X195830000Y-133438750D01*
X195830000Y-132480000D01*
X195840000Y-132480000D01*
X195840000Y-133438750D01*
X195911250Y-133510000D01*
X196585000Y-133511379D01*
X196640870Y-133505876D01*
X196694592Y-133489580D01*
X196744104Y-133463115D01*
X196787501Y-133427501D01*
X196823115Y-133384104D01*
X196849580Y-133334592D01*
X196865876Y-133280870D01*
X196871379Y-133225000D01*
X196870000Y-132551250D01*
X196798750Y-132480000D01*
X195840000Y-132480000D01*
X195830000Y-132480000D01*
X194871250Y-132480000D01*
X194800000Y-132551250D01*
X194798621Y-133225000D01*
X190558355Y-133225000D01*
X190508837Y-133175482D01*
X190343414Y-133064950D01*
X190159606Y-132988814D01*
X189964476Y-132950000D01*
X189765524Y-132950000D01*
X189570394Y-132988814D01*
X189386586Y-133064950D01*
X189221163Y-133175482D01*
X189080482Y-133316163D01*
X188969950Y-133481586D01*
X188893814Y-133665394D01*
X188855000Y-133860524D01*
X188335000Y-133860524D01*
X188296186Y-133665394D01*
X188220050Y-133481586D01*
X188109518Y-133316163D01*
X187968837Y-133175482D01*
X187803414Y-133064950D01*
X187619606Y-132988814D01*
X187424476Y-132950000D01*
X187225524Y-132950000D01*
X187030394Y-132988814D01*
X186846586Y-133064950D01*
X186681163Y-133175482D01*
X186540482Y-133316163D01*
X186429950Y-133481586D01*
X186353814Y-133665394D01*
X186315000Y-133860524D01*
X185690476Y-133860524D01*
X185687349Y-133812020D01*
X185641141Y-133638824D01*
X185562032Y-133477970D01*
X185527695Y-133426581D01*
X185384724Y-133367347D01*
X184792071Y-133960000D01*
X184777929Y-133960000D01*
X184185276Y-133367347D01*
X184042305Y-133426581D01*
X183952511Y-133581723D01*
X183894709Y-133751402D01*
X183871120Y-133929097D01*
X183255000Y-133929097D01*
X183255000Y-133860524D01*
X183216186Y-133665394D01*
X183140050Y-133481586D01*
X183058994Y-133360276D01*
X184192347Y-133360276D01*
X184785000Y-133952929D01*
X185377653Y-133360276D01*
X185318419Y-133217305D01*
X185163277Y-133127511D01*
X184993598Y-133069709D01*
X184815903Y-133046120D01*
X184637020Y-133057651D01*
X184463824Y-133103859D01*
X184302970Y-133182968D01*
X184251581Y-133217305D01*
X184192347Y-133360276D01*
X183058994Y-133360276D01*
X183029518Y-133316163D01*
X182888837Y-133175482D01*
X182723414Y-133064950D01*
X182539606Y-132988814D01*
X182344476Y-132950000D01*
X182145524Y-132950000D01*
X181950394Y-132988814D01*
X181766586Y-133064950D01*
X181601163Y-133175482D01*
X181460482Y-133316163D01*
X181349950Y-133481586D01*
X181273814Y-133665394D01*
X181235000Y-133860524D01*
X180715000Y-133860524D01*
X180676186Y-133665394D01*
X180600050Y-133481586D01*
X180489518Y-133316163D01*
X180348837Y-133175482D01*
X180183414Y-133064950D01*
X179999606Y-132988814D01*
X179804476Y-132950000D01*
X179605524Y-132950000D01*
X179410394Y-132988814D01*
X179226586Y-133064950D01*
X179061163Y-133175482D01*
X178920482Y-133316163D01*
X178809950Y-133481586D01*
X178733814Y-133665394D01*
X178695000Y-133860524D01*
X170085000Y-133860524D01*
X170085000Y-115853740D01*
X170515000Y-115853740D01*
X170515000Y-116146260D01*
X170572068Y-116433158D01*
X170684010Y-116703411D01*
X170846525Y-116946632D01*
X171053368Y-117153475D01*
X171296589Y-117315990D01*
X171566842Y-117427932D01*
X171853740Y-117485000D01*
X172146260Y-117485000D01*
X172433158Y-117427932D01*
X172703411Y-117315990D01*
X172946632Y-117153475D01*
X173153475Y-116946632D01*
X173315990Y-116703411D01*
X173427932Y-116433158D01*
X173485000Y-116146260D01*
X173485000Y-115853740D01*
X173427932Y-115566842D01*
X173315990Y-115296589D01*
X173153475Y-115053368D01*
X172960631Y-114860524D01*
X178695000Y-114860524D01*
X178695000Y-115059476D01*
X178733814Y-115254606D01*
X178809950Y-115438414D01*
X178920482Y-115603837D01*
X179061163Y-115744518D01*
X179226586Y-115855050D01*
X179410394Y-115931186D01*
X179605524Y-115970000D01*
X179804476Y-115970000D01*
X179999606Y-115931186D01*
X180183414Y-115855050D01*
X180348837Y-115744518D01*
X180489518Y-115603837D01*
X180600050Y-115438414D01*
X180676186Y-115254606D01*
X180715000Y-115059476D01*
X180715000Y-114860524D01*
X181235000Y-114860524D01*
X181235000Y-115059476D01*
X181273814Y-115254606D01*
X181349950Y-115438414D01*
X181460482Y-115603837D01*
X181601163Y-115744518D01*
X181766586Y-115855050D01*
X181950394Y-115931186D01*
X182145524Y-115970000D01*
X182344476Y-115970000D01*
X182539606Y-115931186D01*
X182723414Y-115855050D01*
X182888837Y-115744518D01*
X183029518Y-115603837D01*
X183058993Y-115559724D01*
X184192347Y-115559724D01*
X184251581Y-115702695D01*
X184406723Y-115792489D01*
X184576402Y-115850291D01*
X184754097Y-115873880D01*
X184932980Y-115862349D01*
X185106176Y-115816141D01*
X185267030Y-115737032D01*
X185318419Y-115702695D01*
X185377653Y-115559724D01*
X184785000Y-114967071D01*
X184192347Y-115559724D01*
X183058993Y-115559724D01*
X183140050Y-115438414D01*
X183216186Y-115254606D01*
X183255000Y-115059476D01*
X183255000Y-114929097D01*
X183871120Y-114929097D01*
X183882651Y-115107980D01*
X183928859Y-115281176D01*
X184007968Y-115442030D01*
X184042305Y-115493419D01*
X184185276Y-115552653D01*
X184777929Y-114960000D01*
X184792071Y-114960000D01*
X185384724Y-115552653D01*
X185527695Y-115493419D01*
X185617489Y-115338277D01*
X185675291Y-115168598D01*
X185698880Y-114990903D01*
X185690476Y-114860524D01*
X186315000Y-114860524D01*
X186315000Y-115059476D01*
X186353814Y-115254606D01*
X186429950Y-115438414D01*
X186540482Y-115603837D01*
X186681163Y-115744518D01*
X186846586Y-115855050D01*
X187030394Y-115931186D01*
X187225524Y-115970000D01*
X187424476Y-115970000D01*
X187619606Y-115931186D01*
X187803414Y-115855050D01*
X187968837Y-115744518D01*
X188109518Y-115603837D01*
X188220050Y-115438414D01*
X188296186Y-115254606D01*
X188335000Y-115059476D01*
X188335000Y-114860524D01*
X188855000Y-114860524D01*
X188855000Y-115059476D01*
X188893814Y-115254606D01*
X188969950Y-115438414D01*
X189080482Y-115603837D01*
X189221163Y-115744518D01*
X189386586Y-115855050D01*
X189570394Y-115931186D01*
X189765524Y-115970000D01*
X189964476Y-115970000D01*
X190159606Y-115931186D01*
X190343414Y-115855050D01*
X190508837Y-115744518D01*
X190649518Y-115603837D01*
X190760050Y-115438414D01*
X190836186Y-115254606D01*
X190875000Y-115059476D01*
X190875000Y-114860524D01*
X190836186Y-114665394D01*
X190760050Y-114481586D01*
X190649518Y-114316163D01*
X190508837Y-114175482D01*
X190422064Y-114117502D01*
X190408675Y-114050193D01*
X190357039Y-113925531D01*
X190282074Y-113813338D01*
X190186662Y-113717926D01*
X190074469Y-113642961D01*
X189949807Y-113591325D01*
X189817467Y-113565000D01*
X189682533Y-113565000D01*
X189550193Y-113591325D01*
X189425531Y-113642961D01*
X189313338Y-113717926D01*
X189217926Y-113813338D01*
X189142961Y-113925531D01*
X189091325Y-114050193D01*
X189065000Y-114182533D01*
X189065000Y-114317467D01*
X189068352Y-114334317D01*
X188969950Y-114481586D01*
X188893814Y-114665394D01*
X188855000Y-114860524D01*
X188335000Y-114860524D01*
X188296186Y-114665394D01*
X188220050Y-114481586D01*
X188109518Y-114316163D01*
X187968837Y-114175482D01*
X187928196Y-114148326D01*
X187908675Y-114050193D01*
X187857039Y-113925531D01*
X187782074Y-113813338D01*
X187686662Y-113717926D01*
X187574469Y-113642961D01*
X187449807Y-113591325D01*
X187317467Y-113565000D01*
X187182533Y-113565000D01*
X187050193Y-113591325D01*
X186925531Y-113642961D01*
X186813338Y-113717926D01*
X186717926Y-113813338D01*
X186642961Y-113925531D01*
X186591325Y-114050193D01*
X186565000Y-114182533D01*
X186565000Y-114291645D01*
X186540482Y-114316163D01*
X186429950Y-114481586D01*
X186353814Y-114665394D01*
X186315000Y-114860524D01*
X185690476Y-114860524D01*
X185687349Y-114812020D01*
X185641141Y-114638824D01*
X185562032Y-114477970D01*
X185527695Y-114426581D01*
X185384724Y-114367347D01*
X184792071Y-114960000D01*
X184777929Y-114960000D01*
X184185276Y-114367347D01*
X184042305Y-114426581D01*
X183952511Y-114581723D01*
X183894709Y-114751402D01*
X183871120Y-114929097D01*
X183255000Y-114929097D01*
X183255000Y-114860524D01*
X183216186Y-114665394D01*
X183140050Y-114481586D01*
X183058994Y-114360276D01*
X184192347Y-114360276D01*
X184785000Y-114952929D01*
X185377653Y-114360276D01*
X185318419Y-114217305D01*
X185163277Y-114127511D01*
X184993598Y-114069709D01*
X184815903Y-114046120D01*
X184637020Y-114057651D01*
X184463824Y-114103859D01*
X184302970Y-114182968D01*
X184251581Y-114217305D01*
X184192347Y-114360276D01*
X183058994Y-114360276D01*
X183029518Y-114316163D01*
X182935000Y-114221645D01*
X182935000Y-114182533D01*
X182908675Y-114050193D01*
X182857039Y-113925531D01*
X182782074Y-113813338D01*
X182686662Y-113717926D01*
X182574469Y-113642961D01*
X182449807Y-113591325D01*
X182317467Y-113565000D01*
X182182533Y-113565000D01*
X182050193Y-113591325D01*
X181925531Y-113642961D01*
X181813338Y-113717926D01*
X181717926Y-113813338D01*
X181642961Y-113925531D01*
X181591325Y-114050193D01*
X181565000Y-114182533D01*
X181565000Y-114211645D01*
X181460482Y-114316163D01*
X181349950Y-114481586D01*
X181273814Y-114665394D01*
X181235000Y-114860524D01*
X180715000Y-114860524D01*
X180676186Y-114665394D01*
X180600050Y-114481586D01*
X180489518Y-114316163D01*
X180435000Y-114261645D01*
X180435000Y-114182533D01*
X180408675Y-114050193D01*
X180357039Y-113925531D01*
X180282074Y-113813338D01*
X180186662Y-113717926D01*
X180074469Y-113642961D01*
X179949807Y-113591325D01*
X179817467Y-113565000D01*
X179682533Y-113565000D01*
X179550193Y-113591325D01*
X179425531Y-113642961D01*
X179313338Y-113717926D01*
X179217926Y-113813338D01*
X179142961Y-113925531D01*
X179091325Y-114050193D01*
X179067206Y-114171444D01*
X179061163Y-114175482D01*
X178920482Y-114316163D01*
X178809950Y-114481586D01*
X178733814Y-114665394D01*
X178695000Y-114860524D01*
X172960631Y-114860524D01*
X172946632Y-114846525D01*
X172703411Y-114684010D01*
X172433158Y-114572068D01*
X172146260Y-114515000D01*
X171853740Y-114515000D01*
X171566842Y-114572068D01*
X171296589Y-114684010D01*
X171053368Y-114846525D01*
X170846525Y-115053368D01*
X170684010Y-115296589D01*
X170572068Y-115566842D01*
X170515000Y-115853740D01*
X170085000Y-115853740D01*
X170085000Y-114511192D01*
X170143197Y-114293998D01*
X170293998Y-114143197D01*
X170511192Y-114085000D01*
X174500000Y-114085000D01*
X174522000Y-114082104D01*
X174772000Y-114015117D01*
X174787594Y-114009247D01*
X174801745Y-114000448D01*
X174810104Y-113993117D01*
X174993117Y-113810104D01*
X175003688Y-113797223D01*
X175011543Y-113782528D01*
X175015117Y-113772000D01*
X175082104Y-113522000D01*
X175085000Y-113500000D01*
X175085000Y-109511192D01*
X175143197Y-109293998D01*
X175293998Y-109143197D01*
X175511192Y-109085000D01*
X194214964Y-109085000D01*
X192667178Y-110632787D01*
X192667178Y-110632787D01*
G37*
X192667178Y-110632787D02*
X192648289Y-110648289D01*
X192586431Y-110723662D01*
X192540467Y-110809656D01*
X192512162Y-110902964D01*
X192505000Y-110975683D01*
X192505000Y-110975693D01*
X192502606Y-111000000D01*
X192505000Y-111024307D01*
X192505001Y-124304965D01*
X192117213Y-123917178D01*
X192101711Y-123898289D01*
X192026338Y-123836431D01*
X191940345Y-123790467D01*
X191847037Y-123762162D01*
X191774318Y-123755000D01*
X191774307Y-123755000D01*
X191750000Y-123752606D01*
X191725693Y-123755000D01*
X190973736Y-123755000D01*
X190936662Y-123717926D01*
X190824469Y-123642961D01*
X190699807Y-123591325D01*
X190567467Y-123565000D01*
X190432533Y-123565000D01*
X190300193Y-123591325D01*
X190175531Y-123642961D01*
X190063338Y-123717926D01*
X189967926Y-123813338D01*
X189892961Y-123925531D01*
X189841325Y-124050193D01*
X189815000Y-124182533D01*
X189815000Y-124317467D01*
X189841325Y-124449807D01*
X189892961Y-124574469D01*
X189967926Y-124686662D01*
X190063338Y-124782074D01*
X190175531Y-124857039D01*
X190300193Y-124908675D01*
X190432533Y-124935000D01*
X190565000Y-124935000D01*
X190565000Y-125067467D01*
X190591325Y-125199807D01*
X190642961Y-125324469D01*
X190717926Y-125436662D01*
X190755001Y-125473737D01*
X190755000Y-129026264D01*
X190717926Y-129063338D01*
X190642961Y-129175531D01*
X190591325Y-129300193D01*
X190565000Y-129432533D01*
X190565000Y-129567467D01*
X190591325Y-129699807D01*
X190642961Y-129824469D01*
X190717926Y-129936662D01*
X190813338Y-130032074D01*
X190925531Y-130107039D01*
X191050193Y-130158675D01*
X191182533Y-130185000D01*
X191317467Y-130185000D01*
X191449807Y-130158675D01*
X191574469Y-130107039D01*
X191686662Y-130032074D01*
X191782074Y-129936662D01*
X191857039Y-129824469D01*
X191861320Y-129814134D01*
X191925531Y-129857039D01*
X192050193Y-129908675D01*
X192182533Y-129935000D01*
X192317467Y-129935000D01*
X192449807Y-129908675D01*
X192505001Y-129885813D01*
X192505001Y-130526263D01*
X192467926Y-130563338D01*
X192392961Y-130675531D01*
X192341325Y-130800193D01*
X192315000Y-130932533D01*
X192315000Y-131067467D01*
X192341325Y-131199807D01*
X192392961Y-131324469D01*
X192467926Y-131436662D01*
X192563338Y-131532074D01*
X192675531Y-131607039D01*
X192800193Y-131658675D01*
X192932533Y-131685000D01*
X193067467Y-131685000D01*
X193199807Y-131658675D01*
X193324469Y-131607039D01*
X193388680Y-131564134D01*
X193392961Y-131574469D01*
X193467926Y-131686662D01*
X193563338Y-131782074D01*
X193675531Y-131857039D01*
X193800193Y-131908675D01*
X193932533Y-131935000D01*
X194067467Y-131935000D01*
X194199807Y-131908675D01*
X194324469Y-131857039D01*
X194436662Y-131782074D01*
X194493736Y-131725000D01*
X194798621Y-131725000D01*
X194800000Y-132398750D01*
X194871250Y-132470000D01*
X195830000Y-132470000D01*
X195830000Y-131511250D01*
X195840000Y-131511250D01*
X195840000Y-132470000D01*
X196798750Y-132470000D01*
X196870000Y-132398750D01*
X196871379Y-131725000D01*
X196865876Y-131669130D01*
X196849580Y-131615408D01*
X196823115Y-131565896D01*
X196787501Y-131522499D01*
X196744104Y-131486885D01*
X196694592Y-131460420D01*
X196640870Y-131444124D01*
X196585000Y-131438621D01*
X195911250Y-131440000D01*
X195840000Y-131511250D01*
X195830000Y-131511250D01*
X195758750Y-131440000D01*
X195085000Y-131438621D01*
X195029130Y-131444124D01*
X194975408Y-131460420D01*
X194925896Y-131486885D01*
X194882499Y-131522499D01*
X194846885Y-131565896D01*
X194820420Y-131615408D01*
X194804124Y-131669130D01*
X194798621Y-131725000D01*
X194493736Y-131725000D01*
X194532074Y-131686662D01*
X194607039Y-131574469D01*
X194658675Y-131449807D01*
X194685000Y-131317467D01*
X194685000Y-131182533D01*
X194658675Y-131050193D01*
X194607039Y-130925531D01*
X194532074Y-130813338D01*
X194495000Y-130776264D01*
X194495000Y-125725000D01*
X194798621Y-125725000D01*
X194804124Y-125780870D01*
X194820420Y-125834592D01*
X194846885Y-125884104D01*
X194882499Y-125927501D01*
X194925896Y-125963115D01*
X194975408Y-125989580D01*
X195029130Y-126005876D01*
X195085000Y-126011379D01*
X195758750Y-126010000D01*
X195830000Y-125938750D01*
X195830000Y-124980000D01*
X195840000Y-124980000D01*
X195840000Y-125938750D01*
X195911250Y-126010000D01*
X196585000Y-126011379D01*
X196640870Y-126005876D01*
X196694592Y-125989580D01*
X196744104Y-125963115D01*
X196787501Y-125927501D01*
X196823115Y-125884104D01*
X196849580Y-125834592D01*
X196865876Y-125780870D01*
X196871379Y-125725000D01*
X196870000Y-125051250D01*
X196798750Y-124980000D01*
X195840000Y-124980000D01*
X195830000Y-124980000D01*
X194871250Y-124980000D01*
X194800000Y-125051250D01*
X194798621Y-125725000D01*
X194495000Y-125725000D01*
X194495000Y-124225000D01*
X194798621Y-124225000D01*
X194800000Y-124898750D01*
X194871250Y-124970000D01*
X195830000Y-124970000D01*
X195830000Y-124011250D01*
X195840000Y-124011250D01*
X195840000Y-124970000D01*
X196798750Y-124970000D01*
X196870000Y-124898750D01*
X196871379Y-124225000D01*
X196865876Y-124169130D01*
X196849580Y-124115408D01*
X196823115Y-124065896D01*
X196787501Y-124022499D01*
X196744104Y-123986885D01*
X196694592Y-123960420D01*
X196640870Y-123944124D01*
X196585000Y-123938621D01*
X195911250Y-123940000D01*
X195840000Y-124011250D01*
X195830000Y-124011250D01*
X195758750Y-123940000D01*
X195085000Y-123938621D01*
X195029130Y-123944124D01*
X194975408Y-123960420D01*
X194925896Y-123986885D01*
X194882499Y-124022499D01*
X194846885Y-124065896D01*
X194820420Y-124115408D01*
X194804124Y-124169130D01*
X194798621Y-124225000D01*
X194495000Y-124225000D01*
X194495000Y-111205035D01*
X194508349Y-111191686D01*
X194502606Y-111250000D01*
X194505001Y-111274317D01*
X194505000Y-112475692D01*
X194502606Y-112500000D01*
X194505000Y-112524307D01*
X194505000Y-112524317D01*
X194512162Y-112597036D01*
X194540467Y-112690344D01*
X194586431Y-112776338D01*
X194648289Y-112851711D01*
X194667178Y-112867213D01*
X196384000Y-114584036D01*
X196384000Y-115500000D01*
X196385633Y-115516583D01*
X196390470Y-115532528D01*
X196398325Y-115547223D01*
X196408896Y-115560104D01*
X196421777Y-115570675D01*
X196436472Y-115578530D01*
X196451207Y-115583000D01*
X196146306Y-115583000D01*
X196121999Y-115580606D01*
X196097692Y-115583000D01*
X196097682Y-115583000D01*
X196024963Y-115590162D01*
X195931655Y-115618467D01*
X195845662Y-115664431D01*
X195770289Y-115726289D01*
X195754787Y-115745178D01*
X195502174Y-115997791D01*
X195483290Y-116013289D01*
X195467792Y-116032173D01*
X195467787Y-116032178D01*
X195421431Y-116088662D01*
X195375467Y-116174656D01*
X195362861Y-116216213D01*
X195347163Y-116267963D01*
X195347125Y-116268345D01*
X195340252Y-116338138D01*
X195085000Y-116338138D01*
X195009527Y-116345571D01*
X194936954Y-116367586D01*
X194870071Y-116403336D01*
X194811447Y-116451447D01*
X194763336Y-116510071D01*
X194727586Y-116576954D01*
X194705571Y-116649527D01*
X194698138Y-116725000D01*
X194698138Y-118225000D01*
X194705571Y-118300473D01*
X194727586Y-118373046D01*
X194763336Y-118439929D01*
X194811447Y-118498553D01*
X194870071Y-118546664D01*
X194936954Y-118582414D01*
X195009527Y-118604429D01*
X195085000Y-118611862D01*
X196585000Y-118611862D01*
X196660473Y-118604429D01*
X196733046Y-118582414D01*
X196799929Y-118546664D01*
X196858553Y-118498553D01*
X196906664Y-118439929D01*
X196942414Y-118373046D01*
X196964429Y-118300473D01*
X196971862Y-118225000D01*
X198098621Y-118225000D01*
X198104124Y-118280870D01*
X198120420Y-118334592D01*
X198146885Y-118384104D01*
X198182499Y-118427501D01*
X198225896Y-118463115D01*
X198275408Y-118489580D01*
X198329130Y-118505876D01*
X198385000Y-118511379D01*
X199058750Y-118510000D01*
X199130000Y-118438750D01*
X199130000Y-117480000D01*
X199140000Y-117480000D01*
X199140000Y-118438750D01*
X199211250Y-118510000D01*
X199885000Y-118511379D01*
X199940870Y-118505876D01*
X199994592Y-118489580D01*
X200044104Y-118463115D01*
X200087501Y-118427501D01*
X200123115Y-118384104D01*
X200149580Y-118334592D01*
X200165876Y-118280870D01*
X200171379Y-118225000D01*
X200170000Y-117551250D01*
X200098750Y-117480000D01*
X199140000Y-117480000D01*
X199130000Y-117480000D01*
X198171250Y-117480000D01*
X198100000Y-117551250D01*
X198098621Y-118225000D01*
X196971862Y-118225000D01*
X196971862Y-116725000D01*
X196964429Y-116649527D01*
X196942414Y-116576954D01*
X196940301Y-116573000D01*
X198143088Y-116573000D01*
X198120420Y-116615408D01*
X198104124Y-116669130D01*
X198098621Y-116725000D01*
X198100000Y-117398750D01*
X198171250Y-117470000D01*
X199130000Y-117470000D01*
X199130000Y-117450000D01*
X199140000Y-117450000D01*
X199140000Y-117470000D01*
X200098750Y-117470000D01*
X200170000Y-117398750D01*
X200171379Y-116725000D01*
X200165876Y-116669130D01*
X200149580Y-116615408D01*
X200123115Y-116565896D01*
X200087501Y-116522499D01*
X200044104Y-116486885D01*
X199994592Y-116460420D01*
X199940870Y-116444124D01*
X199885000Y-116438621D01*
X199261299Y-116439898D01*
X199273711Y-116429711D01*
X199289213Y-116410822D01*
X199582822Y-116117213D01*
X199601711Y-116101711D01*
X199652074Y-116040345D01*
X199663569Y-116026339D01*
X199709533Y-115940345D01*
X199712311Y-115931186D01*
X199737838Y-115847037D01*
X199745000Y-115774318D01*
X199745000Y-115774308D01*
X199747394Y-115750001D01*
X199745000Y-115725694D01*
X199745000Y-115585000D01*
X200533000Y-115585000D01*
X200549583Y-115583367D01*
X200565528Y-115578530D01*
X200580223Y-115570675D01*
X200593104Y-115560104D01*
X200603675Y-115547223D01*
X200611530Y-115532528D01*
X200616367Y-115516583D01*
X200618000Y-115500000D01*
X200618000Y-113595000D01*
X200616367Y-113578417D01*
X200611530Y-113562472D01*
X200603675Y-113547777D01*
X200593104Y-113534896D01*
X200580223Y-113524325D01*
X200565528Y-113516470D01*
X200549583Y-113511633D01*
X200533000Y-113510000D01*
X196710036Y-113510000D01*
X195495000Y-112294965D01*
X195495000Y-111455035D01*
X196205036Y-110745000D01*
X198030325Y-110745000D01*
X198024527Y-110745571D01*
X197951954Y-110767586D01*
X197885071Y-110803336D01*
X197826447Y-110851447D01*
X197800519Y-110883041D01*
X197699807Y-110841325D01*
X197567467Y-110815000D01*
X197432533Y-110815000D01*
X197300193Y-110841325D01*
X197175531Y-110892961D01*
X197063338Y-110967926D01*
X196967926Y-111063338D01*
X196892961Y-111175531D01*
X196841325Y-111300193D01*
X196815000Y-111432533D01*
X196815000Y-111567467D01*
X196841325Y-111699807D01*
X196892961Y-111824469D01*
X196967926Y-111936662D01*
X197063338Y-112032074D01*
X197175531Y-112107039D01*
X197300193Y-112158675D01*
X197432533Y-112185000D01*
X197567467Y-112185000D01*
X197699807Y-112158675D01*
X197800519Y-112116959D01*
X197826447Y-112148553D01*
X197885071Y-112196664D01*
X197951954Y-112232414D01*
X198024527Y-112254429D01*
X198100000Y-112261862D01*
X198900000Y-112261862D01*
X198975473Y-112254429D01*
X199048046Y-112232414D01*
X199114929Y-112196664D01*
X199173553Y-112148553D01*
X199221664Y-112089929D01*
X199257414Y-112023046D01*
X199279429Y-111950473D01*
X199286862Y-111875000D01*
X199313621Y-111875000D01*
X199319124Y-111930870D01*
X199335420Y-111984592D01*
X199361885Y-112034104D01*
X199397499Y-112077501D01*
X199440896Y-112113115D01*
X199490408Y-112139580D01*
X199544130Y-112155876D01*
X199600000Y-112161379D01*
X199923750Y-112160000D01*
X199995000Y-112088750D01*
X199995000Y-111505000D01*
X200005000Y-111505000D01*
X200005000Y-112088750D01*
X200076250Y-112160000D01*
X200400000Y-112161379D01*
X200455870Y-112155876D01*
X200509592Y-112139580D01*
X200559104Y-112113115D01*
X200602501Y-112077501D01*
X200638115Y-112034104D01*
X200664580Y-111984592D01*
X200680876Y-111930870D01*
X200686379Y-111875000D01*
X200685000Y-111576250D01*
X200613750Y-111505000D01*
X200005000Y-111505000D01*
X199995000Y-111505000D01*
X199386250Y-111505000D01*
X199315000Y-111576250D01*
X199313621Y-111875000D01*
X199286862Y-111875000D01*
X199286862Y-111125000D01*
X199313621Y-111125000D01*
X199315000Y-111423750D01*
X199386250Y-111495000D01*
X199995000Y-111495000D01*
X199995000Y-110911250D01*
X200005000Y-110911250D01*
X200005000Y-111495000D01*
X200613750Y-111495000D01*
X200685000Y-111423750D01*
X200686379Y-111125000D01*
X200680876Y-111069130D01*
X200664580Y-111015408D01*
X200638115Y-110965896D01*
X200602501Y-110922499D01*
X200559104Y-110886885D01*
X200509592Y-110860420D01*
X200455870Y-110844124D01*
X200400000Y-110838621D01*
X200076250Y-110840000D01*
X200005000Y-110911250D01*
X199995000Y-110911250D01*
X199923750Y-110840000D01*
X199600000Y-110838621D01*
X199544130Y-110844124D01*
X199490408Y-110860420D01*
X199440896Y-110886885D01*
X199397499Y-110922499D01*
X199361885Y-110965896D01*
X199335420Y-111015408D01*
X199319124Y-111069130D01*
X199313621Y-111125000D01*
X199286862Y-111125000D01*
X199279429Y-111049527D01*
X199257414Y-110976954D01*
X199221664Y-110910071D01*
X199173553Y-110851447D01*
X199114929Y-110803336D01*
X199048046Y-110767586D01*
X198975473Y-110745571D01*
X198969675Y-110745000D01*
X208794965Y-110745000D01*
X210005000Y-111955036D01*
X210005001Y-117165000D01*
X209689979Y-117165000D01*
X209648046Y-117142586D01*
X209575473Y-117120571D01*
X209500000Y-117113138D01*
X208600000Y-117113138D01*
X208524527Y-117120571D01*
X208451954Y-117142586D01*
X208410021Y-117165000D01*
X208300000Y-117165000D01*
X208283417Y-117166633D01*
X208267472Y-117171470D01*
X208252777Y-117179325D01*
X208239896Y-117189896D01*
X208229325Y-117202777D01*
X208221470Y-117217472D01*
X208216633Y-117233417D01*
X208215000Y-117250000D01*
X208215000Y-117481094D01*
X208213138Y-117500000D01*
X208213138Y-118616000D01*
X208018862Y-118616000D01*
X208018862Y-118351000D01*
X208011429Y-118275527D01*
X207989414Y-118202954D01*
X207953664Y-118136071D01*
X207905553Y-118077447D01*
X207846929Y-118029336D01*
X207780046Y-117993586D01*
X207707473Y-117971571D01*
X207667000Y-117967585D01*
X207667000Y-117032415D01*
X207707473Y-117028429D01*
X207780046Y-117006414D01*
X207846929Y-116970664D01*
X207905553Y-116922553D01*
X207953664Y-116863929D01*
X207989414Y-116797046D01*
X208011429Y-116724473D01*
X208018862Y-116649000D01*
X208018862Y-115172604D01*
X208030429Y-115134473D01*
X208037862Y-115059000D01*
X208037862Y-111559000D01*
X208030429Y-111483527D01*
X208008414Y-111410954D01*
X207972664Y-111344071D01*
X207924553Y-111285447D01*
X207865929Y-111237336D01*
X207799046Y-111201586D01*
X207726473Y-111179571D01*
X207651000Y-111172138D01*
X205651000Y-111172138D01*
X205575527Y-111179571D01*
X205502954Y-111201586D01*
X205436071Y-111237336D01*
X205378139Y-111284879D01*
X205355870Y-111278124D01*
X205300000Y-111272621D01*
X205076250Y-111274000D01*
X205005000Y-111345250D01*
X205005000Y-113304000D01*
X205025000Y-113304000D01*
X205025000Y-113314000D01*
X205005000Y-113314000D01*
X205005000Y-115845000D01*
X205025000Y-115845000D01*
X205025000Y-115855000D01*
X205005000Y-115855000D01*
X205005000Y-115875000D01*
X204995000Y-115875000D01*
X204995000Y-115855000D01*
X204975000Y-115855000D01*
X204975000Y-115845000D01*
X204995000Y-115845000D01*
X204995000Y-113314000D01*
X204975000Y-113314000D01*
X204975000Y-113304000D01*
X204995000Y-113304000D01*
X204995000Y-111345250D01*
X204923750Y-111274000D01*
X204700000Y-111272621D01*
X204644130Y-111278124D01*
X204621861Y-111284879D01*
X204563929Y-111237336D01*
X204497046Y-111201586D01*
X204424473Y-111179571D01*
X204349000Y-111172138D01*
X202349000Y-111172138D01*
X202273527Y-111179571D01*
X202200954Y-111201586D01*
X202134071Y-111237336D01*
X202075447Y-111285447D01*
X202027336Y-111344071D01*
X201991586Y-111410954D01*
X201969571Y-111483527D01*
X201962138Y-111559000D01*
X201962138Y-115059000D01*
X201969571Y-115134473D01*
X201981138Y-115172604D01*
X201981138Y-116649000D01*
X201988571Y-116724473D01*
X202010586Y-116797046D01*
X202046336Y-116863929D01*
X202094447Y-116922553D01*
X202153071Y-116970664D01*
X202219954Y-117006414D01*
X202292527Y-117028429D01*
X202333000Y-117032415D01*
X202333001Y-117967585D01*
X202292527Y-117971571D01*
X202219954Y-117993586D01*
X202153071Y-118029336D01*
X202094447Y-118077447D01*
X202046336Y-118136071D01*
X202010586Y-118202954D01*
X201988571Y-118275527D01*
X201981138Y-118351000D01*
X201981138Y-119951000D01*
X201988571Y-120026473D01*
X202010586Y-120099046D01*
X202046336Y-120165929D01*
X202094447Y-120224553D01*
X202153071Y-120272664D01*
X202219954Y-120308414D01*
X202292527Y-120330429D01*
X202341476Y-120335250D01*
X202342188Y-120342481D01*
X202378498Y-120462179D01*
X202437463Y-120572493D01*
X202516815Y-120669185D01*
X202541050Y-120689074D01*
X202606976Y-120755000D01*
X201524310Y-120755000D01*
X201500000Y-120752606D01*
X201475690Y-120755000D01*
X201475682Y-120755000D01*
X201402963Y-120762162D01*
X201309655Y-120790467D01*
X201223662Y-120836431D01*
X201167177Y-120882787D01*
X201167173Y-120882791D01*
X201148289Y-120898289D01*
X201132791Y-120917173D01*
X200087465Y-121962500D01*
X197000000Y-121962500D01*
X196983417Y-121964133D01*
X196967472Y-121968970D01*
X196952777Y-121976825D01*
X196939896Y-121987396D01*
X196929325Y-122000277D01*
X196921470Y-122014972D01*
X196916633Y-122030917D01*
X196915000Y-122047500D01*
X196915000Y-123952500D01*
X196916633Y-123969083D01*
X196921470Y-123985028D01*
X196929325Y-123999723D01*
X196939896Y-124012604D01*
X196952777Y-124023175D01*
X196967472Y-124031030D01*
X196983417Y-124035867D01*
X197000000Y-124037500D01*
X198048675Y-124037500D01*
X198027586Y-124076954D01*
X198005571Y-124149527D01*
X197998138Y-124225000D01*
X197998138Y-125725000D01*
X198005571Y-125800473D01*
X198027586Y-125873046D01*
X198063336Y-125939929D01*
X198111447Y-125998553D01*
X198170071Y-126046664D01*
X198236954Y-126082414D01*
X198309527Y-126104429D01*
X198385000Y-126111862D01*
X199885000Y-126111862D01*
X199960473Y-126104429D01*
X200033046Y-126082414D01*
X200099929Y-126046664D01*
X200158553Y-125998553D01*
X200206664Y-125939929D01*
X200242414Y-125873046D01*
X200264429Y-125800473D01*
X200269399Y-125750000D01*
X202313621Y-125750000D01*
X202319124Y-125805870D01*
X202335420Y-125859592D01*
X202361885Y-125909104D01*
X202397499Y-125952501D01*
X202440896Y-125988115D01*
X202490408Y-126014580D01*
X202544130Y-126030876D01*
X202600000Y-126036379D01*
X203273750Y-126035000D01*
X203345000Y-125963750D01*
X203345000Y-125005000D01*
X203355000Y-125005000D01*
X203355000Y-125963750D01*
X203426250Y-126035000D01*
X204100000Y-126036379D01*
X204155870Y-126030876D01*
X204209592Y-126014580D01*
X204259104Y-125988115D01*
X204302501Y-125952501D01*
X204338115Y-125909104D01*
X204364580Y-125859592D01*
X204380876Y-125805870D01*
X204386379Y-125750000D01*
X204385000Y-125076250D01*
X204313750Y-125005000D01*
X203355000Y-125005000D01*
X203345000Y-125005000D01*
X202386250Y-125005000D01*
X202315000Y-125076250D01*
X202313621Y-125750000D01*
X200269399Y-125750000D01*
X200271862Y-125725000D01*
X200271862Y-124250000D01*
X202313621Y-124250000D01*
X202315000Y-124923750D01*
X202386250Y-124995000D01*
X203345000Y-124995000D01*
X203345000Y-124036250D01*
X203355000Y-124036250D01*
X203355000Y-124995000D01*
X204313750Y-124995000D01*
X204385000Y-124923750D01*
X204386379Y-124250000D01*
X204380876Y-124194130D01*
X204364580Y-124140408D01*
X204338115Y-124090896D01*
X204302501Y-124047499D01*
X204259104Y-124011885D01*
X204209592Y-123985420D01*
X204155870Y-123969124D01*
X204100000Y-123963621D01*
X203426250Y-123965000D01*
X203355000Y-124036250D01*
X203345000Y-124036250D01*
X203273750Y-123965000D01*
X202600000Y-123963621D01*
X202544130Y-123969124D01*
X202490408Y-123985420D01*
X202440896Y-124011885D01*
X202397499Y-124047499D01*
X202361885Y-124090896D01*
X202335420Y-124140408D01*
X202319124Y-124194130D01*
X202313621Y-124250000D01*
X200271862Y-124250000D01*
X200271862Y-124225000D01*
X200264429Y-124149527D01*
X200242414Y-124076954D01*
X200221325Y-124037500D01*
X201000000Y-124037500D01*
X201016583Y-124035867D01*
X201032528Y-124031030D01*
X201047223Y-124023175D01*
X201060104Y-124012604D01*
X201070675Y-123999723D01*
X201078530Y-123985028D01*
X201083367Y-123969083D01*
X201085000Y-123952500D01*
X201085000Y-122365036D01*
X201705036Y-121745000D01*
X206804964Y-121745000D01*
X206317178Y-122232787D01*
X206298289Y-122248289D01*
X206236431Y-122323662D01*
X206190467Y-122409656D01*
X206162162Y-122502964D01*
X206155000Y-122575683D01*
X206155000Y-122575693D01*
X206152606Y-122600000D01*
X206155000Y-122624307D01*
X206155001Y-123863138D01*
X205900000Y-123863138D01*
X205824527Y-123870571D01*
X205751954Y-123892586D01*
X205685071Y-123928336D01*
X205626447Y-123976447D01*
X205578336Y-124035071D01*
X205542586Y-124101954D01*
X205520571Y-124174527D01*
X205513138Y-124250000D01*
X205513138Y-125750000D01*
X205520571Y-125825473D01*
X205542586Y-125898046D01*
X205578336Y-125964929D01*
X205626447Y-126023553D01*
X205685071Y-126071664D01*
X205751954Y-126107414D01*
X205824527Y-126129429D01*
X205900000Y-126136862D01*
X207400000Y-126136862D01*
X207475473Y-126129429D01*
X207548046Y-126107414D01*
X207614929Y-126071664D01*
X207673553Y-126023553D01*
X207721664Y-125964929D01*
X207757414Y-125898046D01*
X207779429Y-125825473D01*
X207786862Y-125750000D01*
X207786862Y-124250000D01*
X207779429Y-124174527D01*
X207757414Y-124101954D01*
X207721664Y-124035071D01*
X207673553Y-123976447D01*
X207614929Y-123928336D01*
X207548046Y-123892586D01*
X207475473Y-123870571D01*
X207400000Y-123863138D01*
X207145000Y-123863138D01*
X207145000Y-122805035D01*
X207455036Y-122495000D01*
X207915000Y-122495000D01*
X207915000Y-125499401D01*
X207916633Y-125515984D01*
X207921470Y-125531929D01*
X207929325Y-125546624D01*
X207939896Y-125559505D01*
X207952777Y-125570076D01*
X207967472Y-125577931D01*
X207983417Y-125582768D01*
X208000000Y-125584401D01*
X208465563Y-125584401D01*
X208167178Y-125882787D01*
X208148289Y-125898289D01*
X208124894Y-125926796D01*
X208063338Y-125967926D01*
X207967926Y-126063338D01*
X207892961Y-126175531D01*
X207841325Y-126300193D01*
X207815000Y-126432533D01*
X207815000Y-126567467D01*
X207841325Y-126699807D01*
X207892961Y-126824469D01*
X207967926Y-126936662D01*
X208063338Y-127032074D01*
X208175531Y-127107039D01*
X208300193Y-127158675D01*
X208432533Y-127185000D01*
X208567467Y-127185000D01*
X208699807Y-127158675D01*
X208824469Y-127107039D01*
X208936662Y-127032074D01*
X209032074Y-126936662D01*
X209107039Y-126824469D01*
X209158675Y-126699807D01*
X209185000Y-126567467D01*
X209185000Y-126432533D01*
X209158675Y-126300193D01*
X209156088Y-126293948D01*
X209326211Y-126123825D01*
X209341325Y-126199807D01*
X209392961Y-126324469D01*
X209467926Y-126436662D01*
X209563338Y-126532074D01*
X209675531Y-126607039D01*
X209800193Y-126658675D01*
X209932533Y-126685000D01*
X210067467Y-126685000D01*
X210199807Y-126658675D01*
X210324469Y-126607039D01*
X210436662Y-126532074D01*
X210465000Y-126503736D01*
X210465000Y-126505002D01*
X210536248Y-126505002D01*
X210465000Y-126576250D01*
X210463621Y-126950000D01*
X210469124Y-127005870D01*
X210485420Y-127059592D01*
X210511885Y-127109104D01*
X210547499Y-127152501D01*
X210590896Y-127188115D01*
X210640408Y-127214580D01*
X210694130Y-127230876D01*
X210750000Y-127236379D01*
X210923750Y-127235000D01*
X210995000Y-127163750D01*
X210995000Y-126505000D01*
X211005000Y-126505000D01*
X211005000Y-127163750D01*
X211076250Y-127235000D01*
X211250000Y-127236379D01*
X211305870Y-127230876D01*
X211359592Y-127214580D01*
X211409104Y-127188115D01*
X211452501Y-127152501D01*
X211488115Y-127109104D01*
X211514580Y-127059592D01*
X211530876Y-127005870D01*
X211536379Y-126950000D01*
X211535000Y-126576250D01*
X211463750Y-126505000D01*
X211005000Y-126505000D01*
X210995000Y-126505000D01*
X210975000Y-126505000D01*
X210975000Y-126495000D01*
X210995000Y-126495000D01*
X210995000Y-126475000D01*
X211005000Y-126475000D01*
X211005000Y-126495000D01*
X211463750Y-126495000D01*
X211535000Y-126423750D01*
X211536379Y-126050000D01*
X211530876Y-125994130D01*
X211514580Y-125940408D01*
X211488952Y-125892461D01*
X211574469Y-125857039D01*
X211686662Y-125782074D01*
X211782074Y-125686662D01*
X211857039Y-125574469D01*
X211908675Y-125449807D01*
X211935000Y-125317467D01*
X211935000Y-125265035D01*
X212332827Y-124867209D01*
X212351711Y-124851711D01*
X212367209Y-124832827D01*
X212367213Y-124832823D01*
X212406742Y-124784656D01*
X212413569Y-124776338D01*
X212459533Y-124690345D01*
X212487838Y-124597037D01*
X212495000Y-124524318D01*
X212495000Y-124524308D01*
X212497394Y-124500001D01*
X212495000Y-124475694D01*
X212495000Y-124251603D01*
X212915000Y-124671603D01*
X212915000Y-125701648D01*
X212898046Y-125692586D01*
X212825473Y-125670571D01*
X212750000Y-125663138D01*
X212250000Y-125663138D01*
X212174527Y-125670571D01*
X212101954Y-125692586D01*
X212035071Y-125728336D01*
X211976447Y-125776447D01*
X211928336Y-125835071D01*
X211892586Y-125901954D01*
X211870571Y-125974527D01*
X211863138Y-126050000D01*
X211863138Y-126950000D01*
X211870571Y-127025473D01*
X211892586Y-127098046D01*
X211928336Y-127164929D01*
X211965001Y-127209606D01*
X211965000Y-128045701D01*
X211960071Y-128048336D01*
X211912567Y-128087321D01*
X211875000Y-128083621D01*
X211626250Y-128085000D01*
X211555000Y-128156250D01*
X211555000Y-128895000D01*
X211575000Y-128895000D01*
X211575000Y-128905000D01*
X211555000Y-128905000D01*
X211555000Y-129643750D01*
X211626250Y-129715000D01*
X211875000Y-129716379D01*
X211912567Y-129712679D01*
X211960071Y-129751664D01*
X212026954Y-129787414D01*
X212099527Y-129809429D01*
X212175000Y-129816862D01*
X212825000Y-129816862D01*
X212900473Y-129809429D01*
X212915000Y-129805022D01*
X212915000Y-130194978D01*
X212900473Y-130190571D01*
X212825000Y-130183138D01*
X212175000Y-130183138D01*
X212099527Y-130190571D01*
X212026954Y-130212586D01*
X212025000Y-130213630D01*
X212023046Y-130212586D01*
X211950473Y-130190571D01*
X211875000Y-130183138D01*
X211225000Y-130183138D01*
X211149527Y-130190571D01*
X211076954Y-130212586D01*
X211010071Y-130248336D01*
X210951447Y-130296447D01*
X210903336Y-130355071D01*
X210867586Y-130421954D01*
X210845571Y-130494527D01*
X210838138Y-130570000D01*
X210838138Y-131630000D01*
X210845571Y-131705473D01*
X210867586Y-131778046D01*
X210903336Y-131844929D01*
X210951447Y-131903553D01*
X211010071Y-131951664D01*
X211015001Y-131954299D01*
X211015001Y-131978395D01*
X210450549Y-132542848D01*
X210413569Y-132473662D01*
X210394150Y-132450000D01*
X210367213Y-132417177D01*
X210367209Y-132417173D01*
X210351711Y-132398289D01*
X210332827Y-132382791D01*
X209867213Y-131917178D01*
X209851711Y-131898289D01*
X209776338Y-131836431D01*
X209690345Y-131790467D01*
X209597037Y-131762162D01*
X209524318Y-131755000D01*
X209524307Y-131755000D01*
X209500000Y-131752606D01*
X209475693Y-131755000D01*
X208973736Y-131755000D01*
X208936662Y-131717926D01*
X208824469Y-131642961D01*
X208699807Y-131591325D01*
X208623825Y-131576211D01*
X208832827Y-131367209D01*
X208851711Y-131351711D01*
X208867209Y-131332827D01*
X208867213Y-131332823D01*
X208913568Y-131276339D01*
X208913569Y-131276338D01*
X208959533Y-131190345D01*
X208987838Y-131097037D01*
X208989024Y-131085000D01*
X209774490Y-131085000D01*
X209791073Y-131083367D01*
X209807018Y-131078530D01*
X209821713Y-131070675D01*
X209834594Y-131060104D01*
X209845165Y-131047223D01*
X209853020Y-131032528D01*
X209857857Y-131016583D01*
X209859490Y-131000000D01*
X209859490Y-129430000D01*
X210938621Y-129430000D01*
X210944124Y-129485870D01*
X210960420Y-129539592D01*
X210986885Y-129589104D01*
X211022499Y-129632501D01*
X211065896Y-129668115D01*
X211115408Y-129694580D01*
X211169130Y-129710876D01*
X211225000Y-129716379D01*
X211473750Y-129715000D01*
X211545000Y-129643750D01*
X211545000Y-128905000D01*
X211011250Y-128905000D01*
X210940000Y-128976250D01*
X210938621Y-129430000D01*
X209859490Y-129430000D01*
X209859490Y-129095000D01*
X209857857Y-129078417D01*
X209853020Y-129062472D01*
X209845165Y-129047777D01*
X209834594Y-129034896D01*
X209821713Y-129024325D01*
X209807018Y-129016470D01*
X209791073Y-129011633D01*
X209774490Y-129010000D01*
X206460036Y-129010000D01*
X205935000Y-128484965D01*
X205935000Y-128432533D01*
X205922561Y-128370000D01*
X210938621Y-128370000D01*
X210940000Y-128823750D01*
X211011250Y-128895000D01*
X211545000Y-128895000D01*
X211545000Y-128156250D01*
X211473750Y-128085000D01*
X211225000Y-128083621D01*
X211169130Y-128089124D01*
X211115408Y-128105420D01*
X211065896Y-128131885D01*
X211022499Y-128167499D01*
X210986885Y-128210896D01*
X210960420Y-128260408D01*
X210944124Y-128314130D01*
X210938621Y-128370000D01*
X205922561Y-128370000D01*
X205908675Y-128300193D01*
X205857039Y-128175531D01*
X205782074Y-128063338D01*
X205718736Y-128000000D01*
X205782074Y-127936662D01*
X205857039Y-127824469D01*
X205908675Y-127699807D01*
X205935000Y-127567467D01*
X205935000Y-127432533D01*
X205908675Y-127300193D01*
X205857039Y-127175531D01*
X205782074Y-127063338D01*
X205686662Y-126967926D01*
X205574469Y-126892961D01*
X205449807Y-126841325D01*
X205317467Y-126815000D01*
X205182533Y-126815000D01*
X205050193Y-126841325D01*
X204925531Y-126892961D01*
X204813338Y-126967926D01*
X204717926Y-127063338D01*
X204642961Y-127175531D01*
X204591325Y-127300193D01*
X204565000Y-127432533D01*
X204565000Y-127484964D01*
X202544965Y-129505000D01*
X201149000Y-129505000D01*
X201149000Y-128850802D01*
X201147367Y-128834219D01*
X201142530Y-128818274D01*
X201134675Y-128803579D01*
X201124104Y-128790698D01*
X201111223Y-128780127D01*
X201096528Y-128772272D01*
X201080583Y-128767435D01*
X201064000Y-128765802D01*
X197000000Y-128765802D01*
X196983417Y-128767435D01*
X196967472Y-128772272D01*
X196952777Y-128780127D01*
X196939896Y-128790698D01*
X196929325Y-128803579D01*
X196921470Y-128818274D01*
X196916633Y-128834219D01*
X196915000Y-128850802D01*
X196915000Y-130755802D01*
X196916633Y-130772385D01*
X196921470Y-130788330D01*
X196929325Y-130803025D01*
X196939896Y-130815906D01*
X196952777Y-130826477D01*
X196967472Y-130834332D01*
X196983417Y-130839169D01*
X197000000Y-130840802D01*
X197775439Y-130840802D01*
X197790467Y-130890344D01*
X197836431Y-130976338D01*
X197882787Y-131032822D01*
X197882792Y-131032827D01*
X197898290Y-131051711D01*
X197917173Y-131067209D01*
X198224309Y-131374345D01*
X198170071Y-131403336D01*
X198111447Y-131451447D01*
X198063336Y-131510071D01*
X198027586Y-131576954D01*
X198005571Y-131649527D01*
X197998138Y-131725000D01*
X197998138Y-133225000D01*
X198005571Y-133300473D01*
X198027586Y-133373046D01*
X198063336Y-133439929D01*
X198111447Y-133498553D01*
X198170071Y-133546664D01*
X198236954Y-133582414D01*
X198309527Y-133604429D01*
X198385000Y-133611862D01*
X199885000Y-133611862D01*
X199960473Y-133604429D01*
X200033046Y-133582414D01*
X200099929Y-133546664D01*
X200158553Y-133498553D01*
X200206664Y-133439929D01*
X200242414Y-133373046D01*
X200264429Y-133300473D01*
X200269399Y-133250000D01*
X202313621Y-133250000D01*
X202319124Y-133305870D01*
X202335420Y-133359592D01*
X202361885Y-133409104D01*
X202397499Y-133452501D01*
X202440896Y-133488115D01*
X202490408Y-133514580D01*
X202544130Y-133530876D01*
X202600000Y-133536379D01*
X203273750Y-133535000D01*
X203345000Y-133463750D01*
X203345000Y-132505000D01*
X203355000Y-132505000D01*
X203355000Y-133463750D01*
X203426250Y-133535000D01*
X204100000Y-133536379D01*
X204155870Y-133530876D01*
X204209592Y-133514580D01*
X204259104Y-133488115D01*
X204302501Y-133452501D01*
X204338115Y-133409104D01*
X204364580Y-133359592D01*
X204380876Y-133305870D01*
X204386379Y-133250000D01*
X204385000Y-132576250D01*
X204313750Y-132505000D01*
X203355000Y-132505000D01*
X203345000Y-132505000D01*
X202386250Y-132505000D01*
X202315000Y-132576250D01*
X202313621Y-133250000D01*
X200269399Y-133250000D01*
X200271862Y-133225000D01*
X200271862Y-131750000D01*
X202313621Y-131750000D01*
X202315000Y-132423750D01*
X202386250Y-132495000D01*
X203345000Y-132495000D01*
X203345000Y-131536250D01*
X203355000Y-131536250D01*
X203355000Y-132495000D01*
X204313750Y-132495000D01*
X204385000Y-132423750D01*
X204386379Y-131750000D01*
X204380876Y-131694130D01*
X204364580Y-131640408D01*
X204338115Y-131590896D01*
X204302501Y-131547499D01*
X204259104Y-131511885D01*
X204209592Y-131485420D01*
X204155870Y-131469124D01*
X204100000Y-131463621D01*
X203426250Y-131465000D01*
X203355000Y-131536250D01*
X203345000Y-131536250D01*
X203273750Y-131465000D01*
X202600000Y-131463621D01*
X202544130Y-131469124D01*
X202490408Y-131485420D01*
X202440896Y-131511885D01*
X202397499Y-131547499D01*
X202361885Y-131590896D01*
X202335420Y-131640408D01*
X202319124Y-131694130D01*
X202313621Y-131750000D01*
X200271862Y-131750000D01*
X200271862Y-131725000D01*
X200264429Y-131649527D01*
X200242414Y-131576954D01*
X200206664Y-131510071D01*
X200158553Y-131451447D01*
X200099929Y-131403336D01*
X200033046Y-131367586D01*
X199960473Y-131345571D01*
X199885000Y-131338138D01*
X199564325Y-131338138D01*
X199548569Y-131308661D01*
X199502213Y-131252177D01*
X199502209Y-131252173D01*
X199486711Y-131233289D01*
X199467827Y-131217791D01*
X199090838Y-130840802D01*
X201064000Y-130840802D01*
X201080583Y-130839169D01*
X201096528Y-130834332D01*
X201111223Y-130826477D01*
X201124104Y-130815906D01*
X201134675Y-130803025D01*
X201142530Y-130788330D01*
X201147367Y-130772385D01*
X201149000Y-130755802D01*
X201149000Y-130495000D01*
X202725693Y-130495000D01*
X202750000Y-130497394D01*
X202774307Y-130495000D01*
X202774318Y-130495000D01*
X202847037Y-130487838D01*
X202940345Y-130459533D01*
X203026338Y-130413569D01*
X203101711Y-130351711D01*
X203117213Y-130332822D01*
X204637866Y-128812169D01*
X204642961Y-128824469D01*
X204717926Y-128936662D01*
X204813338Y-129032074D01*
X204925531Y-129107039D01*
X205050193Y-129158675D01*
X205182533Y-129185000D01*
X205234965Y-129185000D01*
X205625490Y-129575525D01*
X205625490Y-131000000D01*
X205627123Y-131016583D01*
X205631960Y-131032528D01*
X205639815Y-131047223D01*
X205650386Y-131060104D01*
X205663267Y-131070675D01*
X205677962Y-131078530D01*
X205693907Y-131083367D01*
X205710490Y-131085000D01*
X207714964Y-131085000D01*
X207433525Y-131366440D01*
X207400000Y-131363138D01*
X205900000Y-131363138D01*
X205824527Y-131370571D01*
X205751954Y-131392586D01*
X205685071Y-131428336D01*
X205626447Y-131476447D01*
X205578336Y-131535071D01*
X205542586Y-131601954D01*
X205520571Y-131674527D01*
X205513138Y-131750000D01*
X205513138Y-133250000D01*
X205520571Y-133325473D01*
X205542586Y-133398046D01*
X205578336Y-133464929D01*
X205626447Y-133523553D01*
X205685071Y-133571664D01*
X205751954Y-133607414D01*
X205824527Y-133629429D01*
X205900000Y-133636862D01*
X207400000Y-133636862D01*
X207475473Y-133629429D01*
X207548046Y-133607414D01*
X207614929Y-133571664D01*
X207673553Y-133523553D01*
X207721664Y-133464929D01*
X207757414Y-133398046D01*
X207779429Y-133325473D01*
X207786862Y-133250000D01*
X207786862Y-132413173D01*
X207826211Y-132373825D01*
X207841325Y-132449807D01*
X207892961Y-132574469D01*
X207967926Y-132686662D01*
X208063338Y-132782074D01*
X208175531Y-132857039D01*
X208300193Y-132908675D01*
X208319002Y-132912416D01*
X208315000Y-132932533D01*
X208315000Y-133067467D01*
X208319002Y-133087584D01*
X208300193Y-133091325D01*
X208175531Y-133142961D01*
X208063338Y-133217926D01*
X207967926Y-133313338D01*
X207892961Y-133425531D01*
X207841325Y-133550193D01*
X207815000Y-133682533D01*
X207815000Y-133817467D01*
X207841325Y-133949807D01*
X207892961Y-134074469D01*
X207967926Y-134186662D01*
X208063338Y-134282074D01*
X208175531Y-134357039D01*
X208300193Y-134408675D01*
X208432533Y-134435000D01*
X208484964Y-134435000D01*
X208505000Y-134455036D01*
X208505001Y-134794963D01*
X207794965Y-135505000D01*
X183774310Y-135505000D01*
X183750000Y-135502606D01*
X183725690Y-135505000D01*
X183725682Y-135505000D01*
X183652963Y-135512162D01*
X183559655Y-135540467D01*
X183473662Y-135586431D01*
X183417177Y-135632787D01*
X183417173Y-135632791D01*
X183398289Y-135648289D01*
X183382791Y-135667173D01*
X182417178Y-136632787D01*
X182398289Y-136648289D01*
X182336431Y-136723662D01*
X182290467Y-136809656D01*
X182262162Y-136902964D01*
X182255000Y-136975683D01*
X182255000Y-136975693D01*
X182252606Y-137000000D01*
X182255000Y-137024307D01*
X182255001Y-141475683D01*
X182252606Y-141500000D01*
X182262163Y-141597036D01*
X182290467Y-141690344D01*
X182336431Y-141776338D01*
X182382787Y-141832822D01*
X182382792Y-141832827D01*
X182398290Y-141851711D01*
X182417173Y-141867208D01*
X182613138Y-142063173D01*
X182613138Y-142450000D01*
X182620571Y-142525473D01*
X182642586Y-142598046D01*
X182678336Y-142664929D01*
X182726447Y-142723553D01*
X182785071Y-142771664D01*
X182851954Y-142807414D01*
X182924527Y-142829429D01*
X183000000Y-142836862D01*
X183500000Y-142836862D01*
X183575473Y-142829429D01*
X183648046Y-142807414D01*
X183714929Y-142771664D01*
X183773553Y-142723553D01*
X183821664Y-142664929D01*
X183857414Y-142598046D01*
X183879429Y-142525473D01*
X183886862Y-142450000D01*
X183886862Y-141550000D01*
X183879429Y-141474527D01*
X183857414Y-141401954D01*
X183821664Y-141335071D01*
X183773553Y-141276447D01*
X183714929Y-141228336D01*
X183648046Y-141192586D01*
X183575473Y-141170571D01*
X183500000Y-141163138D01*
X183245000Y-141163138D01*
X183245000Y-140085234D01*
X183276447Y-140123553D01*
X183335071Y-140171664D01*
X183401954Y-140207414D01*
X183474527Y-140229429D01*
X183550000Y-140236862D01*
X184255001Y-140236862D01*
X184255000Y-141253014D01*
X184226447Y-141276447D01*
X184178336Y-141335071D01*
X184142586Y-141401954D01*
X184120571Y-141474527D01*
X184113138Y-141550000D01*
X184113138Y-142450000D01*
X184120571Y-142525473D01*
X184142586Y-142598046D01*
X184178336Y-142664929D01*
X184226447Y-142723553D01*
X184285071Y-142771664D01*
X184351954Y-142807414D01*
X184424527Y-142829429D01*
X184500000Y-142836862D01*
X185000000Y-142836862D01*
X185075473Y-142829429D01*
X185148046Y-142807414D01*
X185214929Y-142771664D01*
X185273553Y-142723553D01*
X185321664Y-142664929D01*
X185357414Y-142598046D01*
X185379429Y-142525473D01*
X185386862Y-142450000D01*
X185386862Y-141550000D01*
X185379429Y-141474527D01*
X185357414Y-141401954D01*
X185321664Y-141335071D01*
X185273553Y-141276447D01*
X185245000Y-141253014D01*
X185245000Y-140182316D01*
X185264929Y-140171664D01*
X185323553Y-140123553D01*
X185371664Y-140064929D01*
X185407414Y-139998046D01*
X185429429Y-139925473D01*
X185436862Y-139850000D01*
X186563621Y-139850000D01*
X186569124Y-139905870D01*
X186585420Y-139959592D01*
X186611885Y-140009104D01*
X186647499Y-140052501D01*
X186690896Y-140088115D01*
X186740408Y-140114580D01*
X186794130Y-140130876D01*
X186850000Y-140136379D01*
X187523750Y-140135000D01*
X187595000Y-140063750D01*
X187595000Y-139105000D01*
X187605000Y-139105000D01*
X187605000Y-140063750D01*
X187676250Y-140135000D01*
X188350000Y-140136379D01*
X188405870Y-140130876D01*
X188459592Y-140114580D01*
X188509104Y-140088115D01*
X188552501Y-140052501D01*
X188588115Y-140009104D01*
X188614580Y-139959592D01*
X188630876Y-139905870D01*
X188636379Y-139850000D01*
X188635000Y-139176250D01*
X188563750Y-139105000D01*
X187605000Y-139105000D01*
X187595000Y-139105000D01*
X186636250Y-139105000D01*
X186565000Y-139176250D01*
X186563621Y-139850000D01*
X185436862Y-139850000D01*
X185436862Y-138350000D01*
X186563621Y-138350000D01*
X186565000Y-139023750D01*
X186636250Y-139095000D01*
X187595000Y-139095000D01*
X187595000Y-138136250D01*
X187605000Y-138136250D01*
X187605000Y-139095000D01*
X188563750Y-139095000D01*
X188635000Y-139023750D01*
X188636379Y-138350000D01*
X188630876Y-138294130D01*
X188614580Y-138240408D01*
X188588115Y-138190896D01*
X188552501Y-138147499D01*
X188509104Y-138111885D01*
X188459592Y-138085420D01*
X188405870Y-138069124D01*
X188350000Y-138063621D01*
X187676250Y-138065000D01*
X187605000Y-138136250D01*
X187595000Y-138136250D01*
X187523750Y-138065000D01*
X186850000Y-138063621D01*
X186794130Y-138069124D01*
X186740408Y-138085420D01*
X186690896Y-138111885D01*
X186647499Y-138147499D01*
X186611885Y-138190896D01*
X186585420Y-138240408D01*
X186569124Y-138294130D01*
X186563621Y-138350000D01*
X185436862Y-138350000D01*
X185429429Y-138274527D01*
X185407414Y-138201954D01*
X185371664Y-138135071D01*
X185323553Y-138076447D01*
X185264929Y-138028336D01*
X185198046Y-137992586D01*
X185125473Y-137970571D01*
X185050000Y-137963138D01*
X183550000Y-137963138D01*
X183474527Y-137970571D01*
X183401954Y-137992586D01*
X183335071Y-138028336D01*
X183276447Y-138076447D01*
X183245000Y-138114766D01*
X183245000Y-137205035D01*
X183955036Y-136495000D01*
X190804964Y-136495000D01*
X190417178Y-136882787D01*
X190398289Y-136898289D01*
X190336431Y-136973662D01*
X190290467Y-137059656D01*
X190262162Y-137152964D01*
X190255000Y-137225683D01*
X190255000Y-137225693D01*
X190252606Y-137250000D01*
X190255000Y-137274307D01*
X190255001Y-141475683D01*
X190252606Y-141500000D01*
X190262163Y-141597036D01*
X190290467Y-141690344D01*
X190336431Y-141776338D01*
X190382787Y-141832822D01*
X190382792Y-141832827D01*
X190398290Y-141851711D01*
X190417173Y-141867208D01*
X190613138Y-142063173D01*
X190613138Y-142450000D01*
X190620571Y-142525473D01*
X190642586Y-142598046D01*
X190678336Y-142664929D01*
X190726447Y-142723553D01*
X190785071Y-142771664D01*
X190851954Y-142807414D01*
X190924527Y-142829429D01*
X191000000Y-142836862D01*
X191500000Y-142836862D01*
X191575473Y-142829429D01*
X191648046Y-142807414D01*
X191714929Y-142771664D01*
X191773553Y-142723553D01*
X191821664Y-142664929D01*
X191857414Y-142598046D01*
X191879429Y-142525473D01*
X191886862Y-142450000D01*
X191886862Y-141550000D01*
X191879429Y-141474527D01*
X191857414Y-141401954D01*
X191821664Y-141335071D01*
X191773553Y-141276447D01*
X191714929Y-141228336D01*
X191648046Y-141192586D01*
X191575473Y-141170571D01*
X191500000Y-141163138D01*
X191245000Y-141163138D01*
X191245000Y-140049334D01*
X191253336Y-140064929D01*
X191301447Y-140123553D01*
X191360071Y-140171664D01*
X191426954Y-140207414D01*
X191499527Y-140229429D01*
X191575000Y-140236862D01*
X192255001Y-140236862D01*
X192255000Y-141253014D01*
X192226447Y-141276447D01*
X192178336Y-141335071D01*
X192142586Y-141401954D01*
X192120571Y-141474527D01*
X192113138Y-141550000D01*
X192113138Y-142450000D01*
X192120571Y-142525473D01*
X192142586Y-142598046D01*
X192178336Y-142664929D01*
X192226447Y-142723553D01*
X192285071Y-142771664D01*
X192351954Y-142807414D01*
X192424527Y-142829429D01*
X192500000Y-142836862D01*
X193000000Y-142836862D01*
X193075473Y-142829429D01*
X193148046Y-142807414D01*
X193214929Y-142771664D01*
X193273553Y-142723553D01*
X193321664Y-142664929D01*
X193357414Y-142598046D01*
X193379429Y-142525473D01*
X193386862Y-142450000D01*
X193386862Y-141550000D01*
X193379429Y-141474527D01*
X193357414Y-141401954D01*
X193321664Y-141335071D01*
X193273553Y-141276447D01*
X193245000Y-141253014D01*
X193245000Y-140195679D01*
X193289929Y-140171664D01*
X193348553Y-140123553D01*
X193396664Y-140064929D01*
X193432414Y-139998046D01*
X193454429Y-139925473D01*
X193461862Y-139850000D01*
X194588621Y-139850000D01*
X194594124Y-139905870D01*
X194610420Y-139959592D01*
X194636885Y-140009104D01*
X194672499Y-140052501D01*
X194715896Y-140088115D01*
X194765408Y-140114580D01*
X194819130Y-140130876D01*
X194875000Y-140136379D01*
X195548750Y-140135000D01*
X195620000Y-140063750D01*
X195620000Y-139105000D01*
X195630000Y-139105000D01*
X195630000Y-140063750D01*
X195701250Y-140135000D01*
X196375000Y-140136379D01*
X196430870Y-140130876D01*
X196484592Y-140114580D01*
X196534104Y-140088115D01*
X196577501Y-140052501D01*
X196613115Y-140009104D01*
X196639580Y-139959592D01*
X196655876Y-139905870D01*
X196661379Y-139850000D01*
X196660000Y-139176250D01*
X196588750Y-139105000D01*
X195630000Y-139105000D01*
X195620000Y-139105000D01*
X194661250Y-139105000D01*
X194590000Y-139176250D01*
X194588621Y-139850000D01*
X193461862Y-139850000D01*
X193461862Y-138350000D01*
X194588621Y-138350000D01*
X194590000Y-139023750D01*
X194661250Y-139095000D01*
X195620000Y-139095000D01*
X195620000Y-138136250D01*
X195630000Y-138136250D01*
X195630000Y-139095000D01*
X196588750Y-139095000D01*
X196660000Y-139023750D01*
X196661379Y-138350000D01*
X196655876Y-138294130D01*
X196639580Y-138240408D01*
X196613115Y-138190896D01*
X196577501Y-138147499D01*
X196534104Y-138111885D01*
X196484592Y-138085420D01*
X196430870Y-138069124D01*
X196375000Y-138063621D01*
X195701250Y-138065000D01*
X195630000Y-138136250D01*
X195620000Y-138136250D01*
X195548750Y-138065000D01*
X194875000Y-138063621D01*
X194819130Y-138069124D01*
X194765408Y-138085420D01*
X194715896Y-138111885D01*
X194672499Y-138147499D01*
X194636885Y-138190896D01*
X194610420Y-138240408D01*
X194594124Y-138294130D01*
X194588621Y-138350000D01*
X193461862Y-138350000D01*
X193454429Y-138274527D01*
X193432414Y-138201954D01*
X193396664Y-138135071D01*
X193348553Y-138076447D01*
X193289929Y-138028336D01*
X193223046Y-137992586D01*
X193150473Y-137970571D01*
X193075000Y-137963138D01*
X191575000Y-137963138D01*
X191499527Y-137970571D01*
X191426954Y-137992586D01*
X191360071Y-138028336D01*
X191301447Y-138076447D01*
X191253336Y-138135071D01*
X191245000Y-138150666D01*
X191245000Y-137455035D01*
X191705036Y-136995000D01*
X198554965Y-136995000D01*
X198417178Y-137132787D01*
X198398289Y-137148289D01*
X198336431Y-137223662D01*
X198290467Y-137309656D01*
X198262162Y-137402964D01*
X198255000Y-137475683D01*
X198255000Y-137475693D01*
X198252606Y-137500000D01*
X198255000Y-137524307D01*
X198255001Y-141475683D01*
X198252606Y-141500000D01*
X198262163Y-141597036D01*
X198290467Y-141690344D01*
X198336431Y-141776338D01*
X198382787Y-141832822D01*
X198382792Y-141832827D01*
X198398290Y-141851711D01*
X198417173Y-141867208D01*
X198613138Y-142063173D01*
X198613138Y-142450000D01*
X198620571Y-142525473D01*
X198642586Y-142598046D01*
X198678336Y-142664929D01*
X198726447Y-142723553D01*
X198785071Y-142771664D01*
X198851954Y-142807414D01*
X198924527Y-142829429D01*
X199000000Y-142836862D01*
X199500000Y-142836862D01*
X199575473Y-142829429D01*
X199648046Y-142807414D01*
X199714929Y-142771664D01*
X199773553Y-142723553D01*
X199821664Y-142664929D01*
X199857414Y-142598046D01*
X199879429Y-142525473D01*
X199886862Y-142450000D01*
X199886862Y-141550000D01*
X199879429Y-141474527D01*
X199857414Y-141401954D01*
X199821664Y-141335071D01*
X199773553Y-141276447D01*
X199714929Y-141228336D01*
X199648046Y-141192586D01*
X199575473Y-141170571D01*
X199500000Y-141163138D01*
X199245000Y-141163138D01*
X199245000Y-140102562D01*
X199278336Y-140164929D01*
X199326447Y-140223553D01*
X199385071Y-140271664D01*
X199451954Y-140307414D01*
X199524527Y-140329429D01*
X199600000Y-140336862D01*
X200255001Y-140336862D01*
X200255000Y-141253014D01*
X200226447Y-141276447D01*
X200178336Y-141335071D01*
X200142586Y-141401954D01*
X200120571Y-141474527D01*
X200113138Y-141550000D01*
X200113138Y-142450000D01*
X200120571Y-142525473D01*
X200142586Y-142598046D01*
X200178336Y-142664929D01*
X200226447Y-142723553D01*
X200285071Y-142771664D01*
X200351954Y-142807414D01*
X200424527Y-142829429D01*
X200500000Y-142836862D01*
X201000000Y-142836862D01*
X201075473Y-142829429D01*
X201148046Y-142807414D01*
X201214929Y-142771664D01*
X201273553Y-142723553D01*
X201321664Y-142664929D01*
X201357414Y-142598046D01*
X201379429Y-142525473D01*
X201386862Y-142450000D01*
X201386862Y-141550000D01*
X201379429Y-141474527D01*
X201357414Y-141401954D01*
X201321664Y-141335071D01*
X201273553Y-141276447D01*
X201245000Y-141253014D01*
X201245000Y-140308338D01*
X201248046Y-140307414D01*
X201314929Y-140271664D01*
X201373553Y-140223553D01*
X201421664Y-140164929D01*
X201457414Y-140098046D01*
X201479429Y-140025473D01*
X201486862Y-139950000D01*
X202613621Y-139950000D01*
X202619124Y-140005870D01*
X202635420Y-140059592D01*
X202661885Y-140109104D01*
X202697499Y-140152501D01*
X202740896Y-140188115D01*
X202790408Y-140214580D01*
X202844130Y-140230876D01*
X202900000Y-140236379D01*
X203573750Y-140235000D01*
X203645000Y-140163750D01*
X203645000Y-139205000D01*
X203655000Y-139205000D01*
X203655000Y-140163750D01*
X203726250Y-140235000D01*
X204400000Y-140236379D01*
X204455870Y-140230876D01*
X204509592Y-140214580D01*
X204559104Y-140188115D01*
X204602501Y-140152501D01*
X204638115Y-140109104D01*
X204664580Y-140059592D01*
X204680876Y-140005870D01*
X204686379Y-139950000D01*
X204685612Y-139575000D01*
X208463621Y-139575000D01*
X208469124Y-139630870D01*
X208485420Y-139684592D01*
X208511885Y-139734104D01*
X208547499Y-139777501D01*
X208590896Y-139813115D01*
X208640408Y-139839580D01*
X208694130Y-139855876D01*
X208750000Y-139861379D01*
X209073750Y-139860000D01*
X209145000Y-139788750D01*
X209145000Y-139205000D01*
X209155000Y-139205000D01*
X209155000Y-139788750D01*
X209226250Y-139860000D01*
X209550000Y-139861379D01*
X209605870Y-139855876D01*
X209659592Y-139839580D01*
X209709104Y-139813115D01*
X209752501Y-139777501D01*
X209788115Y-139734104D01*
X209814580Y-139684592D01*
X209830876Y-139630870D01*
X209836379Y-139575000D01*
X209835000Y-139276250D01*
X209763750Y-139205000D01*
X209155000Y-139205000D01*
X209145000Y-139205000D01*
X208536250Y-139205000D01*
X208465000Y-139276250D01*
X208463621Y-139575000D01*
X204685612Y-139575000D01*
X204685000Y-139276250D01*
X204613750Y-139205000D01*
X203655000Y-139205000D01*
X203645000Y-139205000D01*
X202686250Y-139205000D01*
X202615000Y-139276250D01*
X202613621Y-139950000D01*
X201486862Y-139950000D01*
X201486862Y-138450000D01*
X202613621Y-138450000D01*
X202615000Y-139123750D01*
X202686250Y-139195000D01*
X203645000Y-139195000D01*
X203645000Y-138236250D01*
X203655000Y-138236250D01*
X203655000Y-139195000D01*
X204613750Y-139195000D01*
X204685000Y-139123750D01*
X204685611Y-138825000D01*
X208463621Y-138825000D01*
X208465000Y-139123750D01*
X208536250Y-139195000D01*
X209145000Y-139195000D01*
X209145000Y-138611250D01*
X209155000Y-138611250D01*
X209155000Y-139195000D01*
X209763750Y-139195000D01*
X209835000Y-139123750D01*
X209836379Y-138825000D01*
X209863138Y-138825000D01*
X209863138Y-139575000D01*
X209870571Y-139650473D01*
X209892586Y-139723046D01*
X209928336Y-139789929D01*
X209976447Y-139848553D01*
X210035071Y-139896664D01*
X210101954Y-139932414D01*
X210174527Y-139954429D01*
X210250000Y-139961862D01*
X211050000Y-139961862D01*
X211125473Y-139954429D01*
X211198046Y-139932414D01*
X211264929Y-139896664D01*
X211323553Y-139848553D01*
X211371664Y-139789929D01*
X211392259Y-139751399D01*
X211475531Y-139807039D01*
X211600193Y-139858675D01*
X211732533Y-139885000D01*
X211867467Y-139885000D01*
X211999807Y-139858675D01*
X212124469Y-139807039D01*
X212236662Y-139732074D01*
X212332074Y-139636662D01*
X212407039Y-139524469D01*
X212458675Y-139399807D01*
X212485000Y-139267467D01*
X212485000Y-139132533D01*
X212458675Y-139000193D01*
X212407039Y-138875531D01*
X212332074Y-138763338D01*
X212236662Y-138667926D01*
X212124469Y-138592961D01*
X211999807Y-138541325D01*
X211867467Y-138515000D01*
X211732533Y-138515000D01*
X211600193Y-138541325D01*
X211475531Y-138592961D01*
X211392259Y-138648601D01*
X211371664Y-138610071D01*
X211323553Y-138551447D01*
X211264929Y-138503336D01*
X211198046Y-138467586D01*
X211125473Y-138445571D01*
X211050000Y-138438138D01*
X210250000Y-138438138D01*
X210174527Y-138445571D01*
X210101954Y-138467586D01*
X210035071Y-138503336D01*
X209976447Y-138551447D01*
X209928336Y-138610071D01*
X209892586Y-138676954D01*
X209870571Y-138749527D01*
X209863138Y-138825000D01*
X209836379Y-138825000D01*
X209830876Y-138769130D01*
X209814580Y-138715408D01*
X209788115Y-138665896D01*
X209752501Y-138622499D01*
X209709104Y-138586885D01*
X209659592Y-138560420D01*
X209605870Y-138544124D01*
X209550000Y-138538621D01*
X209226250Y-138540000D01*
X209155000Y-138611250D01*
X209145000Y-138611250D01*
X209073750Y-138540000D01*
X208750000Y-138538621D01*
X208694130Y-138544124D01*
X208640408Y-138560420D01*
X208590896Y-138586885D01*
X208547499Y-138622499D01*
X208511885Y-138665896D01*
X208485420Y-138715408D01*
X208469124Y-138769130D01*
X208463621Y-138825000D01*
X204685611Y-138825000D01*
X204686379Y-138450000D01*
X204680876Y-138394130D01*
X204664580Y-138340408D01*
X204638115Y-138290896D01*
X204602501Y-138247499D01*
X204559104Y-138211885D01*
X204509592Y-138185420D01*
X204455870Y-138169124D01*
X204400000Y-138163621D01*
X203726250Y-138165000D01*
X203655000Y-138236250D01*
X203645000Y-138236250D01*
X203573750Y-138165000D01*
X202900000Y-138163621D01*
X202844130Y-138169124D01*
X202790408Y-138185420D01*
X202740896Y-138211885D01*
X202697499Y-138247499D01*
X202661885Y-138290896D01*
X202635420Y-138340408D01*
X202619124Y-138394130D01*
X202613621Y-138450000D01*
X201486862Y-138450000D01*
X201479429Y-138374527D01*
X201457414Y-138301954D01*
X201421664Y-138235071D01*
X201373553Y-138176447D01*
X201314929Y-138128336D01*
X201248046Y-138092586D01*
X201175473Y-138070571D01*
X201100000Y-138063138D01*
X199600000Y-138063138D01*
X199524527Y-138070571D01*
X199451954Y-138092586D01*
X199385071Y-138128336D01*
X199326447Y-138176447D01*
X199278336Y-138235071D01*
X199245000Y-138297438D01*
X199245000Y-137705035D01*
X199455036Y-137495000D01*
X208475693Y-137495000D01*
X208500000Y-137497394D01*
X208524307Y-137495000D01*
X208524318Y-137495000D01*
X208597037Y-137487838D01*
X208690345Y-137459533D01*
X208776338Y-137413569D01*
X208851711Y-137351711D01*
X208867213Y-137332822D01*
X209534506Y-136665529D01*
X209541325Y-136699807D01*
X209579269Y-136791413D01*
X209575531Y-136792961D01*
X209463338Y-136867926D01*
X209367926Y-136963338D01*
X209292961Y-137075531D01*
X209241325Y-137200193D01*
X209215000Y-137332533D01*
X209215000Y-137467467D01*
X209241325Y-137599807D01*
X209292961Y-137724469D01*
X209367926Y-137836662D01*
X209463338Y-137932074D01*
X209575531Y-138007039D01*
X209700193Y-138058675D01*
X209832533Y-138085000D01*
X209967467Y-138085000D01*
X210099807Y-138058675D01*
X210224469Y-138007039D01*
X210336662Y-137932074D01*
X210373736Y-137895000D01*
X212915000Y-137895000D01*
X212915000Y-146488808D01*
X212856803Y-146706002D01*
X212706002Y-146856803D01*
X212488808Y-146915000D01*
X175511192Y-146915000D01*
X175293998Y-146856803D01*
X175143197Y-146706002D01*
X175085000Y-146488808D01*
X175085000Y-142500000D01*
X175082104Y-142478000D01*
X175015117Y-142228000D01*
X175009247Y-142212406D01*
X175000448Y-142198255D01*
X174993117Y-142189896D01*
X174810104Y-142006883D01*
X174797223Y-141996312D01*
X174782528Y-141988457D01*
X174772000Y-141984883D01*
X174522000Y-141917896D01*
X174500000Y-141915000D01*
X170511192Y-141915000D01*
X170293998Y-141856803D01*
X170143197Y-141706002D01*
X170085000Y-141488808D01*
X170085000Y-139853740D01*
X170515000Y-139853740D01*
X170515000Y-140146260D01*
X170572068Y-140433158D01*
X170684010Y-140703411D01*
X170846525Y-140946632D01*
X171053368Y-141153475D01*
X171296589Y-141315990D01*
X171566842Y-141427932D01*
X171853740Y-141485000D01*
X172146260Y-141485000D01*
X172433158Y-141427932D01*
X172703411Y-141315990D01*
X172946632Y-141153475D01*
X173153475Y-140946632D01*
X173315990Y-140703411D01*
X173427932Y-140433158D01*
X173485000Y-140146260D01*
X173485000Y-139853740D01*
X173427932Y-139566842D01*
X173315990Y-139296589D01*
X173153475Y-139053368D01*
X172946632Y-138846525D01*
X172703411Y-138684010D01*
X172433158Y-138572068D01*
X172146260Y-138515000D01*
X171853740Y-138515000D01*
X171566842Y-138572068D01*
X171296589Y-138684010D01*
X171053368Y-138846525D01*
X170846525Y-139053368D01*
X170684010Y-139296589D01*
X170572068Y-139566842D01*
X170515000Y-139853740D01*
X170085000Y-139853740D01*
X170085000Y-133860524D01*
X178695000Y-133860524D01*
X178695000Y-134059476D01*
X178733814Y-134254606D01*
X178809950Y-134438414D01*
X178920482Y-134603837D01*
X179061163Y-134744518D01*
X179226586Y-134855050D01*
X179410394Y-134931186D01*
X179605524Y-134970000D01*
X179804476Y-134970000D01*
X179999606Y-134931186D01*
X180183414Y-134855050D01*
X180348837Y-134744518D01*
X180489518Y-134603837D01*
X180600050Y-134438414D01*
X180676186Y-134254606D01*
X180715000Y-134059476D01*
X180715000Y-133860524D01*
X181235000Y-133860524D01*
X181235000Y-134059476D01*
X181273814Y-134254606D01*
X181349950Y-134438414D01*
X181460482Y-134603837D01*
X181565000Y-134708355D01*
X181565000Y-134817467D01*
X181591325Y-134949807D01*
X181642961Y-135074469D01*
X181717926Y-135186662D01*
X181813338Y-135282074D01*
X181925531Y-135357039D01*
X182050193Y-135408675D01*
X182182533Y-135435000D01*
X182317467Y-135435000D01*
X182449807Y-135408675D01*
X182574469Y-135357039D01*
X182686662Y-135282074D01*
X182782074Y-135186662D01*
X182857039Y-135074469D01*
X182908675Y-134949807D01*
X182935000Y-134817467D01*
X182935000Y-134698355D01*
X183029518Y-134603837D01*
X183058993Y-134559724D01*
X184192347Y-134559724D01*
X184251581Y-134702695D01*
X184406723Y-134792489D01*
X184576402Y-134850291D01*
X184754097Y-134873880D01*
X184932980Y-134862349D01*
X185106176Y-134816141D01*
X185267030Y-134737032D01*
X185318419Y-134702695D01*
X185377653Y-134559724D01*
X184785000Y-133967071D01*
X184192347Y-134559724D01*
X183058993Y-134559724D01*
X183140050Y-134438414D01*
X183216186Y-134254606D01*
X183255000Y-134059476D01*
X183255000Y-133929097D01*
X183871120Y-133929097D01*
X183882651Y-134107980D01*
X183928859Y-134281176D01*
X184007968Y-134442030D01*
X184042305Y-134493419D01*
X184185276Y-134552653D01*
X184777929Y-133960000D01*
X184792071Y-133960000D01*
X185384724Y-134552653D01*
X185527695Y-134493419D01*
X185617489Y-134338277D01*
X185675291Y-134168598D01*
X185698880Y-133990903D01*
X185690476Y-133860524D01*
X186315000Y-133860524D01*
X186315000Y-134059476D01*
X186353814Y-134254606D01*
X186429950Y-134438414D01*
X186540482Y-134603837D01*
X186573989Y-134637344D01*
X186565000Y-134682533D01*
X186565000Y-134817467D01*
X186591325Y-134949807D01*
X186642961Y-135074469D01*
X186717926Y-135186662D01*
X186813338Y-135282074D01*
X186925531Y-135357039D01*
X187050193Y-135408675D01*
X187182533Y-135435000D01*
X187317467Y-135435000D01*
X187449807Y-135408675D01*
X187574469Y-135357039D01*
X187686662Y-135282074D01*
X187782074Y-135186662D01*
X187857039Y-135074469D01*
X187908675Y-134949807D01*
X187935000Y-134817467D01*
X187935000Y-134767127D01*
X187968837Y-134744518D01*
X188109518Y-134603837D01*
X188220050Y-134438414D01*
X188296186Y-134254606D01*
X188335000Y-134059476D01*
X188335000Y-133860524D01*
X188855000Y-133860524D01*
X188855000Y-134059476D01*
X188893814Y-134254606D01*
X188969950Y-134438414D01*
X189080482Y-134603837D01*
X189221163Y-134744518D01*
X189315000Y-134807218D01*
X189315000Y-134817467D01*
X189341325Y-134949807D01*
X189392961Y-135074469D01*
X189467926Y-135186662D01*
X189563338Y-135282074D01*
X189675531Y-135357039D01*
X189800193Y-135408675D01*
X189932533Y-135435000D01*
X190067467Y-135435000D01*
X190199807Y-135408675D01*
X190324469Y-135357039D01*
X190436662Y-135282074D01*
X190532074Y-135186662D01*
X190607039Y-135074469D01*
X190658675Y-134949807D01*
X190685000Y-134817467D01*
X190685000Y-134682533D01*
X190664797Y-134580970D01*
X190760050Y-134438414D01*
X190836186Y-134254606D01*
X190875000Y-134059476D01*
X190875000Y-133860524D01*
X190836186Y-133665394D01*
X190760050Y-133481586D01*
X190649518Y-133316163D01*
X190558355Y-133225000D01*
X194798621Y-133225000D01*
X194804124Y-133280870D01*
X194820420Y-133334592D01*
X194846885Y-133384104D01*
X194882499Y-133427501D01*
X194925896Y-133463115D01*
X194975408Y-133489580D01*
X195029130Y-133505876D01*
X195085000Y-133511379D01*
X195758750Y-133510000D01*
X195830000Y-133438750D01*
X195830000Y-132480000D01*
X195840000Y-132480000D01*
X195840000Y-133438750D01*
X195911250Y-133510000D01*
X196585000Y-133511379D01*
X196640870Y-133505876D01*
X196694592Y-133489580D01*
X196744104Y-133463115D01*
X196787501Y-133427501D01*
X196823115Y-133384104D01*
X196849580Y-133334592D01*
X196865876Y-133280870D01*
X196871379Y-133225000D01*
X196870000Y-132551250D01*
X196798750Y-132480000D01*
X195840000Y-132480000D01*
X195830000Y-132480000D01*
X194871250Y-132480000D01*
X194800000Y-132551250D01*
X194798621Y-133225000D01*
X190558355Y-133225000D01*
X190508837Y-133175482D01*
X190343414Y-133064950D01*
X190159606Y-132988814D01*
X189964476Y-132950000D01*
X189765524Y-132950000D01*
X189570394Y-132988814D01*
X189386586Y-133064950D01*
X189221163Y-133175482D01*
X189080482Y-133316163D01*
X188969950Y-133481586D01*
X188893814Y-133665394D01*
X188855000Y-133860524D01*
X188335000Y-133860524D01*
X188296186Y-133665394D01*
X188220050Y-133481586D01*
X188109518Y-133316163D01*
X187968837Y-133175482D01*
X187803414Y-133064950D01*
X187619606Y-132988814D01*
X187424476Y-132950000D01*
X187225524Y-132950000D01*
X187030394Y-132988814D01*
X186846586Y-133064950D01*
X186681163Y-133175482D01*
X186540482Y-133316163D01*
X186429950Y-133481586D01*
X186353814Y-133665394D01*
X186315000Y-133860524D01*
X185690476Y-133860524D01*
X185687349Y-133812020D01*
X185641141Y-133638824D01*
X185562032Y-133477970D01*
X185527695Y-133426581D01*
X185384724Y-133367347D01*
X184792071Y-133960000D01*
X184777929Y-133960000D01*
X184185276Y-133367347D01*
X184042305Y-133426581D01*
X183952511Y-133581723D01*
X183894709Y-133751402D01*
X183871120Y-133929097D01*
X183255000Y-133929097D01*
X183255000Y-133860524D01*
X183216186Y-133665394D01*
X183140050Y-133481586D01*
X183058994Y-133360276D01*
X184192347Y-133360276D01*
X184785000Y-133952929D01*
X185377653Y-133360276D01*
X185318419Y-133217305D01*
X185163277Y-133127511D01*
X184993598Y-133069709D01*
X184815903Y-133046120D01*
X184637020Y-133057651D01*
X184463824Y-133103859D01*
X184302970Y-133182968D01*
X184251581Y-133217305D01*
X184192347Y-133360276D01*
X183058994Y-133360276D01*
X183029518Y-133316163D01*
X182888837Y-133175482D01*
X182723414Y-133064950D01*
X182539606Y-132988814D01*
X182344476Y-132950000D01*
X182145524Y-132950000D01*
X181950394Y-132988814D01*
X181766586Y-133064950D01*
X181601163Y-133175482D01*
X181460482Y-133316163D01*
X181349950Y-133481586D01*
X181273814Y-133665394D01*
X181235000Y-133860524D01*
X180715000Y-133860524D01*
X180676186Y-133665394D01*
X180600050Y-133481586D01*
X180489518Y-133316163D01*
X180348837Y-133175482D01*
X180183414Y-133064950D01*
X179999606Y-132988814D01*
X179804476Y-132950000D01*
X179605524Y-132950000D01*
X179410394Y-132988814D01*
X179226586Y-133064950D01*
X179061163Y-133175482D01*
X178920482Y-133316163D01*
X178809950Y-133481586D01*
X178733814Y-133665394D01*
X178695000Y-133860524D01*
X170085000Y-133860524D01*
X170085000Y-115853740D01*
X170515000Y-115853740D01*
X170515000Y-116146260D01*
X170572068Y-116433158D01*
X170684010Y-116703411D01*
X170846525Y-116946632D01*
X171053368Y-117153475D01*
X171296589Y-117315990D01*
X171566842Y-117427932D01*
X171853740Y-117485000D01*
X172146260Y-117485000D01*
X172433158Y-117427932D01*
X172703411Y-117315990D01*
X172946632Y-117153475D01*
X173153475Y-116946632D01*
X173315990Y-116703411D01*
X173427932Y-116433158D01*
X173485000Y-116146260D01*
X173485000Y-115853740D01*
X173427932Y-115566842D01*
X173315990Y-115296589D01*
X173153475Y-115053368D01*
X172960631Y-114860524D01*
X178695000Y-114860524D01*
X178695000Y-115059476D01*
X178733814Y-115254606D01*
X178809950Y-115438414D01*
X178920482Y-115603837D01*
X179061163Y-115744518D01*
X179226586Y-115855050D01*
X179410394Y-115931186D01*
X179605524Y-115970000D01*
X179804476Y-115970000D01*
X179999606Y-115931186D01*
X180183414Y-115855050D01*
X180348837Y-115744518D01*
X180489518Y-115603837D01*
X180600050Y-115438414D01*
X180676186Y-115254606D01*
X180715000Y-115059476D01*
X180715000Y-114860524D01*
X181235000Y-114860524D01*
X181235000Y-115059476D01*
X181273814Y-115254606D01*
X181349950Y-115438414D01*
X181460482Y-115603837D01*
X181601163Y-115744518D01*
X181766586Y-115855050D01*
X181950394Y-115931186D01*
X182145524Y-115970000D01*
X182344476Y-115970000D01*
X182539606Y-115931186D01*
X182723414Y-115855050D01*
X182888837Y-115744518D01*
X183029518Y-115603837D01*
X183058993Y-115559724D01*
X184192347Y-115559724D01*
X184251581Y-115702695D01*
X184406723Y-115792489D01*
X184576402Y-115850291D01*
X184754097Y-115873880D01*
X184932980Y-115862349D01*
X185106176Y-115816141D01*
X185267030Y-115737032D01*
X185318419Y-115702695D01*
X185377653Y-115559724D01*
X184785000Y-114967071D01*
X184192347Y-115559724D01*
X183058993Y-115559724D01*
X183140050Y-115438414D01*
X183216186Y-115254606D01*
X183255000Y-115059476D01*
X183255000Y-114929097D01*
X183871120Y-114929097D01*
X183882651Y-115107980D01*
X183928859Y-115281176D01*
X184007968Y-115442030D01*
X184042305Y-115493419D01*
X184185276Y-115552653D01*
X184777929Y-114960000D01*
X184792071Y-114960000D01*
X185384724Y-115552653D01*
X185527695Y-115493419D01*
X185617489Y-115338277D01*
X185675291Y-115168598D01*
X185698880Y-114990903D01*
X185690476Y-114860524D01*
X186315000Y-114860524D01*
X186315000Y-115059476D01*
X186353814Y-115254606D01*
X186429950Y-115438414D01*
X186540482Y-115603837D01*
X186681163Y-115744518D01*
X186846586Y-115855050D01*
X187030394Y-115931186D01*
X187225524Y-115970000D01*
X187424476Y-115970000D01*
X187619606Y-115931186D01*
X187803414Y-115855050D01*
X187968837Y-115744518D01*
X188109518Y-115603837D01*
X188220050Y-115438414D01*
X188296186Y-115254606D01*
X188335000Y-115059476D01*
X188335000Y-114860524D01*
X188855000Y-114860524D01*
X188855000Y-115059476D01*
X188893814Y-115254606D01*
X188969950Y-115438414D01*
X189080482Y-115603837D01*
X189221163Y-115744518D01*
X189386586Y-115855050D01*
X189570394Y-115931186D01*
X189765524Y-115970000D01*
X189964476Y-115970000D01*
X190159606Y-115931186D01*
X190343414Y-115855050D01*
X190508837Y-115744518D01*
X190649518Y-115603837D01*
X190760050Y-115438414D01*
X190836186Y-115254606D01*
X190875000Y-115059476D01*
X190875000Y-114860524D01*
X190836186Y-114665394D01*
X190760050Y-114481586D01*
X190649518Y-114316163D01*
X190508837Y-114175482D01*
X190422064Y-114117502D01*
X190408675Y-114050193D01*
X190357039Y-113925531D01*
X190282074Y-113813338D01*
X190186662Y-113717926D01*
X190074469Y-113642961D01*
X189949807Y-113591325D01*
X189817467Y-113565000D01*
X189682533Y-113565000D01*
X189550193Y-113591325D01*
X189425531Y-113642961D01*
X189313338Y-113717926D01*
X189217926Y-113813338D01*
X189142961Y-113925531D01*
X189091325Y-114050193D01*
X189065000Y-114182533D01*
X189065000Y-114317467D01*
X189068352Y-114334317D01*
X188969950Y-114481586D01*
X188893814Y-114665394D01*
X188855000Y-114860524D01*
X188335000Y-114860524D01*
X188296186Y-114665394D01*
X188220050Y-114481586D01*
X188109518Y-114316163D01*
X187968837Y-114175482D01*
X187928196Y-114148326D01*
X187908675Y-114050193D01*
X187857039Y-113925531D01*
X187782074Y-113813338D01*
X187686662Y-113717926D01*
X187574469Y-113642961D01*
X187449807Y-113591325D01*
X187317467Y-113565000D01*
X187182533Y-113565000D01*
X187050193Y-113591325D01*
X186925531Y-113642961D01*
X186813338Y-113717926D01*
X186717926Y-113813338D01*
X186642961Y-113925531D01*
X186591325Y-114050193D01*
X186565000Y-114182533D01*
X186565000Y-114291645D01*
X186540482Y-114316163D01*
X186429950Y-114481586D01*
X186353814Y-114665394D01*
X186315000Y-114860524D01*
X185690476Y-114860524D01*
X185687349Y-114812020D01*
X185641141Y-114638824D01*
X185562032Y-114477970D01*
X185527695Y-114426581D01*
X185384724Y-114367347D01*
X184792071Y-114960000D01*
X184777929Y-114960000D01*
X184185276Y-114367347D01*
X184042305Y-114426581D01*
X183952511Y-114581723D01*
X183894709Y-114751402D01*
X183871120Y-114929097D01*
X183255000Y-114929097D01*
X183255000Y-114860524D01*
X183216186Y-114665394D01*
X183140050Y-114481586D01*
X183058994Y-114360276D01*
X184192347Y-114360276D01*
X184785000Y-114952929D01*
X185377653Y-114360276D01*
X185318419Y-114217305D01*
X185163277Y-114127511D01*
X184993598Y-114069709D01*
X184815903Y-114046120D01*
X184637020Y-114057651D01*
X184463824Y-114103859D01*
X184302970Y-114182968D01*
X184251581Y-114217305D01*
X184192347Y-114360276D01*
X183058994Y-114360276D01*
X183029518Y-114316163D01*
X182935000Y-114221645D01*
X182935000Y-114182533D01*
X182908675Y-114050193D01*
X182857039Y-113925531D01*
X182782074Y-113813338D01*
X182686662Y-113717926D01*
X182574469Y-113642961D01*
X182449807Y-113591325D01*
X182317467Y-113565000D01*
X182182533Y-113565000D01*
X182050193Y-113591325D01*
X181925531Y-113642961D01*
X181813338Y-113717926D01*
X181717926Y-113813338D01*
X181642961Y-113925531D01*
X181591325Y-114050193D01*
X181565000Y-114182533D01*
X181565000Y-114211645D01*
X181460482Y-114316163D01*
X181349950Y-114481586D01*
X181273814Y-114665394D01*
X181235000Y-114860524D01*
X180715000Y-114860524D01*
X180676186Y-114665394D01*
X180600050Y-114481586D01*
X180489518Y-114316163D01*
X180435000Y-114261645D01*
X180435000Y-114182533D01*
X180408675Y-114050193D01*
X180357039Y-113925531D01*
X180282074Y-113813338D01*
X180186662Y-113717926D01*
X180074469Y-113642961D01*
X179949807Y-113591325D01*
X179817467Y-113565000D01*
X179682533Y-113565000D01*
X179550193Y-113591325D01*
X179425531Y-113642961D01*
X179313338Y-113717926D01*
X179217926Y-113813338D01*
X179142961Y-113925531D01*
X179091325Y-114050193D01*
X179067206Y-114171444D01*
X179061163Y-114175482D01*
X178920482Y-114316163D01*
X178809950Y-114481586D01*
X178733814Y-114665394D01*
X178695000Y-114860524D01*
X172960631Y-114860524D01*
X172946632Y-114846525D01*
X172703411Y-114684010D01*
X172433158Y-114572068D01*
X172146260Y-114515000D01*
X171853740Y-114515000D01*
X171566842Y-114572068D01*
X171296589Y-114684010D01*
X171053368Y-114846525D01*
X170846525Y-115053368D01*
X170684010Y-115296589D01*
X170572068Y-115566842D01*
X170515000Y-115853740D01*
X170085000Y-115853740D01*
X170085000Y-114511192D01*
X170143197Y-114293998D01*
X170293998Y-114143197D01*
X170511192Y-114085000D01*
X174500000Y-114085000D01*
X174522000Y-114082104D01*
X174772000Y-114015117D01*
X174787594Y-114009247D01*
X174801745Y-114000448D01*
X174810104Y-113993117D01*
X174993117Y-113810104D01*
X175003688Y-113797223D01*
X175011543Y-113782528D01*
X175015117Y-113772000D01*
X175082104Y-113522000D01*
X175085000Y-113500000D01*
X175085000Y-109511192D01*
X175143197Y-109293998D01*
X175293998Y-109143197D01*
X175511192Y-109085000D01*
X194214964Y-109085000D01*
X192667178Y-110632787D01*
M02*
