G04 #@! TF.GenerationSoftware,KiCad,Pcbnew,(5.0.2)-1*
G04 #@! TF.CreationDate,2019-04-27T00:21:17-04:00*
G04 #@! TF.ProjectId,Dash_Warning_Panel,44617368-5f57-4617-926e-696e675f5061,rev?*
G04 #@! TF.SameCoordinates,Original*
G04 #@! TF.FileFunction,Copper,L2,Bot*
G04 #@! TF.FilePolarity,Positive*
%FSLAX46Y46*%
G04 Gerber Fmt 4.6, Leading zero omitted, Abs format (unit mm)*
G04 Created by KiCad (PCBNEW (5.0.2)-1) date 4/27/2019 12:21:17 AM*
%MOMM*%
%LPD*%
G01*
G04 APERTURE LIST*
G04 #@! TA.AperFunction,ComponentPad*
%ADD10C,0.600000*%
G04 #@! TD*
G04 #@! TA.AperFunction,SMDPad,CuDef*
%ADD11R,1.100000X1.500000*%
G04 #@! TD*
G04 #@! TA.AperFunction,SMDPad,CuDef*
%ADD12R,2.000000X0.610000*%
G04 #@! TD*
G04 #@! TA.AperFunction,SMDPad,CuDef*
%ADD13R,3.600000X2.680000*%
G04 #@! TD*
G04 #@! TA.AperFunction,ViaPad*
%ADD14C,0.400000*%
G04 #@! TD*
G04 #@! TA.AperFunction,ViaPad*
%ADD15C,0.600000*%
G04 #@! TD*
G04 #@! TA.AperFunction,Conductor*
%ADD16C,0.220000*%
G04 #@! TD*
G04 #@! TA.AperFunction,Conductor*
%ADD17C,0.500000*%
G04 #@! TD*
G04 #@! TA.AperFunction,Conductor*
%ADD18C,0.300000*%
G04 #@! TD*
G04 #@! TA.AperFunction,Conductor*
%ADD19C,0.350000*%
G04 #@! TD*
G04 #@! TA.AperFunction,Conductor*
%ADD20C,0.170000*%
G04 #@! TD*
G04 APERTURE END LIST*
D10*
G04 #@! TO.P,U1,33*
G04 #@! TO.N,/GND*
X215500000Y-129200000D03*
X215500000Y-130000000D03*
X215500000Y-130800000D03*
X214700000Y-129200000D03*
X214700000Y-130000000D03*
X214700000Y-130800000D03*
X213900000Y-129200000D03*
X213900000Y-130000000D03*
X213900000Y-130800000D03*
G04 #@! TD*
D11*
G04 #@! TO.P,SW1,1*
G04 #@! TO.N,/OE*
X173950000Y-124800000D03*
G04 #@! TO.P,SW1,2*
G04 #@! TO.N,/EN*
X171410000Y-124800000D03*
G04 #@! TO.P,SW1,3*
G04 #@! TO.N,/GND*
X173950000Y-133700000D03*
G04 #@! TO.P,SW1,4*
X171410000Y-133700000D03*
G04 #@! TD*
D12*
G04 #@! TO.P,J1,1*
G04 #@! TO.N,/CLK*
X221600000Y-119500000D03*
G04 #@! TO.P,J1,2*
G04 #@! TO.N,/SDI*
X221600000Y-120500000D03*
G04 #@! TO.P,J1,3*
G04 #@! TO.N,/SDO*
X221600000Y-121500000D03*
G04 #@! TO.P,J1,4*
G04 #@! TO.N,/MC*
X221600000Y-122500000D03*
G04 #@! TO.P,J1,5*
G04 #@! TO.N,/GND*
X221600000Y-123500000D03*
G04 #@! TO.P,J1,6*
G04 #@! TO.N,/VCC*
X221600000Y-124500000D03*
D13*
G04 #@! TO.P,J1,*
G04 #@! TO.N,*
X224400000Y-116510000D03*
X224400000Y-127490000D03*
G04 #@! TD*
D14*
G04 #@! TO.N,Net-(R1-Pad1)*
X217900000Y-128500000D03*
X222100000Y-128500000D03*
D15*
G04 #@! TO.N,/LED_Power*
X208900000Y-135600000D03*
X207800000Y-125700000D03*
X203675000Y-121500000D03*
D14*
G04 #@! TO.N,/R0*
X191400000Y-116600000D03*
X191800000Y-117900000D03*
G04 #@! TO.N,/B1*
X202300000Y-118900000D03*
X208190000Y-124790000D03*
G04 #@! TO.N,/R1*
X202900000Y-118100000D03*
X209500000Y-124700000D03*
G04 #@! TO.N,/G1*
X203700000Y-119600000D03*
X208850000Y-124750000D03*
G04 #@! TO.N,/R2*
X179700000Y-129800000D03*
X179300000Y-128400000D03*
G04 #@! TO.N,/B3*
X190700000Y-131600000D03*
X190700000Y-129400000D03*
G04 #@! TO.N,/R3*
X191900000Y-128000000D03*
X192000000Y-131500000D03*
G04 #@! TO.N,/G3*
X191300000Y-129500000D03*
X191300000Y-131500000D03*
G04 #@! TO.N,/B4*
X202400000Y-129200000D03*
X202500000Y-133300000D03*
G04 #@! TO.N,/R4*
X203900000Y-133000000D03*
X203600000Y-128200000D03*
G04 #@! TO.N,/G4*
X203100000Y-129400000D03*
X203200000Y-133200000D03*
G04 #@! TO.N,/R5*
X179700000Y-141800000D03*
X179300000Y-140400000D03*
G04 #@! TO.N,/B6*
X190700000Y-143600000D03*
X190700000Y-141400000D03*
G04 #@! TO.N,/R6*
X191900000Y-140000000D03*
X192000000Y-143500000D03*
G04 #@! TO.N,/G6*
X191300000Y-141500000D03*
X191300000Y-143500000D03*
G04 #@! TO.N,/B7*
X202500000Y-145300000D03*
X202400000Y-141200000D03*
G04 #@! TO.N,/R7*
X203900000Y-139900000D03*
X203900000Y-145000000D03*
G04 #@! TO.N,/G7*
X203100000Y-141400000D03*
X203200000Y-145200000D03*
G04 #@! TO.N,/SDI*
X223100000Y-120500000D03*
X220200000Y-120500000D03*
G04 #@! TO.N,/CLK*
X223100000Y-119500000D03*
X220000000Y-119500000D03*
G04 #@! TO.N,/MC*
X193000000Y-122800000D03*
X190200000Y-120500000D03*
X214300000Y-122800000D03*
G04 #@! TO.N,/OE*
X173900000Y-123500000D03*
X218500000Y-129000000D03*
X221200000Y-129000000D03*
X218500000Y-131900000D03*
G04 #@! TO.N,/EN*
X206700000Y-112800000D03*
X212400000Y-118900000D03*
X209700000Y-116700000D03*
X171400000Y-122800000D03*
G04 #@! TO.N,/VCC*
X223100000Y-124500000D03*
X221600000Y-125300000D03*
X218500000Y-123400000D03*
G04 #@! TO.N,/GND*
X220000000Y-125200000D03*
X197500000Y-121500000D03*
X212750000Y-111750000D03*
X203600000Y-135700000D03*
X214049998Y-120800000D03*
X217100000Y-123700000D03*
X220300000Y-133500000D03*
X225200000Y-134000000D03*
X225500000Y-118700000D03*
X225500000Y-122200000D03*
X216700000Y-119200000D03*
X214100000Y-117400000D03*
X218500000Y-124400000D03*
X219600000Y-118500000D03*
G04 #@! TD*
D16*
G04 #@! TO.N,Net-(R1-Pad1)*
X222100000Y-128500000D02*
X217900000Y-128500000D01*
D17*
G04 #@! TO.N,/LED_Power*
X207800000Y-125700000D02*
X208900000Y-126800000D01*
X208900000Y-126800000D02*
X208900000Y-135600000D01*
X207800000Y-125700000D02*
X204000000Y-121900000D01*
X204000000Y-121900000D02*
X203675000Y-121500000D01*
D16*
G04 #@! TO.N,/R0*
X191400000Y-117500000D02*
X191400000Y-116600000D01*
X191800000Y-117900000D02*
X191400000Y-117500000D01*
G04 #@! TO.N,/B1*
X208220000Y-124820000D02*
X202300000Y-118900000D01*
G04 #@! TO.N,/R1*
X209500000Y-124700000D02*
X202900000Y-118100000D01*
G04 #@! TO.N,/G1*
X208870000Y-124770000D02*
X203700000Y-119600000D01*
G04 #@! TO.N,/R2*
X179700000Y-129800000D02*
X179300000Y-129400000D01*
X179300000Y-129400000D02*
X179300000Y-128400000D01*
G04 #@! TO.N,/B3*
X190700000Y-129400000D02*
X190700000Y-131600000D01*
G04 #@! TO.N,/R3*
X191900000Y-131400000D02*
X191900000Y-128000000D01*
X192000000Y-131500000D02*
X191900000Y-131400000D01*
G04 #@! TO.N,/G3*
X191300000Y-131500000D02*
X191300000Y-129500000D01*
G04 #@! TO.N,/B4*
X202400000Y-133200000D02*
X202400000Y-129200000D01*
X202500000Y-133300000D02*
X202400000Y-133200000D01*
G04 #@! TO.N,/R4*
X203900000Y-133000000D02*
X203600000Y-132700000D01*
X203600000Y-132700000D02*
X203600000Y-128200000D01*
G04 #@! TO.N,/G4*
X203100000Y-133100000D02*
X203100000Y-129400000D01*
X203200000Y-133200000D02*
X203100000Y-133100000D01*
G04 #@! TO.N,/R5*
X179700000Y-141800000D02*
X179300000Y-141400000D01*
X179300000Y-141400000D02*
X179300000Y-140400000D01*
G04 #@! TO.N,/B6*
X190700000Y-141400000D02*
X190700000Y-143600000D01*
G04 #@! TO.N,/R6*
X191900000Y-143400000D02*
X191900000Y-140000000D01*
X192000000Y-143500000D02*
X191900000Y-143400000D01*
G04 #@! TO.N,/G6*
X191300000Y-143500000D02*
X191300000Y-141500000D01*
G04 #@! TO.N,/B7*
X202500000Y-145300000D02*
X202400000Y-145200000D01*
X202400000Y-145200000D02*
X202400000Y-141200000D01*
G04 #@! TO.N,/R7*
X203900000Y-139900000D02*
X203900000Y-145000000D01*
G04 #@! TO.N,/G7*
X203100000Y-145100000D02*
X203100000Y-141400000D01*
X203200000Y-145200000D02*
X203100000Y-145100000D01*
D18*
G04 #@! TO.N,/SDI*
X221600000Y-120500000D02*
X223100000Y-120500000D01*
D16*
X221600000Y-120500000D02*
X220200000Y-120500000D01*
D18*
G04 #@! TO.N,/CLK*
X221600000Y-119500000D02*
X223100000Y-119500000D01*
X221600000Y-119500000D02*
X220000000Y-119500000D01*
D16*
G04 #@! TO.N,/MC*
X193000000Y-122800000D02*
X190700000Y-120500000D01*
X190700000Y-120500000D02*
X190200000Y-120500000D01*
X221600000Y-122500000D02*
X217800000Y-122500000D01*
X217500000Y-122800000D02*
X214300000Y-122800000D01*
X217800000Y-122500000D02*
X217500000Y-122800000D01*
G04 #@! TO.N,/OE*
X173950000Y-123550000D02*
X173950000Y-124800000D01*
X173900000Y-123500000D02*
X173950000Y-123550000D01*
X218500000Y-129000000D02*
X218500000Y-131900000D01*
X218500000Y-129000000D02*
X221200000Y-129000000D01*
G04 #@! TO.N,/EN*
X209700000Y-116700000D02*
X209700000Y-115800000D01*
X209700000Y-115800000D02*
X206700000Y-112800000D01*
X212400000Y-118900000D02*
X211400000Y-118900000D01*
X211400000Y-118900000D02*
X209700000Y-117200000D01*
X209700000Y-117200000D02*
X209700000Y-116700000D01*
X171400000Y-124790000D02*
X171410000Y-124800000D01*
X171400000Y-122800000D02*
X171400000Y-124790000D01*
G04 #@! TO.N,/VCC*
X221600000Y-124500000D02*
X223100000Y-124500000D01*
X221600000Y-124500000D02*
X221600000Y-125300000D01*
D19*
X219600000Y-124500000D02*
X218500000Y-123400000D01*
X220000000Y-124500000D02*
X219600000Y-124500000D01*
D16*
X221600000Y-124500000D02*
X220000000Y-124500000D01*
D17*
G04 #@! TO.N,/GND*
X214100000Y-120749998D02*
X214100000Y-120700000D01*
X214049998Y-120800000D02*
X214100000Y-120749998D01*
D16*
X221600000Y-123500000D02*
X219800000Y-123500000D01*
X221600000Y-123500000D02*
X223400000Y-123500000D01*
X213900000Y-130000000D02*
X214700000Y-130000000D01*
X214700000Y-130000000D02*
X215500000Y-130000000D01*
X215500000Y-130000000D02*
X217000000Y-130000000D01*
X213900000Y-130000000D02*
X213000000Y-130000000D01*
X214700000Y-130800000D02*
X214700000Y-130000000D01*
X214700000Y-130000000D02*
X214700000Y-129200000D01*
X214700000Y-129200000D02*
X214700000Y-128300000D01*
X214700000Y-130800000D02*
X214700000Y-131700000D01*
X213900000Y-130800000D02*
X214700000Y-130000000D01*
X214700000Y-130000000D02*
X215500000Y-129200000D01*
X213900000Y-129200000D02*
X214700000Y-130000000D01*
X214700000Y-130000000D02*
X215500000Y-130800000D01*
G04 #@! TD*
D20*
G04 #@! TO.N,/GND*
G36*
X212706002Y-109143197D02*
X212856803Y-109293998D01*
X212915000Y-109511192D01*
X212915000Y-113500000D01*
X212917896Y-113522000D01*
X212984883Y-113772000D01*
X213006883Y-113810104D01*
X213189896Y-113993117D01*
X213228000Y-114015117D01*
X213478000Y-114082104D01*
X213500000Y-114085000D01*
X227586389Y-114085000D01*
X227804170Y-114143540D01*
X227955054Y-114295143D01*
X228012556Y-114513200D01*
X227917424Y-134490819D01*
X227858539Y-134707141D01*
X227707818Y-134857147D01*
X227491220Y-134915000D01*
X219500000Y-134915000D01*
X219478000Y-134917896D01*
X219228000Y-134984883D01*
X219189896Y-135006883D01*
X219006883Y-135189896D01*
X218984883Y-135228000D01*
X218917896Y-135478000D01*
X218915000Y-135500000D01*
X218915000Y-141488808D01*
X218856803Y-141706002D01*
X218706002Y-141856803D01*
X218488808Y-141915000D01*
X213500000Y-141915000D01*
X213478000Y-141917896D01*
X213228000Y-141984883D01*
X213189896Y-142006883D01*
X213006883Y-142189896D01*
X212984883Y-142228000D01*
X212917896Y-142478000D01*
X212915000Y-142500000D01*
X212915000Y-146488808D01*
X212856803Y-146706002D01*
X212706002Y-146856803D01*
X212488808Y-146915000D01*
X175511192Y-146915000D01*
X175293998Y-146856803D01*
X175143197Y-146706002D01*
X175085000Y-146488808D01*
X175085000Y-142500000D01*
X175082104Y-142478000D01*
X175015117Y-142228000D01*
X174993117Y-142189896D01*
X174810104Y-142006883D01*
X174772000Y-141984883D01*
X174522000Y-141917896D01*
X174500000Y-141915000D01*
X170511192Y-141915000D01*
X170293998Y-141856803D01*
X170143197Y-141706002D01*
X170085000Y-141488808D01*
X170085000Y-139704615D01*
X170515000Y-139704615D01*
X170515000Y-140295385D01*
X170741078Y-140841185D01*
X171158815Y-141258922D01*
X171704615Y-141485000D01*
X172295385Y-141485000D01*
X172841185Y-141258922D01*
X173258922Y-140841185D01*
X173485000Y-140295385D01*
X173485000Y-140283636D01*
X178715000Y-140283636D01*
X178715000Y-140516364D01*
X178804061Y-140731376D01*
X178805001Y-140732316D01*
X178805000Y-141351250D01*
X178795303Y-141400000D01*
X178805000Y-141448749D01*
X178833721Y-141593138D01*
X178943125Y-141756875D01*
X178984456Y-141784492D01*
X179115000Y-141915035D01*
X179115000Y-141916364D01*
X179204061Y-142131376D01*
X179368624Y-142295939D01*
X179583636Y-142385000D01*
X179816364Y-142385000D01*
X180031376Y-142295939D01*
X180195939Y-142131376D01*
X180285000Y-141916364D01*
X180285000Y-141683636D01*
X180195939Y-141468624D01*
X180031376Y-141304061D01*
X179982066Y-141283636D01*
X190115000Y-141283636D01*
X190115000Y-141516364D01*
X190204061Y-141731376D01*
X190205000Y-141732315D01*
X190205001Y-143267684D01*
X190204061Y-143268624D01*
X190115000Y-143483636D01*
X190115000Y-143716364D01*
X190204061Y-143931376D01*
X190368624Y-144095939D01*
X190583636Y-144185000D01*
X190816364Y-144185000D01*
X191031376Y-144095939D01*
X191083707Y-144043608D01*
X191183636Y-144085000D01*
X191416364Y-144085000D01*
X191631376Y-143995939D01*
X191650000Y-143977315D01*
X191668624Y-143995939D01*
X191883636Y-144085000D01*
X192116364Y-144085000D01*
X192331376Y-143995939D01*
X192495939Y-143831376D01*
X192585000Y-143616364D01*
X192585000Y-143383636D01*
X192495939Y-143168624D01*
X192395000Y-143067685D01*
X192395000Y-141083636D01*
X201815000Y-141083636D01*
X201815000Y-141316364D01*
X201904061Y-141531376D01*
X201905001Y-141532316D01*
X201905000Y-145151251D01*
X201895303Y-145200000D01*
X201905000Y-145248749D01*
X201915000Y-145299022D01*
X201915000Y-145416364D01*
X202004061Y-145631376D01*
X202168624Y-145795939D01*
X202383636Y-145885000D01*
X202616364Y-145885000D01*
X202831376Y-145795939D01*
X202912996Y-145714319D01*
X203083636Y-145785000D01*
X203316364Y-145785000D01*
X203531376Y-145695939D01*
X203683707Y-145543608D01*
X203783636Y-145585000D01*
X204016364Y-145585000D01*
X204231376Y-145495939D01*
X204395939Y-145331376D01*
X204485000Y-145116364D01*
X204485000Y-144883636D01*
X204395939Y-144668624D01*
X204395000Y-144667685D01*
X204395000Y-140232315D01*
X204395939Y-140231376D01*
X204485000Y-140016364D01*
X204485000Y-139783636D01*
X204452269Y-139704615D01*
X214515000Y-139704615D01*
X214515000Y-140295385D01*
X214741078Y-140841185D01*
X215158815Y-141258922D01*
X215704615Y-141485000D01*
X216295385Y-141485000D01*
X216841185Y-141258922D01*
X217258922Y-140841185D01*
X217485000Y-140295385D01*
X217485000Y-139704615D01*
X217258922Y-139158815D01*
X216841185Y-138741078D01*
X216295385Y-138515000D01*
X215704615Y-138515000D01*
X215158815Y-138741078D01*
X214741078Y-139158815D01*
X214515000Y-139704615D01*
X204452269Y-139704615D01*
X204395939Y-139568624D01*
X204231376Y-139404061D01*
X204016364Y-139315000D01*
X203783636Y-139315000D01*
X203568624Y-139404061D01*
X203404061Y-139568624D01*
X203315000Y-139783636D01*
X203315000Y-140016364D01*
X203404061Y-140231376D01*
X203405000Y-140232315D01*
X203405000Y-140893136D01*
X203216364Y-140815000D01*
X202983636Y-140815000D01*
X202883707Y-140856392D01*
X202731376Y-140704061D01*
X202516364Y-140615000D01*
X202283636Y-140615000D01*
X202068624Y-140704061D01*
X201904061Y-140868624D01*
X201815000Y-141083636D01*
X192395000Y-141083636D01*
X192395000Y-140332315D01*
X192395939Y-140331376D01*
X192485000Y-140116364D01*
X192485000Y-139883636D01*
X192395939Y-139668624D01*
X192231376Y-139504061D01*
X192016364Y-139415000D01*
X191783636Y-139415000D01*
X191568624Y-139504061D01*
X191404061Y-139668624D01*
X191315000Y-139883636D01*
X191315000Y-140116364D01*
X191404061Y-140331376D01*
X191405001Y-140332316D01*
X191405001Y-140915000D01*
X191183636Y-140915000D01*
X191083707Y-140956392D01*
X191031376Y-140904061D01*
X190816364Y-140815000D01*
X190583636Y-140815000D01*
X190368624Y-140904061D01*
X190204061Y-141068624D01*
X190115000Y-141283636D01*
X179982066Y-141283636D01*
X179816364Y-141215000D01*
X179815035Y-141215000D01*
X179795000Y-141194965D01*
X179795000Y-140732315D01*
X179795939Y-140731376D01*
X179885000Y-140516364D01*
X179885000Y-140283636D01*
X179795939Y-140068624D01*
X179631376Y-139904061D01*
X179416364Y-139815000D01*
X179183636Y-139815000D01*
X178968624Y-139904061D01*
X178804061Y-140068624D01*
X178715000Y-140283636D01*
X173485000Y-140283636D01*
X173485000Y-139704615D01*
X173258922Y-139158815D01*
X172841185Y-138741078D01*
X172295385Y-138515000D01*
X171704615Y-138515000D01*
X171158815Y-138741078D01*
X170741078Y-139158815D01*
X170515000Y-139704615D01*
X170085000Y-139704615D01*
X170085000Y-133776250D01*
X170575000Y-133776250D01*
X170575000Y-134506690D01*
X170618389Y-134611440D01*
X170698560Y-134691611D01*
X170803310Y-134735000D01*
X171333750Y-134735000D01*
X171405000Y-134663750D01*
X171405000Y-133705000D01*
X171415000Y-133705000D01*
X171415000Y-134663750D01*
X171486250Y-134735000D01*
X172016690Y-134735000D01*
X172121440Y-134691611D01*
X172201611Y-134611440D01*
X172245000Y-134506690D01*
X172245000Y-133776250D01*
X173115000Y-133776250D01*
X173115000Y-134506690D01*
X173158389Y-134611440D01*
X173238560Y-134691611D01*
X173343310Y-134735000D01*
X173873750Y-134735000D01*
X173945000Y-134663750D01*
X173945000Y-133705000D01*
X173955000Y-133705000D01*
X173955000Y-134663750D01*
X174026250Y-134735000D01*
X174556690Y-134735000D01*
X174661440Y-134691611D01*
X174741611Y-134611440D01*
X174785000Y-134506690D01*
X174785000Y-133776250D01*
X174713750Y-133705000D01*
X173955000Y-133705000D01*
X173945000Y-133705000D01*
X173186250Y-133705000D01*
X173115000Y-133776250D01*
X172245000Y-133776250D01*
X172173750Y-133705000D01*
X171415000Y-133705000D01*
X171405000Y-133705000D01*
X170646250Y-133705000D01*
X170575000Y-133776250D01*
X170085000Y-133776250D01*
X170085000Y-132893310D01*
X170575000Y-132893310D01*
X170575000Y-133623750D01*
X170646250Y-133695000D01*
X171405000Y-133695000D01*
X171405000Y-132736250D01*
X171415000Y-132736250D01*
X171415000Y-133695000D01*
X172173750Y-133695000D01*
X172245000Y-133623750D01*
X172245000Y-132893310D01*
X173115000Y-132893310D01*
X173115000Y-133623750D01*
X173186250Y-133695000D01*
X173945000Y-133695000D01*
X173945000Y-132736250D01*
X173955000Y-132736250D01*
X173955000Y-133695000D01*
X174713750Y-133695000D01*
X174785000Y-133623750D01*
X174785000Y-132893310D01*
X174741611Y-132788560D01*
X174661440Y-132708389D01*
X174556690Y-132665000D01*
X174026250Y-132665000D01*
X173955000Y-132736250D01*
X173945000Y-132736250D01*
X173873750Y-132665000D01*
X173343310Y-132665000D01*
X173238560Y-132708389D01*
X173158389Y-132788560D01*
X173115000Y-132893310D01*
X172245000Y-132893310D01*
X172201611Y-132788560D01*
X172121440Y-132708389D01*
X172016690Y-132665000D01*
X171486250Y-132665000D01*
X171415000Y-132736250D01*
X171405000Y-132736250D01*
X171333750Y-132665000D01*
X170803310Y-132665000D01*
X170698560Y-132708389D01*
X170618389Y-132788560D01*
X170575000Y-132893310D01*
X170085000Y-132893310D01*
X170085000Y-128283636D01*
X178715000Y-128283636D01*
X178715000Y-128516364D01*
X178804061Y-128731376D01*
X178805001Y-128732316D01*
X178805000Y-129351250D01*
X178795303Y-129400000D01*
X178805000Y-129448749D01*
X178833721Y-129593138D01*
X178943125Y-129756875D01*
X178984456Y-129784492D01*
X179115000Y-129915035D01*
X179115000Y-129916364D01*
X179204061Y-130131376D01*
X179368624Y-130295939D01*
X179583636Y-130385000D01*
X179816364Y-130385000D01*
X180031376Y-130295939D01*
X180195939Y-130131376D01*
X180285000Y-129916364D01*
X180285000Y-129683636D01*
X180195939Y-129468624D01*
X180031376Y-129304061D01*
X179982066Y-129283636D01*
X190115000Y-129283636D01*
X190115000Y-129516364D01*
X190204061Y-129731376D01*
X190205000Y-129732315D01*
X190205001Y-131267684D01*
X190204061Y-131268624D01*
X190115000Y-131483636D01*
X190115000Y-131716364D01*
X190204061Y-131931376D01*
X190368624Y-132095939D01*
X190583636Y-132185000D01*
X190816364Y-132185000D01*
X191031376Y-132095939D01*
X191083707Y-132043608D01*
X191183636Y-132085000D01*
X191416364Y-132085000D01*
X191631376Y-131995939D01*
X191650000Y-131977315D01*
X191668624Y-131995939D01*
X191883636Y-132085000D01*
X192116364Y-132085000D01*
X192331376Y-131995939D01*
X192495939Y-131831376D01*
X192585000Y-131616364D01*
X192585000Y-131383636D01*
X192495939Y-131168624D01*
X192395000Y-131067685D01*
X192395000Y-129083636D01*
X201815000Y-129083636D01*
X201815000Y-129316364D01*
X201904061Y-129531376D01*
X201905001Y-129532316D01*
X201905000Y-133151251D01*
X201895303Y-133200000D01*
X201905000Y-133248749D01*
X201915000Y-133299022D01*
X201915000Y-133416364D01*
X202004061Y-133631376D01*
X202168624Y-133795939D01*
X202383636Y-133885000D01*
X202616364Y-133885000D01*
X202831376Y-133795939D01*
X202912996Y-133714319D01*
X203083636Y-133785000D01*
X203316364Y-133785000D01*
X203531376Y-133695939D01*
X203683707Y-133543608D01*
X203783636Y-133585000D01*
X204016364Y-133585000D01*
X204231376Y-133495939D01*
X204395939Y-133331376D01*
X204485000Y-133116364D01*
X204485000Y-132883636D01*
X204395939Y-132668624D01*
X204231376Y-132504061D01*
X204095000Y-132447572D01*
X204095000Y-128532315D01*
X204095939Y-128531376D01*
X204185000Y-128316364D01*
X204185000Y-128083636D01*
X204095939Y-127868624D01*
X203931376Y-127704061D01*
X203716364Y-127615000D01*
X203483636Y-127615000D01*
X203268624Y-127704061D01*
X203104061Y-127868624D01*
X203015000Y-128083636D01*
X203015000Y-128316364D01*
X203104061Y-128531376D01*
X203105001Y-128532316D01*
X203105001Y-128815000D01*
X202983636Y-128815000D01*
X202883707Y-128856392D01*
X202731376Y-128704061D01*
X202516364Y-128615000D01*
X202283636Y-128615000D01*
X202068624Y-128704061D01*
X201904061Y-128868624D01*
X201815000Y-129083636D01*
X192395000Y-129083636D01*
X192395000Y-128332315D01*
X192395939Y-128331376D01*
X192485000Y-128116364D01*
X192485000Y-127883636D01*
X192395939Y-127668624D01*
X192231376Y-127504061D01*
X192016364Y-127415000D01*
X191783636Y-127415000D01*
X191568624Y-127504061D01*
X191404061Y-127668624D01*
X191315000Y-127883636D01*
X191315000Y-128116364D01*
X191404061Y-128331376D01*
X191405001Y-128332316D01*
X191405001Y-128915000D01*
X191183636Y-128915000D01*
X191083707Y-128956392D01*
X191031376Y-128904061D01*
X190816364Y-128815000D01*
X190583636Y-128815000D01*
X190368624Y-128904061D01*
X190204061Y-129068624D01*
X190115000Y-129283636D01*
X179982066Y-129283636D01*
X179816364Y-129215000D01*
X179815035Y-129215000D01*
X179795000Y-129194965D01*
X179795000Y-128732315D01*
X179795939Y-128731376D01*
X179885000Y-128516364D01*
X179885000Y-128283636D01*
X179795939Y-128068624D01*
X179631376Y-127904061D01*
X179416364Y-127815000D01*
X179183636Y-127815000D01*
X178968624Y-127904061D01*
X178804061Y-128068624D01*
X178715000Y-128283636D01*
X170085000Y-128283636D01*
X170085000Y-124050000D01*
X170467458Y-124050000D01*
X170467458Y-125550000D01*
X170497338Y-125700219D01*
X170582431Y-125827569D01*
X170709781Y-125912662D01*
X170860000Y-125942542D01*
X171960000Y-125942542D01*
X172110219Y-125912662D01*
X172237569Y-125827569D01*
X172322662Y-125700219D01*
X172352542Y-125550000D01*
X172352542Y-124050000D01*
X173007458Y-124050000D01*
X173007458Y-125550000D01*
X173037338Y-125700219D01*
X173122431Y-125827569D01*
X173249781Y-125912662D01*
X173400000Y-125942542D01*
X174500000Y-125942542D01*
X174650219Y-125912662D01*
X174777569Y-125827569D01*
X174862662Y-125700219D01*
X174892542Y-125550000D01*
X174892542Y-124050000D01*
X174862662Y-123899781D01*
X174777569Y-123772431D01*
X174650219Y-123687338D01*
X174500000Y-123657458D01*
X174467978Y-123657458D01*
X174485000Y-123616364D01*
X174485000Y-123383636D01*
X174395939Y-123168624D01*
X174231376Y-123004061D01*
X174016364Y-122915000D01*
X173783636Y-122915000D01*
X173568624Y-123004061D01*
X173404061Y-123168624D01*
X173315000Y-123383636D01*
X173315000Y-123616364D01*
X173337196Y-123669950D01*
X173249781Y-123687338D01*
X173122431Y-123772431D01*
X173037338Y-123899781D01*
X173007458Y-124050000D01*
X172352542Y-124050000D01*
X172322662Y-123899781D01*
X172237569Y-123772431D01*
X172110219Y-123687338D01*
X171960000Y-123657458D01*
X171895000Y-123657458D01*
X171895000Y-123132315D01*
X171895939Y-123131376D01*
X171985000Y-122916364D01*
X171985000Y-122683636D01*
X171895939Y-122468624D01*
X171731376Y-122304061D01*
X171516364Y-122215000D01*
X171283636Y-122215000D01*
X171068624Y-122304061D01*
X170904061Y-122468624D01*
X170815000Y-122683636D01*
X170815000Y-122916364D01*
X170904061Y-123131376D01*
X170905000Y-123132315D01*
X170905000Y-123657458D01*
X170860000Y-123657458D01*
X170709781Y-123687338D01*
X170582431Y-123772431D01*
X170497338Y-123899781D01*
X170467458Y-124050000D01*
X170085000Y-124050000D01*
X170085000Y-120383636D01*
X189615000Y-120383636D01*
X189615000Y-120616364D01*
X189704061Y-120831376D01*
X189868624Y-120995939D01*
X190083636Y-121085000D01*
X190316364Y-121085000D01*
X190506293Y-121006329D01*
X192415000Y-122915036D01*
X192415000Y-122916364D01*
X192504061Y-123131376D01*
X192668624Y-123295939D01*
X192883636Y-123385000D01*
X193116364Y-123385000D01*
X193331376Y-123295939D01*
X193495939Y-123131376D01*
X193585000Y-122916364D01*
X193585000Y-122683636D01*
X193495939Y-122468624D01*
X193331376Y-122304061D01*
X193116364Y-122215000D01*
X193115036Y-122215000D01*
X191084492Y-120184457D01*
X191056875Y-120143125D01*
X190893139Y-120033721D01*
X190748750Y-120005000D01*
X190748749Y-120005000D01*
X190700000Y-119995303D01*
X190651251Y-120005000D01*
X190532315Y-120005000D01*
X190531376Y-120004061D01*
X190316364Y-119915000D01*
X190083636Y-119915000D01*
X189868624Y-120004061D01*
X189704061Y-120168624D01*
X189615000Y-120383636D01*
X170085000Y-120383636D01*
X170085000Y-118783636D01*
X201715000Y-118783636D01*
X201715000Y-119016364D01*
X201804061Y-119231376D01*
X201968624Y-119395939D01*
X202183636Y-119485000D01*
X202184965Y-119485000D01*
X203521930Y-120821965D01*
X203286979Y-120919285D01*
X203094285Y-121111979D01*
X202990000Y-121363745D01*
X202990000Y-121636255D01*
X203094285Y-121888021D01*
X203286979Y-122080715D01*
X203349793Y-122106733D01*
X203488485Y-122277432D01*
X203506765Y-122304789D01*
X203527821Y-122325845D01*
X203546606Y-122348965D01*
X203571947Y-122369971D01*
X207169285Y-125967311D01*
X207219285Y-126088021D01*
X207411979Y-126280715D01*
X207532691Y-126330716D01*
X208265000Y-127063026D01*
X208265001Y-135343032D01*
X208215000Y-135463745D01*
X208215000Y-135736255D01*
X208319285Y-135988021D01*
X208511979Y-136180715D01*
X208763745Y-136285000D01*
X209036255Y-136285000D01*
X209288021Y-136180715D01*
X209480715Y-135988021D01*
X209585000Y-135736255D01*
X209585000Y-135463745D01*
X209535000Y-135343034D01*
X209535000Y-129088042D01*
X213262313Y-129088042D01*
X213268010Y-129340596D01*
X213353699Y-129547468D01*
X213426137Y-129560599D01*
X213415082Y-129571654D01*
X213443428Y-129600000D01*
X213415082Y-129628346D01*
X213426137Y-129639401D01*
X213353699Y-129652532D01*
X213262313Y-129888042D01*
X213268010Y-130140596D01*
X213353699Y-130347468D01*
X213426137Y-130360599D01*
X213415082Y-130371654D01*
X213443428Y-130400000D01*
X213415082Y-130428346D01*
X213426137Y-130439401D01*
X213353699Y-130452532D01*
X213262313Y-130688042D01*
X213268010Y-130940596D01*
X213353699Y-131147468D01*
X213474132Y-131169300D01*
X213843431Y-130800000D01*
X213829289Y-130785858D01*
X213885858Y-130729289D01*
X213900000Y-130743431D01*
X213914142Y-130729289D01*
X213970711Y-130785858D01*
X213956569Y-130800000D01*
X213970711Y-130814142D01*
X213914142Y-130870711D01*
X213900000Y-130856569D01*
X213530700Y-131225868D01*
X213552532Y-131346301D01*
X213788042Y-131437687D01*
X214040596Y-131431990D01*
X214247468Y-131346301D01*
X214260599Y-131273863D01*
X214271654Y-131284918D01*
X214300000Y-131256572D01*
X214328346Y-131284918D01*
X214339401Y-131273863D01*
X214352532Y-131346301D01*
X214588042Y-131437687D01*
X214840596Y-131431990D01*
X215047468Y-131346301D01*
X215060599Y-131273863D01*
X215071654Y-131284918D01*
X215100000Y-131256572D01*
X215128346Y-131284918D01*
X215139401Y-131273863D01*
X215152532Y-131346301D01*
X215388042Y-131437687D01*
X215640596Y-131431990D01*
X215847468Y-131346301D01*
X215869300Y-131225868D01*
X215500000Y-130856569D01*
X215485858Y-130870711D01*
X215429289Y-130814142D01*
X215443431Y-130800000D01*
X215429289Y-130785858D01*
X215485858Y-130729289D01*
X215500000Y-130743431D01*
X215514142Y-130729289D01*
X215570711Y-130785858D01*
X215556569Y-130800000D01*
X215925868Y-131169300D01*
X216046301Y-131147468D01*
X216137687Y-130911958D01*
X216131990Y-130659404D01*
X216046301Y-130452532D01*
X215973863Y-130439401D01*
X215984918Y-130428346D01*
X215956572Y-130400000D01*
X215984918Y-130371654D01*
X215973863Y-130360599D01*
X216046301Y-130347468D01*
X216137687Y-130111958D01*
X216131990Y-129859404D01*
X216046301Y-129652532D01*
X215973863Y-129639401D01*
X215984918Y-129628346D01*
X215956572Y-129600000D01*
X215984918Y-129571654D01*
X215973863Y-129560599D01*
X216046301Y-129547468D01*
X216137687Y-129311958D01*
X216131990Y-129059404D01*
X216046301Y-128852532D01*
X215925868Y-128830700D01*
X215556569Y-129200000D01*
X215570711Y-129214142D01*
X215514142Y-129270711D01*
X215500000Y-129256569D01*
X215485858Y-129270711D01*
X215429289Y-129214142D01*
X215443431Y-129200000D01*
X215429289Y-129185858D01*
X215485858Y-129129289D01*
X215500000Y-129143431D01*
X215869300Y-128774132D01*
X215847468Y-128653699D01*
X215611958Y-128562313D01*
X215359404Y-128568010D01*
X215152532Y-128653699D01*
X215139401Y-128726137D01*
X215128346Y-128715082D01*
X215100000Y-128743428D01*
X215071654Y-128715082D01*
X215060599Y-128726137D01*
X215047468Y-128653699D01*
X214811958Y-128562313D01*
X214559404Y-128568010D01*
X214352532Y-128653699D01*
X214339401Y-128726137D01*
X214328346Y-128715082D01*
X214300000Y-128743428D01*
X214271654Y-128715082D01*
X214260599Y-128726137D01*
X214247468Y-128653699D01*
X214011958Y-128562313D01*
X213759404Y-128568010D01*
X213552532Y-128653699D01*
X213530700Y-128774132D01*
X213900000Y-129143431D01*
X213914142Y-129129289D01*
X213970711Y-129185858D01*
X213956569Y-129200000D01*
X213970711Y-129214142D01*
X213914142Y-129270711D01*
X213900000Y-129256569D01*
X213885858Y-129270711D01*
X213829289Y-129214142D01*
X213843431Y-129200000D01*
X213474132Y-128830700D01*
X213353699Y-128852532D01*
X213262313Y-129088042D01*
X209535000Y-129088042D01*
X209535000Y-126862537D01*
X209547439Y-126800000D01*
X209535000Y-126737463D01*
X209535000Y-126737459D01*
X209498157Y-126552235D01*
X209393236Y-126395210D01*
X209393234Y-126395208D01*
X209357809Y-126342191D01*
X209304792Y-126306766D01*
X208430716Y-125432691D01*
X208392108Y-125339484D01*
X208521376Y-125285939D01*
X208548854Y-125258461D01*
X208733636Y-125335000D01*
X208966364Y-125335000D01*
X209181376Y-125245939D01*
X209212996Y-125214319D01*
X209383636Y-125285000D01*
X209616364Y-125285000D01*
X209831376Y-125195939D01*
X209995939Y-125031376D01*
X210085000Y-124816364D01*
X210085000Y-124583636D01*
X209995939Y-124368624D01*
X209831376Y-124204061D01*
X209616364Y-124115000D01*
X209615036Y-124115000D01*
X208183672Y-122683636D01*
X213715000Y-122683636D01*
X213715000Y-122916364D01*
X213804061Y-123131376D01*
X213968624Y-123295939D01*
X214183636Y-123385000D01*
X214416364Y-123385000D01*
X214631376Y-123295939D01*
X214632315Y-123295000D01*
X217451251Y-123295000D01*
X217500000Y-123304697D01*
X217548749Y-123295000D01*
X217548750Y-123295000D01*
X217693139Y-123266279D01*
X217856875Y-123156875D01*
X217884492Y-123115543D01*
X218005035Y-122995000D01*
X218077685Y-122995000D01*
X218004061Y-123068624D01*
X217915000Y-123283636D01*
X217915000Y-123516364D01*
X218004061Y-123731376D01*
X218168624Y-123895939D01*
X218228981Y-123920940D01*
X219165021Y-124856980D01*
X219196263Y-124903737D01*
X219381499Y-125027508D01*
X219544846Y-125060000D01*
X219544849Y-125060000D01*
X219600000Y-125070970D01*
X219655151Y-125060000D01*
X220055154Y-125060000D01*
X220218501Y-125027508D01*
X220264917Y-124996494D01*
X220322431Y-125082569D01*
X220449781Y-125167662D01*
X220600000Y-125197542D01*
X221015000Y-125197542D01*
X221015000Y-125416364D01*
X221104061Y-125631376D01*
X221268624Y-125795939D01*
X221483636Y-125885000D01*
X221716364Y-125885000D01*
X221915000Y-125802722D01*
X221915000Y-127943430D01*
X221768624Y-128004061D01*
X221767685Y-128005000D01*
X218232315Y-128005000D01*
X218231376Y-128004061D01*
X218016364Y-127915000D01*
X217783636Y-127915000D01*
X217568624Y-128004061D01*
X217404061Y-128168624D01*
X217315000Y-128383636D01*
X217315000Y-128616364D01*
X217404061Y-128831376D01*
X217568624Y-128995939D01*
X217783636Y-129085000D01*
X217915000Y-129085000D01*
X217915000Y-129116364D01*
X218004061Y-129331376D01*
X218005000Y-129332315D01*
X218005001Y-131567684D01*
X218004061Y-131568624D01*
X217915000Y-131783636D01*
X217915000Y-132016364D01*
X218004061Y-132231376D01*
X218168624Y-132395939D01*
X218383636Y-132485000D01*
X218616364Y-132485000D01*
X218831376Y-132395939D01*
X218995939Y-132231376D01*
X219085000Y-132016364D01*
X219085000Y-131783636D01*
X218995939Y-131568624D01*
X218995000Y-131567685D01*
X218995000Y-129495000D01*
X220867685Y-129495000D01*
X220868624Y-129495939D01*
X221083636Y-129585000D01*
X221316364Y-129585000D01*
X221531376Y-129495939D01*
X221695939Y-129331376D01*
X221785000Y-129116364D01*
X221785000Y-129002722D01*
X221915000Y-129056570D01*
X221915000Y-129500000D01*
X221921470Y-129532528D01*
X221939896Y-129560104D01*
X221967472Y-129578530D01*
X222000000Y-129585000D01*
X226400000Y-129585000D01*
X226432528Y-129578530D01*
X226460104Y-129560104D01*
X226478530Y-129532528D01*
X226485000Y-129500000D01*
X226485000Y-129096448D01*
X226562662Y-128980219D01*
X226592542Y-128830000D01*
X226592542Y-126150000D01*
X226562662Y-125999781D01*
X226485000Y-125883552D01*
X226485000Y-125400000D01*
X226478530Y-125367472D01*
X226460104Y-125339896D01*
X226432528Y-125321470D01*
X226400000Y-125315000D01*
X222185000Y-125315000D01*
X222185000Y-125197542D01*
X222600000Y-125197542D01*
X222750219Y-125167662D01*
X222877569Y-125082569D01*
X222899289Y-125050062D01*
X222983636Y-125085000D01*
X223216364Y-125085000D01*
X223431376Y-124995939D01*
X223595939Y-124831376D01*
X223685000Y-124616364D01*
X223685000Y-124383636D01*
X223595939Y-124168624D01*
X223431376Y-124004061D01*
X223216364Y-123915000D01*
X222983636Y-123915000D01*
X222899289Y-123949938D01*
X222877569Y-123917431D01*
X222865305Y-123909237D01*
X222885000Y-123861690D01*
X222885000Y-123576250D01*
X222813750Y-123505000D01*
X221605000Y-123505000D01*
X221605000Y-123525000D01*
X221595000Y-123525000D01*
X221595000Y-123505000D01*
X220386250Y-123505000D01*
X220315000Y-123576250D01*
X220315000Y-123861690D01*
X220334695Y-123909237D01*
X220322431Y-123917431D01*
X220264917Y-124003506D01*
X220218501Y-123972492D01*
X220055154Y-123940000D01*
X219831959Y-123940000D01*
X219020940Y-123128981D01*
X218995939Y-123068624D01*
X218922315Y-122995000D01*
X220115000Y-122995000D01*
X220115000Y-123000000D01*
X220121470Y-123032528D01*
X220139896Y-123060104D01*
X220167472Y-123078530D01*
X220200000Y-123085000D01*
X220326069Y-123085000D01*
X220334695Y-123090763D01*
X220315000Y-123138310D01*
X220315000Y-123423750D01*
X220386250Y-123495000D01*
X221595000Y-123495000D01*
X221595000Y-123475000D01*
X221605000Y-123475000D01*
X221605000Y-123495000D01*
X222813750Y-123495000D01*
X222885000Y-123423750D01*
X222885000Y-123138310D01*
X222865305Y-123090763D01*
X222873931Y-123085000D01*
X222900000Y-123085000D01*
X222932528Y-123078530D01*
X222960104Y-123060104D01*
X222978530Y-123032528D01*
X222985000Y-123000000D01*
X222985000Y-122842917D01*
X222992542Y-122805000D01*
X222992542Y-122195000D01*
X222985000Y-122157083D01*
X222985000Y-121842917D01*
X222992542Y-121805000D01*
X222992542Y-121195000D01*
X222985000Y-121157083D01*
X222985000Y-121085000D01*
X223216364Y-121085000D01*
X223431376Y-120995939D01*
X223595939Y-120831376D01*
X223685000Y-120616364D01*
X223685000Y-120383636D01*
X223595939Y-120168624D01*
X223431376Y-120004061D01*
X223421572Y-120000000D01*
X223431376Y-119995939D01*
X223595939Y-119831376D01*
X223685000Y-119616364D01*
X223685000Y-119383636D01*
X223595939Y-119168624D01*
X223431376Y-119004061D01*
X223216364Y-118915000D01*
X222985000Y-118915000D01*
X222985000Y-118800000D01*
X222978530Y-118767472D01*
X222960104Y-118739896D01*
X222932528Y-118721470D01*
X222900000Y-118715000D01*
X220200000Y-118715000D01*
X220167472Y-118721470D01*
X220139896Y-118739896D01*
X220121470Y-118767472D01*
X220115000Y-118800000D01*
X220115000Y-118915000D01*
X219883636Y-118915000D01*
X219668624Y-119004061D01*
X219504061Y-119168624D01*
X219415000Y-119383636D01*
X219415000Y-119616364D01*
X219504061Y-119831376D01*
X219668624Y-119995939D01*
X219815788Y-120056897D01*
X219704061Y-120168624D01*
X219615000Y-120383636D01*
X219615000Y-120616364D01*
X219704061Y-120831376D01*
X219868624Y-120995939D01*
X220083636Y-121085000D01*
X220115000Y-121085000D01*
X220115000Y-122005000D01*
X217848748Y-122005000D01*
X217799999Y-121995303D01*
X217751250Y-122005000D01*
X217606861Y-122033721D01*
X217443125Y-122143125D01*
X217415508Y-122184457D01*
X217294965Y-122305000D01*
X214632315Y-122305000D01*
X214631376Y-122304061D01*
X214416364Y-122215000D01*
X214183636Y-122215000D01*
X213968624Y-122304061D01*
X213804061Y-122468624D01*
X213715000Y-122683636D01*
X208183672Y-122683636D01*
X203485000Y-117984965D01*
X203485000Y-117983636D01*
X203395939Y-117768624D01*
X203231376Y-117604061D01*
X203016364Y-117515000D01*
X202783636Y-117515000D01*
X202568624Y-117604061D01*
X202404061Y-117768624D01*
X202315000Y-117983636D01*
X202315000Y-118216364D01*
X202355856Y-118315000D01*
X202183636Y-118315000D01*
X201968624Y-118404061D01*
X201804061Y-118568624D01*
X201715000Y-118783636D01*
X170085000Y-118783636D01*
X170085000Y-115704615D01*
X170515000Y-115704615D01*
X170515000Y-116295385D01*
X170741078Y-116841185D01*
X171158815Y-117258922D01*
X171704615Y-117485000D01*
X172295385Y-117485000D01*
X172841185Y-117258922D01*
X173258922Y-116841185D01*
X173407023Y-116483636D01*
X190815000Y-116483636D01*
X190815000Y-116716364D01*
X190904061Y-116931376D01*
X190905001Y-116932316D01*
X190905000Y-117451251D01*
X190895303Y-117500000D01*
X190905000Y-117548749D01*
X190933721Y-117693138D01*
X191043125Y-117856875D01*
X191084456Y-117884492D01*
X191215000Y-118015035D01*
X191215000Y-118016364D01*
X191304061Y-118231376D01*
X191468624Y-118395939D01*
X191683636Y-118485000D01*
X191916364Y-118485000D01*
X192131376Y-118395939D01*
X192295939Y-118231376D01*
X192385000Y-118016364D01*
X192385000Y-117783636D01*
X192295939Y-117568624D01*
X192131376Y-117404061D01*
X191916364Y-117315000D01*
X191915035Y-117315000D01*
X191895000Y-117294965D01*
X191895000Y-116932315D01*
X191895939Y-116931376D01*
X191985000Y-116716364D01*
X191985000Y-116483636D01*
X191895939Y-116268624D01*
X191731376Y-116104061D01*
X191516364Y-116015000D01*
X191283636Y-116015000D01*
X191068624Y-116104061D01*
X190904061Y-116268624D01*
X190815000Y-116483636D01*
X173407023Y-116483636D01*
X173485000Y-116295385D01*
X173485000Y-115704615D01*
X173258922Y-115158815D01*
X172841185Y-114741078D01*
X172295385Y-114515000D01*
X171704615Y-114515000D01*
X171158815Y-114741078D01*
X170741078Y-115158815D01*
X170515000Y-115704615D01*
X170085000Y-115704615D01*
X170085000Y-114511192D01*
X170143197Y-114293998D01*
X170293998Y-114143197D01*
X170511192Y-114085000D01*
X174500000Y-114085000D01*
X174522000Y-114082104D01*
X174772000Y-114015117D01*
X174810104Y-113993117D01*
X174993117Y-113810104D01*
X175015117Y-113772000D01*
X175082104Y-113522000D01*
X175085000Y-113500000D01*
X175085000Y-112683636D01*
X206115000Y-112683636D01*
X206115000Y-112916364D01*
X206204061Y-113131376D01*
X206368624Y-113295939D01*
X206583636Y-113385000D01*
X206584965Y-113385000D01*
X209205001Y-116005037D01*
X209205000Y-116367685D01*
X209204061Y-116368624D01*
X209115000Y-116583636D01*
X209115000Y-116816364D01*
X209204061Y-117031376D01*
X209205000Y-117032315D01*
X209205000Y-117151251D01*
X209195303Y-117200000D01*
X209205000Y-117248749D01*
X209233721Y-117393138D01*
X209343125Y-117556875D01*
X209384457Y-117584492D01*
X211015510Y-119215546D01*
X211043125Y-119256875D01*
X211206861Y-119366279D01*
X211351250Y-119395000D01*
X211399999Y-119404697D01*
X211448748Y-119395000D01*
X212067685Y-119395000D01*
X212068624Y-119395939D01*
X212283636Y-119485000D01*
X212516364Y-119485000D01*
X212731376Y-119395939D01*
X212895939Y-119231376D01*
X212985000Y-119016364D01*
X212985000Y-118783636D01*
X212895939Y-118568624D01*
X212731376Y-118404061D01*
X212516364Y-118315000D01*
X212283636Y-118315000D01*
X212068624Y-118404061D01*
X212067685Y-118405000D01*
X211605036Y-118405000D01*
X210206329Y-117006293D01*
X210285000Y-116816364D01*
X210285000Y-116583636D01*
X210195939Y-116368624D01*
X210195000Y-116367685D01*
X210195000Y-115848750D01*
X210204697Y-115800000D01*
X210185724Y-115704615D01*
X214515000Y-115704615D01*
X214515000Y-116295385D01*
X214741078Y-116841185D01*
X215158815Y-117258922D01*
X215704615Y-117485000D01*
X216295385Y-117485000D01*
X216841185Y-117258922D01*
X217258922Y-116841185D01*
X217485000Y-116295385D01*
X217485000Y-115704615D01*
X217258922Y-115158815D01*
X216841185Y-114741078D01*
X216500593Y-114600000D01*
X221915000Y-114600000D01*
X221915000Y-118600000D01*
X221921470Y-118632528D01*
X221939896Y-118660104D01*
X221967472Y-118678530D01*
X222000000Y-118685000D01*
X226400000Y-118685000D01*
X226432528Y-118678530D01*
X226460104Y-118660104D01*
X226478530Y-118632528D01*
X226485000Y-118600000D01*
X226485000Y-118116448D01*
X226562662Y-118000219D01*
X226592542Y-117850000D01*
X226592542Y-115170000D01*
X226562662Y-115019781D01*
X226485000Y-114903552D01*
X226485000Y-114600000D01*
X226478530Y-114567472D01*
X226460104Y-114539896D01*
X226432528Y-114521470D01*
X226400000Y-114515000D01*
X222000000Y-114515000D01*
X221967472Y-114521470D01*
X221939896Y-114539896D01*
X221921470Y-114567472D01*
X221915000Y-114600000D01*
X216500593Y-114600000D01*
X216295385Y-114515000D01*
X215704615Y-114515000D01*
X215158815Y-114741078D01*
X214741078Y-115158815D01*
X214515000Y-115704615D01*
X210185724Y-115704615D01*
X210166279Y-115606861D01*
X210084489Y-115484453D01*
X210056875Y-115443125D01*
X210015546Y-115415510D01*
X207285000Y-112684965D01*
X207285000Y-112683636D01*
X207195939Y-112468624D01*
X207031376Y-112304061D01*
X206816364Y-112215000D01*
X206583636Y-112215000D01*
X206368624Y-112304061D01*
X206204061Y-112468624D01*
X206115000Y-112683636D01*
X175085000Y-112683636D01*
X175085000Y-109511192D01*
X175143197Y-109293998D01*
X175293998Y-109143197D01*
X175511192Y-109085000D01*
X212488808Y-109085000D01*
X212706002Y-109143197D01*
X212706002Y-109143197D01*
G37*
X212706002Y-109143197D02*
X212856803Y-109293998D01*
X212915000Y-109511192D01*
X212915000Y-113500000D01*
X212917896Y-113522000D01*
X212984883Y-113772000D01*
X213006883Y-113810104D01*
X213189896Y-113993117D01*
X213228000Y-114015117D01*
X213478000Y-114082104D01*
X213500000Y-114085000D01*
X227586389Y-114085000D01*
X227804170Y-114143540D01*
X227955054Y-114295143D01*
X228012556Y-114513200D01*
X227917424Y-134490819D01*
X227858539Y-134707141D01*
X227707818Y-134857147D01*
X227491220Y-134915000D01*
X219500000Y-134915000D01*
X219478000Y-134917896D01*
X219228000Y-134984883D01*
X219189896Y-135006883D01*
X219006883Y-135189896D01*
X218984883Y-135228000D01*
X218917896Y-135478000D01*
X218915000Y-135500000D01*
X218915000Y-141488808D01*
X218856803Y-141706002D01*
X218706002Y-141856803D01*
X218488808Y-141915000D01*
X213500000Y-141915000D01*
X213478000Y-141917896D01*
X213228000Y-141984883D01*
X213189896Y-142006883D01*
X213006883Y-142189896D01*
X212984883Y-142228000D01*
X212917896Y-142478000D01*
X212915000Y-142500000D01*
X212915000Y-146488808D01*
X212856803Y-146706002D01*
X212706002Y-146856803D01*
X212488808Y-146915000D01*
X175511192Y-146915000D01*
X175293998Y-146856803D01*
X175143197Y-146706002D01*
X175085000Y-146488808D01*
X175085000Y-142500000D01*
X175082104Y-142478000D01*
X175015117Y-142228000D01*
X174993117Y-142189896D01*
X174810104Y-142006883D01*
X174772000Y-141984883D01*
X174522000Y-141917896D01*
X174500000Y-141915000D01*
X170511192Y-141915000D01*
X170293998Y-141856803D01*
X170143197Y-141706002D01*
X170085000Y-141488808D01*
X170085000Y-139704615D01*
X170515000Y-139704615D01*
X170515000Y-140295385D01*
X170741078Y-140841185D01*
X171158815Y-141258922D01*
X171704615Y-141485000D01*
X172295385Y-141485000D01*
X172841185Y-141258922D01*
X173258922Y-140841185D01*
X173485000Y-140295385D01*
X173485000Y-140283636D01*
X178715000Y-140283636D01*
X178715000Y-140516364D01*
X178804061Y-140731376D01*
X178805001Y-140732316D01*
X178805000Y-141351250D01*
X178795303Y-141400000D01*
X178805000Y-141448749D01*
X178833721Y-141593138D01*
X178943125Y-141756875D01*
X178984456Y-141784492D01*
X179115000Y-141915035D01*
X179115000Y-141916364D01*
X179204061Y-142131376D01*
X179368624Y-142295939D01*
X179583636Y-142385000D01*
X179816364Y-142385000D01*
X180031376Y-142295939D01*
X180195939Y-142131376D01*
X180285000Y-141916364D01*
X180285000Y-141683636D01*
X180195939Y-141468624D01*
X180031376Y-141304061D01*
X179982066Y-141283636D01*
X190115000Y-141283636D01*
X190115000Y-141516364D01*
X190204061Y-141731376D01*
X190205000Y-141732315D01*
X190205001Y-143267684D01*
X190204061Y-143268624D01*
X190115000Y-143483636D01*
X190115000Y-143716364D01*
X190204061Y-143931376D01*
X190368624Y-144095939D01*
X190583636Y-144185000D01*
X190816364Y-144185000D01*
X191031376Y-144095939D01*
X191083707Y-144043608D01*
X191183636Y-144085000D01*
X191416364Y-144085000D01*
X191631376Y-143995939D01*
X191650000Y-143977315D01*
X191668624Y-143995939D01*
X191883636Y-144085000D01*
X192116364Y-144085000D01*
X192331376Y-143995939D01*
X192495939Y-143831376D01*
X192585000Y-143616364D01*
X192585000Y-143383636D01*
X192495939Y-143168624D01*
X192395000Y-143067685D01*
X192395000Y-141083636D01*
X201815000Y-141083636D01*
X201815000Y-141316364D01*
X201904061Y-141531376D01*
X201905001Y-141532316D01*
X201905000Y-145151251D01*
X201895303Y-145200000D01*
X201905000Y-145248749D01*
X201915000Y-145299022D01*
X201915000Y-145416364D01*
X202004061Y-145631376D01*
X202168624Y-145795939D01*
X202383636Y-145885000D01*
X202616364Y-145885000D01*
X202831376Y-145795939D01*
X202912996Y-145714319D01*
X203083636Y-145785000D01*
X203316364Y-145785000D01*
X203531376Y-145695939D01*
X203683707Y-145543608D01*
X203783636Y-145585000D01*
X204016364Y-145585000D01*
X204231376Y-145495939D01*
X204395939Y-145331376D01*
X204485000Y-145116364D01*
X204485000Y-144883636D01*
X204395939Y-144668624D01*
X204395000Y-144667685D01*
X204395000Y-140232315D01*
X204395939Y-140231376D01*
X204485000Y-140016364D01*
X204485000Y-139783636D01*
X204452269Y-139704615D01*
X214515000Y-139704615D01*
X214515000Y-140295385D01*
X214741078Y-140841185D01*
X215158815Y-141258922D01*
X215704615Y-141485000D01*
X216295385Y-141485000D01*
X216841185Y-141258922D01*
X217258922Y-140841185D01*
X217485000Y-140295385D01*
X217485000Y-139704615D01*
X217258922Y-139158815D01*
X216841185Y-138741078D01*
X216295385Y-138515000D01*
X215704615Y-138515000D01*
X215158815Y-138741078D01*
X214741078Y-139158815D01*
X214515000Y-139704615D01*
X204452269Y-139704615D01*
X204395939Y-139568624D01*
X204231376Y-139404061D01*
X204016364Y-139315000D01*
X203783636Y-139315000D01*
X203568624Y-139404061D01*
X203404061Y-139568624D01*
X203315000Y-139783636D01*
X203315000Y-140016364D01*
X203404061Y-140231376D01*
X203405000Y-140232315D01*
X203405000Y-140893136D01*
X203216364Y-140815000D01*
X202983636Y-140815000D01*
X202883707Y-140856392D01*
X202731376Y-140704061D01*
X202516364Y-140615000D01*
X202283636Y-140615000D01*
X202068624Y-140704061D01*
X201904061Y-140868624D01*
X201815000Y-141083636D01*
X192395000Y-141083636D01*
X192395000Y-140332315D01*
X192395939Y-140331376D01*
X192485000Y-140116364D01*
X192485000Y-139883636D01*
X192395939Y-139668624D01*
X192231376Y-139504061D01*
X192016364Y-139415000D01*
X191783636Y-139415000D01*
X191568624Y-139504061D01*
X191404061Y-139668624D01*
X191315000Y-139883636D01*
X191315000Y-140116364D01*
X191404061Y-140331376D01*
X191405001Y-140332316D01*
X191405001Y-140915000D01*
X191183636Y-140915000D01*
X191083707Y-140956392D01*
X191031376Y-140904061D01*
X190816364Y-140815000D01*
X190583636Y-140815000D01*
X190368624Y-140904061D01*
X190204061Y-141068624D01*
X190115000Y-141283636D01*
X179982066Y-141283636D01*
X179816364Y-141215000D01*
X179815035Y-141215000D01*
X179795000Y-141194965D01*
X179795000Y-140732315D01*
X179795939Y-140731376D01*
X179885000Y-140516364D01*
X179885000Y-140283636D01*
X179795939Y-140068624D01*
X179631376Y-139904061D01*
X179416364Y-139815000D01*
X179183636Y-139815000D01*
X178968624Y-139904061D01*
X178804061Y-140068624D01*
X178715000Y-140283636D01*
X173485000Y-140283636D01*
X173485000Y-139704615D01*
X173258922Y-139158815D01*
X172841185Y-138741078D01*
X172295385Y-138515000D01*
X171704615Y-138515000D01*
X171158815Y-138741078D01*
X170741078Y-139158815D01*
X170515000Y-139704615D01*
X170085000Y-139704615D01*
X170085000Y-133776250D01*
X170575000Y-133776250D01*
X170575000Y-134506690D01*
X170618389Y-134611440D01*
X170698560Y-134691611D01*
X170803310Y-134735000D01*
X171333750Y-134735000D01*
X171405000Y-134663750D01*
X171405000Y-133705000D01*
X171415000Y-133705000D01*
X171415000Y-134663750D01*
X171486250Y-134735000D01*
X172016690Y-134735000D01*
X172121440Y-134691611D01*
X172201611Y-134611440D01*
X172245000Y-134506690D01*
X172245000Y-133776250D01*
X173115000Y-133776250D01*
X173115000Y-134506690D01*
X173158389Y-134611440D01*
X173238560Y-134691611D01*
X173343310Y-134735000D01*
X173873750Y-134735000D01*
X173945000Y-134663750D01*
X173945000Y-133705000D01*
X173955000Y-133705000D01*
X173955000Y-134663750D01*
X174026250Y-134735000D01*
X174556690Y-134735000D01*
X174661440Y-134691611D01*
X174741611Y-134611440D01*
X174785000Y-134506690D01*
X174785000Y-133776250D01*
X174713750Y-133705000D01*
X173955000Y-133705000D01*
X173945000Y-133705000D01*
X173186250Y-133705000D01*
X173115000Y-133776250D01*
X172245000Y-133776250D01*
X172173750Y-133705000D01*
X171415000Y-133705000D01*
X171405000Y-133705000D01*
X170646250Y-133705000D01*
X170575000Y-133776250D01*
X170085000Y-133776250D01*
X170085000Y-132893310D01*
X170575000Y-132893310D01*
X170575000Y-133623750D01*
X170646250Y-133695000D01*
X171405000Y-133695000D01*
X171405000Y-132736250D01*
X171415000Y-132736250D01*
X171415000Y-133695000D01*
X172173750Y-133695000D01*
X172245000Y-133623750D01*
X172245000Y-132893310D01*
X173115000Y-132893310D01*
X173115000Y-133623750D01*
X173186250Y-133695000D01*
X173945000Y-133695000D01*
X173945000Y-132736250D01*
X173955000Y-132736250D01*
X173955000Y-133695000D01*
X174713750Y-133695000D01*
X174785000Y-133623750D01*
X174785000Y-132893310D01*
X174741611Y-132788560D01*
X174661440Y-132708389D01*
X174556690Y-132665000D01*
X174026250Y-132665000D01*
X173955000Y-132736250D01*
X173945000Y-132736250D01*
X173873750Y-132665000D01*
X173343310Y-132665000D01*
X173238560Y-132708389D01*
X173158389Y-132788560D01*
X173115000Y-132893310D01*
X172245000Y-132893310D01*
X172201611Y-132788560D01*
X172121440Y-132708389D01*
X172016690Y-132665000D01*
X171486250Y-132665000D01*
X171415000Y-132736250D01*
X171405000Y-132736250D01*
X171333750Y-132665000D01*
X170803310Y-132665000D01*
X170698560Y-132708389D01*
X170618389Y-132788560D01*
X170575000Y-132893310D01*
X170085000Y-132893310D01*
X170085000Y-128283636D01*
X178715000Y-128283636D01*
X178715000Y-128516364D01*
X178804061Y-128731376D01*
X178805001Y-128732316D01*
X178805000Y-129351250D01*
X178795303Y-129400000D01*
X178805000Y-129448749D01*
X178833721Y-129593138D01*
X178943125Y-129756875D01*
X178984456Y-129784492D01*
X179115000Y-129915035D01*
X179115000Y-129916364D01*
X179204061Y-130131376D01*
X179368624Y-130295939D01*
X179583636Y-130385000D01*
X179816364Y-130385000D01*
X180031376Y-130295939D01*
X180195939Y-130131376D01*
X180285000Y-129916364D01*
X180285000Y-129683636D01*
X180195939Y-129468624D01*
X180031376Y-129304061D01*
X179982066Y-129283636D01*
X190115000Y-129283636D01*
X190115000Y-129516364D01*
X190204061Y-129731376D01*
X190205000Y-129732315D01*
X190205001Y-131267684D01*
X190204061Y-131268624D01*
X190115000Y-131483636D01*
X190115000Y-131716364D01*
X190204061Y-131931376D01*
X190368624Y-132095939D01*
X190583636Y-132185000D01*
X190816364Y-132185000D01*
X191031376Y-132095939D01*
X191083707Y-132043608D01*
X191183636Y-132085000D01*
X191416364Y-132085000D01*
X191631376Y-131995939D01*
X191650000Y-131977315D01*
X191668624Y-131995939D01*
X191883636Y-132085000D01*
X192116364Y-132085000D01*
X192331376Y-131995939D01*
X192495939Y-131831376D01*
X192585000Y-131616364D01*
X192585000Y-131383636D01*
X192495939Y-131168624D01*
X192395000Y-131067685D01*
X192395000Y-129083636D01*
X201815000Y-129083636D01*
X201815000Y-129316364D01*
X201904061Y-129531376D01*
X201905001Y-129532316D01*
X201905000Y-133151251D01*
X201895303Y-133200000D01*
X201905000Y-133248749D01*
X201915000Y-133299022D01*
X201915000Y-133416364D01*
X202004061Y-133631376D01*
X202168624Y-133795939D01*
X202383636Y-133885000D01*
X202616364Y-133885000D01*
X202831376Y-133795939D01*
X202912996Y-133714319D01*
X203083636Y-133785000D01*
X203316364Y-133785000D01*
X203531376Y-133695939D01*
X203683707Y-133543608D01*
X203783636Y-133585000D01*
X204016364Y-133585000D01*
X204231376Y-133495939D01*
X204395939Y-133331376D01*
X204485000Y-133116364D01*
X204485000Y-132883636D01*
X204395939Y-132668624D01*
X204231376Y-132504061D01*
X204095000Y-132447572D01*
X204095000Y-128532315D01*
X204095939Y-128531376D01*
X204185000Y-128316364D01*
X204185000Y-128083636D01*
X204095939Y-127868624D01*
X203931376Y-127704061D01*
X203716364Y-127615000D01*
X203483636Y-127615000D01*
X203268624Y-127704061D01*
X203104061Y-127868624D01*
X203015000Y-128083636D01*
X203015000Y-128316364D01*
X203104061Y-128531376D01*
X203105001Y-128532316D01*
X203105001Y-128815000D01*
X202983636Y-128815000D01*
X202883707Y-128856392D01*
X202731376Y-128704061D01*
X202516364Y-128615000D01*
X202283636Y-128615000D01*
X202068624Y-128704061D01*
X201904061Y-128868624D01*
X201815000Y-129083636D01*
X192395000Y-129083636D01*
X192395000Y-128332315D01*
X192395939Y-128331376D01*
X192485000Y-128116364D01*
X192485000Y-127883636D01*
X192395939Y-127668624D01*
X192231376Y-127504061D01*
X192016364Y-127415000D01*
X191783636Y-127415000D01*
X191568624Y-127504061D01*
X191404061Y-127668624D01*
X191315000Y-127883636D01*
X191315000Y-128116364D01*
X191404061Y-128331376D01*
X191405001Y-128332316D01*
X191405001Y-128915000D01*
X191183636Y-128915000D01*
X191083707Y-128956392D01*
X191031376Y-128904061D01*
X190816364Y-128815000D01*
X190583636Y-128815000D01*
X190368624Y-128904061D01*
X190204061Y-129068624D01*
X190115000Y-129283636D01*
X179982066Y-129283636D01*
X179816364Y-129215000D01*
X179815035Y-129215000D01*
X179795000Y-129194965D01*
X179795000Y-128732315D01*
X179795939Y-128731376D01*
X179885000Y-128516364D01*
X179885000Y-128283636D01*
X179795939Y-128068624D01*
X179631376Y-127904061D01*
X179416364Y-127815000D01*
X179183636Y-127815000D01*
X178968624Y-127904061D01*
X178804061Y-128068624D01*
X178715000Y-128283636D01*
X170085000Y-128283636D01*
X170085000Y-124050000D01*
X170467458Y-124050000D01*
X170467458Y-125550000D01*
X170497338Y-125700219D01*
X170582431Y-125827569D01*
X170709781Y-125912662D01*
X170860000Y-125942542D01*
X171960000Y-125942542D01*
X172110219Y-125912662D01*
X172237569Y-125827569D01*
X172322662Y-125700219D01*
X172352542Y-125550000D01*
X172352542Y-124050000D01*
X173007458Y-124050000D01*
X173007458Y-125550000D01*
X173037338Y-125700219D01*
X173122431Y-125827569D01*
X173249781Y-125912662D01*
X173400000Y-125942542D01*
X174500000Y-125942542D01*
X174650219Y-125912662D01*
X174777569Y-125827569D01*
X174862662Y-125700219D01*
X174892542Y-125550000D01*
X174892542Y-124050000D01*
X174862662Y-123899781D01*
X174777569Y-123772431D01*
X174650219Y-123687338D01*
X174500000Y-123657458D01*
X174467978Y-123657458D01*
X174485000Y-123616364D01*
X174485000Y-123383636D01*
X174395939Y-123168624D01*
X174231376Y-123004061D01*
X174016364Y-122915000D01*
X173783636Y-122915000D01*
X173568624Y-123004061D01*
X173404061Y-123168624D01*
X173315000Y-123383636D01*
X173315000Y-123616364D01*
X173337196Y-123669950D01*
X173249781Y-123687338D01*
X173122431Y-123772431D01*
X173037338Y-123899781D01*
X173007458Y-124050000D01*
X172352542Y-124050000D01*
X172322662Y-123899781D01*
X172237569Y-123772431D01*
X172110219Y-123687338D01*
X171960000Y-123657458D01*
X171895000Y-123657458D01*
X171895000Y-123132315D01*
X171895939Y-123131376D01*
X171985000Y-122916364D01*
X171985000Y-122683636D01*
X171895939Y-122468624D01*
X171731376Y-122304061D01*
X171516364Y-122215000D01*
X171283636Y-122215000D01*
X171068624Y-122304061D01*
X170904061Y-122468624D01*
X170815000Y-122683636D01*
X170815000Y-122916364D01*
X170904061Y-123131376D01*
X170905000Y-123132315D01*
X170905000Y-123657458D01*
X170860000Y-123657458D01*
X170709781Y-123687338D01*
X170582431Y-123772431D01*
X170497338Y-123899781D01*
X170467458Y-124050000D01*
X170085000Y-124050000D01*
X170085000Y-120383636D01*
X189615000Y-120383636D01*
X189615000Y-120616364D01*
X189704061Y-120831376D01*
X189868624Y-120995939D01*
X190083636Y-121085000D01*
X190316364Y-121085000D01*
X190506293Y-121006329D01*
X192415000Y-122915036D01*
X192415000Y-122916364D01*
X192504061Y-123131376D01*
X192668624Y-123295939D01*
X192883636Y-123385000D01*
X193116364Y-123385000D01*
X193331376Y-123295939D01*
X193495939Y-123131376D01*
X193585000Y-122916364D01*
X193585000Y-122683636D01*
X193495939Y-122468624D01*
X193331376Y-122304061D01*
X193116364Y-122215000D01*
X193115036Y-122215000D01*
X191084492Y-120184457D01*
X191056875Y-120143125D01*
X190893139Y-120033721D01*
X190748750Y-120005000D01*
X190748749Y-120005000D01*
X190700000Y-119995303D01*
X190651251Y-120005000D01*
X190532315Y-120005000D01*
X190531376Y-120004061D01*
X190316364Y-119915000D01*
X190083636Y-119915000D01*
X189868624Y-120004061D01*
X189704061Y-120168624D01*
X189615000Y-120383636D01*
X170085000Y-120383636D01*
X170085000Y-118783636D01*
X201715000Y-118783636D01*
X201715000Y-119016364D01*
X201804061Y-119231376D01*
X201968624Y-119395939D01*
X202183636Y-119485000D01*
X202184965Y-119485000D01*
X203521930Y-120821965D01*
X203286979Y-120919285D01*
X203094285Y-121111979D01*
X202990000Y-121363745D01*
X202990000Y-121636255D01*
X203094285Y-121888021D01*
X203286979Y-122080715D01*
X203349793Y-122106733D01*
X203488485Y-122277432D01*
X203506765Y-122304789D01*
X203527821Y-122325845D01*
X203546606Y-122348965D01*
X203571947Y-122369971D01*
X207169285Y-125967311D01*
X207219285Y-126088021D01*
X207411979Y-126280715D01*
X207532691Y-126330716D01*
X208265000Y-127063026D01*
X208265001Y-135343032D01*
X208215000Y-135463745D01*
X208215000Y-135736255D01*
X208319285Y-135988021D01*
X208511979Y-136180715D01*
X208763745Y-136285000D01*
X209036255Y-136285000D01*
X209288021Y-136180715D01*
X209480715Y-135988021D01*
X209585000Y-135736255D01*
X209585000Y-135463745D01*
X209535000Y-135343034D01*
X209535000Y-129088042D01*
X213262313Y-129088042D01*
X213268010Y-129340596D01*
X213353699Y-129547468D01*
X213426137Y-129560599D01*
X213415082Y-129571654D01*
X213443428Y-129600000D01*
X213415082Y-129628346D01*
X213426137Y-129639401D01*
X213353699Y-129652532D01*
X213262313Y-129888042D01*
X213268010Y-130140596D01*
X213353699Y-130347468D01*
X213426137Y-130360599D01*
X213415082Y-130371654D01*
X213443428Y-130400000D01*
X213415082Y-130428346D01*
X213426137Y-130439401D01*
X213353699Y-130452532D01*
X213262313Y-130688042D01*
X213268010Y-130940596D01*
X213353699Y-131147468D01*
X213474132Y-131169300D01*
X213843431Y-130800000D01*
X213829289Y-130785858D01*
X213885858Y-130729289D01*
X213900000Y-130743431D01*
X213914142Y-130729289D01*
X213970711Y-130785858D01*
X213956569Y-130800000D01*
X213970711Y-130814142D01*
X213914142Y-130870711D01*
X213900000Y-130856569D01*
X213530700Y-131225868D01*
X213552532Y-131346301D01*
X213788042Y-131437687D01*
X214040596Y-131431990D01*
X214247468Y-131346301D01*
X214260599Y-131273863D01*
X214271654Y-131284918D01*
X214300000Y-131256572D01*
X214328346Y-131284918D01*
X214339401Y-131273863D01*
X214352532Y-131346301D01*
X214588042Y-131437687D01*
X214840596Y-131431990D01*
X215047468Y-131346301D01*
X215060599Y-131273863D01*
X215071654Y-131284918D01*
X215100000Y-131256572D01*
X215128346Y-131284918D01*
X215139401Y-131273863D01*
X215152532Y-131346301D01*
X215388042Y-131437687D01*
X215640596Y-131431990D01*
X215847468Y-131346301D01*
X215869300Y-131225868D01*
X215500000Y-130856569D01*
X215485858Y-130870711D01*
X215429289Y-130814142D01*
X215443431Y-130800000D01*
X215429289Y-130785858D01*
X215485858Y-130729289D01*
X215500000Y-130743431D01*
X215514142Y-130729289D01*
X215570711Y-130785858D01*
X215556569Y-130800000D01*
X215925868Y-131169300D01*
X216046301Y-131147468D01*
X216137687Y-130911958D01*
X216131990Y-130659404D01*
X216046301Y-130452532D01*
X215973863Y-130439401D01*
X215984918Y-130428346D01*
X215956572Y-130400000D01*
X215984918Y-130371654D01*
X215973863Y-130360599D01*
X216046301Y-130347468D01*
X216137687Y-130111958D01*
X216131990Y-129859404D01*
X216046301Y-129652532D01*
X215973863Y-129639401D01*
X215984918Y-129628346D01*
X215956572Y-129600000D01*
X215984918Y-129571654D01*
X215973863Y-129560599D01*
X216046301Y-129547468D01*
X216137687Y-129311958D01*
X216131990Y-129059404D01*
X216046301Y-128852532D01*
X215925868Y-128830700D01*
X215556569Y-129200000D01*
X215570711Y-129214142D01*
X215514142Y-129270711D01*
X215500000Y-129256569D01*
X215485858Y-129270711D01*
X215429289Y-129214142D01*
X215443431Y-129200000D01*
X215429289Y-129185858D01*
X215485858Y-129129289D01*
X215500000Y-129143431D01*
X215869300Y-128774132D01*
X215847468Y-128653699D01*
X215611958Y-128562313D01*
X215359404Y-128568010D01*
X215152532Y-128653699D01*
X215139401Y-128726137D01*
X215128346Y-128715082D01*
X215100000Y-128743428D01*
X215071654Y-128715082D01*
X215060599Y-128726137D01*
X215047468Y-128653699D01*
X214811958Y-128562313D01*
X214559404Y-128568010D01*
X214352532Y-128653699D01*
X214339401Y-128726137D01*
X214328346Y-128715082D01*
X214300000Y-128743428D01*
X214271654Y-128715082D01*
X214260599Y-128726137D01*
X214247468Y-128653699D01*
X214011958Y-128562313D01*
X213759404Y-128568010D01*
X213552532Y-128653699D01*
X213530700Y-128774132D01*
X213900000Y-129143431D01*
X213914142Y-129129289D01*
X213970711Y-129185858D01*
X213956569Y-129200000D01*
X213970711Y-129214142D01*
X213914142Y-129270711D01*
X213900000Y-129256569D01*
X213885858Y-129270711D01*
X213829289Y-129214142D01*
X213843431Y-129200000D01*
X213474132Y-128830700D01*
X213353699Y-128852532D01*
X213262313Y-129088042D01*
X209535000Y-129088042D01*
X209535000Y-126862537D01*
X209547439Y-126800000D01*
X209535000Y-126737463D01*
X209535000Y-126737459D01*
X209498157Y-126552235D01*
X209393236Y-126395210D01*
X209393234Y-126395208D01*
X209357809Y-126342191D01*
X209304792Y-126306766D01*
X208430716Y-125432691D01*
X208392108Y-125339484D01*
X208521376Y-125285939D01*
X208548854Y-125258461D01*
X208733636Y-125335000D01*
X208966364Y-125335000D01*
X209181376Y-125245939D01*
X209212996Y-125214319D01*
X209383636Y-125285000D01*
X209616364Y-125285000D01*
X209831376Y-125195939D01*
X209995939Y-125031376D01*
X210085000Y-124816364D01*
X210085000Y-124583636D01*
X209995939Y-124368624D01*
X209831376Y-124204061D01*
X209616364Y-124115000D01*
X209615036Y-124115000D01*
X208183672Y-122683636D01*
X213715000Y-122683636D01*
X213715000Y-122916364D01*
X213804061Y-123131376D01*
X213968624Y-123295939D01*
X214183636Y-123385000D01*
X214416364Y-123385000D01*
X214631376Y-123295939D01*
X214632315Y-123295000D01*
X217451251Y-123295000D01*
X217500000Y-123304697D01*
X217548749Y-123295000D01*
X217548750Y-123295000D01*
X217693139Y-123266279D01*
X217856875Y-123156875D01*
X217884492Y-123115543D01*
X218005035Y-122995000D01*
X218077685Y-122995000D01*
X218004061Y-123068624D01*
X217915000Y-123283636D01*
X217915000Y-123516364D01*
X218004061Y-123731376D01*
X218168624Y-123895939D01*
X218228981Y-123920940D01*
X219165021Y-124856980D01*
X219196263Y-124903737D01*
X219381499Y-125027508D01*
X219544846Y-125060000D01*
X219544849Y-125060000D01*
X219600000Y-125070970D01*
X219655151Y-125060000D01*
X220055154Y-125060000D01*
X220218501Y-125027508D01*
X220264917Y-124996494D01*
X220322431Y-125082569D01*
X220449781Y-125167662D01*
X220600000Y-125197542D01*
X221015000Y-125197542D01*
X221015000Y-125416364D01*
X221104061Y-125631376D01*
X221268624Y-125795939D01*
X221483636Y-125885000D01*
X221716364Y-125885000D01*
X221915000Y-125802722D01*
X221915000Y-127943430D01*
X221768624Y-128004061D01*
X221767685Y-128005000D01*
X218232315Y-128005000D01*
X218231376Y-128004061D01*
X218016364Y-127915000D01*
X217783636Y-127915000D01*
X217568624Y-128004061D01*
X217404061Y-128168624D01*
X217315000Y-128383636D01*
X217315000Y-128616364D01*
X217404061Y-128831376D01*
X217568624Y-128995939D01*
X217783636Y-129085000D01*
X217915000Y-129085000D01*
X217915000Y-129116364D01*
X218004061Y-129331376D01*
X218005000Y-129332315D01*
X218005001Y-131567684D01*
X218004061Y-131568624D01*
X217915000Y-131783636D01*
X217915000Y-132016364D01*
X218004061Y-132231376D01*
X218168624Y-132395939D01*
X218383636Y-132485000D01*
X218616364Y-132485000D01*
X218831376Y-132395939D01*
X218995939Y-132231376D01*
X219085000Y-132016364D01*
X219085000Y-131783636D01*
X218995939Y-131568624D01*
X218995000Y-131567685D01*
X218995000Y-129495000D01*
X220867685Y-129495000D01*
X220868624Y-129495939D01*
X221083636Y-129585000D01*
X221316364Y-129585000D01*
X221531376Y-129495939D01*
X221695939Y-129331376D01*
X221785000Y-129116364D01*
X221785000Y-129002722D01*
X221915000Y-129056570D01*
X221915000Y-129500000D01*
X221921470Y-129532528D01*
X221939896Y-129560104D01*
X221967472Y-129578530D01*
X222000000Y-129585000D01*
X226400000Y-129585000D01*
X226432528Y-129578530D01*
X226460104Y-129560104D01*
X226478530Y-129532528D01*
X226485000Y-129500000D01*
X226485000Y-129096448D01*
X226562662Y-128980219D01*
X226592542Y-128830000D01*
X226592542Y-126150000D01*
X226562662Y-125999781D01*
X226485000Y-125883552D01*
X226485000Y-125400000D01*
X226478530Y-125367472D01*
X226460104Y-125339896D01*
X226432528Y-125321470D01*
X226400000Y-125315000D01*
X222185000Y-125315000D01*
X222185000Y-125197542D01*
X222600000Y-125197542D01*
X222750219Y-125167662D01*
X222877569Y-125082569D01*
X222899289Y-125050062D01*
X222983636Y-125085000D01*
X223216364Y-125085000D01*
X223431376Y-124995939D01*
X223595939Y-124831376D01*
X223685000Y-124616364D01*
X223685000Y-124383636D01*
X223595939Y-124168624D01*
X223431376Y-124004061D01*
X223216364Y-123915000D01*
X222983636Y-123915000D01*
X222899289Y-123949938D01*
X222877569Y-123917431D01*
X222865305Y-123909237D01*
X222885000Y-123861690D01*
X222885000Y-123576250D01*
X222813750Y-123505000D01*
X221605000Y-123505000D01*
X221605000Y-123525000D01*
X221595000Y-123525000D01*
X221595000Y-123505000D01*
X220386250Y-123505000D01*
X220315000Y-123576250D01*
X220315000Y-123861690D01*
X220334695Y-123909237D01*
X220322431Y-123917431D01*
X220264917Y-124003506D01*
X220218501Y-123972492D01*
X220055154Y-123940000D01*
X219831959Y-123940000D01*
X219020940Y-123128981D01*
X218995939Y-123068624D01*
X218922315Y-122995000D01*
X220115000Y-122995000D01*
X220115000Y-123000000D01*
X220121470Y-123032528D01*
X220139896Y-123060104D01*
X220167472Y-123078530D01*
X220200000Y-123085000D01*
X220326069Y-123085000D01*
X220334695Y-123090763D01*
X220315000Y-123138310D01*
X220315000Y-123423750D01*
X220386250Y-123495000D01*
X221595000Y-123495000D01*
X221595000Y-123475000D01*
X221605000Y-123475000D01*
X221605000Y-123495000D01*
X222813750Y-123495000D01*
X222885000Y-123423750D01*
X222885000Y-123138310D01*
X222865305Y-123090763D01*
X222873931Y-123085000D01*
X222900000Y-123085000D01*
X222932528Y-123078530D01*
X222960104Y-123060104D01*
X222978530Y-123032528D01*
X222985000Y-123000000D01*
X222985000Y-122842917D01*
X222992542Y-122805000D01*
X222992542Y-122195000D01*
X222985000Y-122157083D01*
X222985000Y-121842917D01*
X222992542Y-121805000D01*
X222992542Y-121195000D01*
X222985000Y-121157083D01*
X222985000Y-121085000D01*
X223216364Y-121085000D01*
X223431376Y-120995939D01*
X223595939Y-120831376D01*
X223685000Y-120616364D01*
X223685000Y-120383636D01*
X223595939Y-120168624D01*
X223431376Y-120004061D01*
X223421572Y-120000000D01*
X223431376Y-119995939D01*
X223595939Y-119831376D01*
X223685000Y-119616364D01*
X223685000Y-119383636D01*
X223595939Y-119168624D01*
X223431376Y-119004061D01*
X223216364Y-118915000D01*
X222985000Y-118915000D01*
X222985000Y-118800000D01*
X222978530Y-118767472D01*
X222960104Y-118739896D01*
X222932528Y-118721470D01*
X222900000Y-118715000D01*
X220200000Y-118715000D01*
X220167472Y-118721470D01*
X220139896Y-118739896D01*
X220121470Y-118767472D01*
X220115000Y-118800000D01*
X220115000Y-118915000D01*
X219883636Y-118915000D01*
X219668624Y-119004061D01*
X219504061Y-119168624D01*
X219415000Y-119383636D01*
X219415000Y-119616364D01*
X219504061Y-119831376D01*
X219668624Y-119995939D01*
X219815788Y-120056897D01*
X219704061Y-120168624D01*
X219615000Y-120383636D01*
X219615000Y-120616364D01*
X219704061Y-120831376D01*
X219868624Y-120995939D01*
X220083636Y-121085000D01*
X220115000Y-121085000D01*
X220115000Y-122005000D01*
X217848748Y-122005000D01*
X217799999Y-121995303D01*
X217751250Y-122005000D01*
X217606861Y-122033721D01*
X217443125Y-122143125D01*
X217415508Y-122184457D01*
X217294965Y-122305000D01*
X214632315Y-122305000D01*
X214631376Y-122304061D01*
X214416364Y-122215000D01*
X214183636Y-122215000D01*
X213968624Y-122304061D01*
X213804061Y-122468624D01*
X213715000Y-122683636D01*
X208183672Y-122683636D01*
X203485000Y-117984965D01*
X203485000Y-117983636D01*
X203395939Y-117768624D01*
X203231376Y-117604061D01*
X203016364Y-117515000D01*
X202783636Y-117515000D01*
X202568624Y-117604061D01*
X202404061Y-117768624D01*
X202315000Y-117983636D01*
X202315000Y-118216364D01*
X202355856Y-118315000D01*
X202183636Y-118315000D01*
X201968624Y-118404061D01*
X201804061Y-118568624D01*
X201715000Y-118783636D01*
X170085000Y-118783636D01*
X170085000Y-115704615D01*
X170515000Y-115704615D01*
X170515000Y-116295385D01*
X170741078Y-116841185D01*
X171158815Y-117258922D01*
X171704615Y-117485000D01*
X172295385Y-117485000D01*
X172841185Y-117258922D01*
X173258922Y-116841185D01*
X173407023Y-116483636D01*
X190815000Y-116483636D01*
X190815000Y-116716364D01*
X190904061Y-116931376D01*
X190905001Y-116932316D01*
X190905000Y-117451251D01*
X190895303Y-117500000D01*
X190905000Y-117548749D01*
X190933721Y-117693138D01*
X191043125Y-117856875D01*
X191084456Y-117884492D01*
X191215000Y-118015035D01*
X191215000Y-118016364D01*
X191304061Y-118231376D01*
X191468624Y-118395939D01*
X191683636Y-118485000D01*
X191916364Y-118485000D01*
X192131376Y-118395939D01*
X192295939Y-118231376D01*
X192385000Y-118016364D01*
X192385000Y-117783636D01*
X192295939Y-117568624D01*
X192131376Y-117404061D01*
X191916364Y-117315000D01*
X191915035Y-117315000D01*
X191895000Y-117294965D01*
X191895000Y-116932315D01*
X191895939Y-116931376D01*
X191985000Y-116716364D01*
X191985000Y-116483636D01*
X191895939Y-116268624D01*
X191731376Y-116104061D01*
X191516364Y-116015000D01*
X191283636Y-116015000D01*
X191068624Y-116104061D01*
X190904061Y-116268624D01*
X190815000Y-116483636D01*
X173407023Y-116483636D01*
X173485000Y-116295385D01*
X173485000Y-115704615D01*
X173258922Y-115158815D01*
X172841185Y-114741078D01*
X172295385Y-114515000D01*
X171704615Y-114515000D01*
X171158815Y-114741078D01*
X170741078Y-115158815D01*
X170515000Y-115704615D01*
X170085000Y-115704615D01*
X170085000Y-114511192D01*
X170143197Y-114293998D01*
X170293998Y-114143197D01*
X170511192Y-114085000D01*
X174500000Y-114085000D01*
X174522000Y-114082104D01*
X174772000Y-114015117D01*
X174810104Y-113993117D01*
X174993117Y-113810104D01*
X175015117Y-113772000D01*
X175082104Y-113522000D01*
X175085000Y-113500000D01*
X175085000Y-112683636D01*
X206115000Y-112683636D01*
X206115000Y-112916364D01*
X206204061Y-113131376D01*
X206368624Y-113295939D01*
X206583636Y-113385000D01*
X206584965Y-113385000D01*
X209205001Y-116005037D01*
X209205000Y-116367685D01*
X209204061Y-116368624D01*
X209115000Y-116583636D01*
X209115000Y-116816364D01*
X209204061Y-117031376D01*
X209205000Y-117032315D01*
X209205000Y-117151251D01*
X209195303Y-117200000D01*
X209205000Y-117248749D01*
X209233721Y-117393138D01*
X209343125Y-117556875D01*
X209384457Y-117584492D01*
X211015510Y-119215546D01*
X211043125Y-119256875D01*
X211206861Y-119366279D01*
X211351250Y-119395000D01*
X211399999Y-119404697D01*
X211448748Y-119395000D01*
X212067685Y-119395000D01*
X212068624Y-119395939D01*
X212283636Y-119485000D01*
X212516364Y-119485000D01*
X212731376Y-119395939D01*
X212895939Y-119231376D01*
X212985000Y-119016364D01*
X212985000Y-118783636D01*
X212895939Y-118568624D01*
X212731376Y-118404061D01*
X212516364Y-118315000D01*
X212283636Y-118315000D01*
X212068624Y-118404061D01*
X212067685Y-118405000D01*
X211605036Y-118405000D01*
X210206329Y-117006293D01*
X210285000Y-116816364D01*
X210285000Y-116583636D01*
X210195939Y-116368624D01*
X210195000Y-116367685D01*
X210195000Y-115848750D01*
X210204697Y-115800000D01*
X210185724Y-115704615D01*
X214515000Y-115704615D01*
X214515000Y-116295385D01*
X214741078Y-116841185D01*
X215158815Y-117258922D01*
X215704615Y-117485000D01*
X216295385Y-117485000D01*
X216841185Y-117258922D01*
X217258922Y-116841185D01*
X217485000Y-116295385D01*
X217485000Y-115704615D01*
X217258922Y-115158815D01*
X216841185Y-114741078D01*
X216500593Y-114600000D01*
X221915000Y-114600000D01*
X221915000Y-118600000D01*
X221921470Y-118632528D01*
X221939896Y-118660104D01*
X221967472Y-118678530D01*
X222000000Y-118685000D01*
X226400000Y-118685000D01*
X226432528Y-118678530D01*
X226460104Y-118660104D01*
X226478530Y-118632528D01*
X226485000Y-118600000D01*
X226485000Y-118116448D01*
X226562662Y-118000219D01*
X226592542Y-117850000D01*
X226592542Y-115170000D01*
X226562662Y-115019781D01*
X226485000Y-114903552D01*
X226485000Y-114600000D01*
X226478530Y-114567472D01*
X226460104Y-114539896D01*
X226432528Y-114521470D01*
X226400000Y-114515000D01*
X222000000Y-114515000D01*
X221967472Y-114521470D01*
X221939896Y-114539896D01*
X221921470Y-114567472D01*
X221915000Y-114600000D01*
X216500593Y-114600000D01*
X216295385Y-114515000D01*
X215704615Y-114515000D01*
X215158815Y-114741078D01*
X214741078Y-115158815D01*
X214515000Y-115704615D01*
X210185724Y-115704615D01*
X210166279Y-115606861D01*
X210084489Y-115484453D01*
X210056875Y-115443125D01*
X210015546Y-115415510D01*
X207285000Y-112684965D01*
X207285000Y-112683636D01*
X207195939Y-112468624D01*
X207031376Y-112304061D01*
X206816364Y-112215000D01*
X206583636Y-112215000D01*
X206368624Y-112304061D01*
X206204061Y-112468624D01*
X206115000Y-112683636D01*
X175085000Y-112683636D01*
X175085000Y-109511192D01*
X175143197Y-109293998D01*
X175293998Y-109143197D01*
X175511192Y-109085000D01*
X212488808Y-109085000D01*
X212706002Y-109143197D01*
G36*
X214770711Y-130785858D02*
X214756569Y-130800000D01*
X214770711Y-130814142D01*
X214714142Y-130870711D01*
X214700000Y-130856569D01*
X214685858Y-130870711D01*
X214629289Y-130814142D01*
X214643431Y-130800000D01*
X214629289Y-130785858D01*
X214685858Y-130729289D01*
X214700000Y-130743431D01*
X214714142Y-130729289D01*
X214770711Y-130785858D01*
X214770711Y-130785858D01*
G37*
X214770711Y-130785858D02*
X214756569Y-130800000D01*
X214770711Y-130814142D01*
X214714142Y-130870711D01*
X214700000Y-130856569D01*
X214685858Y-130870711D01*
X214629289Y-130814142D01*
X214643431Y-130800000D01*
X214629289Y-130785858D01*
X214685858Y-130729289D01*
X214700000Y-130743431D01*
X214714142Y-130729289D01*
X214770711Y-130785858D01*
G36*
X214770711Y-129985858D02*
X214756569Y-130000000D01*
X214770711Y-130014142D01*
X214714142Y-130070711D01*
X214700000Y-130056569D01*
X214685858Y-130070711D01*
X214629289Y-130014142D01*
X214643431Y-130000000D01*
X214629289Y-129985858D01*
X214685858Y-129929289D01*
X214700000Y-129943431D01*
X214714142Y-129929289D01*
X214770711Y-129985858D01*
X214770711Y-129985858D01*
G37*
X214770711Y-129985858D02*
X214756569Y-130000000D01*
X214770711Y-130014142D01*
X214714142Y-130070711D01*
X214700000Y-130056569D01*
X214685858Y-130070711D01*
X214629289Y-130014142D01*
X214643431Y-130000000D01*
X214629289Y-129985858D01*
X214685858Y-129929289D01*
X214700000Y-129943431D01*
X214714142Y-129929289D01*
X214770711Y-129985858D01*
G36*
X215570711Y-129985858D02*
X215556569Y-130000000D01*
X215570711Y-130014142D01*
X215514142Y-130070711D01*
X215500000Y-130056569D01*
X215485858Y-130070711D01*
X215429289Y-130014142D01*
X215443431Y-130000000D01*
X215429289Y-129985858D01*
X215485858Y-129929289D01*
X215500000Y-129943431D01*
X215514142Y-129929289D01*
X215570711Y-129985858D01*
X215570711Y-129985858D01*
G37*
X215570711Y-129985858D02*
X215556569Y-130000000D01*
X215570711Y-130014142D01*
X215514142Y-130070711D01*
X215500000Y-130056569D01*
X215485858Y-130070711D01*
X215429289Y-130014142D01*
X215443431Y-130000000D01*
X215429289Y-129985858D01*
X215485858Y-129929289D01*
X215500000Y-129943431D01*
X215514142Y-129929289D01*
X215570711Y-129985858D01*
G36*
X213970711Y-129985858D02*
X213956569Y-130000000D01*
X213970711Y-130014142D01*
X213914142Y-130070711D01*
X213900000Y-130056569D01*
X213885858Y-130070711D01*
X213829289Y-130014142D01*
X213843431Y-130000000D01*
X213829289Y-129985858D01*
X213885858Y-129929289D01*
X213900000Y-129943431D01*
X213914142Y-129929289D01*
X213970711Y-129985858D01*
X213970711Y-129985858D01*
G37*
X213970711Y-129985858D02*
X213956569Y-130000000D01*
X213970711Y-130014142D01*
X213914142Y-130070711D01*
X213900000Y-130056569D01*
X213885858Y-130070711D01*
X213829289Y-130014142D01*
X213843431Y-130000000D01*
X213829289Y-129985858D01*
X213885858Y-129929289D01*
X213900000Y-129943431D01*
X213914142Y-129929289D01*
X213970711Y-129985858D01*
G36*
X214770711Y-129185858D02*
X214756569Y-129200000D01*
X214770711Y-129214142D01*
X214714142Y-129270711D01*
X214700000Y-129256569D01*
X214685858Y-129270711D01*
X214629289Y-129214142D01*
X214643431Y-129200000D01*
X214629289Y-129185858D01*
X214685858Y-129129289D01*
X214700000Y-129143431D01*
X214714142Y-129129289D01*
X214770711Y-129185858D01*
X214770711Y-129185858D01*
G37*
X214770711Y-129185858D02*
X214756569Y-129200000D01*
X214770711Y-129214142D01*
X214714142Y-129270711D01*
X214700000Y-129256569D01*
X214685858Y-129270711D01*
X214629289Y-129214142D01*
X214643431Y-129200000D01*
X214629289Y-129185858D01*
X214685858Y-129129289D01*
X214700000Y-129143431D01*
X214714142Y-129129289D01*
X214770711Y-129185858D01*
G04 #@! TD*
M02*
