G04 #@! TF.GenerationSoftware,KiCad,Pcbnew,(5.1.9)-1*
G04 #@! TF.CreationDate,2021-02-21T14:12:26-05:00*
G04 #@! TF.ProjectId,Dash_Warning_Panel,44617368-5f57-4617-926e-696e675f5061,rev?*
G04 #@! TF.SameCoordinates,Original*
G04 #@! TF.FileFunction,Soldermask,Bot*
G04 #@! TF.FilePolarity,Negative*
%FSLAX46Y46*%
G04 Gerber Fmt 4.6, Leading zero omitted, Abs format (unit mm)*
G04 Created by KiCad (PCBNEW (5.1.9)-1) date 2021-02-21 14:12:26*
%MOMM*%
%LPD*%
G01*
G04 APERTURE LIST*
%ADD10C,0.150000*%
%ADD11C,0.100000*%
%ADD12C,1.600000*%
%ADD13R,1.100000X0.400000*%
%ADD14R,4.000000X4.000000*%
%ADD15C,2.200000*%
%ADD16R,0.750000X0.800000*%
%ADD17R,0.900000X0.500000*%
%ADD18R,1.060000X0.650000*%
G04 APERTURE END LIST*
D10*
X209900000Y-144800000D02*
X209800000Y-144600000D01*
X209500000Y-145700000D02*
X209600000Y-145600000D01*
X209100000Y-146000000D02*
X209500000Y-145700000D01*
X211900000Y-144900000D02*
X211400000Y-144500000D01*
X209845000Y-146725000D02*
X207345000Y-145975000D01*
X206675000Y-145915000D02*
X205845000Y-145975000D01*
X213600000Y-146800000D02*
X211900000Y-144900000D01*
X205845000Y-145975000D02*
X204845000Y-146225000D01*
X207345000Y-145975000D02*
X206675000Y-145915000D01*
X210800000Y-144500000D02*
X210595000Y-144725000D01*
X210595000Y-144725000D02*
X210095000Y-146475000D01*
X210095000Y-146475000D02*
X209845000Y-146725000D01*
X204635000Y-146735000D02*
X204845000Y-146975000D01*
X204845000Y-146225000D02*
X204595000Y-146475000D01*
X204595000Y-146475000D02*
X204635000Y-146735000D01*
D11*
G36*
X206050000Y-116950000D02*
G01*
X200700000Y-122000000D01*
X197000000Y-122000000D01*
X191950000Y-116850000D01*
X191950000Y-116050000D01*
X206050000Y-116050000D01*
X206050000Y-116950000D01*
G37*
X206050000Y-116950000D02*
X200700000Y-122000000D01*
X197000000Y-122000000D01*
X191950000Y-116850000D01*
X191950000Y-116050000D01*
X206050000Y-116050000D01*
X206050000Y-116950000D01*
G36*
X206000000Y-137500000D02*
G01*
X206000000Y-138300000D01*
X191900000Y-138300000D01*
X191900000Y-137400000D01*
X197250000Y-132350000D01*
X200950000Y-132350000D01*
X206000000Y-137500000D01*
G37*
X206000000Y-137500000D02*
X206000000Y-138300000D01*
X191900000Y-138300000D01*
X191900000Y-137400000D01*
X197250000Y-132350000D01*
X200950000Y-132350000D01*
X206000000Y-137500000D01*
D12*
X219000000Y-121000000D03*
X219000000Y-123000000D03*
X219000000Y-125000000D03*
X219000000Y-127000000D03*
X219000000Y-129000000D03*
X219000000Y-131000000D03*
X219000000Y-133000000D03*
X219000000Y-135000000D03*
D13*
X196150000Y-123275000D03*
X196150000Y-123925000D03*
X196150000Y-124575000D03*
X196150000Y-125225000D03*
X196150000Y-125875000D03*
X196150000Y-126525000D03*
X196150000Y-127175000D03*
X196150000Y-127825000D03*
X196150000Y-128475000D03*
X196150000Y-129125000D03*
X196150000Y-129775000D03*
X196150000Y-130425000D03*
X196150000Y-131075000D03*
X196150000Y-131725000D03*
X201850000Y-131725000D03*
X201850000Y-131075000D03*
X201850000Y-130425000D03*
X201850000Y-129775000D03*
X201850000Y-129125000D03*
X201850000Y-128475000D03*
X201850000Y-127825000D03*
X201850000Y-127175000D03*
X201850000Y-126525000D03*
X201850000Y-125875000D03*
X201850000Y-125225000D03*
X201850000Y-124575000D03*
X201850000Y-123925000D03*
X201850000Y-123275000D03*
D14*
X199000000Y-125595000D03*
X199000000Y-129405000D03*
D15*
X216000000Y-116000000D03*
X172000000Y-116000000D03*
X216000000Y-140000000D03*
X172000000Y-140000000D03*
D16*
X210000000Y-131500000D03*
X210000000Y-130000000D03*
X206250000Y-121750000D03*
X206250000Y-123250000D03*
X204250000Y-123250000D03*
X204250000Y-121750000D03*
D17*
X182250000Y-118250000D03*
X182250000Y-116750000D03*
X179750000Y-118250000D03*
X179750000Y-116750000D03*
X182250000Y-130500000D03*
X182250000Y-132000000D03*
X187250000Y-132000000D03*
X187250000Y-130500000D03*
X190000000Y-130500000D03*
X190000000Y-132000000D03*
X187250000Y-118250000D03*
X187250000Y-116750000D03*
X189750000Y-116750000D03*
X189750000Y-118250000D03*
D18*
X209650000Y-121050000D03*
X209650000Y-122950000D03*
X211850000Y-122950000D03*
X211850000Y-122000000D03*
X211850000Y-121050000D03*
M02*
