G04 #@! TF.GenerationSoftware,KiCad,Pcbnew,(5.0.2)-1*
G04 #@! TF.CreationDate,2019-04-04T16:39:11-04:00*
G04 #@! TF.ProjectId,Dash_Warning_Panel,44617368-5f57-4617-926e-696e675f5061,rev?*
G04 #@! TF.SameCoordinates,Original*
G04 #@! TF.FileFunction,Copper,L2,Bot*
G04 #@! TF.FilePolarity,Positive*
%FSLAX46Y46*%
G04 Gerber Fmt 4.6, Leading zero omitted, Abs format (unit mm)*
G04 Created by KiCad (PCBNEW (5.0.2)-1) date 4/4/2019 4:39:11 PM*
%MOMM*%
%LPD*%
G01*
G04 APERTURE LIST*
G04 #@! TA.AperFunction,SMDPad,CuDef*
%ADD10R,1.100000X1.500000*%
G04 #@! TD*
G04 #@! TA.AperFunction,SMDPad,CuDef*
%ADD11R,2.000000X0.610000*%
G04 #@! TD*
G04 #@! TA.AperFunction,SMDPad,CuDef*
%ADD12R,3.600000X2.680000*%
G04 #@! TD*
G04 #@! TA.AperFunction,SMDPad,CuDef*
%ADD13R,0.700000X1.300000*%
G04 #@! TD*
G04 #@! TA.AperFunction,SMDPad,CuDef*
%ADD14R,1.300000X0.700000*%
G04 #@! TD*
G04 #@! TA.AperFunction,ViaPad*
%ADD15C,0.400000*%
G04 #@! TD*
G04 #@! TA.AperFunction,ViaPad*
%ADD16C,0.600000*%
G04 #@! TD*
G04 #@! TA.AperFunction,Conductor*
%ADD17C,0.220000*%
G04 #@! TD*
G04 #@! TA.AperFunction,Conductor*
%ADD18C,0.500000*%
G04 #@! TD*
G04 #@! TA.AperFunction,Conductor*
%ADD19C,0.300000*%
G04 #@! TD*
G04 APERTURE END LIST*
D10*
G04 #@! TO.P,SW1,1*
G04 #@! TO.N,/OE*
X173950000Y-124800000D03*
G04 #@! TO.P,SW1,2*
G04 #@! TO.N,/EN*
X171410000Y-124800000D03*
G04 #@! TO.P,SW1,3*
G04 #@! TO.N,/GND*
X173950000Y-133700000D03*
G04 #@! TO.P,SW1,4*
X171410000Y-133700000D03*
G04 #@! TD*
D11*
G04 #@! TO.P,J1,1*
G04 #@! TO.N,/VCC*
X220000000Y-119500000D03*
G04 #@! TO.P,J1,2*
G04 #@! TO.N,/GND*
X220000000Y-120500000D03*
G04 #@! TO.P,J1,3*
G04 #@! TO.N,/MC*
X220000000Y-121500000D03*
G04 #@! TO.P,J1,4*
G04 #@! TO.N,/SDO*
X220000000Y-122500000D03*
G04 #@! TO.P,J1,5*
G04 #@! TO.N,/SDI*
X220000000Y-123500000D03*
G04 #@! TO.P,J1,6*
G04 #@! TO.N,/CLK*
X220000000Y-124500000D03*
D12*
G04 #@! TO.P,J1,*
G04 #@! TO.N,*
X222800000Y-116510000D03*
X222800000Y-127490000D03*
G04 #@! TD*
D13*
G04 #@! TO.P,R7,2*
G04 #@! TO.N,/VCC*
X226908400Y-134772400D03*
G04 #@! TO.P,R7,1*
G04 #@! TO.N,Net-(R7-Pad1)*
X225008400Y-134772400D03*
G04 #@! TD*
D14*
G04 #@! TO.P,R8,1*
G04 #@! TO.N,/SDO*
X227126800Y-130571200D03*
G04 #@! TO.P,R8,2*
G04 #@! TO.N,/VCC*
X227126800Y-132471200D03*
G04 #@! TD*
G04 #@! TO.P,R9,2*
G04 #@! TO.N,/VCC*
X224891600Y-132471200D03*
G04 #@! TO.P,R9,1*
G04 #@! TO.N,/SDI*
X224891600Y-130571200D03*
G04 #@! TD*
D15*
G04 #@! TO.N,*
X213258400Y-130251200D03*
X214579200Y-130251200D03*
X215849200Y-130251200D03*
X215849200Y-131521200D03*
X215849200Y-132791200D03*
X214528400Y-132791200D03*
X213258400Y-132791200D03*
X213258400Y-131521200D03*
G04 #@! TO.N,Net-(R1-Pad1)*
X219625000Y-130825000D03*
X219400000Y-135200000D03*
D16*
G04 #@! TO.N,/LED_Power*
X208900000Y-135600000D03*
X207800000Y-125700000D03*
X203675000Y-121500000D03*
D15*
G04 #@! TO.N,/R0*
X191400000Y-116600000D03*
X191800000Y-117900000D03*
G04 #@! TO.N,/B1*
X202300000Y-118900000D03*
X208000000Y-124600000D03*
G04 #@! TO.N,/R1*
X202900000Y-118100000D03*
X209400000Y-124600000D03*
G04 #@! TO.N,/G1*
X203700000Y-119600000D03*
X208700000Y-124600000D03*
G04 #@! TO.N,/R2*
X179300000Y-128400000D03*
X179700000Y-129800000D03*
G04 #@! TO.N,/B3*
X190700000Y-131600000D03*
X190700000Y-129400000D03*
G04 #@! TO.N,/R3*
X191900000Y-128000000D03*
X192000000Y-131500000D03*
G04 #@! TO.N,/G3*
X191300000Y-129500000D03*
X191300000Y-131500000D03*
G04 #@! TO.N,/B4*
X202400000Y-129200000D03*
X202500000Y-133300000D03*
G04 #@! TO.N,/R4*
X203900000Y-133000000D03*
X203600000Y-128200000D03*
G04 #@! TO.N,/G4*
X203100000Y-129400000D03*
X203200000Y-133200000D03*
G04 #@! TO.N,/R5*
X179700000Y-141800000D03*
X179300000Y-140400000D03*
G04 #@! TO.N,/B6*
X190700000Y-143600000D03*
X190700000Y-141400000D03*
G04 #@! TO.N,/R6*
X191900000Y-140000000D03*
X192000000Y-143500000D03*
G04 #@! TO.N,/G6*
X191300000Y-141500000D03*
X191300000Y-143500000D03*
G04 #@! TO.N,/B7*
X202500000Y-145300000D03*
X202400000Y-141200000D03*
G04 #@! TO.N,/R7*
X203900000Y-139900000D03*
X203900000Y-145000000D03*
G04 #@! TO.N,/G7*
X203100000Y-141400000D03*
X203200000Y-145200000D03*
G04 #@! TO.N,/SDI*
X221700000Y-123900000D03*
G04 #@! TO.N,/SDO*
X218500000Y-122000000D03*
G04 #@! TO.N,/CLK*
X218300000Y-125200000D03*
G04 #@! TO.N,/MC*
X214300000Y-122800000D03*
X190200000Y-120500000D03*
X193000000Y-122800000D03*
G04 #@! TO.N,/OE*
X219300000Y-131300000D03*
X218600000Y-140200000D03*
X173900000Y-123500000D03*
G04 #@! TO.N,/EN*
X206700000Y-112800000D03*
X212400000Y-118900000D03*
X209700000Y-116700000D03*
X171400000Y-122800000D03*
G04 #@! TO.N,/VCC*
X213900000Y-116100000D03*
X214100000Y-118700000D03*
X220100000Y-130400000D03*
X222500000Y-132600000D03*
D16*
X217300000Y-119500000D03*
D15*
X224891600Y-133400800D03*
X227126800Y-133400800D03*
G04 #@! TO.N,/GND*
X218725000Y-129075000D03*
X221600000Y-120800000D03*
X220800000Y-125300000D03*
X217800000Y-120500000D03*
X218725000Y-132825000D03*
X219200000Y-125300000D03*
X197500000Y-121500000D03*
X214500000Y-117400000D03*
X218300000Y-114100000D03*
X217300000Y-127400000D03*
X210200000Y-129800000D03*
X212750000Y-111750000D03*
X215800000Y-135900000D03*
X203600000Y-135700000D03*
X218700000Y-130300000D03*
X213800000Y-135900000D03*
X215300000Y-123000000D03*
X218725000Y-131825000D03*
X218400000Y-126200000D03*
X213800000Y-126900000D03*
X210400000Y-133500000D03*
X214049998Y-120800000D03*
G04 #@! TO.N,Net-(R7-Pad1)*
X220675200Y-134315200D03*
G04 #@! TO.N,/GND*
X216800000Y-123400000D03*
G04 #@! TD*
D17*
G04 #@! TO.N,Net-(R1-Pad1)*
X219625000Y-130825000D02*
X220000000Y-131200000D01*
X220200000Y-134400000D02*
X219400000Y-135200000D01*
X220200000Y-131400000D02*
X220200000Y-134400000D01*
X220000000Y-131200000D02*
X220200000Y-131400000D01*
D18*
G04 #@! TO.N,/LED_Power*
X207800000Y-125700000D02*
X208900000Y-126800000D01*
X208900000Y-126800000D02*
X208900000Y-135600000D01*
X207800000Y-125700000D02*
X204000000Y-121900000D01*
X204000000Y-121900000D02*
X203675000Y-121500000D01*
D17*
G04 #@! TO.N,/R0*
X191400000Y-117500000D02*
X191400000Y-116600000D01*
X191800000Y-117900000D02*
X191400000Y-117500000D01*
G04 #@! TO.N,/B1*
X208000000Y-124600000D02*
X202300000Y-118900000D01*
G04 #@! TO.N,/R1*
X209400000Y-124600000D02*
X202900000Y-118100000D01*
G04 #@! TO.N,/G1*
X208700000Y-124600000D02*
X203700000Y-119600000D01*
G04 #@! TO.N,/R2*
X179300000Y-129400000D02*
X179300000Y-128400000D01*
X179700000Y-129800000D02*
X179300000Y-129400000D01*
G04 #@! TO.N,/B3*
X190700000Y-129400000D02*
X190700000Y-131600000D01*
G04 #@! TO.N,/R3*
X191900000Y-131400000D02*
X191900000Y-128000000D01*
X192000000Y-131500000D02*
X191900000Y-131400000D01*
G04 #@! TO.N,/G3*
X191300000Y-131500000D02*
X191300000Y-129500000D01*
G04 #@! TO.N,/B4*
X202400000Y-133200000D02*
X202400000Y-129200000D01*
X202500000Y-133300000D02*
X202400000Y-133200000D01*
G04 #@! TO.N,/R4*
X203900000Y-133000000D02*
X203600000Y-132700000D01*
X203600000Y-132700000D02*
X203600000Y-128200000D01*
G04 #@! TO.N,/G4*
X203100000Y-133100000D02*
X203100000Y-129400000D01*
X203200000Y-133200000D02*
X203100000Y-133100000D01*
G04 #@! TO.N,/R5*
X179700000Y-141800000D02*
X179300000Y-141400000D01*
X179300000Y-141400000D02*
X179300000Y-140400000D01*
G04 #@! TO.N,/B6*
X190700000Y-141400000D02*
X190700000Y-143600000D01*
G04 #@! TO.N,/R6*
X191900000Y-143400000D02*
X191900000Y-140000000D01*
X192000000Y-143500000D02*
X191900000Y-143400000D01*
G04 #@! TO.N,/G6*
X191300000Y-143500000D02*
X191300000Y-141500000D01*
G04 #@! TO.N,/B7*
X202500000Y-145300000D02*
X202400000Y-145200000D01*
X202400000Y-145200000D02*
X202400000Y-141200000D01*
G04 #@! TO.N,/R7*
X203900000Y-139900000D02*
X203900000Y-145000000D01*
G04 #@! TO.N,/G7*
X203100000Y-145100000D02*
X203100000Y-141400000D01*
X203200000Y-145200000D02*
X203100000Y-145100000D01*
G04 #@! TO.N,/SDI*
X221300000Y-123500000D02*
X220000000Y-123500000D01*
X221700000Y-123900000D02*
X221300000Y-123500000D01*
X221700000Y-123900000D02*
X224230000Y-123900000D01*
X224230000Y-123900000D02*
X225094800Y-124764800D01*
X225094800Y-124764800D02*
X225094800Y-129590800D01*
X224891600Y-129794000D02*
X224891600Y-130571200D01*
X225094800Y-129590800D02*
X224891600Y-129794000D01*
G04 #@! TO.N,/SDO*
X218500000Y-122000000D02*
X219000000Y-122500000D01*
X219000000Y-122500000D02*
X220000000Y-122500000D01*
X227126800Y-129844800D02*
X227126800Y-130571200D01*
X225755200Y-128473200D02*
X227126800Y-129844800D01*
X225755200Y-124612400D02*
X225755200Y-128473200D01*
X220000000Y-122500000D02*
X223642800Y-122500000D01*
X223642800Y-122500000D02*
X225755200Y-124612400D01*
G04 #@! TO.N,/CLK*
X218300000Y-125200000D02*
X219000000Y-124500000D01*
X219000000Y-124500000D02*
X220000000Y-124500000D01*
G04 #@! TO.N,/MC*
X220000000Y-121500000D02*
X218800000Y-121500000D01*
X215000000Y-122300000D02*
X214300000Y-122800000D01*
X218100000Y-121400000D02*
X217200000Y-122300000D01*
X218700000Y-121400000D02*
X218100000Y-121400000D01*
X218800000Y-121500000D02*
X218700000Y-121400000D01*
X215000000Y-122300000D02*
X217200000Y-122300000D01*
X190700000Y-120500000D02*
X190200000Y-120500000D01*
X193000000Y-122800000D02*
X190700000Y-120500000D01*
G04 #@! TO.N,/OE*
X219300000Y-131300000D02*
X219700000Y-131700000D01*
X218600000Y-135300000D02*
X218600000Y-140200000D01*
X219700000Y-134200000D02*
X218600000Y-135300000D01*
X219700000Y-131700000D02*
X219700000Y-134200000D01*
X173950000Y-123550000D02*
X173950000Y-124800000D01*
X173900000Y-123500000D02*
X173950000Y-123550000D01*
G04 #@! TO.N,/EN*
X209700000Y-116700000D02*
X209700000Y-115800000D01*
X209700000Y-115800000D02*
X206700000Y-112800000D01*
X212400000Y-118900000D02*
X211400000Y-118900000D01*
X211400000Y-118900000D02*
X209700000Y-117200000D01*
X209700000Y-117200000D02*
X209700000Y-116700000D01*
X171400000Y-124790000D02*
X171410000Y-124800000D01*
X171400000Y-122800000D02*
X171400000Y-124790000D01*
G04 #@! TO.N,/VCC*
X213900000Y-118300000D02*
X213900000Y-118500000D01*
X213900000Y-118300000D02*
X213900000Y-116100000D01*
X213900000Y-118500000D02*
X214100000Y-118700000D01*
D19*
X220100000Y-130400000D02*
X220300000Y-130400000D01*
X220300000Y-130400000D02*
X222500000Y-132600000D01*
D18*
X217300000Y-119500000D02*
X219200000Y-119500000D01*
D17*
X224891600Y-132471200D02*
X224891600Y-133400800D01*
X227126800Y-132471200D02*
X227126800Y-133400800D01*
X226908400Y-133619200D02*
X227126800Y-133400800D01*
X226908400Y-134772400D02*
X226908400Y-133619200D01*
X224891600Y-133400800D02*
X227126800Y-133400800D01*
G04 #@! TO.N,/GND*
X220000000Y-120500000D02*
X221300000Y-120500000D01*
X221300000Y-120500000D02*
X221600000Y-120800000D01*
D18*
X218400000Y-120500000D02*
X217800000Y-120500000D01*
X220000000Y-120500000D02*
X218400000Y-120500000D01*
X214500000Y-117400000D02*
X214600000Y-117400000D01*
X214600000Y-117400000D02*
X214900000Y-117700000D01*
X217900000Y-114500000D02*
X218300000Y-114100000D01*
D17*
X218400000Y-126100000D02*
X218400000Y-126200000D01*
D18*
X214100000Y-120749998D02*
X214100000Y-120700000D01*
X214049998Y-120800000D02*
X214100000Y-120749998D01*
D17*
G04 #@! TO.N,Net-(R7-Pad1)*
X220675200Y-134315200D02*
X223774000Y-134315200D01*
X224231200Y-134772400D02*
X225008400Y-134772400D01*
X223774000Y-134315200D02*
X224231200Y-134772400D01*
G04 #@! TD*
G04 #@! TO.N,/GND*
G36*
X212693059Y-109165610D02*
X212834390Y-109306941D01*
X212890000Y-109514482D01*
X212890000Y-113500000D01*
X212893748Y-113528470D01*
X212960735Y-113778470D01*
X212989205Y-113827782D01*
X213172218Y-114010795D01*
X213221530Y-114039265D01*
X213471530Y-114106252D01*
X213500000Y-114110000D01*
X227585518Y-114110000D01*
X227793059Y-114165610D01*
X227934390Y-114306941D01*
X227990000Y-114514482D01*
X227990000Y-129633501D01*
X227820319Y-129599749D01*
X227812561Y-129560749D01*
X227812560Y-129560747D01*
X227692273Y-129380725D01*
X227692270Y-129380722D01*
X227651658Y-129319942D01*
X227590878Y-129279330D01*
X226483200Y-128171653D01*
X226483200Y-124684095D01*
X226497461Y-124612400D01*
X226483200Y-124540705D01*
X226483200Y-124540700D01*
X226440961Y-124328349D01*
X226280058Y-124087542D01*
X226219275Y-124046928D01*
X224208272Y-122035925D01*
X224167658Y-121975142D01*
X223926851Y-121814239D01*
X223714500Y-121772000D01*
X223714495Y-121772000D01*
X223642800Y-121757739D01*
X223571105Y-121772000D01*
X221630107Y-121772000D01*
X221630107Y-121195000D01*
X221582143Y-120953868D01*
X221445553Y-120749447D01*
X221410000Y-120725691D01*
X221410000Y-120617500D01*
X221307500Y-120515000D01*
X220015000Y-120515000D01*
X220015000Y-120535000D01*
X219985000Y-120535000D01*
X219985000Y-120515000D01*
X218692500Y-120515000D01*
X218590000Y-120617500D01*
X218590000Y-120672000D01*
X218171694Y-120672000D01*
X218099999Y-120657739D01*
X218028304Y-120672000D01*
X218028300Y-120672000D01*
X217815949Y-120714239D01*
X217815948Y-120714240D01*
X217815947Y-120714240D01*
X217635925Y-120834527D01*
X217635922Y-120834530D01*
X217575142Y-120875142D01*
X217534529Y-120935923D01*
X216898453Y-121572000D01*
X215133034Y-121572000D01*
X215122027Y-121567838D01*
X214988664Y-121572000D01*
X214928300Y-121572000D01*
X214917067Y-121574234D01*
X214832551Y-121576872D01*
X214776384Y-121602218D01*
X214715949Y-121614239D01*
X214645645Y-121661215D01*
X214635203Y-121665927D01*
X214586074Y-121701019D01*
X214475142Y-121775142D01*
X214468604Y-121784926D01*
X214192701Y-121982000D01*
X214137290Y-121982000D01*
X213836640Y-122106533D01*
X213606533Y-122336640D01*
X213482000Y-122637290D01*
X213482000Y-122962710D01*
X213606533Y-123263360D01*
X213836640Y-123493467D01*
X214137290Y-123618000D01*
X214462710Y-123618000D01*
X214763360Y-123493467D01*
X214993467Y-123263360D01*
X215031147Y-123172393D01*
X215233297Y-123028000D01*
X217128305Y-123028000D01*
X217200000Y-123042261D01*
X217271695Y-123028000D01*
X217271700Y-123028000D01*
X217484051Y-122985761D01*
X217724858Y-122824858D01*
X217765472Y-122764075D01*
X217936360Y-122593187D01*
X218036640Y-122693467D01*
X218253919Y-122783467D01*
X218393343Y-122922891D01*
X218408681Y-123000000D01*
X218369893Y-123195000D01*
X218369893Y-123805000D01*
X218408681Y-124000000D01*
X218393343Y-124077110D01*
X218053920Y-124416533D01*
X217836640Y-124506533D01*
X217606533Y-124736640D01*
X217482000Y-125037290D01*
X217482000Y-125362710D01*
X217606533Y-125663360D01*
X217836640Y-125893467D01*
X218137290Y-126018000D01*
X218462710Y-126018000D01*
X218763360Y-125893467D01*
X218993467Y-125663360D01*
X219083467Y-125446080D01*
X219094440Y-125435107D01*
X221000000Y-125435107D01*
X221241132Y-125387143D01*
X221445553Y-125250553D01*
X221582143Y-125046132D01*
X221630107Y-124805000D01*
X221630107Y-124718000D01*
X221862710Y-124718000D01*
X222079990Y-124628000D01*
X223928453Y-124628000D01*
X224366800Y-125066348D01*
X224366800Y-125519893D01*
X221000000Y-125519893D01*
X220758868Y-125567857D01*
X220554447Y-125704447D01*
X220417857Y-125908868D01*
X220369893Y-126150000D01*
X220369893Y-128830000D01*
X220417857Y-129071132D01*
X220554447Y-129275553D01*
X220758868Y-129412143D01*
X221000000Y-129460107D01*
X224239143Y-129460107D01*
X224205839Y-129509950D01*
X224187561Y-129601842D01*
X224000468Y-129639057D01*
X223796047Y-129775647D01*
X223659457Y-129980068D01*
X223611493Y-130221200D01*
X223611493Y-130921200D01*
X223659457Y-131162332D01*
X223796047Y-131366753D01*
X224000468Y-131503343D01*
X224090241Y-131521200D01*
X224000468Y-131539057D01*
X223796047Y-131675647D01*
X223659457Y-131880068D01*
X223611493Y-132121200D01*
X223611493Y-132821200D01*
X223659457Y-133062332D01*
X223796047Y-133266753D01*
X224000468Y-133403343D01*
X224073600Y-133417890D01*
X224073600Y-133563510D01*
X224117310Y-133669035D01*
X224058051Y-133629439D01*
X223845700Y-133587200D01*
X223845695Y-133587200D01*
X223774000Y-133572939D01*
X223702305Y-133587200D01*
X221055190Y-133587200D01*
X220928000Y-133534516D01*
X220928000Y-132114116D01*
X221756533Y-132942649D01*
X221806533Y-133063360D01*
X222036640Y-133293467D01*
X222337290Y-133418000D01*
X222662710Y-133418000D01*
X222963360Y-133293467D01*
X223193467Y-133063360D01*
X223318000Y-132762710D01*
X223318000Y-132437290D01*
X223193467Y-132136640D01*
X222963360Y-131906533D01*
X222842649Y-131856533D01*
X220896546Y-129910431D01*
X220853697Y-129846303D01*
X220599659Y-129676560D01*
X220390609Y-129634977D01*
X220262710Y-129582000D01*
X219937290Y-129582000D01*
X219636640Y-129706533D01*
X219406533Y-129936640D01*
X219359806Y-130049450D01*
X219161640Y-130131533D01*
X218931533Y-130361640D01*
X218825467Y-130617706D01*
X218606533Y-130836640D01*
X218482000Y-131137290D01*
X218482000Y-131462710D01*
X218606533Y-131763360D01*
X218836640Y-131993467D01*
X218972000Y-132049535D01*
X218972001Y-133898451D01*
X218135925Y-134734528D01*
X218075142Y-134775142D01*
X218034528Y-134835925D01*
X218034527Y-134835926D01*
X217981058Y-134915949D01*
X217914239Y-135015950D01*
X217872000Y-135228301D01*
X217872000Y-135228305D01*
X217857739Y-135300000D01*
X217872000Y-135371695D01*
X217872001Y-139820008D01*
X217782000Y-140037290D01*
X217782000Y-140362710D01*
X217906533Y-140663360D01*
X218136640Y-140893467D01*
X218437290Y-141018000D01*
X218762710Y-141018000D01*
X219063360Y-140893467D01*
X219293467Y-140663360D01*
X219418000Y-140362710D01*
X219418000Y-140037290D01*
X219328000Y-139820010D01*
X219328000Y-136018000D01*
X219562710Y-136018000D01*
X219863360Y-135893467D01*
X220093467Y-135663360D01*
X220183467Y-135446080D01*
X220501076Y-135128472D01*
X220512490Y-135133200D01*
X220837910Y-135133200D01*
X221055190Y-135043200D01*
X223472453Y-135043200D01*
X223665726Y-135236472D01*
X223706342Y-135297258D01*
X223886143Y-135417398D01*
X223947147Y-135458160D01*
X223947148Y-135458160D01*
X223947149Y-135458161D01*
X224039042Y-135476440D01*
X224076257Y-135663532D01*
X224212847Y-135867953D01*
X224417268Y-136004543D01*
X224658400Y-136052507D01*
X225358400Y-136052507D01*
X225599532Y-136004543D01*
X225803953Y-135867953D01*
X225940543Y-135663532D01*
X225958400Y-135573759D01*
X225976257Y-135663532D01*
X226112847Y-135867953D01*
X226317268Y-136004543D01*
X226558400Y-136052507D01*
X227258400Y-136052507D01*
X227499532Y-136004543D01*
X227703953Y-135867953D01*
X227840543Y-135663532D01*
X227888507Y-135422400D01*
X227888507Y-134122400D01*
X227840543Y-133881268D01*
X227823652Y-133855988D01*
X227944800Y-133563510D01*
X227944800Y-133417890D01*
X227990000Y-133408899D01*
X227990000Y-141485518D01*
X227934390Y-141693059D01*
X227793059Y-141834390D01*
X227585518Y-141890000D01*
X213500000Y-141890000D01*
X213471530Y-141893748D01*
X213221530Y-141960735D01*
X213172218Y-141989205D01*
X212989205Y-142172218D01*
X212960735Y-142221530D01*
X212893748Y-142471530D01*
X212890000Y-142500000D01*
X212890000Y-146485518D01*
X212834390Y-146693059D01*
X212693059Y-146834390D01*
X212485518Y-146890000D01*
X175514482Y-146890000D01*
X175306941Y-146834390D01*
X175165610Y-146693059D01*
X175110000Y-146485518D01*
X175110000Y-142500000D01*
X175106252Y-142471530D01*
X175039265Y-142221530D01*
X175010795Y-142172218D01*
X174827782Y-141989205D01*
X174778470Y-141960735D01*
X174528470Y-141893748D01*
X174500000Y-141890000D01*
X170514482Y-141890000D01*
X170306941Y-141834390D01*
X170165610Y-141693059D01*
X170110000Y-141485518D01*
X170110000Y-139658268D01*
X170282000Y-139658268D01*
X170282000Y-140341732D01*
X170543550Y-140973169D01*
X171026831Y-141456450D01*
X171658268Y-141718000D01*
X172341732Y-141718000D01*
X172973169Y-141456450D01*
X173456450Y-140973169D01*
X173718000Y-140341732D01*
X173718000Y-140237290D01*
X178482000Y-140237290D01*
X178482000Y-140562710D01*
X178572001Y-140779991D01*
X178572000Y-141328304D01*
X178557739Y-141400000D01*
X178572000Y-141471695D01*
X178572000Y-141471699D01*
X178614239Y-141684050D01*
X178775142Y-141924858D01*
X178835926Y-141965473D01*
X178916533Y-142046079D01*
X179006533Y-142263360D01*
X179236640Y-142493467D01*
X179537290Y-142618000D01*
X179862710Y-142618000D01*
X180163360Y-142493467D01*
X180393467Y-142263360D01*
X180518000Y-141962710D01*
X180518000Y-141637290D01*
X180393467Y-141336640D01*
X180294117Y-141237290D01*
X189882000Y-141237290D01*
X189882000Y-141562710D01*
X189972000Y-141779990D01*
X189972001Y-143220008D01*
X189882000Y-143437290D01*
X189882000Y-143762710D01*
X190006533Y-144063360D01*
X190236640Y-144293467D01*
X190537290Y-144418000D01*
X190862710Y-144418000D01*
X191120711Y-144311133D01*
X191137290Y-144318000D01*
X191462710Y-144318000D01*
X191650000Y-144240422D01*
X191837290Y-144318000D01*
X192162710Y-144318000D01*
X192463360Y-144193467D01*
X192693467Y-143963360D01*
X192818000Y-143662710D01*
X192818000Y-143337290D01*
X192693467Y-143036640D01*
X192628000Y-142971173D01*
X192628000Y-141037290D01*
X201582000Y-141037290D01*
X201582000Y-141362710D01*
X201672001Y-141579992D01*
X201672000Y-145128305D01*
X201657739Y-145200000D01*
X201672000Y-145271695D01*
X201672000Y-145271699D01*
X201682000Y-145321973D01*
X201682000Y-145462710D01*
X201806533Y-145763360D01*
X202036640Y-145993467D01*
X202337290Y-146118000D01*
X202662710Y-146118000D01*
X202963360Y-145993467D01*
X202967666Y-145989161D01*
X203037290Y-146018000D01*
X203362710Y-146018000D01*
X203663360Y-145893467D01*
X203738827Y-145818000D01*
X204062710Y-145818000D01*
X204363360Y-145693467D01*
X204593467Y-145463360D01*
X204718000Y-145162710D01*
X204718000Y-144837290D01*
X204628000Y-144620010D01*
X204628000Y-140279990D01*
X204718000Y-140062710D01*
X204718000Y-139737290D01*
X204685269Y-139658268D01*
X214282000Y-139658268D01*
X214282000Y-140341732D01*
X214543550Y-140973169D01*
X215026831Y-141456450D01*
X215658268Y-141718000D01*
X216341732Y-141718000D01*
X216973169Y-141456450D01*
X217456450Y-140973169D01*
X217718000Y-140341732D01*
X217718000Y-139658268D01*
X217456450Y-139026831D01*
X216973169Y-138543550D01*
X216341732Y-138282000D01*
X215658268Y-138282000D01*
X215026831Y-138543550D01*
X214543550Y-139026831D01*
X214282000Y-139658268D01*
X204685269Y-139658268D01*
X204593467Y-139436640D01*
X204363360Y-139206533D01*
X204062710Y-139082000D01*
X203737290Y-139082000D01*
X203436640Y-139206533D01*
X203206533Y-139436640D01*
X203082000Y-139737290D01*
X203082000Y-140062710D01*
X203172000Y-140279990D01*
X203172000Y-140582000D01*
X202938827Y-140582000D01*
X202863360Y-140506533D01*
X202562710Y-140382000D01*
X202237290Y-140382000D01*
X201936640Y-140506533D01*
X201706533Y-140736640D01*
X201582000Y-141037290D01*
X192628000Y-141037290D01*
X192628000Y-140379990D01*
X192718000Y-140162710D01*
X192718000Y-139837290D01*
X192593467Y-139536640D01*
X192363360Y-139306533D01*
X192062710Y-139182000D01*
X191737290Y-139182000D01*
X191436640Y-139306533D01*
X191206533Y-139536640D01*
X191082000Y-139837290D01*
X191082000Y-140162710D01*
X191172001Y-140379992D01*
X191172001Y-140682000D01*
X191137290Y-140682000D01*
X191120711Y-140688867D01*
X190862710Y-140582000D01*
X190537290Y-140582000D01*
X190236640Y-140706533D01*
X190006533Y-140936640D01*
X189882000Y-141237290D01*
X180294117Y-141237290D01*
X180163360Y-141106533D01*
X180028000Y-141050465D01*
X180028000Y-140779990D01*
X180118000Y-140562710D01*
X180118000Y-140237290D01*
X179993467Y-139936640D01*
X179763360Y-139706533D01*
X179462710Y-139582000D01*
X179137290Y-139582000D01*
X178836640Y-139706533D01*
X178606533Y-139936640D01*
X178482000Y-140237290D01*
X173718000Y-140237290D01*
X173718000Y-139658268D01*
X173456450Y-139026831D01*
X172973169Y-138543550D01*
X172341732Y-138282000D01*
X171658268Y-138282000D01*
X171026831Y-138543550D01*
X170543550Y-139026831D01*
X170282000Y-139658268D01*
X170110000Y-139658268D01*
X170110000Y-133817500D01*
X170450000Y-133817500D01*
X170450000Y-134531554D01*
X170512419Y-134682246D01*
X170627754Y-134797581D01*
X170778446Y-134860000D01*
X171292500Y-134860000D01*
X171395000Y-134757500D01*
X171395000Y-133715000D01*
X171425000Y-133715000D01*
X171425000Y-134757500D01*
X171527500Y-134860000D01*
X172041554Y-134860000D01*
X172192246Y-134797581D01*
X172307581Y-134682246D01*
X172370000Y-134531554D01*
X172370000Y-133817500D01*
X172990000Y-133817500D01*
X172990000Y-134531554D01*
X173052419Y-134682246D01*
X173167754Y-134797581D01*
X173318446Y-134860000D01*
X173832500Y-134860000D01*
X173935000Y-134757500D01*
X173935000Y-133715000D01*
X173965000Y-133715000D01*
X173965000Y-134757500D01*
X174067500Y-134860000D01*
X174581554Y-134860000D01*
X174732246Y-134797581D01*
X174847581Y-134682246D01*
X174910000Y-134531554D01*
X174910000Y-133817500D01*
X174807500Y-133715000D01*
X173965000Y-133715000D01*
X173935000Y-133715000D01*
X173092500Y-133715000D01*
X172990000Y-133817500D01*
X172370000Y-133817500D01*
X172267500Y-133715000D01*
X171425000Y-133715000D01*
X171395000Y-133715000D01*
X170552500Y-133715000D01*
X170450000Y-133817500D01*
X170110000Y-133817500D01*
X170110000Y-132868446D01*
X170450000Y-132868446D01*
X170450000Y-133582500D01*
X170552500Y-133685000D01*
X171395000Y-133685000D01*
X171395000Y-132642500D01*
X171425000Y-132642500D01*
X171425000Y-133685000D01*
X172267500Y-133685000D01*
X172370000Y-133582500D01*
X172370000Y-132868446D01*
X172990000Y-132868446D01*
X172990000Y-133582500D01*
X173092500Y-133685000D01*
X173935000Y-133685000D01*
X173935000Y-132642500D01*
X173965000Y-132642500D01*
X173965000Y-133685000D01*
X174807500Y-133685000D01*
X174910000Y-133582500D01*
X174910000Y-132868446D01*
X174847581Y-132717754D01*
X174732246Y-132602419D01*
X174581554Y-132540000D01*
X174067500Y-132540000D01*
X173965000Y-132642500D01*
X173935000Y-132642500D01*
X173832500Y-132540000D01*
X173318446Y-132540000D01*
X173167754Y-132602419D01*
X173052419Y-132717754D01*
X172990000Y-132868446D01*
X172370000Y-132868446D01*
X172307581Y-132717754D01*
X172192246Y-132602419D01*
X172041554Y-132540000D01*
X171527500Y-132540000D01*
X171425000Y-132642500D01*
X171395000Y-132642500D01*
X171292500Y-132540000D01*
X170778446Y-132540000D01*
X170627754Y-132602419D01*
X170512419Y-132717754D01*
X170450000Y-132868446D01*
X170110000Y-132868446D01*
X170110000Y-128237290D01*
X178482000Y-128237290D01*
X178482000Y-128562710D01*
X178572001Y-128779991D01*
X178572000Y-129328304D01*
X178557739Y-129400000D01*
X178572000Y-129471695D01*
X178572000Y-129471699D01*
X178614239Y-129684050D01*
X178775142Y-129924858D01*
X178835926Y-129965473D01*
X178916533Y-130046079D01*
X179006533Y-130263360D01*
X179236640Y-130493467D01*
X179537290Y-130618000D01*
X179862710Y-130618000D01*
X180163360Y-130493467D01*
X180393467Y-130263360D01*
X180518000Y-129962710D01*
X180518000Y-129637290D01*
X180393467Y-129336640D01*
X180294117Y-129237290D01*
X189882000Y-129237290D01*
X189882000Y-129562710D01*
X189972000Y-129779990D01*
X189972001Y-131220008D01*
X189882000Y-131437290D01*
X189882000Y-131762710D01*
X190006533Y-132063360D01*
X190236640Y-132293467D01*
X190537290Y-132418000D01*
X190862710Y-132418000D01*
X191120711Y-132311133D01*
X191137290Y-132318000D01*
X191462710Y-132318000D01*
X191650000Y-132240422D01*
X191837290Y-132318000D01*
X192162710Y-132318000D01*
X192463360Y-132193467D01*
X192693467Y-131963360D01*
X192818000Y-131662710D01*
X192818000Y-131337290D01*
X192693467Y-131036640D01*
X192628000Y-130971173D01*
X192628000Y-129037290D01*
X201582000Y-129037290D01*
X201582000Y-129362710D01*
X201672001Y-129579992D01*
X201672000Y-133128305D01*
X201657739Y-133200000D01*
X201672000Y-133271695D01*
X201672000Y-133271699D01*
X201682000Y-133321973D01*
X201682000Y-133462710D01*
X201806533Y-133763360D01*
X202036640Y-133993467D01*
X202337290Y-134118000D01*
X202662710Y-134118000D01*
X202963360Y-133993467D01*
X202967666Y-133989161D01*
X203037290Y-134018000D01*
X203362710Y-134018000D01*
X203663360Y-133893467D01*
X203738827Y-133818000D01*
X204062710Y-133818000D01*
X204363360Y-133693467D01*
X204593467Y-133463360D01*
X204718000Y-133162710D01*
X204718000Y-132837290D01*
X204593467Y-132536640D01*
X204363360Y-132306533D01*
X204328000Y-132291886D01*
X204328000Y-128579990D01*
X204418000Y-128362710D01*
X204418000Y-128037290D01*
X204293467Y-127736640D01*
X204063360Y-127506533D01*
X203762710Y-127382000D01*
X203437290Y-127382000D01*
X203136640Y-127506533D01*
X202906533Y-127736640D01*
X202782000Y-128037290D01*
X202782000Y-128362710D01*
X202837061Y-128495640D01*
X202562710Y-128382000D01*
X202237290Y-128382000D01*
X201936640Y-128506533D01*
X201706533Y-128736640D01*
X201582000Y-129037290D01*
X192628000Y-129037290D01*
X192628000Y-128379990D01*
X192718000Y-128162710D01*
X192718000Y-127837290D01*
X192593467Y-127536640D01*
X192363360Y-127306533D01*
X192062710Y-127182000D01*
X191737290Y-127182000D01*
X191436640Y-127306533D01*
X191206533Y-127536640D01*
X191082000Y-127837290D01*
X191082000Y-128162710D01*
X191172001Y-128379992D01*
X191172001Y-128682000D01*
X191137290Y-128682000D01*
X191120711Y-128688867D01*
X190862710Y-128582000D01*
X190537290Y-128582000D01*
X190236640Y-128706533D01*
X190006533Y-128936640D01*
X189882000Y-129237290D01*
X180294117Y-129237290D01*
X180163360Y-129106533D01*
X180028000Y-129050465D01*
X180028000Y-128779990D01*
X180118000Y-128562710D01*
X180118000Y-128237290D01*
X179993467Y-127936640D01*
X179763360Y-127706533D01*
X179462710Y-127582000D01*
X179137290Y-127582000D01*
X178836640Y-127706533D01*
X178606533Y-127936640D01*
X178482000Y-128237290D01*
X170110000Y-128237290D01*
X170110000Y-124050000D01*
X170229893Y-124050000D01*
X170229893Y-125550000D01*
X170277857Y-125791132D01*
X170414447Y-125995553D01*
X170618868Y-126132143D01*
X170860000Y-126180107D01*
X171960000Y-126180107D01*
X172201132Y-126132143D01*
X172405553Y-125995553D01*
X172542143Y-125791132D01*
X172590107Y-125550000D01*
X172590107Y-124050000D01*
X172769893Y-124050000D01*
X172769893Y-125550000D01*
X172817857Y-125791132D01*
X172954447Y-125995553D01*
X173158868Y-126132143D01*
X173400000Y-126180107D01*
X174500000Y-126180107D01*
X174741132Y-126132143D01*
X174945553Y-125995553D01*
X175082143Y-125791132D01*
X175130107Y-125550000D01*
X175130107Y-124050000D01*
X175082143Y-123808868D01*
X174945553Y-123604447D01*
X174741132Y-123467857D01*
X174718000Y-123463256D01*
X174718000Y-123337290D01*
X174593467Y-123036640D01*
X174363360Y-122806533D01*
X174062710Y-122682000D01*
X173737290Y-122682000D01*
X173436640Y-122806533D01*
X173206533Y-123036640D01*
X173082000Y-123337290D01*
X173082000Y-123519219D01*
X172954447Y-123604447D01*
X172817857Y-123808868D01*
X172769893Y-124050000D01*
X172590107Y-124050000D01*
X172542143Y-123808868D01*
X172405553Y-123604447D01*
X172201132Y-123467857D01*
X172128000Y-123453310D01*
X172128000Y-123179990D01*
X172218000Y-122962710D01*
X172218000Y-122637290D01*
X172093467Y-122336640D01*
X171863360Y-122106533D01*
X171562710Y-121982000D01*
X171237290Y-121982000D01*
X170936640Y-122106533D01*
X170706533Y-122336640D01*
X170582000Y-122637290D01*
X170582000Y-122962710D01*
X170672000Y-123179990D01*
X170672000Y-123457288D01*
X170618868Y-123467857D01*
X170414447Y-123604447D01*
X170277857Y-123808868D01*
X170229893Y-124050000D01*
X170110000Y-124050000D01*
X170110000Y-120337290D01*
X189382000Y-120337290D01*
X189382000Y-120662710D01*
X189506533Y-120963360D01*
X189736640Y-121193467D01*
X190037290Y-121318000D01*
X190362710Y-121318000D01*
X190451624Y-121281171D01*
X192216533Y-123046081D01*
X192306533Y-123263360D01*
X192536640Y-123493467D01*
X192837290Y-123618000D01*
X193162710Y-123618000D01*
X193463360Y-123493467D01*
X193693467Y-123263360D01*
X193818000Y-122962710D01*
X193818000Y-122637290D01*
X193693467Y-122336640D01*
X193463360Y-122106533D01*
X193246081Y-122016533D01*
X191265472Y-120035925D01*
X191224858Y-119975142D01*
X190984051Y-119814239D01*
X190771700Y-119772000D01*
X190771695Y-119772000D01*
X190700000Y-119757739D01*
X190628305Y-119772000D01*
X190579990Y-119772000D01*
X190362710Y-119682000D01*
X190037290Y-119682000D01*
X189736640Y-119806533D01*
X189506533Y-120036640D01*
X189382000Y-120337290D01*
X170110000Y-120337290D01*
X170110000Y-118737290D01*
X201482000Y-118737290D01*
X201482000Y-119062710D01*
X201606533Y-119363360D01*
X201836640Y-119593467D01*
X202053920Y-119683467D01*
X203123602Y-120753150D01*
X202896757Y-120979995D01*
X202757000Y-121317398D01*
X202757000Y-121682602D01*
X202896757Y-122020005D01*
X203154995Y-122278243D01*
X203206145Y-122299430D01*
X203300788Y-122415913D01*
X203325781Y-122453318D01*
X203354572Y-122482109D01*
X203380243Y-122513704D01*
X203414871Y-122542408D01*
X206971757Y-126099294D01*
X207021757Y-126220005D01*
X207279995Y-126478243D01*
X207400706Y-126528243D01*
X208032000Y-127159538D01*
X208032001Y-135296685D01*
X207982000Y-135417398D01*
X207982000Y-135782602D01*
X208121757Y-136120005D01*
X208379995Y-136378243D01*
X208717398Y-136518000D01*
X209082602Y-136518000D01*
X209420005Y-136378243D01*
X209678243Y-136120005D01*
X209818000Y-135782602D01*
X209818000Y-135417398D01*
X209768000Y-135296687D01*
X209768000Y-126885490D01*
X209785005Y-126800000D01*
X209717638Y-126461323D01*
X209574219Y-126246681D01*
X209574218Y-126246680D01*
X209525793Y-126174207D01*
X209453320Y-126125782D01*
X208745537Y-125418000D01*
X208862710Y-125418000D01*
X209050000Y-125340422D01*
X209237290Y-125418000D01*
X209562710Y-125418000D01*
X209863360Y-125293467D01*
X210093467Y-125063360D01*
X210218000Y-124762710D01*
X210218000Y-124437290D01*
X210093467Y-124136640D01*
X209863360Y-123906533D01*
X209646081Y-123816534D01*
X203683467Y-117853920D01*
X203593467Y-117636640D01*
X203363360Y-117406533D01*
X203062710Y-117282000D01*
X202737290Y-117282000D01*
X202436640Y-117406533D01*
X202206533Y-117636640D01*
X202082000Y-117937290D01*
X202082000Y-118104902D01*
X201836640Y-118206533D01*
X201606533Y-118436640D01*
X201482000Y-118737290D01*
X170110000Y-118737290D01*
X170110000Y-115658268D01*
X170282000Y-115658268D01*
X170282000Y-116341732D01*
X170543550Y-116973169D01*
X171026831Y-117456450D01*
X171658268Y-117718000D01*
X172341732Y-117718000D01*
X172973169Y-117456450D01*
X173456450Y-116973169D01*
X173678418Y-116437290D01*
X190582000Y-116437290D01*
X190582000Y-116762710D01*
X190672001Y-116979991D01*
X190672000Y-117428304D01*
X190657739Y-117500000D01*
X190672000Y-117571695D01*
X190672000Y-117571699D01*
X190714239Y-117784050D01*
X190771156Y-117869232D01*
X190814785Y-117934527D01*
X190875142Y-118024858D01*
X190935926Y-118065473D01*
X191016533Y-118146079D01*
X191106533Y-118363360D01*
X191336640Y-118593467D01*
X191637290Y-118718000D01*
X191962710Y-118718000D01*
X192263360Y-118593467D01*
X192493467Y-118363360D01*
X192618000Y-118062710D01*
X192618000Y-117737290D01*
X192493467Y-117436640D01*
X192263360Y-117206533D01*
X192128000Y-117150465D01*
X192128000Y-116979990D01*
X192218000Y-116762710D01*
X192218000Y-116437290D01*
X192093467Y-116136640D01*
X191863360Y-115906533D01*
X191562710Y-115782000D01*
X191237290Y-115782000D01*
X190936640Y-115906533D01*
X190706533Y-116136640D01*
X190582000Y-116437290D01*
X173678418Y-116437290D01*
X173718000Y-116341732D01*
X173718000Y-115658268D01*
X173456450Y-115026831D01*
X172973169Y-114543550D01*
X172341732Y-114282000D01*
X171658268Y-114282000D01*
X171026831Y-114543550D01*
X170543550Y-115026831D01*
X170282000Y-115658268D01*
X170110000Y-115658268D01*
X170110000Y-114514482D01*
X170165610Y-114306941D01*
X170306941Y-114165610D01*
X170514482Y-114110000D01*
X174500000Y-114110000D01*
X174528470Y-114106252D01*
X174778470Y-114039265D01*
X174827782Y-114010795D01*
X175010795Y-113827782D01*
X175039265Y-113778470D01*
X175106252Y-113528470D01*
X175110000Y-113500000D01*
X175110000Y-112637290D01*
X205882000Y-112637290D01*
X205882000Y-112962710D01*
X206006533Y-113263360D01*
X206236640Y-113493467D01*
X206453920Y-113583467D01*
X208972001Y-116101548D01*
X208972000Y-116320009D01*
X208882000Y-116537290D01*
X208882000Y-116862710D01*
X208972000Y-117079990D01*
X208972000Y-117128305D01*
X208957739Y-117200000D01*
X208972000Y-117271695D01*
X208972000Y-117271699D01*
X209014239Y-117484050D01*
X209036924Y-117518000D01*
X209116197Y-117636640D01*
X209175142Y-117724858D01*
X209235925Y-117765472D01*
X210834530Y-119364077D01*
X210875142Y-119424858D01*
X210935922Y-119465470D01*
X210935925Y-119465473D01*
X210987599Y-119500000D01*
X211115949Y-119585761D01*
X211328300Y-119628000D01*
X211328304Y-119628000D01*
X211399999Y-119642261D01*
X211471694Y-119628000D01*
X212020010Y-119628000D01*
X212237290Y-119718000D01*
X212562710Y-119718000D01*
X212863360Y-119593467D01*
X213093467Y-119363360D01*
X213218000Y-119062710D01*
X213218000Y-118789680D01*
X213306794Y-118922569D01*
X213406533Y-119163360D01*
X213636640Y-119393467D01*
X213937290Y-119518000D01*
X214262710Y-119518000D01*
X214563360Y-119393467D01*
X214639429Y-119317398D01*
X216382000Y-119317398D01*
X216382000Y-119682602D01*
X216521757Y-120020005D01*
X216779995Y-120278243D01*
X217117398Y-120418000D01*
X217482602Y-120418000D01*
X217603313Y-120368000D01*
X218590000Y-120368000D01*
X218590000Y-120382500D01*
X218692500Y-120485000D01*
X219985000Y-120485000D01*
X219985000Y-120465000D01*
X220015000Y-120465000D01*
X220015000Y-120485000D01*
X221307500Y-120485000D01*
X221410000Y-120382500D01*
X221410000Y-120274309D01*
X221445553Y-120250553D01*
X221582143Y-120046132D01*
X221630107Y-119805000D01*
X221630107Y-119195000D01*
X221582143Y-118953868D01*
X221445553Y-118749447D01*
X221241132Y-118612857D01*
X221000000Y-118564893D01*
X219000000Y-118564893D01*
X218758868Y-118612857D01*
X218730219Y-118632000D01*
X217603313Y-118632000D01*
X217482602Y-118582000D01*
X217117398Y-118582000D01*
X216779995Y-118721757D01*
X216521757Y-118979995D01*
X216382000Y-119317398D01*
X214639429Y-119317398D01*
X214793467Y-119163360D01*
X214918000Y-118862710D01*
X214918000Y-118537290D01*
X214793467Y-118236640D01*
X214628000Y-118071173D01*
X214628000Y-117057619D01*
X215026831Y-117456450D01*
X215658268Y-117718000D01*
X216341732Y-117718000D01*
X216973169Y-117456450D01*
X217456450Y-116973169D01*
X217718000Y-116341732D01*
X217718000Y-115658268D01*
X217515753Y-115170000D01*
X220369893Y-115170000D01*
X220369893Y-117850000D01*
X220417857Y-118091132D01*
X220554447Y-118295553D01*
X220758868Y-118432143D01*
X221000000Y-118480107D01*
X224600000Y-118480107D01*
X224841132Y-118432143D01*
X225045553Y-118295553D01*
X225182143Y-118091132D01*
X225230107Y-117850000D01*
X225230107Y-115170000D01*
X225182143Y-114928868D01*
X225045553Y-114724447D01*
X224841132Y-114587857D01*
X224600000Y-114539893D01*
X221000000Y-114539893D01*
X220758868Y-114587857D01*
X220554447Y-114724447D01*
X220417857Y-114928868D01*
X220369893Y-115170000D01*
X217515753Y-115170000D01*
X217456450Y-115026831D01*
X216973169Y-114543550D01*
X216341732Y-114282000D01*
X215658268Y-114282000D01*
X215026831Y-114543550D01*
X214543550Y-115026831D01*
X214379561Y-115422734D01*
X214363360Y-115406533D01*
X214062710Y-115282000D01*
X213737290Y-115282000D01*
X213436640Y-115406533D01*
X213206533Y-115636640D01*
X213082000Y-115937290D01*
X213082000Y-116262710D01*
X213172001Y-116479992D01*
X213172000Y-118228300D01*
X213172000Y-118428305D01*
X213157739Y-118500000D01*
X213172000Y-118571695D01*
X213172000Y-118571700D01*
X213192870Y-118676620D01*
X213093467Y-118436640D01*
X212863360Y-118206533D01*
X212562710Y-118082000D01*
X212237290Y-118082000D01*
X212020010Y-118172000D01*
X211701548Y-118172000D01*
X210481171Y-116951624D01*
X210518000Y-116862710D01*
X210518000Y-116537290D01*
X210428000Y-116320010D01*
X210428000Y-115871695D01*
X210442261Y-115800000D01*
X210428000Y-115728305D01*
X210428000Y-115728300D01*
X210385761Y-115515949D01*
X210224858Y-115275142D01*
X210164075Y-115234528D01*
X207483467Y-112553920D01*
X207393467Y-112336640D01*
X207163360Y-112106533D01*
X206862710Y-111982000D01*
X206537290Y-111982000D01*
X206236640Y-112106533D01*
X206006533Y-112336640D01*
X205882000Y-112637290D01*
X175110000Y-112637290D01*
X175110000Y-109514482D01*
X175165610Y-109306941D01*
X175306941Y-109165610D01*
X175514482Y-109110000D01*
X212485518Y-109110000D01*
X212693059Y-109165610D01*
X212693059Y-109165610D01*
G37*
X212693059Y-109165610D02*
X212834390Y-109306941D01*
X212890000Y-109514482D01*
X212890000Y-113500000D01*
X212893748Y-113528470D01*
X212960735Y-113778470D01*
X212989205Y-113827782D01*
X213172218Y-114010795D01*
X213221530Y-114039265D01*
X213471530Y-114106252D01*
X213500000Y-114110000D01*
X227585518Y-114110000D01*
X227793059Y-114165610D01*
X227934390Y-114306941D01*
X227990000Y-114514482D01*
X227990000Y-129633501D01*
X227820319Y-129599749D01*
X227812561Y-129560749D01*
X227812560Y-129560747D01*
X227692273Y-129380725D01*
X227692270Y-129380722D01*
X227651658Y-129319942D01*
X227590878Y-129279330D01*
X226483200Y-128171653D01*
X226483200Y-124684095D01*
X226497461Y-124612400D01*
X226483200Y-124540705D01*
X226483200Y-124540700D01*
X226440961Y-124328349D01*
X226280058Y-124087542D01*
X226219275Y-124046928D01*
X224208272Y-122035925D01*
X224167658Y-121975142D01*
X223926851Y-121814239D01*
X223714500Y-121772000D01*
X223714495Y-121772000D01*
X223642800Y-121757739D01*
X223571105Y-121772000D01*
X221630107Y-121772000D01*
X221630107Y-121195000D01*
X221582143Y-120953868D01*
X221445553Y-120749447D01*
X221410000Y-120725691D01*
X221410000Y-120617500D01*
X221307500Y-120515000D01*
X220015000Y-120515000D01*
X220015000Y-120535000D01*
X219985000Y-120535000D01*
X219985000Y-120515000D01*
X218692500Y-120515000D01*
X218590000Y-120617500D01*
X218590000Y-120672000D01*
X218171694Y-120672000D01*
X218099999Y-120657739D01*
X218028304Y-120672000D01*
X218028300Y-120672000D01*
X217815949Y-120714239D01*
X217815948Y-120714240D01*
X217815947Y-120714240D01*
X217635925Y-120834527D01*
X217635922Y-120834530D01*
X217575142Y-120875142D01*
X217534529Y-120935923D01*
X216898453Y-121572000D01*
X215133034Y-121572000D01*
X215122027Y-121567838D01*
X214988664Y-121572000D01*
X214928300Y-121572000D01*
X214917067Y-121574234D01*
X214832551Y-121576872D01*
X214776384Y-121602218D01*
X214715949Y-121614239D01*
X214645645Y-121661215D01*
X214635203Y-121665927D01*
X214586074Y-121701019D01*
X214475142Y-121775142D01*
X214468604Y-121784926D01*
X214192701Y-121982000D01*
X214137290Y-121982000D01*
X213836640Y-122106533D01*
X213606533Y-122336640D01*
X213482000Y-122637290D01*
X213482000Y-122962710D01*
X213606533Y-123263360D01*
X213836640Y-123493467D01*
X214137290Y-123618000D01*
X214462710Y-123618000D01*
X214763360Y-123493467D01*
X214993467Y-123263360D01*
X215031147Y-123172393D01*
X215233297Y-123028000D01*
X217128305Y-123028000D01*
X217200000Y-123042261D01*
X217271695Y-123028000D01*
X217271700Y-123028000D01*
X217484051Y-122985761D01*
X217724858Y-122824858D01*
X217765472Y-122764075D01*
X217936360Y-122593187D01*
X218036640Y-122693467D01*
X218253919Y-122783467D01*
X218393343Y-122922891D01*
X218408681Y-123000000D01*
X218369893Y-123195000D01*
X218369893Y-123805000D01*
X218408681Y-124000000D01*
X218393343Y-124077110D01*
X218053920Y-124416533D01*
X217836640Y-124506533D01*
X217606533Y-124736640D01*
X217482000Y-125037290D01*
X217482000Y-125362710D01*
X217606533Y-125663360D01*
X217836640Y-125893467D01*
X218137290Y-126018000D01*
X218462710Y-126018000D01*
X218763360Y-125893467D01*
X218993467Y-125663360D01*
X219083467Y-125446080D01*
X219094440Y-125435107D01*
X221000000Y-125435107D01*
X221241132Y-125387143D01*
X221445553Y-125250553D01*
X221582143Y-125046132D01*
X221630107Y-124805000D01*
X221630107Y-124718000D01*
X221862710Y-124718000D01*
X222079990Y-124628000D01*
X223928453Y-124628000D01*
X224366800Y-125066348D01*
X224366800Y-125519893D01*
X221000000Y-125519893D01*
X220758868Y-125567857D01*
X220554447Y-125704447D01*
X220417857Y-125908868D01*
X220369893Y-126150000D01*
X220369893Y-128830000D01*
X220417857Y-129071132D01*
X220554447Y-129275553D01*
X220758868Y-129412143D01*
X221000000Y-129460107D01*
X224239143Y-129460107D01*
X224205839Y-129509950D01*
X224187561Y-129601842D01*
X224000468Y-129639057D01*
X223796047Y-129775647D01*
X223659457Y-129980068D01*
X223611493Y-130221200D01*
X223611493Y-130921200D01*
X223659457Y-131162332D01*
X223796047Y-131366753D01*
X224000468Y-131503343D01*
X224090241Y-131521200D01*
X224000468Y-131539057D01*
X223796047Y-131675647D01*
X223659457Y-131880068D01*
X223611493Y-132121200D01*
X223611493Y-132821200D01*
X223659457Y-133062332D01*
X223796047Y-133266753D01*
X224000468Y-133403343D01*
X224073600Y-133417890D01*
X224073600Y-133563510D01*
X224117310Y-133669035D01*
X224058051Y-133629439D01*
X223845700Y-133587200D01*
X223845695Y-133587200D01*
X223774000Y-133572939D01*
X223702305Y-133587200D01*
X221055190Y-133587200D01*
X220928000Y-133534516D01*
X220928000Y-132114116D01*
X221756533Y-132942649D01*
X221806533Y-133063360D01*
X222036640Y-133293467D01*
X222337290Y-133418000D01*
X222662710Y-133418000D01*
X222963360Y-133293467D01*
X223193467Y-133063360D01*
X223318000Y-132762710D01*
X223318000Y-132437290D01*
X223193467Y-132136640D01*
X222963360Y-131906533D01*
X222842649Y-131856533D01*
X220896546Y-129910431D01*
X220853697Y-129846303D01*
X220599659Y-129676560D01*
X220390609Y-129634977D01*
X220262710Y-129582000D01*
X219937290Y-129582000D01*
X219636640Y-129706533D01*
X219406533Y-129936640D01*
X219359806Y-130049450D01*
X219161640Y-130131533D01*
X218931533Y-130361640D01*
X218825467Y-130617706D01*
X218606533Y-130836640D01*
X218482000Y-131137290D01*
X218482000Y-131462710D01*
X218606533Y-131763360D01*
X218836640Y-131993467D01*
X218972000Y-132049535D01*
X218972001Y-133898451D01*
X218135925Y-134734528D01*
X218075142Y-134775142D01*
X218034528Y-134835925D01*
X218034527Y-134835926D01*
X217981058Y-134915949D01*
X217914239Y-135015950D01*
X217872000Y-135228301D01*
X217872000Y-135228305D01*
X217857739Y-135300000D01*
X217872000Y-135371695D01*
X217872001Y-139820008D01*
X217782000Y-140037290D01*
X217782000Y-140362710D01*
X217906533Y-140663360D01*
X218136640Y-140893467D01*
X218437290Y-141018000D01*
X218762710Y-141018000D01*
X219063360Y-140893467D01*
X219293467Y-140663360D01*
X219418000Y-140362710D01*
X219418000Y-140037290D01*
X219328000Y-139820010D01*
X219328000Y-136018000D01*
X219562710Y-136018000D01*
X219863360Y-135893467D01*
X220093467Y-135663360D01*
X220183467Y-135446080D01*
X220501076Y-135128472D01*
X220512490Y-135133200D01*
X220837910Y-135133200D01*
X221055190Y-135043200D01*
X223472453Y-135043200D01*
X223665726Y-135236472D01*
X223706342Y-135297258D01*
X223886143Y-135417398D01*
X223947147Y-135458160D01*
X223947148Y-135458160D01*
X223947149Y-135458161D01*
X224039042Y-135476440D01*
X224076257Y-135663532D01*
X224212847Y-135867953D01*
X224417268Y-136004543D01*
X224658400Y-136052507D01*
X225358400Y-136052507D01*
X225599532Y-136004543D01*
X225803953Y-135867953D01*
X225940543Y-135663532D01*
X225958400Y-135573759D01*
X225976257Y-135663532D01*
X226112847Y-135867953D01*
X226317268Y-136004543D01*
X226558400Y-136052507D01*
X227258400Y-136052507D01*
X227499532Y-136004543D01*
X227703953Y-135867953D01*
X227840543Y-135663532D01*
X227888507Y-135422400D01*
X227888507Y-134122400D01*
X227840543Y-133881268D01*
X227823652Y-133855988D01*
X227944800Y-133563510D01*
X227944800Y-133417890D01*
X227990000Y-133408899D01*
X227990000Y-141485518D01*
X227934390Y-141693059D01*
X227793059Y-141834390D01*
X227585518Y-141890000D01*
X213500000Y-141890000D01*
X213471530Y-141893748D01*
X213221530Y-141960735D01*
X213172218Y-141989205D01*
X212989205Y-142172218D01*
X212960735Y-142221530D01*
X212893748Y-142471530D01*
X212890000Y-142500000D01*
X212890000Y-146485518D01*
X212834390Y-146693059D01*
X212693059Y-146834390D01*
X212485518Y-146890000D01*
X175514482Y-146890000D01*
X175306941Y-146834390D01*
X175165610Y-146693059D01*
X175110000Y-146485518D01*
X175110000Y-142500000D01*
X175106252Y-142471530D01*
X175039265Y-142221530D01*
X175010795Y-142172218D01*
X174827782Y-141989205D01*
X174778470Y-141960735D01*
X174528470Y-141893748D01*
X174500000Y-141890000D01*
X170514482Y-141890000D01*
X170306941Y-141834390D01*
X170165610Y-141693059D01*
X170110000Y-141485518D01*
X170110000Y-139658268D01*
X170282000Y-139658268D01*
X170282000Y-140341732D01*
X170543550Y-140973169D01*
X171026831Y-141456450D01*
X171658268Y-141718000D01*
X172341732Y-141718000D01*
X172973169Y-141456450D01*
X173456450Y-140973169D01*
X173718000Y-140341732D01*
X173718000Y-140237290D01*
X178482000Y-140237290D01*
X178482000Y-140562710D01*
X178572001Y-140779991D01*
X178572000Y-141328304D01*
X178557739Y-141400000D01*
X178572000Y-141471695D01*
X178572000Y-141471699D01*
X178614239Y-141684050D01*
X178775142Y-141924858D01*
X178835926Y-141965473D01*
X178916533Y-142046079D01*
X179006533Y-142263360D01*
X179236640Y-142493467D01*
X179537290Y-142618000D01*
X179862710Y-142618000D01*
X180163360Y-142493467D01*
X180393467Y-142263360D01*
X180518000Y-141962710D01*
X180518000Y-141637290D01*
X180393467Y-141336640D01*
X180294117Y-141237290D01*
X189882000Y-141237290D01*
X189882000Y-141562710D01*
X189972000Y-141779990D01*
X189972001Y-143220008D01*
X189882000Y-143437290D01*
X189882000Y-143762710D01*
X190006533Y-144063360D01*
X190236640Y-144293467D01*
X190537290Y-144418000D01*
X190862710Y-144418000D01*
X191120711Y-144311133D01*
X191137290Y-144318000D01*
X191462710Y-144318000D01*
X191650000Y-144240422D01*
X191837290Y-144318000D01*
X192162710Y-144318000D01*
X192463360Y-144193467D01*
X192693467Y-143963360D01*
X192818000Y-143662710D01*
X192818000Y-143337290D01*
X192693467Y-143036640D01*
X192628000Y-142971173D01*
X192628000Y-141037290D01*
X201582000Y-141037290D01*
X201582000Y-141362710D01*
X201672001Y-141579992D01*
X201672000Y-145128305D01*
X201657739Y-145200000D01*
X201672000Y-145271695D01*
X201672000Y-145271699D01*
X201682000Y-145321973D01*
X201682000Y-145462710D01*
X201806533Y-145763360D01*
X202036640Y-145993467D01*
X202337290Y-146118000D01*
X202662710Y-146118000D01*
X202963360Y-145993467D01*
X202967666Y-145989161D01*
X203037290Y-146018000D01*
X203362710Y-146018000D01*
X203663360Y-145893467D01*
X203738827Y-145818000D01*
X204062710Y-145818000D01*
X204363360Y-145693467D01*
X204593467Y-145463360D01*
X204718000Y-145162710D01*
X204718000Y-144837290D01*
X204628000Y-144620010D01*
X204628000Y-140279990D01*
X204718000Y-140062710D01*
X204718000Y-139737290D01*
X204685269Y-139658268D01*
X214282000Y-139658268D01*
X214282000Y-140341732D01*
X214543550Y-140973169D01*
X215026831Y-141456450D01*
X215658268Y-141718000D01*
X216341732Y-141718000D01*
X216973169Y-141456450D01*
X217456450Y-140973169D01*
X217718000Y-140341732D01*
X217718000Y-139658268D01*
X217456450Y-139026831D01*
X216973169Y-138543550D01*
X216341732Y-138282000D01*
X215658268Y-138282000D01*
X215026831Y-138543550D01*
X214543550Y-139026831D01*
X214282000Y-139658268D01*
X204685269Y-139658268D01*
X204593467Y-139436640D01*
X204363360Y-139206533D01*
X204062710Y-139082000D01*
X203737290Y-139082000D01*
X203436640Y-139206533D01*
X203206533Y-139436640D01*
X203082000Y-139737290D01*
X203082000Y-140062710D01*
X203172000Y-140279990D01*
X203172000Y-140582000D01*
X202938827Y-140582000D01*
X202863360Y-140506533D01*
X202562710Y-140382000D01*
X202237290Y-140382000D01*
X201936640Y-140506533D01*
X201706533Y-140736640D01*
X201582000Y-141037290D01*
X192628000Y-141037290D01*
X192628000Y-140379990D01*
X192718000Y-140162710D01*
X192718000Y-139837290D01*
X192593467Y-139536640D01*
X192363360Y-139306533D01*
X192062710Y-139182000D01*
X191737290Y-139182000D01*
X191436640Y-139306533D01*
X191206533Y-139536640D01*
X191082000Y-139837290D01*
X191082000Y-140162710D01*
X191172001Y-140379992D01*
X191172001Y-140682000D01*
X191137290Y-140682000D01*
X191120711Y-140688867D01*
X190862710Y-140582000D01*
X190537290Y-140582000D01*
X190236640Y-140706533D01*
X190006533Y-140936640D01*
X189882000Y-141237290D01*
X180294117Y-141237290D01*
X180163360Y-141106533D01*
X180028000Y-141050465D01*
X180028000Y-140779990D01*
X180118000Y-140562710D01*
X180118000Y-140237290D01*
X179993467Y-139936640D01*
X179763360Y-139706533D01*
X179462710Y-139582000D01*
X179137290Y-139582000D01*
X178836640Y-139706533D01*
X178606533Y-139936640D01*
X178482000Y-140237290D01*
X173718000Y-140237290D01*
X173718000Y-139658268D01*
X173456450Y-139026831D01*
X172973169Y-138543550D01*
X172341732Y-138282000D01*
X171658268Y-138282000D01*
X171026831Y-138543550D01*
X170543550Y-139026831D01*
X170282000Y-139658268D01*
X170110000Y-139658268D01*
X170110000Y-133817500D01*
X170450000Y-133817500D01*
X170450000Y-134531554D01*
X170512419Y-134682246D01*
X170627754Y-134797581D01*
X170778446Y-134860000D01*
X171292500Y-134860000D01*
X171395000Y-134757500D01*
X171395000Y-133715000D01*
X171425000Y-133715000D01*
X171425000Y-134757500D01*
X171527500Y-134860000D01*
X172041554Y-134860000D01*
X172192246Y-134797581D01*
X172307581Y-134682246D01*
X172370000Y-134531554D01*
X172370000Y-133817500D01*
X172990000Y-133817500D01*
X172990000Y-134531554D01*
X173052419Y-134682246D01*
X173167754Y-134797581D01*
X173318446Y-134860000D01*
X173832500Y-134860000D01*
X173935000Y-134757500D01*
X173935000Y-133715000D01*
X173965000Y-133715000D01*
X173965000Y-134757500D01*
X174067500Y-134860000D01*
X174581554Y-134860000D01*
X174732246Y-134797581D01*
X174847581Y-134682246D01*
X174910000Y-134531554D01*
X174910000Y-133817500D01*
X174807500Y-133715000D01*
X173965000Y-133715000D01*
X173935000Y-133715000D01*
X173092500Y-133715000D01*
X172990000Y-133817500D01*
X172370000Y-133817500D01*
X172267500Y-133715000D01*
X171425000Y-133715000D01*
X171395000Y-133715000D01*
X170552500Y-133715000D01*
X170450000Y-133817500D01*
X170110000Y-133817500D01*
X170110000Y-132868446D01*
X170450000Y-132868446D01*
X170450000Y-133582500D01*
X170552500Y-133685000D01*
X171395000Y-133685000D01*
X171395000Y-132642500D01*
X171425000Y-132642500D01*
X171425000Y-133685000D01*
X172267500Y-133685000D01*
X172370000Y-133582500D01*
X172370000Y-132868446D01*
X172990000Y-132868446D01*
X172990000Y-133582500D01*
X173092500Y-133685000D01*
X173935000Y-133685000D01*
X173935000Y-132642500D01*
X173965000Y-132642500D01*
X173965000Y-133685000D01*
X174807500Y-133685000D01*
X174910000Y-133582500D01*
X174910000Y-132868446D01*
X174847581Y-132717754D01*
X174732246Y-132602419D01*
X174581554Y-132540000D01*
X174067500Y-132540000D01*
X173965000Y-132642500D01*
X173935000Y-132642500D01*
X173832500Y-132540000D01*
X173318446Y-132540000D01*
X173167754Y-132602419D01*
X173052419Y-132717754D01*
X172990000Y-132868446D01*
X172370000Y-132868446D01*
X172307581Y-132717754D01*
X172192246Y-132602419D01*
X172041554Y-132540000D01*
X171527500Y-132540000D01*
X171425000Y-132642500D01*
X171395000Y-132642500D01*
X171292500Y-132540000D01*
X170778446Y-132540000D01*
X170627754Y-132602419D01*
X170512419Y-132717754D01*
X170450000Y-132868446D01*
X170110000Y-132868446D01*
X170110000Y-128237290D01*
X178482000Y-128237290D01*
X178482000Y-128562710D01*
X178572001Y-128779991D01*
X178572000Y-129328304D01*
X178557739Y-129400000D01*
X178572000Y-129471695D01*
X178572000Y-129471699D01*
X178614239Y-129684050D01*
X178775142Y-129924858D01*
X178835926Y-129965473D01*
X178916533Y-130046079D01*
X179006533Y-130263360D01*
X179236640Y-130493467D01*
X179537290Y-130618000D01*
X179862710Y-130618000D01*
X180163360Y-130493467D01*
X180393467Y-130263360D01*
X180518000Y-129962710D01*
X180518000Y-129637290D01*
X180393467Y-129336640D01*
X180294117Y-129237290D01*
X189882000Y-129237290D01*
X189882000Y-129562710D01*
X189972000Y-129779990D01*
X189972001Y-131220008D01*
X189882000Y-131437290D01*
X189882000Y-131762710D01*
X190006533Y-132063360D01*
X190236640Y-132293467D01*
X190537290Y-132418000D01*
X190862710Y-132418000D01*
X191120711Y-132311133D01*
X191137290Y-132318000D01*
X191462710Y-132318000D01*
X191650000Y-132240422D01*
X191837290Y-132318000D01*
X192162710Y-132318000D01*
X192463360Y-132193467D01*
X192693467Y-131963360D01*
X192818000Y-131662710D01*
X192818000Y-131337290D01*
X192693467Y-131036640D01*
X192628000Y-130971173D01*
X192628000Y-129037290D01*
X201582000Y-129037290D01*
X201582000Y-129362710D01*
X201672001Y-129579992D01*
X201672000Y-133128305D01*
X201657739Y-133200000D01*
X201672000Y-133271695D01*
X201672000Y-133271699D01*
X201682000Y-133321973D01*
X201682000Y-133462710D01*
X201806533Y-133763360D01*
X202036640Y-133993467D01*
X202337290Y-134118000D01*
X202662710Y-134118000D01*
X202963360Y-133993467D01*
X202967666Y-133989161D01*
X203037290Y-134018000D01*
X203362710Y-134018000D01*
X203663360Y-133893467D01*
X203738827Y-133818000D01*
X204062710Y-133818000D01*
X204363360Y-133693467D01*
X204593467Y-133463360D01*
X204718000Y-133162710D01*
X204718000Y-132837290D01*
X204593467Y-132536640D01*
X204363360Y-132306533D01*
X204328000Y-132291886D01*
X204328000Y-128579990D01*
X204418000Y-128362710D01*
X204418000Y-128037290D01*
X204293467Y-127736640D01*
X204063360Y-127506533D01*
X203762710Y-127382000D01*
X203437290Y-127382000D01*
X203136640Y-127506533D01*
X202906533Y-127736640D01*
X202782000Y-128037290D01*
X202782000Y-128362710D01*
X202837061Y-128495640D01*
X202562710Y-128382000D01*
X202237290Y-128382000D01*
X201936640Y-128506533D01*
X201706533Y-128736640D01*
X201582000Y-129037290D01*
X192628000Y-129037290D01*
X192628000Y-128379990D01*
X192718000Y-128162710D01*
X192718000Y-127837290D01*
X192593467Y-127536640D01*
X192363360Y-127306533D01*
X192062710Y-127182000D01*
X191737290Y-127182000D01*
X191436640Y-127306533D01*
X191206533Y-127536640D01*
X191082000Y-127837290D01*
X191082000Y-128162710D01*
X191172001Y-128379992D01*
X191172001Y-128682000D01*
X191137290Y-128682000D01*
X191120711Y-128688867D01*
X190862710Y-128582000D01*
X190537290Y-128582000D01*
X190236640Y-128706533D01*
X190006533Y-128936640D01*
X189882000Y-129237290D01*
X180294117Y-129237290D01*
X180163360Y-129106533D01*
X180028000Y-129050465D01*
X180028000Y-128779990D01*
X180118000Y-128562710D01*
X180118000Y-128237290D01*
X179993467Y-127936640D01*
X179763360Y-127706533D01*
X179462710Y-127582000D01*
X179137290Y-127582000D01*
X178836640Y-127706533D01*
X178606533Y-127936640D01*
X178482000Y-128237290D01*
X170110000Y-128237290D01*
X170110000Y-124050000D01*
X170229893Y-124050000D01*
X170229893Y-125550000D01*
X170277857Y-125791132D01*
X170414447Y-125995553D01*
X170618868Y-126132143D01*
X170860000Y-126180107D01*
X171960000Y-126180107D01*
X172201132Y-126132143D01*
X172405553Y-125995553D01*
X172542143Y-125791132D01*
X172590107Y-125550000D01*
X172590107Y-124050000D01*
X172769893Y-124050000D01*
X172769893Y-125550000D01*
X172817857Y-125791132D01*
X172954447Y-125995553D01*
X173158868Y-126132143D01*
X173400000Y-126180107D01*
X174500000Y-126180107D01*
X174741132Y-126132143D01*
X174945553Y-125995553D01*
X175082143Y-125791132D01*
X175130107Y-125550000D01*
X175130107Y-124050000D01*
X175082143Y-123808868D01*
X174945553Y-123604447D01*
X174741132Y-123467857D01*
X174718000Y-123463256D01*
X174718000Y-123337290D01*
X174593467Y-123036640D01*
X174363360Y-122806533D01*
X174062710Y-122682000D01*
X173737290Y-122682000D01*
X173436640Y-122806533D01*
X173206533Y-123036640D01*
X173082000Y-123337290D01*
X173082000Y-123519219D01*
X172954447Y-123604447D01*
X172817857Y-123808868D01*
X172769893Y-124050000D01*
X172590107Y-124050000D01*
X172542143Y-123808868D01*
X172405553Y-123604447D01*
X172201132Y-123467857D01*
X172128000Y-123453310D01*
X172128000Y-123179990D01*
X172218000Y-122962710D01*
X172218000Y-122637290D01*
X172093467Y-122336640D01*
X171863360Y-122106533D01*
X171562710Y-121982000D01*
X171237290Y-121982000D01*
X170936640Y-122106533D01*
X170706533Y-122336640D01*
X170582000Y-122637290D01*
X170582000Y-122962710D01*
X170672000Y-123179990D01*
X170672000Y-123457288D01*
X170618868Y-123467857D01*
X170414447Y-123604447D01*
X170277857Y-123808868D01*
X170229893Y-124050000D01*
X170110000Y-124050000D01*
X170110000Y-120337290D01*
X189382000Y-120337290D01*
X189382000Y-120662710D01*
X189506533Y-120963360D01*
X189736640Y-121193467D01*
X190037290Y-121318000D01*
X190362710Y-121318000D01*
X190451624Y-121281171D01*
X192216533Y-123046081D01*
X192306533Y-123263360D01*
X192536640Y-123493467D01*
X192837290Y-123618000D01*
X193162710Y-123618000D01*
X193463360Y-123493467D01*
X193693467Y-123263360D01*
X193818000Y-122962710D01*
X193818000Y-122637290D01*
X193693467Y-122336640D01*
X193463360Y-122106533D01*
X193246081Y-122016533D01*
X191265472Y-120035925D01*
X191224858Y-119975142D01*
X190984051Y-119814239D01*
X190771700Y-119772000D01*
X190771695Y-119772000D01*
X190700000Y-119757739D01*
X190628305Y-119772000D01*
X190579990Y-119772000D01*
X190362710Y-119682000D01*
X190037290Y-119682000D01*
X189736640Y-119806533D01*
X189506533Y-120036640D01*
X189382000Y-120337290D01*
X170110000Y-120337290D01*
X170110000Y-118737290D01*
X201482000Y-118737290D01*
X201482000Y-119062710D01*
X201606533Y-119363360D01*
X201836640Y-119593467D01*
X202053920Y-119683467D01*
X203123602Y-120753150D01*
X202896757Y-120979995D01*
X202757000Y-121317398D01*
X202757000Y-121682602D01*
X202896757Y-122020005D01*
X203154995Y-122278243D01*
X203206145Y-122299430D01*
X203300788Y-122415913D01*
X203325781Y-122453318D01*
X203354572Y-122482109D01*
X203380243Y-122513704D01*
X203414871Y-122542408D01*
X206971757Y-126099294D01*
X207021757Y-126220005D01*
X207279995Y-126478243D01*
X207400706Y-126528243D01*
X208032000Y-127159538D01*
X208032001Y-135296685D01*
X207982000Y-135417398D01*
X207982000Y-135782602D01*
X208121757Y-136120005D01*
X208379995Y-136378243D01*
X208717398Y-136518000D01*
X209082602Y-136518000D01*
X209420005Y-136378243D01*
X209678243Y-136120005D01*
X209818000Y-135782602D01*
X209818000Y-135417398D01*
X209768000Y-135296687D01*
X209768000Y-126885490D01*
X209785005Y-126800000D01*
X209717638Y-126461323D01*
X209574219Y-126246681D01*
X209574218Y-126246680D01*
X209525793Y-126174207D01*
X209453320Y-126125782D01*
X208745537Y-125418000D01*
X208862710Y-125418000D01*
X209050000Y-125340422D01*
X209237290Y-125418000D01*
X209562710Y-125418000D01*
X209863360Y-125293467D01*
X210093467Y-125063360D01*
X210218000Y-124762710D01*
X210218000Y-124437290D01*
X210093467Y-124136640D01*
X209863360Y-123906533D01*
X209646081Y-123816534D01*
X203683467Y-117853920D01*
X203593467Y-117636640D01*
X203363360Y-117406533D01*
X203062710Y-117282000D01*
X202737290Y-117282000D01*
X202436640Y-117406533D01*
X202206533Y-117636640D01*
X202082000Y-117937290D01*
X202082000Y-118104902D01*
X201836640Y-118206533D01*
X201606533Y-118436640D01*
X201482000Y-118737290D01*
X170110000Y-118737290D01*
X170110000Y-115658268D01*
X170282000Y-115658268D01*
X170282000Y-116341732D01*
X170543550Y-116973169D01*
X171026831Y-117456450D01*
X171658268Y-117718000D01*
X172341732Y-117718000D01*
X172973169Y-117456450D01*
X173456450Y-116973169D01*
X173678418Y-116437290D01*
X190582000Y-116437290D01*
X190582000Y-116762710D01*
X190672001Y-116979991D01*
X190672000Y-117428304D01*
X190657739Y-117500000D01*
X190672000Y-117571695D01*
X190672000Y-117571699D01*
X190714239Y-117784050D01*
X190771156Y-117869232D01*
X190814785Y-117934527D01*
X190875142Y-118024858D01*
X190935926Y-118065473D01*
X191016533Y-118146079D01*
X191106533Y-118363360D01*
X191336640Y-118593467D01*
X191637290Y-118718000D01*
X191962710Y-118718000D01*
X192263360Y-118593467D01*
X192493467Y-118363360D01*
X192618000Y-118062710D01*
X192618000Y-117737290D01*
X192493467Y-117436640D01*
X192263360Y-117206533D01*
X192128000Y-117150465D01*
X192128000Y-116979990D01*
X192218000Y-116762710D01*
X192218000Y-116437290D01*
X192093467Y-116136640D01*
X191863360Y-115906533D01*
X191562710Y-115782000D01*
X191237290Y-115782000D01*
X190936640Y-115906533D01*
X190706533Y-116136640D01*
X190582000Y-116437290D01*
X173678418Y-116437290D01*
X173718000Y-116341732D01*
X173718000Y-115658268D01*
X173456450Y-115026831D01*
X172973169Y-114543550D01*
X172341732Y-114282000D01*
X171658268Y-114282000D01*
X171026831Y-114543550D01*
X170543550Y-115026831D01*
X170282000Y-115658268D01*
X170110000Y-115658268D01*
X170110000Y-114514482D01*
X170165610Y-114306941D01*
X170306941Y-114165610D01*
X170514482Y-114110000D01*
X174500000Y-114110000D01*
X174528470Y-114106252D01*
X174778470Y-114039265D01*
X174827782Y-114010795D01*
X175010795Y-113827782D01*
X175039265Y-113778470D01*
X175106252Y-113528470D01*
X175110000Y-113500000D01*
X175110000Y-112637290D01*
X205882000Y-112637290D01*
X205882000Y-112962710D01*
X206006533Y-113263360D01*
X206236640Y-113493467D01*
X206453920Y-113583467D01*
X208972001Y-116101548D01*
X208972000Y-116320009D01*
X208882000Y-116537290D01*
X208882000Y-116862710D01*
X208972000Y-117079990D01*
X208972000Y-117128305D01*
X208957739Y-117200000D01*
X208972000Y-117271695D01*
X208972000Y-117271699D01*
X209014239Y-117484050D01*
X209036924Y-117518000D01*
X209116197Y-117636640D01*
X209175142Y-117724858D01*
X209235925Y-117765472D01*
X210834530Y-119364077D01*
X210875142Y-119424858D01*
X210935922Y-119465470D01*
X210935925Y-119465473D01*
X210987599Y-119500000D01*
X211115949Y-119585761D01*
X211328300Y-119628000D01*
X211328304Y-119628000D01*
X211399999Y-119642261D01*
X211471694Y-119628000D01*
X212020010Y-119628000D01*
X212237290Y-119718000D01*
X212562710Y-119718000D01*
X212863360Y-119593467D01*
X213093467Y-119363360D01*
X213218000Y-119062710D01*
X213218000Y-118789680D01*
X213306794Y-118922569D01*
X213406533Y-119163360D01*
X213636640Y-119393467D01*
X213937290Y-119518000D01*
X214262710Y-119518000D01*
X214563360Y-119393467D01*
X214639429Y-119317398D01*
X216382000Y-119317398D01*
X216382000Y-119682602D01*
X216521757Y-120020005D01*
X216779995Y-120278243D01*
X217117398Y-120418000D01*
X217482602Y-120418000D01*
X217603313Y-120368000D01*
X218590000Y-120368000D01*
X218590000Y-120382500D01*
X218692500Y-120485000D01*
X219985000Y-120485000D01*
X219985000Y-120465000D01*
X220015000Y-120465000D01*
X220015000Y-120485000D01*
X221307500Y-120485000D01*
X221410000Y-120382500D01*
X221410000Y-120274309D01*
X221445553Y-120250553D01*
X221582143Y-120046132D01*
X221630107Y-119805000D01*
X221630107Y-119195000D01*
X221582143Y-118953868D01*
X221445553Y-118749447D01*
X221241132Y-118612857D01*
X221000000Y-118564893D01*
X219000000Y-118564893D01*
X218758868Y-118612857D01*
X218730219Y-118632000D01*
X217603313Y-118632000D01*
X217482602Y-118582000D01*
X217117398Y-118582000D01*
X216779995Y-118721757D01*
X216521757Y-118979995D01*
X216382000Y-119317398D01*
X214639429Y-119317398D01*
X214793467Y-119163360D01*
X214918000Y-118862710D01*
X214918000Y-118537290D01*
X214793467Y-118236640D01*
X214628000Y-118071173D01*
X214628000Y-117057619D01*
X215026831Y-117456450D01*
X215658268Y-117718000D01*
X216341732Y-117718000D01*
X216973169Y-117456450D01*
X217456450Y-116973169D01*
X217718000Y-116341732D01*
X217718000Y-115658268D01*
X217515753Y-115170000D01*
X220369893Y-115170000D01*
X220369893Y-117850000D01*
X220417857Y-118091132D01*
X220554447Y-118295553D01*
X220758868Y-118432143D01*
X221000000Y-118480107D01*
X224600000Y-118480107D01*
X224841132Y-118432143D01*
X225045553Y-118295553D01*
X225182143Y-118091132D01*
X225230107Y-117850000D01*
X225230107Y-115170000D01*
X225182143Y-114928868D01*
X225045553Y-114724447D01*
X224841132Y-114587857D01*
X224600000Y-114539893D01*
X221000000Y-114539893D01*
X220758868Y-114587857D01*
X220554447Y-114724447D01*
X220417857Y-114928868D01*
X220369893Y-115170000D01*
X217515753Y-115170000D01*
X217456450Y-115026831D01*
X216973169Y-114543550D01*
X216341732Y-114282000D01*
X215658268Y-114282000D01*
X215026831Y-114543550D01*
X214543550Y-115026831D01*
X214379561Y-115422734D01*
X214363360Y-115406533D01*
X214062710Y-115282000D01*
X213737290Y-115282000D01*
X213436640Y-115406533D01*
X213206533Y-115636640D01*
X213082000Y-115937290D01*
X213082000Y-116262710D01*
X213172001Y-116479992D01*
X213172000Y-118228300D01*
X213172000Y-118428305D01*
X213157739Y-118500000D01*
X213172000Y-118571695D01*
X213172000Y-118571700D01*
X213192870Y-118676620D01*
X213093467Y-118436640D01*
X212863360Y-118206533D01*
X212562710Y-118082000D01*
X212237290Y-118082000D01*
X212020010Y-118172000D01*
X211701548Y-118172000D01*
X210481171Y-116951624D01*
X210518000Y-116862710D01*
X210518000Y-116537290D01*
X210428000Y-116320010D01*
X210428000Y-115871695D01*
X210442261Y-115800000D01*
X210428000Y-115728305D01*
X210428000Y-115728300D01*
X210385761Y-115515949D01*
X210224858Y-115275142D01*
X210164075Y-115234528D01*
X207483467Y-112553920D01*
X207393467Y-112336640D01*
X207163360Y-112106533D01*
X206862710Y-111982000D01*
X206537290Y-111982000D01*
X206236640Y-112106533D01*
X206006533Y-112336640D01*
X205882000Y-112637290D01*
X175110000Y-112637290D01*
X175110000Y-109514482D01*
X175165610Y-109306941D01*
X175306941Y-109165610D01*
X175514482Y-109110000D01*
X212485518Y-109110000D01*
X212693059Y-109165610D01*
G04 #@! TD*
M02*
