G04 #@! TF.GenerationSoftware,KiCad,Pcbnew,(5.0.2)-1*
G04 #@! TF.CreationDate,2019-04-27T00:21:17-04:00*
G04 #@! TF.ProjectId,Dash_Warning_Panel,44617368-5f57-4617-926e-696e675f5061,rev?*
G04 #@! TF.SameCoordinates,Original*
G04 #@! TF.FileFunction,Soldermask,Top*
G04 #@! TF.FilePolarity,Negative*
%FSLAX46Y46*%
G04 Gerber Fmt 4.6, Leading zero omitted, Abs format (unit mm)*
G04 Created by KiCad (PCBNEW (5.0.2)-1) date 4/27/2019 12:21:17 AM*
%MOMM*%
%LPD*%
G01*
G04 APERTURE LIST*
G04 #@! TA.AperFunction,NonConductor*
%ADD10C,0.100000*%
G04 #@! TD*
G04 APERTURE END LIST*
D10*
G36*
X216335673Y-138893424D02*
X216335675Y-138893425D01*
X216335676Y-138893425D01*
X216545108Y-138980174D01*
X216545109Y-138980175D01*
X216733595Y-139106117D01*
X216893883Y-139266405D01*
X216893885Y-139266408D01*
X217019826Y-139454892D01*
X217089955Y-139624200D01*
X217106576Y-139664327D01*
X217150800Y-139886655D01*
X217150800Y-140113345D01*
X217118486Y-140275800D01*
X217106575Y-140335676D01*
X217019826Y-140545108D01*
X217019825Y-140545109D01*
X216893883Y-140733595D01*
X216733595Y-140893883D01*
X216733592Y-140893885D01*
X216545108Y-141019826D01*
X216335676Y-141106575D01*
X216335675Y-141106575D01*
X216335673Y-141106576D01*
X216113345Y-141150800D01*
X215886655Y-141150800D01*
X215664327Y-141106576D01*
X215664325Y-141106575D01*
X215664324Y-141106575D01*
X215454892Y-141019826D01*
X215266408Y-140893885D01*
X215266405Y-140893883D01*
X215106117Y-140733595D01*
X214980175Y-140545109D01*
X214980174Y-140545108D01*
X214893425Y-140335676D01*
X214881515Y-140275800D01*
X214849200Y-140113345D01*
X214849200Y-139886655D01*
X214893424Y-139664327D01*
X214910045Y-139624200D01*
X214980174Y-139454892D01*
X215106115Y-139266408D01*
X215106117Y-139266405D01*
X215266405Y-139106117D01*
X215454891Y-138980175D01*
X215454892Y-138980174D01*
X215664324Y-138893425D01*
X215664325Y-138893425D01*
X215664327Y-138893424D01*
X215886655Y-138849200D01*
X216113345Y-138849200D01*
X216335673Y-138893424D01*
X216335673Y-138893424D01*
G37*
G36*
X172335673Y-138893424D02*
X172335675Y-138893425D01*
X172335676Y-138893425D01*
X172545108Y-138980174D01*
X172545109Y-138980175D01*
X172733595Y-139106117D01*
X172893883Y-139266405D01*
X172893885Y-139266408D01*
X173019826Y-139454892D01*
X173089955Y-139624200D01*
X173106576Y-139664327D01*
X173150800Y-139886655D01*
X173150800Y-140113345D01*
X173118486Y-140275800D01*
X173106575Y-140335676D01*
X173019826Y-140545108D01*
X173019825Y-140545109D01*
X172893883Y-140733595D01*
X172733595Y-140893883D01*
X172733592Y-140893885D01*
X172545108Y-141019826D01*
X172335676Y-141106575D01*
X172335675Y-141106575D01*
X172335673Y-141106576D01*
X172113345Y-141150800D01*
X171886655Y-141150800D01*
X171664327Y-141106576D01*
X171664325Y-141106575D01*
X171664324Y-141106575D01*
X171454892Y-141019826D01*
X171266408Y-140893885D01*
X171266405Y-140893883D01*
X171106117Y-140733595D01*
X170980175Y-140545109D01*
X170980174Y-140545108D01*
X170893425Y-140335676D01*
X170881515Y-140275800D01*
X170849200Y-140113345D01*
X170849200Y-139886655D01*
X170893424Y-139664327D01*
X170910045Y-139624200D01*
X170980174Y-139454892D01*
X171106115Y-139266408D01*
X171106117Y-139266405D01*
X171266405Y-139106117D01*
X171454891Y-138980175D01*
X171454892Y-138980174D01*
X171664324Y-138893425D01*
X171664325Y-138893425D01*
X171664327Y-138893424D01*
X171886655Y-138849200D01*
X172113345Y-138849200D01*
X172335673Y-138893424D01*
X172335673Y-138893424D01*
G37*
G36*
X181150800Y-141125800D02*
X180149200Y-141125800D01*
X180149200Y-138774200D01*
X181150800Y-138774200D01*
X181150800Y-141125800D01*
X181150800Y-141125800D01*
G37*
G36*
X195850800Y-141125800D02*
X194849200Y-141125800D01*
X194849200Y-138774200D01*
X195850800Y-138774200D01*
X195850800Y-141125800D01*
X195850800Y-141125800D01*
G37*
G36*
X193150800Y-141125800D02*
X192149200Y-141125800D01*
X192149200Y-138774200D01*
X193150800Y-138774200D01*
X193150800Y-141125800D01*
X193150800Y-141125800D01*
G37*
G36*
X207850800Y-141125800D02*
X206849200Y-141125800D01*
X206849200Y-138774200D01*
X207850800Y-138774200D01*
X207850800Y-141125800D01*
X207850800Y-141125800D01*
G37*
G36*
X205150800Y-141125800D02*
X204149200Y-141125800D01*
X204149200Y-138774200D01*
X205150800Y-138774200D01*
X205150800Y-141125800D01*
X205150800Y-141125800D01*
G37*
G36*
X183850800Y-141125800D02*
X182849200Y-141125800D01*
X182849200Y-138774200D01*
X183850800Y-138774200D01*
X183850800Y-141125800D01*
X183850800Y-141125800D01*
G37*
G36*
X208250800Y-136550800D02*
X207149200Y-136550800D01*
X207149200Y-134849200D01*
X208250800Y-134849200D01*
X208250800Y-136550800D01*
X208250800Y-136550800D01*
G37*
G36*
X205250800Y-136550800D02*
X204149200Y-136550800D01*
X204149200Y-134849200D01*
X205250800Y-134849200D01*
X205250800Y-136550800D01*
X205250800Y-136550800D01*
G37*
G36*
X226100800Y-133650800D02*
X224299200Y-133650800D01*
X224299200Y-132649200D01*
X226100800Y-132649200D01*
X226100800Y-133650800D01*
X226100800Y-133650800D01*
G37*
G36*
X220975800Y-133250800D02*
X219624200Y-133250800D01*
X219624200Y-132149200D01*
X220975800Y-132149200D01*
X220975800Y-133250800D01*
X220975800Y-133250800D01*
G37*
G36*
X223300800Y-132950800D02*
X221899200Y-132950800D01*
X221899200Y-132149200D01*
X223300800Y-132149200D01*
X223300800Y-132950800D01*
X223300800Y-132950800D01*
G37*
G36*
X216250000Y-128325000D02*
X216252402Y-128349386D01*
X216259515Y-128372835D01*
X216271066Y-128394446D01*
X216286612Y-128413388D01*
X216305554Y-128428934D01*
X216327165Y-128440485D01*
X216350614Y-128447598D01*
X216375000Y-128450000D01*
X216950000Y-128450000D01*
X216950000Y-131550000D01*
X216375000Y-131550000D01*
X216350614Y-131552402D01*
X216327165Y-131559515D01*
X216305554Y-131571066D01*
X216286612Y-131586612D01*
X216271066Y-131605554D01*
X216259515Y-131627165D01*
X216252402Y-131650614D01*
X216250000Y-131675000D01*
X216250000Y-132250000D01*
X213150000Y-132250000D01*
X213150000Y-131675000D01*
X213147598Y-131650614D01*
X213140485Y-131627165D01*
X213128934Y-131605554D01*
X213113388Y-131586612D01*
X213094446Y-131571066D01*
X213072835Y-131559515D01*
X213049386Y-131552402D01*
X213025000Y-131550000D01*
X212450000Y-131550000D01*
X212450000Y-131500800D01*
X213364710Y-131500800D01*
X213367112Y-131525186D01*
X213374225Y-131548635D01*
X213385776Y-131570246D01*
X213401322Y-131589188D01*
X213411612Y-131599478D01*
X213430554Y-131615024D01*
X213452165Y-131626575D01*
X213475614Y-131633688D01*
X213500000Y-131636090D01*
X213524386Y-131633688D01*
X213547835Y-131626575D01*
X213569446Y-131615024D01*
X213588388Y-131599478D01*
X213598678Y-131589188D01*
X213614224Y-131570246D01*
X213625775Y-131548635D01*
X213632888Y-131525186D01*
X213635290Y-131500800D01*
X213764710Y-131500800D01*
X213767112Y-131525186D01*
X213774225Y-131548635D01*
X213785776Y-131570246D01*
X213801322Y-131589188D01*
X213811612Y-131599478D01*
X213830554Y-131615024D01*
X213852165Y-131626575D01*
X213875614Y-131633688D01*
X213900000Y-131636090D01*
X213924386Y-131633688D01*
X213947835Y-131626575D01*
X213969446Y-131615024D01*
X213988388Y-131599478D01*
X213998678Y-131589188D01*
X214014224Y-131570246D01*
X214025775Y-131548635D01*
X214032888Y-131525186D01*
X214035290Y-131500800D01*
X214164710Y-131500800D01*
X214167112Y-131525186D01*
X214174225Y-131548635D01*
X214185776Y-131570246D01*
X214201322Y-131589188D01*
X214211612Y-131599478D01*
X214230554Y-131615024D01*
X214252165Y-131626575D01*
X214275614Y-131633688D01*
X214300000Y-131636090D01*
X214324386Y-131633688D01*
X214347835Y-131626575D01*
X214369446Y-131615024D01*
X214388388Y-131599478D01*
X214398678Y-131589188D01*
X214414224Y-131570246D01*
X214425775Y-131548635D01*
X214432888Y-131525186D01*
X214435290Y-131500800D01*
X214564710Y-131500800D01*
X214567112Y-131525186D01*
X214574225Y-131548635D01*
X214585776Y-131570246D01*
X214601322Y-131589188D01*
X214611612Y-131599478D01*
X214630554Y-131615024D01*
X214652165Y-131626575D01*
X214675614Y-131633688D01*
X214700000Y-131636090D01*
X214724386Y-131633688D01*
X214747835Y-131626575D01*
X214769446Y-131615024D01*
X214788388Y-131599478D01*
X214798678Y-131589188D01*
X214814224Y-131570246D01*
X214825775Y-131548635D01*
X214832888Y-131525186D01*
X214835290Y-131500800D01*
X214964710Y-131500800D01*
X214967112Y-131525186D01*
X214974225Y-131548635D01*
X214985776Y-131570246D01*
X215001322Y-131589188D01*
X215011612Y-131599478D01*
X215030554Y-131615024D01*
X215052165Y-131626575D01*
X215075614Y-131633688D01*
X215100000Y-131636090D01*
X215124386Y-131633688D01*
X215147835Y-131626575D01*
X215169446Y-131615024D01*
X215188388Y-131599478D01*
X215198678Y-131589188D01*
X215214224Y-131570246D01*
X215225775Y-131548635D01*
X215232888Y-131525186D01*
X215235290Y-131500800D01*
X215364710Y-131500800D01*
X215367112Y-131525186D01*
X215374225Y-131548635D01*
X215385776Y-131570246D01*
X215401322Y-131589188D01*
X215411612Y-131599478D01*
X215430554Y-131615024D01*
X215452165Y-131626575D01*
X215475614Y-131633688D01*
X215500000Y-131636090D01*
X215524386Y-131633688D01*
X215547835Y-131626575D01*
X215569446Y-131615024D01*
X215588388Y-131599478D01*
X215598678Y-131589188D01*
X215614224Y-131570246D01*
X215625775Y-131548635D01*
X215632888Y-131525186D01*
X215635290Y-131500800D01*
X215764710Y-131500800D01*
X215767112Y-131525186D01*
X215774225Y-131548635D01*
X215785776Y-131570246D01*
X215801322Y-131589188D01*
X215811612Y-131599478D01*
X215830554Y-131615024D01*
X215852165Y-131626575D01*
X215875614Y-131633688D01*
X215900000Y-131636090D01*
X215924386Y-131633688D01*
X215947835Y-131626575D01*
X215969446Y-131615024D01*
X215988388Y-131599478D01*
X215998678Y-131589188D01*
X216014224Y-131570246D01*
X216025775Y-131548635D01*
X216032888Y-131525186D01*
X216035290Y-131500800D01*
X216032888Y-131476414D01*
X216025775Y-131452965D01*
X216014224Y-131431354D01*
X215998678Y-131412412D01*
X215979736Y-131396866D01*
X215958125Y-131385315D01*
X215934676Y-131378202D01*
X215910290Y-131375800D01*
X215889710Y-131375800D01*
X215865324Y-131378202D01*
X215841875Y-131385315D01*
X215820264Y-131396866D01*
X215801322Y-131412412D01*
X215785776Y-131431354D01*
X215774225Y-131452965D01*
X215767112Y-131476414D01*
X215764710Y-131500800D01*
X215635290Y-131500800D01*
X215632888Y-131476414D01*
X215625775Y-131452965D01*
X215614224Y-131431354D01*
X215598678Y-131412412D01*
X215579736Y-131396866D01*
X215558125Y-131385315D01*
X215534676Y-131378202D01*
X215510290Y-131375800D01*
X215489710Y-131375800D01*
X215465324Y-131378202D01*
X215441875Y-131385315D01*
X215420264Y-131396866D01*
X215401322Y-131412412D01*
X215385776Y-131431354D01*
X215374225Y-131452965D01*
X215367112Y-131476414D01*
X215364710Y-131500800D01*
X215235290Y-131500800D01*
X215232888Y-131476414D01*
X215225775Y-131452965D01*
X215214224Y-131431354D01*
X215198678Y-131412412D01*
X215179736Y-131396866D01*
X215158125Y-131385315D01*
X215134676Y-131378202D01*
X215110290Y-131375800D01*
X215089710Y-131375800D01*
X215065324Y-131378202D01*
X215041875Y-131385315D01*
X215020264Y-131396866D01*
X215001322Y-131412412D01*
X214985776Y-131431354D01*
X214974225Y-131452965D01*
X214967112Y-131476414D01*
X214964710Y-131500800D01*
X214835290Y-131500800D01*
X214832888Y-131476414D01*
X214825775Y-131452965D01*
X214814224Y-131431354D01*
X214798678Y-131412412D01*
X214779736Y-131396866D01*
X214758125Y-131385315D01*
X214734676Y-131378202D01*
X214710290Y-131375800D01*
X214689710Y-131375800D01*
X214665324Y-131378202D01*
X214641875Y-131385315D01*
X214620264Y-131396866D01*
X214601322Y-131412412D01*
X214585776Y-131431354D01*
X214574225Y-131452965D01*
X214567112Y-131476414D01*
X214564710Y-131500800D01*
X214435290Y-131500800D01*
X214432888Y-131476414D01*
X214425775Y-131452965D01*
X214414224Y-131431354D01*
X214398678Y-131412412D01*
X214379736Y-131396866D01*
X214358125Y-131385315D01*
X214334676Y-131378202D01*
X214310290Y-131375800D01*
X214289710Y-131375800D01*
X214265324Y-131378202D01*
X214241875Y-131385315D01*
X214220264Y-131396866D01*
X214201322Y-131412412D01*
X214185776Y-131431354D01*
X214174225Y-131452965D01*
X214167112Y-131476414D01*
X214164710Y-131500800D01*
X214035290Y-131500800D01*
X214032888Y-131476414D01*
X214025775Y-131452965D01*
X214014224Y-131431354D01*
X213998678Y-131412412D01*
X213979736Y-131396866D01*
X213958125Y-131385315D01*
X213934676Y-131378202D01*
X213910290Y-131375800D01*
X213889710Y-131375800D01*
X213865324Y-131378202D01*
X213841875Y-131385315D01*
X213820264Y-131396866D01*
X213801322Y-131412412D01*
X213785776Y-131431354D01*
X213774225Y-131452965D01*
X213767112Y-131476414D01*
X213764710Y-131500800D01*
X213635290Y-131500800D01*
X213632888Y-131476414D01*
X213625775Y-131452965D01*
X213614224Y-131431354D01*
X213598678Y-131412412D01*
X213579736Y-131396866D01*
X213558125Y-131385315D01*
X213534676Y-131378202D01*
X213510290Y-131375800D01*
X213489710Y-131375800D01*
X213465324Y-131378202D01*
X213441875Y-131385315D01*
X213420264Y-131396866D01*
X213401322Y-131412412D01*
X213385776Y-131431354D01*
X213374225Y-131452965D01*
X213367112Y-131476414D01*
X213364710Y-131500800D01*
X212450000Y-131500800D01*
X212450000Y-131200000D01*
X213063910Y-131200000D01*
X213066312Y-131224386D01*
X213073425Y-131247835D01*
X213084976Y-131269446D01*
X213100522Y-131288388D01*
X213110812Y-131298678D01*
X213129754Y-131314224D01*
X213151365Y-131325775D01*
X213174814Y-131332888D01*
X213199200Y-131335290D01*
X213223586Y-131332888D01*
X213247035Y-131325775D01*
X213268646Y-131314224D01*
X213287588Y-131298678D01*
X213303134Y-131279736D01*
X213314685Y-131258125D01*
X213321798Y-131234676D01*
X213324200Y-131210290D01*
X213324200Y-131189710D01*
X216075800Y-131189710D01*
X216075800Y-131210290D01*
X216078202Y-131234676D01*
X216085315Y-131258125D01*
X216096866Y-131279736D01*
X216112412Y-131298678D01*
X216131354Y-131314224D01*
X216152965Y-131325775D01*
X216176414Y-131332888D01*
X216200800Y-131335290D01*
X216225186Y-131332888D01*
X216248635Y-131325775D01*
X216270246Y-131314224D01*
X216289188Y-131298678D01*
X216299478Y-131288388D01*
X216315024Y-131269446D01*
X216326575Y-131247835D01*
X216333688Y-131224386D01*
X216336090Y-131200000D01*
X216333688Y-131175614D01*
X216326575Y-131152165D01*
X216315024Y-131130554D01*
X216299478Y-131111612D01*
X216289188Y-131101322D01*
X216270246Y-131085776D01*
X216248635Y-131074225D01*
X216225186Y-131067112D01*
X216200800Y-131064710D01*
X216176414Y-131067112D01*
X216152965Y-131074225D01*
X216131354Y-131085776D01*
X216112412Y-131101322D01*
X216096866Y-131120264D01*
X216085315Y-131141875D01*
X216078202Y-131165324D01*
X216075800Y-131189710D01*
X213324200Y-131189710D01*
X213321798Y-131165324D01*
X213314685Y-131141875D01*
X213303134Y-131120264D01*
X213287588Y-131101322D01*
X213268646Y-131085776D01*
X213247035Y-131074225D01*
X213223586Y-131067112D01*
X213199200Y-131064710D01*
X213174814Y-131067112D01*
X213151365Y-131074225D01*
X213129754Y-131085776D01*
X213110812Y-131101322D01*
X213100522Y-131111612D01*
X213084976Y-131130554D01*
X213073425Y-131152165D01*
X213066312Y-131175614D01*
X213063910Y-131200000D01*
X212450000Y-131200000D01*
X212450000Y-130800000D01*
X213063910Y-130800000D01*
X213066312Y-130824386D01*
X213073425Y-130847835D01*
X213084976Y-130869446D01*
X213100522Y-130888388D01*
X213110812Y-130898678D01*
X213129754Y-130914224D01*
X213151365Y-130925775D01*
X213174814Y-130932888D01*
X213199200Y-130935290D01*
X213223586Y-130932888D01*
X213247035Y-130925775D01*
X213268646Y-130914224D01*
X213287588Y-130898678D01*
X213303134Y-130879736D01*
X213314685Y-130858125D01*
X213321798Y-130834676D01*
X213324200Y-130810290D01*
X213324200Y-130789710D01*
X216075800Y-130789710D01*
X216075800Y-130810290D01*
X216078202Y-130834676D01*
X216085315Y-130858125D01*
X216096866Y-130879736D01*
X216112412Y-130898678D01*
X216131354Y-130914224D01*
X216152965Y-130925775D01*
X216176414Y-130932888D01*
X216200800Y-130935290D01*
X216225186Y-130932888D01*
X216248635Y-130925775D01*
X216270246Y-130914224D01*
X216289188Y-130898678D01*
X216299478Y-130888388D01*
X216315024Y-130869446D01*
X216326575Y-130847835D01*
X216333688Y-130824386D01*
X216336090Y-130800000D01*
X216333688Y-130775614D01*
X216326575Y-130752165D01*
X216315024Y-130730554D01*
X216299478Y-130711612D01*
X216289188Y-130701322D01*
X216270246Y-130685776D01*
X216248635Y-130674225D01*
X216225186Y-130667112D01*
X216200800Y-130664710D01*
X216176414Y-130667112D01*
X216152965Y-130674225D01*
X216131354Y-130685776D01*
X216112412Y-130701322D01*
X216096866Y-130720264D01*
X216085315Y-130741875D01*
X216078202Y-130765324D01*
X216075800Y-130789710D01*
X213324200Y-130789710D01*
X213321798Y-130765324D01*
X213314685Y-130741875D01*
X213303134Y-130720264D01*
X213287588Y-130701322D01*
X213268646Y-130685776D01*
X213247035Y-130674225D01*
X213223586Y-130667112D01*
X213199200Y-130664710D01*
X213174814Y-130667112D01*
X213151365Y-130674225D01*
X213129754Y-130685776D01*
X213110812Y-130701322D01*
X213100522Y-130711612D01*
X213084976Y-130730554D01*
X213073425Y-130752165D01*
X213066312Y-130775614D01*
X213063910Y-130800000D01*
X212450000Y-130800000D01*
X212450000Y-130400000D01*
X213063910Y-130400000D01*
X213066312Y-130424386D01*
X213073425Y-130447835D01*
X213084976Y-130469446D01*
X213100522Y-130488388D01*
X213110812Y-130498678D01*
X213129754Y-130514224D01*
X213151365Y-130525775D01*
X213174814Y-130532888D01*
X213199200Y-130535290D01*
X213223586Y-130532888D01*
X213247035Y-130525775D01*
X213268646Y-130514224D01*
X213287588Y-130498678D01*
X213303134Y-130479736D01*
X213314685Y-130458125D01*
X213321798Y-130434676D01*
X213324200Y-130410290D01*
X213324200Y-130389710D01*
X216075800Y-130389710D01*
X216075800Y-130410290D01*
X216078202Y-130434676D01*
X216085315Y-130458125D01*
X216096866Y-130479736D01*
X216112412Y-130498678D01*
X216131354Y-130514224D01*
X216152965Y-130525775D01*
X216176414Y-130532888D01*
X216200800Y-130535290D01*
X216225186Y-130532888D01*
X216248635Y-130525775D01*
X216270246Y-130514224D01*
X216289188Y-130498678D01*
X216299478Y-130488388D01*
X216315024Y-130469446D01*
X216326575Y-130447835D01*
X216333688Y-130424386D01*
X216336090Y-130400000D01*
X216333688Y-130375614D01*
X216326575Y-130352165D01*
X216315024Y-130330554D01*
X216299478Y-130311612D01*
X216289188Y-130301322D01*
X216270246Y-130285776D01*
X216248635Y-130274225D01*
X216225186Y-130267112D01*
X216200800Y-130264710D01*
X216176414Y-130267112D01*
X216152965Y-130274225D01*
X216131354Y-130285776D01*
X216112412Y-130301322D01*
X216096866Y-130320264D01*
X216085315Y-130341875D01*
X216078202Y-130365324D01*
X216075800Y-130389710D01*
X213324200Y-130389710D01*
X213321798Y-130365324D01*
X213314685Y-130341875D01*
X213303134Y-130320264D01*
X213287588Y-130301322D01*
X213268646Y-130285776D01*
X213247035Y-130274225D01*
X213223586Y-130267112D01*
X213199200Y-130264710D01*
X213174814Y-130267112D01*
X213151365Y-130274225D01*
X213129754Y-130285776D01*
X213110812Y-130301322D01*
X213100522Y-130311612D01*
X213084976Y-130330554D01*
X213073425Y-130352165D01*
X213066312Y-130375614D01*
X213063910Y-130400000D01*
X212450000Y-130400000D01*
X212450000Y-130000000D01*
X213063910Y-130000000D01*
X213066312Y-130024386D01*
X213073425Y-130047835D01*
X213084976Y-130069446D01*
X213100522Y-130088388D01*
X213110812Y-130098678D01*
X213129754Y-130114224D01*
X213151365Y-130125775D01*
X213174814Y-130132888D01*
X213199200Y-130135290D01*
X213223586Y-130132888D01*
X213247035Y-130125775D01*
X213268646Y-130114224D01*
X213287588Y-130098678D01*
X213303134Y-130079736D01*
X213314685Y-130058125D01*
X213321798Y-130034676D01*
X213324200Y-130010290D01*
X213324200Y-129989710D01*
X216075800Y-129989710D01*
X216075800Y-130010290D01*
X216078202Y-130034676D01*
X216085315Y-130058125D01*
X216096866Y-130079736D01*
X216112412Y-130098678D01*
X216131354Y-130114224D01*
X216152965Y-130125775D01*
X216176414Y-130132888D01*
X216200800Y-130135290D01*
X216225186Y-130132888D01*
X216248635Y-130125775D01*
X216270246Y-130114224D01*
X216289188Y-130098678D01*
X216299478Y-130088388D01*
X216315024Y-130069446D01*
X216326575Y-130047835D01*
X216333688Y-130024386D01*
X216336090Y-130000000D01*
X216333688Y-129975614D01*
X216326575Y-129952165D01*
X216315024Y-129930554D01*
X216299478Y-129911612D01*
X216289188Y-129901322D01*
X216270246Y-129885776D01*
X216248635Y-129874225D01*
X216225186Y-129867112D01*
X216200800Y-129864710D01*
X216176414Y-129867112D01*
X216152965Y-129874225D01*
X216131354Y-129885776D01*
X216112412Y-129901322D01*
X216096866Y-129920264D01*
X216085315Y-129941875D01*
X216078202Y-129965324D01*
X216075800Y-129989710D01*
X213324200Y-129989710D01*
X213321798Y-129965324D01*
X213314685Y-129941875D01*
X213303134Y-129920264D01*
X213287588Y-129901322D01*
X213268646Y-129885776D01*
X213247035Y-129874225D01*
X213223586Y-129867112D01*
X213199200Y-129864710D01*
X213174814Y-129867112D01*
X213151365Y-129874225D01*
X213129754Y-129885776D01*
X213110812Y-129901322D01*
X213100522Y-129911612D01*
X213084976Y-129930554D01*
X213073425Y-129952165D01*
X213066312Y-129975614D01*
X213063910Y-130000000D01*
X212450000Y-130000000D01*
X212450000Y-129600000D01*
X213063910Y-129600000D01*
X213066312Y-129624386D01*
X213073425Y-129647835D01*
X213084976Y-129669446D01*
X213100522Y-129688388D01*
X213110812Y-129698678D01*
X213129754Y-129714224D01*
X213151365Y-129725775D01*
X213174814Y-129732888D01*
X213199200Y-129735290D01*
X213223586Y-129732888D01*
X213247035Y-129725775D01*
X213268646Y-129714224D01*
X213287588Y-129698678D01*
X213303134Y-129679736D01*
X213314685Y-129658125D01*
X213321798Y-129634676D01*
X213324200Y-129610290D01*
X213324200Y-129589710D01*
X216075800Y-129589710D01*
X216075800Y-129610290D01*
X216078202Y-129634676D01*
X216085315Y-129658125D01*
X216096866Y-129679736D01*
X216112412Y-129698678D01*
X216131354Y-129714224D01*
X216152965Y-129725775D01*
X216176414Y-129732888D01*
X216200800Y-129735290D01*
X216225186Y-129732888D01*
X216248635Y-129725775D01*
X216270246Y-129714224D01*
X216289188Y-129698678D01*
X216299478Y-129688388D01*
X216315024Y-129669446D01*
X216326575Y-129647835D01*
X216333688Y-129624386D01*
X216336090Y-129600000D01*
X216333688Y-129575614D01*
X216326575Y-129552165D01*
X216315024Y-129530554D01*
X216299478Y-129511612D01*
X216289188Y-129501322D01*
X216270246Y-129485776D01*
X216248635Y-129474225D01*
X216225186Y-129467112D01*
X216200800Y-129464710D01*
X216176414Y-129467112D01*
X216152965Y-129474225D01*
X216131354Y-129485776D01*
X216112412Y-129501322D01*
X216096866Y-129520264D01*
X216085315Y-129541875D01*
X216078202Y-129565324D01*
X216075800Y-129589710D01*
X213324200Y-129589710D01*
X213321798Y-129565324D01*
X213314685Y-129541875D01*
X213303134Y-129520264D01*
X213287588Y-129501322D01*
X213268646Y-129485776D01*
X213247035Y-129474225D01*
X213223586Y-129467112D01*
X213199200Y-129464710D01*
X213174814Y-129467112D01*
X213151365Y-129474225D01*
X213129754Y-129485776D01*
X213110812Y-129501322D01*
X213100522Y-129511612D01*
X213084976Y-129530554D01*
X213073425Y-129552165D01*
X213066312Y-129575614D01*
X213063910Y-129600000D01*
X212450000Y-129600000D01*
X212450000Y-129200000D01*
X213063910Y-129200000D01*
X213066312Y-129224386D01*
X213073425Y-129247835D01*
X213084976Y-129269446D01*
X213100522Y-129288388D01*
X213110812Y-129298678D01*
X213129754Y-129314224D01*
X213151365Y-129325775D01*
X213174814Y-129332888D01*
X213199200Y-129335290D01*
X213223586Y-129332888D01*
X213247035Y-129325775D01*
X213268646Y-129314224D01*
X213287588Y-129298678D01*
X213303134Y-129279736D01*
X213314685Y-129258125D01*
X213321798Y-129234676D01*
X213324200Y-129210290D01*
X213324200Y-129189710D01*
X216075800Y-129189710D01*
X216075800Y-129210290D01*
X216078202Y-129234676D01*
X216085315Y-129258125D01*
X216096866Y-129279736D01*
X216112412Y-129298678D01*
X216131354Y-129314224D01*
X216152965Y-129325775D01*
X216176414Y-129332888D01*
X216200800Y-129335290D01*
X216225186Y-129332888D01*
X216248635Y-129325775D01*
X216270246Y-129314224D01*
X216289188Y-129298678D01*
X216299478Y-129288388D01*
X216315024Y-129269446D01*
X216326575Y-129247835D01*
X216333688Y-129224386D01*
X216336090Y-129200000D01*
X216333688Y-129175614D01*
X216326575Y-129152165D01*
X216315024Y-129130554D01*
X216299478Y-129111612D01*
X216289188Y-129101322D01*
X216270246Y-129085776D01*
X216248635Y-129074225D01*
X216225186Y-129067112D01*
X216200800Y-129064710D01*
X216176414Y-129067112D01*
X216152965Y-129074225D01*
X216131354Y-129085776D01*
X216112412Y-129101322D01*
X216096866Y-129120264D01*
X216085315Y-129141875D01*
X216078202Y-129165324D01*
X216075800Y-129189710D01*
X213324200Y-129189710D01*
X213321798Y-129165324D01*
X213314685Y-129141875D01*
X213303134Y-129120264D01*
X213287588Y-129101322D01*
X213268646Y-129085776D01*
X213247035Y-129074225D01*
X213223586Y-129067112D01*
X213199200Y-129064710D01*
X213174814Y-129067112D01*
X213151365Y-129074225D01*
X213129754Y-129085776D01*
X213110812Y-129101322D01*
X213100522Y-129111612D01*
X213084976Y-129130554D01*
X213073425Y-129152165D01*
X213066312Y-129175614D01*
X213063910Y-129200000D01*
X212450000Y-129200000D01*
X212450000Y-128800000D01*
X213063910Y-128800000D01*
X213066312Y-128824386D01*
X213073425Y-128847835D01*
X213084976Y-128869446D01*
X213100522Y-128888388D01*
X213110812Y-128898678D01*
X213129754Y-128914224D01*
X213151365Y-128925775D01*
X213174814Y-128932888D01*
X213199200Y-128935290D01*
X213223586Y-128932888D01*
X213247035Y-128925775D01*
X213268646Y-128914224D01*
X213287588Y-128898678D01*
X213303134Y-128879736D01*
X213314685Y-128858125D01*
X213321798Y-128834676D01*
X213324200Y-128810290D01*
X213324200Y-128789710D01*
X216075800Y-128789710D01*
X216075800Y-128810290D01*
X216078202Y-128834676D01*
X216085315Y-128858125D01*
X216096866Y-128879736D01*
X216112412Y-128898678D01*
X216131354Y-128914224D01*
X216152965Y-128925775D01*
X216176414Y-128932888D01*
X216200800Y-128935290D01*
X216225186Y-128932888D01*
X216248635Y-128925775D01*
X216270246Y-128914224D01*
X216289188Y-128898678D01*
X216299478Y-128888388D01*
X216315024Y-128869446D01*
X216326575Y-128847835D01*
X216333688Y-128824386D01*
X216336090Y-128800000D01*
X216333688Y-128775614D01*
X216326575Y-128752165D01*
X216315024Y-128730554D01*
X216299478Y-128711612D01*
X216289188Y-128701322D01*
X216270246Y-128685776D01*
X216248635Y-128674225D01*
X216225186Y-128667112D01*
X216200800Y-128664710D01*
X216176414Y-128667112D01*
X216152965Y-128674225D01*
X216131354Y-128685776D01*
X216112412Y-128701322D01*
X216096866Y-128720264D01*
X216085315Y-128741875D01*
X216078202Y-128765324D01*
X216075800Y-128789710D01*
X213324200Y-128789710D01*
X213321798Y-128765324D01*
X213314685Y-128741875D01*
X213303134Y-128720264D01*
X213287588Y-128701322D01*
X213268646Y-128685776D01*
X213247035Y-128674225D01*
X213223586Y-128667112D01*
X213199200Y-128664710D01*
X213174814Y-128667112D01*
X213151365Y-128674225D01*
X213129754Y-128685776D01*
X213110812Y-128701322D01*
X213100522Y-128711612D01*
X213084976Y-128730554D01*
X213073425Y-128752165D01*
X213066312Y-128775614D01*
X213063910Y-128800000D01*
X212450000Y-128800000D01*
X212450000Y-128499200D01*
X213364710Y-128499200D01*
X213367112Y-128523586D01*
X213374225Y-128547035D01*
X213385776Y-128568646D01*
X213401322Y-128587588D01*
X213420264Y-128603134D01*
X213441875Y-128614685D01*
X213465324Y-128621798D01*
X213489710Y-128624200D01*
X213510290Y-128624200D01*
X213534676Y-128621798D01*
X213558125Y-128614685D01*
X213579736Y-128603134D01*
X213598678Y-128587588D01*
X213614224Y-128568646D01*
X213625775Y-128547035D01*
X213632888Y-128523586D01*
X213635290Y-128499200D01*
X213764710Y-128499200D01*
X213767112Y-128523586D01*
X213774225Y-128547035D01*
X213785776Y-128568646D01*
X213801322Y-128587588D01*
X213820264Y-128603134D01*
X213841875Y-128614685D01*
X213865324Y-128621798D01*
X213889710Y-128624200D01*
X213910290Y-128624200D01*
X213934676Y-128621798D01*
X213958125Y-128614685D01*
X213979736Y-128603134D01*
X213998678Y-128587588D01*
X214014224Y-128568646D01*
X214025775Y-128547035D01*
X214032888Y-128523586D01*
X214035290Y-128499200D01*
X214164710Y-128499200D01*
X214167112Y-128523586D01*
X214174225Y-128547035D01*
X214185776Y-128568646D01*
X214201322Y-128587588D01*
X214220264Y-128603134D01*
X214241875Y-128614685D01*
X214265324Y-128621798D01*
X214289710Y-128624200D01*
X214310290Y-128624200D01*
X214334676Y-128621798D01*
X214358125Y-128614685D01*
X214379736Y-128603134D01*
X214398678Y-128587588D01*
X214414224Y-128568646D01*
X214425775Y-128547035D01*
X214432888Y-128523586D01*
X214435290Y-128499200D01*
X214564710Y-128499200D01*
X214567112Y-128523586D01*
X214574225Y-128547035D01*
X214585776Y-128568646D01*
X214601322Y-128587588D01*
X214620264Y-128603134D01*
X214641875Y-128614685D01*
X214665324Y-128621798D01*
X214689710Y-128624200D01*
X214710290Y-128624200D01*
X214734676Y-128621798D01*
X214758125Y-128614685D01*
X214779736Y-128603134D01*
X214798678Y-128587588D01*
X214814224Y-128568646D01*
X214825775Y-128547035D01*
X214832888Y-128523586D01*
X214835290Y-128499200D01*
X214964710Y-128499200D01*
X214967112Y-128523586D01*
X214974225Y-128547035D01*
X214985776Y-128568646D01*
X215001322Y-128587588D01*
X215020264Y-128603134D01*
X215041875Y-128614685D01*
X215065324Y-128621798D01*
X215089710Y-128624200D01*
X215110290Y-128624200D01*
X215134676Y-128621798D01*
X215158125Y-128614685D01*
X215179736Y-128603134D01*
X215198678Y-128587588D01*
X215214224Y-128568646D01*
X215225775Y-128547035D01*
X215232888Y-128523586D01*
X215235290Y-128499200D01*
X215364710Y-128499200D01*
X215367112Y-128523586D01*
X215374225Y-128547035D01*
X215385776Y-128568646D01*
X215401322Y-128587588D01*
X215420264Y-128603134D01*
X215441875Y-128614685D01*
X215465324Y-128621798D01*
X215489710Y-128624200D01*
X215510290Y-128624200D01*
X215534676Y-128621798D01*
X215558125Y-128614685D01*
X215579736Y-128603134D01*
X215598678Y-128587588D01*
X215614224Y-128568646D01*
X215625775Y-128547035D01*
X215632888Y-128523586D01*
X215635290Y-128499200D01*
X215764710Y-128499200D01*
X215767112Y-128523586D01*
X215774225Y-128547035D01*
X215785776Y-128568646D01*
X215801322Y-128587588D01*
X215820264Y-128603134D01*
X215841875Y-128614685D01*
X215865324Y-128621798D01*
X215889710Y-128624200D01*
X215910290Y-128624200D01*
X215934676Y-128621798D01*
X215958125Y-128614685D01*
X215979736Y-128603134D01*
X215998678Y-128587588D01*
X216014224Y-128568646D01*
X216025775Y-128547035D01*
X216032888Y-128523586D01*
X216035290Y-128499200D01*
X216032888Y-128474814D01*
X216025775Y-128451365D01*
X216014224Y-128429754D01*
X215998678Y-128410812D01*
X215988388Y-128400522D01*
X215969446Y-128384976D01*
X215947835Y-128373425D01*
X215924386Y-128366312D01*
X215900000Y-128363910D01*
X215875614Y-128366312D01*
X215852165Y-128373425D01*
X215830554Y-128384976D01*
X215811612Y-128400522D01*
X215801322Y-128410812D01*
X215785776Y-128429754D01*
X215774225Y-128451365D01*
X215767112Y-128474814D01*
X215764710Y-128499200D01*
X215635290Y-128499200D01*
X215632888Y-128474814D01*
X215625775Y-128451365D01*
X215614224Y-128429754D01*
X215598678Y-128410812D01*
X215588388Y-128400522D01*
X215569446Y-128384976D01*
X215547835Y-128373425D01*
X215524386Y-128366312D01*
X215500000Y-128363910D01*
X215475614Y-128366312D01*
X215452165Y-128373425D01*
X215430554Y-128384976D01*
X215411612Y-128400522D01*
X215401322Y-128410812D01*
X215385776Y-128429754D01*
X215374225Y-128451365D01*
X215367112Y-128474814D01*
X215364710Y-128499200D01*
X215235290Y-128499200D01*
X215232888Y-128474814D01*
X215225775Y-128451365D01*
X215214224Y-128429754D01*
X215198678Y-128410812D01*
X215188388Y-128400522D01*
X215169446Y-128384976D01*
X215147835Y-128373425D01*
X215124386Y-128366312D01*
X215100000Y-128363910D01*
X215075614Y-128366312D01*
X215052165Y-128373425D01*
X215030554Y-128384976D01*
X215011612Y-128400522D01*
X215001322Y-128410812D01*
X214985776Y-128429754D01*
X214974225Y-128451365D01*
X214967112Y-128474814D01*
X214964710Y-128499200D01*
X214835290Y-128499200D01*
X214832888Y-128474814D01*
X214825775Y-128451365D01*
X214814224Y-128429754D01*
X214798678Y-128410812D01*
X214788388Y-128400522D01*
X214769446Y-128384976D01*
X214747835Y-128373425D01*
X214724386Y-128366312D01*
X214700000Y-128363910D01*
X214675614Y-128366312D01*
X214652165Y-128373425D01*
X214630554Y-128384976D01*
X214611612Y-128400522D01*
X214601322Y-128410812D01*
X214585776Y-128429754D01*
X214574225Y-128451365D01*
X214567112Y-128474814D01*
X214564710Y-128499200D01*
X214435290Y-128499200D01*
X214432888Y-128474814D01*
X214425775Y-128451365D01*
X214414224Y-128429754D01*
X214398678Y-128410812D01*
X214388388Y-128400522D01*
X214369446Y-128384976D01*
X214347835Y-128373425D01*
X214324386Y-128366312D01*
X214300000Y-128363910D01*
X214275614Y-128366312D01*
X214252165Y-128373425D01*
X214230554Y-128384976D01*
X214211612Y-128400522D01*
X214201322Y-128410812D01*
X214185776Y-128429754D01*
X214174225Y-128451365D01*
X214167112Y-128474814D01*
X214164710Y-128499200D01*
X214035290Y-128499200D01*
X214032888Y-128474814D01*
X214025775Y-128451365D01*
X214014224Y-128429754D01*
X213998678Y-128410812D01*
X213988388Y-128400522D01*
X213969446Y-128384976D01*
X213947835Y-128373425D01*
X213924386Y-128366312D01*
X213900000Y-128363910D01*
X213875614Y-128366312D01*
X213852165Y-128373425D01*
X213830554Y-128384976D01*
X213811612Y-128400522D01*
X213801322Y-128410812D01*
X213785776Y-128429754D01*
X213774225Y-128451365D01*
X213767112Y-128474814D01*
X213764710Y-128499200D01*
X213635290Y-128499200D01*
X213632888Y-128474814D01*
X213625775Y-128451365D01*
X213614224Y-128429754D01*
X213598678Y-128410812D01*
X213588388Y-128400522D01*
X213569446Y-128384976D01*
X213547835Y-128373425D01*
X213524386Y-128366312D01*
X213500000Y-128363910D01*
X213475614Y-128366312D01*
X213452165Y-128373425D01*
X213430554Y-128384976D01*
X213411612Y-128400522D01*
X213401322Y-128410812D01*
X213385776Y-128429754D01*
X213374225Y-128451365D01*
X213367112Y-128474814D01*
X213364710Y-128499200D01*
X212450000Y-128499200D01*
X212450000Y-128450000D01*
X213025000Y-128450000D01*
X213049386Y-128447598D01*
X213072835Y-128440485D01*
X213094446Y-128428934D01*
X213113388Y-128413388D01*
X213128934Y-128394446D01*
X213140485Y-128372835D01*
X213147598Y-128349386D01*
X213150000Y-128325000D01*
X213150000Y-127750000D01*
X216250000Y-127750000D01*
X216250000Y-128325000D01*
X216250000Y-128325000D01*
G37*
G36*
X220975800Y-131250800D02*
X219624200Y-131250800D01*
X219624200Y-130149200D01*
X220975800Y-130149200D01*
X220975800Y-131250800D01*
X220975800Y-131250800D01*
G37*
G36*
X223300800Y-131050800D02*
X221899200Y-131050800D01*
X221899200Y-130249200D01*
X223300800Y-130249200D01*
X223300800Y-131050800D01*
X223300800Y-131050800D01*
G37*
G36*
X226100800Y-130750800D02*
X224299200Y-130750800D01*
X224299200Y-129749200D01*
X226100800Y-129749200D01*
X226100800Y-130750800D01*
X226100800Y-130750800D01*
G37*
G36*
X193150800Y-129125800D02*
X192149200Y-129125800D01*
X192149200Y-126774200D01*
X193150800Y-126774200D01*
X193150800Y-129125800D01*
X193150800Y-129125800D01*
G37*
G36*
X181150800Y-129125800D02*
X180149200Y-129125800D01*
X180149200Y-126774200D01*
X181150800Y-126774200D01*
X181150800Y-129125800D01*
X181150800Y-129125800D01*
G37*
G36*
X183850800Y-129125800D02*
X182849200Y-129125800D01*
X182849200Y-126774200D01*
X183850800Y-126774200D01*
X183850800Y-129125800D01*
X183850800Y-129125800D01*
G37*
G36*
X205150800Y-129125800D02*
X204149200Y-129125800D01*
X204149200Y-126774200D01*
X205150800Y-126774200D01*
X205150800Y-129125800D01*
X205150800Y-129125800D01*
G37*
G36*
X207850800Y-129125800D02*
X206849200Y-129125800D01*
X206849200Y-126774200D01*
X207850800Y-126774200D01*
X207850800Y-129125800D01*
X207850800Y-129125800D01*
G37*
G36*
X195850800Y-129125800D02*
X194849200Y-129125800D01*
X194849200Y-126774200D01*
X195850800Y-126774200D01*
X195850800Y-129125800D01*
X195850800Y-129125800D01*
G37*
G36*
X223650800Y-128600800D02*
X222649200Y-128600800D01*
X222649200Y-126799200D01*
X223650800Y-126799200D01*
X223650800Y-128600800D01*
X223650800Y-128600800D01*
G37*
G36*
X226550800Y-128600800D02*
X225549200Y-128600800D01*
X225549200Y-126799200D01*
X226550800Y-126799200D01*
X226550800Y-128600800D01*
X226550800Y-128600800D01*
G37*
G36*
X218075800Y-127050800D02*
X216724200Y-127050800D01*
X216724200Y-125949200D01*
X218075800Y-125949200D01*
X218075800Y-127050800D01*
X218075800Y-127050800D01*
G37*
G36*
X218075800Y-125050800D02*
X216724200Y-125050800D01*
X216724200Y-123949200D01*
X218075800Y-123949200D01*
X218075800Y-125050800D01*
X218075800Y-125050800D01*
G37*
G36*
X224900800Y-123250800D02*
X223499200Y-123250800D01*
X223499200Y-122449200D01*
X224900800Y-122449200D01*
X224900800Y-123250800D01*
X224900800Y-123250800D01*
G37*
G36*
X218850800Y-122750800D02*
X217149200Y-122750800D01*
X217149200Y-121649200D01*
X218850800Y-121649200D01*
X218850800Y-122750800D01*
X218850800Y-122750800D01*
G37*
G36*
X199050800Y-122350800D02*
X197949200Y-122350800D01*
X197949200Y-120649200D01*
X199050800Y-120649200D01*
X199050800Y-122350800D01*
X199050800Y-122350800D01*
G37*
G36*
X202050800Y-122350800D02*
X200949200Y-122350800D01*
X200949200Y-120649200D01*
X202050800Y-120649200D01*
X202050800Y-122350800D01*
X202050800Y-122350800D01*
G37*
G36*
X213980800Y-122125800D02*
X212819200Y-122125800D01*
X212819200Y-119474200D01*
X213980800Y-119474200D01*
X213980800Y-122125800D01*
X213980800Y-122125800D01*
G37*
G36*
X211780800Y-122125800D02*
X210619200Y-122125800D01*
X210619200Y-119474200D01*
X211780800Y-119474200D01*
X211780800Y-122125800D01*
X211780800Y-122125800D01*
G37*
G36*
X216175800Y-121850800D02*
X214824200Y-121850800D01*
X214824200Y-120749200D01*
X216175800Y-120749200D01*
X216175800Y-121850800D01*
X216175800Y-121850800D01*
G37*
G36*
X224900800Y-121350800D02*
X223499200Y-121350800D01*
X223499200Y-120549200D01*
X224900800Y-120549200D01*
X224900800Y-121350800D01*
X224900800Y-121350800D01*
G37*
G36*
X183350800Y-121200800D02*
X182549200Y-121200800D01*
X182549200Y-119799200D01*
X183350800Y-119799200D01*
X183350800Y-121200800D01*
X183350800Y-121200800D01*
G37*
G36*
X181450800Y-121200800D02*
X180649200Y-121200800D01*
X180649200Y-119799200D01*
X181450800Y-119799200D01*
X181450800Y-121200800D01*
X181450800Y-121200800D01*
G37*
G36*
X207250800Y-121000800D02*
X206449200Y-121000800D01*
X206449200Y-119599200D01*
X207250800Y-119599200D01*
X207250800Y-121000800D01*
X207250800Y-121000800D01*
G37*
G36*
X209150800Y-121000800D02*
X208349200Y-121000800D01*
X208349200Y-119599200D01*
X209150800Y-119599200D01*
X209150800Y-121000800D01*
X209150800Y-121000800D01*
G37*
G36*
X216175800Y-119850800D02*
X214824200Y-119850800D01*
X214824200Y-118749200D01*
X216175800Y-118749200D01*
X216175800Y-119850800D01*
X216175800Y-119850800D01*
G37*
G36*
X224900800Y-119850800D02*
X223499200Y-119850800D01*
X223499200Y-119049200D01*
X224900800Y-119049200D01*
X224900800Y-119850800D01*
X224900800Y-119850800D01*
G37*
G36*
X218850800Y-119750800D02*
X217149200Y-119750800D01*
X217149200Y-118649200D01*
X218850800Y-118649200D01*
X218850800Y-119750800D01*
X218850800Y-119750800D01*
G37*
G36*
X211750800Y-118075800D02*
X210649200Y-118075800D01*
X210649200Y-116724200D01*
X211750800Y-116724200D01*
X211750800Y-118075800D01*
X211750800Y-118075800D01*
G37*
G36*
X213750800Y-118075800D02*
X212649200Y-118075800D01*
X212649200Y-116724200D01*
X213750800Y-116724200D01*
X213750800Y-118075800D01*
X213750800Y-118075800D01*
G37*
G36*
X224900800Y-117950800D02*
X223499200Y-117950800D01*
X223499200Y-117149200D01*
X224900800Y-117149200D01*
X224900800Y-117950800D01*
X224900800Y-117950800D01*
G37*
G36*
X216335673Y-114893424D02*
X216335675Y-114893425D01*
X216335676Y-114893425D01*
X216545108Y-114980174D01*
X216545109Y-114980175D01*
X216733595Y-115106117D01*
X216893883Y-115266405D01*
X216893885Y-115266408D01*
X217019826Y-115454892D01*
X217089955Y-115624200D01*
X217106576Y-115664327D01*
X217150800Y-115886655D01*
X217150800Y-116113345D01*
X217118486Y-116275800D01*
X217106575Y-116335676D01*
X217019826Y-116545108D01*
X217019825Y-116545109D01*
X216893883Y-116733595D01*
X216733595Y-116893883D01*
X216733592Y-116893885D01*
X216545108Y-117019826D01*
X216335676Y-117106575D01*
X216335675Y-117106575D01*
X216335673Y-117106576D01*
X216113345Y-117150800D01*
X215886655Y-117150800D01*
X215664327Y-117106576D01*
X215664325Y-117106575D01*
X215664324Y-117106575D01*
X215454892Y-117019826D01*
X215266408Y-116893885D01*
X215266405Y-116893883D01*
X215106117Y-116733595D01*
X214980175Y-116545109D01*
X214980174Y-116545108D01*
X214893425Y-116335676D01*
X214881515Y-116275800D01*
X214849200Y-116113345D01*
X214849200Y-115886655D01*
X214893424Y-115664327D01*
X214910045Y-115624200D01*
X214980174Y-115454892D01*
X215106115Y-115266408D01*
X215106117Y-115266405D01*
X215266405Y-115106117D01*
X215454891Y-114980175D01*
X215454892Y-114980174D01*
X215664324Y-114893425D01*
X215664325Y-114893425D01*
X215664327Y-114893424D01*
X215886655Y-114849200D01*
X216113345Y-114849200D01*
X216335673Y-114893424D01*
X216335673Y-114893424D01*
G37*
G36*
X172335673Y-114893424D02*
X172335675Y-114893425D01*
X172335676Y-114893425D01*
X172545108Y-114980174D01*
X172545109Y-114980175D01*
X172733595Y-115106117D01*
X172893883Y-115266405D01*
X172893885Y-115266408D01*
X173019826Y-115454892D01*
X173089955Y-115624200D01*
X173106576Y-115664327D01*
X173150800Y-115886655D01*
X173150800Y-116113345D01*
X173118486Y-116275800D01*
X173106575Y-116335676D01*
X173019826Y-116545108D01*
X173019825Y-116545109D01*
X172893883Y-116733595D01*
X172733595Y-116893883D01*
X172733592Y-116893885D01*
X172545108Y-117019826D01*
X172335676Y-117106575D01*
X172335675Y-117106575D01*
X172335673Y-117106576D01*
X172113345Y-117150800D01*
X171886655Y-117150800D01*
X171664327Y-117106576D01*
X171664325Y-117106575D01*
X171664324Y-117106575D01*
X171454892Y-117019826D01*
X171266408Y-116893885D01*
X171266405Y-116893883D01*
X171106117Y-116733595D01*
X170980175Y-116545109D01*
X170980174Y-116545108D01*
X170893425Y-116335676D01*
X170881515Y-116275800D01*
X170849200Y-116113345D01*
X170849200Y-115886655D01*
X170893424Y-115664327D01*
X170910045Y-115624200D01*
X170980174Y-115454892D01*
X171106115Y-115266408D01*
X171106117Y-115266405D01*
X171266405Y-115106117D01*
X171454891Y-114980175D01*
X171454892Y-114980174D01*
X171664324Y-114893425D01*
X171664325Y-114893425D01*
X171664327Y-114893424D01*
X171886655Y-114849200D01*
X172113345Y-114849200D01*
X172335673Y-114893424D01*
X172335673Y-114893424D01*
G37*
G36*
X193150800Y-117125800D02*
X192149200Y-117125800D01*
X192149200Y-114774200D01*
X193150800Y-114774200D01*
X193150800Y-117125800D01*
X193150800Y-117125800D01*
G37*
G36*
X205150800Y-117125800D02*
X204149200Y-117125800D01*
X204149200Y-114774200D01*
X205150800Y-114774200D01*
X205150800Y-117125800D01*
X205150800Y-117125800D01*
G37*
G36*
X195850800Y-117125800D02*
X194849200Y-117125800D01*
X194849200Y-114774200D01*
X195850800Y-114774200D01*
X195850800Y-117125800D01*
X195850800Y-117125800D01*
G37*
G36*
X207850800Y-117125800D02*
X206849200Y-117125800D01*
X206849200Y-114774200D01*
X207850800Y-114774200D01*
X207850800Y-117125800D01*
X207850800Y-117125800D01*
G37*
G36*
X181550800Y-116650800D02*
X180249200Y-116650800D01*
X180249200Y-115349200D01*
X181550800Y-115349200D01*
X181550800Y-116650800D01*
X181550800Y-116650800D01*
G37*
G36*
X183750800Y-116650800D02*
X182449200Y-116650800D01*
X182449200Y-115349200D01*
X183750800Y-115349200D01*
X183750800Y-116650800D01*
X183750800Y-116650800D01*
G37*
G36*
X214150800Y-115600800D02*
X213149200Y-115600800D01*
X213149200Y-113799200D01*
X214150800Y-113799200D01*
X214150800Y-115600800D01*
X214150800Y-115600800D01*
G37*
G36*
X211250800Y-115600800D02*
X210249200Y-115600800D01*
X210249200Y-113799200D01*
X211250800Y-113799200D01*
X211250800Y-115600800D01*
X211250800Y-115600800D01*
G37*
G36*
X212250800Y-112650800D02*
X211149200Y-112650800D01*
X211149200Y-110949200D01*
X212250800Y-110949200D01*
X212250800Y-112650800D01*
X212250800Y-112650800D01*
G37*
G36*
X209250800Y-112650800D02*
X208149200Y-112650800D01*
X208149200Y-110949200D01*
X209250800Y-110949200D01*
X209250800Y-112650800D01*
X209250800Y-112650800D01*
G37*
M02*
