G04 #@! TF.GenerationSoftware,KiCad,Pcbnew,(5.0.2)-1*
G04 #@! TF.CreationDate,2019-04-27T00:21:17-04:00*
G04 #@! TF.ProjectId,Dash_Warning_Panel,44617368-5f57-4617-926e-696e675f5061,rev?*
G04 #@! TF.SameCoordinates,Original*
G04 #@! TF.FileFunction,Legend,Top*
G04 #@! TF.FilePolarity,Positive*
%FSLAX46Y46*%
G04 Gerber Fmt 4.6, Leading zero omitted, Abs format (unit mm)*
G04 Created by KiCad (PCBNEW (5.0.2)-1) date 4/27/2019 12:21:17 AM*
%MOMM*%
%LPD*%
G01*
G04 APERTURE LIST*
%ADD10C,0.200000*%
%ADD11C,0.120000*%
%ADD12C,0.150000*%
%ADD13R,1.426600X1.426600*%
%ADD14R,0.600000X0.300000*%
%ADD15R,0.300000X0.600000*%
%ADD16C,0.300000*%
%ADD17C,0.701600*%
%ADD18C,2.301600*%
%ADD19R,1.101600X1.701600*%
%ADD20R,1.701600X1.101600*%
%ADD21R,1.301600X1.301600*%
%ADD22R,1.801600X1.001600*%
%ADD23R,1.001600X1.801600*%
%ADD24R,1.161600X0.751600*%
%ADD25R,1.351600X1.101600*%
%ADD26R,0.801600X1.401600*%
%ADD27R,1.001600X0.651600*%
%ADD28R,1.101600X1.351600*%
%ADD29R,1.401600X0.801600*%
G04 APERTURE END LIST*
D10*
X209450000Y-121000000D02*
X210250000Y-121000000D01*
X202450000Y-121000000D02*
X206100000Y-121000000D01*
X211000000Y-135000000D02*
X208600000Y-135000000D01*
X201000000Y-135000000D02*
X203800000Y-135000000D01*
X189000000Y-121000000D02*
X197500000Y-121000000D01*
X201000000Y-111000000D02*
X201000000Y-120500000D01*
X211000000Y-123000000D02*
X211000000Y-127800000D01*
X211000000Y-135000000D02*
X211000000Y-145000000D01*
X199000000Y-135000000D02*
X199000000Y-145000000D01*
X187000000Y-135000000D02*
X187000000Y-145000000D01*
X199000000Y-123000000D02*
X199000000Y-133000000D01*
X187000000Y-123000000D02*
X187000000Y-133000000D01*
X199000000Y-111000000D02*
X199000000Y-120500000D01*
X199000000Y-135000000D02*
X189000000Y-135000000D01*
X187000000Y-135000000D02*
X177000000Y-135000000D01*
X211000000Y-123000000D02*
X201000000Y-123000000D01*
X199000000Y-123000000D02*
X189000000Y-123000000D01*
X187000000Y-123000000D02*
X177000000Y-123000000D01*
X208000000Y-111000000D02*
X201000000Y-111000000D01*
X199000000Y-111000000D02*
X189000000Y-111000000D01*
X201000000Y-145000000D02*
X211000000Y-145000000D01*
X189000000Y-145000000D02*
X199000000Y-145000000D01*
X177000000Y-145000000D02*
X187000000Y-145000000D01*
X201000000Y-133000000D02*
X210500000Y-133000000D01*
X189000000Y-133000000D02*
X199000000Y-133000000D01*
X177000000Y-133000000D02*
X187000000Y-133000000D01*
X201000000Y-135000000D02*
X201000000Y-145000000D01*
X189000000Y-135000000D02*
X189000000Y-145000000D01*
X177000000Y-135000000D02*
X177000000Y-145000000D01*
X201000000Y-123000000D02*
X201000000Y-133000000D01*
X189000000Y-123000000D02*
X189000000Y-133000000D01*
X177000000Y-123000000D02*
X177000000Y-133000000D01*
X189000000Y-111000000D02*
X189000000Y-121000000D01*
X187000000Y-111000000D02*
X187000000Y-121000000D01*
X187000000Y-111000000D02*
X177000000Y-111000000D01*
X177000000Y-121000000D02*
X187000000Y-121000000D01*
X177000000Y-111000000D02*
X177000000Y-121000000D01*
D11*
G04 #@! TO.C,U1*
X216850000Y-132150000D02*
X216850000Y-131725000D01*
X212550000Y-132150000D02*
X212550000Y-131725000D01*
X212550000Y-127850000D02*
X212550000Y-128275000D01*
X216850000Y-127850000D02*
X216850000Y-128275000D01*
X212550000Y-132150000D02*
X212975000Y-132150000D01*
X212550000Y-127850000D02*
X212975000Y-127850000D01*
X216850000Y-132150000D02*
X216425000Y-132150000D01*
D12*
X216741421Y-127300000D02*
G75*
G03X216741421Y-127300000I-141421J0D01*
G01*
D11*
G04 #@! TO.C,C2*
X211200000Y-110780000D02*
X209200000Y-110780000D01*
X209200000Y-112820000D02*
X211200000Y-112820000D01*
G04 #@! TO.C,C3*
X199000000Y-122520000D02*
X201000000Y-122520000D01*
X201000000Y-120480000D02*
X199000000Y-120480000D01*
G04 #@! TO.C,C4*
X205200000Y-136720000D02*
X207200000Y-136720000D01*
X207200000Y-134680000D02*
X205200000Y-134680000D01*
G04 #@! TO.C,C7*
X216980000Y-119700000D02*
X216980000Y-121700000D01*
X219020000Y-121700000D02*
X219020000Y-119700000D01*
G04 #@! TO.C,D9*
X180200000Y-115300000D02*
X180200000Y-116700000D01*
X180200000Y-116700000D02*
X183000000Y-116700000D01*
X180200000Y-115300000D02*
X183000000Y-115300000D01*
G04 #@! TO.C,R1*
X224130000Y-132700000D02*
X224130000Y-130700000D01*
X226270000Y-130700000D02*
X226270000Y-132700000D01*
G04 #@! TO.C,R3*
X225600000Y-128770000D02*
X223600000Y-128770000D01*
X223600000Y-126630000D02*
X225600000Y-126630000D01*
G04 #@! TO.C,R6*
X211200000Y-113630000D02*
X213200000Y-113630000D01*
X213200000Y-115770000D02*
X211200000Y-115770000D01*
G04 #@! TO.C,U2*
X213200000Y-119190000D02*
X211400000Y-119190000D01*
X211400000Y-122410000D02*
X213850000Y-122410000D01*
G04 #@! TO.C,C5*
X216350000Y-120800000D02*
X216350000Y-119800000D01*
X214650000Y-119800000D02*
X214650000Y-120800000D01*
G04 #@! TO.C,C1*
X218250000Y-126000000D02*
X218250000Y-125000000D01*
X216550000Y-125000000D02*
X216550000Y-126000000D01*
G04 #@! TO.C,R5*
X208400000Y-121180000D02*
X207200000Y-121180000D01*
X207200000Y-119420000D02*
X208400000Y-119420000D01*
G04 #@! TO.C,R4*
X182600000Y-121380000D02*
X181400000Y-121380000D01*
X181400000Y-119620000D02*
X182600000Y-119620000D01*
G04 #@! TO.C,D8*
X203950000Y-138225000D02*
X203950000Y-139125000D01*
X204000000Y-141800000D02*
X208000000Y-141800000D01*
X208000000Y-138200000D02*
X204000000Y-138200000D01*
G04 #@! TO.C,D7*
X191950000Y-138225000D02*
X191950000Y-139125000D01*
X192000000Y-141800000D02*
X196000000Y-141800000D01*
X196000000Y-138200000D02*
X192000000Y-138200000D01*
G04 #@! TO.C,D6*
X179950000Y-138225000D02*
X179950000Y-139125000D01*
X180000000Y-141800000D02*
X184000000Y-141800000D01*
X184000000Y-138200000D02*
X180000000Y-138200000D01*
G04 #@! TO.C,D5*
X203950000Y-126225000D02*
X203950000Y-127125000D01*
X204000000Y-129800000D02*
X208000000Y-129800000D01*
X208000000Y-126200000D02*
X204000000Y-126200000D01*
G04 #@! TO.C,D4*
X191950000Y-126225000D02*
X191950000Y-127125000D01*
X192000000Y-129800000D02*
X196000000Y-129800000D01*
X196000000Y-126200000D02*
X192000000Y-126200000D01*
G04 #@! TO.C,D3*
X179950000Y-126225000D02*
X179950000Y-127125000D01*
X180000000Y-129800000D02*
X184000000Y-129800000D01*
X184000000Y-126200000D02*
X180000000Y-126200000D01*
G04 #@! TO.C,D2*
X203950000Y-114225000D02*
X203950000Y-115125000D01*
X204000000Y-117800000D02*
X208000000Y-117800000D01*
X208000000Y-114200000D02*
X204000000Y-114200000D01*
G04 #@! TO.C,D1*
X191950000Y-114225000D02*
X191950000Y-115125000D01*
X192000000Y-117800000D02*
X196000000Y-117800000D01*
X196000000Y-114200000D02*
X192000000Y-114200000D01*
G04 #@! TO.C,C6*
X211700000Y-118250000D02*
X212700000Y-118250000D01*
X212700000Y-116550000D02*
X211700000Y-116550000D01*
G04 #@! TO.C,R7*
X221720000Y-132200000D02*
X221720000Y-131000000D01*
X223480000Y-131000000D02*
X223480000Y-132200000D01*
G04 #@! TO.C,R8*
X225080000Y-117900000D02*
X225080000Y-119100000D01*
X223320000Y-119100000D02*
X223320000Y-117900000D01*
G04 #@! TO.C,R9*
X225080000Y-121300000D02*
X225080000Y-122500000D01*
X223320000Y-122500000D02*
X223320000Y-121300000D01*
G04 #@! TO.C,C8*
X221150000Y-132200000D02*
X221150000Y-131200000D01*
X219450000Y-131200000D02*
X219450000Y-132200000D01*
G04 #@! TO.C,U1*
D12*
X216338095Y-132752380D02*
X216338095Y-133561904D01*
X216385714Y-133657142D01*
X216433333Y-133704761D01*
X216528571Y-133752380D01*
X216719047Y-133752380D01*
X216814285Y-133704761D01*
X216861904Y-133657142D01*
X216909523Y-133561904D01*
X216909523Y-132752380D01*
X217909523Y-133752380D02*
X217338095Y-133752380D01*
X217623809Y-133752380D02*
X217623809Y-132752380D01*
X217528571Y-132895238D01*
X217433333Y-132990476D01*
X217338095Y-133038095D01*
G04 #@! TO.C,C2*
X210033333Y-110407142D02*
X209985714Y-110454761D01*
X209842857Y-110502380D01*
X209747619Y-110502380D01*
X209604761Y-110454761D01*
X209509523Y-110359523D01*
X209461904Y-110264285D01*
X209414285Y-110073809D01*
X209414285Y-109930952D01*
X209461904Y-109740476D01*
X209509523Y-109645238D01*
X209604761Y-109550000D01*
X209747619Y-109502380D01*
X209842857Y-109502380D01*
X209985714Y-109550000D01*
X210033333Y-109597619D01*
X210414285Y-109597619D02*
X210461904Y-109550000D01*
X210557142Y-109502380D01*
X210795238Y-109502380D01*
X210890476Y-109550000D01*
X210938095Y-109597619D01*
X210985714Y-109692857D01*
X210985714Y-109788095D01*
X210938095Y-109930952D01*
X210366666Y-110502380D01*
X210985714Y-110502380D01*
G04 #@! TO.C,C3*
X199731333Y-120118142D02*
X199683714Y-120165761D01*
X199540857Y-120213380D01*
X199445619Y-120213380D01*
X199302761Y-120165761D01*
X199207523Y-120070523D01*
X199159904Y-119975285D01*
X199112285Y-119784809D01*
X199112285Y-119641952D01*
X199159904Y-119451476D01*
X199207523Y-119356238D01*
X199302761Y-119261000D01*
X199445619Y-119213380D01*
X199540857Y-119213380D01*
X199683714Y-119261000D01*
X199731333Y-119308619D01*
X200064666Y-119213380D02*
X200683714Y-119213380D01*
X200350380Y-119594333D01*
X200493238Y-119594333D01*
X200588476Y-119641952D01*
X200636095Y-119689571D01*
X200683714Y-119784809D01*
X200683714Y-120022904D01*
X200636095Y-120118142D01*
X200588476Y-120165761D01*
X200493238Y-120213380D01*
X200207523Y-120213380D01*
X200112285Y-120165761D01*
X200064666Y-120118142D01*
G04 #@! TO.C,C4*
X206081333Y-134215142D02*
X206033714Y-134262761D01*
X205890857Y-134310380D01*
X205795619Y-134310380D01*
X205652761Y-134262761D01*
X205557523Y-134167523D01*
X205509904Y-134072285D01*
X205462285Y-133881809D01*
X205462285Y-133738952D01*
X205509904Y-133548476D01*
X205557523Y-133453238D01*
X205652761Y-133358000D01*
X205795619Y-133310380D01*
X205890857Y-133310380D01*
X206033714Y-133358000D01*
X206081333Y-133405619D01*
X206938476Y-133643714D02*
X206938476Y-134310380D01*
X206700380Y-133262761D02*
X206462285Y-133977047D01*
X207081333Y-133977047D01*
G04 #@! TO.C,C7*
X220113333Y-121043142D02*
X220065714Y-121090761D01*
X219922857Y-121138380D01*
X219827619Y-121138380D01*
X219684761Y-121090761D01*
X219589523Y-120995523D01*
X219541904Y-120900285D01*
X219494285Y-120709809D01*
X219494285Y-120566952D01*
X219541904Y-120376476D01*
X219589523Y-120281238D01*
X219684761Y-120186000D01*
X219827619Y-120138380D01*
X219922857Y-120138380D01*
X220065714Y-120186000D01*
X220113333Y-120233619D01*
X220446666Y-120138380D02*
X221113333Y-120138380D01*
X220684761Y-121138380D01*
G04 #@! TO.C,D9*
X181261904Y-115002380D02*
X181261904Y-114002380D01*
X181500000Y-114002380D01*
X181642857Y-114050000D01*
X181738095Y-114145238D01*
X181785714Y-114240476D01*
X181833333Y-114430952D01*
X181833333Y-114573809D01*
X181785714Y-114764285D01*
X181738095Y-114859523D01*
X181642857Y-114954761D01*
X181500000Y-115002380D01*
X181261904Y-115002380D01*
X182309523Y-115002380D02*
X182500000Y-115002380D01*
X182595238Y-114954761D01*
X182642857Y-114907142D01*
X182738095Y-114764285D01*
X182785714Y-114573809D01*
X182785714Y-114192857D01*
X182738095Y-114097619D01*
X182690476Y-114050000D01*
X182595238Y-114002380D01*
X182404761Y-114002380D01*
X182309523Y-114050000D01*
X182261904Y-114097619D01*
X182214285Y-114192857D01*
X182214285Y-114430952D01*
X182261904Y-114526190D01*
X182309523Y-114573809D01*
X182404761Y-114621428D01*
X182595238Y-114621428D01*
X182690476Y-114573809D01*
X182738095Y-114526190D01*
X182785714Y-114430952D01*
G04 #@! TO.C,R1*
X226633333Y-135252380D02*
X226300000Y-134776190D01*
X226061904Y-135252380D02*
X226061904Y-134252380D01*
X226442857Y-134252380D01*
X226538095Y-134300000D01*
X226585714Y-134347619D01*
X226633333Y-134442857D01*
X226633333Y-134585714D01*
X226585714Y-134680952D01*
X226538095Y-134728571D01*
X226442857Y-134776190D01*
X226061904Y-134776190D01*
X227585714Y-135252380D02*
X227014285Y-135252380D01*
X227300000Y-135252380D02*
X227300000Y-134252380D01*
X227204761Y-134395238D01*
X227109523Y-134490476D01*
X227014285Y-134538095D01*
G04 #@! TO.C,R3*
X221133333Y-126952380D02*
X220800000Y-126476190D01*
X220561904Y-126952380D02*
X220561904Y-125952380D01*
X220942857Y-125952380D01*
X221038095Y-126000000D01*
X221085714Y-126047619D01*
X221133333Y-126142857D01*
X221133333Y-126285714D01*
X221085714Y-126380952D01*
X221038095Y-126428571D01*
X220942857Y-126476190D01*
X220561904Y-126476190D01*
X221466666Y-125952380D02*
X222085714Y-125952380D01*
X221752380Y-126333333D01*
X221895238Y-126333333D01*
X221990476Y-126380952D01*
X222038095Y-126428571D01*
X222085714Y-126523809D01*
X222085714Y-126761904D01*
X222038095Y-126857142D01*
X221990476Y-126904761D01*
X221895238Y-126952380D01*
X221609523Y-126952380D01*
X221514285Y-126904761D01*
X221466666Y-126857142D01*
G04 #@! TO.C,R6*
X209002333Y-115260380D02*
X208669000Y-114784190D01*
X208430904Y-115260380D02*
X208430904Y-114260380D01*
X208811857Y-114260380D01*
X208907095Y-114308000D01*
X208954714Y-114355619D01*
X209002333Y-114450857D01*
X209002333Y-114593714D01*
X208954714Y-114688952D01*
X208907095Y-114736571D01*
X208811857Y-114784190D01*
X208430904Y-114784190D01*
X209859476Y-114260380D02*
X209669000Y-114260380D01*
X209573761Y-114308000D01*
X209526142Y-114355619D01*
X209430904Y-114498476D01*
X209383285Y-114688952D01*
X209383285Y-115069904D01*
X209430904Y-115165142D01*
X209478523Y-115212761D01*
X209573761Y-115260380D01*
X209764238Y-115260380D01*
X209859476Y-115212761D01*
X209907095Y-115165142D01*
X209954714Y-115069904D01*
X209954714Y-114831809D01*
X209907095Y-114736571D01*
X209859476Y-114688952D01*
X209764238Y-114641333D01*
X209573761Y-114641333D01*
X209478523Y-114688952D01*
X209430904Y-114736571D01*
X209383285Y-114831809D01*
G04 #@! TO.C,U2*
X211538095Y-123152380D02*
X211538095Y-123961904D01*
X211585714Y-124057142D01*
X211633333Y-124104761D01*
X211728571Y-124152380D01*
X211919047Y-124152380D01*
X212014285Y-124104761D01*
X212061904Y-124057142D01*
X212109523Y-123961904D01*
X212109523Y-123152380D01*
X212538095Y-123247619D02*
X212585714Y-123200000D01*
X212680952Y-123152380D01*
X212919047Y-123152380D01*
X213014285Y-123200000D01*
X213061904Y-123247619D01*
X213109523Y-123342857D01*
X213109523Y-123438095D01*
X213061904Y-123580952D01*
X212490476Y-124152380D01*
X213109523Y-124152380D01*
G04 #@! TO.C,C5*
X213147333Y-120561142D02*
X213099714Y-120608761D01*
X212956857Y-120656380D01*
X212861619Y-120656380D01*
X212718761Y-120608761D01*
X212623523Y-120513523D01*
X212575904Y-120418285D01*
X212528285Y-120227809D01*
X212528285Y-120084952D01*
X212575904Y-119894476D01*
X212623523Y-119799238D01*
X212718761Y-119704000D01*
X212861619Y-119656380D01*
X212956857Y-119656380D01*
X213099714Y-119704000D01*
X213147333Y-119751619D01*
X214052095Y-119656380D02*
X213575904Y-119656380D01*
X213528285Y-120132571D01*
X213575904Y-120084952D01*
X213671142Y-120037333D01*
X213909238Y-120037333D01*
X214004476Y-120084952D01*
X214052095Y-120132571D01*
X214099714Y-120227809D01*
X214099714Y-120465904D01*
X214052095Y-120561142D01*
X214004476Y-120608761D01*
X213909238Y-120656380D01*
X213671142Y-120656380D01*
X213575904Y-120608761D01*
X213528285Y-120561142D01*
G04 #@! TO.C,C1*
X215037333Y-125760142D02*
X214989714Y-125807761D01*
X214846857Y-125855380D01*
X214751619Y-125855380D01*
X214608761Y-125807761D01*
X214513523Y-125712523D01*
X214465904Y-125617285D01*
X214418285Y-125426809D01*
X214418285Y-125283952D01*
X214465904Y-125093476D01*
X214513523Y-124998238D01*
X214608761Y-124903000D01*
X214751619Y-124855380D01*
X214846857Y-124855380D01*
X214989714Y-124903000D01*
X215037333Y-124950619D01*
X215989714Y-125855380D02*
X215418285Y-125855380D01*
X215704000Y-125855380D02*
X215704000Y-124855380D01*
X215608761Y-124998238D01*
X215513523Y-125093476D01*
X215418285Y-125141095D01*
G04 #@! TO.C,R5*
X207633333Y-122852380D02*
X207300000Y-122376190D01*
X207061904Y-122852380D02*
X207061904Y-121852380D01*
X207442857Y-121852380D01*
X207538095Y-121900000D01*
X207585714Y-121947619D01*
X207633333Y-122042857D01*
X207633333Y-122185714D01*
X207585714Y-122280952D01*
X207538095Y-122328571D01*
X207442857Y-122376190D01*
X207061904Y-122376190D01*
X208538095Y-121852380D02*
X208061904Y-121852380D01*
X208014285Y-122328571D01*
X208061904Y-122280952D01*
X208157142Y-122233333D01*
X208395238Y-122233333D01*
X208490476Y-122280952D01*
X208538095Y-122328571D01*
X208585714Y-122423809D01*
X208585714Y-122661904D01*
X208538095Y-122757142D01*
X208490476Y-122804761D01*
X208395238Y-122852380D01*
X208157142Y-122852380D01*
X208061904Y-122804761D01*
X208014285Y-122757142D01*
G04 #@! TO.C,R4*
X181833333Y-119302380D02*
X181500000Y-118826190D01*
X181261904Y-119302380D02*
X181261904Y-118302380D01*
X181642857Y-118302380D01*
X181738095Y-118350000D01*
X181785714Y-118397619D01*
X181833333Y-118492857D01*
X181833333Y-118635714D01*
X181785714Y-118730952D01*
X181738095Y-118778571D01*
X181642857Y-118826190D01*
X181261904Y-118826190D01*
X182690476Y-118635714D02*
X182690476Y-119302380D01*
X182452380Y-118254761D02*
X182214285Y-118969047D01*
X182833333Y-118969047D01*
G04 #@! TO.C,D8*
X205255904Y-143452380D02*
X205255904Y-142452380D01*
X205494000Y-142452380D01*
X205636857Y-142500000D01*
X205732095Y-142595238D01*
X205779714Y-142690476D01*
X205827333Y-142880952D01*
X205827333Y-143023809D01*
X205779714Y-143214285D01*
X205732095Y-143309523D01*
X205636857Y-143404761D01*
X205494000Y-143452380D01*
X205255904Y-143452380D01*
X206398761Y-142880952D02*
X206303523Y-142833333D01*
X206255904Y-142785714D01*
X206208285Y-142690476D01*
X206208285Y-142642857D01*
X206255904Y-142547619D01*
X206303523Y-142500000D01*
X206398761Y-142452380D01*
X206589238Y-142452380D01*
X206684476Y-142500000D01*
X206732095Y-142547619D01*
X206779714Y-142642857D01*
X206779714Y-142690476D01*
X206732095Y-142785714D01*
X206684476Y-142833333D01*
X206589238Y-142880952D01*
X206398761Y-142880952D01*
X206303523Y-142928571D01*
X206255904Y-142976190D01*
X206208285Y-143071428D01*
X206208285Y-143261904D01*
X206255904Y-143357142D01*
X206303523Y-143404761D01*
X206398761Y-143452380D01*
X206589238Y-143452380D01*
X206684476Y-143404761D01*
X206732095Y-143357142D01*
X206779714Y-143261904D01*
X206779714Y-143071428D01*
X206732095Y-142976190D01*
X206684476Y-142928571D01*
X206589238Y-142880952D01*
G04 #@! TO.C,D7*
X193286904Y-137577380D02*
X193286904Y-136577380D01*
X193525000Y-136577380D01*
X193667857Y-136625000D01*
X193763095Y-136720238D01*
X193810714Y-136815476D01*
X193858333Y-137005952D01*
X193858333Y-137148809D01*
X193810714Y-137339285D01*
X193763095Y-137434523D01*
X193667857Y-137529761D01*
X193525000Y-137577380D01*
X193286904Y-137577380D01*
X194191666Y-136577380D02*
X194858333Y-136577380D01*
X194429761Y-137577380D01*
G04 #@! TO.C,D6*
X181286904Y-137577380D02*
X181286904Y-136577380D01*
X181525000Y-136577380D01*
X181667857Y-136625000D01*
X181763095Y-136720238D01*
X181810714Y-136815476D01*
X181858333Y-137005952D01*
X181858333Y-137148809D01*
X181810714Y-137339285D01*
X181763095Y-137434523D01*
X181667857Y-137529761D01*
X181525000Y-137577380D01*
X181286904Y-137577380D01*
X182715476Y-136577380D02*
X182525000Y-136577380D01*
X182429761Y-136625000D01*
X182382142Y-136672619D01*
X182286904Y-136815476D01*
X182239285Y-137005952D01*
X182239285Y-137386904D01*
X182286904Y-137482142D01*
X182334523Y-137529761D01*
X182429761Y-137577380D01*
X182620238Y-137577380D01*
X182715476Y-137529761D01*
X182763095Y-137482142D01*
X182810714Y-137386904D01*
X182810714Y-137148809D01*
X182763095Y-137053571D01*
X182715476Y-137005952D01*
X182620238Y-136958333D01*
X182429761Y-136958333D01*
X182334523Y-137005952D01*
X182286904Y-137053571D01*
X182239285Y-137148809D01*
G04 #@! TO.C,D5*
X205286904Y-125577380D02*
X205286904Y-124577380D01*
X205525000Y-124577380D01*
X205667857Y-124625000D01*
X205763095Y-124720238D01*
X205810714Y-124815476D01*
X205858333Y-125005952D01*
X205858333Y-125148809D01*
X205810714Y-125339285D01*
X205763095Y-125434523D01*
X205667857Y-125529761D01*
X205525000Y-125577380D01*
X205286904Y-125577380D01*
X206763095Y-124577380D02*
X206286904Y-124577380D01*
X206239285Y-125053571D01*
X206286904Y-125005952D01*
X206382142Y-124958333D01*
X206620238Y-124958333D01*
X206715476Y-125005952D01*
X206763095Y-125053571D01*
X206810714Y-125148809D01*
X206810714Y-125386904D01*
X206763095Y-125482142D01*
X206715476Y-125529761D01*
X206620238Y-125577380D01*
X206382142Y-125577380D01*
X206286904Y-125529761D01*
X206239285Y-125482142D01*
G04 #@! TO.C,D4*
X193286904Y-125577380D02*
X193286904Y-124577380D01*
X193525000Y-124577380D01*
X193667857Y-124625000D01*
X193763095Y-124720238D01*
X193810714Y-124815476D01*
X193858333Y-125005952D01*
X193858333Y-125148809D01*
X193810714Y-125339285D01*
X193763095Y-125434523D01*
X193667857Y-125529761D01*
X193525000Y-125577380D01*
X193286904Y-125577380D01*
X194715476Y-124910714D02*
X194715476Y-125577380D01*
X194477380Y-124529761D02*
X194239285Y-125244047D01*
X194858333Y-125244047D01*
G04 #@! TO.C,D3*
X181286904Y-125577380D02*
X181286904Y-124577380D01*
X181525000Y-124577380D01*
X181667857Y-124625000D01*
X181763095Y-124720238D01*
X181810714Y-124815476D01*
X181858333Y-125005952D01*
X181858333Y-125148809D01*
X181810714Y-125339285D01*
X181763095Y-125434523D01*
X181667857Y-125529761D01*
X181525000Y-125577380D01*
X181286904Y-125577380D01*
X182191666Y-124577380D02*
X182810714Y-124577380D01*
X182477380Y-124958333D01*
X182620238Y-124958333D01*
X182715476Y-125005952D01*
X182763095Y-125053571D01*
X182810714Y-125148809D01*
X182810714Y-125386904D01*
X182763095Y-125482142D01*
X182715476Y-125529761D01*
X182620238Y-125577380D01*
X182334523Y-125577380D01*
X182239285Y-125529761D01*
X182191666Y-125482142D01*
G04 #@! TO.C,D2*
X205286904Y-113577380D02*
X205286904Y-112577380D01*
X205525000Y-112577380D01*
X205667857Y-112625000D01*
X205763095Y-112720238D01*
X205810714Y-112815476D01*
X205858333Y-113005952D01*
X205858333Y-113148809D01*
X205810714Y-113339285D01*
X205763095Y-113434523D01*
X205667857Y-113529761D01*
X205525000Y-113577380D01*
X205286904Y-113577380D01*
X206239285Y-112672619D02*
X206286904Y-112625000D01*
X206382142Y-112577380D01*
X206620238Y-112577380D01*
X206715476Y-112625000D01*
X206763095Y-112672619D01*
X206810714Y-112767857D01*
X206810714Y-112863095D01*
X206763095Y-113005952D01*
X206191666Y-113577380D01*
X206810714Y-113577380D01*
G04 #@! TO.C,D1*
X193286904Y-113577380D02*
X193286904Y-112577380D01*
X193525000Y-112577380D01*
X193667857Y-112625000D01*
X193763095Y-112720238D01*
X193810714Y-112815476D01*
X193858333Y-113005952D01*
X193858333Y-113148809D01*
X193810714Y-113339285D01*
X193763095Y-113434523D01*
X193667857Y-113529761D01*
X193525000Y-113577380D01*
X193286904Y-113577380D01*
X194810714Y-113577380D02*
X194239285Y-113577380D01*
X194525000Y-113577380D02*
X194525000Y-112577380D01*
X194429761Y-112720238D01*
X194334523Y-112815476D01*
X194239285Y-112863095D01*
G04 #@! TO.C,C6*
X209233333Y-117757142D02*
X209185714Y-117804761D01*
X209042857Y-117852380D01*
X208947619Y-117852380D01*
X208804761Y-117804761D01*
X208709523Y-117709523D01*
X208661904Y-117614285D01*
X208614285Y-117423809D01*
X208614285Y-117280952D01*
X208661904Y-117090476D01*
X208709523Y-116995238D01*
X208804761Y-116900000D01*
X208947619Y-116852380D01*
X209042857Y-116852380D01*
X209185714Y-116900000D01*
X209233333Y-116947619D01*
X210090476Y-116852380D02*
X209900000Y-116852380D01*
X209804761Y-116900000D01*
X209757142Y-116947619D01*
X209661904Y-117090476D01*
X209614285Y-117280952D01*
X209614285Y-117661904D01*
X209661904Y-117757142D01*
X209709523Y-117804761D01*
X209804761Y-117852380D01*
X209995238Y-117852380D01*
X210090476Y-117804761D01*
X210138095Y-117757142D01*
X210185714Y-117661904D01*
X210185714Y-117423809D01*
X210138095Y-117328571D01*
X210090476Y-117280952D01*
X209995238Y-117233333D01*
X209804761Y-117233333D01*
X209709523Y-117280952D01*
X209661904Y-117328571D01*
X209614285Y-117423809D01*
G04 #@! TO.C,R7*
X222333333Y-135052380D02*
X222000000Y-134576190D01*
X221761904Y-135052380D02*
X221761904Y-134052380D01*
X222142857Y-134052380D01*
X222238095Y-134100000D01*
X222285714Y-134147619D01*
X222333333Y-134242857D01*
X222333333Y-134385714D01*
X222285714Y-134480952D01*
X222238095Y-134528571D01*
X222142857Y-134576190D01*
X221761904Y-134576190D01*
X222666666Y-134052380D02*
X223333333Y-134052380D01*
X222904761Y-135052380D01*
G04 #@! TO.C,R8*
X226033333Y-117452380D02*
X225700000Y-116976190D01*
X225461904Y-117452380D02*
X225461904Y-116452380D01*
X225842857Y-116452380D01*
X225938095Y-116500000D01*
X225985714Y-116547619D01*
X226033333Y-116642857D01*
X226033333Y-116785714D01*
X225985714Y-116880952D01*
X225938095Y-116928571D01*
X225842857Y-116976190D01*
X225461904Y-116976190D01*
X226604761Y-116880952D02*
X226509523Y-116833333D01*
X226461904Y-116785714D01*
X226414285Y-116690476D01*
X226414285Y-116642857D01*
X226461904Y-116547619D01*
X226509523Y-116500000D01*
X226604761Y-116452380D01*
X226795238Y-116452380D01*
X226890476Y-116500000D01*
X226938095Y-116547619D01*
X226985714Y-116642857D01*
X226985714Y-116690476D01*
X226938095Y-116785714D01*
X226890476Y-116833333D01*
X226795238Y-116880952D01*
X226604761Y-116880952D01*
X226509523Y-116928571D01*
X226461904Y-116976190D01*
X226414285Y-117071428D01*
X226414285Y-117261904D01*
X226461904Y-117357142D01*
X226509523Y-117404761D01*
X226604761Y-117452380D01*
X226795238Y-117452380D01*
X226890476Y-117404761D01*
X226938095Y-117357142D01*
X226985714Y-117261904D01*
X226985714Y-117071428D01*
X226938095Y-116976190D01*
X226890476Y-116928571D01*
X226795238Y-116880952D01*
G04 #@! TO.C,R9*
X225933333Y-124152380D02*
X225600000Y-123676190D01*
X225361904Y-124152380D02*
X225361904Y-123152380D01*
X225742857Y-123152380D01*
X225838095Y-123200000D01*
X225885714Y-123247619D01*
X225933333Y-123342857D01*
X225933333Y-123485714D01*
X225885714Y-123580952D01*
X225838095Y-123628571D01*
X225742857Y-123676190D01*
X225361904Y-123676190D01*
X226409523Y-124152380D02*
X226600000Y-124152380D01*
X226695238Y-124104761D01*
X226742857Y-124057142D01*
X226838095Y-123914285D01*
X226885714Y-123723809D01*
X226885714Y-123342857D01*
X226838095Y-123247619D01*
X226790476Y-123200000D01*
X226695238Y-123152380D01*
X226504761Y-123152380D01*
X226409523Y-123200000D01*
X226361904Y-123247619D01*
X226314285Y-123342857D01*
X226314285Y-123580952D01*
X226361904Y-123676190D01*
X226409523Y-123723809D01*
X226504761Y-123771428D01*
X226695238Y-123771428D01*
X226790476Y-123723809D01*
X226838095Y-123676190D01*
X226885714Y-123580952D01*
G04 #@! TO.C,C8*
X218933333Y-134957142D02*
X218885714Y-135004761D01*
X218742857Y-135052380D01*
X218647619Y-135052380D01*
X218504761Y-135004761D01*
X218409523Y-134909523D01*
X218361904Y-134814285D01*
X218314285Y-134623809D01*
X218314285Y-134480952D01*
X218361904Y-134290476D01*
X218409523Y-134195238D01*
X218504761Y-134100000D01*
X218647619Y-134052380D01*
X218742857Y-134052380D01*
X218885714Y-134100000D01*
X218933333Y-134147619D01*
X219504761Y-134480952D02*
X219409523Y-134433333D01*
X219361904Y-134385714D01*
X219314285Y-134290476D01*
X219314285Y-134242857D01*
X219361904Y-134147619D01*
X219409523Y-134100000D01*
X219504761Y-134052380D01*
X219695238Y-134052380D01*
X219790476Y-134100000D01*
X219838095Y-134147619D01*
X219885714Y-134242857D01*
X219885714Y-134290476D01*
X219838095Y-134385714D01*
X219790476Y-134433333D01*
X219695238Y-134480952D01*
X219504761Y-134480952D01*
X219409523Y-134528571D01*
X219361904Y-134576190D01*
X219314285Y-134671428D01*
X219314285Y-134861904D01*
X219361904Y-134957142D01*
X219409523Y-135004761D01*
X219504761Y-135052380D01*
X219695238Y-135052380D01*
X219790476Y-135004761D01*
X219838095Y-134957142D01*
X219885714Y-134861904D01*
X219885714Y-134671428D01*
X219838095Y-134576190D01*
X219790476Y-134528571D01*
X219695238Y-134480952D01*
G04 #@! TD*
%LPC*%
D13*
G04 #@! TO.C,U1*
X215362500Y-129337500D03*
X214037500Y-129337500D03*
X215362500Y-130662500D03*
X214037500Y-130662500D03*
D14*
X216650000Y-131400000D03*
D15*
X213300000Y-131950000D03*
D14*
X212750000Y-128600000D03*
D15*
X216100000Y-128050000D03*
D16*
X216400000Y-131400000D03*
D14*
X216650000Y-131000000D03*
X216650000Y-130600000D03*
X216650000Y-130200000D03*
X216650000Y-129800000D03*
X216650000Y-129400000D03*
X216650000Y-129000000D03*
X216650000Y-128600000D03*
D16*
X216400000Y-131000000D03*
X216400000Y-130600000D03*
X216400000Y-130200000D03*
X216400000Y-129800000D03*
X216400000Y-129400000D03*
X216400000Y-129000000D03*
X216400000Y-128600000D03*
X213300000Y-131700000D03*
D15*
X213700000Y-131950000D03*
X214100000Y-131950000D03*
X214500000Y-131950000D03*
X214900000Y-131950000D03*
X215300000Y-131950000D03*
X215700000Y-131950000D03*
X216100000Y-131950000D03*
D16*
X213700000Y-131700000D03*
X214100000Y-131700000D03*
X214500000Y-131700000D03*
X214900000Y-131700000D03*
X215300000Y-131700000D03*
X215700000Y-131700000D03*
X216100000Y-131700000D03*
X213000000Y-128600000D03*
D14*
X212750000Y-129000000D03*
X212750000Y-129400000D03*
X212750000Y-129800000D03*
X212750000Y-130200000D03*
X212750000Y-130600000D03*
X212750000Y-131000000D03*
X212750000Y-131400000D03*
D16*
X213000000Y-129000000D03*
X213000000Y-129400000D03*
X213000000Y-129800000D03*
X213000000Y-130200000D03*
X213000000Y-130600000D03*
X213000000Y-131000000D03*
X213000000Y-131400000D03*
X216100000Y-128300000D03*
D15*
X215700000Y-128050000D03*
X215300000Y-128050000D03*
X214900000Y-128050000D03*
X214500000Y-128050000D03*
X214100000Y-128050000D03*
X213700000Y-128050000D03*
X213300000Y-128050000D03*
D16*
X215700000Y-128300000D03*
X215300000Y-128300000D03*
X214900000Y-128300000D03*
X214500000Y-128300000D03*
X214100000Y-128300000D03*
X213700000Y-128300000D03*
X213300000Y-128300000D03*
D17*
X215500000Y-129200000D03*
X215500000Y-130000000D03*
X215500000Y-130800000D03*
X214700000Y-129200000D03*
X214700000Y-130000000D03*
X214700000Y-130800000D03*
X213900000Y-129200000D03*
X213900000Y-130000000D03*
X213900000Y-130800000D03*
G04 #@! TD*
D18*
G04 #@! TO.C,REF\002A\002A*
X216000000Y-116000000D03*
G04 #@! TD*
G04 #@! TO.C,REF\002A\002A*
X216000000Y-140000000D03*
G04 #@! TD*
G04 #@! TO.C,REF\002A\002A*
X172000000Y-140000000D03*
G04 #@! TD*
D19*
G04 #@! TO.C,C2*
X208700000Y-111800000D03*
X211700000Y-111800000D03*
G04 #@! TD*
G04 #@! TO.C,C3*
X201500000Y-121500000D03*
X198500000Y-121500000D03*
G04 #@! TD*
G04 #@! TO.C,C4*
X207700000Y-135700000D03*
X204700000Y-135700000D03*
G04 #@! TD*
D20*
G04 #@! TO.C,C7*
X218000000Y-122200000D03*
X218000000Y-119200000D03*
G04 #@! TD*
D21*
G04 #@! TO.C,D9*
X183100000Y-116000000D03*
X180900000Y-116000000D03*
G04 #@! TD*
D22*
G04 #@! TO.C,R1*
X225200000Y-130250000D03*
X225200000Y-133150000D03*
G04 #@! TD*
D23*
G04 #@! TO.C,R3*
X223150000Y-127700000D03*
X226050000Y-127700000D03*
G04 #@! TD*
G04 #@! TO.C,R6*
X213650000Y-114700000D03*
X210750000Y-114700000D03*
G04 #@! TD*
D24*
G04 #@! TO.C,U2*
X213400000Y-121750000D03*
X213400000Y-120800000D03*
X213400000Y-119850000D03*
X211200000Y-119850000D03*
X211200000Y-121750000D03*
X211200000Y-120800000D03*
G04 #@! TD*
D25*
G04 #@! TO.C,C5*
X215500000Y-119300000D03*
X215500000Y-121300000D03*
G04 #@! TD*
G04 #@! TO.C,C1*
X217400000Y-124500000D03*
X217400000Y-126500000D03*
G04 #@! TD*
D26*
G04 #@! TO.C,R5*
X206850000Y-120300000D03*
X208750000Y-120300000D03*
G04 #@! TD*
G04 #@! TO.C,R4*
X181050000Y-120500000D03*
X182950000Y-120500000D03*
G04 #@! TD*
D27*
G04 #@! TO.C,D8*
X204650000Y-139100000D03*
X207350000Y-139100000D03*
X204650000Y-139950000D03*
X207350000Y-139950000D03*
X204650000Y-140800000D03*
X207350000Y-140800000D03*
G04 #@! TD*
G04 #@! TO.C,D7*
X192650000Y-139100000D03*
X195350000Y-139100000D03*
X192650000Y-139950000D03*
X195350000Y-139950000D03*
X192650000Y-140800000D03*
X195350000Y-140800000D03*
G04 #@! TD*
G04 #@! TO.C,D6*
X180650000Y-139100000D03*
X183350000Y-139100000D03*
X180650000Y-139950000D03*
X183350000Y-139950000D03*
X180650000Y-140800000D03*
X183350000Y-140800000D03*
G04 #@! TD*
G04 #@! TO.C,D5*
X204650000Y-127100000D03*
X207350000Y-127100000D03*
X204650000Y-127950000D03*
X207350000Y-127950000D03*
X204650000Y-128800000D03*
X207350000Y-128800000D03*
G04 #@! TD*
G04 #@! TO.C,D4*
X192650000Y-127100000D03*
X195350000Y-127100000D03*
X192650000Y-127950000D03*
X195350000Y-127950000D03*
X192650000Y-128800000D03*
X195350000Y-128800000D03*
G04 #@! TD*
G04 #@! TO.C,D3*
X180650000Y-127100000D03*
X183350000Y-127100000D03*
X180650000Y-127950000D03*
X183350000Y-127950000D03*
X180650000Y-128800000D03*
X183350000Y-128800000D03*
G04 #@! TD*
G04 #@! TO.C,D2*
X204650000Y-115100000D03*
X207350000Y-115100000D03*
X204650000Y-115950000D03*
X207350000Y-115950000D03*
X204650000Y-116800000D03*
X207350000Y-116800000D03*
G04 #@! TD*
G04 #@! TO.C,D1*
X192650000Y-115100000D03*
X195350000Y-115100000D03*
X192650000Y-115950000D03*
X195350000Y-115950000D03*
X192650000Y-116800000D03*
X195350000Y-116800000D03*
G04 #@! TD*
D28*
G04 #@! TO.C,C6*
X213200000Y-117400000D03*
X211200000Y-117400000D03*
G04 #@! TD*
D29*
G04 #@! TO.C,R7*
X222600000Y-130650000D03*
X222600000Y-132550000D03*
G04 #@! TD*
G04 #@! TO.C,R8*
X224200000Y-119450000D03*
X224200000Y-117550000D03*
G04 #@! TD*
G04 #@! TO.C,R9*
X224200000Y-122850000D03*
X224200000Y-120950000D03*
G04 #@! TD*
D25*
G04 #@! TO.C,C8*
X220300000Y-130700000D03*
X220300000Y-132700000D03*
G04 #@! TD*
D18*
G04 #@! TO.C,REF\002A\002A*
X172000000Y-116000000D03*
G04 #@! TD*
M02*
