M48
INCH,TZ
T1C0.012
T2C0.016
%
G90
G05
T1
X68031Y-53386
X70591Y-50551
X70591Y-55276
X70748Y-51102
X70748Y-55827
X74882Y-47441
X75079Y-50945
X75079Y-51811
X75079Y-55669
X75079Y-56535
X75315Y-50984
X75315Y-51772
X75315Y-55709
X75315Y-56496
X75354Y-45906
X75512Y-46417
X75551Y-50394
X75551Y-55118
X75591Y-51772
X75591Y-56496
X75984Y-48346
X77756Y-47835
X79646Y-46811
X79685Y-50866
X79685Y-55591
X79724Y-52480
X79724Y-57205
X79882Y-46496
X79961Y-50945
X79961Y-55669
X80000Y-52441
X80000Y-57165
X80157Y-50472
X80157Y-53425
X80197Y-47087
X80276Y-52362
X80276Y-55079
X80276Y-57087
X81378Y-44409
X81890Y-49055
X82165Y-49055
X82441Y-49055
X82559Y-45945
X82756Y-51102
X82835Y-52559
X83622Y-46811
X83698Y-51041
X83698Y-51548
X83698Y-52055
X83698Y-52562
X83760Y-43996
X84173Y-49961
X84173Y-53504
X84205Y-51041
X84205Y-52562
X84213Y-45709
X84272Y-47559
X84291Y-46732
X84370Y-48346
X84449Y-46220
X84712Y-51041
X84712Y-52562
X84764Y-48425
X84961Y-53504
X85219Y-51041
X85219Y-51548
X85219Y-52055
X85219Y-52562
X85354Y-48583
X85433Y-53504
X85551Y-50157
X85748Y-47441
X85945Y-44921
X85945Y-49291
X85984Y-49685
X86024Y-48031
X86063Y-55197
X86102Y-51299
X86112Y-50817
X86112Y-51900
X86112Y-52293
X86112Y-52884
X86299Y-49331
X86339Y-51693
X86378Y-53228
X86467Y-51506
X86654Y-51339
X86929Y-49331
X87244Y-47559
X87283Y-48465
X87283Y-48780
X87598Y-52205
T2
X80187Y-47835
X81811Y-49488
X82244Y-53386
X85551Y-47047
T0
M30
