G04 #@! TF.GenerationSoftware,KiCad,Pcbnew,(5.0.2)-1*
G04 #@! TF.CreationDate,2019-03-20T17:30:19-04:00*
G04 #@! TF.ProjectId,Dash_Warning_Panel,44617368-5f57-4617-926e-696e675f5061,rev?*
G04 #@! TF.SameCoordinates,Original*
G04 #@! TF.FileFunction,Copper,L1,Top*
G04 #@! TF.FilePolarity,Positive*
%FSLAX46Y46*%
G04 Gerber Fmt 4.6, Leading zero omitted, Abs format (unit mm)*
G04 Created by KiCad (PCBNEW (5.0.2)-1) date 3/20/2019 5:30:19 PM*
%MOMM*%
%LPD*%
G01*
G04 APERTURE LIST*
G04 #@! TA.AperFunction,SMDPad,CuDef*
%ADD10R,0.250000X0.700000*%
G04 #@! TD*
G04 #@! TA.AperFunction,SMDPad,CuDef*
%ADD11R,0.700000X0.250000*%
G04 #@! TD*
G04 #@! TA.AperFunction,SMDPad,CuDef*
%ADD12R,1.287500X1.287500*%
G04 #@! TD*
G04 #@! TA.AperFunction,SMDPad,CuDef*
%ADD13R,1.000000X1.600000*%
G04 #@! TD*
G04 #@! TA.AperFunction,SMDPad,CuDef*
%ADD14R,1.600000X1.000000*%
G04 #@! TD*
G04 #@! TA.AperFunction,SMDPad,CuDef*
%ADD15R,1.200000X1.200000*%
G04 #@! TD*
G04 #@! TA.AperFunction,SMDPad,CuDef*
%ADD16R,0.900000X1.700000*%
G04 #@! TD*
G04 #@! TA.AperFunction,SMDPad,CuDef*
%ADD17R,1.060000X0.650000*%
G04 #@! TD*
G04 #@! TA.AperFunction,SMDPad,CuDef*
%ADD18R,1.250000X1.000000*%
G04 #@! TD*
G04 #@! TA.AperFunction,SMDPad,CuDef*
%ADD19R,0.700000X1.300000*%
G04 #@! TD*
G04 #@! TA.AperFunction,SMDPad,CuDef*
%ADD20R,0.900000X0.550000*%
G04 #@! TD*
G04 #@! TA.AperFunction,SMDPad,CuDef*
%ADD21R,1.000000X1.250000*%
G04 #@! TD*
G04 #@! TA.AperFunction,ViaPad*
%ADD22C,0.400000*%
G04 #@! TD*
G04 #@! TA.AperFunction,ViaPad*
%ADD23C,0.600000*%
G04 #@! TD*
G04 #@! TA.AperFunction,Conductor*
%ADD24C,0.300000*%
G04 #@! TD*
G04 #@! TA.AperFunction,Conductor*
%ADD25C,0.220000*%
G04 #@! TD*
G04 #@! TA.AperFunction,Conductor*
%ADD26C,0.500000*%
G04 #@! TD*
G04 #@! TA.AperFunction,Conductor*
%ADD27C,0.254000*%
G04 #@! TD*
G04 APERTURE END LIST*
D10*
G04 #@! TO.P,U1,1*
G04 #@! TO.N,/GND*
X217275000Y-128175000D03*
G04 #@! TO.P,U1,2*
X216775000Y-128175000D03*
G04 #@! TO.P,U1,3*
G04 #@! TO.N,/SDO*
X216275000Y-128175000D03*
G04 #@! TO.P,U1,4*
G04 #@! TO.N,/GND*
X215775000Y-128175000D03*
G04 #@! TO.P,U1,5*
G04 #@! TO.N,/R0*
X215275000Y-128175000D03*
G04 #@! TO.P,U1,6*
G04 #@! TO.N,/G0*
X214775000Y-128175000D03*
G04 #@! TO.P,U1,7*
G04 #@! TO.N,/B0*
X214275000Y-128175000D03*
G04 #@! TO.P,U1,8*
G04 #@! TO.N,/GND*
X213775000Y-128175000D03*
G04 #@! TO.P,U1,9*
G04 #@! TO.N,/R1*
X213275000Y-128175000D03*
G04 #@! TO.P,U1,10*
G04 #@! TO.N,/G1*
X212775000Y-128175000D03*
G04 #@! TO.P,U1,11*
G04 #@! TO.N,/B1*
X212275000Y-128175000D03*
G04 #@! TO.P,U1,12*
G04 #@! TO.N,/R2*
X211775000Y-128175000D03*
D11*
G04 #@! TO.P,U1,13*
G04 #@! TO.N,/G2*
X211125000Y-128825000D03*
G04 #@! TO.P,U1,14*
G04 #@! TO.N,/B2*
X211125000Y-129325000D03*
G04 #@! TO.P,U1,15*
G04 #@! TO.N,/GND*
X211125000Y-129825000D03*
G04 #@! TO.P,U1,16*
G04 #@! TO.N,/R3*
X211125000Y-130325000D03*
G04 #@! TO.P,U1,17*
G04 #@! TO.N,/G3*
X211125000Y-130825000D03*
G04 #@! TO.P,U1,18*
G04 #@! TO.N,/B3*
X211125000Y-131325000D03*
G04 #@! TO.P,U1,19*
G04 #@! TO.N,/R4*
X211125000Y-131825000D03*
G04 #@! TO.P,U1,20*
G04 #@! TO.N,/G4*
X211125000Y-132325000D03*
G04 #@! TO.P,U1,21*
G04 #@! TO.N,/B4*
X211125000Y-132825000D03*
G04 #@! TO.P,U1,22*
G04 #@! TO.N,/GND*
X211125000Y-133325000D03*
G04 #@! TO.P,U1,23*
G04 #@! TO.N,/R5*
X211125000Y-133825000D03*
G04 #@! TO.P,U1,24*
G04 #@! TO.N,/G5*
X211125000Y-134325000D03*
D10*
G04 #@! TO.P,U1,25*
G04 #@! TO.N,/B5*
X211775000Y-134975000D03*
G04 #@! TO.P,U1,26*
G04 #@! TO.N,/R6*
X212275000Y-134975000D03*
G04 #@! TO.P,U1,27*
G04 #@! TO.N,/G6*
X212775000Y-134975000D03*
G04 #@! TO.P,U1,28*
G04 #@! TO.N,/B6*
X213275000Y-134975000D03*
G04 #@! TO.P,U1,29*
G04 #@! TO.N,/GND*
X213775000Y-134975000D03*
G04 #@! TO.P,U1,30*
G04 #@! TO.N,/R7*
X214275000Y-134975000D03*
G04 #@! TO.P,U1,31*
G04 #@! TO.N,/G7*
X214775000Y-134975000D03*
G04 #@! TO.P,U1,32*
G04 #@! TO.N,/B7*
X215275000Y-134975000D03*
G04 #@! TO.P,U1,33*
G04 #@! TO.N,/GND*
X215775000Y-134975000D03*
G04 #@! TO.P,U1,34*
G04 #@! TO.N,Net-(R2-Pad2)*
X216275000Y-134975000D03*
G04 #@! TO.P,U1,35*
G04 #@! TO.N,/GND*
X216775000Y-134975000D03*
G04 #@! TO.P,U1,36*
X217275000Y-134975000D03*
D11*
G04 #@! TO.P,U1,37*
X217925000Y-134325000D03*
G04 #@! TO.P,U1,38*
G04 #@! TO.N,/SDI*
X217925000Y-133825000D03*
G04 #@! TO.P,U1,39*
G04 #@! TO.N,/GND*
X217925000Y-133325000D03*
G04 #@! TO.P,U1,40*
X217925000Y-132825000D03*
G04 #@! TO.P,U1,41*
G04 #@! TO.N,/CLK*
X217925000Y-132325000D03*
G04 #@! TO.P,U1,42*
G04 #@! TO.N,/GND*
X217925000Y-131825000D03*
G04 #@! TO.P,U1,43*
G04 #@! TO.N,/OE*
X217925000Y-131325000D03*
G04 #@! TO.P,U1,44*
G04 #@! TO.N,Net-(R1-Pad1)*
X217925000Y-130825000D03*
G04 #@! TO.P,U1,45*
G04 #@! TO.N,/GND*
X217925000Y-130325000D03*
G04 #@! TO.P,U1,46*
G04 #@! TO.N,/VCC*
X217925000Y-129825000D03*
G04 #@! TO.P,U1,47*
G04 #@! TO.N,/GND*
X217925000Y-129325000D03*
G04 #@! TO.P,U1,48*
X217925000Y-128825000D03*
D12*
G04 #@! TO.P,U1,49*
X212593750Y-133506250D03*
X213881250Y-133506250D03*
X215168750Y-133506250D03*
X216456250Y-133506250D03*
X212593750Y-132218750D03*
G04 #@! TO.N,N/C*
X213881250Y-132218750D03*
X215168750Y-132218750D03*
G04 #@! TO.N,/GND*
X216456250Y-132218750D03*
X212593750Y-130931250D03*
G04 #@! TO.N,N/C*
X213881250Y-130931250D03*
X215168750Y-130931250D03*
G04 #@! TO.N,/GND*
X216456250Y-130931250D03*
X212593750Y-129643750D03*
X213881250Y-129643750D03*
X215168750Y-129643750D03*
X216456250Y-129643750D03*
G04 #@! TD*
D13*
G04 #@! TO.P,C2,1*
G04 #@! TO.N,/LED_Power*
X208700000Y-111800000D03*
G04 #@! TO.P,C2,2*
G04 #@! TO.N,/GND*
X211700000Y-111800000D03*
G04 #@! TD*
G04 #@! TO.P,C3,1*
G04 #@! TO.N,/LED_Power*
X201500000Y-121500000D03*
G04 #@! TO.P,C3,2*
G04 #@! TO.N,/GND*
X198500000Y-121500000D03*
G04 #@! TD*
G04 #@! TO.P,C4,1*
G04 #@! TO.N,/LED_Power*
X207700000Y-135700000D03*
G04 #@! TO.P,C4,2*
G04 #@! TO.N,/GND*
X204700000Y-135700000D03*
G04 #@! TD*
D14*
G04 #@! TO.P,C7,1*
G04 #@! TO.N,/VCC*
X218700000Y-118100000D03*
G04 #@! TO.P,C7,2*
G04 #@! TO.N,/GND*
X218700000Y-115100000D03*
G04 #@! TD*
D15*
G04 #@! TO.P,D9,2*
G04 #@! TO.N,/LED_Power*
X183100000Y-116000000D03*
G04 #@! TO.P,D9,1*
G04 #@! TO.N,Net-(D9-Pad1)*
X180900000Y-116000000D03*
G04 #@! TD*
D16*
G04 #@! TO.P,R1,1*
G04 #@! TO.N,Net-(R1-Pad1)*
X220350000Y-135700000D03*
G04 #@! TO.P,R1,2*
G04 #@! TO.N,/VCC*
X223250000Y-135700000D03*
G04 #@! TD*
G04 #@! TO.P,R2,1*
G04 #@! TO.N,/VCC*
X223250000Y-138400000D03*
G04 #@! TO.P,R2,2*
G04 #@! TO.N,Net-(R2-Pad2)*
X220350000Y-138400000D03*
G04 #@! TD*
G04 #@! TO.P,R3,1*
G04 #@! TO.N,/OE*
X220350000Y-141200000D03*
G04 #@! TO.P,R3,2*
G04 #@! TO.N,/VCC*
X223250000Y-141200000D03*
G04 #@! TD*
G04 #@! TO.P,R6,1*
G04 #@! TO.N,/VCC*
X213650000Y-114700000D03*
G04 #@! TO.P,R6,2*
G04 #@! TO.N,/EN*
X210750000Y-114700000D03*
G04 #@! TD*
D17*
G04 #@! TO.P,U2,1*
G04 #@! TO.N,/VCC*
X213400000Y-121750000D03*
G04 #@! TO.P,U2,2*
G04 #@! TO.N,/GND*
X213400000Y-120800000D03*
G04 #@! TO.P,U2,3*
G04 #@! TO.N,/EN*
X213400000Y-119850000D03*
G04 #@! TO.P,U2,4*
G04 #@! TO.N,Net-(C6-Pad2)*
X211200000Y-119850000D03*
G04 #@! TO.P,U2,6*
G04 #@! TO.N,/LED_Power*
X211200000Y-121750000D03*
G04 #@! TO.P,U2,5*
G04 #@! TO.N,Net-(R5-Pad2)*
X211200000Y-120800000D03*
G04 #@! TD*
D18*
G04 #@! TO.P,C5,1*
G04 #@! TO.N,/GND*
X216000000Y-121300000D03*
G04 #@! TO.P,C5,2*
G04 #@! TO.N,/VCC*
X216000000Y-119300000D03*
G04 #@! TD*
G04 #@! TO.P,C1,1*
G04 #@! TO.N,/VCC*
X219800000Y-129300000D03*
G04 #@! TO.P,C1,2*
G04 #@! TO.N,/GND*
X219800000Y-127300000D03*
G04 #@! TD*
D19*
G04 #@! TO.P,R5,1*
G04 #@! TO.N,/LED_Power*
X206850000Y-120300000D03*
G04 #@! TO.P,R5,2*
G04 #@! TO.N,Net-(R5-Pad2)*
X208750000Y-120300000D03*
G04 #@! TD*
G04 #@! TO.P,R4,1*
G04 #@! TO.N,Net-(D9-Pad1)*
X181050000Y-120500000D03*
G04 #@! TO.P,R4,2*
G04 #@! TO.N,/MC*
X182950000Y-120500000D03*
G04 #@! TD*
D20*
G04 #@! TO.P,D8,1*
G04 #@! TO.N,/B7*
X204650000Y-139100000D03*
G04 #@! TO.P,D8,2*
G04 #@! TO.N,/LED_Power*
X207350000Y-139100000D03*
G04 #@! TO.P,D8,3*
G04 #@! TO.N,/R7*
X204650000Y-139950000D03*
G04 #@! TO.P,D8,4*
G04 #@! TO.N,/LED_Power*
X207350000Y-139950000D03*
G04 #@! TO.P,D8,5*
G04 #@! TO.N,/G7*
X204650000Y-140800000D03*
G04 #@! TO.P,D8,6*
G04 #@! TO.N,/LED_Power*
X207350000Y-140800000D03*
G04 #@! TD*
G04 #@! TO.P,D7,1*
G04 #@! TO.N,/B6*
X192650000Y-139100000D03*
G04 #@! TO.P,D7,2*
G04 #@! TO.N,/LED_Power*
X195350000Y-139100000D03*
G04 #@! TO.P,D7,3*
G04 #@! TO.N,/R6*
X192650000Y-139950000D03*
G04 #@! TO.P,D7,4*
G04 #@! TO.N,/LED_Power*
X195350000Y-139950000D03*
G04 #@! TO.P,D7,5*
G04 #@! TO.N,/G6*
X192650000Y-140800000D03*
G04 #@! TO.P,D7,6*
G04 #@! TO.N,/LED_Power*
X195350000Y-140800000D03*
G04 #@! TD*
G04 #@! TO.P,D6,1*
G04 #@! TO.N,/B5*
X180650000Y-139100000D03*
G04 #@! TO.P,D6,2*
G04 #@! TO.N,/LED_Power*
X183350000Y-139100000D03*
G04 #@! TO.P,D6,3*
G04 #@! TO.N,/R5*
X180650000Y-139950000D03*
G04 #@! TO.P,D6,4*
G04 #@! TO.N,/LED_Power*
X183350000Y-139950000D03*
G04 #@! TO.P,D6,5*
G04 #@! TO.N,/G5*
X180650000Y-140800000D03*
G04 #@! TO.P,D6,6*
G04 #@! TO.N,/LED_Power*
X183350000Y-140800000D03*
G04 #@! TD*
G04 #@! TO.P,D5,1*
G04 #@! TO.N,/B4*
X204650000Y-127100000D03*
G04 #@! TO.P,D5,2*
G04 #@! TO.N,/LED_Power*
X207350000Y-127100000D03*
G04 #@! TO.P,D5,3*
G04 #@! TO.N,/R4*
X204650000Y-127950000D03*
G04 #@! TO.P,D5,4*
G04 #@! TO.N,/LED_Power*
X207350000Y-127950000D03*
G04 #@! TO.P,D5,5*
G04 #@! TO.N,/G4*
X204650000Y-128800000D03*
G04 #@! TO.P,D5,6*
G04 #@! TO.N,/LED_Power*
X207350000Y-128800000D03*
G04 #@! TD*
G04 #@! TO.P,D4,1*
G04 #@! TO.N,/B3*
X192650000Y-127100000D03*
G04 #@! TO.P,D4,2*
G04 #@! TO.N,/LED_Power*
X195350000Y-127100000D03*
G04 #@! TO.P,D4,3*
G04 #@! TO.N,/R3*
X192650000Y-127950000D03*
G04 #@! TO.P,D4,4*
G04 #@! TO.N,/LED_Power*
X195350000Y-127950000D03*
G04 #@! TO.P,D4,5*
G04 #@! TO.N,/G3*
X192650000Y-128800000D03*
G04 #@! TO.P,D4,6*
G04 #@! TO.N,/LED_Power*
X195350000Y-128800000D03*
G04 #@! TD*
G04 #@! TO.P,D3,1*
G04 #@! TO.N,/B2*
X180650000Y-127100000D03*
G04 #@! TO.P,D3,2*
G04 #@! TO.N,/LED_Power*
X183350000Y-127100000D03*
G04 #@! TO.P,D3,3*
G04 #@! TO.N,/R2*
X180650000Y-127950000D03*
G04 #@! TO.P,D3,4*
G04 #@! TO.N,/LED_Power*
X183350000Y-127950000D03*
G04 #@! TO.P,D3,5*
G04 #@! TO.N,/G2*
X180650000Y-128800000D03*
G04 #@! TO.P,D3,6*
G04 #@! TO.N,/LED_Power*
X183350000Y-128800000D03*
G04 #@! TD*
G04 #@! TO.P,D2,1*
G04 #@! TO.N,/B1*
X204650000Y-115100000D03*
G04 #@! TO.P,D2,2*
G04 #@! TO.N,/LED_Power*
X207350000Y-115100000D03*
G04 #@! TO.P,D2,3*
G04 #@! TO.N,/R1*
X204650000Y-115950000D03*
G04 #@! TO.P,D2,4*
G04 #@! TO.N,/LED_Power*
X207350000Y-115950000D03*
G04 #@! TO.P,D2,5*
G04 #@! TO.N,/G1*
X204650000Y-116800000D03*
G04 #@! TO.P,D2,6*
G04 #@! TO.N,/LED_Power*
X207350000Y-116800000D03*
G04 #@! TD*
G04 #@! TO.P,D1,1*
G04 #@! TO.N,/B0*
X192650000Y-115100000D03*
G04 #@! TO.P,D1,2*
G04 #@! TO.N,/LED_Power*
X195350000Y-115100000D03*
G04 #@! TO.P,D1,3*
G04 #@! TO.N,/R0*
X192650000Y-115950000D03*
G04 #@! TO.P,D1,4*
G04 #@! TO.N,/LED_Power*
X195350000Y-115950000D03*
G04 #@! TO.P,D1,5*
G04 #@! TO.N,/G0*
X192650000Y-116800000D03*
G04 #@! TO.P,D1,6*
G04 #@! TO.N,/LED_Power*
X195350000Y-116800000D03*
G04 #@! TD*
D21*
G04 #@! TO.P,C6,1*
G04 #@! TO.N,/GND*
X213200000Y-117400000D03*
G04 #@! TO.P,C6,2*
G04 #@! TO.N,Net-(C6-Pad2)*
X211200000Y-117400000D03*
G04 #@! TD*
D22*
G04 #@! TO.N,Net-(R1-Pad1)*
X219625000Y-130825000D03*
X219400000Y-135200000D03*
D23*
G04 #@! TO.N,/LED_Power*
X208900000Y-135600000D03*
X207800000Y-125700000D03*
X203675000Y-121500000D03*
D22*
G04 #@! TO.N,/R0*
X191400000Y-116600000D03*
X191800000Y-117900000D03*
G04 #@! TO.N,/B1*
X202300000Y-118900000D03*
X208000000Y-124600000D03*
G04 #@! TO.N,/R1*
X202900000Y-118100000D03*
X209400000Y-124600000D03*
G04 #@! TO.N,/G1*
X203700000Y-119600000D03*
X208700000Y-124600000D03*
G04 #@! TO.N,/R2*
X179300000Y-128400000D03*
X179700000Y-129800000D03*
G04 #@! TO.N,/B3*
X190700000Y-131600000D03*
X190700000Y-129400000D03*
G04 #@! TO.N,/R3*
X191900000Y-128000000D03*
X192000000Y-131500000D03*
G04 #@! TO.N,/G3*
X191300000Y-129500000D03*
X191300000Y-131500000D03*
G04 #@! TO.N,/B4*
X202400000Y-129200000D03*
X202500000Y-133300000D03*
G04 #@! TO.N,/R4*
X203900000Y-133000000D03*
X203600000Y-128200000D03*
G04 #@! TO.N,/G4*
X203100000Y-129400000D03*
X203200000Y-133200000D03*
G04 #@! TO.N,/R5*
X179700000Y-141800000D03*
X179300000Y-140400000D03*
G04 #@! TO.N,/B6*
X190700000Y-143600000D03*
X190700000Y-141400000D03*
G04 #@! TO.N,/R6*
X191900000Y-140000000D03*
X192000000Y-143500000D03*
G04 #@! TO.N,/G6*
X191300000Y-141500000D03*
X191300000Y-143500000D03*
G04 #@! TO.N,/B7*
X202500000Y-145300000D03*
X202400000Y-141200000D03*
G04 #@! TO.N,/R7*
X203900000Y-139900000D03*
X203900000Y-145000000D03*
G04 #@! TO.N,/G7*
X203100000Y-141400000D03*
X203200000Y-145200000D03*
G04 #@! TO.N,/SDI*
X221700000Y-123900000D03*
G04 #@! TO.N,/SDO*
X218500000Y-122000000D03*
G04 #@! TO.N,/CLK*
X218300000Y-125200000D03*
G04 #@! TO.N,/MC*
X214300000Y-122800000D03*
X190200000Y-120500000D03*
X193000000Y-122800000D03*
G04 #@! TO.N,/OE*
X219300000Y-131300000D03*
X218600000Y-140200000D03*
X173900000Y-123500000D03*
G04 #@! TO.N,/EN*
X206700000Y-112800000D03*
X212400000Y-118900000D03*
X209700000Y-116700000D03*
X171400000Y-122800000D03*
G04 #@! TO.N,/VCC*
X213900000Y-116100000D03*
X214100000Y-118700000D03*
X220100000Y-130400000D03*
X222500000Y-132600000D03*
D23*
X217300000Y-119500000D03*
D22*
G04 #@! TO.N,/GND*
X212593750Y-130931250D03*
X212593750Y-132218750D03*
X212593750Y-133506250D03*
X213881250Y-133506250D03*
X215168750Y-133506250D03*
X216456250Y-133506250D03*
X216456250Y-132218750D03*
X216456250Y-130931250D03*
X216456250Y-129643750D03*
X215168750Y-129643750D03*
X213881250Y-129643750D03*
X212593750Y-129643750D03*
X218725000Y-129075000D03*
X221600000Y-120800000D03*
X220800000Y-125300000D03*
X221700000Y-123100000D03*
X218725000Y-134325000D03*
X217800000Y-120500000D03*
X218725000Y-132825000D03*
X219200000Y-125300000D03*
X197500000Y-121500000D03*
X214500000Y-117400000D03*
X218300000Y-114100000D03*
X217300000Y-127400000D03*
X210200000Y-129800000D03*
X212750000Y-111750000D03*
X217000000Y-135900000D03*
X215800000Y-135900000D03*
X203600000Y-135700000D03*
X218700000Y-130300000D03*
X213800000Y-135900000D03*
X215300000Y-123000000D03*
X218725000Y-131825000D03*
X218400000Y-126200000D03*
X213800000Y-126900000D03*
X210400000Y-133500000D03*
X214049998Y-120800000D03*
X216800000Y-123400000D03*
G04 #@! TD*
D24*
G04 #@! TO.N,Net-(D9-Pad1)*
X180500000Y-120500000D02*
X181050000Y-120500000D01*
X180550000Y-120500000D02*
X180500000Y-120500000D01*
X180500000Y-120500000D02*
X179500000Y-120500000D01*
X179500000Y-116000000D02*
X180900000Y-116000000D01*
X178600000Y-116900000D02*
X179500000Y-116000000D01*
X178600000Y-119600000D02*
X178600000Y-116900000D01*
X179500000Y-120500000D02*
X178600000Y-119600000D01*
D25*
G04 #@! TO.N,Net-(R1-Pad1)*
X217925000Y-130825000D02*
X219625000Y-130825000D01*
X219600000Y-135800000D02*
X220250000Y-135800000D01*
X219400000Y-135600000D02*
X219600000Y-135800000D01*
X219400000Y-135200000D02*
X219400000Y-135600000D01*
X220250000Y-135800000D02*
X220350000Y-135700000D01*
D24*
G04 #@! TO.N,Net-(R5-Pad2)*
X208750000Y-120300000D02*
X209250000Y-120300000D01*
X209750000Y-120800000D02*
X209250000Y-120300000D01*
X209750000Y-120800000D02*
X211200000Y-120800000D01*
G04 #@! TO.N,/LED_Power*
X188000000Y-125700000D02*
X188000000Y-123800000D01*
X188000000Y-137500000D02*
X188000000Y-136000000D01*
X200100000Y-137500000D02*
X200100000Y-136100000D01*
X199400000Y-113500000D02*
X199400000Y-115200000D01*
X188200000Y-113500000D02*
X188200000Y-114300000D01*
X204600000Y-120900000D02*
X205400000Y-120900000D01*
X205400000Y-120900000D02*
X205975000Y-120325000D01*
D26*
X203675000Y-121500000D02*
X204275000Y-120900000D01*
X204275000Y-120900000D02*
X204600000Y-120900000D01*
X204600000Y-120900000D02*
X204500000Y-120900000D01*
X204500000Y-120900000D02*
X204600000Y-120900000D01*
X196700000Y-126400000D02*
X196700000Y-126300000D01*
X196700000Y-126300000D02*
X197300000Y-125700000D01*
X207800000Y-125700000D02*
X197300000Y-125700000D01*
X197300000Y-125700000D02*
X188000000Y-125700000D01*
X188000000Y-125700000D02*
X185400000Y-125700000D01*
X185400000Y-125700000D02*
X184700000Y-126400000D01*
X208500000Y-126400000D02*
X207800000Y-125700000D01*
X208900000Y-135700000D02*
X208900000Y-137100000D01*
X208900000Y-137100000D02*
X208500000Y-137500000D01*
D24*
X207350000Y-115100000D02*
X208000000Y-115100000D01*
X208600000Y-115700000D02*
X208600000Y-115600000D01*
X208000000Y-115100000D02*
X208600000Y-115700000D01*
X207350000Y-115950000D02*
X207950000Y-115950000D01*
X207950000Y-115950000D02*
X208600000Y-116600000D01*
X207350000Y-116800000D02*
X208000000Y-116800000D01*
D26*
X208600000Y-117300000D02*
X208600000Y-117200000D01*
D24*
X208100000Y-116800000D02*
X208600000Y-117300000D01*
X208000000Y-116800000D02*
X208100000Y-116800000D01*
X206850000Y-120300000D02*
X206000000Y-120300000D01*
X205975000Y-120325000D02*
X206000000Y-120300000D01*
D26*
X208700000Y-111800000D02*
X207700000Y-111800000D01*
X207400000Y-112700000D02*
X208200000Y-113500000D01*
X207400000Y-112100000D02*
X207400000Y-112700000D01*
X207700000Y-111800000D02*
X207400000Y-112100000D01*
D24*
X196000000Y-116800000D02*
X196400000Y-116400000D01*
X195350000Y-116800000D02*
X196000000Y-116800000D01*
X196400000Y-116400000D02*
X196400000Y-115500000D01*
X195350000Y-115950000D02*
X195950000Y-115950000D01*
X196400000Y-115500000D02*
X196400000Y-114700000D01*
X195950000Y-115950000D02*
X196400000Y-115500000D01*
D26*
X196400000Y-114700000D02*
X196400000Y-115000000D01*
X196400000Y-115000000D02*
X196400000Y-114700000D01*
D24*
X195350000Y-115100000D02*
X196000000Y-115100000D01*
D26*
X197500000Y-113600000D02*
X197500000Y-113500000D01*
X197600000Y-113500000D02*
X197500000Y-113600000D01*
D24*
X196000000Y-115100000D02*
X196400000Y-114700000D01*
D26*
X196400000Y-114700000D02*
X197600000Y-113500000D01*
X208600000Y-114000000D02*
X208600000Y-113900000D01*
X208600000Y-115000000D02*
X208600000Y-114000000D01*
D24*
X184200000Y-116000000D02*
X183100000Y-116000000D01*
X186700000Y-113500000D02*
X184200000Y-116000000D01*
D26*
X208200000Y-113500000D02*
X199400000Y-113500000D01*
X199400000Y-113500000D02*
X197500000Y-113500000D01*
D24*
X197500000Y-113500000D02*
X188200000Y-113500000D01*
X188200000Y-113500000D02*
X186700000Y-113500000D01*
D26*
X208600000Y-113900000D02*
X208200000Y-113500000D01*
X208600000Y-115000000D02*
X208600000Y-115600000D01*
X208600000Y-115600000D02*
X208600000Y-115900000D01*
X208600000Y-115900000D02*
X208600000Y-116300000D01*
X208600000Y-116300000D02*
X208600000Y-116600000D01*
X208600000Y-116600000D02*
X208600000Y-117200000D01*
X208600000Y-117200000D02*
X208600000Y-117700000D01*
X204600000Y-119200000D02*
X204600000Y-120900000D01*
X207800000Y-118500000D02*
X208600000Y-117700000D01*
X205300000Y-118500000D02*
X207800000Y-118500000D01*
X204600000Y-119200000D02*
X205300000Y-118500000D01*
X204600000Y-120900000D02*
X204600000Y-121200000D01*
X210250000Y-121750000D02*
X210000000Y-122000000D01*
X211200000Y-121750000D02*
X210250000Y-121750000D01*
X205400000Y-122000000D02*
X204900000Y-121500000D01*
X210000000Y-122000000D02*
X205400000Y-122000000D01*
X204600000Y-121200000D02*
X204900000Y-121500000D01*
X196700000Y-138400000D02*
X196700000Y-138300000D01*
X196700000Y-138300000D02*
X197500000Y-137500000D01*
X208500000Y-137500000D02*
X208300000Y-137500000D01*
X207900000Y-137500000D02*
X200100000Y-137500000D01*
X200100000Y-137500000D02*
X197500000Y-137500000D01*
X208300000Y-137500000D02*
X207900000Y-137500000D01*
X185600000Y-137500000D02*
X184700000Y-138400000D01*
X197500000Y-137500000D02*
X188000000Y-137500000D01*
X188000000Y-137500000D02*
X185600000Y-137500000D01*
D24*
X183550000Y-127100000D02*
X184000000Y-127100000D01*
X184000000Y-127100000D02*
X184700000Y-126400000D01*
X183550000Y-127950000D02*
X184050000Y-127950000D01*
X184050000Y-127950000D02*
X184700000Y-127300000D01*
X183550000Y-128800000D02*
X184100000Y-128800000D01*
X184700000Y-128200000D02*
X184700000Y-127300000D01*
X184700000Y-127300000D02*
X184700000Y-126400000D01*
X184100000Y-128800000D02*
X184700000Y-128200000D01*
X196100000Y-128800000D02*
X196700000Y-128200000D01*
X196700000Y-127300000D02*
X196700000Y-126400000D01*
X196700000Y-128200000D02*
X196700000Y-127300000D01*
X195550000Y-128800000D02*
X196100000Y-128800000D01*
X196050000Y-127950000D02*
X196700000Y-127300000D01*
X195550000Y-127950000D02*
X196050000Y-127950000D01*
X196000000Y-127100000D02*
X196700000Y-126400000D01*
X195550000Y-127100000D02*
X196000000Y-127100000D01*
X184100000Y-140800000D02*
X184700000Y-140200000D01*
X184700000Y-139300000D02*
X184700000Y-138400000D01*
X184700000Y-140200000D02*
X184700000Y-139300000D01*
X183550000Y-140800000D02*
X184100000Y-140800000D01*
X184050000Y-139950000D02*
X184700000Y-139300000D01*
X183550000Y-139950000D02*
X184050000Y-139950000D01*
X184000000Y-139100000D02*
X184700000Y-138400000D01*
X183550000Y-139100000D02*
X184000000Y-139100000D01*
X195550000Y-139100000D02*
X196000000Y-139100000D01*
X196000000Y-139100000D02*
X196700000Y-138400000D01*
X195550000Y-139950000D02*
X196050000Y-139950000D01*
X196050000Y-139950000D02*
X196700000Y-139300000D01*
X195550000Y-140800000D02*
X196100000Y-140800000D01*
X196700000Y-140200000D02*
X196700000Y-139300000D01*
X196700000Y-139300000D02*
X196700000Y-138400000D01*
X196100000Y-140800000D02*
X196700000Y-140200000D01*
D26*
X203000000Y-121500000D02*
X201500000Y-121500000D01*
X203675000Y-121500000D02*
X203000000Y-121500000D01*
X207700000Y-135700000D02*
X208900000Y-135700000D01*
X208500000Y-137700000D02*
X208500000Y-137500000D01*
X208500000Y-137500000D02*
X208500000Y-138400000D01*
D24*
X207900000Y-140800000D02*
X208500000Y-140200000D01*
X208500000Y-139300000D02*
X208500000Y-138400000D01*
X208500000Y-140200000D02*
X208500000Y-139300000D01*
X207350000Y-140800000D02*
X207900000Y-140800000D01*
X207850000Y-139950000D02*
X208500000Y-139300000D01*
X207350000Y-139950000D02*
X207850000Y-139950000D01*
X207800000Y-139100000D02*
X208500000Y-138400000D01*
X207350000Y-139100000D02*
X207800000Y-139100000D01*
X207350000Y-127100000D02*
X207800000Y-127100000D01*
X207800000Y-127100000D02*
X208500000Y-126400000D01*
X207350000Y-127950000D02*
X207850000Y-127950000D01*
X207850000Y-127950000D02*
X208500000Y-127300000D01*
X207350000Y-128800000D02*
X207900000Y-128800000D01*
X208500000Y-128200000D02*
X208500000Y-127300000D01*
X208500000Y-127300000D02*
X208500000Y-126400000D01*
X207900000Y-128800000D02*
X208500000Y-128200000D01*
D25*
G04 #@! TO.N,/B0*
X193200000Y-124100000D02*
X192200000Y-124100000D01*
X214275000Y-126725000D02*
X214300000Y-126700000D01*
X214300000Y-126700000D02*
X214300000Y-126300000D01*
X214300000Y-126300000D02*
X212100000Y-124100000D01*
X212100000Y-124100000D02*
X193200000Y-124100000D01*
X214275000Y-128175000D02*
X214275000Y-126725000D01*
X191400000Y-115100000D02*
X192650000Y-115100000D01*
X190800000Y-115700000D02*
X191400000Y-115100000D01*
X190800000Y-122700000D02*
X190800000Y-115700000D01*
X192200000Y-124100000D02*
X190800000Y-122700000D01*
G04 #@! TO.N,/R0*
X193200000Y-123300000D02*
X192800000Y-123300000D01*
X215275000Y-126075000D02*
X212470002Y-123270002D01*
X212470002Y-123270002D02*
X193200000Y-123300000D01*
X215275000Y-128175000D02*
X215275000Y-126075000D01*
X191750000Y-115950000D02*
X192650000Y-115950000D01*
X191400000Y-116300000D02*
X191750000Y-115950000D01*
X191400000Y-116600000D02*
X191400000Y-116300000D01*
X191800000Y-122300000D02*
X191800000Y-117900000D01*
X192800000Y-123300000D02*
X191800000Y-122300000D01*
G04 #@! TO.N,/G0*
X192650000Y-116800000D02*
X191900000Y-116800000D01*
X193200000Y-123729998D02*
X193200000Y-123700000D01*
X192529998Y-123729998D02*
X193200000Y-123729998D01*
X191300000Y-122500000D02*
X192529998Y-123729998D01*
X191300000Y-117400000D02*
X191300000Y-122500000D01*
X191900000Y-116800000D02*
X191300000Y-117400000D01*
X214775000Y-128175000D02*
X214775000Y-126175000D01*
X212300000Y-123700000D02*
X193200000Y-123700000D01*
X193200000Y-123700000D02*
X193200000Y-123700000D01*
X214775000Y-126175000D02*
X212300000Y-123700000D01*
G04 #@! TO.N,/B1*
X211550000Y-125550000D02*
X208950000Y-125550000D01*
X212275000Y-126275000D02*
X211550000Y-125550000D01*
X212275000Y-128175000D02*
X212275000Y-126275000D01*
D24*
X203400000Y-115100000D02*
X204650000Y-115100000D01*
X202300000Y-116200000D02*
X203400000Y-115100000D01*
X202300000Y-118900000D02*
X202300000Y-116200000D01*
D25*
X208950000Y-125550000D02*
X208000000Y-124600000D01*
G04 #@! TO.N,/R1*
X211900000Y-124600000D02*
X209400000Y-124600000D01*
X213275000Y-125975000D02*
X211900000Y-124600000D01*
X213275000Y-128175000D02*
X213275000Y-125975000D01*
D24*
X203750000Y-115950000D02*
X204650000Y-115950000D01*
X202900000Y-116800000D02*
X203750000Y-115950000D01*
X202900000Y-118100000D02*
X202900000Y-116800000D01*
D25*
G04 #@! TO.N,/G1*
X211700000Y-125100000D02*
X209200000Y-125100000D01*
D24*
X204000000Y-116800000D02*
X204650000Y-116800000D01*
X203700000Y-117100000D02*
X204000000Y-116800000D01*
X203700000Y-119600000D02*
X203700000Y-117100000D01*
D25*
X209200000Y-125100000D02*
X208700000Y-124600000D01*
X212775000Y-128175000D02*
X212775000Y-126175000D01*
X212775000Y-126175000D02*
X211700000Y-125100000D01*
X211700000Y-125100000D02*
X211800000Y-125200000D01*
G04 #@! TO.N,/B2*
X180650000Y-127100000D02*
X179400000Y-127100000D01*
X178700000Y-130300000D02*
X179400000Y-131000000D01*
X178700000Y-127800000D02*
X178700000Y-130300000D01*
X179400000Y-127100000D02*
X178700000Y-127800000D01*
X209900000Y-129325000D02*
X209775000Y-129325000D01*
X211125000Y-129325000D02*
X209900000Y-129325000D01*
X208100000Y-131000000D02*
X179400000Y-131000000D01*
X209775000Y-129325000D02*
X208100000Y-131000000D01*
G04 #@! TO.N,/R2*
X180099996Y-130098926D02*
X179998926Y-130098926D01*
X179300000Y-128400000D02*
X179750000Y-127950000D01*
X180650000Y-127950000D02*
X179750000Y-127950000D01*
X207900000Y-129800000D02*
X207700000Y-130000000D01*
X211775000Y-127575000D02*
X211600000Y-127400000D01*
X211600000Y-127400000D02*
X210300000Y-127400000D01*
X210300000Y-127400000D02*
X207900000Y-129800000D01*
X211775000Y-127575000D02*
X211775000Y-128175000D01*
X207700000Y-130000000D02*
X180099996Y-130098926D01*
X179998926Y-130098926D02*
X179700000Y-129800000D01*
G04 #@! TO.N,/G2*
X180200000Y-130500000D02*
X179600000Y-130500000D01*
X209575000Y-128825000D02*
X207900000Y-130500000D01*
X207900000Y-130500000D02*
X180200000Y-130500000D01*
X211125000Y-128825000D02*
X209600000Y-128825000D01*
X209600000Y-128825000D02*
X209575000Y-128825000D01*
X179700000Y-128800000D02*
X180650000Y-128800000D01*
X179200000Y-129300000D02*
X179700000Y-128800000D01*
X179200000Y-130100000D02*
X179200000Y-129300000D01*
X179600000Y-130500000D02*
X179200000Y-130100000D01*
G04 #@! TO.N,/B3*
X192650000Y-127100000D02*
X191200000Y-127100000D01*
X209675000Y-131325000D02*
X208500000Y-132500000D01*
X208500000Y-132500000D02*
X191600000Y-132500000D01*
X209675000Y-131325000D02*
X211125000Y-131325000D01*
X190700000Y-131600000D02*
X191600000Y-132500000D01*
X190700000Y-127600000D02*
X190700000Y-129400000D01*
X191200000Y-127100000D02*
X190700000Y-127600000D01*
G04 #@! TO.N,/R3*
X192200000Y-131500000D02*
X192000000Y-131500000D01*
X209375000Y-130325000D02*
X208200000Y-131500000D01*
X208200000Y-131500000D02*
X192200000Y-131500000D01*
X211125000Y-130325000D02*
X209375000Y-130325000D01*
X191950000Y-127950000D02*
X192650000Y-127950000D01*
X191900000Y-128000000D02*
X191950000Y-127950000D01*
G04 #@! TO.N,/G3*
X191900000Y-132000000D02*
X191800000Y-132000000D01*
X209475000Y-130825000D02*
X208300000Y-132000000D01*
X208300000Y-132000000D02*
X191900000Y-132000000D01*
X211125000Y-130825000D02*
X209475000Y-130825000D01*
X192000000Y-128800000D02*
X192650000Y-128800000D01*
X191300000Y-129500000D02*
X192000000Y-128800000D01*
X191800000Y-132000000D02*
X191300000Y-131500000D01*
G04 #@! TO.N,/B4*
X203300000Y-134000000D02*
X203200000Y-134000000D01*
X210275000Y-132825000D02*
X209100000Y-134000000D01*
X209100000Y-134000000D02*
X203300000Y-134000000D01*
X211125000Y-132825000D02*
X210275000Y-132825000D01*
X203200000Y-127100000D02*
X204650000Y-127100000D01*
X202400000Y-127900000D02*
X203200000Y-127100000D01*
X202400000Y-129200000D02*
X202400000Y-127900000D01*
X203200000Y-134000000D02*
X202500000Y-133300000D01*
G04 #@! TO.N,/R4*
X203600000Y-128200000D02*
X203600000Y-128100000D01*
X203750000Y-127950000D02*
X204650000Y-127950000D01*
X203600000Y-128100000D02*
X203750000Y-127950000D01*
X203650000Y-128250000D02*
X203600000Y-128200000D01*
X209875000Y-131825000D02*
X211125000Y-131825000D01*
X208700000Y-133000000D02*
X204500000Y-133000000D01*
X209875000Y-131825000D02*
X208700000Y-133000000D01*
X204500000Y-133000000D02*
X203900000Y-133000000D01*
G04 #@! TO.N,/G4*
X203500000Y-133500000D02*
X203200000Y-133200000D01*
X210075000Y-132325000D02*
X208900000Y-133500000D01*
X208900000Y-133500000D02*
X203500000Y-133500000D01*
X211125000Y-132325000D02*
X210075000Y-132325000D01*
X203700000Y-128800000D02*
X204650000Y-128800000D01*
X203100000Y-129400000D02*
X203700000Y-128800000D01*
G04 #@! TO.N,/B5*
X211775000Y-134975000D02*
X211775000Y-135625000D01*
X179400000Y-139100000D02*
X180650000Y-139100000D01*
X178700000Y-142300000D02*
X179400000Y-143000000D01*
X178700000Y-139800000D02*
X178700000Y-142300000D01*
X179400000Y-139100000D02*
X178700000Y-139800000D01*
X208100000Y-143000000D02*
X179400000Y-143000000D01*
X210951694Y-140049971D02*
X208100000Y-143000000D01*
X211100000Y-139901665D02*
X210951694Y-140049971D01*
X211100000Y-136300000D02*
X211100000Y-139901665D01*
X211775000Y-135625000D02*
X211100000Y-136300000D01*
X211775000Y-134975000D02*
X211775000Y-135325000D01*
G04 #@! TO.N,/R5*
X179998926Y-142098926D02*
X179700000Y-141800000D01*
X207700000Y-142000000D02*
X180099996Y-142098926D01*
X210200000Y-139500000D02*
X207900000Y-141800000D01*
X207900000Y-141800000D02*
X207700000Y-142000000D01*
X180650000Y-139950000D02*
X179750000Y-139950000D01*
X179300000Y-140400000D02*
X179750000Y-139950000D01*
X180099996Y-142098926D02*
X179998926Y-142098926D01*
X211125000Y-133825000D02*
X210775000Y-133825000D01*
X210775000Y-133825000D02*
X210200000Y-134400000D01*
X210200000Y-134400000D02*
X210200000Y-139500000D01*
G04 #@! TO.N,/G5*
X179600000Y-142500000D02*
X179200000Y-142100000D01*
X179200000Y-142100000D02*
X179200000Y-141300000D01*
X179200000Y-141300000D02*
X179700000Y-140800000D01*
X179700000Y-140800000D02*
X180650000Y-140800000D01*
X207900000Y-142500000D02*
X180200000Y-142500000D01*
X210600000Y-139800000D02*
X207900000Y-142500000D01*
X180200000Y-142500000D02*
X179600000Y-142500000D01*
X211125000Y-134325000D02*
X210975000Y-134325000D01*
X210975000Y-134325000D02*
X210600000Y-134700000D01*
X210600000Y-134700000D02*
X210600000Y-139800000D01*
G04 #@! TO.N,/B6*
X213275000Y-134975000D02*
X213275000Y-136325000D01*
X191200000Y-139100000D02*
X192650000Y-139100000D01*
X212300000Y-140800000D02*
X208500000Y-144500000D01*
X208500000Y-144500000D02*
X191600000Y-144500000D01*
X190700000Y-143600000D02*
X191600000Y-144500000D01*
X190700000Y-139600000D02*
X190700000Y-141400000D01*
X191200000Y-139100000D02*
X190700000Y-139600000D01*
X212600000Y-140500000D02*
X212300000Y-140800000D01*
X212600000Y-137000000D02*
X212600000Y-140500000D01*
X213275000Y-136325000D02*
X212600000Y-137000000D01*
G04 #@! TO.N,/R6*
X212275000Y-134975000D02*
X212299941Y-135997562D01*
X192200000Y-143500000D02*
X192000000Y-143500000D01*
X209375000Y-142325000D02*
X208200000Y-143500000D01*
X208200000Y-143500000D02*
X192200000Y-143500000D01*
X191950000Y-139950000D02*
X192650000Y-139950000D01*
X191900000Y-140000000D02*
X191950000Y-139950000D01*
X211600000Y-140100000D02*
X209375000Y-142325000D01*
X211600000Y-136600000D02*
X211600000Y-140100000D01*
X212299941Y-135997562D02*
X211600000Y-136600000D01*
G04 #@! TO.N,/G6*
X212100000Y-140200000D02*
X212000000Y-140300000D01*
X191900000Y-144000000D02*
X191800000Y-144000000D01*
X212000000Y-140300000D02*
X208300000Y-144000000D01*
X208300000Y-144000000D02*
X191900000Y-144000000D01*
X192650000Y-140800000D02*
X192000000Y-140800000D01*
X191300000Y-141500000D02*
X192000000Y-140800000D01*
X191800000Y-144000000D02*
X191300000Y-143500000D01*
X212775000Y-136125000D02*
X212100000Y-136800000D01*
X212100000Y-136800000D02*
X212100000Y-140200000D01*
X212775000Y-136125000D02*
X212775000Y-134975000D01*
G04 #@! TO.N,/B7*
X209200000Y-146000000D02*
X209400000Y-146000000D01*
X203200000Y-146000000D02*
X202500000Y-145300000D01*
X202400000Y-141200000D02*
X202400000Y-139900000D01*
X202400000Y-139900000D02*
X203200000Y-139100000D01*
X204650000Y-139100000D02*
X203200000Y-139100000D01*
X209100000Y-146000000D02*
X203300000Y-146000000D01*
X203300000Y-146000000D02*
X203200000Y-146000000D01*
X209100000Y-146000000D02*
X209200000Y-146000000D01*
X215275000Y-136525000D02*
X215275000Y-134975000D01*
X214100000Y-137700000D02*
X215275000Y-136525000D01*
X214100000Y-141300000D02*
X214100000Y-137700000D01*
X209400000Y-146000000D02*
X214100000Y-141300000D01*
G04 #@! TO.N,/R7*
X212800000Y-141100000D02*
X213100000Y-140800000D01*
X204500000Y-145000000D02*
X203900000Y-145000000D01*
X212800000Y-141100000D02*
X208700000Y-145000000D01*
X208700000Y-145000000D02*
X204500000Y-145000000D01*
X203950000Y-139950000D02*
X203900000Y-139900000D01*
X204650000Y-139950000D02*
X203950000Y-139950000D01*
X214275000Y-136125000D02*
X214275000Y-134975000D01*
X213100000Y-137300000D02*
X214275000Y-136125000D01*
X213100000Y-140800000D02*
X213100000Y-137300000D01*
G04 #@! TO.N,/G7*
X214775000Y-134975000D02*
X214775000Y-136325000D01*
X203500000Y-145500000D02*
X203200000Y-145200000D01*
X213100000Y-141500000D02*
X208900000Y-145500000D01*
X208900000Y-145500000D02*
X203500000Y-145500000D01*
X203700000Y-140800000D02*
X204650000Y-140800000D01*
X203100000Y-141400000D02*
X203700000Y-140800000D01*
X213600000Y-141000000D02*
X213100000Y-141500000D01*
X213600000Y-137500000D02*
X213600000Y-141000000D01*
X214775000Y-136325000D02*
X213600000Y-137500000D01*
G04 #@! TO.N,/SDI*
X222300000Y-129500000D02*
X222300000Y-125700000D01*
X222300000Y-131100000D02*
X222300000Y-129500000D01*
X220100000Y-133300000D02*
X222300000Y-131100000D01*
X219000000Y-133300000D02*
X220100000Y-133300000D01*
X218475000Y-133825000D02*
X219000000Y-133300000D01*
X217925000Y-133825000D02*
X218475000Y-133825000D01*
X221700000Y-125100000D02*
X221700000Y-123900000D01*
X222300000Y-125700000D02*
X221700000Y-125100000D01*
G04 #@! TO.N,/SDO*
X216275000Y-128175000D02*
X216275000Y-123025000D01*
X218300000Y-122000000D02*
X218500000Y-122000000D01*
X218100000Y-122200000D02*
X218300000Y-122000000D01*
X218100000Y-124700000D02*
X218100000Y-122200000D01*
X217800000Y-125000000D02*
X218100000Y-124700000D01*
X217600000Y-125000000D02*
X217800000Y-125000000D01*
X217300000Y-124700000D02*
X217600000Y-125000000D01*
X217300000Y-123000000D02*
X217300000Y-124700000D01*
X217000000Y-122700000D02*
X217300000Y-123000000D01*
X216600000Y-122700000D02*
X217000000Y-122700000D01*
X216275000Y-123025000D02*
X216600000Y-122700000D01*
G04 #@! TO.N,/CLK*
X218900000Y-125800000D02*
X218300000Y-125200000D01*
X221300000Y-126400000D02*
X221300000Y-126300000D01*
X221300000Y-126300000D02*
X220800000Y-125800000D01*
X220800000Y-125800000D02*
X218900000Y-125800000D01*
X217925000Y-132325000D02*
X219675000Y-132325000D01*
X219675000Y-132325000D02*
X221300000Y-130700000D01*
X221300000Y-130700000D02*
X221300000Y-129500000D01*
X221300000Y-129500000D02*
X221300000Y-126400000D01*
G04 #@! TO.N,/MC*
X196100000Y-122900000D02*
X193100000Y-122900000D01*
X196100000Y-122900000D02*
X214200000Y-122900000D01*
X214300000Y-122800000D02*
X214200000Y-122900000D01*
X190200000Y-120500000D02*
X182950000Y-120500000D01*
X193100000Y-122900000D02*
X193000000Y-122800000D01*
G04 #@! TO.N,/OE*
X218600000Y-140200000D02*
X218500000Y-140200000D01*
X170600000Y-123400000D02*
X171200000Y-123400000D01*
X170100000Y-123900000D02*
X170600000Y-123400000D01*
X170100000Y-135000000D02*
X170100000Y-123900000D01*
X178700000Y-143600000D02*
X170100000Y-135000000D01*
X179200000Y-143600000D02*
X178700000Y-143600000D01*
X189800000Y-143600000D02*
X179200000Y-143600000D01*
X191400000Y-145200000D02*
X189800000Y-143600000D01*
X201400000Y-145200000D02*
X191400000Y-145200000D01*
X202800000Y-146600000D02*
X201400000Y-145200000D01*
X209600000Y-146600000D02*
X202800000Y-146600000D01*
X214300000Y-141900000D02*
X209600000Y-146600000D01*
X216800000Y-141900000D02*
X214300000Y-141900000D01*
X218500000Y-140200000D02*
X216800000Y-141900000D01*
X219275000Y-131325000D02*
X219300000Y-131300000D01*
X219075000Y-131325000D02*
X219275000Y-131325000D01*
X219600000Y-141200000D02*
X220350000Y-141200000D01*
X218600000Y-140200000D02*
X219600000Y-141200000D01*
X217925000Y-131325000D02*
X219075000Y-131325000D01*
X171200000Y-123400000D02*
X173800000Y-123400000D01*
X173800000Y-123400000D02*
X173900000Y-123500000D01*
G04 #@! TO.N,/EN*
X209700000Y-115400000D02*
X209700000Y-116700000D01*
X213400000Y-119400000D02*
X212900000Y-118900000D01*
X212900000Y-118900000D02*
X212400000Y-118900000D01*
X209700000Y-115400000D02*
X209700000Y-115200000D01*
X209700000Y-115200000D02*
X210200000Y-114700000D01*
X210750000Y-114700000D02*
X210200000Y-114700000D01*
X213400000Y-119400000D02*
X213400000Y-119850000D01*
X171400000Y-120600000D02*
X171400000Y-122800000D01*
X177300000Y-114700000D02*
X171400000Y-120600000D01*
X183900000Y-114700000D02*
X177300000Y-114700000D01*
X206700000Y-112800000D02*
X185800000Y-112800000D01*
X185800000Y-112800000D02*
X183900000Y-114700000D01*
G04 #@! TO.N,Net-(R2-Pad2)*
X216298889Y-136001136D02*
X216400084Y-136100084D01*
X219000000Y-138400000D02*
X220350000Y-138400000D01*
X218700000Y-138400000D02*
X219000000Y-138400000D01*
X216400084Y-136100084D02*
X218700000Y-138400000D01*
X216275000Y-134975000D02*
X216298889Y-136001136D01*
D24*
G04 #@! TO.N,/VCC*
X224100000Y-135700000D02*
X225100000Y-135700000D01*
X223500000Y-122300000D02*
X224800000Y-122300000D01*
X223500000Y-130100000D02*
X224600000Y-130100000D01*
D25*
X213900000Y-116100000D02*
X213650000Y-115850000D01*
X213650000Y-114700000D02*
X213650000Y-115850000D01*
X214100000Y-118700000D02*
X215500000Y-118700000D01*
X215500000Y-118700000D02*
X215600000Y-118700000D01*
X217925000Y-129825000D02*
X218775000Y-129825000D01*
X218775000Y-129825000D02*
X219300000Y-129300000D01*
X219300000Y-129300000D02*
X219800000Y-129300000D01*
D24*
X222500000Y-132600000D02*
X223800000Y-133900000D01*
X224100000Y-134200000D02*
X224100000Y-135700000D01*
X223800000Y-133900000D02*
X224100000Y-134200000D01*
D26*
X221400000Y-119500000D02*
X223500000Y-121600000D01*
X223500000Y-121600000D02*
X223500000Y-122300000D01*
X223500000Y-122300000D02*
X223500000Y-130100000D01*
X223500000Y-130100000D02*
X223500000Y-131400000D01*
X217300000Y-119500000D02*
X221400000Y-119500000D01*
D24*
X219800000Y-130100000D02*
X219800000Y-129300000D01*
X220100000Y-130400000D02*
X219800000Y-130100000D01*
D26*
X223500000Y-131600000D02*
X223500000Y-131400000D01*
X222500000Y-132600000D02*
X223500000Y-131600000D01*
D24*
X224100000Y-136200000D02*
X224100000Y-135700000D01*
X224100000Y-136200000D02*
X224100000Y-138400000D01*
X223250000Y-135700000D02*
X224100000Y-135700000D01*
X224100000Y-138800000D02*
X224100000Y-138400000D01*
X223250000Y-138400000D02*
X224100000Y-138400000D01*
X224100000Y-141200000D02*
X223250000Y-141200000D01*
X224100000Y-138800000D02*
X224100000Y-141200000D01*
D26*
X218700000Y-118100000D02*
X218700000Y-118900000D01*
X218100000Y-119500000D02*
X217300000Y-119500000D01*
X218700000Y-118900000D02*
X218100000Y-119500000D01*
X213450000Y-121700000D02*
X214700000Y-121700000D01*
X214700000Y-121700000D02*
X214700000Y-119000000D01*
X214700000Y-119000000D02*
X215000000Y-118700000D01*
X215000000Y-118700000D02*
X215500000Y-118700000D01*
X215500000Y-118700000D02*
X215600000Y-118700000D01*
X215600000Y-118700000D02*
X216000000Y-118700000D01*
X213450000Y-121700000D02*
X213400000Y-121750000D01*
D25*
X216000000Y-118700000D02*
X216000000Y-119300000D01*
D26*
X216000000Y-118700000D02*
X216600000Y-118700000D01*
X216600000Y-118700000D02*
X217300000Y-119500000D01*
D25*
G04 #@! TO.N,/GND*
X217925000Y-128825000D02*
X218475000Y-128825000D01*
X218475000Y-128825000D02*
X218725000Y-129075000D01*
X217925000Y-129325000D02*
X218475000Y-129325000D01*
X218725000Y-129075000D02*
X218675000Y-129125000D01*
X218475000Y-129325000D02*
X218725000Y-129075000D01*
X221400000Y-121000000D02*
X220600000Y-121000000D01*
X221600000Y-120800000D02*
X221400000Y-121000000D01*
X219800000Y-127300000D02*
X220800000Y-127300000D01*
X220800000Y-127300000D02*
X220700000Y-127300000D01*
X220700000Y-127300000D02*
X220800000Y-127300000D01*
X219800000Y-127300000D02*
X219800000Y-126500000D01*
X219800000Y-126500000D02*
X219800000Y-126300000D01*
X220800000Y-125300000D02*
X220800000Y-124700000D01*
D24*
X221700000Y-123100000D02*
X221400000Y-122800000D01*
D25*
X222200000Y-123700000D02*
X222200000Y-123600000D01*
X222800000Y-125500000D02*
X222200000Y-124900000D01*
X222200000Y-124900000D02*
X222200000Y-123700000D01*
X218725000Y-134325000D02*
X218775000Y-134325000D01*
X218775000Y-134325000D02*
X219300000Y-133800000D01*
X219300000Y-133800000D02*
X220300000Y-133800000D01*
X220300000Y-133800000D02*
X222800000Y-131300000D01*
X222800000Y-131300000D02*
X222800000Y-129500000D01*
X222800000Y-129500000D02*
X222800000Y-125500000D01*
X222200000Y-123600000D02*
X221700000Y-123100000D01*
X217925000Y-134325000D02*
X218725000Y-134325000D01*
D24*
X221400000Y-122800000D02*
X220700000Y-122800000D01*
D26*
X217800000Y-120500000D02*
X217800000Y-120600000D01*
X217100000Y-121300000D02*
X216000000Y-121300000D01*
X217800000Y-120600000D02*
X217100000Y-121300000D01*
X217800000Y-120500000D02*
X219200000Y-120500000D01*
D24*
X219200000Y-124600000D02*
X219200000Y-125300000D01*
D25*
X221800000Y-129500000D02*
X221800000Y-126000000D01*
X221800000Y-130900000D02*
X221800000Y-129500000D01*
X219875000Y-132825000D02*
X221800000Y-130900000D01*
X219875000Y-132825000D02*
X218725000Y-132825000D01*
X221100000Y-125300000D02*
X220800000Y-125300000D01*
X220800000Y-125300000D02*
X219200000Y-125300000D01*
X221800000Y-126000000D02*
X221100000Y-125300000D01*
D26*
X198500000Y-121500000D02*
X197500000Y-121500000D01*
X213700000Y-117400000D02*
X214500000Y-117400000D01*
X218700000Y-114400000D02*
X218400000Y-114100000D01*
X218400000Y-114100000D02*
X218300000Y-114100000D01*
X218700000Y-114400000D02*
X218700000Y-115100000D01*
X219800000Y-127300000D02*
X217400000Y-127300000D01*
D25*
X217275000Y-127425000D02*
X217300000Y-127400000D01*
X217275000Y-127425000D02*
X217275000Y-128175000D01*
D26*
X217400000Y-127300000D02*
X217300000Y-127400000D01*
D25*
X211125000Y-129825000D02*
X210225000Y-129825000D01*
X210225000Y-129825000D02*
X210200000Y-129800000D01*
D24*
X211700000Y-111800000D02*
X212700000Y-111800000D01*
X212700000Y-111800000D02*
X212750000Y-111750000D01*
D25*
X217275000Y-134975000D02*
X217275000Y-135625000D01*
X216775000Y-135675000D02*
X217000000Y-135900000D01*
X216775000Y-135675000D02*
X216775000Y-134975000D01*
X217275000Y-135625000D02*
X217000000Y-135900000D01*
X215775000Y-134975000D02*
X215775000Y-135875000D01*
X215775000Y-135875000D02*
X215800000Y-135900000D01*
D26*
X204700000Y-135700000D02*
X203600000Y-135700000D01*
D25*
X217925000Y-130325000D02*
X218675000Y-130325000D01*
X218675000Y-130325000D02*
X218700000Y-130300000D01*
X213775000Y-134975000D02*
X213775000Y-135875000D01*
X213775000Y-135875000D02*
X213800000Y-135900000D01*
X215700000Y-123600000D02*
X215400000Y-123300000D01*
X215400000Y-123300000D02*
X215400000Y-123100000D01*
X215400000Y-123100000D02*
X215300000Y-123000000D01*
D26*
X216000000Y-122300000D02*
X216000000Y-121300000D01*
X216000000Y-122300000D02*
X215300000Y-123000000D01*
D25*
X215775000Y-128175000D02*
X215775000Y-123675000D01*
X215775000Y-123675000D02*
X215700000Y-123600000D01*
X220800000Y-126500000D02*
X220600000Y-126300000D01*
X220600000Y-126300000D02*
X219800000Y-126300000D01*
X220800000Y-127300000D02*
X220800000Y-126500000D01*
X218725000Y-131825000D02*
X219475000Y-131825000D01*
X219475000Y-131825000D02*
X220800000Y-130500000D01*
X220800000Y-130500000D02*
X220800000Y-129500000D01*
X220800000Y-129500000D02*
X220800000Y-127300000D01*
X217925000Y-131825000D02*
X218725000Y-131825000D01*
X219800000Y-126300000D02*
X218500000Y-126300000D01*
X218400000Y-126200000D02*
X218500000Y-126300000D01*
X213775000Y-128175000D02*
X213775000Y-126925000D01*
X213775000Y-126925000D02*
X213800000Y-126900000D01*
X211125000Y-133325000D02*
X210575000Y-133325000D01*
X210575000Y-133325000D02*
X210400000Y-133500000D01*
D26*
X213400000Y-120800000D02*
X214049998Y-120800000D01*
D25*
X216775000Y-128175000D02*
X216775000Y-123425000D01*
X216775000Y-123425000D02*
X216800000Y-123400000D01*
X217925000Y-133325000D02*
X218225000Y-133325000D01*
X218225000Y-133325000D02*
X218725000Y-132825000D01*
X217925000Y-132825000D02*
X218725000Y-132825000D01*
D26*
G04 #@! TO.N,Net-(C6-Pad2)*
X211200000Y-119850000D02*
X210450000Y-119850000D01*
X209900000Y-117400000D02*
X210700000Y-117400000D01*
X209600000Y-117700000D02*
X209900000Y-117400000D01*
X209600000Y-118600000D02*
X209600000Y-117700000D01*
X210200000Y-119200000D02*
X209600000Y-118600000D01*
X210200000Y-119600000D02*
X210200000Y-119200000D01*
X210450000Y-119850000D02*
X210200000Y-119600000D01*
G04 #@! TD*
D25*
G04 #@! TO.N,/GND*
G36*
X220890000Y-123717976D02*
X220882000Y-123737290D01*
X220882000Y-124062710D01*
X220890000Y-124082024D01*
X220890000Y-124690000D01*
X219010000Y-124690000D01*
X219010000Y-122646827D01*
X219193467Y-122463360D01*
X219318000Y-122162710D01*
X219318000Y-121837290D01*
X219193467Y-121536640D01*
X219010000Y-121353173D01*
X219010000Y-120368000D01*
X220890000Y-120368000D01*
X220890000Y-123717976D01*
X220890000Y-123717976D01*
G37*
X220890000Y-123717976D02*
X220882000Y-123737290D01*
X220882000Y-124062710D01*
X220890000Y-124082024D01*
X220890000Y-124690000D01*
X219010000Y-124690000D01*
X219010000Y-122646827D01*
X219193467Y-122463360D01*
X219318000Y-122162710D01*
X219318000Y-121837290D01*
X219193467Y-121536640D01*
X219010000Y-121353173D01*
X219010000Y-120368000D01*
X220890000Y-120368000D01*
X220890000Y-123717976D01*
D27*
G04 #@! TO.N,/LED_Power*
G36*
X201084259Y-133180852D02*
X201219148Y-133315741D01*
X201273000Y-133516721D01*
X201273000Y-136283279D01*
X201219148Y-136484259D01*
X201084259Y-136619148D01*
X200883279Y-136673000D01*
X176116721Y-136673000D01*
X175915741Y-136619148D01*
X175780852Y-136484259D01*
X175727000Y-136283279D01*
X175727000Y-133516721D01*
X175780852Y-133315741D01*
X175915741Y-133180852D01*
X176116721Y-133127000D01*
X200883279Y-133127000D01*
X201084259Y-133180852D01*
X201084259Y-133180852D01*
G37*
X201084259Y-133180852D02*
X201219148Y-133315741D01*
X201273000Y-133516721D01*
X201273000Y-136283279D01*
X201219148Y-136484259D01*
X201084259Y-136619148D01*
X200883279Y-136673000D01*
X176116721Y-136673000D01*
X175915741Y-136619148D01*
X175780852Y-136484259D01*
X175727000Y-136283279D01*
X175727000Y-133516721D01*
X175780852Y-133315741D01*
X175915741Y-133180852D01*
X176116721Y-133127000D01*
X200883279Y-133127000D01*
X201084259Y-133180852D01*
G36*
X189684259Y-121980852D02*
X189819148Y-122115741D01*
X189873000Y-122316721D01*
X189873000Y-124483279D01*
X189819148Y-124684259D01*
X189684259Y-124819148D01*
X189483279Y-124873000D01*
X176716721Y-124873000D01*
X176515741Y-124819148D01*
X176380852Y-124684259D01*
X176327000Y-124483279D01*
X176327000Y-122316721D01*
X176380852Y-122115741D01*
X176515741Y-121980852D01*
X176716721Y-121927000D01*
X189483279Y-121927000D01*
X189684259Y-121980852D01*
X189684259Y-121980852D01*
G37*
X189684259Y-121980852D02*
X189819148Y-122115741D01*
X189873000Y-122316721D01*
X189873000Y-124483279D01*
X189819148Y-124684259D01*
X189684259Y-124819148D01*
X189483279Y-124873000D01*
X176716721Y-124873000D01*
X176515741Y-124819148D01*
X176380852Y-124684259D01*
X176327000Y-124483279D01*
X176327000Y-122316721D01*
X176380852Y-122115741D01*
X176515741Y-121980852D01*
X176716721Y-121927000D01*
X189483279Y-121927000D01*
X189684259Y-121980852D01*
G36*
X201484259Y-114780852D02*
X201619148Y-114915741D01*
X201673000Y-115116721D01*
X201673000Y-119483279D01*
X201619148Y-119684259D01*
X201484259Y-119819148D01*
X201283279Y-119873000D01*
X197916721Y-119873000D01*
X197715741Y-119819148D01*
X197580852Y-119684259D01*
X197527000Y-119483279D01*
X197527000Y-115116721D01*
X197580852Y-114915741D01*
X197715741Y-114780852D01*
X197916721Y-114727000D01*
X201283279Y-114727000D01*
X201484259Y-114780852D01*
X201484259Y-114780852D01*
G37*
X201484259Y-114780852D02*
X201619148Y-114915741D01*
X201673000Y-115116721D01*
X201673000Y-119483279D01*
X201619148Y-119684259D01*
X201484259Y-119819148D01*
X201283279Y-119873000D01*
X197916721Y-119873000D01*
X197715741Y-119819148D01*
X197580852Y-119684259D01*
X197527000Y-119483279D01*
X197527000Y-115116721D01*
X197580852Y-114915741D01*
X197715741Y-114780852D01*
X197916721Y-114727000D01*
X201283279Y-114727000D01*
X201484259Y-114780852D01*
G36*
X189984259Y-114180852D02*
X190119148Y-114315741D01*
X190173000Y-114516721D01*
X190173000Y-119283279D01*
X190119148Y-119484259D01*
X189984259Y-119619148D01*
X189783279Y-119673000D01*
X185316721Y-119673000D01*
X185115741Y-119619148D01*
X184980852Y-119484259D01*
X184927000Y-119283279D01*
X184927000Y-116632370D01*
X185054112Y-116325494D01*
X187125494Y-114254112D01*
X187432370Y-114127000D01*
X189783279Y-114127000D01*
X189984259Y-114180852D01*
X189984259Y-114180852D01*
G37*
X189984259Y-114180852D02*
X190119148Y-114315741D01*
X190173000Y-114516721D01*
X190173000Y-119283279D01*
X190119148Y-119484259D01*
X189984259Y-119619148D01*
X189783279Y-119673000D01*
X185316721Y-119673000D01*
X185115741Y-119619148D01*
X184980852Y-119484259D01*
X184927000Y-119283279D01*
X184927000Y-116632370D01*
X185054112Y-116325494D01*
X187125494Y-114254112D01*
X187432370Y-114127000D01*
X189783279Y-114127000D01*
X189984259Y-114180852D01*
G04 #@! TO.N,/VCC*
G36*
X227784259Y-114180852D02*
X227919148Y-114315741D01*
X227973000Y-114516721D01*
X227973000Y-141483279D01*
X227919148Y-141684259D01*
X227784259Y-141819148D01*
X227583279Y-141873000D01*
X225116721Y-141873000D01*
X224915741Y-141819148D01*
X224780852Y-141684259D01*
X224727000Y-141483279D01*
X224727000Y-132381025D01*
X224719415Y-132337791D01*
X224603526Y-132017699D01*
X224581675Y-131979630D01*
X224327719Y-131674883D01*
X224227000Y-131396691D01*
X224227000Y-121407107D01*
X224217333Y-121358506D01*
X224070886Y-121004952D01*
X224043356Y-120963750D01*
X221536250Y-118456644D01*
X221495048Y-118429114D01*
X221141494Y-118282667D01*
X221092893Y-118273000D01*
X220416721Y-118273000D01*
X220215741Y-118219148D01*
X220080852Y-118084259D01*
X220027000Y-117883279D01*
X220027000Y-114516721D01*
X220080852Y-114315741D01*
X220215741Y-114180852D01*
X220416721Y-114127000D01*
X227583279Y-114127000D01*
X227784259Y-114180852D01*
X227784259Y-114180852D01*
G37*
X227784259Y-114180852D02*
X227919148Y-114315741D01*
X227973000Y-114516721D01*
X227973000Y-141483279D01*
X227919148Y-141684259D01*
X227784259Y-141819148D01*
X227583279Y-141873000D01*
X225116721Y-141873000D01*
X224915741Y-141819148D01*
X224780852Y-141684259D01*
X224727000Y-141483279D01*
X224727000Y-132381025D01*
X224719415Y-132337791D01*
X224603526Y-132017699D01*
X224581675Y-131979630D01*
X224327719Y-131674883D01*
X224227000Y-131396691D01*
X224227000Y-121407107D01*
X224217333Y-121358506D01*
X224070886Y-121004952D01*
X224043356Y-120963750D01*
X221536250Y-118456644D01*
X221495048Y-118429114D01*
X221141494Y-118282667D01*
X221092893Y-118273000D01*
X220416721Y-118273000D01*
X220215741Y-118219148D01*
X220080852Y-118084259D01*
X220027000Y-117883279D01*
X220027000Y-114516721D01*
X220080852Y-114315741D01*
X220215741Y-114180852D01*
X220416721Y-114127000D01*
X227583279Y-114127000D01*
X227784259Y-114180852D01*
G04 #@! TD*
M02*
