G04 #@! TF.GenerationSoftware,KiCad,Pcbnew,(5.1.4)-1*
G04 #@! TF.CreationDate,2020-02-23T17:45:57-05:00*
G04 #@! TF.ProjectId,Dash_Warning_Panel,44617368-5f57-4617-926e-696e675f5061,rev?*
G04 #@! TF.SameCoordinates,Original*
G04 #@! TF.FileFunction,Soldermask,Top*
G04 #@! TF.FilePolarity,Negative*
%FSLAX46Y46*%
G04 Gerber Fmt 4.6, Leading zero omitted, Abs format (unit mm)*
G04 Created by KiCad (PCBNEW (5.1.4)-1) date 2020-02-23 17:45:57*
%MOMM*%
%LPD*%
G04 APERTURE LIST*
%ADD10C,0.100000*%
G04 APERTURE END LIST*
D10*
G36*
X216335675Y-138893424D02*
G01*
X216422425Y-138929357D01*
X216545108Y-138980174D01*
X216733592Y-139106115D01*
X216893885Y-139266408D01*
X217019826Y-139454892D01*
X217070643Y-139577575D01*
X217106576Y-139664325D01*
X217150800Y-139886655D01*
X217150800Y-140113345D01*
X217106576Y-140335675D01*
X217070643Y-140422425D01*
X217019826Y-140545108D01*
X216893885Y-140733592D01*
X216733592Y-140893885D01*
X216545108Y-141019826D01*
X216422425Y-141070643D01*
X216335675Y-141106576D01*
X216113345Y-141150800D01*
X215886655Y-141150800D01*
X215664325Y-141106576D01*
X215577575Y-141070643D01*
X215454892Y-141019826D01*
X215266408Y-140893885D01*
X215106115Y-140733592D01*
X214980174Y-140545108D01*
X214929357Y-140422425D01*
X214893424Y-140335675D01*
X214849200Y-140113345D01*
X214849200Y-139886655D01*
X214893424Y-139664325D01*
X214929357Y-139577575D01*
X214980174Y-139454892D01*
X215106115Y-139266408D01*
X215266408Y-139106115D01*
X215454892Y-138980174D01*
X215577575Y-138929357D01*
X215664325Y-138893424D01*
X215886655Y-138849200D01*
X216113345Y-138849200D01*
X216335675Y-138893424D01*
X216335675Y-138893424D01*
G37*
G36*
X172335675Y-138893424D02*
G01*
X172422425Y-138929357D01*
X172545108Y-138980174D01*
X172733592Y-139106115D01*
X172893885Y-139266408D01*
X173019826Y-139454892D01*
X173070643Y-139577575D01*
X173106576Y-139664325D01*
X173150800Y-139886655D01*
X173150800Y-140113345D01*
X173106576Y-140335675D01*
X173070643Y-140422425D01*
X173019826Y-140545108D01*
X172893885Y-140733592D01*
X172733592Y-140893885D01*
X172545108Y-141019826D01*
X172422425Y-141070643D01*
X172335675Y-141106576D01*
X172113345Y-141150800D01*
X171886655Y-141150800D01*
X171664325Y-141106576D01*
X171577575Y-141070643D01*
X171454892Y-141019826D01*
X171266408Y-140893885D01*
X171106115Y-140733592D01*
X170980174Y-140545108D01*
X170929357Y-140422425D01*
X170893424Y-140335675D01*
X170849200Y-140113345D01*
X170849200Y-139886655D01*
X170893424Y-139664325D01*
X170929357Y-139577575D01*
X170980174Y-139454892D01*
X171106115Y-139266408D01*
X171266408Y-139106115D01*
X171454892Y-138980174D01*
X171577575Y-138929357D01*
X171664325Y-138893424D01*
X171886655Y-138849200D01*
X172113345Y-138849200D01*
X172335675Y-138893424D01*
X172335675Y-138893424D01*
G37*
G36*
X179300800Y-138930800D02*
G01*
X178699200Y-138930800D01*
X178699200Y-137929200D01*
X179300800Y-137929200D01*
X179300800Y-138930800D01*
X179300800Y-138930800D01*
G37*
G36*
X180800800Y-138930800D02*
G01*
X180199200Y-138930800D01*
X180199200Y-137929200D01*
X180800800Y-137929200D01*
X180800800Y-138930800D01*
X180800800Y-138930800D01*
G37*
G36*
X191050800Y-138750800D02*
G01*
X190449200Y-138750800D01*
X190449200Y-137749200D01*
X191050800Y-137749200D01*
X191050800Y-138750800D01*
X191050800Y-138750800D01*
G37*
G36*
X189550800Y-138750800D02*
G01*
X188949200Y-138750800D01*
X188949200Y-137749200D01*
X189550800Y-137749200D01*
X189550800Y-138750800D01*
X189550800Y-138750800D01*
G37*
G36*
X198800800Y-138750800D02*
G01*
X198199200Y-138750800D01*
X198199200Y-137749200D01*
X198800800Y-137749200D01*
X198800800Y-138750800D01*
X198800800Y-138750800D01*
G37*
G36*
X200300800Y-138750800D02*
G01*
X199699200Y-138750800D01*
X199699200Y-137749200D01*
X200300800Y-137749200D01*
X200300800Y-138750800D01*
X200300800Y-138750800D01*
G37*
G36*
X183820800Y-138730800D02*
G01*
X181679200Y-138730800D01*
X181679200Y-138129200D01*
X183820800Y-138129200D01*
X183820800Y-138730800D01*
X183820800Y-138730800D01*
G37*
G36*
X207200800Y-138675800D02*
G01*
X206299200Y-138675800D01*
X206299200Y-137824200D01*
X207200800Y-137824200D01*
X207200800Y-138675800D01*
X207200800Y-138675800D01*
G37*
G36*
X205700800Y-138675800D02*
G01*
X204799200Y-138675800D01*
X204799200Y-137824200D01*
X205700800Y-137824200D01*
X205700800Y-138675800D01*
X205700800Y-138675800D01*
G37*
G36*
X203505800Y-138550800D02*
G01*
X201364200Y-138550800D01*
X201364200Y-137949200D01*
X203505800Y-137949200D01*
X203505800Y-138550800D01*
X203505800Y-138550800D01*
G37*
G36*
X193980800Y-138550800D02*
G01*
X191839200Y-138550800D01*
X191839200Y-137949200D01*
X193980800Y-137949200D01*
X193980800Y-138550800D01*
X193980800Y-138550800D01*
G37*
G36*
X220850800Y-138050800D02*
G01*
X218149200Y-138050800D01*
X218149200Y-135949200D01*
X220850800Y-135949200D01*
X220850800Y-138050800D01*
X220850800Y-138050800D01*
G37*
G36*
X222675800Y-136950800D02*
G01*
X221824200Y-136950800D01*
X221824200Y-136049200D01*
X222675800Y-136049200D01*
X222675800Y-136950800D01*
X222675800Y-136950800D01*
G37*
G36*
X220005991Y-133424404D02*
G01*
X220204072Y-133484491D01*
X220386617Y-133582064D01*
X220546623Y-133713377D01*
X220677936Y-133873383D01*
X220775509Y-134055928D01*
X220835596Y-134254009D01*
X220855884Y-134460000D01*
X220835596Y-134665991D01*
X220775509Y-134864072D01*
X220677936Y-135046617D01*
X220546623Y-135206623D01*
X220386617Y-135337936D01*
X220204072Y-135435509D01*
X220005991Y-135495596D01*
X219851621Y-135510800D01*
X219148379Y-135510800D01*
X218994009Y-135495596D01*
X218795928Y-135435509D01*
X218613383Y-135337936D01*
X218453377Y-135206623D01*
X218322064Y-135046617D01*
X218224491Y-134864072D01*
X218164404Y-134665991D01*
X218144116Y-134460000D01*
X218164404Y-134254009D01*
X218224491Y-134055928D01*
X218322064Y-133873383D01*
X218453377Y-133713377D01*
X218613383Y-133582064D01*
X218795928Y-133484491D01*
X218994009Y-133424404D01*
X219148379Y-133409200D01*
X219851621Y-133409200D01*
X220005991Y-133424404D01*
X220005991Y-133424404D01*
G37*
G36*
X222675800Y-135450800D02*
G01*
X221824200Y-135450800D01*
X221824200Y-134549200D01*
X222675800Y-134549200D01*
X222675800Y-135450800D01*
X222675800Y-135450800D01*
G37*
G36*
X190062123Y-133310170D02*
G01*
X190185110Y-133361113D01*
X190295796Y-133435071D01*
X190389929Y-133529204D01*
X190463887Y-133639890D01*
X190514830Y-133762877D01*
X190540800Y-133893438D01*
X190540800Y-134026562D01*
X190514830Y-134157123D01*
X190463887Y-134280110D01*
X190389929Y-134390796D01*
X190295796Y-134484929D01*
X190185110Y-134558887D01*
X190062123Y-134609830D01*
X189931562Y-134635800D01*
X189798438Y-134635800D01*
X189667877Y-134609830D01*
X189544890Y-134558887D01*
X189434204Y-134484929D01*
X189340071Y-134390796D01*
X189266113Y-134280110D01*
X189215170Y-134157123D01*
X189189200Y-134026562D01*
X189189200Y-133893438D01*
X189215170Y-133762877D01*
X189266113Y-133639890D01*
X189340071Y-133529204D01*
X189434204Y-133435071D01*
X189544890Y-133361113D01*
X189667877Y-133310170D01*
X189798438Y-133284200D01*
X189931562Y-133284200D01*
X190062123Y-133310170D01*
X190062123Y-133310170D01*
G37*
G36*
X179902123Y-133310170D02*
G01*
X180025110Y-133361113D01*
X180135796Y-133435071D01*
X180229929Y-133529204D01*
X180303887Y-133639890D01*
X180354830Y-133762877D01*
X180380800Y-133893438D01*
X180380800Y-134026562D01*
X180354830Y-134157123D01*
X180303887Y-134280110D01*
X180229929Y-134390796D01*
X180135796Y-134484929D01*
X180025110Y-134558887D01*
X179902123Y-134609830D01*
X179771562Y-134635800D01*
X179638438Y-134635800D01*
X179507877Y-134609830D01*
X179384890Y-134558887D01*
X179274204Y-134484929D01*
X179180071Y-134390796D01*
X179106113Y-134280110D01*
X179055170Y-134157123D01*
X179029200Y-134026562D01*
X179029200Y-133893438D01*
X179055170Y-133762877D01*
X179106113Y-133639890D01*
X179180071Y-133529204D01*
X179274204Y-133435071D01*
X179384890Y-133361113D01*
X179507877Y-133310170D01*
X179638438Y-133284200D01*
X179771562Y-133284200D01*
X179902123Y-133310170D01*
X179902123Y-133310170D01*
G37*
G36*
X184982123Y-133310170D02*
G01*
X185105110Y-133361113D01*
X185215796Y-133435071D01*
X185309929Y-133529204D01*
X185383887Y-133639890D01*
X185434830Y-133762877D01*
X185460800Y-133893438D01*
X185460800Y-134026562D01*
X185434830Y-134157123D01*
X185383887Y-134280110D01*
X185309929Y-134390796D01*
X185215796Y-134484929D01*
X185105110Y-134558887D01*
X184982123Y-134609830D01*
X184851562Y-134635800D01*
X184718438Y-134635800D01*
X184587877Y-134609830D01*
X184464890Y-134558887D01*
X184354204Y-134484929D01*
X184260071Y-134390796D01*
X184186113Y-134280110D01*
X184135170Y-134157123D01*
X184109200Y-134026562D01*
X184109200Y-133893438D01*
X184135170Y-133762877D01*
X184186113Y-133639890D01*
X184260071Y-133529204D01*
X184354204Y-133435071D01*
X184464890Y-133361113D01*
X184587877Y-133310170D01*
X184718438Y-133284200D01*
X184851562Y-133284200D01*
X184982123Y-133310170D01*
X184982123Y-133310170D01*
G37*
G36*
X187522123Y-133310170D02*
G01*
X187645110Y-133361113D01*
X187755796Y-133435071D01*
X187849929Y-133529204D01*
X187923887Y-133639890D01*
X187974830Y-133762877D01*
X188000800Y-133893438D01*
X188000800Y-134026562D01*
X187974830Y-134157123D01*
X187923887Y-134280110D01*
X187849929Y-134390796D01*
X187755796Y-134484929D01*
X187645110Y-134558887D01*
X187522123Y-134609830D01*
X187391562Y-134635800D01*
X187258438Y-134635800D01*
X187127877Y-134609830D01*
X187004890Y-134558887D01*
X186894204Y-134484929D01*
X186800071Y-134390796D01*
X186726113Y-134280110D01*
X186675170Y-134157123D01*
X186649200Y-134026562D01*
X186649200Y-133893438D01*
X186675170Y-133762877D01*
X186726113Y-133639890D01*
X186800071Y-133529204D01*
X186894204Y-133435071D01*
X187004890Y-133361113D01*
X187127877Y-133310170D01*
X187258438Y-133284200D01*
X187391562Y-133284200D01*
X187522123Y-133310170D01*
X187522123Y-133310170D01*
G37*
G36*
X182442123Y-133310170D02*
G01*
X182565110Y-133361113D01*
X182675796Y-133435071D01*
X182769929Y-133529204D01*
X182843887Y-133639890D01*
X182894830Y-133762877D01*
X182920800Y-133893438D01*
X182920800Y-134026562D01*
X182894830Y-134157123D01*
X182843887Y-134280110D01*
X182769929Y-134390796D01*
X182675796Y-134484929D01*
X182565110Y-134558887D01*
X182442123Y-134609830D01*
X182311562Y-134635800D01*
X182178438Y-134635800D01*
X182047877Y-134609830D01*
X181924890Y-134558887D01*
X181814204Y-134484929D01*
X181720071Y-134390796D01*
X181646113Y-134280110D01*
X181595170Y-134157123D01*
X181569200Y-134026562D01*
X181569200Y-133893438D01*
X181595170Y-133762877D01*
X181646113Y-133639890D01*
X181720071Y-133529204D01*
X181814204Y-133435071D01*
X181924890Y-133361113D01*
X182047877Y-133310170D01*
X182178438Y-133284200D01*
X182311562Y-133284200D01*
X182442123Y-133310170D01*
X182442123Y-133310170D01*
G37*
G36*
X212700800Y-133925800D02*
G01*
X211799200Y-133925800D01*
X211799200Y-133074200D01*
X212700800Y-133074200D01*
X212700800Y-133925800D01*
X212700800Y-133925800D01*
G37*
G36*
X211200800Y-133925800D02*
G01*
X210299200Y-133925800D01*
X210299200Y-133074200D01*
X211200800Y-133074200D01*
X211200800Y-133925800D01*
X211200800Y-133925800D01*
G37*
G36*
X207005800Y-133890800D02*
G01*
X205804200Y-133890800D01*
X205804200Y-133039200D01*
X207005800Y-133039200D01*
X207005800Y-133890800D01*
X207005800Y-133890800D01*
G37*
G36*
X204405800Y-133890800D02*
G01*
X203204200Y-133890800D01*
X203204200Y-133039200D01*
X204405800Y-133039200D01*
X204405800Y-133890800D01*
X204405800Y-133890800D01*
G37*
G36*
X199385800Y-133890800D02*
G01*
X198184200Y-133890800D01*
X198184200Y-133039200D01*
X199385800Y-133039200D01*
X199385800Y-133890800D01*
X199385800Y-133890800D01*
G37*
G36*
X196785800Y-133890800D02*
G01*
X195584200Y-133890800D01*
X195584200Y-133039200D01*
X196785800Y-133039200D01*
X196785800Y-133890800D01*
X196785800Y-133890800D01*
G37*
G36*
X220005991Y-130884404D02*
G01*
X220204072Y-130944491D01*
X220386617Y-131042064D01*
X220546623Y-131173377D01*
X220677936Y-131333383D01*
X220775509Y-131515928D01*
X220835596Y-131714009D01*
X220855884Y-131920000D01*
X220835596Y-132125991D01*
X220775509Y-132324072D01*
X220677936Y-132506617D01*
X220546623Y-132666623D01*
X220386617Y-132797936D01*
X220204072Y-132895509D01*
X220005991Y-132955596D01*
X219851621Y-132970800D01*
X219148379Y-132970800D01*
X218994009Y-132955596D01*
X218795928Y-132895509D01*
X218613383Y-132797936D01*
X218453377Y-132666623D01*
X218322064Y-132506617D01*
X218224491Y-132324072D01*
X218164404Y-132125991D01*
X218144116Y-131920000D01*
X218164404Y-131714009D01*
X218224491Y-131515928D01*
X218322064Y-131333383D01*
X218453377Y-131173377D01*
X218613383Y-131042064D01*
X218795928Y-130944491D01*
X218994009Y-130884404D01*
X219148379Y-130869200D01*
X219851621Y-130869200D01*
X220005991Y-130884404D01*
X220005991Y-130884404D01*
G37*
G36*
X207005800Y-132390800D02*
G01*
X205804200Y-132390800D01*
X205804200Y-131539200D01*
X207005800Y-131539200D01*
X207005800Y-132390800D01*
X207005800Y-132390800D01*
G37*
G36*
X204405800Y-132390800D02*
G01*
X203204200Y-132390800D01*
X203204200Y-131539200D01*
X204405800Y-131539200D01*
X204405800Y-132390800D01*
X204405800Y-132390800D01*
G37*
G36*
X196785800Y-132390800D02*
G01*
X195584200Y-132390800D01*
X195584200Y-131539200D01*
X196785800Y-131539200D01*
X196785800Y-132390800D01*
X196785800Y-132390800D01*
G37*
G36*
X199385800Y-132390800D02*
G01*
X198184200Y-132390800D01*
X198184200Y-131539200D01*
X199385800Y-131539200D01*
X199385800Y-132390800D01*
X199385800Y-132390800D01*
G37*
G36*
X213825800Y-131680800D02*
G01*
X211174200Y-131680800D01*
X211174200Y-130519200D01*
X213825800Y-130519200D01*
X213825800Y-131680800D01*
X213825800Y-131680800D01*
G37*
G36*
X220005991Y-128344404D02*
G01*
X220204072Y-128404491D01*
X220386617Y-128502064D01*
X220546623Y-128633377D01*
X220677936Y-128793383D01*
X220775509Y-128975928D01*
X220835596Y-129174009D01*
X220855884Y-129380000D01*
X220835596Y-129585991D01*
X220775509Y-129784072D01*
X220677936Y-129966617D01*
X220546623Y-130126623D01*
X220386617Y-130257936D01*
X220204072Y-130355509D01*
X220005991Y-130415596D01*
X219851621Y-130430800D01*
X219148379Y-130430800D01*
X218994009Y-130415596D01*
X218795928Y-130355509D01*
X218613383Y-130257936D01*
X218453377Y-130126623D01*
X218322064Y-129966617D01*
X218224491Y-129784072D01*
X218164404Y-129585991D01*
X218144116Y-129380000D01*
X218164404Y-129174009D01*
X218224491Y-128975928D01*
X218322064Y-128793383D01*
X218453377Y-128633377D01*
X218613383Y-128502064D01*
X218795928Y-128404491D01*
X218994009Y-128344404D01*
X219148379Y-128329200D01*
X219851621Y-128329200D01*
X220005991Y-128344404D01*
X220005991Y-128344404D01*
G37*
G36*
X209700800Y-129900800D02*
G01*
X208699200Y-129900800D01*
X208699200Y-128099200D01*
X209700800Y-128099200D01*
X209700800Y-129900800D01*
X209700800Y-129900800D01*
G37*
G36*
X206800800Y-129900800D02*
G01*
X205799200Y-129900800D01*
X205799200Y-128099200D01*
X206800800Y-128099200D01*
X206800800Y-129900800D01*
X206800800Y-129900800D01*
G37*
G36*
X202200800Y-129900800D02*
G01*
X201199200Y-129900800D01*
X201199200Y-128099200D01*
X202200800Y-128099200D01*
X202200800Y-129900800D01*
X202200800Y-129900800D01*
G37*
G36*
X199300800Y-129900800D02*
G01*
X198299200Y-129900800D01*
X198299200Y-128099200D01*
X199300800Y-128099200D01*
X199300800Y-129900800D01*
X199300800Y-129900800D01*
G37*
G36*
X213825800Y-129480800D02*
G01*
X211174200Y-129480800D01*
X211174200Y-128319200D01*
X213825800Y-128319200D01*
X213825800Y-129480800D01*
X213825800Y-129480800D01*
G37*
G36*
X220005991Y-125804404D02*
G01*
X220204072Y-125864491D01*
X220386617Y-125962064D01*
X220546623Y-126093377D01*
X220677936Y-126253383D01*
X220775509Y-126435928D01*
X220835596Y-126634009D01*
X220855884Y-126840000D01*
X220835596Y-127045991D01*
X220775509Y-127244072D01*
X220677936Y-127426617D01*
X220546623Y-127586623D01*
X220386617Y-127717936D01*
X220204072Y-127815509D01*
X220005991Y-127875596D01*
X219851621Y-127890800D01*
X219148379Y-127890800D01*
X218994009Y-127875596D01*
X218795928Y-127815509D01*
X218613383Y-127717936D01*
X218453377Y-127586623D01*
X218322064Y-127426617D01*
X218224491Y-127244072D01*
X218164404Y-127045991D01*
X218144116Y-126840000D01*
X218164404Y-126634009D01*
X218224491Y-126435928D01*
X218322064Y-126253383D01*
X218453377Y-126093377D01*
X218613383Y-125962064D01*
X218795928Y-125864491D01*
X218994009Y-125804404D01*
X219148379Y-125789200D01*
X219851621Y-125789200D01*
X220005991Y-125804404D01*
X220005991Y-125804404D01*
G37*
G36*
X211300800Y-127000800D02*
G01*
X210699200Y-127000800D01*
X210699200Y-125999200D01*
X211300800Y-125999200D01*
X211300800Y-127000800D01*
X211300800Y-127000800D01*
G37*
G36*
X212800800Y-127000800D02*
G01*
X212199200Y-127000800D01*
X212199200Y-125999200D01*
X212800800Y-125999200D01*
X212800800Y-127000800D01*
X212800800Y-127000800D01*
G37*
G36*
X215700800Y-126925800D02*
G01*
X214799200Y-126925800D01*
X214799200Y-126074200D01*
X215700800Y-126074200D01*
X215700800Y-126925800D01*
X215700800Y-126925800D01*
G37*
G36*
X214200800Y-126925800D02*
G01*
X213299200Y-126925800D01*
X213299200Y-126074200D01*
X214200800Y-126074200D01*
X214200800Y-126925800D01*
X214200800Y-126925800D01*
G37*
G36*
X207005800Y-126270800D02*
G01*
X205804200Y-126270800D01*
X205804200Y-125419200D01*
X207005800Y-125419200D01*
X207005800Y-126270800D01*
X207005800Y-126270800D01*
G37*
G36*
X204405800Y-126270800D02*
G01*
X203204200Y-126270800D01*
X203204200Y-125419200D01*
X204405800Y-125419200D01*
X204405800Y-126270800D01*
X204405800Y-126270800D01*
G37*
G36*
X196785800Y-126270800D02*
G01*
X195584200Y-126270800D01*
X195584200Y-125419200D01*
X196785800Y-125419200D01*
X196785800Y-126270800D01*
X196785800Y-126270800D01*
G37*
G36*
X199385800Y-126270800D02*
G01*
X198184200Y-126270800D01*
X198184200Y-125419200D01*
X199385800Y-125419200D01*
X199385800Y-126270800D01*
X199385800Y-126270800D01*
G37*
G36*
X220005991Y-123264404D02*
G01*
X220204072Y-123324491D01*
X220386617Y-123422064D01*
X220546623Y-123553377D01*
X220677936Y-123713383D01*
X220775509Y-123895928D01*
X220835596Y-124094009D01*
X220855884Y-124300000D01*
X220835596Y-124505991D01*
X220775509Y-124704072D01*
X220677936Y-124886617D01*
X220546623Y-125046623D01*
X220386617Y-125177936D01*
X220204072Y-125275509D01*
X220005991Y-125335596D01*
X219851621Y-125350800D01*
X219148379Y-125350800D01*
X218994009Y-125335596D01*
X218795928Y-125275509D01*
X218613383Y-125177936D01*
X218453377Y-125046623D01*
X218322064Y-124886617D01*
X218224491Y-124704072D01*
X218164404Y-124505991D01*
X218144116Y-124300000D01*
X218164404Y-124094009D01*
X218224491Y-123895928D01*
X218322064Y-123713383D01*
X218453377Y-123553377D01*
X218613383Y-123422064D01*
X218795928Y-123324491D01*
X218994009Y-123264404D01*
X219148379Y-123249200D01*
X219851621Y-123249200D01*
X220005991Y-123264404D01*
X220005991Y-123264404D01*
G37*
G36*
X196785800Y-124770800D02*
G01*
X195584200Y-124770800D01*
X195584200Y-123919200D01*
X196785800Y-123919200D01*
X196785800Y-124770800D01*
X196785800Y-124770800D01*
G37*
G36*
X199385800Y-124770800D02*
G01*
X198184200Y-124770800D01*
X198184200Y-123919200D01*
X199385800Y-123919200D01*
X199385800Y-124770800D01*
X199385800Y-124770800D01*
G37*
G36*
X204405800Y-124770800D02*
G01*
X203204200Y-124770800D01*
X203204200Y-123919200D01*
X204405800Y-123919200D01*
X204405800Y-124770800D01*
X204405800Y-124770800D01*
G37*
G36*
X207005800Y-124770800D02*
G01*
X205804200Y-124770800D01*
X205804200Y-123919200D01*
X207005800Y-123919200D01*
X207005800Y-124770800D01*
X207005800Y-124770800D01*
G37*
G36*
X210150800Y-124700800D02*
G01*
X208349200Y-124700800D01*
X208349200Y-123699200D01*
X210150800Y-123699200D01*
X210150800Y-124700800D01*
X210150800Y-124700800D01*
G37*
G36*
X220005991Y-120724404D02*
G01*
X220204072Y-120784491D01*
X220386617Y-120882064D01*
X220546623Y-121013377D01*
X220677936Y-121173383D01*
X220775509Y-121355928D01*
X220835596Y-121554009D01*
X220855884Y-121760000D01*
X220835596Y-121965991D01*
X220775509Y-122164072D01*
X220677936Y-122346617D01*
X220546623Y-122506623D01*
X220386617Y-122637936D01*
X220204072Y-122735509D01*
X220005991Y-122795596D01*
X219851621Y-122810800D01*
X219148379Y-122810800D01*
X218994009Y-122795596D01*
X218795928Y-122735509D01*
X218613383Y-122637936D01*
X218453377Y-122506623D01*
X218322064Y-122346617D01*
X218224491Y-122164072D01*
X218164404Y-121965991D01*
X218144116Y-121760000D01*
X218164404Y-121554009D01*
X218224491Y-121355928D01*
X218322064Y-121173383D01*
X218453377Y-121013377D01*
X218613383Y-120882064D01*
X218795928Y-120784491D01*
X218994009Y-120724404D01*
X219148379Y-120709200D01*
X219851621Y-120709200D01*
X220005991Y-120724404D01*
X220005991Y-120724404D01*
G37*
G36*
X199300800Y-122150800D02*
G01*
X198299200Y-122150800D01*
X198299200Y-120349200D01*
X199300800Y-120349200D01*
X199300800Y-122150800D01*
X199300800Y-122150800D01*
G37*
G36*
X202200800Y-122150800D02*
G01*
X201199200Y-122150800D01*
X201199200Y-120349200D01*
X202200800Y-120349200D01*
X202200800Y-122150800D01*
X202200800Y-122150800D01*
G37*
G36*
X210150800Y-121800800D02*
G01*
X208349200Y-121800800D01*
X208349200Y-120799200D01*
X210150800Y-120799200D01*
X210150800Y-121800800D01*
X210150800Y-121800800D01*
G37*
G36*
X220005991Y-118184404D02*
G01*
X220204072Y-118244491D01*
X220386617Y-118342064D01*
X220546623Y-118473377D01*
X220677936Y-118633383D01*
X220775509Y-118815928D01*
X220835596Y-119014009D01*
X220855884Y-119220000D01*
X220835596Y-119425991D01*
X220775509Y-119624072D01*
X220677936Y-119806617D01*
X220546623Y-119966623D01*
X220386617Y-120097936D01*
X220204072Y-120195509D01*
X220005991Y-120255596D01*
X219851621Y-120270800D01*
X219148379Y-120270800D01*
X218994009Y-120255596D01*
X218795928Y-120195509D01*
X218613383Y-120097936D01*
X218453377Y-119966623D01*
X218322064Y-119806617D01*
X218224491Y-119624072D01*
X218164404Y-119425991D01*
X218144116Y-119220000D01*
X218164404Y-119014009D01*
X218224491Y-118815928D01*
X218322064Y-118633383D01*
X218453377Y-118473377D01*
X218613383Y-118342064D01*
X218795928Y-118244491D01*
X218994009Y-118184404D01*
X219148379Y-118169200D01*
X219851621Y-118169200D01*
X220005991Y-118184404D01*
X220005991Y-118184404D01*
G37*
G36*
X212450800Y-120050800D02*
G01*
X211449200Y-120050800D01*
X211449200Y-117449200D01*
X212450800Y-117449200D01*
X212450800Y-120050800D01*
X212450800Y-120050800D01*
G37*
G36*
X209550800Y-120050800D02*
G01*
X208549200Y-120050800D01*
X208549200Y-117449200D01*
X209550800Y-117449200D01*
X209550800Y-120050800D01*
X209550800Y-120050800D01*
G37*
G36*
X206500800Y-120000800D02*
G01*
X203499200Y-120000800D01*
X203499200Y-118299200D01*
X206500800Y-118299200D01*
X206500800Y-120000800D01*
X206500800Y-120000800D01*
G37*
G36*
X199385800Y-118650800D02*
G01*
X198184200Y-118650800D01*
X198184200Y-117799200D01*
X199385800Y-117799200D01*
X199385800Y-118650800D01*
X199385800Y-118650800D01*
G37*
G36*
X196785800Y-118650800D02*
G01*
X195584200Y-118650800D01*
X195584200Y-117799200D01*
X196785800Y-117799200D01*
X196785800Y-118650800D01*
X196785800Y-118650800D01*
G37*
G36*
X196785800Y-117150800D02*
G01*
X195584200Y-117150800D01*
X195584200Y-116299200D01*
X196785800Y-116299200D01*
X196785800Y-117150800D01*
X196785800Y-117150800D01*
G37*
G36*
X172335675Y-114893424D02*
G01*
X172422425Y-114929357D01*
X172545108Y-114980174D01*
X172733592Y-115106115D01*
X172893885Y-115266408D01*
X173019826Y-115454892D01*
X173062901Y-115558886D01*
X173106576Y-115664325D01*
X173150800Y-115886655D01*
X173150800Y-116113345D01*
X173106576Y-116335675D01*
X173070643Y-116422425D01*
X173019826Y-116545108D01*
X172893885Y-116733592D01*
X172733592Y-116893885D01*
X172545108Y-117019826D01*
X172422425Y-117070643D01*
X172335675Y-117106576D01*
X172113345Y-117150800D01*
X171886655Y-117150800D01*
X171664325Y-117106576D01*
X171577575Y-117070643D01*
X171454892Y-117019826D01*
X171266408Y-116893885D01*
X171106115Y-116733592D01*
X170980174Y-116545108D01*
X170929357Y-116422425D01*
X170893424Y-116335675D01*
X170849200Y-116113345D01*
X170849200Y-115886655D01*
X170893424Y-115664325D01*
X170937099Y-115558886D01*
X170980174Y-115454892D01*
X171106115Y-115266408D01*
X171266408Y-115106115D01*
X171454892Y-114980174D01*
X171577575Y-114929357D01*
X171664325Y-114893424D01*
X171886655Y-114849200D01*
X172113345Y-114849200D01*
X172335675Y-114893424D01*
X172335675Y-114893424D01*
G37*
G36*
X199385800Y-117150800D02*
G01*
X198184200Y-117150800D01*
X198184200Y-116299200D01*
X199385800Y-116299200D01*
X199385800Y-117150800D01*
X199385800Y-117150800D01*
G37*
G36*
X216335675Y-114893424D02*
G01*
X216422425Y-114929357D01*
X216545108Y-114980174D01*
X216733592Y-115106115D01*
X216893885Y-115266408D01*
X217019826Y-115454892D01*
X217062901Y-115558886D01*
X217106576Y-115664325D01*
X217150800Y-115886655D01*
X217150800Y-116113345D01*
X217106576Y-116335675D01*
X217070643Y-116422425D01*
X217019826Y-116545108D01*
X216893885Y-116733592D01*
X216733592Y-116893885D01*
X216545108Y-117019826D01*
X216422425Y-117070643D01*
X216335675Y-117106576D01*
X216113345Y-117150800D01*
X215886655Y-117150800D01*
X215664325Y-117106576D01*
X215577575Y-117070643D01*
X215454892Y-117019826D01*
X215266408Y-116893885D01*
X215106115Y-116733592D01*
X214980174Y-116545108D01*
X214929357Y-116422425D01*
X214893424Y-116335675D01*
X214849200Y-116113345D01*
X214849200Y-115886655D01*
X214893424Y-115664325D01*
X214937099Y-115558886D01*
X214980174Y-115454892D01*
X215106115Y-115266408D01*
X215266408Y-115106115D01*
X215454892Y-114980174D01*
X215577575Y-114929357D01*
X215664325Y-114893424D01*
X215886655Y-114849200D01*
X216113345Y-114849200D01*
X216335675Y-114893424D01*
X216335675Y-114893424D01*
G37*
G36*
X206500800Y-116700800D02*
G01*
X203499200Y-116700800D01*
X203499200Y-114999200D01*
X206500800Y-114999200D01*
X206500800Y-116700800D01*
X206500800Y-116700800D01*
G37*
G36*
X187522123Y-114310170D02*
G01*
X187645110Y-114361113D01*
X187755796Y-114435071D01*
X187849929Y-114529204D01*
X187923887Y-114639890D01*
X187974830Y-114762877D01*
X188000800Y-114893438D01*
X188000800Y-115026562D01*
X187974830Y-115157123D01*
X187923887Y-115280110D01*
X187849929Y-115390796D01*
X187755796Y-115484929D01*
X187645110Y-115558887D01*
X187522123Y-115609830D01*
X187391562Y-115635800D01*
X187258438Y-115635800D01*
X187127877Y-115609830D01*
X187004890Y-115558887D01*
X186894204Y-115484929D01*
X186800071Y-115390796D01*
X186726113Y-115280110D01*
X186675170Y-115157123D01*
X186649200Y-115026562D01*
X186649200Y-114893438D01*
X186675170Y-114762877D01*
X186726113Y-114639890D01*
X186800071Y-114529204D01*
X186894204Y-114435071D01*
X187004890Y-114361113D01*
X187127877Y-114310170D01*
X187258438Y-114284200D01*
X187391562Y-114284200D01*
X187522123Y-114310170D01*
X187522123Y-114310170D01*
G37*
G36*
X190062123Y-114310170D02*
G01*
X190185110Y-114361113D01*
X190295796Y-114435071D01*
X190389929Y-114529204D01*
X190463887Y-114639890D01*
X190514830Y-114762877D01*
X190540800Y-114893438D01*
X190540800Y-115026562D01*
X190514830Y-115157123D01*
X190463887Y-115280110D01*
X190389929Y-115390796D01*
X190295796Y-115484929D01*
X190185110Y-115558887D01*
X190062123Y-115609830D01*
X189931562Y-115635800D01*
X189798438Y-115635800D01*
X189667877Y-115609830D01*
X189544890Y-115558887D01*
X189434204Y-115484929D01*
X189340071Y-115390796D01*
X189266113Y-115280110D01*
X189215170Y-115157123D01*
X189189200Y-115026562D01*
X189189200Y-114893438D01*
X189215170Y-114762877D01*
X189266113Y-114639890D01*
X189340071Y-114529204D01*
X189434204Y-114435071D01*
X189544890Y-114361113D01*
X189667877Y-114310170D01*
X189798438Y-114284200D01*
X189931562Y-114284200D01*
X190062123Y-114310170D01*
X190062123Y-114310170D01*
G37*
G36*
X179902123Y-114310170D02*
G01*
X180025110Y-114361113D01*
X180135796Y-114435071D01*
X180229929Y-114529204D01*
X180303887Y-114639890D01*
X180354830Y-114762877D01*
X180380800Y-114893438D01*
X180380800Y-115026562D01*
X180354830Y-115157123D01*
X180303887Y-115280110D01*
X180229929Y-115390796D01*
X180135796Y-115484929D01*
X180025110Y-115558887D01*
X179902123Y-115609830D01*
X179771562Y-115635800D01*
X179638438Y-115635800D01*
X179507877Y-115609830D01*
X179384890Y-115558887D01*
X179274204Y-115484929D01*
X179180071Y-115390796D01*
X179106113Y-115280110D01*
X179055170Y-115157123D01*
X179029200Y-115026562D01*
X179029200Y-114893438D01*
X179055170Y-114762877D01*
X179106113Y-114639890D01*
X179180071Y-114529204D01*
X179274204Y-114435071D01*
X179384890Y-114361113D01*
X179507877Y-114310170D01*
X179638438Y-114284200D01*
X179771562Y-114284200D01*
X179902123Y-114310170D01*
X179902123Y-114310170D01*
G37*
G36*
X184982123Y-114310170D02*
G01*
X185105110Y-114361113D01*
X185215796Y-114435071D01*
X185309929Y-114529204D01*
X185383887Y-114639890D01*
X185434830Y-114762877D01*
X185460800Y-114893438D01*
X185460800Y-115026562D01*
X185434830Y-115157123D01*
X185383887Y-115280110D01*
X185309929Y-115390796D01*
X185215796Y-115484929D01*
X185105110Y-115558887D01*
X184982123Y-115609830D01*
X184851562Y-115635800D01*
X184718438Y-115635800D01*
X184587877Y-115609830D01*
X184464890Y-115558887D01*
X184354204Y-115484929D01*
X184260071Y-115390796D01*
X184186113Y-115280110D01*
X184135170Y-115157123D01*
X184109200Y-115026562D01*
X184109200Y-114893438D01*
X184135170Y-114762877D01*
X184186113Y-114639890D01*
X184260071Y-114529204D01*
X184354204Y-114435071D01*
X184464890Y-114361113D01*
X184587877Y-114310170D01*
X184718438Y-114284200D01*
X184851562Y-114284200D01*
X184982123Y-114310170D01*
X184982123Y-114310170D01*
G37*
G36*
X182442123Y-114310170D02*
G01*
X182565110Y-114361113D01*
X182675796Y-114435071D01*
X182769929Y-114529204D01*
X182843887Y-114639890D01*
X182894830Y-114762877D01*
X182920800Y-114893438D01*
X182920800Y-115026562D01*
X182894830Y-115157123D01*
X182843887Y-115280110D01*
X182769929Y-115390796D01*
X182675796Y-115484929D01*
X182565110Y-115558887D01*
X182442123Y-115609830D01*
X182311562Y-115635800D01*
X182178438Y-115635800D01*
X182047877Y-115609830D01*
X181924890Y-115558887D01*
X181814204Y-115484929D01*
X181720071Y-115390796D01*
X181646113Y-115280110D01*
X181595170Y-115157123D01*
X181569200Y-115026562D01*
X181569200Y-114893438D01*
X181595170Y-114762877D01*
X181646113Y-114639890D01*
X181720071Y-114529204D01*
X181814204Y-114435071D01*
X181924890Y-114361113D01*
X182047877Y-114310170D01*
X182178438Y-114284200D01*
X182311562Y-114284200D01*
X182442123Y-114310170D01*
X182442123Y-114310170D01*
G37*
G36*
X200450800Y-114400800D02*
G01*
X199449200Y-114400800D01*
X199449200Y-112599200D01*
X200450800Y-112599200D01*
X200450800Y-114400800D01*
X200450800Y-114400800D01*
G37*
G36*
X197550800Y-114400800D02*
G01*
X196549200Y-114400800D01*
X196549200Y-112599200D01*
X197550800Y-112599200D01*
X197550800Y-114400800D01*
X197550800Y-114400800D01*
G37*
G36*
X200450800Y-111925800D02*
G01*
X199549200Y-111925800D01*
X199549200Y-111074200D01*
X200450800Y-111074200D01*
X200450800Y-111925800D01*
X200450800Y-111925800D01*
G37*
G36*
X198950800Y-111925800D02*
G01*
X198049200Y-111925800D01*
X198049200Y-111074200D01*
X198950800Y-111074200D01*
X198950800Y-111925800D01*
X198950800Y-111925800D01*
G37*
M02*
