M48
INCH,TZ
T1C0.0118
T2C0.0157
%
G90
G05
T1
X67480Y-48346
X68465Y-48622
X70591Y-50551
X70591Y-55276
X70748Y-51102
X70748Y-55827
X74882Y-47441
X75079Y-50945
X75079Y-51811
X75079Y-55669
X75079Y-56535
X75315Y-50984
X75315Y-51772
X75315Y-55709
X75315Y-56496
X75354Y-45906
X75512Y-46417
X75551Y-50394
X75551Y-55118
X75591Y-51772
X75591Y-56496
X75984Y-48346
X77756Y-47835
X79646Y-46811
X79685Y-50866
X79685Y-55591
X79724Y-52480
X79724Y-57205
X79882Y-46496
X79961Y-50945
X79961Y-55669
X80000Y-52441
X80000Y-57165
X80157Y-50472
X80157Y-53425
X80197Y-47087
X80276Y-52362
X80276Y-55079
X80276Y-57087
X81378Y-44409
X81965Y-49130
X82224Y-49114
X82480Y-49094
X82559Y-45945
X83622Y-46811
X83760Y-43996
X84272Y-47559
X84291Y-46220
X84370Y-48346
X85315Y-46929
X85472Y-48701
X85787Y-50591
X86024Y-48583
X86024Y-48976
X86024Y-50787
X86024Y-51929
X86457Y-46654
X86614Y-47047
X86614Y-49291
X86693Y-47441
X86732Y-52559
X87087Y-50787
X87244Y-49331
X87441Y-50591
X87835Y-47047
X87835Y-47441
X87835Y-49016
X88661Y-52756
X88780Y-46732
X88780Y-48110
X84213Y-50866
X84213Y-51181
X84213Y-51496
X84528Y-50866
X84528Y-51181
X84528Y-51496
X84843Y-50866
X84843Y-51181
X84843Y-51496
T2
X80187Y-47835
X81811Y-49488
X82244Y-53386
T0
M30
