G04 #@! TF.GenerationSoftware,KiCad,Pcbnew,(5.1.4)-1*
G04 #@! TF.CreationDate,2020-06-25T21:55:37-04:00*
G04 #@! TF.ProjectId,Dash_Warning_Panel,44617368-5f57-4617-926e-696e675f5061,rev?*
G04 #@! TF.SameCoordinates,Original*
G04 #@! TF.FileFunction,Soldermask,Bot*
G04 #@! TF.FilePolarity,Negative*
%FSLAX46Y46*%
G04 Gerber Fmt 4.6, Leading zero omitted, Abs format (unit mm)*
G04 Created by KiCad (PCBNEW (5.1.4)-1) date 2020-06-25 21:55:37*
%MOMM*%
%LPD*%
G04 APERTURE LIST*
%ADD10C,0.150000*%
%ADD11C,0.100000*%
G04 APERTURE END LIST*
D10*
X209900000Y-144800000D02*
X209800000Y-144600000D01*
X209500000Y-145700000D02*
X209600000Y-145600000D01*
X209100000Y-146000000D02*
X209500000Y-145700000D01*
X211900000Y-144900000D02*
X211400000Y-144500000D01*
X209845000Y-146725000D02*
X207345000Y-145975000D01*
X206675000Y-145915000D02*
X205845000Y-145975000D01*
X213600000Y-146800000D02*
X211900000Y-144900000D01*
X205845000Y-145975000D02*
X204845000Y-146225000D01*
X207345000Y-145975000D02*
X206675000Y-145915000D01*
X210800000Y-144500000D02*
X210595000Y-144725000D01*
X210595000Y-144725000D02*
X210095000Y-146475000D01*
X210095000Y-146475000D02*
X209845000Y-146725000D01*
X204635000Y-146735000D02*
X204845000Y-146975000D01*
X204845000Y-146225000D02*
X204595000Y-146475000D01*
X204595000Y-146475000D02*
X204635000Y-146735000D01*
D11*
G36*
X206050000Y-116950000D02*
G01*
X200700000Y-122000000D01*
X197000000Y-122000000D01*
X191950000Y-116850000D01*
X191950000Y-116050000D01*
X206050000Y-116050000D01*
X206050000Y-116950000D01*
G37*
X206050000Y-116950000D02*
X200700000Y-122000000D01*
X197000000Y-122000000D01*
X191950000Y-116850000D01*
X191950000Y-116050000D01*
X206050000Y-116050000D01*
X206050000Y-116950000D01*
G36*
X206000000Y-137500000D02*
G01*
X206000000Y-138300000D01*
X191900000Y-138300000D01*
X191900000Y-137400000D01*
X197250000Y-132350000D01*
X200950000Y-132350000D01*
X206000000Y-137500000D01*
G37*
X206000000Y-137500000D02*
X206000000Y-138300000D01*
X191900000Y-138300000D01*
X191900000Y-137400000D01*
X197250000Y-132350000D01*
X200950000Y-132350000D01*
X206000000Y-137500000D01*
G36*
X216335675Y-138893424D02*
G01*
X216422425Y-138929357D01*
X216545108Y-138980174D01*
X216733592Y-139106115D01*
X216893885Y-139266408D01*
X217019826Y-139454892D01*
X217070643Y-139577575D01*
X217106576Y-139664325D01*
X217150800Y-139886655D01*
X217150800Y-140113345D01*
X217106576Y-140335675D01*
X217070643Y-140422425D01*
X217019826Y-140545108D01*
X216893885Y-140733592D01*
X216733592Y-140893885D01*
X216545108Y-141019826D01*
X216422425Y-141070643D01*
X216335675Y-141106576D01*
X216113345Y-141150800D01*
X215886655Y-141150800D01*
X215664325Y-141106576D01*
X215577575Y-141070643D01*
X215454892Y-141019826D01*
X215266408Y-140893885D01*
X215106115Y-140733592D01*
X214980174Y-140545108D01*
X214929357Y-140422425D01*
X214893424Y-140335675D01*
X214849200Y-140113345D01*
X214849200Y-139886655D01*
X214893424Y-139664325D01*
X214929357Y-139577575D01*
X214980174Y-139454892D01*
X215106115Y-139266408D01*
X215266408Y-139106115D01*
X215454892Y-138980174D01*
X215577575Y-138929357D01*
X215664325Y-138893424D01*
X215886655Y-138849200D01*
X216113345Y-138849200D01*
X216335675Y-138893424D01*
X216335675Y-138893424D01*
G37*
G36*
X172335675Y-138893424D02*
G01*
X172422425Y-138929357D01*
X172545108Y-138980174D01*
X172733592Y-139106115D01*
X172893885Y-139266408D01*
X173019826Y-139454892D01*
X173070643Y-139577575D01*
X173106576Y-139664325D01*
X173150800Y-139886655D01*
X173150800Y-140113345D01*
X173106576Y-140335675D01*
X173070643Y-140422425D01*
X173019826Y-140545108D01*
X172893885Y-140733592D01*
X172733592Y-140893885D01*
X172545108Y-141019826D01*
X172422425Y-141070643D01*
X172335675Y-141106576D01*
X172113345Y-141150800D01*
X171886655Y-141150800D01*
X171664325Y-141106576D01*
X171577575Y-141070643D01*
X171454892Y-141019826D01*
X171266408Y-140893885D01*
X171106115Y-140733592D01*
X170980174Y-140545108D01*
X170929357Y-140422425D01*
X170893424Y-140335675D01*
X170849200Y-140113345D01*
X170849200Y-139886655D01*
X170893424Y-139664325D01*
X170929357Y-139577575D01*
X170980174Y-139454892D01*
X171106115Y-139266408D01*
X171266408Y-139106115D01*
X171454892Y-138980174D01*
X171577575Y-138929357D01*
X171664325Y-138893424D01*
X171886655Y-138849200D01*
X172113345Y-138849200D01*
X172335675Y-138893424D01*
X172335675Y-138893424D01*
G37*
G36*
X219248169Y-134181895D02*
G01*
X219403005Y-134246031D01*
X219542354Y-134339140D01*
X219660860Y-134457646D01*
X219753969Y-134596995D01*
X219818105Y-134751831D01*
X219850800Y-134916203D01*
X219850800Y-135083797D01*
X219818105Y-135248169D01*
X219753969Y-135403005D01*
X219660860Y-135542354D01*
X219542354Y-135660860D01*
X219403005Y-135753969D01*
X219248169Y-135818105D01*
X219083797Y-135850800D01*
X218916203Y-135850800D01*
X218751831Y-135818105D01*
X218596995Y-135753969D01*
X218457646Y-135660860D01*
X218339140Y-135542354D01*
X218246031Y-135403005D01*
X218181895Y-135248169D01*
X218149200Y-135083797D01*
X218149200Y-134916203D01*
X218181895Y-134751831D01*
X218246031Y-134596995D01*
X218339140Y-134457646D01*
X218457646Y-134339140D01*
X218596995Y-134246031D01*
X218751831Y-134181895D01*
X218916203Y-134149200D01*
X219083797Y-134149200D01*
X219248169Y-134181895D01*
X219248169Y-134181895D01*
G37*
G36*
X219248169Y-132181895D02*
G01*
X219403005Y-132246031D01*
X219542354Y-132339140D01*
X219660860Y-132457646D01*
X219753969Y-132596995D01*
X219818105Y-132751831D01*
X219850800Y-132916203D01*
X219850800Y-133083797D01*
X219818105Y-133248169D01*
X219753969Y-133403005D01*
X219660860Y-133542354D01*
X219542354Y-133660860D01*
X219403005Y-133753969D01*
X219248169Y-133818105D01*
X219083797Y-133850800D01*
X218916203Y-133850800D01*
X218751831Y-133818105D01*
X218596995Y-133753969D01*
X218457646Y-133660860D01*
X218339140Y-133542354D01*
X218246031Y-133403005D01*
X218181895Y-133248169D01*
X218149200Y-133083797D01*
X218149200Y-132916203D01*
X218181895Y-132751831D01*
X218246031Y-132596995D01*
X218339140Y-132457646D01*
X218457646Y-132339140D01*
X218596995Y-132246031D01*
X218751831Y-132181895D01*
X218916203Y-132149200D01*
X219083797Y-132149200D01*
X219248169Y-132181895D01*
X219248169Y-132181895D01*
G37*
G36*
X187750800Y-132300800D02*
G01*
X186749200Y-132300800D01*
X186749200Y-131699200D01*
X187750800Y-131699200D01*
X187750800Y-132300800D01*
X187750800Y-132300800D01*
G37*
G36*
X182750800Y-132300800D02*
G01*
X181749200Y-132300800D01*
X181749200Y-131699200D01*
X182750800Y-131699200D01*
X182750800Y-132300800D01*
X182750800Y-132300800D01*
G37*
G36*
X190500800Y-132300800D02*
G01*
X189499200Y-132300800D01*
X189499200Y-131699200D01*
X190500800Y-131699200D01*
X190500800Y-132300800D01*
X190500800Y-132300800D01*
G37*
G36*
X196750800Y-123419201D02*
G01*
X196753202Y-123443587D01*
X196760315Y-123467036D01*
X196771866Y-123488647D01*
X196787411Y-123507589D01*
X196806353Y-123523134D01*
X196827964Y-123534685D01*
X196851413Y-123541798D01*
X196875799Y-123544200D01*
X201124201Y-123544200D01*
X201148587Y-123541798D01*
X201172036Y-123534685D01*
X201193647Y-123523134D01*
X201212589Y-123507589D01*
X201228134Y-123488647D01*
X201239685Y-123467036D01*
X201246798Y-123443587D01*
X201249200Y-123419201D01*
X201249200Y-123024200D01*
X202450800Y-123024200D01*
X202450800Y-131975800D01*
X201249200Y-131975800D01*
X201249200Y-131580799D01*
X201246798Y-131556413D01*
X201239685Y-131532964D01*
X201228134Y-131511353D01*
X201212589Y-131492411D01*
X201193647Y-131476866D01*
X201172036Y-131465315D01*
X201148587Y-131458202D01*
X201124201Y-131455800D01*
X196875799Y-131455800D01*
X196851413Y-131458202D01*
X196827964Y-131465315D01*
X196806353Y-131476866D01*
X196787411Y-131492411D01*
X196771866Y-131511353D01*
X196760315Y-131532964D01*
X196753202Y-131556413D01*
X196750800Y-131580799D01*
X196750800Y-131975800D01*
X195549200Y-131975800D01*
X195549200Y-123024200D01*
X196750800Y-123024200D01*
X196750800Y-123419201D01*
X196750800Y-123419201D01*
G37*
G36*
X210425800Y-131950800D02*
G01*
X209574200Y-131950800D01*
X209574200Y-131049200D01*
X210425800Y-131049200D01*
X210425800Y-131950800D01*
X210425800Y-131950800D01*
G37*
G36*
X219248169Y-130181895D02*
G01*
X219403005Y-130246031D01*
X219542354Y-130339140D01*
X219660860Y-130457646D01*
X219753969Y-130596995D01*
X219818105Y-130751831D01*
X219850800Y-130916203D01*
X219850800Y-131083797D01*
X219818105Y-131248169D01*
X219753969Y-131403005D01*
X219660860Y-131542354D01*
X219542354Y-131660860D01*
X219403005Y-131753969D01*
X219248169Y-131818105D01*
X219083797Y-131850800D01*
X218916203Y-131850800D01*
X218751831Y-131818105D01*
X218596995Y-131753969D01*
X218457646Y-131660860D01*
X218339140Y-131542354D01*
X218246031Y-131403005D01*
X218181895Y-131248169D01*
X218149200Y-131083797D01*
X218149200Y-130916203D01*
X218181895Y-130751831D01*
X218246031Y-130596995D01*
X218339140Y-130457646D01*
X218457646Y-130339140D01*
X218596995Y-130246031D01*
X218751831Y-130181895D01*
X218916203Y-130149200D01*
X219083797Y-130149200D01*
X219248169Y-130181895D01*
X219248169Y-130181895D01*
G37*
G36*
X187750800Y-130800800D02*
G01*
X186749200Y-130800800D01*
X186749200Y-130199200D01*
X187750800Y-130199200D01*
X187750800Y-130800800D01*
X187750800Y-130800800D01*
G37*
G36*
X182750800Y-130800800D02*
G01*
X181749200Y-130800800D01*
X181749200Y-130199200D01*
X182750800Y-130199200D01*
X182750800Y-130800800D01*
X182750800Y-130800800D01*
G37*
G36*
X190500800Y-130800800D02*
G01*
X189499200Y-130800800D01*
X189499200Y-130199200D01*
X190500800Y-130199200D01*
X190500800Y-130800800D01*
X190500800Y-130800800D01*
G37*
G36*
X210425800Y-130450800D02*
G01*
X209574200Y-130450800D01*
X209574200Y-129549200D01*
X210425800Y-129549200D01*
X210425800Y-130450800D01*
X210425800Y-130450800D01*
G37*
G36*
X219248169Y-128181895D02*
G01*
X219403005Y-128246031D01*
X219542354Y-128339140D01*
X219660860Y-128457646D01*
X219753969Y-128596995D01*
X219818105Y-128751831D01*
X219850800Y-128916203D01*
X219850800Y-129083797D01*
X219818105Y-129248169D01*
X219753969Y-129403005D01*
X219660860Y-129542354D01*
X219542354Y-129660860D01*
X219403005Y-129753969D01*
X219248169Y-129818105D01*
X219083797Y-129850800D01*
X218916203Y-129850800D01*
X218751831Y-129818105D01*
X218596995Y-129753969D01*
X218457646Y-129660860D01*
X218339140Y-129542354D01*
X218246031Y-129403005D01*
X218181895Y-129248169D01*
X218149200Y-129083797D01*
X218149200Y-128916203D01*
X218181895Y-128751831D01*
X218246031Y-128596995D01*
X218339140Y-128457646D01*
X218457646Y-128339140D01*
X218596995Y-128246031D01*
X218751831Y-128181895D01*
X218916203Y-128149200D01*
X219083797Y-128149200D01*
X219248169Y-128181895D01*
X219248169Y-128181895D01*
G37*
G36*
X219248169Y-126181895D02*
G01*
X219403005Y-126246031D01*
X219542354Y-126339140D01*
X219660860Y-126457646D01*
X219753969Y-126596995D01*
X219818105Y-126751831D01*
X219850800Y-126916203D01*
X219850800Y-127083797D01*
X219818105Y-127248169D01*
X219753969Y-127403005D01*
X219660860Y-127542354D01*
X219542354Y-127660860D01*
X219403005Y-127753969D01*
X219248169Y-127818105D01*
X219083797Y-127850800D01*
X218916203Y-127850800D01*
X218751831Y-127818105D01*
X218596995Y-127753969D01*
X218457646Y-127660860D01*
X218339140Y-127542354D01*
X218246031Y-127403005D01*
X218181895Y-127248169D01*
X218149200Y-127083797D01*
X218149200Y-126916203D01*
X218181895Y-126751831D01*
X218246031Y-126596995D01*
X218339140Y-126457646D01*
X218457646Y-126339140D01*
X218596995Y-126246031D01*
X218751831Y-126181895D01*
X218916203Y-126149200D01*
X219083797Y-126149200D01*
X219248169Y-126181895D01*
X219248169Y-126181895D01*
G37*
G36*
X219248169Y-124181895D02*
G01*
X219403005Y-124246031D01*
X219542354Y-124339140D01*
X219660860Y-124457646D01*
X219753969Y-124596995D01*
X219818105Y-124751831D01*
X219850800Y-124916203D01*
X219850800Y-125083797D01*
X219818105Y-125248169D01*
X219753969Y-125403005D01*
X219660860Y-125542354D01*
X219542354Y-125660860D01*
X219403005Y-125753969D01*
X219248169Y-125818105D01*
X219083797Y-125850800D01*
X218916203Y-125850800D01*
X218751831Y-125818105D01*
X218596995Y-125753969D01*
X218457646Y-125660860D01*
X218339140Y-125542354D01*
X218246031Y-125403005D01*
X218181895Y-125248169D01*
X218149200Y-125083797D01*
X218149200Y-124916203D01*
X218181895Y-124751831D01*
X218246031Y-124596995D01*
X218339140Y-124457646D01*
X218457646Y-124339140D01*
X218596995Y-124246031D01*
X218751831Y-124181895D01*
X218916203Y-124149200D01*
X219083797Y-124149200D01*
X219248169Y-124181895D01*
X219248169Y-124181895D01*
G37*
G36*
X219248169Y-122181895D02*
G01*
X219403005Y-122246031D01*
X219542354Y-122339140D01*
X219660860Y-122457646D01*
X219753969Y-122596995D01*
X219818105Y-122751831D01*
X219850800Y-122916203D01*
X219850800Y-123083797D01*
X219818105Y-123248169D01*
X219753969Y-123403005D01*
X219660860Y-123542354D01*
X219542354Y-123660860D01*
X219403005Y-123753969D01*
X219248169Y-123818105D01*
X219083797Y-123850800D01*
X218916203Y-123850800D01*
X218751831Y-123818105D01*
X218596995Y-123753969D01*
X218457646Y-123660860D01*
X218339140Y-123542354D01*
X218246031Y-123403005D01*
X218181895Y-123248169D01*
X218149200Y-123083797D01*
X218149200Y-122916203D01*
X218181895Y-122751831D01*
X218246031Y-122596995D01*
X218339140Y-122457646D01*
X218457646Y-122339140D01*
X218596995Y-122246031D01*
X218751831Y-122181895D01*
X218916203Y-122149200D01*
X219083797Y-122149200D01*
X219248169Y-122181895D01*
X219248169Y-122181895D01*
G37*
G36*
X206675800Y-123700800D02*
G01*
X205824200Y-123700800D01*
X205824200Y-122799200D01*
X206675800Y-122799200D01*
X206675800Y-123700800D01*
X206675800Y-123700800D01*
G37*
G36*
X204675800Y-123700800D02*
G01*
X203824200Y-123700800D01*
X203824200Y-122799200D01*
X204675800Y-122799200D01*
X204675800Y-123700800D01*
X204675800Y-123700800D01*
G37*
G36*
X206675800Y-122200800D02*
G01*
X205824200Y-122200800D01*
X205824200Y-121299200D01*
X206675800Y-121299200D01*
X206675800Y-122200800D01*
X206675800Y-122200800D01*
G37*
G36*
X204675800Y-122200800D02*
G01*
X203824200Y-122200800D01*
X203824200Y-121299200D01*
X204675800Y-121299200D01*
X204675800Y-122200800D01*
X204675800Y-122200800D01*
G37*
G36*
X219248169Y-120181895D02*
G01*
X219403005Y-120246031D01*
X219542354Y-120339140D01*
X219660860Y-120457646D01*
X219753969Y-120596995D01*
X219818105Y-120751831D01*
X219850800Y-120916203D01*
X219850800Y-121083797D01*
X219818105Y-121248169D01*
X219753969Y-121403005D01*
X219660860Y-121542354D01*
X219542354Y-121660860D01*
X219403005Y-121753969D01*
X219248169Y-121818105D01*
X219083797Y-121850800D01*
X218916203Y-121850800D01*
X218751831Y-121818105D01*
X218596995Y-121753969D01*
X218457646Y-121660860D01*
X218339140Y-121542354D01*
X218246031Y-121403005D01*
X218181895Y-121248169D01*
X218149200Y-121083797D01*
X218149200Y-120916203D01*
X218181895Y-120751831D01*
X218246031Y-120596995D01*
X218339140Y-120457646D01*
X218457646Y-120339140D01*
X218596995Y-120246031D01*
X218751831Y-120181895D01*
X218916203Y-120149200D01*
X219083797Y-120149200D01*
X219248169Y-120181895D01*
X219248169Y-120181895D01*
G37*
G36*
X187750800Y-118550800D02*
G01*
X186749200Y-118550800D01*
X186749200Y-117949200D01*
X187750800Y-117949200D01*
X187750800Y-118550800D01*
X187750800Y-118550800D01*
G37*
G36*
X182750800Y-118550800D02*
G01*
X181749200Y-118550800D01*
X181749200Y-117949200D01*
X182750800Y-117949200D01*
X182750800Y-118550800D01*
X182750800Y-118550800D01*
G37*
G36*
X180250800Y-118550800D02*
G01*
X179249200Y-118550800D01*
X179249200Y-117949200D01*
X180250800Y-117949200D01*
X180250800Y-118550800D01*
X180250800Y-118550800D01*
G37*
G36*
X190250800Y-118550800D02*
G01*
X189249200Y-118550800D01*
X189249200Y-117949200D01*
X190250800Y-117949200D01*
X190250800Y-118550800D01*
X190250800Y-118550800D01*
G37*
G36*
X172335675Y-114893424D02*
G01*
X172422425Y-114929357D01*
X172545108Y-114980174D01*
X172733592Y-115106115D01*
X172893885Y-115266408D01*
X173019826Y-115454892D01*
X173070643Y-115577575D01*
X173106576Y-115664325D01*
X173150800Y-115886655D01*
X173150800Y-116113345D01*
X173106576Y-116335675D01*
X173070643Y-116422425D01*
X173019826Y-116545108D01*
X172893885Y-116733592D01*
X172733592Y-116893885D01*
X172545108Y-117019826D01*
X172422425Y-117070643D01*
X172335675Y-117106576D01*
X172113345Y-117150800D01*
X171886655Y-117150800D01*
X171664325Y-117106576D01*
X171577575Y-117070643D01*
X171454892Y-117019826D01*
X171266408Y-116893885D01*
X171106115Y-116733592D01*
X170980174Y-116545108D01*
X170929357Y-116422425D01*
X170893424Y-116335675D01*
X170849200Y-116113345D01*
X170849200Y-115886655D01*
X170893424Y-115664325D01*
X170929357Y-115577575D01*
X170980174Y-115454892D01*
X171106115Y-115266408D01*
X171266408Y-115106115D01*
X171454892Y-114980174D01*
X171577575Y-114929357D01*
X171664325Y-114893424D01*
X171886655Y-114849200D01*
X172113345Y-114849200D01*
X172335675Y-114893424D01*
X172335675Y-114893424D01*
G37*
G36*
X216335675Y-114893424D02*
G01*
X216422425Y-114929357D01*
X216545108Y-114980174D01*
X216733592Y-115106115D01*
X216893885Y-115266408D01*
X217019826Y-115454892D01*
X217070643Y-115577575D01*
X217106576Y-115664325D01*
X217150800Y-115886655D01*
X217150800Y-116113345D01*
X217106576Y-116335675D01*
X217070643Y-116422425D01*
X217019826Y-116545108D01*
X216893885Y-116733592D01*
X216733592Y-116893885D01*
X216545108Y-117019826D01*
X216422425Y-117070643D01*
X216335675Y-117106576D01*
X216113345Y-117150800D01*
X215886655Y-117150800D01*
X215664325Y-117106576D01*
X215577575Y-117070643D01*
X215454892Y-117019826D01*
X215266408Y-116893885D01*
X215106115Y-116733592D01*
X214980174Y-116545108D01*
X214929357Y-116422425D01*
X214893424Y-116335675D01*
X214849200Y-116113345D01*
X214849200Y-115886655D01*
X214893424Y-115664325D01*
X214929357Y-115577575D01*
X214980174Y-115454892D01*
X215106115Y-115266408D01*
X215266408Y-115106115D01*
X215454892Y-114980174D01*
X215577575Y-114929357D01*
X215664325Y-114893424D01*
X215886655Y-114849200D01*
X216113345Y-114849200D01*
X216335675Y-114893424D01*
X216335675Y-114893424D01*
G37*
G36*
X182750800Y-117050800D02*
G01*
X181749200Y-117050800D01*
X181749200Y-116449200D01*
X182750800Y-116449200D01*
X182750800Y-117050800D01*
X182750800Y-117050800D01*
G37*
G36*
X180250800Y-117050800D02*
G01*
X179249200Y-117050800D01*
X179249200Y-116449200D01*
X180250800Y-116449200D01*
X180250800Y-117050800D01*
X180250800Y-117050800D01*
G37*
G36*
X190250800Y-117050800D02*
G01*
X189249200Y-117050800D01*
X189249200Y-116449200D01*
X190250800Y-116449200D01*
X190250800Y-117050800D01*
X190250800Y-117050800D01*
G37*
G36*
X187750800Y-117050800D02*
G01*
X186749200Y-117050800D01*
X186749200Y-116449200D01*
X187750800Y-116449200D01*
X187750800Y-117050800D01*
X187750800Y-117050800D01*
G37*
M02*
