M48
INCH,TZ
T1C0.0157
T2C0.0472
%
G90
G05
T1
X70768Y-44980
X71752Y-44980
X71752Y-53051
X73720Y-44980
X73720Y-53051
X74705Y-44980
X74803Y-53051
X75000Y-48917
X75295Y-49213
X75295Y-50984
X75689Y-50886
X75984Y-51575
X76378Y-51673
X77756Y-43898
X80807Y-50197
X80807Y-50591
X81890Y-54429
X82087Y-49803
X82087Y-52067
X82087Y-52657
X82283Y-52362
X82677Y-49606
X82874Y-50689
X82874Y-54331
X83071Y-54035
X83169Y-49311
X83957Y-52559
X84547Y-49016
X84843Y-50197
X85138Y-49803
T2
X86417Y-46937
X86417Y-47937
X86417Y-48937
X86417Y-49937
X86417Y-50937
X86417Y-51937
X86417Y-52937
X86417Y-53937
T0
M30
