G04 #@! TF.GenerationSoftware,KiCad,Pcbnew,(5.1.9)-1*
G04 #@! TF.CreationDate,2021-02-18T19:59:53-05:00*
G04 #@! TF.ProjectId,Dash_Warning_Panel,44617368-5f57-4617-926e-696e675f5061,rev?*
G04 #@! TF.SameCoordinates,Original*
G04 #@! TF.FileFunction,Legend,Top*
G04 #@! TF.FilePolarity,Positive*
%FSLAX46Y46*%
G04 Gerber Fmt 4.6, Leading zero omitted, Abs format (unit mm)*
G04 Created by KiCad (PCBNEW (5.1.9)-1) date 2021-02-18 19:59:53*
%MOMM*%
%LPD*%
G01*
G04 APERTURE LIST*
%ADD10C,0.200000*%
%ADD11C,0.120000*%
%ADD12C,0.150000*%
%ADD13C,1.701600*%
%ADD14C,1.351600*%
%ADD15C,2.301600*%
G04 APERTURE END LIST*
D10*
X203195000Y-114152000D02*
G75*
G03*
X203195000Y-114152000I-100000J0D01*
G01*
D11*
X203400000Y-114700000D02*
X203400000Y-119700000D01*
X206600000Y-114700000D02*
X206600000Y-119700000D01*
X206600000Y-114700000D02*
X203400000Y-114700000D01*
X203400000Y-119700000D02*
X206600000Y-119700000D01*
X209500000Y-117270000D02*
X211500000Y-117270000D01*
X211500000Y-120230000D02*
X209500000Y-120230000D01*
D12*
X190881000Y-114554000D02*
X191516000Y-114554000D01*
X191516000Y-114554000D02*
X191516000Y-134366000D01*
X191516000Y-134366000D02*
X190754000Y-134366000D01*
X190754000Y-134620000D02*
X191770000Y-134620000D01*
X191770000Y-134620000D02*
X191770000Y-133731000D01*
X178816000Y-134366000D02*
X178054000Y-134366000D01*
X178054000Y-134366000D02*
X178054000Y-114554000D01*
X178054000Y-114554000D02*
X178816000Y-114554000D01*
D11*
X216400000Y-134600000D02*
X216400000Y-133900000D01*
X217600000Y-133900000D02*
X217600000Y-134600000D01*
X209550000Y-138600000D02*
X210250000Y-138600000D01*
X210250000Y-139800000D02*
X209550000Y-139800000D01*
X198900000Y-110900000D02*
X199600000Y-110900000D01*
X199600000Y-112100000D02*
X198900000Y-112100000D01*
X211150000Y-132900000D02*
X211850000Y-132900000D01*
X211850000Y-134100000D02*
X211150000Y-134100000D01*
X214850000Y-127100000D02*
X214150000Y-127100000D01*
X214150000Y-125900000D02*
X214850000Y-125900000D01*
X214110000Y-130900000D02*
X214110000Y-129100000D01*
X210890000Y-129100000D02*
X210890000Y-131550000D01*
X195035000Y-116625000D02*
X199085000Y-116625000D01*
X195035000Y-118325000D02*
X199085000Y-118325000D01*
X194985000Y-116625000D02*
X194985000Y-118325000D01*
X199985000Y-125825000D02*
X199985000Y-124125000D01*
X199935000Y-124125000D02*
X195885000Y-124125000D01*
X199935000Y-125825000D02*
X195885000Y-125825000D01*
X207450000Y-125850000D02*
X203400000Y-125850000D01*
X207450000Y-124150000D02*
X203400000Y-124150000D01*
X207500000Y-125850000D02*
X207500000Y-124150000D01*
X199985000Y-133325000D02*
X199985000Y-131625000D01*
X199935000Y-131625000D02*
X195885000Y-131625000D01*
X199935000Y-133325000D02*
X195885000Y-133325000D01*
X207500000Y-133350000D02*
X207500000Y-131650000D01*
X207450000Y-131650000D02*
X203400000Y-131650000D01*
X207450000Y-133350000D02*
X203400000Y-133350000D01*
X199550000Y-138350000D02*
X203600000Y-138350000D01*
X199550000Y-140050000D02*
X203600000Y-140050000D01*
X199500000Y-138350000D02*
X199500000Y-140050000D01*
X191475000Y-138250000D02*
X191475000Y-139950000D01*
X191525000Y-139950000D02*
X195575000Y-139950000D01*
X191525000Y-138250000D02*
X195575000Y-138250000D01*
X183500000Y-138250000D02*
X187550000Y-138250000D01*
X183500000Y-139950000D02*
X187550000Y-139950000D01*
X183450000Y-138250000D02*
X183450000Y-139950000D01*
X199000000Y-115180000D02*
X198000000Y-115180000D01*
X198000000Y-113820000D02*
X199000000Y-113820000D01*
X198500000Y-122320000D02*
X199500000Y-122320000D01*
X199500000Y-123680000D02*
X198500000Y-123680000D01*
X209680000Y-123000000D02*
X209680000Y-124000000D01*
X208320000Y-124000000D02*
X208320000Y-123000000D01*
X199500000Y-130680000D02*
X198500000Y-130680000D01*
X198500000Y-129320000D02*
X199500000Y-129320000D01*
X207250000Y-129320000D02*
X208250000Y-129320000D01*
X208250000Y-130680000D02*
X207250000Y-130680000D01*
X199500000Y-141320000D02*
X200500000Y-141320000D01*
X200500000Y-142680000D02*
X199500000Y-142680000D01*
X192500000Y-142680000D02*
X191500000Y-142680000D01*
X191500000Y-141320000D02*
X192500000Y-141320000D01*
X184500000Y-142680000D02*
X183500000Y-142680000D01*
X183500000Y-141320000D02*
X184500000Y-141320000D01*
X211250000Y-125820000D02*
X212250000Y-125820000D01*
X212250000Y-127180000D02*
X211250000Y-127180000D01*
D12*
X200261904Y-120652380D02*
X200261904Y-119652380D01*
X200500000Y-119652380D01*
X200642857Y-119700000D01*
X200738095Y-119795238D01*
X200785714Y-119890476D01*
X200833333Y-120080952D01*
X200833333Y-120223809D01*
X200785714Y-120414285D01*
X200738095Y-120509523D01*
X200642857Y-120604761D01*
X200500000Y-120652380D01*
X200261904Y-120652380D01*
X201785714Y-120652380D02*
X201214285Y-120652380D01*
X201500000Y-120652380D02*
X201500000Y-119652380D01*
X201404761Y-119795238D01*
X201309523Y-119890476D01*
X201214285Y-119938095D01*
X210333333Y-116657380D02*
X210000000Y-116181190D01*
X209761904Y-116657380D02*
X209761904Y-115657380D01*
X210142857Y-115657380D01*
X210238095Y-115705000D01*
X210285714Y-115752619D01*
X210333333Y-115847857D01*
X210333333Y-115990714D01*
X210285714Y-116085952D01*
X210238095Y-116133571D01*
X210142857Y-116181190D01*
X209761904Y-116181190D01*
X211285714Y-116657380D02*
X210714285Y-116657380D01*
X211000000Y-116657380D02*
X211000000Y-115657380D01*
X210904761Y-115800238D01*
X210809523Y-115895476D01*
X210714285Y-115943095D01*
X188777714Y-113609380D02*
X188777714Y-112609380D01*
X189015809Y-112609380D01*
X189158666Y-112657000D01*
X189253904Y-112752238D01*
X189301523Y-112847476D01*
X189349142Y-113037952D01*
X189349142Y-113180809D01*
X189301523Y-113371285D01*
X189253904Y-113466523D01*
X189158666Y-113561761D01*
X189015809Y-113609380D01*
X188777714Y-113609380D01*
X190301523Y-113609380D02*
X189730095Y-113609380D01*
X190015809Y-113609380D02*
X190015809Y-112609380D01*
X189920571Y-112752238D01*
X189825333Y-112847476D01*
X189730095Y-112895095D01*
X190920571Y-112609380D02*
X191015809Y-112609380D01*
X191111047Y-112657000D01*
X191158666Y-112704619D01*
X191206285Y-112799857D01*
X191253904Y-112990333D01*
X191253904Y-113228428D01*
X191206285Y-113418904D01*
X191158666Y-113514142D01*
X191111047Y-113561761D01*
X191015809Y-113609380D01*
X190920571Y-113609380D01*
X190825333Y-113561761D01*
X190777714Y-113514142D01*
X190730095Y-113418904D01*
X190682476Y-113228428D01*
X190682476Y-112990333D01*
X190730095Y-112799857D01*
X190777714Y-112704619D01*
X190825333Y-112657000D01*
X190920571Y-112609380D01*
X216833333Y-132207142D02*
X216785714Y-132254761D01*
X216642857Y-132302380D01*
X216547619Y-132302380D01*
X216404761Y-132254761D01*
X216309523Y-132159523D01*
X216261904Y-132064285D01*
X216214285Y-131873809D01*
X216214285Y-131730952D01*
X216261904Y-131540476D01*
X216309523Y-131445238D01*
X216404761Y-131350000D01*
X216547619Y-131302380D01*
X216642857Y-131302380D01*
X216785714Y-131350000D01*
X216833333Y-131397619D01*
X217785714Y-132302380D02*
X217214285Y-132302380D01*
X217500000Y-132302380D02*
X217500000Y-131302380D01*
X217404761Y-131445238D01*
X217309523Y-131540476D01*
X217214285Y-131588095D01*
X209473333Y-137832142D02*
X209425714Y-137879761D01*
X209282857Y-137927380D01*
X209187619Y-137927380D01*
X209044761Y-137879761D01*
X208949523Y-137784523D01*
X208901904Y-137689285D01*
X208854285Y-137498809D01*
X208854285Y-137355952D01*
X208901904Y-137165476D01*
X208949523Y-137070238D01*
X209044761Y-136975000D01*
X209187619Y-136927380D01*
X209282857Y-136927380D01*
X209425714Y-136975000D01*
X209473333Y-137022619D01*
X209854285Y-137022619D02*
X209901904Y-136975000D01*
X209997142Y-136927380D01*
X210235238Y-136927380D01*
X210330476Y-136975000D01*
X210378095Y-137022619D01*
X210425714Y-137117857D01*
X210425714Y-137213095D01*
X210378095Y-137355952D01*
X209806666Y-137927380D01*
X210425714Y-137927380D01*
X194778333Y-111857142D02*
X194730714Y-111904761D01*
X194587857Y-111952380D01*
X194492619Y-111952380D01*
X194349761Y-111904761D01*
X194254523Y-111809523D01*
X194206904Y-111714285D01*
X194159285Y-111523809D01*
X194159285Y-111380952D01*
X194206904Y-111190476D01*
X194254523Y-111095238D01*
X194349761Y-111000000D01*
X194492619Y-110952380D01*
X194587857Y-110952380D01*
X194730714Y-111000000D01*
X194778333Y-111047619D01*
X195635476Y-111285714D02*
X195635476Y-111952380D01*
X195397380Y-110904761D02*
X195159285Y-111619047D01*
X195778333Y-111619047D01*
X211333333Y-135607142D02*
X211285714Y-135654761D01*
X211142857Y-135702380D01*
X211047619Y-135702380D01*
X210904761Y-135654761D01*
X210809523Y-135559523D01*
X210761904Y-135464285D01*
X210714285Y-135273809D01*
X210714285Y-135130952D01*
X210761904Y-134940476D01*
X210809523Y-134845238D01*
X210904761Y-134750000D01*
X211047619Y-134702380D01*
X211142857Y-134702380D01*
X211285714Y-134750000D01*
X211333333Y-134797619D01*
X212238095Y-134702380D02*
X211761904Y-134702380D01*
X211714285Y-135178571D01*
X211761904Y-135130952D01*
X211857142Y-135083333D01*
X212095238Y-135083333D01*
X212190476Y-135130952D01*
X212238095Y-135178571D01*
X212285714Y-135273809D01*
X212285714Y-135511904D01*
X212238095Y-135607142D01*
X212190476Y-135654761D01*
X212095238Y-135702380D01*
X211857142Y-135702380D01*
X211761904Y-135654761D01*
X211714285Y-135607142D01*
X214833333Y-125107142D02*
X214785714Y-125154761D01*
X214642857Y-125202380D01*
X214547619Y-125202380D01*
X214404761Y-125154761D01*
X214309523Y-125059523D01*
X214261904Y-124964285D01*
X214214285Y-124773809D01*
X214214285Y-124630952D01*
X214261904Y-124440476D01*
X214309523Y-124345238D01*
X214404761Y-124250000D01*
X214547619Y-124202380D01*
X214642857Y-124202380D01*
X214785714Y-124250000D01*
X214833333Y-124297619D01*
X215690476Y-124202380D02*
X215500000Y-124202380D01*
X215404761Y-124250000D01*
X215357142Y-124297619D01*
X215261904Y-124440476D01*
X215214285Y-124630952D01*
X215214285Y-125011904D01*
X215261904Y-125107142D01*
X215309523Y-125154761D01*
X215404761Y-125202380D01*
X215595238Y-125202380D01*
X215690476Y-125154761D01*
X215738095Y-125107142D01*
X215785714Y-125011904D01*
X215785714Y-124773809D01*
X215738095Y-124678571D01*
X215690476Y-124630952D01*
X215595238Y-124583333D01*
X215404761Y-124583333D01*
X215309523Y-124630952D01*
X215261904Y-124678571D01*
X215214285Y-124773809D01*
X214738095Y-129452380D02*
X214738095Y-130261904D01*
X214785714Y-130357142D01*
X214833333Y-130404761D01*
X214928571Y-130452380D01*
X215119047Y-130452380D01*
X215214285Y-130404761D01*
X215261904Y-130357142D01*
X215309523Y-130261904D01*
X215309523Y-129452380D01*
X215738095Y-129547619D02*
X215785714Y-129500000D01*
X215880952Y-129452380D01*
X216119047Y-129452380D01*
X216214285Y-129500000D01*
X216261904Y-129547619D01*
X216309523Y-129642857D01*
X216309523Y-129738095D01*
X216261904Y-129880952D01*
X215690476Y-130452380D01*
X216309523Y-130452380D01*
X196746904Y-116327380D02*
X196746904Y-115327380D01*
X196985000Y-115327380D01*
X197127857Y-115375000D01*
X197223095Y-115470238D01*
X197270714Y-115565476D01*
X197318333Y-115755952D01*
X197318333Y-115898809D01*
X197270714Y-116089285D01*
X197223095Y-116184523D01*
X197127857Y-116279761D01*
X196985000Y-116327380D01*
X196746904Y-116327380D01*
X197699285Y-115422619D02*
X197746904Y-115375000D01*
X197842142Y-115327380D01*
X198080238Y-115327380D01*
X198175476Y-115375000D01*
X198223095Y-115422619D01*
X198270714Y-115517857D01*
X198270714Y-115613095D01*
X198223095Y-115755952D01*
X197651666Y-116327380D01*
X198270714Y-116327380D01*
X196746904Y-127027380D02*
X196746904Y-126027380D01*
X196985000Y-126027380D01*
X197127857Y-126075000D01*
X197223095Y-126170238D01*
X197270714Y-126265476D01*
X197318333Y-126455952D01*
X197318333Y-126598809D01*
X197270714Y-126789285D01*
X197223095Y-126884523D01*
X197127857Y-126979761D01*
X196985000Y-127027380D01*
X196746904Y-127027380D01*
X197651666Y-126027380D02*
X198270714Y-126027380D01*
X197937380Y-126408333D01*
X198080238Y-126408333D01*
X198175476Y-126455952D01*
X198223095Y-126503571D01*
X198270714Y-126598809D01*
X198270714Y-126836904D01*
X198223095Y-126932142D01*
X198175476Y-126979761D01*
X198080238Y-127027380D01*
X197794523Y-127027380D01*
X197699285Y-126979761D01*
X197651666Y-126932142D01*
X204261904Y-127052380D02*
X204261904Y-126052380D01*
X204500000Y-126052380D01*
X204642857Y-126100000D01*
X204738095Y-126195238D01*
X204785714Y-126290476D01*
X204833333Y-126480952D01*
X204833333Y-126623809D01*
X204785714Y-126814285D01*
X204738095Y-126909523D01*
X204642857Y-127004761D01*
X204500000Y-127052380D01*
X204261904Y-127052380D01*
X205690476Y-126385714D02*
X205690476Y-127052380D01*
X205452380Y-126004761D02*
X205214285Y-126719047D01*
X205833333Y-126719047D01*
X196746904Y-134527380D02*
X196746904Y-133527380D01*
X196985000Y-133527380D01*
X197127857Y-133575000D01*
X197223095Y-133670238D01*
X197270714Y-133765476D01*
X197318333Y-133955952D01*
X197318333Y-134098809D01*
X197270714Y-134289285D01*
X197223095Y-134384523D01*
X197127857Y-134479761D01*
X196985000Y-134527380D01*
X196746904Y-134527380D01*
X198223095Y-133527380D02*
X197746904Y-133527380D01*
X197699285Y-134003571D01*
X197746904Y-133955952D01*
X197842142Y-133908333D01*
X198080238Y-133908333D01*
X198175476Y-133955952D01*
X198223095Y-134003571D01*
X198270714Y-134098809D01*
X198270714Y-134336904D01*
X198223095Y-134432142D01*
X198175476Y-134479761D01*
X198080238Y-134527380D01*
X197842142Y-134527380D01*
X197746904Y-134479761D01*
X197699285Y-134432142D01*
X204261904Y-134552380D02*
X204261904Y-133552380D01*
X204500000Y-133552380D01*
X204642857Y-133600000D01*
X204738095Y-133695238D01*
X204785714Y-133790476D01*
X204833333Y-133980952D01*
X204833333Y-134123809D01*
X204785714Y-134314285D01*
X204738095Y-134409523D01*
X204642857Y-134504761D01*
X204500000Y-134552380D01*
X204261904Y-134552380D01*
X205690476Y-133552380D02*
X205500000Y-133552380D01*
X205404761Y-133600000D01*
X205357142Y-133647619D01*
X205261904Y-133790476D01*
X205214285Y-133980952D01*
X205214285Y-134361904D01*
X205261904Y-134457142D01*
X205309523Y-134504761D01*
X205404761Y-134552380D01*
X205595238Y-134552380D01*
X205690476Y-134504761D01*
X205738095Y-134457142D01*
X205785714Y-134361904D01*
X205785714Y-134123809D01*
X205738095Y-134028571D01*
X205690476Y-133980952D01*
X205595238Y-133933333D01*
X205404761Y-133933333D01*
X205309523Y-133980952D01*
X205261904Y-134028571D01*
X205214285Y-134123809D01*
X201261904Y-138052380D02*
X201261904Y-137052380D01*
X201500000Y-137052380D01*
X201642857Y-137100000D01*
X201738095Y-137195238D01*
X201785714Y-137290476D01*
X201833333Y-137480952D01*
X201833333Y-137623809D01*
X201785714Y-137814285D01*
X201738095Y-137909523D01*
X201642857Y-138004761D01*
X201500000Y-138052380D01*
X201261904Y-138052380D01*
X202166666Y-137052380D02*
X202833333Y-137052380D01*
X202404761Y-138052380D01*
X193236904Y-137952380D02*
X193236904Y-136952380D01*
X193475000Y-136952380D01*
X193617857Y-137000000D01*
X193713095Y-137095238D01*
X193760714Y-137190476D01*
X193808333Y-137380952D01*
X193808333Y-137523809D01*
X193760714Y-137714285D01*
X193713095Y-137809523D01*
X193617857Y-137904761D01*
X193475000Y-137952380D01*
X193236904Y-137952380D01*
X194379761Y-137380952D02*
X194284523Y-137333333D01*
X194236904Y-137285714D01*
X194189285Y-137190476D01*
X194189285Y-137142857D01*
X194236904Y-137047619D01*
X194284523Y-137000000D01*
X194379761Y-136952380D01*
X194570238Y-136952380D01*
X194665476Y-137000000D01*
X194713095Y-137047619D01*
X194760714Y-137142857D01*
X194760714Y-137190476D01*
X194713095Y-137285714D01*
X194665476Y-137333333D01*
X194570238Y-137380952D01*
X194379761Y-137380952D01*
X194284523Y-137428571D01*
X194236904Y-137476190D01*
X194189285Y-137571428D01*
X194189285Y-137761904D01*
X194236904Y-137857142D01*
X194284523Y-137904761D01*
X194379761Y-137952380D01*
X194570238Y-137952380D01*
X194665476Y-137904761D01*
X194713095Y-137857142D01*
X194760714Y-137761904D01*
X194760714Y-137571428D01*
X194713095Y-137476190D01*
X194665476Y-137428571D01*
X194570238Y-137380952D01*
X185211904Y-137952380D02*
X185211904Y-136952380D01*
X185450000Y-136952380D01*
X185592857Y-137000000D01*
X185688095Y-137095238D01*
X185735714Y-137190476D01*
X185783333Y-137380952D01*
X185783333Y-137523809D01*
X185735714Y-137714285D01*
X185688095Y-137809523D01*
X185592857Y-137904761D01*
X185450000Y-137952380D01*
X185211904Y-137952380D01*
X186259523Y-137952380D02*
X186450000Y-137952380D01*
X186545238Y-137904761D01*
X186592857Y-137857142D01*
X186688095Y-137714285D01*
X186735714Y-137523809D01*
X186735714Y-137142857D01*
X186688095Y-137047619D01*
X186640476Y-137000000D01*
X186545238Y-136952380D01*
X186354761Y-136952380D01*
X186259523Y-137000000D01*
X186211904Y-137047619D01*
X186164285Y-137142857D01*
X186164285Y-137380952D01*
X186211904Y-137476190D01*
X186259523Y-137523809D01*
X186354761Y-137571428D01*
X186545238Y-137571428D01*
X186640476Y-137523809D01*
X186688095Y-137476190D01*
X186735714Y-137380952D01*
X198333333Y-116402380D02*
X198000000Y-115926190D01*
X197761904Y-116402380D02*
X197761904Y-115402380D01*
X198142857Y-115402380D01*
X198238095Y-115450000D01*
X198285714Y-115497619D01*
X198333333Y-115592857D01*
X198333333Y-115735714D01*
X198285714Y-115830952D01*
X198238095Y-115878571D01*
X198142857Y-115926190D01*
X197761904Y-115926190D01*
X198714285Y-115497619D02*
X198761904Y-115450000D01*
X198857142Y-115402380D01*
X199095238Y-115402380D01*
X199190476Y-115450000D01*
X199238095Y-115497619D01*
X199285714Y-115592857D01*
X199285714Y-115688095D01*
X199238095Y-115830952D01*
X198666666Y-116402380D01*
X199285714Y-116402380D01*
X198833333Y-122002380D02*
X198500000Y-121526190D01*
X198261904Y-122002380D02*
X198261904Y-121002380D01*
X198642857Y-121002380D01*
X198738095Y-121050000D01*
X198785714Y-121097619D01*
X198833333Y-121192857D01*
X198833333Y-121335714D01*
X198785714Y-121430952D01*
X198738095Y-121478571D01*
X198642857Y-121526190D01*
X198261904Y-121526190D01*
X199166666Y-121002380D02*
X199785714Y-121002380D01*
X199452380Y-121383333D01*
X199595238Y-121383333D01*
X199690476Y-121430952D01*
X199738095Y-121478571D01*
X199785714Y-121573809D01*
X199785714Y-121811904D01*
X199738095Y-121907142D01*
X199690476Y-121954761D01*
X199595238Y-122002380D01*
X199309523Y-122002380D01*
X199214285Y-121954761D01*
X199166666Y-121907142D01*
X210902380Y-123666666D02*
X210426190Y-124000000D01*
X210902380Y-124238095D02*
X209902380Y-124238095D01*
X209902380Y-123857142D01*
X209950000Y-123761904D01*
X209997619Y-123714285D01*
X210092857Y-123666666D01*
X210235714Y-123666666D01*
X210330952Y-123714285D01*
X210378571Y-123761904D01*
X210426190Y-123857142D01*
X210426190Y-124238095D01*
X210235714Y-122809523D02*
X210902380Y-122809523D01*
X209854761Y-123047619D02*
X210569047Y-123285714D01*
X210569047Y-122666666D01*
X198833333Y-129002380D02*
X198500000Y-128526190D01*
X198261904Y-129002380D02*
X198261904Y-128002380D01*
X198642857Y-128002380D01*
X198738095Y-128050000D01*
X198785714Y-128097619D01*
X198833333Y-128192857D01*
X198833333Y-128335714D01*
X198785714Y-128430952D01*
X198738095Y-128478571D01*
X198642857Y-128526190D01*
X198261904Y-128526190D01*
X199738095Y-128002380D02*
X199261904Y-128002380D01*
X199214285Y-128478571D01*
X199261904Y-128430952D01*
X199357142Y-128383333D01*
X199595238Y-128383333D01*
X199690476Y-128430952D01*
X199738095Y-128478571D01*
X199785714Y-128573809D01*
X199785714Y-128811904D01*
X199738095Y-128907142D01*
X199690476Y-128954761D01*
X199595238Y-129002380D01*
X199357142Y-129002380D01*
X199261904Y-128954761D01*
X199214285Y-128907142D01*
X207583333Y-131902380D02*
X207250000Y-131426190D01*
X207011904Y-131902380D02*
X207011904Y-130902380D01*
X207392857Y-130902380D01*
X207488095Y-130950000D01*
X207535714Y-130997619D01*
X207583333Y-131092857D01*
X207583333Y-131235714D01*
X207535714Y-131330952D01*
X207488095Y-131378571D01*
X207392857Y-131426190D01*
X207011904Y-131426190D01*
X208440476Y-130902380D02*
X208250000Y-130902380D01*
X208154761Y-130950000D01*
X208107142Y-130997619D01*
X208011904Y-131140476D01*
X207964285Y-131330952D01*
X207964285Y-131711904D01*
X208011904Y-131807142D01*
X208059523Y-131854761D01*
X208154761Y-131902380D01*
X208345238Y-131902380D01*
X208440476Y-131854761D01*
X208488095Y-131807142D01*
X208535714Y-131711904D01*
X208535714Y-131473809D01*
X208488095Y-131378571D01*
X208440476Y-131330952D01*
X208345238Y-131283333D01*
X208154761Y-131283333D01*
X208059523Y-131330952D01*
X208011904Y-131378571D01*
X207964285Y-131473809D01*
X202802380Y-142166666D02*
X202326190Y-142500000D01*
X202802380Y-142738095D02*
X201802380Y-142738095D01*
X201802380Y-142357142D01*
X201850000Y-142261904D01*
X201897619Y-142214285D01*
X201992857Y-142166666D01*
X202135714Y-142166666D01*
X202230952Y-142214285D01*
X202278571Y-142261904D01*
X202326190Y-142357142D01*
X202326190Y-142738095D01*
X201802380Y-141833333D02*
X201802380Y-141166666D01*
X202802380Y-141595238D01*
X194352380Y-142216666D02*
X193876190Y-142550000D01*
X194352380Y-142788095D02*
X193352380Y-142788095D01*
X193352380Y-142407142D01*
X193400000Y-142311904D01*
X193447619Y-142264285D01*
X193542857Y-142216666D01*
X193685714Y-142216666D01*
X193780952Y-142264285D01*
X193828571Y-142311904D01*
X193876190Y-142407142D01*
X193876190Y-142788095D01*
X193780952Y-141645238D02*
X193733333Y-141740476D01*
X193685714Y-141788095D01*
X193590476Y-141835714D01*
X193542857Y-141835714D01*
X193447619Y-141788095D01*
X193400000Y-141740476D01*
X193352380Y-141645238D01*
X193352380Y-141454761D01*
X193400000Y-141359523D01*
X193447619Y-141311904D01*
X193542857Y-141264285D01*
X193590476Y-141264285D01*
X193685714Y-141311904D01*
X193733333Y-141359523D01*
X193780952Y-141454761D01*
X193780952Y-141645238D01*
X193828571Y-141740476D01*
X193876190Y-141788095D01*
X193971428Y-141835714D01*
X194161904Y-141835714D01*
X194257142Y-141788095D01*
X194304761Y-141740476D01*
X194352380Y-141645238D01*
X194352380Y-141454761D01*
X194304761Y-141359523D01*
X194257142Y-141311904D01*
X194161904Y-141264285D01*
X193971428Y-141264285D01*
X193876190Y-141311904D01*
X193828571Y-141359523D01*
X193780952Y-141454761D01*
X186552380Y-142116666D02*
X186076190Y-142450000D01*
X186552380Y-142688095D02*
X185552380Y-142688095D01*
X185552380Y-142307142D01*
X185600000Y-142211904D01*
X185647619Y-142164285D01*
X185742857Y-142116666D01*
X185885714Y-142116666D01*
X185980952Y-142164285D01*
X186028571Y-142211904D01*
X186076190Y-142307142D01*
X186076190Y-142688095D01*
X186552380Y-141640476D02*
X186552380Y-141450000D01*
X186504761Y-141354761D01*
X186457142Y-141307142D01*
X186314285Y-141211904D01*
X186123809Y-141164285D01*
X185742857Y-141164285D01*
X185647619Y-141211904D01*
X185600000Y-141259523D01*
X185552380Y-141354761D01*
X185552380Y-141545238D01*
X185600000Y-141640476D01*
X185647619Y-141688095D01*
X185742857Y-141735714D01*
X185980952Y-141735714D01*
X186076190Y-141688095D01*
X186123809Y-141640476D01*
X186171428Y-141545238D01*
X186171428Y-141354761D01*
X186123809Y-141259523D01*
X186076190Y-141211904D01*
X185980952Y-141164285D01*
X211107142Y-125502380D02*
X210773809Y-125026190D01*
X210535714Y-125502380D02*
X210535714Y-124502380D01*
X210916666Y-124502380D01*
X211011904Y-124550000D01*
X211059523Y-124597619D01*
X211107142Y-124692857D01*
X211107142Y-124835714D01*
X211059523Y-124930952D01*
X211011904Y-124978571D01*
X210916666Y-125026190D01*
X210535714Y-125026190D01*
X212059523Y-125502380D02*
X211488095Y-125502380D01*
X211773809Y-125502380D02*
X211773809Y-124502380D01*
X211678571Y-124645238D01*
X211583333Y-124740476D01*
X211488095Y-124788095D01*
X212678571Y-124502380D02*
X212773809Y-124502380D01*
X212869047Y-124550000D01*
X212916666Y-124597619D01*
X212964285Y-124692857D01*
X213011904Y-124883333D01*
X213011904Y-125121428D01*
X212964285Y-125311904D01*
X212916666Y-125407142D01*
X212869047Y-125454761D01*
X212773809Y-125502380D01*
X212678571Y-125502380D01*
X212583333Y-125454761D01*
X212535714Y-125407142D01*
X212488095Y-125311904D01*
X212440476Y-125121428D01*
X212440476Y-124883333D01*
X212488095Y-124692857D01*
X212535714Y-124597619D01*
X212583333Y-124550000D01*
X212678571Y-124502380D01*
%LPC*%
G36*
G01*
X206500800Y-118050000D02*
X206500800Y-119650000D01*
G75*
G02*
X206450000Y-119700800I-50800J0D01*
G01*
X205650000Y-119700800D01*
G75*
G02*
X205599200Y-119650000I0J50800D01*
G01*
X205599200Y-118050000D01*
G75*
G02*
X205650000Y-117999200I50800J0D01*
G01*
X206450000Y-117999200D01*
G75*
G02*
X206500800Y-118050000I0J-50800D01*
G01*
G37*
G36*
G01*
X206500800Y-114750000D02*
X206500800Y-116350000D01*
G75*
G02*
X206450000Y-116400800I-50800J0D01*
G01*
X205650000Y-116400800D01*
G75*
G02*
X205599200Y-116350000I0J50800D01*
G01*
X205599200Y-114750000D01*
G75*
G02*
X205650000Y-114699200I50800J0D01*
G01*
X206450000Y-114699200D01*
G75*
G02*
X206500800Y-114750000I0J-50800D01*
G01*
G37*
G36*
G01*
X204400800Y-114750000D02*
X204400800Y-116350000D01*
G75*
G02*
X204350000Y-116400800I-50800J0D01*
G01*
X203550000Y-116400800D01*
G75*
G02*
X203499200Y-116350000I0J50800D01*
G01*
X203499200Y-114750000D01*
G75*
G02*
X203550000Y-114699200I50800J0D01*
G01*
X204350000Y-114699200D01*
G75*
G02*
X204400800Y-114750000I0J-50800D01*
G01*
G37*
G36*
G01*
X204400800Y-118050000D02*
X204400800Y-119650000D01*
G75*
G02*
X204350000Y-119700800I-50800J0D01*
G01*
X203550000Y-119700800D01*
G75*
G02*
X203499200Y-119650000I0J50800D01*
G01*
X203499200Y-118050000D01*
G75*
G02*
X203550000Y-117999200I50800J0D01*
G01*
X204350000Y-117999200D01*
G75*
G02*
X204400800Y-118050000I0J-50800D01*
G01*
G37*
G36*
G01*
X205350800Y-114750000D02*
X205350800Y-116350000D01*
G75*
G02*
X205300000Y-116400800I-50800J0D01*
G01*
X204700000Y-116400800D01*
G75*
G02*
X204649200Y-116350000I0J50800D01*
G01*
X204649200Y-114750000D01*
G75*
G02*
X204700000Y-114699200I50800J0D01*
G01*
X205300000Y-114699200D01*
G75*
G02*
X205350800Y-114750000I0J-50800D01*
G01*
G37*
G36*
G01*
X205350800Y-118050000D02*
X205350800Y-119650000D01*
G75*
G02*
X205300000Y-119700800I-50800J0D01*
G01*
X204700000Y-119700800D01*
G75*
G02*
X204649200Y-119650000I0J50800D01*
G01*
X204649200Y-118050000D01*
G75*
G02*
X204700000Y-117999200I50800J0D01*
G01*
X205300000Y-117999200D01*
G75*
G02*
X205350800Y-118050000I0J-50800D01*
G01*
G37*
D13*
X219000000Y-121000000D03*
X219000000Y-123000000D03*
X219000000Y-125000000D03*
X219000000Y-127000000D03*
X219000000Y-129000000D03*
X219000000Y-131000000D03*
X219000000Y-133000000D03*
X219000000Y-135000000D03*
G36*
G01*
X208549200Y-120000000D02*
X208549200Y-117500000D01*
G75*
G02*
X208600000Y-117449200I50800J0D01*
G01*
X209500000Y-117449200D01*
G75*
G02*
X209550800Y-117500000I0J-50800D01*
G01*
X209550800Y-120000000D01*
G75*
G02*
X209500000Y-120050800I-50800J0D01*
G01*
X208600000Y-120050800D01*
G75*
G02*
X208549200Y-120000000I0J50800D01*
G01*
G37*
G36*
G01*
X211449200Y-120000000D02*
X211449200Y-117500000D01*
G75*
G02*
X211500000Y-117449200I50800J0D01*
G01*
X212400000Y-117449200D01*
G75*
G02*
X212450800Y-117500000I0J-50800D01*
G01*
X212450800Y-120000000D01*
G75*
G02*
X212400000Y-120050800I-50800J0D01*
G01*
X211500000Y-120050800D01*
G75*
G02*
X211449200Y-120000000I0J50800D01*
G01*
G37*
D14*
X182245000Y-133960000D03*
X187325000Y-133960000D03*
X189865000Y-133960000D03*
X179705000Y-133960000D03*
X184785000Y-133960000D03*
X187325000Y-114960000D03*
X189865000Y-114960000D03*
X179705000Y-114960000D03*
X182245000Y-114960000D03*
X184785000Y-114960000D03*
D15*
X216000000Y-116000000D03*
X172000000Y-116000000D03*
X216000000Y-140000000D03*
X172000000Y-140000000D03*
G36*
G01*
X217375000Y-133950800D02*
X216625000Y-133950800D01*
G75*
G02*
X216574200Y-133900000I0J50800D01*
G01*
X216574200Y-133100000D01*
G75*
G02*
X216625000Y-133049200I50800J0D01*
G01*
X217375000Y-133049200D01*
G75*
G02*
X217425800Y-133100000I0J-50800D01*
G01*
X217425800Y-133900000D01*
G75*
G02*
X217375000Y-133950800I-50800J0D01*
G01*
G37*
G36*
G01*
X217375000Y-135450800D02*
X216625000Y-135450800D01*
G75*
G02*
X216574200Y-135400000I0J50800D01*
G01*
X216574200Y-134600000D01*
G75*
G02*
X216625000Y-134549200I50800J0D01*
G01*
X217375000Y-134549200D01*
G75*
G02*
X217425800Y-134600000I0J-50800D01*
G01*
X217425800Y-135400000D01*
G75*
G02*
X217375000Y-135450800I-50800J0D01*
G01*
G37*
G36*
G01*
X210199200Y-139575000D02*
X210199200Y-138825000D01*
G75*
G02*
X210250000Y-138774200I50800J0D01*
G01*
X211050000Y-138774200D01*
G75*
G02*
X211100800Y-138825000I0J-50800D01*
G01*
X211100800Y-139575000D01*
G75*
G02*
X211050000Y-139625800I-50800J0D01*
G01*
X210250000Y-139625800D01*
G75*
G02*
X210199200Y-139575000I0J50800D01*
G01*
G37*
G36*
G01*
X208699200Y-139575000D02*
X208699200Y-138825000D01*
G75*
G02*
X208750000Y-138774200I50800J0D01*
G01*
X209550000Y-138774200D01*
G75*
G02*
X209600800Y-138825000I0J-50800D01*
G01*
X209600800Y-139575000D01*
G75*
G02*
X209550000Y-139625800I-50800J0D01*
G01*
X208750000Y-139625800D01*
G75*
G02*
X208699200Y-139575000I0J50800D01*
G01*
G37*
G36*
G01*
X200450800Y-111125000D02*
X200450800Y-111875000D01*
G75*
G02*
X200400000Y-111925800I-50800J0D01*
G01*
X199600000Y-111925800D01*
G75*
G02*
X199549200Y-111875000I0J50800D01*
G01*
X199549200Y-111125000D01*
G75*
G02*
X199600000Y-111074200I50800J0D01*
G01*
X200400000Y-111074200D01*
G75*
G02*
X200450800Y-111125000I0J-50800D01*
G01*
G37*
G36*
G01*
X198950800Y-111125000D02*
X198950800Y-111875000D01*
G75*
G02*
X198900000Y-111925800I-50800J0D01*
G01*
X198100000Y-111925800D01*
G75*
G02*
X198049200Y-111875000I0J50800D01*
G01*
X198049200Y-111125000D01*
G75*
G02*
X198100000Y-111074200I50800J0D01*
G01*
X198900000Y-111074200D01*
G75*
G02*
X198950800Y-111125000I0J-50800D01*
G01*
G37*
G36*
G01*
X212700800Y-133125000D02*
X212700800Y-133875000D01*
G75*
G02*
X212650000Y-133925800I-50800J0D01*
G01*
X211850000Y-133925800D01*
G75*
G02*
X211799200Y-133875000I0J50800D01*
G01*
X211799200Y-133125000D01*
G75*
G02*
X211850000Y-133074200I50800J0D01*
G01*
X212650000Y-133074200D01*
G75*
G02*
X212700800Y-133125000I0J-50800D01*
G01*
G37*
G36*
G01*
X211200800Y-133125000D02*
X211200800Y-133875000D01*
G75*
G02*
X211150000Y-133925800I-50800J0D01*
G01*
X210350000Y-133925800D01*
G75*
G02*
X210299200Y-133875000I0J50800D01*
G01*
X210299200Y-133125000D01*
G75*
G02*
X210350000Y-133074200I50800J0D01*
G01*
X211150000Y-133074200D01*
G75*
G02*
X211200800Y-133125000I0J-50800D01*
G01*
G37*
G36*
G01*
X214200800Y-126125000D02*
X214200800Y-126875000D01*
G75*
G02*
X214150000Y-126925800I-50800J0D01*
G01*
X213350000Y-126925800D01*
G75*
G02*
X213299200Y-126875000I0J50800D01*
G01*
X213299200Y-126125000D01*
G75*
G02*
X213350000Y-126074200I50800J0D01*
G01*
X214150000Y-126074200D01*
G75*
G02*
X214200800Y-126125000I0J-50800D01*
G01*
G37*
G36*
G01*
X215700800Y-126125000D02*
X215700800Y-126875000D01*
G75*
G02*
X215650000Y-126925800I-50800J0D01*
G01*
X214850000Y-126925800D01*
G75*
G02*
X214799200Y-126875000I0J50800D01*
G01*
X214799200Y-126125000D01*
G75*
G02*
X214850000Y-126074200I50800J0D01*
G01*
X215650000Y-126074200D01*
G75*
G02*
X215700800Y-126125000I0J-50800D01*
G01*
G37*
G36*
G01*
X212825000Y-129480800D02*
X212175000Y-129480800D01*
G75*
G02*
X212124200Y-129430000I0J50800D01*
G01*
X212124200Y-128370000D01*
G75*
G02*
X212175000Y-128319200I50800J0D01*
G01*
X212825000Y-128319200D01*
G75*
G02*
X212875800Y-128370000I0J-50800D01*
G01*
X212875800Y-129430000D01*
G75*
G02*
X212825000Y-129480800I-50800J0D01*
G01*
G37*
G36*
G01*
X211875000Y-129480800D02*
X211225000Y-129480800D01*
G75*
G02*
X211174200Y-129430000I0J50800D01*
G01*
X211174200Y-128370000D01*
G75*
G02*
X211225000Y-128319200I50800J0D01*
G01*
X211875000Y-128319200D01*
G75*
G02*
X211925800Y-128370000I0J-50800D01*
G01*
X211925800Y-129430000D01*
G75*
G02*
X211875000Y-129480800I-50800J0D01*
G01*
G37*
G36*
G01*
X213775000Y-129480800D02*
X213125000Y-129480800D01*
G75*
G02*
X213074200Y-129430000I0J50800D01*
G01*
X213074200Y-128370000D01*
G75*
G02*
X213125000Y-128319200I50800J0D01*
G01*
X213775000Y-128319200D01*
G75*
G02*
X213825800Y-128370000I0J-50800D01*
G01*
X213825800Y-129430000D01*
G75*
G02*
X213775000Y-129480800I-50800J0D01*
G01*
G37*
G36*
G01*
X213775000Y-131680800D02*
X213125000Y-131680800D01*
G75*
G02*
X213074200Y-131630000I0J50800D01*
G01*
X213074200Y-130570000D01*
G75*
G02*
X213125000Y-130519200I50800J0D01*
G01*
X213775000Y-130519200D01*
G75*
G02*
X213825800Y-130570000I0J-50800D01*
G01*
X213825800Y-131630000D01*
G75*
G02*
X213775000Y-131680800I-50800J0D01*
G01*
G37*
G36*
G01*
X212825000Y-131680800D02*
X212175000Y-131680800D01*
G75*
G02*
X212124200Y-131630000I0J50800D01*
G01*
X212124200Y-130570000D01*
G75*
G02*
X212175000Y-130519200I50800J0D01*
G01*
X212825000Y-130519200D01*
G75*
G02*
X212875800Y-130570000I0J-50800D01*
G01*
X212875800Y-131630000D01*
G75*
G02*
X212825000Y-131680800I-50800J0D01*
G01*
G37*
G36*
G01*
X211875000Y-131680800D02*
X211225000Y-131680800D01*
G75*
G02*
X211174200Y-131630000I0J50800D01*
G01*
X211174200Y-130570000D01*
G75*
G02*
X211225000Y-130519200I50800J0D01*
G01*
X211875000Y-130519200D01*
G75*
G02*
X211925800Y-130570000I0J-50800D01*
G01*
X211925800Y-131630000D01*
G75*
G02*
X211875000Y-131680800I-50800J0D01*
G01*
G37*
G36*
G01*
X199935800Y-116725000D02*
X199935800Y-118225000D01*
G75*
G02*
X199885000Y-118275800I-50800J0D01*
G01*
X198385000Y-118275800D01*
G75*
G02*
X198334200Y-118225000I0J50800D01*
G01*
X198334200Y-116725000D01*
G75*
G02*
X198385000Y-116674200I50800J0D01*
G01*
X199885000Y-116674200D01*
G75*
G02*
X199935800Y-116725000I0J-50800D01*
G01*
G37*
G36*
G01*
X196635800Y-116725000D02*
X196635800Y-118225000D01*
G75*
G02*
X196585000Y-118275800I-50800J0D01*
G01*
X195085000Y-118275800D01*
G75*
G02*
X195034200Y-118225000I0J50800D01*
G01*
X195034200Y-116725000D01*
G75*
G02*
X195085000Y-116674200I50800J0D01*
G01*
X196585000Y-116674200D01*
G75*
G02*
X196635800Y-116725000I0J-50800D01*
G01*
G37*
G36*
G01*
X198334200Y-125725000D02*
X198334200Y-124225000D01*
G75*
G02*
X198385000Y-124174200I50800J0D01*
G01*
X199885000Y-124174200D01*
G75*
G02*
X199935800Y-124225000I0J-50800D01*
G01*
X199935800Y-125725000D01*
G75*
G02*
X199885000Y-125775800I-50800J0D01*
G01*
X198385000Y-125775800D01*
G75*
G02*
X198334200Y-125725000I0J50800D01*
G01*
G37*
G36*
G01*
X195034200Y-125725000D02*
X195034200Y-124225000D01*
G75*
G02*
X195085000Y-124174200I50800J0D01*
G01*
X196585000Y-124174200D01*
G75*
G02*
X196635800Y-124225000I0J-50800D01*
G01*
X196635800Y-125725000D01*
G75*
G02*
X196585000Y-125775800I-50800J0D01*
G01*
X195085000Y-125775800D01*
G75*
G02*
X195034200Y-125725000I0J50800D01*
G01*
G37*
G36*
G01*
X202549200Y-125750000D02*
X202549200Y-124250000D01*
G75*
G02*
X202600000Y-124199200I50800J0D01*
G01*
X204100000Y-124199200D01*
G75*
G02*
X204150800Y-124250000I0J-50800D01*
G01*
X204150800Y-125750000D01*
G75*
G02*
X204100000Y-125800800I-50800J0D01*
G01*
X202600000Y-125800800D01*
G75*
G02*
X202549200Y-125750000I0J50800D01*
G01*
G37*
G36*
G01*
X205849200Y-125750000D02*
X205849200Y-124250000D01*
G75*
G02*
X205900000Y-124199200I50800J0D01*
G01*
X207400000Y-124199200D01*
G75*
G02*
X207450800Y-124250000I0J-50800D01*
G01*
X207450800Y-125750000D01*
G75*
G02*
X207400000Y-125800800I-50800J0D01*
G01*
X205900000Y-125800800D01*
G75*
G02*
X205849200Y-125750000I0J50800D01*
G01*
G37*
G36*
G01*
X198334200Y-133225000D02*
X198334200Y-131725000D01*
G75*
G02*
X198385000Y-131674200I50800J0D01*
G01*
X199885000Y-131674200D01*
G75*
G02*
X199935800Y-131725000I0J-50800D01*
G01*
X199935800Y-133225000D01*
G75*
G02*
X199885000Y-133275800I-50800J0D01*
G01*
X198385000Y-133275800D01*
G75*
G02*
X198334200Y-133225000I0J50800D01*
G01*
G37*
G36*
G01*
X195034200Y-133225000D02*
X195034200Y-131725000D01*
G75*
G02*
X195085000Y-131674200I50800J0D01*
G01*
X196585000Y-131674200D01*
G75*
G02*
X196635800Y-131725000I0J-50800D01*
G01*
X196635800Y-133225000D01*
G75*
G02*
X196585000Y-133275800I-50800J0D01*
G01*
X195085000Y-133275800D01*
G75*
G02*
X195034200Y-133225000I0J50800D01*
G01*
G37*
G36*
G01*
X205849200Y-133250000D02*
X205849200Y-131750000D01*
G75*
G02*
X205900000Y-131699200I50800J0D01*
G01*
X207400000Y-131699200D01*
G75*
G02*
X207450800Y-131750000I0J-50800D01*
G01*
X207450800Y-133250000D01*
G75*
G02*
X207400000Y-133300800I-50800J0D01*
G01*
X205900000Y-133300800D01*
G75*
G02*
X205849200Y-133250000I0J50800D01*
G01*
G37*
G36*
G01*
X202549200Y-133250000D02*
X202549200Y-131750000D01*
G75*
G02*
X202600000Y-131699200I50800J0D01*
G01*
X204100000Y-131699200D01*
G75*
G02*
X204150800Y-131750000I0J-50800D01*
G01*
X204150800Y-133250000D01*
G75*
G02*
X204100000Y-133300800I-50800J0D01*
G01*
X202600000Y-133300800D01*
G75*
G02*
X202549200Y-133250000I0J50800D01*
G01*
G37*
G36*
G01*
X204450800Y-138450000D02*
X204450800Y-139950000D01*
G75*
G02*
X204400000Y-140000800I-50800J0D01*
G01*
X202900000Y-140000800D01*
G75*
G02*
X202849200Y-139950000I0J50800D01*
G01*
X202849200Y-138450000D01*
G75*
G02*
X202900000Y-138399200I50800J0D01*
G01*
X204400000Y-138399200D01*
G75*
G02*
X204450800Y-138450000I0J-50800D01*
G01*
G37*
G36*
G01*
X201150800Y-138450000D02*
X201150800Y-139950000D01*
G75*
G02*
X201100000Y-140000800I-50800J0D01*
G01*
X199600000Y-140000800D01*
G75*
G02*
X199549200Y-139950000I0J50800D01*
G01*
X199549200Y-138450000D01*
G75*
G02*
X199600000Y-138399200I50800J0D01*
G01*
X201100000Y-138399200D01*
G75*
G02*
X201150800Y-138450000I0J-50800D01*
G01*
G37*
G36*
G01*
X193125800Y-138350000D02*
X193125800Y-139850000D01*
G75*
G02*
X193075000Y-139900800I-50800J0D01*
G01*
X191575000Y-139900800D01*
G75*
G02*
X191524200Y-139850000I0J50800D01*
G01*
X191524200Y-138350000D01*
G75*
G02*
X191575000Y-138299200I50800J0D01*
G01*
X193075000Y-138299200D01*
G75*
G02*
X193125800Y-138350000I0J-50800D01*
G01*
G37*
G36*
G01*
X196425800Y-138350000D02*
X196425800Y-139850000D01*
G75*
G02*
X196375000Y-139900800I-50800J0D01*
G01*
X194875000Y-139900800D01*
G75*
G02*
X194824200Y-139850000I0J50800D01*
G01*
X194824200Y-138350000D01*
G75*
G02*
X194875000Y-138299200I50800J0D01*
G01*
X196375000Y-138299200D01*
G75*
G02*
X196425800Y-138350000I0J-50800D01*
G01*
G37*
G36*
G01*
X188400800Y-138350000D02*
X188400800Y-139850000D01*
G75*
G02*
X188350000Y-139900800I-50800J0D01*
G01*
X186850000Y-139900800D01*
G75*
G02*
X186799200Y-139850000I0J50800D01*
G01*
X186799200Y-138350000D01*
G75*
G02*
X186850000Y-138299200I50800J0D01*
G01*
X188350000Y-138299200D01*
G75*
G02*
X188400800Y-138350000I0J-50800D01*
G01*
G37*
G36*
G01*
X185100800Y-138350000D02*
X185100800Y-139850000D01*
G75*
G02*
X185050000Y-139900800I-50800J0D01*
G01*
X183550000Y-139900800D01*
G75*
G02*
X183499200Y-139850000I0J50800D01*
G01*
X183499200Y-138350000D01*
G75*
G02*
X183550000Y-138299200I50800J0D01*
G01*
X185050000Y-138299200D01*
G75*
G02*
X185100800Y-138350000I0J-50800D01*
G01*
G37*
G36*
G01*
X199550800Y-114049999D02*
X199550800Y-114950001D01*
G75*
G02*
X199500001Y-115000800I-50799J0D01*
G01*
X198999999Y-115000800D01*
G75*
G02*
X198949200Y-114950001I0J50799D01*
G01*
X198949200Y-114049999D01*
G75*
G02*
X198999999Y-113999200I50799J0D01*
G01*
X199500001Y-113999200D01*
G75*
G02*
X199550800Y-114049999I0J-50799D01*
G01*
G37*
G36*
G01*
X198050800Y-114049999D02*
X198050800Y-114950001D01*
G75*
G02*
X198000001Y-115000800I-50799J0D01*
G01*
X197499999Y-115000800D01*
G75*
G02*
X197449200Y-114950001I0J50799D01*
G01*
X197449200Y-114049999D01*
G75*
G02*
X197499999Y-113999200I50799J0D01*
G01*
X198000001Y-113999200D01*
G75*
G02*
X198050800Y-114049999I0J-50799D01*
G01*
G37*
G36*
G01*
X197949200Y-123450001D02*
X197949200Y-122549999D01*
G75*
G02*
X197999999Y-122499200I50799J0D01*
G01*
X198500001Y-122499200D01*
G75*
G02*
X198550800Y-122549999I0J-50799D01*
G01*
X198550800Y-123450001D01*
G75*
G02*
X198500001Y-123500800I-50799J0D01*
G01*
X197999999Y-123500800D01*
G75*
G02*
X197949200Y-123450001I0J50799D01*
G01*
G37*
G36*
G01*
X199449200Y-123450001D02*
X199449200Y-122549999D01*
G75*
G02*
X199499999Y-122499200I50799J0D01*
G01*
X200000001Y-122499200D01*
G75*
G02*
X200050800Y-122549999I0J-50799D01*
G01*
X200050800Y-123450001D01*
G75*
G02*
X200000001Y-123500800I-50799J0D01*
G01*
X199499999Y-123500800D01*
G75*
G02*
X199449200Y-123450001I0J50799D01*
G01*
G37*
G36*
G01*
X208549999Y-122449200D02*
X209450001Y-122449200D01*
G75*
G02*
X209500800Y-122499999I0J-50799D01*
G01*
X209500800Y-123000001D01*
G75*
G02*
X209450001Y-123050800I-50799J0D01*
G01*
X208549999Y-123050800D01*
G75*
G02*
X208499200Y-123000001I0J50799D01*
G01*
X208499200Y-122499999D01*
G75*
G02*
X208549999Y-122449200I50799J0D01*
G01*
G37*
G36*
G01*
X208549999Y-123949200D02*
X209450001Y-123949200D01*
G75*
G02*
X209500800Y-123999999I0J-50799D01*
G01*
X209500800Y-124500001D01*
G75*
G02*
X209450001Y-124550800I-50799J0D01*
G01*
X208549999Y-124550800D01*
G75*
G02*
X208499200Y-124500001I0J50799D01*
G01*
X208499200Y-123999999D01*
G75*
G02*
X208549999Y-123949200I50799J0D01*
G01*
G37*
G36*
G01*
X199449200Y-130450001D02*
X199449200Y-129549999D01*
G75*
G02*
X199499999Y-129499200I50799J0D01*
G01*
X200000001Y-129499200D01*
G75*
G02*
X200050800Y-129549999I0J-50799D01*
G01*
X200050800Y-130450001D01*
G75*
G02*
X200000001Y-130500800I-50799J0D01*
G01*
X199499999Y-130500800D01*
G75*
G02*
X199449200Y-130450001I0J50799D01*
G01*
G37*
G36*
G01*
X197949200Y-130450001D02*
X197949200Y-129549999D01*
G75*
G02*
X197999999Y-129499200I50799J0D01*
G01*
X198500001Y-129499200D01*
G75*
G02*
X198550800Y-129549999I0J-50799D01*
G01*
X198550800Y-130450001D01*
G75*
G02*
X198500001Y-130500800I-50799J0D01*
G01*
X197999999Y-130500800D01*
G75*
G02*
X197949200Y-130450001I0J50799D01*
G01*
G37*
G36*
G01*
X207300800Y-129549999D02*
X207300800Y-130450001D01*
G75*
G02*
X207250001Y-130500800I-50799J0D01*
G01*
X206749999Y-130500800D01*
G75*
G02*
X206699200Y-130450001I0J50799D01*
G01*
X206699200Y-129549999D01*
G75*
G02*
X206749999Y-129499200I50799J0D01*
G01*
X207250001Y-129499200D01*
G75*
G02*
X207300800Y-129549999I0J-50799D01*
G01*
G37*
G36*
G01*
X208800800Y-129549999D02*
X208800800Y-130450001D01*
G75*
G02*
X208750001Y-130500800I-50799J0D01*
G01*
X208249999Y-130500800D01*
G75*
G02*
X208199200Y-130450001I0J50799D01*
G01*
X208199200Y-129549999D01*
G75*
G02*
X208249999Y-129499200I50799J0D01*
G01*
X208750001Y-129499200D01*
G75*
G02*
X208800800Y-129549999I0J-50799D01*
G01*
G37*
G36*
G01*
X199550800Y-141549999D02*
X199550800Y-142450001D01*
G75*
G02*
X199500001Y-142500800I-50799J0D01*
G01*
X198999999Y-142500800D01*
G75*
G02*
X198949200Y-142450001I0J50799D01*
G01*
X198949200Y-141549999D01*
G75*
G02*
X198999999Y-141499200I50799J0D01*
G01*
X199500001Y-141499200D01*
G75*
G02*
X199550800Y-141549999I0J-50799D01*
G01*
G37*
G36*
G01*
X201050800Y-141549999D02*
X201050800Y-142450001D01*
G75*
G02*
X201000001Y-142500800I-50799J0D01*
G01*
X200499999Y-142500800D01*
G75*
G02*
X200449200Y-142450001I0J50799D01*
G01*
X200449200Y-141549999D01*
G75*
G02*
X200499999Y-141499200I50799J0D01*
G01*
X201000001Y-141499200D01*
G75*
G02*
X201050800Y-141549999I0J-50799D01*
G01*
G37*
G36*
G01*
X193050800Y-141549999D02*
X193050800Y-142450001D01*
G75*
G02*
X193000001Y-142500800I-50799J0D01*
G01*
X192499999Y-142500800D01*
G75*
G02*
X192449200Y-142450001I0J50799D01*
G01*
X192449200Y-141549999D01*
G75*
G02*
X192499999Y-141499200I50799J0D01*
G01*
X193000001Y-141499200D01*
G75*
G02*
X193050800Y-141549999I0J-50799D01*
G01*
G37*
G36*
G01*
X191550800Y-141549999D02*
X191550800Y-142450001D01*
G75*
G02*
X191500001Y-142500800I-50799J0D01*
G01*
X190999999Y-142500800D01*
G75*
G02*
X190949200Y-142450001I0J50799D01*
G01*
X190949200Y-141549999D01*
G75*
G02*
X190999999Y-141499200I50799J0D01*
G01*
X191500001Y-141499200D01*
G75*
G02*
X191550800Y-141549999I0J-50799D01*
G01*
G37*
G36*
G01*
X185050800Y-141549999D02*
X185050800Y-142450001D01*
G75*
G02*
X185000001Y-142500800I-50799J0D01*
G01*
X184499999Y-142500800D01*
G75*
G02*
X184449200Y-142450001I0J50799D01*
G01*
X184449200Y-141549999D01*
G75*
G02*
X184499999Y-141499200I50799J0D01*
G01*
X185000001Y-141499200D01*
G75*
G02*
X185050800Y-141549999I0J-50799D01*
G01*
G37*
G36*
G01*
X183550800Y-141549999D02*
X183550800Y-142450001D01*
G75*
G02*
X183500001Y-142500800I-50799J0D01*
G01*
X182999999Y-142500800D01*
G75*
G02*
X182949200Y-142450001I0J50799D01*
G01*
X182949200Y-141549999D01*
G75*
G02*
X182999999Y-141499200I50799J0D01*
G01*
X183500001Y-141499200D01*
G75*
G02*
X183550800Y-141549999I0J-50799D01*
G01*
G37*
G36*
G01*
X210699200Y-126950001D02*
X210699200Y-126049999D01*
G75*
G02*
X210749999Y-125999200I50799J0D01*
G01*
X211250001Y-125999200D01*
G75*
G02*
X211300800Y-126049999I0J-50799D01*
G01*
X211300800Y-126950001D01*
G75*
G02*
X211250001Y-127000800I-50799J0D01*
G01*
X210749999Y-127000800D01*
G75*
G02*
X210699200Y-126950001I0J50799D01*
G01*
G37*
G36*
G01*
X212199200Y-126950001D02*
X212199200Y-126049999D01*
G75*
G02*
X212249999Y-125999200I50799J0D01*
G01*
X212750001Y-125999200D01*
G75*
G02*
X212800800Y-126049999I0J-50799D01*
G01*
X212800800Y-126950001D01*
G75*
G02*
X212750001Y-127000800I-50799J0D01*
G01*
X212249999Y-127000800D01*
G75*
G02*
X212199200Y-126950001I0J50799D01*
G01*
G37*
M02*
