G04 #@! TF.GenerationSoftware,KiCad,Pcbnew,(5.1.4)-1*
G04 #@! TF.CreationDate,2020-07-18T15:03:42-04:00*
G04 #@! TF.ProjectId,Dash_Warning_Panel,44617368-5f57-4617-926e-696e675f5061,rev?*
G04 #@! TF.SameCoordinates,Original*
G04 #@! TF.FileFunction,Soldermask,Top*
G04 #@! TF.FilePolarity,Negative*
%FSLAX46Y46*%
G04 Gerber Fmt 4.6, Leading zero omitted, Abs format (unit mm)*
G04 Created by KiCad (PCBNEW (5.1.4)-1) date 2020-07-18 15:03:42*
%MOMM*%
%LPD*%
G04 APERTURE LIST*
%ADD10C,0.100000*%
G04 APERTURE END LIST*
D10*
G36*
X201050800Y-142500800D02*
G01*
X200449200Y-142500800D01*
X200449200Y-141499200D01*
X201050800Y-141499200D01*
X201050800Y-142500800D01*
X201050800Y-142500800D01*
G37*
G36*
X185050800Y-142500800D02*
G01*
X184449200Y-142500800D01*
X184449200Y-141499200D01*
X185050800Y-141499200D01*
X185050800Y-142500800D01*
X185050800Y-142500800D01*
G37*
G36*
X183550800Y-142500800D02*
G01*
X182949200Y-142500800D01*
X182949200Y-141499200D01*
X183550800Y-141499200D01*
X183550800Y-142500800D01*
X183550800Y-142500800D01*
G37*
G36*
X191550800Y-142500800D02*
G01*
X190949200Y-142500800D01*
X190949200Y-141499200D01*
X191550800Y-141499200D01*
X191550800Y-142500800D01*
X191550800Y-142500800D01*
G37*
G36*
X193050800Y-142500800D02*
G01*
X192449200Y-142500800D01*
X192449200Y-141499200D01*
X193050800Y-141499200D01*
X193050800Y-142500800D01*
X193050800Y-142500800D01*
G37*
G36*
X199550800Y-142500800D02*
G01*
X198949200Y-142500800D01*
X198949200Y-141499200D01*
X199550800Y-141499200D01*
X199550800Y-142500800D01*
X199550800Y-142500800D01*
G37*
G36*
X216335675Y-138893424D02*
G01*
X216422425Y-138929357D01*
X216545108Y-138980174D01*
X216733592Y-139106115D01*
X216893885Y-139266408D01*
X217019826Y-139454892D01*
X217070643Y-139577575D01*
X217106576Y-139664325D01*
X217150800Y-139886655D01*
X217150800Y-140113345D01*
X217106576Y-140335675D01*
X217070643Y-140422425D01*
X217019826Y-140545108D01*
X216893885Y-140733592D01*
X216733592Y-140893885D01*
X216545108Y-141019826D01*
X216422425Y-141070643D01*
X216335675Y-141106576D01*
X216113345Y-141150800D01*
X215886655Y-141150800D01*
X215664325Y-141106576D01*
X215577575Y-141070643D01*
X215454892Y-141019826D01*
X215266408Y-140893885D01*
X215106115Y-140733592D01*
X214980174Y-140545108D01*
X214929357Y-140422425D01*
X214893424Y-140335675D01*
X214849200Y-140113345D01*
X214849200Y-139886655D01*
X214893424Y-139664325D01*
X214929357Y-139577575D01*
X214980174Y-139454892D01*
X215106115Y-139266408D01*
X215266408Y-139106115D01*
X215454892Y-138980174D01*
X215577575Y-138929357D01*
X215664325Y-138893424D01*
X215886655Y-138849200D01*
X216113345Y-138849200D01*
X216335675Y-138893424D01*
X216335675Y-138893424D01*
G37*
G36*
X172335675Y-138893424D02*
G01*
X172422425Y-138929357D01*
X172545108Y-138980174D01*
X172733592Y-139106115D01*
X172893885Y-139266408D01*
X173019826Y-139454892D01*
X173070643Y-139577575D01*
X173106576Y-139664325D01*
X173150800Y-139886655D01*
X173150800Y-140113345D01*
X173106576Y-140335675D01*
X173070643Y-140422425D01*
X173019826Y-140545108D01*
X172893885Y-140733592D01*
X172733592Y-140893885D01*
X172545108Y-141019826D01*
X172422425Y-141070643D01*
X172335675Y-141106576D01*
X172113345Y-141150800D01*
X171886655Y-141150800D01*
X171664325Y-141106576D01*
X171577575Y-141070643D01*
X171454892Y-141019826D01*
X171266408Y-140893885D01*
X171106115Y-140733592D01*
X170980174Y-140545108D01*
X170929357Y-140422425D01*
X170893424Y-140335675D01*
X170849200Y-140113345D01*
X170849200Y-139886655D01*
X170893424Y-139664325D01*
X170929357Y-139577575D01*
X170980174Y-139454892D01*
X171106115Y-139266408D01*
X171266408Y-139106115D01*
X171454892Y-138980174D01*
X171577575Y-138929357D01*
X171664325Y-138893424D01*
X171886655Y-138849200D01*
X172113345Y-138849200D01*
X172335675Y-138893424D01*
X172335675Y-138893424D01*
G37*
G36*
X204450800Y-140000800D02*
G01*
X202849200Y-140000800D01*
X202849200Y-138399200D01*
X204450800Y-138399200D01*
X204450800Y-140000800D01*
X204450800Y-140000800D01*
G37*
G36*
X201150800Y-140000800D02*
G01*
X199549200Y-140000800D01*
X199549200Y-138399200D01*
X201150800Y-138399200D01*
X201150800Y-140000800D01*
X201150800Y-140000800D01*
G37*
G36*
X185100800Y-139900800D02*
G01*
X183499200Y-139900800D01*
X183499200Y-138299200D01*
X185100800Y-138299200D01*
X185100800Y-139900800D01*
X185100800Y-139900800D01*
G37*
G36*
X193125800Y-139900800D02*
G01*
X191524200Y-139900800D01*
X191524200Y-138299200D01*
X193125800Y-138299200D01*
X193125800Y-139900800D01*
X193125800Y-139900800D01*
G37*
G36*
X196425800Y-139900800D02*
G01*
X194824200Y-139900800D01*
X194824200Y-138299200D01*
X196425800Y-138299200D01*
X196425800Y-139900800D01*
X196425800Y-139900800D01*
G37*
G36*
X188400800Y-139900800D02*
G01*
X186799200Y-139900800D01*
X186799200Y-138299200D01*
X188400800Y-138299200D01*
X188400800Y-139900800D01*
X188400800Y-139900800D01*
G37*
G36*
X211100800Y-139625800D02*
G01*
X210199200Y-139625800D01*
X210199200Y-138774200D01*
X211100800Y-138774200D01*
X211100800Y-139625800D01*
X211100800Y-139625800D01*
G37*
G36*
X209600800Y-139625800D02*
G01*
X208699200Y-139625800D01*
X208699200Y-138774200D01*
X209600800Y-138774200D01*
X209600800Y-139625800D01*
X209600800Y-139625800D01*
G37*
G36*
X219248169Y-134181895D02*
G01*
X219403005Y-134246031D01*
X219542354Y-134339140D01*
X219660860Y-134457646D01*
X219753969Y-134596995D01*
X219818105Y-134751831D01*
X219850800Y-134916203D01*
X219850800Y-135083797D01*
X219818105Y-135248169D01*
X219753969Y-135403005D01*
X219660860Y-135542354D01*
X219542354Y-135660860D01*
X219403005Y-135753969D01*
X219248169Y-135818105D01*
X219083797Y-135850800D01*
X218916203Y-135850800D01*
X218751831Y-135818105D01*
X218596995Y-135753969D01*
X218457646Y-135660860D01*
X218339140Y-135542354D01*
X218246031Y-135403005D01*
X218181895Y-135248169D01*
X218149200Y-135083797D01*
X218149200Y-134916203D01*
X218181895Y-134751831D01*
X218246031Y-134596995D01*
X218339140Y-134457646D01*
X218457646Y-134339140D01*
X218596995Y-134246031D01*
X218751831Y-134181895D01*
X218916203Y-134149200D01*
X219083797Y-134149200D01*
X219248169Y-134181895D01*
X219248169Y-134181895D01*
G37*
G36*
X217425800Y-135450800D02*
G01*
X216574200Y-135450800D01*
X216574200Y-134549200D01*
X217425800Y-134549200D01*
X217425800Y-135450800D01*
X217425800Y-135450800D01*
G37*
G36*
X190062123Y-133310170D02*
G01*
X190185110Y-133361113D01*
X190295796Y-133435071D01*
X190389929Y-133529204D01*
X190463887Y-133639890D01*
X190514830Y-133762877D01*
X190540800Y-133893438D01*
X190540800Y-134026562D01*
X190514830Y-134157123D01*
X190463887Y-134280110D01*
X190389929Y-134390796D01*
X190295796Y-134484929D01*
X190185110Y-134558887D01*
X190062123Y-134609830D01*
X189931562Y-134635800D01*
X189798438Y-134635800D01*
X189667877Y-134609830D01*
X189544890Y-134558887D01*
X189434204Y-134484929D01*
X189340071Y-134390796D01*
X189266113Y-134280110D01*
X189215170Y-134157123D01*
X189189200Y-134026562D01*
X189189200Y-133893438D01*
X189215170Y-133762877D01*
X189266113Y-133639890D01*
X189340071Y-133529204D01*
X189434204Y-133435071D01*
X189544890Y-133361113D01*
X189667877Y-133310170D01*
X189798438Y-133284200D01*
X189931562Y-133284200D01*
X190062123Y-133310170D01*
X190062123Y-133310170D01*
G37*
G36*
X179902123Y-133310170D02*
G01*
X180025110Y-133361113D01*
X180135796Y-133435071D01*
X180229929Y-133529204D01*
X180303887Y-133639890D01*
X180354830Y-133762877D01*
X180380800Y-133893438D01*
X180380800Y-134026562D01*
X180354830Y-134157123D01*
X180303887Y-134280110D01*
X180229929Y-134390796D01*
X180135796Y-134484929D01*
X180025110Y-134558887D01*
X179902123Y-134609830D01*
X179771562Y-134635800D01*
X179638438Y-134635800D01*
X179507877Y-134609830D01*
X179384890Y-134558887D01*
X179274204Y-134484929D01*
X179180071Y-134390796D01*
X179106113Y-134280110D01*
X179055170Y-134157123D01*
X179029200Y-134026562D01*
X179029200Y-133893438D01*
X179055170Y-133762877D01*
X179106113Y-133639890D01*
X179180071Y-133529204D01*
X179274204Y-133435071D01*
X179384890Y-133361113D01*
X179507877Y-133310170D01*
X179638438Y-133284200D01*
X179771562Y-133284200D01*
X179902123Y-133310170D01*
X179902123Y-133310170D01*
G37*
G36*
X182442123Y-133310170D02*
G01*
X182565110Y-133361113D01*
X182675796Y-133435071D01*
X182769929Y-133529204D01*
X182843887Y-133639890D01*
X182894830Y-133762877D01*
X182920800Y-133893438D01*
X182920800Y-134026562D01*
X182894830Y-134157123D01*
X182843887Y-134280110D01*
X182769929Y-134390796D01*
X182675796Y-134484929D01*
X182565110Y-134558887D01*
X182442123Y-134609830D01*
X182311562Y-134635800D01*
X182178438Y-134635800D01*
X182047877Y-134609830D01*
X181924890Y-134558887D01*
X181814204Y-134484929D01*
X181720071Y-134390796D01*
X181646113Y-134280110D01*
X181595170Y-134157123D01*
X181569200Y-134026562D01*
X181569200Y-133893438D01*
X181595170Y-133762877D01*
X181646113Y-133639890D01*
X181720071Y-133529204D01*
X181814204Y-133435071D01*
X181924890Y-133361113D01*
X182047877Y-133310170D01*
X182178438Y-133284200D01*
X182311562Y-133284200D01*
X182442123Y-133310170D01*
X182442123Y-133310170D01*
G37*
G36*
X187522123Y-133310170D02*
G01*
X187645110Y-133361113D01*
X187755796Y-133435071D01*
X187849929Y-133529204D01*
X187923887Y-133639890D01*
X187974830Y-133762877D01*
X188000800Y-133893438D01*
X188000800Y-134026562D01*
X187974830Y-134157123D01*
X187923887Y-134280110D01*
X187849929Y-134390796D01*
X187755796Y-134484929D01*
X187645110Y-134558887D01*
X187522123Y-134609830D01*
X187391562Y-134635800D01*
X187258438Y-134635800D01*
X187127877Y-134609830D01*
X187004890Y-134558887D01*
X186894204Y-134484929D01*
X186800071Y-134390796D01*
X186726113Y-134280110D01*
X186675170Y-134157123D01*
X186649200Y-134026562D01*
X186649200Y-133893438D01*
X186675170Y-133762877D01*
X186726113Y-133639890D01*
X186800071Y-133529204D01*
X186894204Y-133435071D01*
X187004890Y-133361113D01*
X187127877Y-133310170D01*
X187258438Y-133284200D01*
X187391562Y-133284200D01*
X187522123Y-133310170D01*
X187522123Y-133310170D01*
G37*
G36*
X184982123Y-133310170D02*
G01*
X185105110Y-133361113D01*
X185215796Y-133435071D01*
X185309929Y-133529204D01*
X185383887Y-133639890D01*
X185434830Y-133762877D01*
X185460800Y-133893438D01*
X185460800Y-134026562D01*
X185434830Y-134157123D01*
X185383887Y-134280110D01*
X185309929Y-134390796D01*
X185215796Y-134484929D01*
X185105110Y-134558887D01*
X184982123Y-134609830D01*
X184851562Y-134635800D01*
X184718438Y-134635800D01*
X184587877Y-134609830D01*
X184464890Y-134558887D01*
X184354204Y-134484929D01*
X184260071Y-134390796D01*
X184186113Y-134280110D01*
X184135170Y-134157123D01*
X184109200Y-134026562D01*
X184109200Y-133893438D01*
X184135170Y-133762877D01*
X184186113Y-133639890D01*
X184260071Y-133529204D01*
X184354204Y-133435071D01*
X184464890Y-133361113D01*
X184587877Y-133310170D01*
X184718438Y-133284200D01*
X184851562Y-133284200D01*
X184982123Y-133310170D01*
X184982123Y-133310170D01*
G37*
G36*
X217425800Y-133950800D02*
G01*
X216574200Y-133950800D01*
X216574200Y-133049200D01*
X217425800Y-133049200D01*
X217425800Y-133950800D01*
X217425800Y-133950800D01*
G37*
G36*
X211200800Y-133925800D02*
G01*
X210299200Y-133925800D01*
X210299200Y-133074200D01*
X211200800Y-133074200D01*
X211200800Y-133925800D01*
X211200800Y-133925800D01*
G37*
G36*
X212700800Y-133925800D02*
G01*
X211799200Y-133925800D01*
X211799200Y-133074200D01*
X212700800Y-133074200D01*
X212700800Y-133925800D01*
X212700800Y-133925800D01*
G37*
G36*
X219248169Y-132181895D02*
G01*
X219403005Y-132246031D01*
X219542354Y-132339140D01*
X219660860Y-132457646D01*
X219753969Y-132596995D01*
X219818105Y-132751831D01*
X219850800Y-132916203D01*
X219850800Y-133083797D01*
X219818105Y-133248169D01*
X219753969Y-133403005D01*
X219660860Y-133542354D01*
X219542354Y-133660860D01*
X219403005Y-133753969D01*
X219248169Y-133818105D01*
X219083797Y-133850800D01*
X218916203Y-133850800D01*
X218751831Y-133818105D01*
X218596995Y-133753969D01*
X218457646Y-133660860D01*
X218339140Y-133542354D01*
X218246031Y-133403005D01*
X218181895Y-133248169D01*
X218149200Y-133083797D01*
X218149200Y-132916203D01*
X218181895Y-132751831D01*
X218246031Y-132596995D01*
X218339140Y-132457646D01*
X218457646Y-132339140D01*
X218596995Y-132246031D01*
X218751831Y-132181895D01*
X218916203Y-132149200D01*
X219083797Y-132149200D01*
X219248169Y-132181895D01*
X219248169Y-132181895D01*
G37*
G36*
X207450800Y-133300800D02*
G01*
X205849200Y-133300800D01*
X205849200Y-131699200D01*
X207450800Y-131699200D01*
X207450800Y-133300800D01*
X207450800Y-133300800D01*
G37*
G36*
X204150800Y-133300800D02*
G01*
X202549200Y-133300800D01*
X202549200Y-131699200D01*
X204150800Y-131699200D01*
X204150800Y-133300800D01*
X204150800Y-133300800D01*
G37*
G36*
X199935800Y-133275800D02*
G01*
X198334200Y-133275800D01*
X198334200Y-131674200D01*
X199935800Y-131674200D01*
X199935800Y-133275800D01*
X199935800Y-133275800D01*
G37*
G36*
X196635800Y-133275800D02*
G01*
X195034200Y-133275800D01*
X195034200Y-131674200D01*
X196635800Y-131674200D01*
X196635800Y-133275800D01*
X196635800Y-133275800D01*
G37*
G36*
X219248169Y-130181895D02*
G01*
X219403005Y-130246031D01*
X219542354Y-130339140D01*
X219660860Y-130457646D01*
X219753969Y-130596995D01*
X219818105Y-130751831D01*
X219850800Y-130916203D01*
X219850800Y-131083797D01*
X219818105Y-131248169D01*
X219753969Y-131403005D01*
X219660860Y-131542354D01*
X219542354Y-131660860D01*
X219403005Y-131753969D01*
X219248169Y-131818105D01*
X219083797Y-131850800D01*
X218916203Y-131850800D01*
X218751831Y-131818105D01*
X218596995Y-131753969D01*
X218457646Y-131660860D01*
X218339140Y-131542354D01*
X218246031Y-131403005D01*
X218181895Y-131248169D01*
X218149200Y-131083797D01*
X218149200Y-130916203D01*
X218181895Y-130751831D01*
X218246031Y-130596995D01*
X218339140Y-130457646D01*
X218457646Y-130339140D01*
X218596995Y-130246031D01*
X218751831Y-130181895D01*
X218916203Y-130149200D01*
X219083797Y-130149200D01*
X219248169Y-130181895D01*
X219248169Y-130181895D01*
G37*
G36*
X213825800Y-131680800D02*
G01*
X211174200Y-131680800D01*
X211174200Y-130519200D01*
X213825800Y-130519200D01*
X213825800Y-131680800D01*
X213825800Y-131680800D01*
G37*
G36*
X198550800Y-130500800D02*
G01*
X197949200Y-130500800D01*
X197949200Y-129499200D01*
X198550800Y-129499200D01*
X198550800Y-130500800D01*
X198550800Y-130500800D01*
G37*
G36*
X200050800Y-130500800D02*
G01*
X199449200Y-130500800D01*
X199449200Y-129499200D01*
X200050800Y-129499200D01*
X200050800Y-130500800D01*
X200050800Y-130500800D01*
G37*
G36*
X208800800Y-130500800D02*
G01*
X208199200Y-130500800D01*
X208199200Y-129499200D01*
X208800800Y-129499200D01*
X208800800Y-130500800D01*
X208800800Y-130500800D01*
G37*
G36*
X207300800Y-130500800D02*
G01*
X206699200Y-130500800D01*
X206699200Y-129499200D01*
X207300800Y-129499200D01*
X207300800Y-130500800D01*
X207300800Y-130500800D01*
G37*
G36*
X219248169Y-128181895D02*
G01*
X219403005Y-128246031D01*
X219542354Y-128339140D01*
X219660860Y-128457646D01*
X219753969Y-128596995D01*
X219818105Y-128751831D01*
X219850800Y-128916203D01*
X219850800Y-129083797D01*
X219818105Y-129248169D01*
X219753969Y-129403005D01*
X219660860Y-129542354D01*
X219542354Y-129660860D01*
X219403005Y-129753969D01*
X219248169Y-129818105D01*
X219083797Y-129850800D01*
X218916203Y-129850800D01*
X218751831Y-129818105D01*
X218596995Y-129753969D01*
X218457646Y-129660860D01*
X218339140Y-129542354D01*
X218246031Y-129403005D01*
X218181895Y-129248169D01*
X218149200Y-129083797D01*
X218149200Y-128916203D01*
X218181895Y-128751831D01*
X218246031Y-128596995D01*
X218339140Y-128457646D01*
X218457646Y-128339140D01*
X218596995Y-128246031D01*
X218751831Y-128181895D01*
X218916203Y-128149200D01*
X219083797Y-128149200D01*
X219248169Y-128181895D01*
X219248169Y-128181895D01*
G37*
G36*
X213825800Y-129480800D02*
G01*
X211174200Y-129480800D01*
X211174200Y-128319200D01*
X213825800Y-128319200D01*
X213825800Y-129480800D01*
X213825800Y-129480800D01*
G37*
G36*
X219248169Y-126181895D02*
G01*
X219403005Y-126246031D01*
X219542354Y-126339140D01*
X219660860Y-126457646D01*
X219753969Y-126596995D01*
X219818105Y-126751831D01*
X219850800Y-126916203D01*
X219850800Y-127083797D01*
X219818105Y-127248169D01*
X219753969Y-127403005D01*
X219660860Y-127542354D01*
X219542354Y-127660860D01*
X219403005Y-127753969D01*
X219248169Y-127818105D01*
X219083797Y-127850800D01*
X218916203Y-127850800D01*
X218751831Y-127818105D01*
X218596995Y-127753969D01*
X218457646Y-127660860D01*
X218339140Y-127542354D01*
X218246031Y-127403005D01*
X218181895Y-127248169D01*
X218149200Y-127083797D01*
X218149200Y-126916203D01*
X218181895Y-126751831D01*
X218246031Y-126596995D01*
X218339140Y-126457646D01*
X218457646Y-126339140D01*
X218596995Y-126246031D01*
X218751831Y-126181895D01*
X218916203Y-126149200D01*
X219083797Y-126149200D01*
X219248169Y-126181895D01*
X219248169Y-126181895D01*
G37*
G36*
X212800800Y-127000800D02*
G01*
X212199200Y-127000800D01*
X212199200Y-125999200D01*
X212800800Y-125999200D01*
X212800800Y-127000800D01*
X212800800Y-127000800D01*
G37*
G36*
X211300800Y-127000800D02*
G01*
X210699200Y-127000800D01*
X210699200Y-125999200D01*
X211300800Y-125999200D01*
X211300800Y-127000800D01*
X211300800Y-127000800D01*
G37*
G36*
X215700800Y-126925800D02*
G01*
X214799200Y-126925800D01*
X214799200Y-126074200D01*
X215700800Y-126074200D01*
X215700800Y-126925800D01*
X215700800Y-126925800D01*
G37*
G36*
X214200800Y-126925800D02*
G01*
X213299200Y-126925800D01*
X213299200Y-126074200D01*
X214200800Y-126074200D01*
X214200800Y-126925800D01*
X214200800Y-126925800D01*
G37*
G36*
X219248169Y-124181895D02*
G01*
X219403005Y-124246031D01*
X219542354Y-124339140D01*
X219660860Y-124457646D01*
X219753969Y-124596995D01*
X219818105Y-124751831D01*
X219850800Y-124916203D01*
X219850800Y-125083797D01*
X219818105Y-125248169D01*
X219753969Y-125403005D01*
X219660860Y-125542354D01*
X219542354Y-125660860D01*
X219403005Y-125753969D01*
X219248169Y-125818105D01*
X219083797Y-125850800D01*
X218916203Y-125850800D01*
X218751831Y-125818105D01*
X218596995Y-125753969D01*
X218457646Y-125660860D01*
X218339140Y-125542354D01*
X218246031Y-125403005D01*
X218181895Y-125248169D01*
X218149200Y-125083797D01*
X218149200Y-124916203D01*
X218181895Y-124751831D01*
X218246031Y-124596995D01*
X218339140Y-124457646D01*
X218457646Y-124339140D01*
X218596995Y-124246031D01*
X218751831Y-124181895D01*
X218916203Y-124149200D01*
X219083797Y-124149200D01*
X219248169Y-124181895D01*
X219248169Y-124181895D01*
G37*
G36*
X207450800Y-125800800D02*
G01*
X205849200Y-125800800D01*
X205849200Y-124199200D01*
X207450800Y-124199200D01*
X207450800Y-125800800D01*
X207450800Y-125800800D01*
G37*
G36*
X204150800Y-125800800D02*
G01*
X202549200Y-125800800D01*
X202549200Y-124199200D01*
X204150800Y-124199200D01*
X204150800Y-125800800D01*
X204150800Y-125800800D01*
G37*
G36*
X199935800Y-125775800D02*
G01*
X198334200Y-125775800D01*
X198334200Y-124174200D01*
X199935800Y-124174200D01*
X199935800Y-125775800D01*
X199935800Y-125775800D01*
G37*
G36*
X196635800Y-125775800D02*
G01*
X195034200Y-125775800D01*
X195034200Y-124174200D01*
X196635800Y-124174200D01*
X196635800Y-125775800D01*
X196635800Y-125775800D01*
G37*
G36*
X209500800Y-124550800D02*
G01*
X208499200Y-124550800D01*
X208499200Y-123949200D01*
X209500800Y-123949200D01*
X209500800Y-124550800D01*
X209500800Y-124550800D01*
G37*
G36*
X219248169Y-122181895D02*
G01*
X219403005Y-122246031D01*
X219542354Y-122339140D01*
X219660860Y-122457646D01*
X219753969Y-122596995D01*
X219818105Y-122751831D01*
X219850800Y-122916203D01*
X219850800Y-123083797D01*
X219818105Y-123248169D01*
X219753969Y-123403005D01*
X219660860Y-123542354D01*
X219542354Y-123660860D01*
X219403005Y-123753969D01*
X219248169Y-123818105D01*
X219083797Y-123850800D01*
X218916203Y-123850800D01*
X218751831Y-123818105D01*
X218596995Y-123753969D01*
X218457646Y-123660860D01*
X218339140Y-123542354D01*
X218246031Y-123403005D01*
X218181895Y-123248169D01*
X218149200Y-123083797D01*
X218149200Y-122916203D01*
X218181895Y-122751831D01*
X218246031Y-122596995D01*
X218339140Y-122457646D01*
X218457646Y-122339140D01*
X218596995Y-122246031D01*
X218751831Y-122181895D01*
X218916203Y-122149200D01*
X219083797Y-122149200D01*
X219248169Y-122181895D01*
X219248169Y-122181895D01*
G37*
G36*
X198550800Y-123500800D02*
G01*
X197949200Y-123500800D01*
X197949200Y-122499200D01*
X198550800Y-122499200D01*
X198550800Y-123500800D01*
X198550800Y-123500800D01*
G37*
G36*
X200050800Y-123500800D02*
G01*
X199449200Y-123500800D01*
X199449200Y-122499200D01*
X200050800Y-122499200D01*
X200050800Y-123500800D01*
X200050800Y-123500800D01*
G37*
G36*
X209500800Y-123050800D02*
G01*
X208499200Y-123050800D01*
X208499200Y-122449200D01*
X209500800Y-122449200D01*
X209500800Y-123050800D01*
X209500800Y-123050800D01*
G37*
G36*
X219248169Y-120181895D02*
G01*
X219403005Y-120246031D01*
X219542354Y-120339140D01*
X219660860Y-120457646D01*
X219753969Y-120596995D01*
X219818105Y-120751831D01*
X219850800Y-120916203D01*
X219850800Y-121083797D01*
X219818105Y-121248169D01*
X219753969Y-121403005D01*
X219660860Y-121542354D01*
X219542354Y-121660860D01*
X219403005Y-121753969D01*
X219248169Y-121818105D01*
X219083797Y-121850800D01*
X218916203Y-121850800D01*
X218751831Y-121818105D01*
X218596995Y-121753969D01*
X218457646Y-121660860D01*
X218339140Y-121542354D01*
X218246031Y-121403005D01*
X218181895Y-121248169D01*
X218149200Y-121083797D01*
X218149200Y-120916203D01*
X218181895Y-120751831D01*
X218246031Y-120596995D01*
X218339140Y-120457646D01*
X218457646Y-120339140D01*
X218596995Y-120246031D01*
X218751831Y-120181895D01*
X218916203Y-120149200D01*
X219083797Y-120149200D01*
X219248169Y-120181895D01*
X219248169Y-120181895D01*
G37*
G36*
X209550800Y-120050800D02*
G01*
X208549200Y-120050800D01*
X208549200Y-117449200D01*
X209550800Y-117449200D01*
X209550800Y-120050800D01*
X209550800Y-120050800D01*
G37*
G36*
X212450800Y-120050800D02*
G01*
X211449200Y-120050800D01*
X211449200Y-117449200D01*
X212450800Y-117449200D01*
X212450800Y-120050800D01*
X212450800Y-120050800D01*
G37*
G36*
X206500800Y-120000800D02*
G01*
X203499200Y-120000800D01*
X203499200Y-118299200D01*
X206500800Y-118299200D01*
X206500800Y-120000800D01*
X206500800Y-120000800D01*
G37*
G36*
X196635800Y-118275800D02*
G01*
X195034200Y-118275800D01*
X195034200Y-116674200D01*
X196635800Y-116674200D01*
X196635800Y-118275800D01*
X196635800Y-118275800D01*
G37*
G36*
X199935800Y-118275800D02*
G01*
X198334200Y-118275800D01*
X198334200Y-116674200D01*
X199935800Y-116674200D01*
X199935800Y-118275800D01*
X199935800Y-118275800D01*
G37*
G36*
X172335675Y-114893424D02*
G01*
X172422425Y-114929357D01*
X172545108Y-114980174D01*
X172733592Y-115106115D01*
X172893885Y-115266408D01*
X173019826Y-115454892D01*
X173062901Y-115558886D01*
X173106576Y-115664325D01*
X173150800Y-115886655D01*
X173150800Y-116113345D01*
X173106576Y-116335675D01*
X173070643Y-116422425D01*
X173019826Y-116545108D01*
X172893885Y-116733592D01*
X172733592Y-116893885D01*
X172545108Y-117019826D01*
X172422425Y-117070643D01*
X172335675Y-117106576D01*
X172113345Y-117150800D01*
X171886655Y-117150800D01*
X171664325Y-117106576D01*
X171577575Y-117070643D01*
X171454892Y-117019826D01*
X171266408Y-116893885D01*
X171106115Y-116733592D01*
X170980174Y-116545108D01*
X170929357Y-116422425D01*
X170893424Y-116335675D01*
X170849200Y-116113345D01*
X170849200Y-115886655D01*
X170893424Y-115664325D01*
X170937099Y-115558886D01*
X170980174Y-115454892D01*
X171106115Y-115266408D01*
X171266408Y-115106115D01*
X171454892Y-114980174D01*
X171577575Y-114929357D01*
X171664325Y-114893424D01*
X171886655Y-114849200D01*
X172113345Y-114849200D01*
X172335675Y-114893424D01*
X172335675Y-114893424D01*
G37*
G36*
X216335675Y-114893424D02*
G01*
X216422425Y-114929357D01*
X216545108Y-114980174D01*
X216733592Y-115106115D01*
X216893885Y-115266408D01*
X217019826Y-115454892D01*
X217062901Y-115558886D01*
X217106576Y-115664325D01*
X217150800Y-115886655D01*
X217150800Y-116113345D01*
X217106576Y-116335675D01*
X217070643Y-116422425D01*
X217019826Y-116545108D01*
X216893885Y-116733592D01*
X216733592Y-116893885D01*
X216545108Y-117019826D01*
X216422425Y-117070643D01*
X216335675Y-117106576D01*
X216113345Y-117150800D01*
X215886655Y-117150800D01*
X215664325Y-117106576D01*
X215577575Y-117070643D01*
X215454892Y-117019826D01*
X215266408Y-116893885D01*
X215106115Y-116733592D01*
X214980174Y-116545108D01*
X214929357Y-116422425D01*
X214893424Y-116335675D01*
X214849200Y-116113345D01*
X214849200Y-115886655D01*
X214893424Y-115664325D01*
X214937099Y-115558886D01*
X214980174Y-115454892D01*
X215106115Y-115266408D01*
X215266408Y-115106115D01*
X215454892Y-114980174D01*
X215577575Y-114929357D01*
X215664325Y-114893424D01*
X215886655Y-114849200D01*
X216113345Y-114849200D01*
X216335675Y-114893424D01*
X216335675Y-114893424D01*
G37*
G36*
X206500800Y-116700800D02*
G01*
X203499200Y-116700800D01*
X203499200Y-114999200D01*
X206500800Y-114999200D01*
X206500800Y-116700800D01*
X206500800Y-116700800D01*
G37*
G36*
X187522123Y-114310170D02*
G01*
X187645110Y-114361113D01*
X187755796Y-114435071D01*
X187849929Y-114529204D01*
X187923887Y-114639890D01*
X187974830Y-114762877D01*
X188000800Y-114893438D01*
X188000800Y-115026562D01*
X187974830Y-115157123D01*
X187923887Y-115280110D01*
X187849929Y-115390796D01*
X187755796Y-115484929D01*
X187645110Y-115558887D01*
X187522123Y-115609830D01*
X187391562Y-115635800D01*
X187258438Y-115635800D01*
X187127877Y-115609830D01*
X187004890Y-115558887D01*
X186894204Y-115484929D01*
X186800071Y-115390796D01*
X186726113Y-115280110D01*
X186675170Y-115157123D01*
X186649200Y-115026562D01*
X186649200Y-114893438D01*
X186675170Y-114762877D01*
X186726113Y-114639890D01*
X186800071Y-114529204D01*
X186894204Y-114435071D01*
X187004890Y-114361113D01*
X187127877Y-114310170D01*
X187258438Y-114284200D01*
X187391562Y-114284200D01*
X187522123Y-114310170D01*
X187522123Y-114310170D01*
G37*
G36*
X184982123Y-114310170D02*
G01*
X185105110Y-114361113D01*
X185215796Y-114435071D01*
X185309929Y-114529204D01*
X185383887Y-114639890D01*
X185434830Y-114762877D01*
X185460800Y-114893438D01*
X185460800Y-115026562D01*
X185434830Y-115157123D01*
X185383887Y-115280110D01*
X185309929Y-115390796D01*
X185215796Y-115484929D01*
X185105110Y-115558887D01*
X184982123Y-115609830D01*
X184851562Y-115635800D01*
X184718438Y-115635800D01*
X184587877Y-115609830D01*
X184464890Y-115558887D01*
X184354204Y-115484929D01*
X184260071Y-115390796D01*
X184186113Y-115280110D01*
X184135170Y-115157123D01*
X184109200Y-115026562D01*
X184109200Y-114893438D01*
X184135170Y-114762877D01*
X184186113Y-114639890D01*
X184260071Y-114529204D01*
X184354204Y-114435071D01*
X184464890Y-114361113D01*
X184587877Y-114310170D01*
X184718438Y-114284200D01*
X184851562Y-114284200D01*
X184982123Y-114310170D01*
X184982123Y-114310170D01*
G37*
G36*
X182442123Y-114310170D02*
G01*
X182565110Y-114361113D01*
X182675796Y-114435071D01*
X182769929Y-114529204D01*
X182843887Y-114639890D01*
X182894830Y-114762877D01*
X182920800Y-114893438D01*
X182920800Y-115026562D01*
X182894830Y-115157123D01*
X182843887Y-115280110D01*
X182769929Y-115390796D01*
X182675796Y-115484929D01*
X182565110Y-115558887D01*
X182442123Y-115609830D01*
X182311562Y-115635800D01*
X182178438Y-115635800D01*
X182047877Y-115609830D01*
X181924890Y-115558887D01*
X181814204Y-115484929D01*
X181720071Y-115390796D01*
X181646113Y-115280110D01*
X181595170Y-115157123D01*
X181569200Y-115026562D01*
X181569200Y-114893438D01*
X181595170Y-114762877D01*
X181646113Y-114639890D01*
X181720071Y-114529204D01*
X181814204Y-114435071D01*
X181924890Y-114361113D01*
X182047877Y-114310170D01*
X182178438Y-114284200D01*
X182311562Y-114284200D01*
X182442123Y-114310170D01*
X182442123Y-114310170D01*
G37*
G36*
X179902123Y-114310170D02*
G01*
X180025110Y-114361113D01*
X180135796Y-114435071D01*
X180229929Y-114529204D01*
X180303887Y-114639890D01*
X180354830Y-114762877D01*
X180380800Y-114893438D01*
X180380800Y-115026562D01*
X180354830Y-115157123D01*
X180303887Y-115280110D01*
X180229929Y-115390796D01*
X180135796Y-115484929D01*
X180025110Y-115558887D01*
X179902123Y-115609830D01*
X179771562Y-115635800D01*
X179638438Y-115635800D01*
X179507877Y-115609830D01*
X179384890Y-115558887D01*
X179274204Y-115484929D01*
X179180071Y-115390796D01*
X179106113Y-115280110D01*
X179055170Y-115157123D01*
X179029200Y-115026562D01*
X179029200Y-114893438D01*
X179055170Y-114762877D01*
X179106113Y-114639890D01*
X179180071Y-114529204D01*
X179274204Y-114435071D01*
X179384890Y-114361113D01*
X179507877Y-114310170D01*
X179638438Y-114284200D01*
X179771562Y-114284200D01*
X179902123Y-114310170D01*
X179902123Y-114310170D01*
G37*
G36*
X190062123Y-114310170D02*
G01*
X190185110Y-114361113D01*
X190295796Y-114435071D01*
X190389929Y-114529204D01*
X190463887Y-114639890D01*
X190514830Y-114762877D01*
X190540800Y-114893438D01*
X190540800Y-115026562D01*
X190514830Y-115157123D01*
X190463887Y-115280110D01*
X190389929Y-115390796D01*
X190295796Y-115484929D01*
X190185110Y-115558887D01*
X190062123Y-115609830D01*
X189931562Y-115635800D01*
X189798438Y-115635800D01*
X189667877Y-115609830D01*
X189544890Y-115558887D01*
X189434204Y-115484929D01*
X189340071Y-115390796D01*
X189266113Y-115280110D01*
X189215170Y-115157123D01*
X189189200Y-115026562D01*
X189189200Y-114893438D01*
X189215170Y-114762877D01*
X189266113Y-114639890D01*
X189340071Y-114529204D01*
X189434204Y-114435071D01*
X189544890Y-114361113D01*
X189667877Y-114310170D01*
X189798438Y-114284200D01*
X189931562Y-114284200D01*
X190062123Y-114310170D01*
X190062123Y-114310170D01*
G37*
G36*
X198050800Y-115000800D02*
G01*
X197449200Y-115000800D01*
X197449200Y-113999200D01*
X198050800Y-113999200D01*
X198050800Y-115000800D01*
X198050800Y-115000800D01*
G37*
G36*
X199550800Y-115000800D02*
G01*
X198949200Y-115000800D01*
X198949200Y-113999200D01*
X199550800Y-113999200D01*
X199550800Y-115000800D01*
X199550800Y-115000800D01*
G37*
G36*
X200450800Y-111925800D02*
G01*
X199549200Y-111925800D01*
X199549200Y-111074200D01*
X200450800Y-111074200D01*
X200450800Y-111925800D01*
X200450800Y-111925800D01*
G37*
G36*
X198950800Y-111925800D02*
G01*
X198049200Y-111925800D01*
X198049200Y-111074200D01*
X198950800Y-111074200D01*
X198950800Y-111925800D01*
X198950800Y-111925800D01*
G37*
M02*
