G04 #@! TF.GenerationSoftware,KiCad,Pcbnew,(5.1.4)-1*
G04 #@! TF.CreationDate,2020-07-18T15:03:42-04:00*
G04 #@! TF.ProjectId,Dash_Warning_Panel,44617368-5f57-4617-926e-696e675f5061,rev?*
G04 #@! TF.SameCoordinates,Original*
G04 #@! TF.FileFunction,Other,Comment*
%FSLAX46Y46*%
G04 Gerber Fmt 4.6, Leading zero omitted, Abs format (unit mm)*
G04 Created by KiCad (PCBNEW (5.1.4)-1) date 2020-07-18 15:03:42*
%MOMM*%
%LPD*%
G04 APERTURE LIST*
%ADD10C,0.300000*%
%ADD11C,0.150000*%
G04 APERTURE END LIST*
D10*
X230278571Y-134285714D02*
X230278571Y-133357142D01*
X230850000Y-133857142D01*
X230850000Y-133642857D01*
X230921428Y-133500000D01*
X230992857Y-133428571D01*
X231135714Y-133357142D01*
X231492857Y-133357142D01*
X231635714Y-133428571D01*
X231707142Y-133500000D01*
X231778571Y-133642857D01*
X231778571Y-134071428D01*
X231707142Y-134214285D01*
X231635714Y-134285714D01*
X230278571Y-132428571D02*
X230278571Y-132285714D01*
X230350000Y-132142857D01*
X230421428Y-132071428D01*
X230564285Y-132000000D01*
X230850000Y-131928571D01*
X231207142Y-131928571D01*
X231492857Y-132000000D01*
X231635714Y-132071428D01*
X231707142Y-132142857D01*
X231778571Y-132285714D01*
X231778571Y-132428571D01*
X231707142Y-132571428D01*
X231635714Y-132642857D01*
X231492857Y-132714285D01*
X231207142Y-132785714D01*
X230850000Y-132785714D01*
X230564285Y-132714285D01*
X230421428Y-132642857D01*
X230350000Y-132571428D01*
X230278571Y-132428571D01*
X231635714Y-131285714D02*
X231707142Y-131214285D01*
X231778571Y-131285714D01*
X231707142Y-131357142D01*
X231635714Y-131285714D01*
X231778571Y-131285714D01*
X230278571Y-130285714D02*
X230278571Y-130142857D01*
X230350000Y-130000000D01*
X230421428Y-129928571D01*
X230564285Y-129857142D01*
X230850000Y-129785714D01*
X231207142Y-129785714D01*
X231492857Y-129857142D01*
X231635714Y-129928571D01*
X231707142Y-130000000D01*
X231778571Y-130142857D01*
X231778571Y-130285714D01*
X231707142Y-130428571D01*
X231635714Y-130500000D01*
X231492857Y-130571428D01*
X231207142Y-130642857D01*
X230850000Y-130642857D01*
X230564285Y-130571428D01*
X230421428Y-130500000D01*
X230350000Y-130428571D01*
X230278571Y-130285714D01*
X230278571Y-128857142D02*
X230278571Y-128714285D01*
X230350000Y-128571428D01*
X230421428Y-128500000D01*
X230564285Y-128428571D01*
X230850000Y-128357142D01*
X231207142Y-128357142D01*
X231492857Y-128428571D01*
X231635714Y-128500000D01*
X231707142Y-128571428D01*
X231778571Y-128714285D01*
X231778571Y-128857142D01*
X231707142Y-129000000D01*
X231635714Y-129071428D01*
X231492857Y-129142857D01*
X231207142Y-129214285D01*
X230850000Y-129214285D01*
X230564285Y-129142857D01*
X230421428Y-129071428D01*
X230350000Y-129000000D01*
X230278571Y-128857142D01*
X230278571Y-127428571D02*
X230278571Y-127285714D01*
X230350000Y-127142857D01*
X230421428Y-127071428D01*
X230564285Y-127000000D01*
X230850000Y-126928571D01*
X231207142Y-126928571D01*
X231492857Y-127000000D01*
X231635714Y-127071428D01*
X231707142Y-127142857D01*
X231778571Y-127285714D01*
X231778571Y-127428571D01*
X231707142Y-127571428D01*
X231635714Y-127642857D01*
X231492857Y-127714285D01*
X231207142Y-127785714D01*
X230850000Y-127785714D01*
X230564285Y-127714285D01*
X230421428Y-127642857D01*
X230350000Y-127571428D01*
X230278571Y-127428571D01*
X231778571Y-125142857D02*
X230778571Y-125142857D01*
X230921428Y-125142857D02*
X230850000Y-125071428D01*
X230778571Y-124928571D01*
X230778571Y-124714285D01*
X230850000Y-124571428D01*
X230992857Y-124500000D01*
X231778571Y-124500000D01*
X230992857Y-124500000D02*
X230850000Y-124428571D01*
X230778571Y-124285714D01*
X230778571Y-124071428D01*
X230850000Y-123928571D01*
X230992857Y-123857142D01*
X231778571Y-123857142D01*
X231778571Y-123142857D02*
X230778571Y-123142857D01*
X230921428Y-123142857D02*
X230850000Y-123071428D01*
X230778571Y-122928571D01*
X230778571Y-122714285D01*
X230850000Y-122571428D01*
X230992857Y-122500000D01*
X231778571Y-122500000D01*
X230992857Y-122500000D02*
X230850000Y-122428571D01*
X230778571Y-122285714D01*
X230778571Y-122071428D01*
X230850000Y-121928571D01*
X230992857Y-121857142D01*
X231778571Y-121857142D01*
X229000000Y-143000000D02*
X229000000Y-113000000D01*
X222000000Y-143000000D02*
X229586421Y-143000000D01*
X222000000Y-113000000D02*
X229586421Y-113000000D01*
X229000000Y-113000000D02*
X229586421Y-114126504D01*
X229000000Y-113000000D02*
X228413579Y-114126504D01*
X229000000Y-143000000D02*
X229586421Y-141873496D01*
X229000000Y-143000000D02*
X228413579Y-141873496D01*
X215285714Y-98721428D02*
X215142857Y-98650000D01*
X215071428Y-98578571D01*
X215000000Y-98435714D01*
X215000000Y-98364285D01*
X215071428Y-98221428D01*
X215142857Y-98150000D01*
X215285714Y-98078571D01*
X215571428Y-98078571D01*
X215714285Y-98150000D01*
X215785714Y-98221428D01*
X215857142Y-98364285D01*
X215857142Y-98435714D01*
X215785714Y-98578571D01*
X215714285Y-98650000D01*
X215571428Y-98721428D01*
X215285714Y-98721428D01*
X215142857Y-98792857D01*
X215071428Y-98864285D01*
X215000000Y-99007142D01*
X215000000Y-99292857D01*
X215071428Y-99435714D01*
X215142857Y-99507142D01*
X215285714Y-99578571D01*
X215571428Y-99578571D01*
X215714285Y-99507142D01*
X215785714Y-99435714D01*
X215857142Y-99292857D01*
X215857142Y-99007142D01*
X215785714Y-98864285D01*
X215714285Y-98792857D01*
X215571428Y-98721428D01*
X217642857Y-99578571D02*
X217642857Y-98578571D01*
X217642857Y-98721428D02*
X217714285Y-98650000D01*
X217857142Y-98578571D01*
X218071428Y-98578571D01*
X218214285Y-98650000D01*
X218285714Y-98792857D01*
X218285714Y-99578571D01*
X218285714Y-98792857D02*
X218357142Y-98650000D01*
X218500000Y-98578571D01*
X218714285Y-98578571D01*
X218857142Y-98650000D01*
X218928571Y-98792857D01*
X218928571Y-99578571D01*
X219642857Y-99578571D02*
X219642857Y-98578571D01*
X219642857Y-98721428D02*
X219714285Y-98650000D01*
X219857142Y-98578571D01*
X220071428Y-98578571D01*
X220214285Y-98650000D01*
X220285714Y-98792857D01*
X220285714Y-99578571D01*
X220285714Y-98792857D02*
X220357142Y-98650000D01*
X220500000Y-98578571D01*
X220714285Y-98578571D01*
X220857142Y-98650000D01*
X220928571Y-98792857D01*
X220928571Y-99578571D01*
X222000000Y-101000000D02*
X214000000Y-101000000D01*
X222000000Y-113000000D02*
X222000000Y-100413579D01*
X214000000Y-113000000D02*
X214000000Y-100413579D01*
X214000000Y-101000000D02*
X215126504Y-100413579D01*
X214000000Y-101000000D02*
X215126504Y-101586421D01*
X222000000Y-101000000D02*
X220873496Y-100413579D01*
X222000000Y-101000000D02*
X220873496Y-101586421D01*
X190071428Y-156278570D02*
X189357142Y-156278570D01*
X189285714Y-156992856D01*
X189357142Y-156921427D01*
X189500000Y-156849999D01*
X189857142Y-156849999D01*
X190000000Y-156921427D01*
X190071428Y-156992856D01*
X190142857Y-157135713D01*
X190142857Y-157492856D01*
X190071428Y-157635713D01*
X190000000Y-157707141D01*
X189857142Y-157778570D01*
X189500000Y-157778570D01*
X189357142Y-157707141D01*
X189285714Y-157635713D01*
X190642857Y-156278570D02*
X191571428Y-156278570D01*
X191071428Y-156849999D01*
X191285714Y-156849999D01*
X191428571Y-156921427D01*
X191500000Y-156992856D01*
X191571428Y-157135713D01*
X191571428Y-157492856D01*
X191500000Y-157635713D01*
X191428571Y-157707141D01*
X191285714Y-157778570D01*
X190857142Y-157778570D01*
X190714285Y-157707141D01*
X190642857Y-157635713D01*
X192214285Y-157635713D02*
X192285714Y-157707141D01*
X192214285Y-157778570D01*
X192142857Y-157707141D01*
X192214285Y-157635713D01*
X192214285Y-157778570D01*
X193214285Y-156278570D02*
X193357142Y-156278570D01*
X193500000Y-156349999D01*
X193571428Y-156421427D01*
X193642857Y-156564284D01*
X193714285Y-156849999D01*
X193714285Y-157207141D01*
X193642857Y-157492856D01*
X193571428Y-157635713D01*
X193500000Y-157707141D01*
X193357142Y-157778570D01*
X193214285Y-157778570D01*
X193071428Y-157707141D01*
X193000000Y-157635713D01*
X192928571Y-157492856D01*
X192857142Y-157207141D01*
X192857142Y-156849999D01*
X192928571Y-156564284D01*
X193000000Y-156421427D01*
X193071428Y-156349999D01*
X193214285Y-156278570D01*
X194642857Y-156278570D02*
X194785714Y-156278570D01*
X194928571Y-156349999D01*
X195000000Y-156421427D01*
X195071428Y-156564284D01*
X195142857Y-156849999D01*
X195142857Y-157207141D01*
X195071428Y-157492856D01*
X195000000Y-157635713D01*
X194928571Y-157707141D01*
X194785714Y-157778570D01*
X194642857Y-157778570D01*
X194500000Y-157707141D01*
X194428571Y-157635713D01*
X194357142Y-157492856D01*
X194285714Y-157207141D01*
X194285714Y-156849999D01*
X194357142Y-156564284D01*
X194428571Y-156421427D01*
X194500000Y-156349999D01*
X194642857Y-156278570D01*
X196071428Y-156278570D02*
X196214285Y-156278570D01*
X196357142Y-156349999D01*
X196428571Y-156421427D01*
X196500000Y-156564284D01*
X196571428Y-156849999D01*
X196571428Y-157207141D01*
X196500000Y-157492856D01*
X196428571Y-157635713D01*
X196357142Y-157707141D01*
X196214285Y-157778570D01*
X196071428Y-157778570D01*
X195928571Y-157707141D01*
X195857142Y-157635713D01*
X195785714Y-157492856D01*
X195714285Y-157207141D01*
X195714285Y-156849999D01*
X195785714Y-156564284D01*
X195857142Y-156421427D01*
X195928571Y-156349999D01*
X196071428Y-156278570D01*
X198357142Y-157778570D02*
X198357142Y-156778570D01*
X198357142Y-156921427D02*
X198428571Y-156849999D01*
X198571428Y-156778570D01*
X198785714Y-156778570D01*
X198928571Y-156849999D01*
X199000000Y-156992856D01*
X199000000Y-157778570D01*
X199000000Y-156992856D02*
X199071428Y-156849999D01*
X199214285Y-156778570D01*
X199428571Y-156778570D01*
X199571428Y-156849999D01*
X199642857Y-156992856D01*
X199642857Y-157778570D01*
X200357142Y-157778570D02*
X200357142Y-156778570D01*
X200357142Y-156921427D02*
X200428571Y-156849999D01*
X200571428Y-156778570D01*
X200785714Y-156778570D01*
X200928571Y-156849999D01*
X201000000Y-156992856D01*
X201000000Y-157778570D01*
X201000000Y-156992856D02*
X201071428Y-156849999D01*
X201214285Y-156778570D01*
X201428571Y-156778570D01*
X201571428Y-156849999D01*
X201642857Y-156992856D01*
X201642857Y-157778570D01*
X169000000Y-154999999D02*
X222000000Y-154999999D01*
X169000000Y-143000000D02*
X169000000Y-155586420D01*
X222000000Y-143000000D02*
X222000000Y-155586420D01*
X222000000Y-154999999D02*
X220873496Y-155586420D01*
X222000000Y-154999999D02*
X220873496Y-154413578D01*
X169000000Y-154999999D02*
X170126504Y-155586420D01*
X169000000Y-154999999D02*
X170126504Y-154413578D01*
X169785714Y-96178571D02*
X169071428Y-96178571D01*
X169000000Y-96892857D01*
X169071428Y-96821428D01*
X169214285Y-96750000D01*
X169571428Y-96750000D01*
X169714285Y-96821428D01*
X169785714Y-96892857D01*
X169857142Y-97035714D01*
X169857142Y-97392857D01*
X169785714Y-97535714D01*
X169714285Y-97607142D01*
X169571428Y-97678571D01*
X169214285Y-97678571D01*
X169071428Y-97607142D01*
X169000000Y-97535714D01*
X171642857Y-97678571D02*
X171642857Y-96678571D01*
X171642857Y-96821428D02*
X171714285Y-96750000D01*
X171857142Y-96678571D01*
X172071428Y-96678571D01*
X172214285Y-96750000D01*
X172285714Y-96892857D01*
X172285714Y-97678571D01*
X172285714Y-96892857D02*
X172357142Y-96750000D01*
X172500000Y-96678571D01*
X172714285Y-96678571D01*
X172857142Y-96750000D01*
X172928571Y-96892857D01*
X172928571Y-97678571D01*
X173642857Y-97678571D02*
X173642857Y-96678571D01*
X173642857Y-96821428D02*
X173714285Y-96750000D01*
X173857142Y-96678571D01*
X174071428Y-96678571D01*
X174214285Y-96750000D01*
X174285714Y-96892857D01*
X174285714Y-97678571D01*
X174285714Y-96892857D02*
X174357142Y-96750000D01*
X174500000Y-96678571D01*
X174714285Y-96678571D01*
X174857142Y-96750000D01*
X174928571Y-96892857D01*
X174928571Y-97678571D01*
X174000000Y-101000000D02*
X169000000Y-101000000D01*
X174000000Y-113000000D02*
X174000000Y-98300000D01*
X169000000Y-113000000D02*
X169000000Y-98300000D01*
X169000000Y-101000000D02*
X170126504Y-100413579D01*
X169000000Y-101000000D02*
X170126504Y-101586421D01*
X174000000Y-101000000D02*
X172873496Y-100413579D01*
X174000000Y-101000000D02*
X172873496Y-101586421D01*
X191000000Y-97678571D02*
X191000000Y-98678571D01*
X190642857Y-97107142D02*
X190285714Y-98178571D01*
X191214285Y-98178571D01*
X192071428Y-97178571D02*
X192214285Y-97178571D01*
X192357142Y-97250000D01*
X192428571Y-97321428D01*
X192500000Y-97464285D01*
X192571428Y-97750000D01*
X192571428Y-98107142D01*
X192500000Y-98392857D01*
X192428571Y-98535714D01*
X192357142Y-98607142D01*
X192214285Y-98678571D01*
X192071428Y-98678571D01*
X191928571Y-98607142D01*
X191857142Y-98535714D01*
X191785714Y-98392857D01*
X191714285Y-98107142D01*
X191714285Y-97750000D01*
X191785714Y-97464285D01*
X191857142Y-97321428D01*
X191928571Y-97250000D01*
X192071428Y-97178571D01*
X194357142Y-98678571D02*
X194357142Y-97678571D01*
X194357142Y-97821428D02*
X194428571Y-97750000D01*
X194571428Y-97678571D01*
X194785714Y-97678571D01*
X194928571Y-97750000D01*
X195000000Y-97892857D01*
X195000000Y-98678571D01*
X195000000Y-97892857D02*
X195071428Y-97750000D01*
X195214285Y-97678571D01*
X195428571Y-97678571D01*
X195571428Y-97750000D01*
X195642857Y-97892857D01*
X195642857Y-98678571D01*
X196357142Y-98678571D02*
X196357142Y-97678571D01*
X196357142Y-97821428D02*
X196428571Y-97750000D01*
X196571428Y-97678571D01*
X196785714Y-97678571D01*
X196928571Y-97750000D01*
X197000000Y-97892857D01*
X197000000Y-98678571D01*
X197000000Y-97892857D02*
X197071428Y-97750000D01*
X197214285Y-97678571D01*
X197428571Y-97678571D01*
X197571428Y-97750000D01*
X197642857Y-97892857D01*
X197642857Y-98678571D01*
X214000000Y-101000000D02*
X174000000Y-101000000D01*
X214000000Y-108000000D02*
X214000000Y-98300000D01*
X174000000Y-108000000D02*
X174000000Y-98300000D01*
X174000000Y-101000000D02*
X175126504Y-100413579D01*
X174000000Y-101000000D02*
X175126504Y-101586421D01*
X214000000Y-101000000D02*
X212873496Y-100413579D01*
X214000000Y-101000000D02*
X212873496Y-101586421D01*
X160221428Y-108285714D02*
X160221428Y-107571428D01*
X159507142Y-107500000D01*
X159578571Y-107571428D01*
X159650000Y-107714285D01*
X159650000Y-108071428D01*
X159578571Y-108214285D01*
X159507142Y-108285714D01*
X159364285Y-108357142D01*
X159007142Y-108357142D01*
X158864285Y-108285714D01*
X158792857Y-108214285D01*
X158721428Y-108071428D01*
X158721428Y-107714285D01*
X158792857Y-107571428D01*
X158864285Y-107500000D01*
X158721428Y-110142857D02*
X159721428Y-110142857D01*
X159578571Y-110142857D02*
X159650000Y-110214285D01*
X159721428Y-110357142D01*
X159721428Y-110571428D01*
X159650000Y-110714285D01*
X159507142Y-110785714D01*
X158721428Y-110785714D01*
X159507142Y-110785714D02*
X159650000Y-110857142D01*
X159721428Y-111000000D01*
X159721428Y-111214285D01*
X159650000Y-111357142D01*
X159507142Y-111428571D01*
X158721428Y-111428571D01*
X158721428Y-112142857D02*
X159721428Y-112142857D01*
X159578571Y-112142857D02*
X159650000Y-112214285D01*
X159721428Y-112357142D01*
X159721428Y-112571428D01*
X159650000Y-112714285D01*
X159507142Y-112785714D01*
X158721428Y-112785714D01*
X159507142Y-112785714D02*
X159650000Y-112857142D01*
X159721428Y-113000000D01*
X159721428Y-113214285D01*
X159650000Y-113357142D01*
X159507142Y-113428571D01*
X158721428Y-113428571D01*
X161500000Y-108000000D02*
X161500000Y-113000000D01*
X174000000Y-108000000D02*
X160913579Y-108000000D01*
X174000000Y-113000000D02*
X160913579Y-113000000D01*
X161500000Y-113000000D02*
X160913579Y-111873496D01*
X161500000Y-113000000D02*
X162086421Y-111873496D01*
X161500000Y-108000000D02*
X160913579Y-109126504D01*
X161500000Y-108000000D02*
X162086421Y-109126504D01*
X164221428Y-125000000D02*
X163221428Y-125000000D01*
X164792857Y-124642857D02*
X163721428Y-124285714D01*
X163721428Y-125214285D01*
X164721428Y-126071428D02*
X164721428Y-126214285D01*
X164650000Y-126357142D01*
X164578571Y-126428571D01*
X164435714Y-126500000D01*
X164150000Y-126571428D01*
X163792857Y-126571428D01*
X163507142Y-126500000D01*
X163364285Y-126428571D01*
X163292857Y-126357142D01*
X163221428Y-126214285D01*
X163221428Y-126071428D01*
X163292857Y-125928571D01*
X163364285Y-125857142D01*
X163507142Y-125785714D01*
X163792857Y-125714285D01*
X164150000Y-125714285D01*
X164435714Y-125785714D01*
X164578571Y-125857142D01*
X164650000Y-125928571D01*
X164721428Y-126071428D01*
X163221428Y-128357142D02*
X164221428Y-128357142D01*
X164078571Y-128357142D02*
X164150000Y-128428571D01*
X164221428Y-128571428D01*
X164221428Y-128785714D01*
X164150000Y-128928571D01*
X164007142Y-129000000D01*
X163221428Y-129000000D01*
X164007142Y-129000000D02*
X164150000Y-129071428D01*
X164221428Y-129214285D01*
X164221428Y-129428571D01*
X164150000Y-129571428D01*
X164007142Y-129642857D01*
X163221428Y-129642857D01*
X163221428Y-130357142D02*
X164221428Y-130357142D01*
X164078571Y-130357142D02*
X164150000Y-130428571D01*
X164221428Y-130571428D01*
X164221428Y-130785714D01*
X164150000Y-130928571D01*
X164007142Y-131000000D01*
X163221428Y-131000000D01*
X164007142Y-131000000D02*
X164150000Y-131071428D01*
X164221428Y-131214285D01*
X164221428Y-131428571D01*
X164150000Y-131571428D01*
X164007142Y-131642857D01*
X163221428Y-131642857D01*
X166000000Y-108000000D02*
X166000000Y-148000000D01*
X174000000Y-108000000D02*
X165413579Y-108000000D01*
X174000000Y-148000000D02*
X165413579Y-148000000D01*
X166000000Y-148000000D02*
X165413579Y-146873496D01*
X166000000Y-148000000D02*
X166586421Y-146873496D01*
X166000000Y-108000000D02*
X165413579Y-109126504D01*
X166000000Y-108000000D02*
X166586421Y-109126504D01*
D11*
X218200000Y-116000000D02*
G75*
G03X218200000Y-116000000I-2200000J0D01*
G01*
X174200000Y-116000000D02*
G75*
G03X174200000Y-116000000I-2200000J0D01*
G01*
X218200000Y-140000000D02*
G75*
G03X218200000Y-140000000I-2200000J0D01*
G01*
X174200000Y-140000000D02*
G75*
G03X174200000Y-140000000I-2200000J0D01*
G01*
M02*
