G04 #@! TF.GenerationSoftware,KiCad,Pcbnew,(5.1.4)-1*
G04 #@! TF.CreationDate,2020-02-23T17:45:57-05:00*
G04 #@! TF.ProjectId,Dash_Warning_Panel,44617368-5f57-4617-926e-696e675f5061,rev?*
G04 #@! TF.SameCoordinates,Original*
G04 #@! TF.FileFunction,Soldermask,Bot*
G04 #@! TF.FilePolarity,Negative*
%FSLAX46Y46*%
G04 Gerber Fmt 4.6, Leading zero omitted, Abs format (unit mm)*
G04 Created by KiCad (PCBNEW (5.1.4)-1) date 2020-02-23 17:45:57*
%MOMM*%
%LPD*%
G04 APERTURE LIST*
%ADD10C,0.100000*%
G04 APERTURE END LIST*
D10*
G36*
X216335675Y-138893424D02*
G01*
X216422425Y-138929357D01*
X216545108Y-138980174D01*
X216733592Y-139106115D01*
X216893885Y-139266408D01*
X217019826Y-139454892D01*
X217070643Y-139577575D01*
X217106576Y-139664325D01*
X217150800Y-139886655D01*
X217150800Y-140113345D01*
X217106576Y-140335675D01*
X217070643Y-140422425D01*
X217019826Y-140545108D01*
X216893885Y-140733592D01*
X216733592Y-140893885D01*
X216545108Y-141019826D01*
X216422425Y-141070643D01*
X216335675Y-141106576D01*
X216113345Y-141150800D01*
X215886655Y-141150800D01*
X215664325Y-141106576D01*
X215577575Y-141070643D01*
X215454892Y-141019826D01*
X215266408Y-140893885D01*
X215106115Y-140733592D01*
X214980174Y-140545108D01*
X214929357Y-140422425D01*
X214893424Y-140335675D01*
X214849200Y-140113345D01*
X214849200Y-139886655D01*
X214893424Y-139664325D01*
X214929357Y-139577575D01*
X214980174Y-139454892D01*
X215106115Y-139266408D01*
X215266408Y-139106115D01*
X215454892Y-138980174D01*
X215577575Y-138929357D01*
X215664325Y-138893424D01*
X215886655Y-138849200D01*
X216113345Y-138849200D01*
X216335675Y-138893424D01*
X216335675Y-138893424D01*
G37*
G36*
X172335675Y-138893424D02*
G01*
X172422425Y-138929357D01*
X172545108Y-138980174D01*
X172733592Y-139106115D01*
X172893885Y-139266408D01*
X173019826Y-139454892D01*
X173070643Y-139577575D01*
X173106576Y-139664325D01*
X173150800Y-139886655D01*
X173150800Y-140113345D01*
X173106576Y-140335675D01*
X173070643Y-140422425D01*
X173019826Y-140545108D01*
X172893885Y-140733592D01*
X172733592Y-140893885D01*
X172545108Y-141019826D01*
X172422425Y-141070643D01*
X172335675Y-141106576D01*
X172113345Y-141150800D01*
X171886655Y-141150800D01*
X171664325Y-141106576D01*
X171577575Y-141070643D01*
X171454892Y-141019826D01*
X171266408Y-140893885D01*
X171106115Y-140733592D01*
X170980174Y-140545108D01*
X170929357Y-140422425D01*
X170893424Y-140335675D01*
X170849200Y-140113345D01*
X170849200Y-139886655D01*
X170893424Y-139664325D01*
X170929357Y-139577575D01*
X170980174Y-139454892D01*
X171106115Y-139266408D01*
X171266408Y-139106115D01*
X171454892Y-138980174D01*
X171577575Y-138929357D01*
X171664325Y-138893424D01*
X171886655Y-138849200D01*
X172113345Y-138849200D01*
X172335675Y-138893424D01*
X172335675Y-138893424D01*
G37*
G36*
X220850800Y-138050800D02*
G01*
X218149200Y-138050800D01*
X218149200Y-135949200D01*
X220850800Y-135949200D01*
X220850800Y-138050800D01*
X220850800Y-138050800D01*
G37*
G36*
X220005991Y-133424404D02*
G01*
X220204072Y-133484491D01*
X220386617Y-133582064D01*
X220546623Y-133713377D01*
X220677936Y-133873383D01*
X220775509Y-134055928D01*
X220835596Y-134254009D01*
X220855884Y-134460000D01*
X220835596Y-134665991D01*
X220775509Y-134864072D01*
X220677936Y-135046617D01*
X220546623Y-135206623D01*
X220386617Y-135337936D01*
X220204072Y-135435509D01*
X220005991Y-135495596D01*
X219851621Y-135510800D01*
X219148379Y-135510800D01*
X218994009Y-135495596D01*
X218795928Y-135435509D01*
X218613383Y-135337936D01*
X218453377Y-135206623D01*
X218322064Y-135046617D01*
X218224491Y-134864072D01*
X218164404Y-134665991D01*
X218144116Y-134460000D01*
X218164404Y-134254009D01*
X218224491Y-134055928D01*
X218322064Y-133873383D01*
X218453377Y-133713377D01*
X218613383Y-133582064D01*
X218795928Y-133484491D01*
X218994009Y-133424404D01*
X219148379Y-133409200D01*
X219851621Y-133409200D01*
X220005991Y-133424404D01*
X220005991Y-133424404D01*
G37*
G36*
X220005991Y-130884404D02*
G01*
X220204072Y-130944491D01*
X220386617Y-131042064D01*
X220546623Y-131173377D01*
X220677936Y-131333383D01*
X220775509Y-131515928D01*
X220835596Y-131714009D01*
X220855884Y-131920000D01*
X220835596Y-132125991D01*
X220775509Y-132324072D01*
X220677936Y-132506617D01*
X220546623Y-132666623D01*
X220386617Y-132797936D01*
X220204072Y-132895509D01*
X220005991Y-132955596D01*
X219851621Y-132970800D01*
X219148379Y-132970800D01*
X218994009Y-132955596D01*
X218795928Y-132895509D01*
X218613383Y-132797936D01*
X218453377Y-132666623D01*
X218322064Y-132506617D01*
X218224491Y-132324072D01*
X218164404Y-132125991D01*
X218144116Y-131920000D01*
X218164404Y-131714009D01*
X218224491Y-131515928D01*
X218322064Y-131333383D01*
X218453377Y-131173377D01*
X218613383Y-131042064D01*
X218795928Y-130944491D01*
X218994009Y-130884404D01*
X219148379Y-130869200D01*
X219851621Y-130869200D01*
X220005991Y-130884404D01*
X220005991Y-130884404D01*
G37*
G36*
X190500800Y-132300800D02*
G01*
X189499200Y-132300800D01*
X189499200Y-131699200D01*
X190500800Y-131699200D01*
X190500800Y-132300800D01*
X190500800Y-132300800D01*
G37*
G36*
X187750800Y-132300800D02*
G01*
X186749200Y-132300800D01*
X186749200Y-131699200D01*
X187750800Y-131699200D01*
X187750800Y-132300800D01*
X187750800Y-132300800D01*
G37*
G36*
X182750800Y-132300800D02*
G01*
X181749200Y-132300800D01*
X181749200Y-131699200D01*
X182750800Y-131699200D01*
X182750800Y-132300800D01*
X182750800Y-132300800D01*
G37*
G36*
X196750800Y-123419201D02*
G01*
X196753202Y-123443587D01*
X196760315Y-123467036D01*
X196771866Y-123488647D01*
X196787411Y-123507589D01*
X196806353Y-123523134D01*
X196827964Y-123534685D01*
X196851413Y-123541798D01*
X196875799Y-123544200D01*
X201124201Y-123544200D01*
X201148587Y-123541798D01*
X201172036Y-123534685D01*
X201193647Y-123523134D01*
X201212589Y-123507589D01*
X201228134Y-123488647D01*
X201239685Y-123467036D01*
X201246798Y-123443587D01*
X201249200Y-123419201D01*
X201249200Y-123024200D01*
X202450800Y-123024200D01*
X202450800Y-131975800D01*
X201249200Y-131975800D01*
X201249200Y-131580799D01*
X201246798Y-131556413D01*
X201239685Y-131532964D01*
X201228134Y-131511353D01*
X201212589Y-131492411D01*
X201193647Y-131476866D01*
X201172036Y-131465315D01*
X201148587Y-131458202D01*
X201124201Y-131455800D01*
X196875799Y-131455800D01*
X196851413Y-131458202D01*
X196827964Y-131465315D01*
X196806353Y-131476866D01*
X196787411Y-131492411D01*
X196771866Y-131511353D01*
X196760315Y-131532964D01*
X196753202Y-131556413D01*
X196750800Y-131580799D01*
X196750800Y-131975800D01*
X195549200Y-131975800D01*
X195549200Y-123024200D01*
X196750800Y-123024200D01*
X196750800Y-123419201D01*
X196750800Y-123419201D01*
G37*
G36*
X210425800Y-131950800D02*
G01*
X209574200Y-131950800D01*
X209574200Y-131049200D01*
X210425800Y-131049200D01*
X210425800Y-131950800D01*
X210425800Y-131950800D01*
G37*
G36*
X182750800Y-130800800D02*
G01*
X181749200Y-130800800D01*
X181749200Y-130199200D01*
X182750800Y-130199200D01*
X182750800Y-130800800D01*
X182750800Y-130800800D01*
G37*
G36*
X190500800Y-130800800D02*
G01*
X189499200Y-130800800D01*
X189499200Y-130199200D01*
X190500800Y-130199200D01*
X190500800Y-130800800D01*
X190500800Y-130800800D01*
G37*
G36*
X187750800Y-130800800D02*
G01*
X186749200Y-130800800D01*
X186749200Y-130199200D01*
X187750800Y-130199200D01*
X187750800Y-130800800D01*
X187750800Y-130800800D01*
G37*
G36*
X210425800Y-130450800D02*
G01*
X209574200Y-130450800D01*
X209574200Y-129549200D01*
X210425800Y-129549200D01*
X210425800Y-130450800D01*
X210425800Y-130450800D01*
G37*
G36*
X220005991Y-128344404D02*
G01*
X220204072Y-128404491D01*
X220386617Y-128502064D01*
X220546623Y-128633377D01*
X220677936Y-128793383D01*
X220775509Y-128975928D01*
X220835596Y-129174009D01*
X220855884Y-129380000D01*
X220835596Y-129585991D01*
X220775509Y-129784072D01*
X220677936Y-129966617D01*
X220546623Y-130126623D01*
X220386617Y-130257936D01*
X220204072Y-130355509D01*
X220005991Y-130415596D01*
X219851621Y-130430800D01*
X219148379Y-130430800D01*
X218994009Y-130415596D01*
X218795928Y-130355509D01*
X218613383Y-130257936D01*
X218453377Y-130126623D01*
X218322064Y-129966617D01*
X218224491Y-129784072D01*
X218164404Y-129585991D01*
X218144116Y-129380000D01*
X218164404Y-129174009D01*
X218224491Y-128975928D01*
X218322064Y-128793383D01*
X218453377Y-128633377D01*
X218613383Y-128502064D01*
X218795928Y-128404491D01*
X218994009Y-128344404D01*
X219148379Y-128329200D01*
X219851621Y-128329200D01*
X220005991Y-128344404D01*
X220005991Y-128344404D01*
G37*
G36*
X220005991Y-125804404D02*
G01*
X220204072Y-125864491D01*
X220386617Y-125962064D01*
X220546623Y-126093377D01*
X220677936Y-126253383D01*
X220775509Y-126435928D01*
X220835596Y-126634009D01*
X220855884Y-126840000D01*
X220835596Y-127045991D01*
X220775509Y-127244072D01*
X220677936Y-127426617D01*
X220546623Y-127586623D01*
X220386617Y-127717936D01*
X220204072Y-127815509D01*
X220005991Y-127875596D01*
X219851621Y-127890800D01*
X219148379Y-127890800D01*
X218994009Y-127875596D01*
X218795928Y-127815509D01*
X218613383Y-127717936D01*
X218453377Y-127586623D01*
X218322064Y-127426617D01*
X218224491Y-127244072D01*
X218164404Y-127045991D01*
X218144116Y-126840000D01*
X218164404Y-126634009D01*
X218224491Y-126435928D01*
X218322064Y-126253383D01*
X218453377Y-126093377D01*
X218613383Y-125962064D01*
X218795928Y-125864491D01*
X218994009Y-125804404D01*
X219148379Y-125789200D01*
X219851621Y-125789200D01*
X220005991Y-125804404D01*
X220005991Y-125804404D01*
G37*
G36*
X220005991Y-123264404D02*
G01*
X220204072Y-123324491D01*
X220386617Y-123422064D01*
X220546623Y-123553377D01*
X220677936Y-123713383D01*
X220775509Y-123895928D01*
X220835596Y-124094009D01*
X220855884Y-124300000D01*
X220835596Y-124505991D01*
X220775509Y-124704072D01*
X220677936Y-124886617D01*
X220546623Y-125046623D01*
X220386617Y-125177936D01*
X220204072Y-125275509D01*
X220005991Y-125335596D01*
X219851621Y-125350800D01*
X219148379Y-125350800D01*
X218994009Y-125335596D01*
X218795928Y-125275509D01*
X218613383Y-125177936D01*
X218453377Y-125046623D01*
X218322064Y-124886617D01*
X218224491Y-124704072D01*
X218164404Y-124505991D01*
X218144116Y-124300000D01*
X218164404Y-124094009D01*
X218224491Y-123895928D01*
X218322064Y-123713383D01*
X218453377Y-123553377D01*
X218613383Y-123422064D01*
X218795928Y-123324491D01*
X218994009Y-123264404D01*
X219148379Y-123249200D01*
X219851621Y-123249200D01*
X220005991Y-123264404D01*
X220005991Y-123264404D01*
G37*
G36*
X206675800Y-123700800D02*
G01*
X205824200Y-123700800D01*
X205824200Y-122799200D01*
X206675800Y-122799200D01*
X206675800Y-123700800D01*
X206675800Y-123700800D01*
G37*
G36*
X204675800Y-123700800D02*
G01*
X203824200Y-123700800D01*
X203824200Y-122799200D01*
X204675800Y-122799200D01*
X204675800Y-123700800D01*
X204675800Y-123700800D01*
G37*
G36*
X220005991Y-120724404D02*
G01*
X220204072Y-120784491D01*
X220386617Y-120882064D01*
X220546623Y-121013377D01*
X220677936Y-121173383D01*
X220775509Y-121355928D01*
X220835596Y-121554009D01*
X220855884Y-121760000D01*
X220835596Y-121965991D01*
X220775509Y-122164072D01*
X220677936Y-122346617D01*
X220546623Y-122506623D01*
X220386617Y-122637936D01*
X220204072Y-122735509D01*
X220005991Y-122795596D01*
X219851621Y-122810800D01*
X219148379Y-122810800D01*
X218994009Y-122795596D01*
X218795928Y-122735509D01*
X218613383Y-122637936D01*
X218453377Y-122506623D01*
X218322064Y-122346617D01*
X218224491Y-122164072D01*
X218164404Y-121965991D01*
X218144116Y-121760000D01*
X218164404Y-121554009D01*
X218224491Y-121355928D01*
X218322064Y-121173383D01*
X218453377Y-121013377D01*
X218613383Y-120882064D01*
X218795928Y-120784491D01*
X218994009Y-120724404D01*
X219148379Y-120709200D01*
X219851621Y-120709200D01*
X220005991Y-120724404D01*
X220005991Y-120724404D01*
G37*
G36*
X206675800Y-122200800D02*
G01*
X205824200Y-122200800D01*
X205824200Y-121299200D01*
X206675800Y-121299200D01*
X206675800Y-122200800D01*
X206675800Y-122200800D01*
G37*
G36*
X204675800Y-122200800D02*
G01*
X203824200Y-122200800D01*
X203824200Y-121299200D01*
X204675800Y-121299200D01*
X204675800Y-122200800D01*
X204675800Y-122200800D01*
G37*
G36*
X220005991Y-118184404D02*
G01*
X220204072Y-118244491D01*
X220386617Y-118342064D01*
X220546623Y-118473377D01*
X220677936Y-118633383D01*
X220775509Y-118815928D01*
X220835596Y-119014009D01*
X220855884Y-119220000D01*
X220835596Y-119425991D01*
X220775509Y-119624072D01*
X220677936Y-119806617D01*
X220546623Y-119966623D01*
X220386617Y-120097936D01*
X220204072Y-120195509D01*
X220005991Y-120255596D01*
X219851621Y-120270800D01*
X219148379Y-120270800D01*
X218994009Y-120255596D01*
X218795928Y-120195509D01*
X218613383Y-120097936D01*
X218453377Y-119966623D01*
X218322064Y-119806617D01*
X218224491Y-119624072D01*
X218164404Y-119425991D01*
X218144116Y-119220000D01*
X218164404Y-119014009D01*
X218224491Y-118815928D01*
X218322064Y-118633383D01*
X218453377Y-118473377D01*
X218613383Y-118342064D01*
X218795928Y-118244491D01*
X218994009Y-118184404D01*
X219148379Y-118169200D01*
X219851621Y-118169200D01*
X220005991Y-118184404D01*
X220005991Y-118184404D01*
G37*
G36*
X182750800Y-118550800D02*
G01*
X181749200Y-118550800D01*
X181749200Y-117949200D01*
X182750800Y-117949200D01*
X182750800Y-118550800D01*
X182750800Y-118550800D01*
G37*
G36*
X187750800Y-118550800D02*
G01*
X186749200Y-118550800D01*
X186749200Y-117949200D01*
X187750800Y-117949200D01*
X187750800Y-118550800D01*
X187750800Y-118550800D01*
G37*
G36*
X190250800Y-118550800D02*
G01*
X189249200Y-118550800D01*
X189249200Y-117949200D01*
X190250800Y-117949200D01*
X190250800Y-118550800D01*
X190250800Y-118550800D01*
G37*
G36*
X180250800Y-118550800D02*
G01*
X179249200Y-118550800D01*
X179249200Y-117949200D01*
X180250800Y-117949200D01*
X180250800Y-118550800D01*
X180250800Y-118550800D01*
G37*
G36*
X172335675Y-114893424D02*
G01*
X172422425Y-114929357D01*
X172545108Y-114980174D01*
X172733592Y-115106115D01*
X172893885Y-115266408D01*
X173019826Y-115454892D01*
X173070643Y-115577575D01*
X173106576Y-115664325D01*
X173150800Y-115886655D01*
X173150800Y-116113345D01*
X173106576Y-116335675D01*
X173070643Y-116422425D01*
X173019826Y-116545108D01*
X172893885Y-116733592D01*
X172733592Y-116893885D01*
X172545108Y-117019826D01*
X172422425Y-117070643D01*
X172335675Y-117106576D01*
X172113345Y-117150800D01*
X171886655Y-117150800D01*
X171664325Y-117106576D01*
X171577575Y-117070643D01*
X171454892Y-117019826D01*
X171266408Y-116893885D01*
X171106115Y-116733592D01*
X170980174Y-116545108D01*
X170929357Y-116422425D01*
X170893424Y-116335675D01*
X170849200Y-116113345D01*
X170849200Y-115886655D01*
X170893424Y-115664325D01*
X170929357Y-115577575D01*
X170980174Y-115454892D01*
X171106115Y-115266408D01*
X171266408Y-115106115D01*
X171454892Y-114980174D01*
X171577575Y-114929357D01*
X171664325Y-114893424D01*
X171886655Y-114849200D01*
X172113345Y-114849200D01*
X172335675Y-114893424D01*
X172335675Y-114893424D01*
G37*
G36*
X216335675Y-114893424D02*
G01*
X216422425Y-114929357D01*
X216545108Y-114980174D01*
X216733592Y-115106115D01*
X216893885Y-115266408D01*
X217019826Y-115454892D01*
X217070643Y-115577575D01*
X217106576Y-115664325D01*
X217150800Y-115886655D01*
X217150800Y-116113345D01*
X217106576Y-116335675D01*
X217070643Y-116422425D01*
X217019826Y-116545108D01*
X216893885Y-116733592D01*
X216733592Y-116893885D01*
X216545108Y-117019826D01*
X216422425Y-117070643D01*
X216335675Y-117106576D01*
X216113345Y-117150800D01*
X215886655Y-117150800D01*
X215664325Y-117106576D01*
X215577575Y-117070643D01*
X215454892Y-117019826D01*
X215266408Y-116893885D01*
X215106115Y-116733592D01*
X214980174Y-116545108D01*
X214929357Y-116422425D01*
X214893424Y-116335675D01*
X214849200Y-116113345D01*
X214849200Y-115886655D01*
X214893424Y-115664325D01*
X214929357Y-115577575D01*
X214980174Y-115454892D01*
X215106115Y-115266408D01*
X215266408Y-115106115D01*
X215454892Y-114980174D01*
X215577575Y-114929357D01*
X215664325Y-114893424D01*
X215886655Y-114849200D01*
X216113345Y-114849200D01*
X216335675Y-114893424D01*
X216335675Y-114893424D01*
G37*
G36*
X180250800Y-117050800D02*
G01*
X179249200Y-117050800D01*
X179249200Y-116449200D01*
X180250800Y-116449200D01*
X180250800Y-117050800D01*
X180250800Y-117050800D01*
G37*
G36*
X182750800Y-117050800D02*
G01*
X181749200Y-117050800D01*
X181749200Y-116449200D01*
X182750800Y-116449200D01*
X182750800Y-117050800D01*
X182750800Y-117050800D01*
G37*
G36*
X190250800Y-117050800D02*
G01*
X189249200Y-117050800D01*
X189249200Y-116449200D01*
X190250800Y-116449200D01*
X190250800Y-117050800D01*
X190250800Y-117050800D01*
G37*
G36*
X187750800Y-117050800D02*
G01*
X186749200Y-117050800D01*
X186749200Y-116449200D01*
X187750800Y-116449200D01*
X187750800Y-117050800D01*
X187750800Y-117050800D01*
G37*
M02*
