G04 #@! TF.GenerationSoftware,KiCad,Pcbnew,(5.1.9)-1*
G04 #@! TF.CreationDate,2021-02-18T19:59:53-05:00*
G04 #@! TF.ProjectId,Dash_Warning_Panel,44617368-5f57-4617-926e-696e675f5061,rev?*
G04 #@! TF.SameCoordinates,Original*
G04 #@! TF.FileFunction,Soldermask,Bot*
G04 #@! TF.FilePolarity,Negative*
%FSLAX46Y46*%
G04 Gerber Fmt 4.6, Leading zero omitted, Abs format (unit mm)*
G04 Created by KiCad (PCBNEW (5.1.9)-1) date 2021-02-18 19:59:53*
%MOMM*%
%LPD*%
G01*
G04 APERTURE LIST*
%ADD10C,0.150000*%
%ADD11C,0.100000*%
%ADD12C,1.701600*%
%ADD13C,2.301600*%
G04 APERTURE END LIST*
D10*
X209900000Y-144800000D02*
X209800000Y-144600000D01*
X209500000Y-145700000D02*
X209600000Y-145600000D01*
X209100000Y-146000000D02*
X209500000Y-145700000D01*
X211900000Y-144900000D02*
X211400000Y-144500000D01*
X209845000Y-146725000D02*
X207345000Y-145975000D01*
X206675000Y-145915000D02*
X205845000Y-145975000D01*
X213600000Y-146800000D02*
X211900000Y-144900000D01*
X205845000Y-145975000D02*
X204845000Y-146225000D01*
X207345000Y-145975000D02*
X206675000Y-145915000D01*
X210800000Y-144500000D02*
X210595000Y-144725000D01*
X210595000Y-144725000D02*
X210095000Y-146475000D01*
X210095000Y-146475000D02*
X209845000Y-146725000D01*
X204635000Y-146735000D02*
X204845000Y-146975000D01*
X204845000Y-146225000D02*
X204595000Y-146475000D01*
X204595000Y-146475000D02*
X204635000Y-146735000D01*
D11*
G36*
X206050000Y-116950000D02*
G01*
X200700000Y-122000000D01*
X197000000Y-122000000D01*
X191950000Y-116850000D01*
X191950000Y-116050000D01*
X206050000Y-116050000D01*
X206050000Y-116950000D01*
G37*
X206050000Y-116950000D02*
X200700000Y-122000000D01*
X197000000Y-122000000D01*
X191950000Y-116850000D01*
X191950000Y-116050000D01*
X206050000Y-116050000D01*
X206050000Y-116950000D01*
G36*
X206000000Y-137500000D02*
G01*
X206000000Y-138300000D01*
X191900000Y-138300000D01*
X191900000Y-137400000D01*
X197250000Y-132350000D01*
X200950000Y-132350000D01*
X206000000Y-137500000D01*
G37*
X206000000Y-137500000D02*
X206000000Y-138300000D01*
X191900000Y-138300000D01*
X191900000Y-137400000D01*
X197250000Y-132350000D01*
X200950000Y-132350000D01*
X206000000Y-137500000D01*
D10*
X209900000Y-144800000D02*
X209800000Y-144600000D01*
X209500000Y-145700000D02*
X209600000Y-145600000D01*
X209100000Y-146000000D02*
X209500000Y-145700000D01*
X211900000Y-144900000D02*
X211400000Y-144500000D01*
X209845000Y-146725000D02*
X207345000Y-145975000D01*
X206675000Y-145915000D02*
X205845000Y-145975000D01*
X213600000Y-146800000D02*
X211900000Y-144900000D01*
X205845000Y-145975000D02*
X204845000Y-146225000D01*
X207345000Y-145975000D02*
X206675000Y-145915000D01*
X210800000Y-144500000D02*
X210595000Y-144725000D01*
X210595000Y-144725000D02*
X210095000Y-146475000D01*
X210095000Y-146475000D02*
X209845000Y-146725000D01*
X204635000Y-146735000D02*
X204845000Y-146975000D01*
X204845000Y-146225000D02*
X204595000Y-146475000D01*
X204595000Y-146475000D02*
X204635000Y-146735000D01*
D11*
G36*
X206050000Y-116950000D02*
G01*
X200700000Y-122000000D01*
X197000000Y-122000000D01*
X191950000Y-116850000D01*
X191950000Y-116050000D01*
X206050000Y-116050000D01*
X206050000Y-116950000D01*
G37*
X206050000Y-116950000D02*
X200700000Y-122000000D01*
X197000000Y-122000000D01*
X191950000Y-116850000D01*
X191950000Y-116050000D01*
X206050000Y-116050000D01*
X206050000Y-116950000D01*
G36*
X206000000Y-137500000D02*
G01*
X206000000Y-138300000D01*
X191900000Y-138300000D01*
X191900000Y-137400000D01*
X197250000Y-132350000D01*
X200950000Y-132350000D01*
X206000000Y-137500000D01*
G37*
X206000000Y-137500000D02*
X206000000Y-138300000D01*
X191900000Y-138300000D01*
X191900000Y-137400000D01*
X197250000Y-132350000D01*
X200950000Y-132350000D01*
X206000000Y-137500000D01*
D12*
X219000000Y-121000000D03*
X219000000Y-123000000D03*
X219000000Y-125000000D03*
X219000000Y-127000000D03*
X219000000Y-129000000D03*
X219000000Y-131000000D03*
X219000000Y-133000000D03*
X219000000Y-135000000D03*
G36*
G01*
X196750800Y-123075000D02*
X196750800Y-123475000D01*
G75*
G02*
X196700000Y-123525800I-50800J0D01*
G01*
X195600000Y-123525800D01*
G75*
G02*
X195549200Y-123475000I0J50800D01*
G01*
X195549200Y-123075000D01*
G75*
G02*
X195600000Y-123024200I50800J0D01*
G01*
X196700000Y-123024200D01*
G75*
G02*
X196750800Y-123075000I0J-50800D01*
G01*
G37*
G36*
G01*
X196750800Y-123725000D02*
X196750800Y-124125000D01*
G75*
G02*
X196700000Y-124175800I-50800J0D01*
G01*
X195600000Y-124175800D01*
G75*
G02*
X195549200Y-124125000I0J50800D01*
G01*
X195549200Y-123725000D01*
G75*
G02*
X195600000Y-123674200I50800J0D01*
G01*
X196700000Y-123674200D01*
G75*
G02*
X196750800Y-123725000I0J-50800D01*
G01*
G37*
G36*
G01*
X196750800Y-124375000D02*
X196750800Y-124775000D01*
G75*
G02*
X196700000Y-124825800I-50800J0D01*
G01*
X195600000Y-124825800D01*
G75*
G02*
X195549200Y-124775000I0J50800D01*
G01*
X195549200Y-124375000D01*
G75*
G02*
X195600000Y-124324200I50800J0D01*
G01*
X196700000Y-124324200D01*
G75*
G02*
X196750800Y-124375000I0J-50800D01*
G01*
G37*
G36*
G01*
X196750800Y-125025000D02*
X196750800Y-125425000D01*
G75*
G02*
X196700000Y-125475800I-50800J0D01*
G01*
X195600000Y-125475800D01*
G75*
G02*
X195549200Y-125425000I0J50800D01*
G01*
X195549200Y-125025000D01*
G75*
G02*
X195600000Y-124974200I50800J0D01*
G01*
X196700000Y-124974200D01*
G75*
G02*
X196750800Y-125025000I0J-50800D01*
G01*
G37*
G36*
G01*
X196750800Y-125675000D02*
X196750800Y-126075000D01*
G75*
G02*
X196700000Y-126125800I-50800J0D01*
G01*
X195600000Y-126125800D01*
G75*
G02*
X195549200Y-126075000I0J50800D01*
G01*
X195549200Y-125675000D01*
G75*
G02*
X195600000Y-125624200I50800J0D01*
G01*
X196700000Y-125624200D01*
G75*
G02*
X196750800Y-125675000I0J-50800D01*
G01*
G37*
G36*
G01*
X196750800Y-126325000D02*
X196750800Y-126725000D01*
G75*
G02*
X196700000Y-126775800I-50800J0D01*
G01*
X195600000Y-126775800D01*
G75*
G02*
X195549200Y-126725000I0J50800D01*
G01*
X195549200Y-126325000D01*
G75*
G02*
X195600000Y-126274200I50800J0D01*
G01*
X196700000Y-126274200D01*
G75*
G02*
X196750800Y-126325000I0J-50800D01*
G01*
G37*
G36*
G01*
X196750800Y-126975000D02*
X196750800Y-127375000D01*
G75*
G02*
X196700000Y-127425800I-50800J0D01*
G01*
X195600000Y-127425800D01*
G75*
G02*
X195549200Y-127375000I0J50800D01*
G01*
X195549200Y-126975000D01*
G75*
G02*
X195600000Y-126924200I50800J0D01*
G01*
X196700000Y-126924200D01*
G75*
G02*
X196750800Y-126975000I0J-50800D01*
G01*
G37*
G36*
G01*
X196750800Y-127625000D02*
X196750800Y-128025000D01*
G75*
G02*
X196700000Y-128075800I-50800J0D01*
G01*
X195600000Y-128075800D01*
G75*
G02*
X195549200Y-128025000I0J50800D01*
G01*
X195549200Y-127625000D01*
G75*
G02*
X195600000Y-127574200I50800J0D01*
G01*
X196700000Y-127574200D01*
G75*
G02*
X196750800Y-127625000I0J-50800D01*
G01*
G37*
G36*
G01*
X196750800Y-128275000D02*
X196750800Y-128675000D01*
G75*
G02*
X196700000Y-128725800I-50800J0D01*
G01*
X195600000Y-128725800D01*
G75*
G02*
X195549200Y-128675000I0J50800D01*
G01*
X195549200Y-128275000D01*
G75*
G02*
X195600000Y-128224200I50800J0D01*
G01*
X196700000Y-128224200D01*
G75*
G02*
X196750800Y-128275000I0J-50800D01*
G01*
G37*
G36*
G01*
X196750800Y-128925000D02*
X196750800Y-129325000D01*
G75*
G02*
X196700000Y-129375800I-50800J0D01*
G01*
X195600000Y-129375800D01*
G75*
G02*
X195549200Y-129325000I0J50800D01*
G01*
X195549200Y-128925000D01*
G75*
G02*
X195600000Y-128874200I50800J0D01*
G01*
X196700000Y-128874200D01*
G75*
G02*
X196750800Y-128925000I0J-50800D01*
G01*
G37*
G36*
G01*
X196750800Y-129575000D02*
X196750800Y-129975000D01*
G75*
G02*
X196700000Y-130025800I-50800J0D01*
G01*
X195600000Y-130025800D01*
G75*
G02*
X195549200Y-129975000I0J50800D01*
G01*
X195549200Y-129575000D01*
G75*
G02*
X195600000Y-129524200I50800J0D01*
G01*
X196700000Y-129524200D01*
G75*
G02*
X196750800Y-129575000I0J-50800D01*
G01*
G37*
G36*
G01*
X196750800Y-130225000D02*
X196750800Y-130625000D01*
G75*
G02*
X196700000Y-130675800I-50800J0D01*
G01*
X195600000Y-130675800D01*
G75*
G02*
X195549200Y-130625000I0J50800D01*
G01*
X195549200Y-130225000D01*
G75*
G02*
X195600000Y-130174200I50800J0D01*
G01*
X196700000Y-130174200D01*
G75*
G02*
X196750800Y-130225000I0J-50800D01*
G01*
G37*
G36*
G01*
X196750800Y-130875000D02*
X196750800Y-131275000D01*
G75*
G02*
X196700000Y-131325800I-50800J0D01*
G01*
X195600000Y-131325800D01*
G75*
G02*
X195549200Y-131275000I0J50800D01*
G01*
X195549200Y-130875000D01*
G75*
G02*
X195600000Y-130824200I50800J0D01*
G01*
X196700000Y-130824200D01*
G75*
G02*
X196750800Y-130875000I0J-50800D01*
G01*
G37*
G36*
G01*
X196750800Y-131525000D02*
X196750800Y-131925000D01*
G75*
G02*
X196700000Y-131975800I-50800J0D01*
G01*
X195600000Y-131975800D01*
G75*
G02*
X195549200Y-131925000I0J50800D01*
G01*
X195549200Y-131525000D01*
G75*
G02*
X195600000Y-131474200I50800J0D01*
G01*
X196700000Y-131474200D01*
G75*
G02*
X196750800Y-131525000I0J-50800D01*
G01*
G37*
G36*
G01*
X202450800Y-131525000D02*
X202450800Y-131925000D01*
G75*
G02*
X202400000Y-131975800I-50800J0D01*
G01*
X201300000Y-131975800D01*
G75*
G02*
X201249200Y-131925000I0J50800D01*
G01*
X201249200Y-131525000D01*
G75*
G02*
X201300000Y-131474200I50800J0D01*
G01*
X202400000Y-131474200D01*
G75*
G02*
X202450800Y-131525000I0J-50800D01*
G01*
G37*
G36*
G01*
X202450800Y-130875000D02*
X202450800Y-131275000D01*
G75*
G02*
X202400000Y-131325800I-50800J0D01*
G01*
X201300000Y-131325800D01*
G75*
G02*
X201249200Y-131275000I0J50800D01*
G01*
X201249200Y-130875000D01*
G75*
G02*
X201300000Y-130824200I50800J0D01*
G01*
X202400000Y-130824200D01*
G75*
G02*
X202450800Y-130875000I0J-50800D01*
G01*
G37*
G36*
G01*
X202450800Y-130225000D02*
X202450800Y-130625000D01*
G75*
G02*
X202400000Y-130675800I-50800J0D01*
G01*
X201300000Y-130675800D01*
G75*
G02*
X201249200Y-130625000I0J50800D01*
G01*
X201249200Y-130225000D01*
G75*
G02*
X201300000Y-130174200I50800J0D01*
G01*
X202400000Y-130174200D01*
G75*
G02*
X202450800Y-130225000I0J-50800D01*
G01*
G37*
G36*
G01*
X202450800Y-129575000D02*
X202450800Y-129975000D01*
G75*
G02*
X202400000Y-130025800I-50800J0D01*
G01*
X201300000Y-130025800D01*
G75*
G02*
X201249200Y-129975000I0J50800D01*
G01*
X201249200Y-129575000D01*
G75*
G02*
X201300000Y-129524200I50800J0D01*
G01*
X202400000Y-129524200D01*
G75*
G02*
X202450800Y-129575000I0J-50800D01*
G01*
G37*
G36*
G01*
X202450800Y-128925000D02*
X202450800Y-129325000D01*
G75*
G02*
X202400000Y-129375800I-50800J0D01*
G01*
X201300000Y-129375800D01*
G75*
G02*
X201249200Y-129325000I0J50800D01*
G01*
X201249200Y-128925000D01*
G75*
G02*
X201300000Y-128874200I50800J0D01*
G01*
X202400000Y-128874200D01*
G75*
G02*
X202450800Y-128925000I0J-50800D01*
G01*
G37*
G36*
G01*
X202450800Y-128275000D02*
X202450800Y-128675000D01*
G75*
G02*
X202400000Y-128725800I-50800J0D01*
G01*
X201300000Y-128725800D01*
G75*
G02*
X201249200Y-128675000I0J50800D01*
G01*
X201249200Y-128275000D01*
G75*
G02*
X201300000Y-128224200I50800J0D01*
G01*
X202400000Y-128224200D01*
G75*
G02*
X202450800Y-128275000I0J-50800D01*
G01*
G37*
G36*
G01*
X202450800Y-127625000D02*
X202450800Y-128025000D01*
G75*
G02*
X202400000Y-128075800I-50800J0D01*
G01*
X201300000Y-128075800D01*
G75*
G02*
X201249200Y-128025000I0J50800D01*
G01*
X201249200Y-127625000D01*
G75*
G02*
X201300000Y-127574200I50800J0D01*
G01*
X202400000Y-127574200D01*
G75*
G02*
X202450800Y-127625000I0J-50800D01*
G01*
G37*
G36*
G01*
X202450800Y-126975000D02*
X202450800Y-127375000D01*
G75*
G02*
X202400000Y-127425800I-50800J0D01*
G01*
X201300000Y-127425800D01*
G75*
G02*
X201249200Y-127375000I0J50800D01*
G01*
X201249200Y-126975000D01*
G75*
G02*
X201300000Y-126924200I50800J0D01*
G01*
X202400000Y-126924200D01*
G75*
G02*
X202450800Y-126975000I0J-50800D01*
G01*
G37*
G36*
G01*
X202450800Y-126325000D02*
X202450800Y-126725000D01*
G75*
G02*
X202400000Y-126775800I-50800J0D01*
G01*
X201300000Y-126775800D01*
G75*
G02*
X201249200Y-126725000I0J50800D01*
G01*
X201249200Y-126325000D01*
G75*
G02*
X201300000Y-126274200I50800J0D01*
G01*
X202400000Y-126274200D01*
G75*
G02*
X202450800Y-126325000I0J-50800D01*
G01*
G37*
G36*
G01*
X202450800Y-125675000D02*
X202450800Y-126075000D01*
G75*
G02*
X202400000Y-126125800I-50800J0D01*
G01*
X201300000Y-126125800D01*
G75*
G02*
X201249200Y-126075000I0J50800D01*
G01*
X201249200Y-125675000D01*
G75*
G02*
X201300000Y-125624200I50800J0D01*
G01*
X202400000Y-125624200D01*
G75*
G02*
X202450800Y-125675000I0J-50800D01*
G01*
G37*
G36*
G01*
X202450800Y-125025000D02*
X202450800Y-125425000D01*
G75*
G02*
X202400000Y-125475800I-50800J0D01*
G01*
X201300000Y-125475800D01*
G75*
G02*
X201249200Y-125425000I0J50800D01*
G01*
X201249200Y-125025000D01*
G75*
G02*
X201300000Y-124974200I50800J0D01*
G01*
X202400000Y-124974200D01*
G75*
G02*
X202450800Y-125025000I0J-50800D01*
G01*
G37*
G36*
G01*
X202450800Y-124375000D02*
X202450800Y-124775000D01*
G75*
G02*
X202400000Y-124825800I-50800J0D01*
G01*
X201300000Y-124825800D01*
G75*
G02*
X201249200Y-124775000I0J50800D01*
G01*
X201249200Y-124375000D01*
G75*
G02*
X201300000Y-124324200I50800J0D01*
G01*
X202400000Y-124324200D01*
G75*
G02*
X202450800Y-124375000I0J-50800D01*
G01*
G37*
G36*
G01*
X202450800Y-123725000D02*
X202450800Y-124125000D01*
G75*
G02*
X202400000Y-124175800I-50800J0D01*
G01*
X201300000Y-124175800D01*
G75*
G02*
X201249200Y-124125000I0J50800D01*
G01*
X201249200Y-123725000D01*
G75*
G02*
X201300000Y-123674200I50800J0D01*
G01*
X202400000Y-123674200D01*
G75*
G02*
X202450800Y-123725000I0J-50800D01*
G01*
G37*
G36*
G01*
X202450800Y-123075000D02*
X202450800Y-123475000D01*
G75*
G02*
X202400000Y-123525800I-50800J0D01*
G01*
X201300000Y-123525800D01*
G75*
G02*
X201249200Y-123475000I0J50800D01*
G01*
X201249200Y-123075000D01*
G75*
G02*
X201300000Y-123024200I50800J0D01*
G01*
X202400000Y-123024200D01*
G75*
G02*
X202450800Y-123075000I0J-50800D01*
G01*
G37*
G36*
G01*
X201050800Y-123595000D02*
X201050800Y-127595000D01*
G75*
G02*
X201000000Y-127645800I-50800J0D01*
G01*
X197000000Y-127645800D01*
G75*
G02*
X196949200Y-127595000I0J50800D01*
G01*
X196949200Y-123595000D01*
G75*
G02*
X197000000Y-123544200I50800J0D01*
G01*
X201000000Y-123544200D01*
G75*
G02*
X201050800Y-123595000I0J-50800D01*
G01*
G37*
G36*
G01*
X201050800Y-127405000D02*
X201050800Y-131405000D01*
G75*
G02*
X201000000Y-131455800I-50800J0D01*
G01*
X197000000Y-131455800D01*
G75*
G02*
X196949200Y-131405000I0J50800D01*
G01*
X196949200Y-127405000D01*
G75*
G02*
X197000000Y-127354200I50800J0D01*
G01*
X201000000Y-127354200D01*
G75*
G02*
X201050800Y-127405000I0J-50800D01*
G01*
G37*
D13*
X216000000Y-116000000D03*
X172000000Y-116000000D03*
X216000000Y-140000000D03*
X172000000Y-140000000D03*
G36*
G01*
X209625000Y-131049200D02*
X210375000Y-131049200D01*
G75*
G02*
X210425800Y-131100000I0J-50800D01*
G01*
X210425800Y-131900000D01*
G75*
G02*
X210375000Y-131950800I-50800J0D01*
G01*
X209625000Y-131950800D01*
G75*
G02*
X209574200Y-131900000I0J50800D01*
G01*
X209574200Y-131100000D01*
G75*
G02*
X209625000Y-131049200I50800J0D01*
G01*
G37*
G36*
G01*
X209625000Y-129549200D02*
X210375000Y-129549200D01*
G75*
G02*
X210425800Y-129600000I0J-50800D01*
G01*
X210425800Y-130400000D01*
G75*
G02*
X210375000Y-130450800I-50800J0D01*
G01*
X209625000Y-130450800D01*
G75*
G02*
X209574200Y-130400000I0J50800D01*
G01*
X209574200Y-129600000D01*
G75*
G02*
X209625000Y-129549200I50800J0D01*
G01*
G37*
G36*
G01*
X206625000Y-122200800D02*
X205875000Y-122200800D01*
G75*
G02*
X205824200Y-122150000I0J50800D01*
G01*
X205824200Y-121350000D01*
G75*
G02*
X205875000Y-121299200I50800J0D01*
G01*
X206625000Y-121299200D01*
G75*
G02*
X206675800Y-121350000I0J-50800D01*
G01*
X206675800Y-122150000D01*
G75*
G02*
X206625000Y-122200800I-50800J0D01*
G01*
G37*
G36*
G01*
X206625000Y-123700800D02*
X205875000Y-123700800D01*
G75*
G02*
X205824200Y-123650000I0J50800D01*
G01*
X205824200Y-122850000D01*
G75*
G02*
X205875000Y-122799200I50800J0D01*
G01*
X206625000Y-122799200D01*
G75*
G02*
X206675800Y-122850000I0J-50800D01*
G01*
X206675800Y-123650000D01*
G75*
G02*
X206625000Y-123700800I-50800J0D01*
G01*
G37*
G36*
G01*
X204625000Y-123700800D02*
X203875000Y-123700800D01*
G75*
G02*
X203824200Y-123650000I0J50800D01*
G01*
X203824200Y-122850000D01*
G75*
G02*
X203875000Y-122799200I50800J0D01*
G01*
X204625000Y-122799200D01*
G75*
G02*
X204675800Y-122850000I0J-50800D01*
G01*
X204675800Y-123650000D01*
G75*
G02*
X204625000Y-123700800I-50800J0D01*
G01*
G37*
G36*
G01*
X204625000Y-122200800D02*
X203875000Y-122200800D01*
G75*
G02*
X203824200Y-122150000I0J50800D01*
G01*
X203824200Y-121350000D01*
G75*
G02*
X203875000Y-121299200I50800J0D01*
G01*
X204625000Y-121299200D01*
G75*
G02*
X204675800Y-121350000I0J-50800D01*
G01*
X204675800Y-122150000D01*
G75*
G02*
X204625000Y-122200800I-50800J0D01*
G01*
G37*
G36*
G01*
X181799999Y-117949200D02*
X182700001Y-117949200D01*
G75*
G02*
X182750800Y-117999999I0J-50799D01*
G01*
X182750800Y-118500001D01*
G75*
G02*
X182700001Y-118550800I-50799J0D01*
G01*
X181799999Y-118550800D01*
G75*
G02*
X181749200Y-118500001I0J50799D01*
G01*
X181749200Y-117999999D01*
G75*
G02*
X181799999Y-117949200I50799J0D01*
G01*
G37*
G36*
G01*
X181799999Y-116449200D02*
X182700001Y-116449200D01*
G75*
G02*
X182750800Y-116499999I0J-50799D01*
G01*
X182750800Y-117000001D01*
G75*
G02*
X182700001Y-117050800I-50799J0D01*
G01*
X181799999Y-117050800D01*
G75*
G02*
X181749200Y-117000001I0J50799D01*
G01*
X181749200Y-116499999D01*
G75*
G02*
X181799999Y-116449200I50799J0D01*
G01*
G37*
G36*
G01*
X179299999Y-117949200D02*
X180200001Y-117949200D01*
G75*
G02*
X180250800Y-117999999I0J-50799D01*
G01*
X180250800Y-118500001D01*
G75*
G02*
X180200001Y-118550800I-50799J0D01*
G01*
X179299999Y-118550800D01*
G75*
G02*
X179249200Y-118500001I0J50799D01*
G01*
X179249200Y-117999999D01*
G75*
G02*
X179299999Y-117949200I50799J0D01*
G01*
G37*
G36*
G01*
X179299999Y-116449200D02*
X180200001Y-116449200D01*
G75*
G02*
X180250800Y-116499999I0J-50799D01*
G01*
X180250800Y-117000001D01*
G75*
G02*
X180200001Y-117050800I-50799J0D01*
G01*
X179299999Y-117050800D01*
G75*
G02*
X179249200Y-117000001I0J50799D01*
G01*
X179249200Y-116499999D01*
G75*
G02*
X179299999Y-116449200I50799J0D01*
G01*
G37*
G36*
G01*
X182700001Y-130800800D02*
X181799999Y-130800800D01*
G75*
G02*
X181749200Y-130750001I0J50799D01*
G01*
X181749200Y-130249999D01*
G75*
G02*
X181799999Y-130199200I50799J0D01*
G01*
X182700001Y-130199200D01*
G75*
G02*
X182750800Y-130249999I0J-50799D01*
G01*
X182750800Y-130750001D01*
G75*
G02*
X182700001Y-130800800I-50799J0D01*
G01*
G37*
G36*
G01*
X182700001Y-132300800D02*
X181799999Y-132300800D01*
G75*
G02*
X181749200Y-132250001I0J50799D01*
G01*
X181749200Y-131749999D01*
G75*
G02*
X181799999Y-131699200I50799J0D01*
G01*
X182700001Y-131699200D01*
G75*
G02*
X182750800Y-131749999I0J-50799D01*
G01*
X182750800Y-132250001D01*
G75*
G02*
X182700001Y-132300800I-50799J0D01*
G01*
G37*
G36*
G01*
X187700001Y-132300800D02*
X186799999Y-132300800D01*
G75*
G02*
X186749200Y-132250001I0J50799D01*
G01*
X186749200Y-131749999D01*
G75*
G02*
X186799999Y-131699200I50799J0D01*
G01*
X187700001Y-131699200D01*
G75*
G02*
X187750800Y-131749999I0J-50799D01*
G01*
X187750800Y-132250001D01*
G75*
G02*
X187700001Y-132300800I-50799J0D01*
G01*
G37*
G36*
G01*
X187700001Y-130800800D02*
X186799999Y-130800800D01*
G75*
G02*
X186749200Y-130750001I0J50799D01*
G01*
X186749200Y-130249999D01*
G75*
G02*
X186799999Y-130199200I50799J0D01*
G01*
X187700001Y-130199200D01*
G75*
G02*
X187750800Y-130249999I0J-50799D01*
G01*
X187750800Y-130750001D01*
G75*
G02*
X187700001Y-130800800I-50799J0D01*
G01*
G37*
G36*
G01*
X190450001Y-130800800D02*
X189549999Y-130800800D01*
G75*
G02*
X189499200Y-130750001I0J50799D01*
G01*
X189499200Y-130249999D01*
G75*
G02*
X189549999Y-130199200I50799J0D01*
G01*
X190450001Y-130199200D01*
G75*
G02*
X190500800Y-130249999I0J-50799D01*
G01*
X190500800Y-130750001D01*
G75*
G02*
X190450001Y-130800800I-50799J0D01*
G01*
G37*
G36*
G01*
X190450001Y-132300800D02*
X189549999Y-132300800D01*
G75*
G02*
X189499200Y-132250001I0J50799D01*
G01*
X189499200Y-131749999D01*
G75*
G02*
X189549999Y-131699200I50799J0D01*
G01*
X190450001Y-131699200D01*
G75*
G02*
X190500800Y-131749999I0J-50799D01*
G01*
X190500800Y-132250001D01*
G75*
G02*
X190450001Y-132300800I-50799J0D01*
G01*
G37*
G36*
G01*
X186799999Y-117949200D02*
X187700001Y-117949200D01*
G75*
G02*
X187750800Y-117999999I0J-50799D01*
G01*
X187750800Y-118500001D01*
G75*
G02*
X187700001Y-118550800I-50799J0D01*
G01*
X186799999Y-118550800D01*
G75*
G02*
X186749200Y-118500001I0J50799D01*
G01*
X186749200Y-117999999D01*
G75*
G02*
X186799999Y-117949200I50799J0D01*
G01*
G37*
G36*
G01*
X186799999Y-116449200D02*
X187700001Y-116449200D01*
G75*
G02*
X187750800Y-116499999I0J-50799D01*
G01*
X187750800Y-117000001D01*
G75*
G02*
X187700001Y-117050800I-50799J0D01*
G01*
X186799999Y-117050800D01*
G75*
G02*
X186749200Y-117000001I0J50799D01*
G01*
X186749200Y-116499999D01*
G75*
G02*
X186799999Y-116449200I50799J0D01*
G01*
G37*
G36*
G01*
X189299999Y-116449200D02*
X190200001Y-116449200D01*
G75*
G02*
X190250800Y-116499999I0J-50799D01*
G01*
X190250800Y-117000001D01*
G75*
G02*
X190200001Y-117050800I-50799J0D01*
G01*
X189299999Y-117050800D01*
G75*
G02*
X189249200Y-117000001I0J50799D01*
G01*
X189249200Y-116499999D01*
G75*
G02*
X189299999Y-116449200I50799J0D01*
G01*
G37*
G36*
G01*
X189299999Y-117949200D02*
X190200001Y-117949200D01*
G75*
G02*
X190250800Y-117999999I0J-50799D01*
G01*
X190250800Y-118500001D01*
G75*
G02*
X190200001Y-118550800I-50799J0D01*
G01*
X189299999Y-118550800D01*
G75*
G02*
X189249200Y-118500001I0J50799D01*
G01*
X189249200Y-117999999D01*
G75*
G02*
X189299999Y-117949200I50799J0D01*
G01*
G37*
G36*
G01*
X210230800Y-120725000D02*
X210230800Y-121375000D01*
G75*
G02*
X210180000Y-121425800I-50800J0D01*
G01*
X209120000Y-121425800D01*
G75*
G02*
X209069200Y-121375000I0J50800D01*
G01*
X209069200Y-120725000D01*
G75*
G02*
X209120000Y-120674200I50800J0D01*
G01*
X210180000Y-120674200D01*
G75*
G02*
X210230800Y-120725000I0J-50800D01*
G01*
G37*
G36*
G01*
X210230800Y-122625000D02*
X210230800Y-123275000D01*
G75*
G02*
X210180000Y-123325800I-50800J0D01*
G01*
X209120000Y-123325800D01*
G75*
G02*
X209069200Y-123275000I0J50800D01*
G01*
X209069200Y-122625000D01*
G75*
G02*
X209120000Y-122574200I50800J0D01*
G01*
X210180000Y-122574200D01*
G75*
G02*
X210230800Y-122625000I0J-50800D01*
G01*
G37*
G36*
G01*
X212430800Y-122625000D02*
X212430800Y-123275000D01*
G75*
G02*
X212380000Y-123325800I-50800J0D01*
G01*
X211320000Y-123325800D01*
G75*
G02*
X211269200Y-123275000I0J50800D01*
G01*
X211269200Y-122625000D01*
G75*
G02*
X211320000Y-122574200I50800J0D01*
G01*
X212380000Y-122574200D01*
G75*
G02*
X212430800Y-122625000I0J-50800D01*
G01*
G37*
G36*
G01*
X212430800Y-121675000D02*
X212430800Y-122325000D01*
G75*
G02*
X212380000Y-122375800I-50800J0D01*
G01*
X211320000Y-122375800D01*
G75*
G02*
X211269200Y-122325000I0J50800D01*
G01*
X211269200Y-121675000D01*
G75*
G02*
X211320000Y-121624200I50800J0D01*
G01*
X212380000Y-121624200D01*
G75*
G02*
X212430800Y-121675000I0J-50800D01*
G01*
G37*
G36*
G01*
X212430800Y-120725000D02*
X212430800Y-121375000D01*
G75*
G02*
X212380000Y-121425800I-50800J0D01*
G01*
X211320000Y-121425800D01*
G75*
G02*
X211269200Y-121375000I0J50800D01*
G01*
X211269200Y-120725000D01*
G75*
G02*
X211320000Y-120674200I50800J0D01*
G01*
X212380000Y-120674200D01*
G75*
G02*
X212430800Y-120725000I0J-50800D01*
G01*
G37*
D11*
G36*
X196752790Y-123419005D02*
G01*
X196755172Y-123443192D01*
X196762172Y-123466267D01*
X196773537Y-123487531D01*
X196788832Y-123506168D01*
X196807469Y-123521463D01*
X196828733Y-123532828D01*
X196851808Y-123539828D01*
X196875893Y-123542200D01*
X196949200Y-123542200D01*
X196950932Y-123543200D01*
X196951200Y-123544200D01*
X196951200Y-131455800D01*
X196950200Y-131457532D01*
X196949200Y-131457800D01*
X196875893Y-131457800D01*
X196851808Y-131460172D01*
X196828733Y-131467172D01*
X196807469Y-131478537D01*
X196788832Y-131493832D01*
X196773537Y-131512469D01*
X196762172Y-131533733D01*
X196755172Y-131556808D01*
X196752790Y-131580995D01*
X196751625Y-131582621D01*
X196749635Y-131582425D01*
X196748800Y-131580799D01*
X196748800Y-131476200D01*
X195549200Y-131476200D01*
X195547468Y-131475200D01*
X195547200Y-131474200D01*
X195547200Y-131325800D01*
X195548200Y-131324068D01*
X195549200Y-131323800D01*
X196748800Y-131323800D01*
X196748800Y-130826200D01*
X195549200Y-130826200D01*
X195547468Y-130825200D01*
X195547200Y-130824200D01*
X195547200Y-130675800D01*
X195548200Y-130674068D01*
X195549200Y-130673800D01*
X196748800Y-130673800D01*
X196748800Y-130176200D01*
X195549200Y-130176200D01*
X195547468Y-130175200D01*
X195547200Y-130174200D01*
X195547200Y-130025800D01*
X195548200Y-130024068D01*
X195549200Y-130023800D01*
X196748800Y-130023800D01*
X196748800Y-129526200D01*
X195549200Y-129526200D01*
X195547468Y-129525200D01*
X195547200Y-129524200D01*
X195547200Y-129375800D01*
X195548200Y-129374068D01*
X195549200Y-129373800D01*
X196748800Y-129373800D01*
X196748800Y-128876200D01*
X195549200Y-128876200D01*
X195547468Y-128875200D01*
X195547200Y-128874200D01*
X195547200Y-128725800D01*
X195548200Y-128724068D01*
X195549200Y-128723800D01*
X196748800Y-128723800D01*
X196748800Y-128226200D01*
X195549200Y-128226200D01*
X195547468Y-128225200D01*
X195547200Y-128224200D01*
X195547200Y-128075800D01*
X195548200Y-128074068D01*
X195549200Y-128073800D01*
X196748800Y-128073800D01*
X196748800Y-127576200D01*
X195549200Y-127576200D01*
X195547468Y-127575200D01*
X195547200Y-127574200D01*
X195547200Y-127425800D01*
X195548200Y-127424068D01*
X195549200Y-127423800D01*
X196748800Y-127423800D01*
X196748800Y-126926200D01*
X195549200Y-126926200D01*
X195547468Y-126925200D01*
X195547200Y-126924200D01*
X195547200Y-126775800D01*
X195548200Y-126774068D01*
X195549200Y-126773800D01*
X196748800Y-126773800D01*
X196748800Y-126276200D01*
X195549200Y-126276200D01*
X195547468Y-126275200D01*
X195547200Y-126274200D01*
X195547200Y-126125800D01*
X195548200Y-126124068D01*
X195549200Y-126123800D01*
X196748800Y-126123800D01*
X196748800Y-125626200D01*
X195549200Y-125626200D01*
X195547468Y-125625200D01*
X195547200Y-125624200D01*
X195547200Y-125475800D01*
X195548200Y-125474068D01*
X195549200Y-125473800D01*
X196748800Y-125473800D01*
X196748800Y-124976200D01*
X195549200Y-124976200D01*
X195547468Y-124975200D01*
X195547200Y-124974200D01*
X195547200Y-124825800D01*
X195548200Y-124824068D01*
X195549200Y-124823800D01*
X196748800Y-124823800D01*
X196748800Y-124326200D01*
X195549200Y-124326200D01*
X195547468Y-124325200D01*
X195547200Y-124324200D01*
X195547200Y-124175800D01*
X195548200Y-124174068D01*
X195549200Y-124173800D01*
X196748800Y-124173800D01*
X196748800Y-123676200D01*
X195549200Y-123676200D01*
X195547468Y-123675200D01*
X195547200Y-123674200D01*
X195547200Y-123525800D01*
X195548200Y-123524068D01*
X195549200Y-123523800D01*
X196748800Y-123523800D01*
X196748800Y-123419201D01*
X196749800Y-123417469D01*
X196751800Y-123417469D01*
X196752790Y-123419005D01*
G37*
G36*
X201250365Y-123417575D02*
G01*
X201251200Y-123419201D01*
X201251200Y-123523800D01*
X202450800Y-123523800D01*
X202452532Y-123524800D01*
X202452800Y-123525800D01*
X202452800Y-123674200D01*
X202451800Y-123675932D01*
X202450800Y-123676200D01*
X201251200Y-123676200D01*
X201251200Y-124173800D01*
X202450800Y-124173800D01*
X202452532Y-124174800D01*
X202452800Y-124175800D01*
X202452800Y-124324200D01*
X202451800Y-124325932D01*
X202450800Y-124326200D01*
X201251200Y-124326200D01*
X201251200Y-124823800D01*
X202450800Y-124823800D01*
X202452532Y-124824800D01*
X202452800Y-124825800D01*
X202452800Y-124974200D01*
X202451800Y-124975932D01*
X202450800Y-124976200D01*
X201251200Y-124976200D01*
X201251200Y-125473800D01*
X202450800Y-125473800D01*
X202452532Y-125474800D01*
X202452800Y-125475800D01*
X202452800Y-125624200D01*
X202451800Y-125625932D01*
X202450800Y-125626200D01*
X201251200Y-125626200D01*
X201251200Y-126123800D01*
X202450800Y-126123800D01*
X202452532Y-126124800D01*
X202452800Y-126125800D01*
X202452800Y-126274200D01*
X202451800Y-126275932D01*
X202450800Y-126276200D01*
X201251200Y-126276200D01*
X201251200Y-126773800D01*
X202450800Y-126773800D01*
X202452532Y-126774800D01*
X202452800Y-126775800D01*
X202452800Y-126924200D01*
X202451800Y-126925932D01*
X202450800Y-126926200D01*
X201251200Y-126926200D01*
X201251200Y-127423800D01*
X202450800Y-127423800D01*
X202452532Y-127424800D01*
X202452800Y-127425800D01*
X202452800Y-127574200D01*
X202451800Y-127575932D01*
X202450800Y-127576200D01*
X201251200Y-127576200D01*
X201251200Y-128073800D01*
X202450800Y-128073800D01*
X202452532Y-128074800D01*
X202452800Y-128075800D01*
X202452800Y-128224200D01*
X202451800Y-128225932D01*
X202450800Y-128226200D01*
X201251200Y-128226200D01*
X201251200Y-128723800D01*
X202450800Y-128723800D01*
X202452532Y-128724800D01*
X202452800Y-128725800D01*
X202452800Y-128874200D01*
X202451800Y-128875932D01*
X202450800Y-128876200D01*
X201251200Y-128876200D01*
X201251200Y-129373800D01*
X202450800Y-129373800D01*
X202452532Y-129374800D01*
X202452800Y-129375800D01*
X202452800Y-129524200D01*
X202451800Y-129525932D01*
X202450800Y-129526200D01*
X201251200Y-129526200D01*
X201251200Y-130023800D01*
X202450800Y-130023800D01*
X202452532Y-130024800D01*
X202452800Y-130025800D01*
X202452800Y-130174200D01*
X202451800Y-130175932D01*
X202450800Y-130176200D01*
X201251200Y-130176200D01*
X201251200Y-130673800D01*
X202450800Y-130673800D01*
X202452532Y-130674800D01*
X202452800Y-130675800D01*
X202452800Y-130824200D01*
X202451800Y-130825932D01*
X202450800Y-130826200D01*
X201251200Y-130826200D01*
X201251200Y-131323800D01*
X202450800Y-131323800D01*
X202452532Y-131324800D01*
X202452800Y-131325800D01*
X202452800Y-131474200D01*
X202451800Y-131475932D01*
X202450800Y-131476200D01*
X201251200Y-131476200D01*
X201251200Y-131580799D01*
X201250200Y-131582531D01*
X201248200Y-131582531D01*
X201247210Y-131580995D01*
X201244828Y-131556808D01*
X201237828Y-131533733D01*
X201226463Y-131512469D01*
X201211168Y-131493832D01*
X201192531Y-131478537D01*
X201171267Y-131467172D01*
X201148192Y-131460172D01*
X201124107Y-131457800D01*
X201050800Y-131457800D01*
X201049068Y-131456800D01*
X201048800Y-131455800D01*
X201048800Y-123544200D01*
X201049800Y-123542468D01*
X201050800Y-123542200D01*
X201124107Y-123542200D01*
X201148192Y-123539828D01*
X201171267Y-123532828D01*
X201192531Y-123521463D01*
X201211168Y-123506168D01*
X201226463Y-123487531D01*
X201237828Y-123466267D01*
X201244828Y-123443192D01*
X201247210Y-123419005D01*
X201248375Y-123417379D01*
X201250365Y-123417575D01*
G37*
G36*
X212432532Y-122374800D02*
G01*
X212432800Y-122375800D01*
X212432800Y-122574200D01*
X212431800Y-122575932D01*
X212430800Y-122576200D01*
X211269200Y-122576200D01*
X211267468Y-122575200D01*
X211267200Y-122574200D01*
X211267200Y-122375800D01*
X211268200Y-122374068D01*
X211269200Y-122373800D01*
X212430800Y-122373800D01*
X212432532Y-122374800D01*
G37*
G36*
X212432532Y-121424800D02*
G01*
X212432800Y-121425800D01*
X212432800Y-121624200D01*
X212431800Y-121625932D01*
X212430800Y-121626200D01*
X211269200Y-121626200D01*
X211267468Y-121625200D01*
X211267200Y-121624200D01*
X211267200Y-121425800D01*
X211268200Y-121424068D01*
X211269200Y-121423800D01*
X212430800Y-121423800D01*
X212432532Y-121424800D01*
G37*
M02*
