G04 #@! TF.FileFunction,Soldermask,Top*
%FSLAX46Y46*%
G04 Gerber Fmt 4.6, Leading zero omitted, Abs format (unit mm)*
G04 Created by KiCad (PCBNEW 4.0.7) date 10/18/18 13:28:54*
%MOMM*%
%LPD*%
G01*
G04 APERTURE LIST*
%ADD10C,0.100000*%
%ADD11C,2.301600*%
%ADD12R,0.351600X0.801600*%
%ADD13R,0.801600X0.351600*%
%ADD14R,1.389100X1.389100*%
%ADD15R,1.101600X1.701600*%
%ADD16R,1.701600X1.101600*%
%ADD17R,1.301600X1.301600*%
%ADD18R,1.001600X1.801600*%
%ADD19R,1.201600X1.601600*%
%ADD20R,1.161600X0.751600*%
%ADD21R,1.351600X1.101600*%
%ADD22R,0.801600X1.401600*%
%ADD23R,1.001600X0.651600*%
%ADD24R,1.101600X1.351600*%
G04 APERTURE END LIST*
D10*
D11*
X216000000Y-140000000D03*
D12*
X217275000Y-128175000D03*
X216775000Y-128175000D03*
X216275000Y-128175000D03*
X215775000Y-128175000D03*
X215275000Y-128175000D03*
X214775000Y-128175000D03*
X214275000Y-128175000D03*
X213775000Y-128175000D03*
X213275000Y-128175000D03*
X212775000Y-128175000D03*
X212275000Y-128175000D03*
X211775000Y-128175000D03*
D13*
X211125000Y-128825000D03*
X211125000Y-129325000D03*
X211125000Y-129825000D03*
X211125000Y-130325000D03*
X211125000Y-130825000D03*
X211125000Y-131325000D03*
X211125000Y-131825000D03*
X211125000Y-132325000D03*
X211125000Y-132825000D03*
X211125000Y-133325000D03*
X211125000Y-133825000D03*
X211125000Y-134325000D03*
D12*
X211775000Y-134975000D03*
X212275000Y-134975000D03*
X212775000Y-134975000D03*
X213275000Y-134975000D03*
X213775000Y-134975000D03*
X214275000Y-134975000D03*
X214775000Y-134975000D03*
X215275000Y-134975000D03*
X215775000Y-134975000D03*
X216275000Y-134975000D03*
X216775000Y-134975000D03*
X217275000Y-134975000D03*
D13*
X217925000Y-134325000D03*
X217925000Y-133825000D03*
X217925000Y-133325000D03*
X217925000Y-132825000D03*
X217925000Y-132325000D03*
X217925000Y-131825000D03*
X217925000Y-131325000D03*
X217925000Y-130825000D03*
X217925000Y-130325000D03*
X217925000Y-129825000D03*
X217925000Y-129325000D03*
X217925000Y-128825000D03*
D14*
X212593750Y-133506250D03*
X213881250Y-133506250D03*
X215168750Y-133506250D03*
X216456250Y-133506250D03*
X212593750Y-132218750D03*
X213881250Y-132218750D03*
X215168750Y-132218750D03*
X216456250Y-132218750D03*
X212593750Y-130931250D03*
X213881250Y-130931250D03*
X215168750Y-130931250D03*
X216456250Y-130931250D03*
X212593750Y-129643750D03*
X213881250Y-129643750D03*
X215168750Y-129643750D03*
X216456250Y-129643750D03*
D11*
X216000000Y-116000000D03*
X172000000Y-140000000D03*
D15*
X208700000Y-111800000D03*
X211700000Y-111800000D03*
X201500000Y-121500000D03*
X198500000Y-121500000D03*
X207700000Y-135700000D03*
X204700000Y-135700000D03*
D16*
X218700000Y-118100000D03*
X218700000Y-115100000D03*
D17*
X183100000Y-116000000D03*
X180900000Y-116000000D03*
D18*
X220350000Y-135700000D03*
X223250000Y-135700000D03*
X223250000Y-138400000D03*
X220350000Y-138400000D03*
X220350000Y-141200000D03*
X223250000Y-141200000D03*
X213650000Y-114700000D03*
X210750000Y-114700000D03*
D19*
X171550000Y-124800000D03*
X174090000Y-124800000D03*
X171550000Y-133700000D03*
X174090000Y-133700000D03*
D20*
X213400000Y-121750000D03*
X213400000Y-120800000D03*
X213400000Y-119850000D03*
X211200000Y-119850000D03*
X211200000Y-121750000D03*
X211200000Y-120800000D03*
D11*
X172000000Y-116000000D03*
D21*
X216000000Y-121300000D03*
X216000000Y-119300000D03*
X219800000Y-129300000D03*
X219800000Y-127300000D03*
D22*
X206850000Y-120300000D03*
X208750000Y-120300000D03*
X181050000Y-120500000D03*
X182950000Y-120500000D03*
D23*
X204650000Y-139100000D03*
X207350000Y-139100000D03*
X204650000Y-139950000D03*
X207350000Y-139950000D03*
X204650000Y-140800000D03*
X207350000Y-140800000D03*
X192650000Y-139100000D03*
X195350000Y-139100000D03*
X192650000Y-139950000D03*
X195350000Y-139950000D03*
X192650000Y-140800000D03*
X195350000Y-140800000D03*
X180650000Y-139100000D03*
X183350000Y-139100000D03*
X180650000Y-139950000D03*
X183350000Y-139950000D03*
X180650000Y-140800000D03*
X183350000Y-140800000D03*
X204650000Y-127100000D03*
X207350000Y-127100000D03*
X204650000Y-127950000D03*
X207350000Y-127950000D03*
X204650000Y-128800000D03*
X207350000Y-128800000D03*
X192650000Y-127100000D03*
X195350000Y-127100000D03*
X192650000Y-127950000D03*
X195350000Y-127950000D03*
X192650000Y-128800000D03*
X195350000Y-128800000D03*
X180650000Y-127100000D03*
X183350000Y-127100000D03*
X180650000Y-127950000D03*
X183350000Y-127950000D03*
X180650000Y-128800000D03*
X183350000Y-128800000D03*
X204650000Y-115100000D03*
X207350000Y-115100000D03*
X204650000Y-115950000D03*
X207350000Y-115950000D03*
X204650000Y-116800000D03*
X207350000Y-116800000D03*
X192650000Y-115100000D03*
X195350000Y-115100000D03*
X192650000Y-115950000D03*
X195350000Y-115950000D03*
X192650000Y-116800000D03*
X195350000Y-116800000D03*
D24*
X213200000Y-117400000D03*
X211200000Y-117400000D03*
M02*
